<?xml version="1.0" encoding="UTF-8"?>
<svg width="126px" height="29px" viewBox="0 0 126 29" version="1.1" xmlns="http://www.w3.org/2000/svg" xmlns:xlink="http://www.w3.org/1999/xlink">
    <!-- Generator: Sketch 50.2 (55047) - http://www.bohemiancoding.com/sketch -->
    <title>CC-BY-NC</title>
    <desc>Created with Sketch.</desc>
    <defs></defs>
    <g id="Symbols" stroke="none" stroke-width="1" fill="none" fill-rule="evenodd">
        <g id="Footer" transform="translate(-552.000000, -73.000000)">
            <g id="CC-BY-NC">
                <g transform="translate(552.000000, 73.000000)">
                    <g id="nc" transform="translate(97.000000, 0.000000)">
                        <g id="Layer_1">
                            <g id="Group">
                                <circle id="Oval" fill="#FFFFFF" cx="14.4866154" cy="14.6052923" r="13.1486"></circle>
                                <path d="M14.4741231,0.223076923 C18.4850462,0.223076923 21.8673385,1.59946154 24.621,4.35267692 C27.3907231,7.10633846 28.7769231,10.4886308 28.7769231,14.5 C28.7769231,18.5118154 27.4170462,21.8508308 24.6968462,24.5197231 C21.808,27.3581538 18.3998308,28.7769231 14.4741231,28.7769231 C10.5988308,28.7769231 7.25089231,27.3661846 4.42986154,24.5451538 C1.62578462,21.7401846 0.223076923,18.3926923 0.223076923,14.5 C0.223076923,10.5908 1.62578462,7.20850769 4.42986154,4.35312308 C7.18307692,1.59990769 10.5310154,0.223076923 14.4741231,0.223076923 L14.4741231,0.223076923 Z M3.43538462,10.6505846 C3.01064615,11.8230769 2.79783077,13.1066615 2.79783077,14.5004462 C2.79783077,17.6618923 3.95336923,20.3986 6.26444615,22.7096769 C8.59292308,25.0046923 11.3465846,26.1517538 14.5245385,26.1517538 C17.7372923,26.1517538 20.5070154,24.9881846 22.8363846,22.6588154 C23.6693538,21.8602 24.3229692,21.0272308 24.7985692,20.1594615 L19.4197385,17.7631692 C19.2319077,18.6644 18.7777231,19.3992154 18.0558462,19.9680615 C17.3321846,20.5373538 16.4786923,20.8652769 15.4931385,20.9496 L15.4931385,23.1424462 L13.8361231,23.1424462 L13.8361231,20.9496 C12.2554,20.9335385 10.8103077,20.3642462 9.50218462,19.2421692 L11.4652615,17.2536615 C12.3995077,18.1200923 13.4622462,18.5533077 14.6521385,18.5533077 C15.1446923,18.5533077 15.5658615,18.4435538 15.9147538,18.2218154 C16.2627538,18.0014154 16.4376462,17.6364615 16.4376462,17.1256154 C16.4376462,16.7682462 16.3096,16.4795846 16.0548462,16.2587385 L14.6784615,15.6720462 L12.9960154,14.9068923 L10.7268769,13.9124154 L3.43538462,10.6505846 L3.43538462,10.6505846 Z M14.5254308,2.7724 C11.2792154,2.7724 8.53447692,3.91946154 6.29076923,6.21403077 C5.72950769,6.77529231 5.2026,7.4124 4.71004615,8.12669231 L10.1660615,10.5738462 C10.4038615,9.82609231 10.8540308,9.22690769 11.5174615,8.77673846 C12.1795538,8.32656923 12.9531846,8.07583077 13.8374615,8.02452308 L13.8374615,5.83167692 L15.4949231,5.83167692 L15.4949231,8.02452308 C16.8039385,8.09278462 17.9933846,8.53447692 19.0641538,9.35004615 L17.2028,11.2622615 C16.4028462,10.7014462 15.5881692,10.4212615 14.7552,10.4212615 C14.3130615,10.4212615 13.9182154,10.5064769 13.5702154,10.6760154 C13.2217692,10.846 13.0473231,11.1351077 13.0473231,11.5428923 C13.0473231,11.6620154 13.0897077,11.7806923 13.1744769,11.8998154 L14.9845231,12.7162769 L16.2337538,13.2770923 L18.5287692,14.2965538 L25.8443538,17.5597231 C26.0830462,16.5567692 26.2017231,15.5373077 26.2017231,14.5004462 C26.2017231,11.2198769 25.0631385,8.45818462 22.7859692,6.21403077 C20.5253077,3.91946154 17.7707538,2.7724 14.5254308,2.7724 L14.5254308,2.7724 Z" id="Shape" fill="#000000"></path>
                            </g>
                        </g>
                    </g>
                    <g id="by" transform="translate(48.000000, 0.000000)">
                        <g id="Layer_1">
                            <g id="Group">
                                <circle id="Oval" fill="#FFFFFF" cx="14.5611231" cy="14.6365231" r="12.6154462"></circle>
                                <path d="M14.4745692,0.223076923 C18.4846,0.223076923 21.8673385,1.59946154 24.621,4.35312308 C27.3907231,7.12373846 28.7769231,10.5060308 28.7769231,14.5 C28.7769231,18.5113692 27.4166,21.8508308 24.6968462,24.5188308 C21.8075538,27.3577077 18.4002769,28.7769231 14.4745692,28.7769231 C10.6157846,28.7769231 7.26784615,27.3742154 4.42986154,24.5696923 C1.62578462,21.7651692 0.223076923,18.4092 0.223076923,14.5 C0.223076923,10.5912462 1.62578462,7.20895385 4.42986154,4.35356923 C7.18352308,1.59946154 10.5310154,0.223076923 14.4745692,0.223076923 L14.4745692,0.223076923 Z M14.5254308,2.79827692 C11.2792154,2.79827692 8.53447692,3.93730769 6.29076923,6.21447692 C3.96184615,8.59426154 2.79783077,11.3564 2.79783077,14.5004462 C2.79783077,17.6618923 3.95336923,20.3986 6.26444615,22.7087846 C8.57596923,25.0207538 11.3291846,26.1758462 14.5245385,26.1758462 C17.7024923,26.1758462 20.4735538,25.0127231 22.8359385,22.6833538 C25.0796462,20.5248615 26.2012769,17.7970769 26.2012769,14.4995538 C26.2012769,11.2533385 25.0622462,8.49209231 22.7855231,6.21403077 C20.5083538,3.93686154 17.7546923,2.79827692 14.5254308,2.79827692 L14.5254308,2.79827692 Z M18.3498615,10.9562 L18.3498615,16.7941231 L16.7187231,16.7941231 L16.7187231,23.7282462 L12.2821692,23.7282462 L12.2821692,16.7945692 L10.6510308,16.7945692 L10.6510308,10.9562 C10.6510308,10.701 10.7402615,10.4846154 10.9182769,10.3061538 C11.0971846,10.1281385 11.3140154,10.0384615 11.5683231,10.0384615 L17.4325692,10.0384615 C17.6703692,10.0384615 17.8831846,10.1276923 18.0696769,10.3061538 C18.2557231,10.4846154 18.3498615,10.7014462 18.3498615,10.9562 L18.3498615,10.9562 Z M12.5110462,7.28524615 C12.5110462,5.94321538 13.1735846,5.27130769 14.5,5.27130769 C15.8264154,5.27130769 16.4885077,5.94232308 16.4885077,7.28524615 C16.4885077,8.61076923 15.8255231,9.27375385 14.5,9.27375385 C13.1744769,9.27375385 12.5110462,8.61076923 12.5110462,7.28524615 L12.5110462,7.28524615 Z" id="Shape" fill="#000000"></path>
                            </g>
                        </g>
                    </g>
                    <g id="cc">
                        <g id="Layer_1">
                            <g id="Group">
                                <circle id="Oval" fill="#FFFFFF" cx="14.6271538" cy="14.5004462" r="12.8652923"></circle>
                                <path d="M14.4736769,0.223076923 C18.4672,0.223076923 21.8673385,1.61730769 24.6714154,4.40443077 C26.0134462,5.74690769 27.0338,7.28123077 27.7306923,9.00606154 C28.4271385,10.7313385 28.7764769,12.5623538 28.7764769,14.5 C28.7764769,16.4546 28.4316,18.2860615 27.7440769,19.9934923 C27.0556615,21.7013692 26.0397692,23.2102615 24.6977385,24.5188308 C23.3044,25.8952154 21.7236769,26.9494769 19.9555692,27.6802769 C18.1883538,28.4110769 16.3609077,28.7764769 14.4745692,28.7764769 C12.5882308,28.7764769 10.7822,28.4159846 9.05692308,27.6927692 C7.33209231,26.9708923 5.78527692,25.9255538 4.41692308,24.5576462 C3.04856923,23.1897385 2.00769231,21.6469385 1.29384615,19.9301385 C0.58,18.2133385 0.223076923,16.4037385 0.223076923,14.5 C0.223076923,12.6132154 0.584015385,10.7991538 1.30633846,9.05692308 C2.02866154,7.31469231 3.07846154,5.75538462 4.45484615,4.37855385 C7.17415385,1.60883077 10.5136154,0.223076923 14.4736769,0.223076923 L14.4736769,0.223076923 Z M14.5254308,2.79827692 C11.2622615,2.79827692 8.51707692,3.93730769 6.29032308,6.21447692 C5.16824615,7.35350769 4.30583077,8.63218462 3.70263077,10.0514 C3.09853846,11.4706154 2.79738462,12.9536308 2.79738462,14.5004462 C2.79738462,16.0303077 3.09853846,17.5048462 3.70263077,18.9231692 C4.30627692,20.3432769 5.16824615,21.6094615 6.29032308,22.7226154 C7.41195385,23.8362154 8.67769231,24.6852462 10.0893231,25.2723846 C11.4996154,25.8586308 12.9786154,26.1517538 14.5254308,26.1517538 C16.0548462,26.1517538 17.5369692,25.8550615 18.9749231,25.2598923 C20.4110923,24.6642769 21.7058308,23.8067692 22.8622615,22.6851385 C25.0885692,20.5096923 26.2012769,17.7819077 26.2012769,14.5008923 C26.2012769,12.9201692 25.9121692,11.4246615 25.3344,10.0139231 C24.7575231,8.60318462 23.9156308,7.34592308 22.8118462,6.24035385 C20.5159385,3.94578462 17.7546923,2.79827692 14.5254308,2.79827692 L14.5254308,2.79827692 Z M14.3465231,12.1295846 L12.4338615,13.1240615 C12.2295231,12.6997692 11.9792308,12.4017385 11.6820923,12.2317538 C11.3845077,12.0622154 11.1083385,11.977 10.8531385,11.977 C9.57892308,11.977 8.94092308,12.818 8.94092308,14.5008923 C8.94092308,15.2656 9.10243077,15.8768308 9.425,16.3359231 C9.74801538,16.7950154 10.2240615,17.0247846 10.8531385,17.0247846 C11.6861077,17.0247846 12.2723538,16.6165538 12.6127692,15.8009846 L14.3715077,16.6932923 C13.9976308,17.3906308 13.4792,17.9385077 12.8162154,18.3378154 C12.1541231,18.7375692 11.4228769,18.937 10.6238154,18.937 C9.34915385,18.937 8.32032308,18.5466154 7.53866154,17.7640615 C6.757,16.9824 6.36616923,15.8946769 6.36616923,14.5013385 C6.36616923,13.1414615 6.76146154,12.0626615 7.5516,11.2636 C8.34173846,10.4649846 9.34023077,10.0652308 10.5475231,10.0652308 C12.3156308,10.0643385 13.5813692,10.7527538 14.3465231,12.1295846 L14.3465231,12.1295846 Z M22.5811846,12.1295846 L20.6944,13.1240615 C20.4905077,12.6997692 20.2393231,12.4017385 19.9421846,12.2317538 C19.6441538,12.0622154 19.3590615,11.977 19.0882462,11.977 C17.8135846,11.977 17.1755846,12.818 17.1755846,14.5008923 C17.1755846,15.2656 17.3375385,15.8768308 17.6601077,16.3359231 C17.9826769,16.7950154 18.4582769,17.0247846 19.0882462,17.0247846 C19.9203231,17.0247846 20.5070154,16.6165538 20.8465385,15.8009846 L22.6311538,16.6932923 C22.2407692,17.3906308 21.7134154,17.9385077 21.0513231,18.3378154 C20.3883385,18.7375692 19.6660154,18.937 18.8843538,18.937 C17.5922923,18.937 16.5603385,18.5466154 15.7876,17.7640615 C15.0130769,16.9824 14.6267077,15.8946769 14.6267077,14.5013385 C14.6267077,13.1414615 15.0215538,12.0626615 15.8125846,11.2636 C16.6022769,10.4649846 17.6007692,10.0652308 18.8076154,10.0652308 C20.5752769,10.0643385 21.8338769,10.7527538 22.5811846,12.1295846 L22.5811846,12.1295846 Z" id="Shape" fill="#000000"></path>
                            </g>
                        </g>
                    </g>
                </g>
            </g>
        </g>
    </g>
</svg>