<?xml version="1.0" encoding="UTF-8"?>
<svg width="22px" height="20px" viewBox="0 0 22 20" version="1.1" xmlns="http://www.w3.org/2000/svg" xmlns:xlink="http://www.w3.org/1999/xlink">
    <!-- Generator: sketchtool 55.2 (78181) - https://sketchapp.com -->
    <title>8565317E-1AD1-432D-B93B-5049AA142A92</title>
    <desc>Created with sketchtool.</desc>
    <g id="Main" stroke="none" stroke-width="1" fill="none" fill-rule="evenodd" opacity="0.8">
        <g id="Explore-People" transform="translate(-210.000000, -1149.000000)" fill="#0E3232" fill-rule="nonzero">
            <g id="Featured" transform="translate(112.000000, 849.000000)">
                <g id="Record-Card/Person---Condensed" transform="translate(0.000000, 72.000000)">
                    <g id="Connections">
                        <g transform="translate(25.128866, 197.000000)">
                            <g id="Connection-Icons" transform="translate(0.000000, 30.000000)">
                                <g id="Events" transform="translate(73.376289, 1.000000)">
                                    <g transform="translate(0.000000, -0.000000)" id="Combined-Shape">
                                        <path d="M14.1285176,1.9047619 L14.1285176,1 C14.1285176,0.44771525 14.5826599,4.4408921e-15 15.1428728,4.4408921e-15 C15.7030857,4.4408921e-15 16.157228,0.44771525 16.157228,1 L16.157228,1.9047619 L20.0901528,1.9047619 C20.6524309,1.9047619 21.1082474,2.34900469 21.1082474,2.90044557 L21.1082474,6.33764966 C21.1082474,6.36821228 21.1068249,6.39845329 21.1040424,6.42831402 C21.1068254,6.45813876 21.1082474,6.4883268 21.1082474,6.51881672 L21.1082474,19.0049928 C21.1082474,19.5545201 20.6477411,20 20.0901528,20 L1.01809465,20 C0.4558165,20 4.27424419e-14,19.5508823 4.27424419e-14,19.0049928 L4.27424419e-14,6.51881672 C4.27424419e-14,6.48840634 0.00141026556,6.45831459 0.00416920644,6.42859934 C0.00140976547,6.39865298 4.27424419e-14,6.36831709 4.27424419e-14,6.33764966 L4.27424419e-14,2.90044557 C4.27424419e-14,2.35054467 0.46050634,1.9047619 1.01809465,1.9047619 L5.40989417,1.9047619 L5.40989417,1 C5.40989417,0.44771525 5.86403646,4.4408921e-15 6.42424936,4.4408921e-15 C6.98446226,4.4408921e-15 7.43860455,0.44771525 7.43860455,1 L7.43860455,1.9047619 L14.1285176,1.9047619 Z M16.157228,3.9047619 L16.157228,3.94224319 C16.157228,4.49452794 15.7030857,4.94224319 15.1428728,4.94224319 C14.5826599,4.94224319 14.1285176,4.49452794 14.1285176,3.94224319 L14.1285176,3.9047619 L7.43860455,3.9047619 L7.43860455,3.94224319 C7.43860455,4.49452794 6.98446226,4.94224319 6.42424936,4.94224319 C5.86403646,4.94224319 5.40989417,4.49452794 5.40989417,3.94224319 L5.40989417,3.9047619 L2.02871038,3.9047619 L2.02871038,5.33333333 L19.079537,5.33333333 L19.079537,3.9047619 L16.157228,3.9047619 Z M2.02871038,7.52380952 L2.02871038,18 L19.079537,18 L19.079537,7.52380952 L2.02871038,7.52380952 Z M14.3947782,12.8571429 L15.9128194,12.8571429 C16.4651042,12.8571429 16.9128194,13.3048581 16.9128194,13.8571429 L16.9128194,15.3571429 C16.9128194,15.9094276 16.4651042,16.3571429 15.9128194,16.3571429 L14.3947782,16.3571429 C13.8424934,16.3571429 13.3947782,15.9094276 13.3947782,15.3571429 L13.3947782,13.8571429 C13.3947782,13.3048581 13.8424934,12.8571429 14.3947782,12.8571429 Z"></path>
                                    </g>
                                </g>
                            </g>
                        </g>
                    </g>
                </g>
            </g>
        </g>
    </g>
</svg>