<?xml version="1.0" encoding="UTF-8"?>
<svg width="168px" height="35px" viewBox="0 0 168 35" version="1.1" xmlns="http://www.w3.org/2000/svg" xmlns:xlink="http://www.w3.org/1999/xlink">
    <title>Footer-mellon</title>
    <g id="Symbols" stroke="none" stroke-width="1" fill="none" fill-rule="evenodd">
        <g id="Footer" transform="translate(-115.000000, -82.000000)" fill="#FFFFFF" fill-rule="nonzero">
            <g id="Footer-mellon" transform="translate(115.000000, 82.000000)">
                <path d="M89.4154254,16.4206181 L89.4154254,16.5039574 L85.5906364,16.5039574 L85.5906364,16.4206181 C86.2556345,16.2344937 86.6511334,15.7184846 86.6511334,13.5523576 L86.6511334,3.25926074 L80.7249504,16.5032629 L80.2461517,16.5032629 L74.1554692,3.65026091 L74.1554692,12.7057693 C74.1554692,15.5740298 74.7574675,16.2129644 76.0055639,16.4185347 L76.0055639,16.5018739 L72.0582752,16.5018739 L72.0582752,16.4185347 C73.181072,16.2122699 73.8257702,15.5733354 73.8257702,12.7057693 L73.8257702,4.00236941 C73.8257702,2.55851621 73.1187722,1.91888716 72.1205751,1.67164726 L72.1205751,1.58830797 L75.0654666,1.58830797 L81.195349,14.6260454 L87.0445322,1.58900247 L89.3580256,1.58900247 L89.3580256,1.67164726 C88.7133275,1.83693685 88.4172283,2.43489626 88.4172283,4.70589192 L88.4172283,13.5530521 C88.4172283,15.7219571 88.7700273,16.2344937 89.4154254,16.4213126 L89.4154254,16.4206181 Z M98.9381981,14.1148978 C98.3340999,15.6066711 96.900504,16.6317443 94.9454096,16.6317443 C91.9312182,16.6317443 89.8312243,14.260047 89.8312243,11.0625963 C89.8312243,7.78319521 91.9522182,5.49275372 94.80471,5.49275372 C97.4864023,5.49275372 98.8597983,7.36997123 98.8597983,9.43331315 C98.8639983,9.68819248 98.8359984,9.94307181 98.7764986,10.1903117 L91.4895195,10.1903117 C91.4895195,13.4495724 93.4236139,15.32679 95.9184068,15.32679 C97.1245033,15.32679 98.0590006,14.9760704 98.8709983,14.0648942 L98.9381981,14.1148978 L98.9381981,14.1148978 Z M91.4895195,9.94307181 L97.2960028,9.94307181 C97.3604027,9.63054947 97.3877026,9.31247118 97.3779026,8.9936984 C97.3779026,7.09703505 96.6086048,5.75527248 94.79981,5.75527248 C92.9910152,5.75527248 91.5777192,7.44706007 91.4895195,9.94307181 L91.4895195,9.94307181 Z M103.012886,16.441453 L103.012886,16.5039574 L99.2909971,16.5039574 L99.2909971,16.441453 C100.080595,16.1935186 100.331894,15.8421046 100.331894,14.1718463 L100.331894,3.36204586 C100.331894,1.56747315 100.039995,1.05215854 99.312697,0.80422415 L99.333697,0.742414176 C100.395594,0.679909709 101.436491,0.371554335 102.097989,-1.40990779e-14 L102.139289,0.0208348225 C102.076989,0.434058803 101.952389,1.31953876 101.952389,3.36204586 L101.952389,14.1704573 C101.952389,15.8622449 102.245689,16.2337992 103.012886,16.4407585 L103.012886,16.441453 Z M107.940172,16.441453 L107.940172,16.5039574 L104.218283,16.5039574 L104.218283,16.441453 C105.007881,16.1935186 105.25918,15.8421046 105.25918,14.1718463 L105.25918,3.36204586 C105.25918,1.56747315 104.968681,1.05215854 104.241383,0.80422415 L104.260983,0.742414176 C105.32148,0.679909709 106.361677,0.371554335 107.026675,-1.40990779e-14 L107.067975,0.0208348225 C107.005675,0.434058803 106.880375,1.31953876 106.880375,3.36204586 L106.880375,14.1704573 C106.879675,15.8622449 107.170875,16.2337992 107.940172,16.4407585 L107.940172,16.441453 Z M122.61983,16.441453 L122.61983,16.5032629 L118.857341,16.5032629 L118.857341,16.4407585 C119.667239,16.1935186 119.917138,15.8421046 119.917138,14.1711518 L119.917138,8.85063261 C119.917138,7.05536541 119.625239,6.55532966 118.897941,6.2928109 L118.918941,6.25114126 C119.917138,6.16849646 121.000735,5.8587521 121.683933,5.48719776 L121.725933,5.52886741 C121.642633,5.92056207 121.538333,6.80743102 121.538333,8.85549407 L121.538333,14.1774022 C121.538333,15.8011294 121.830232,16.2344937 122.61983,16.441453 L122.61983,16.441453 Z M129.876709,16.441453 L129.876709,16.5032629 L126.11282,16.5032629 L126.11282,16.4407585 C126.903118,16.2344937 127.215317,15.8011294 127.215317,14.1711518 L127.215317,9.59304679 C127.215317,7.48872971 126.23812,6.43587668 124.616224,6.43587668 C123.534728,6.43587668 122.51553,7.11786987 121.975832,8.12766427 L121.954832,8.10682945 C122.328631,6.91091064 123.597027,5.48719776 125.489822,5.48719776 C127.589116,5.48719776 128.816212,6.91091064 128.816212,9.01453322 L128.816212,14.1711518 C128.816212,15.8421046 129.064712,16.1935186 129.876709,16.441453 L129.876709,16.441453 Z M118.670442,11.0570403 C118.670442,14.2954662 116.653047,16.6261884 113.451256,16.6261884 C110.229166,16.6261884 108.211772,14.2954662 108.211772,11.0570403 C108.211772,8.04571397 110.229166,5.48719776 113.451256,5.48719776 C116.654447,5.48719776 118.670442,8.04571397 118.670442,11.0570403 Z M116.881947,11.0570403 C116.881947,7.983904 115.509251,5.75527248 113.451256,5.75527248 C111.369462,5.75527248 110.000266,7.98459849 110.000266,11.0570403 C110.000266,14.378111 111.372262,16.379643 113.451256,16.379643 C115.510651,16.379643 116.883347,14.378111 116.883347,11.0570403 L116.881947,11.0570403 L116.881947,11.0570403 Z M81.9926467,23.7544757 L81.910047,23.7961453 C81.2443489,20.9695544 80.143252,19.958371 77.7716588,19.958371 L75.0073668,19.958371 L75.0073668,26.765802 L77.4363598,26.765802 C79.6399535,26.765802 80.1397521,26.1477023 80.4295512,24.9295597 L80.512851,24.9295597 L80.512851,29.2632027 L80.4295512,29.2632027 C80.1397521,27.8589357 79.6399535,27.0338767 77.4363598,27.0338767 L75.0073668,27.0338767 L75.0073668,31.3244612 C75.0073668,33.7996381 75.4231656,34.3163417 76.2127633,34.521912 L76.2127633,34.6045568 L72.2423747,34.6045568 L72.2423747,34.5212175 C72.8653729,34.3357875 73.2405718,33.8204729 73.2405718,31.6140652 L73.2405718,22.6780098 C73.2405718,20.4716021 72.8653729,19.955593 72.2423747,19.7701631 L72.2423747,19.6875183 L81.8064473,19.6875183 L81.9926467,23.7544757 L81.9926467,23.7544757 Z M125.531122,34.0447945 L125.531122,34.0822972 C124.699524,34.103132 123.763627,34.3705122 122.932029,34.7212318 L122.911029,34.7003969 L122.911029,27.5859995 C122.911029,24.9260872 121.789633,23.8530938 120.043138,23.8530938 C118.130043,23.8530938 116.716747,25.5240466 116.716747,29.0722169 C116.716747,32.2488328 118.004743,33.7774143 119.917838,33.7774143 C120.958735,33.7774143 121.914232,33.1176449 122.454631,32.0856267 L122.475631,32.1064615 C122.100432,33.3447445 120.874735,34.7260932 119.06594,34.7260932 C116.591447,34.7260932 114.949252,32.5814955 114.949252,29.6312846 C114.949252,25.4018156 117.318745,23.5871026 120.038238,23.5871026 C121.243634,23.5871026 122.220831,24.0204669 122.906829,24.7219059 L122.906829,21.4591727 C122.906829,19.6646 122.59533,19.1485909 121.865932,18.901351 L121.907232,18.839541 C122.870369,18.7836158 123.811472,18.530861 124.671524,18.0971269 L124.692524,18.1179617 C124.630224,18.5297967 124.504925,19.4166656 124.504925,21.4591727 L124.504925,31.5460048 C124.511925,33.4051655 124.824124,33.8170005 125.531122,34.0447945 L125.531122,34.0447945 Z M135.186894,34.0447945 L135.186894,34.0822972 C134.376996,34.103132 133.440399,34.3705122 132.608802,34.7212318 L132.566802,34.7003969 L132.566802,28.9083163 L128.179914,30.170212 C127.968428,30.5487583 127.860776,30.9757413 127.867715,31.408495 C127.867715,33.0377781 128.908612,33.7392171 130.051009,33.7392171 C130.924606,33.7392171 131.735204,33.3891921 132.192303,32.5023232 L132.233603,32.523158 C131.901804,33.8010271 130.779007,34.7295657 129.261411,34.7295657 C127.598216,34.7295657 126.28782,33.6149027 126.28782,31.9238096 C126.28782,31.284875 126.518819,30.6042708 126.786918,30.3174448 L132.570302,28.6048224 L132.570302,27.8964384 C132.570302,25.0281778 131.801004,23.8544828 130.179808,23.8544828 C128.889712,23.8544828 127.580716,24.8239966 127.497416,27.6283637 L127.455416,27.6491985 L126.811418,24.8448314 C127.739035,24.0265332 128.938555,23.5769111 130.179808,23.5821943 C132.653601,23.5821943 134.192197,25.0462347 134.192197,27.99714 L134.192197,31.5453103 C134.188697,33.4051655 134.479896,33.8170005 135.186894,34.0441 L135.186894,34.0447945 Z M160.744521,34.5413578 L160.744521,34.6038623 L156.980632,34.6038623 L156.980632,34.5413578 C157.790529,34.2934234 158.041129,33.9440929 158.041129,32.2724456 L158.041129,26.9477595 C158.041129,25.1531868 157.749929,24.653151 157.022631,24.3899378 L157.043631,24.3489626 C158.041129,24.2663178 159.125425,23.9579624 159.808623,23.5857136 L159.850623,23.6273833 C159.767324,24.0197724 159.663024,24.9066414 159.663024,26.9477595 L159.663024,32.2703621 C159.663024,33.8996453 159.954223,34.3330096 160.744521,34.5413578 L160.744521,34.5413578 Z M168,34.5413578 L168,34.6038623 L164.241011,34.6038623 L164.241011,34.5413578 C165.030609,34.335093 165.343508,33.9024232 165.343508,32.2724456 L165.343508,27.6908681 C165.343508,25.5865511 164.36561,24.535087 162.743015,24.535087 C161.662918,24.535087 160.643721,25.2156912 160.104023,26.2261801 L160.083023,26.2053453 C160.456822,25.008732 161.725218,23.5857136 163.617313,23.5857136 C165.716607,23.5857136 166.943003,25.0094265 166.943003,27.1137436 L166.943003,32.2703621 C166.939503,33.9413149 167.189402,34.2913399 168,34.5413578 L168,34.5413578 Z M92.1559176,29.1479167 C92.1559176,32.3863426 90.1385234,34.7177593 86.9367326,34.7177593 C83.7146418,34.7177593 81.6972476,32.3863426 81.6972476,29.1479167 C81.6972476,26.1365904 83.7146418,23.5787687 86.9367326,23.5787687 C90.1385234,23.5822411 92.1559176,26.1400629 92.1559176,29.1479167 L92.1559176,29.1479167 Z M90.3674227,29.1479167 C90.3674227,26.0747804 88.9961266,23.8461489 86.9367326,23.8461489 C84.8549385,23.8461489 83.4857425,26.0747804 83.4857425,29.1479167 C83.4857425,32.4689874 84.8584385,34.4698294 86.9367326,34.4698294 C88.9961266,34.4732974 90.3674227,32.4759324 90.3674227,29.1479167 L90.3674227,29.1479167 Z M144.252568,32.2703621 L144.252568,26.9477595 C144.252568,25.0385952 144.342168,24.1392254 144.421968,23.710028 L137.806287,23.710028 L137.806287,21.9564305 L137.722987,21.9147608 C137.327488,22.5536954 136.268391,23.5218202 135.518693,23.833648 L135.518693,23.9579624 L136.247391,23.9579624 L136.247391,31.3209887 C136.247391,33.6107357 137.327488,34.7247042 139.157283,34.7247042 C140.695878,34.7247042 141.586276,33.5899009 141.714375,32.7648419 L141.652076,32.7440071 C141.361576,33.5079506 140.676278,33.8996453 139.761381,33.8996453 C138.596584,33.8996453 137.806287,33.1982062 137.806287,31.1355588 L137.806287,23.9579624 L140.427079,23.9579624 C141.773875,23.9579624 142.625073,24.1135291 142.625073,27.6103068 L142.625073,32.2703621 C142.625073,33.9413149 142.376574,34.2913399 141.565276,34.5392743 L141.565276,34.6010843 L145.286465,34.6010843 L145.286465,34.5413578 C144.522067,34.3330096 144.252568,33.9677057 144.252568,32.2703621 L144.252568,32.2703621 Z M143.392971,21.9154553 C143.984466,21.9154553 144.463968,21.4397239 144.463968,20.8528794 C144.463968,20.2660349 143.984466,19.7903034 143.392971,19.7903034 C142.801475,19.7903034 142.321974,20.2660349 142.321974,20.8528794 C142.321974,21.4397239 142.801475,21.9154553 143.392971,21.9154553 Z M100.511094,32.0557635 C99.9902951,33.0669469 98.972498,33.7475511 97.8910011,33.7475511 C96.2719058,33.7475511 95.2926086,32.694698 95.2926086,30.5917699 L95.2926086,26.94012 C95.2926086,24.8566378 95.4172082,24.010744 95.479508,23.6190493 L95.4592081,23.5773797 C94.7732101,23.9482395 93.7330131,24.2579839 92.693516,24.3413232 L92.6515162,24.3822983 C93.3795141,24.6510675 93.6924132,25.1455473 93.6924132,26.94012 L93.6924132,31.1688945 C93.6924132,33.2516823 94.9202097,34.6969245 96.9985037,34.6969245 C98.9115982,34.6969245 100.179295,33.2516823 100.553793,32.0765983 L100.511094,32.0557635 L100.511094,32.0557635 Z" id="Shape"></path>
                <path d="M106.294477,32.2620282 L106.294477,26.94012 C106.294477,24.8976129 106.398077,24.010744 106.481376,23.6190493 L106.440077,23.5773797 C105.752679,23.9482395 104.672582,24.2579839 103.674385,24.3413232 L103.653385,24.3822983 C104.381383,24.6510675 104.672582,25.1455473 104.672582,26.94012 L104.672582,32.2620282 C104.672582,33.0780588 104.612382,33.5794835 104.457682,33.9079792 C104.310015,34.2292522 103.986884,34.4354083 103.630985,34.4354083 C103.275085,34.4354083 102.951954,34.2292522 102.804287,33.9079792 C102.649587,33.5794835 102.589388,33.0780588 102.589388,32.2620282 L102.589388,26.94012 C102.589388,24.8566378 102.693687,24.010744 102.776987,23.6190493 L102.734987,23.5773797 C101.87399,24.012133 100.934592,24.2718738 99.9706952,24.3413232 L99.9503952,24.3822983 C100.677693,24.6510675 100.968192,25.1455473 100.968192,26.94012 L100.968192,32.2620282 C100.968192,33.8920058 100.677693,34.3281481 99.8873954,34.5309404 L99.8873954,34.5934448 L107.375274,34.5934448 L107.375274,34.5309404 C106.584276,34.3246756 106.294477,33.8920058 106.294477,32.2620282 L106.294477,32.2620282 Z M113.569556,32.2620282 L113.569556,27.1054096 C113.569556,25.0010926 112.34316,23.5773797 110.243166,23.5773797 C108.351771,23.5773797 107.083375,25.0010926 106.708176,26.1977059 L106.729176,26.2185407 C107.270274,25.2073573 108.289471,24.5267531 109.369568,24.5267531 C110.988664,24.5267531 111.968661,25.5782171 111.968661,27.6825342 L111.968661,32.2620282 C111.968661,33.8920058 111.656462,34.3281481 110.866164,34.5309404 L110.866164,34.5934448 L114.630053,34.5934448 L114.630053,34.5309404 C113.819455,34.283006 113.569556,33.9336755 113.569556,32.2620282 Z M156.352033,29.1416663 C156.352033,32.3793977 154.334639,34.7101199 151.132848,34.7101199 C147.910758,34.7101199 145.893363,32.3793977 145.893363,29.1409718 C145.893363,26.1296454 147.910758,23.5718237 151.132848,23.5718237 C154.334639,23.5718237 156.352033,26.1303399 156.352033,29.1416663 L156.352033,29.1416663 Z M154.563539,29.1416663 C154.563539,26.0678355 153.191542,23.8392039 151.132848,23.8392039 C149.051054,23.8392039 147.681858,26.06853 147.681858,29.1409718 C147.681858,32.4620425 149.054554,34.4635745 151.132848,34.4635745 C153.191542,34.4635745 154.563539,32.4620425 154.563539,29.1409718 L154.563539,29.1416663 Z M3.01257331,34.9976404 C4.53646894,34.9976404 5.89166506,33.8010271 6.00576473,32.2627227 C6.68896277,22.8599673 12.9532448,11.2299693 20.2913237,8.78535017 C22.6643169,7.98807096 24.3576121,8.84299318 24.1889126,11.2931683 C24.0748129,12.7745242 22.2688181,16.1942131 21.7039197,18.1304626 C20.0099246,23.9433781 23.7927137,28.6728828 28.8186993,28.6728828 C35.3104807,28.6728828 38.3057721,22.8037133 38.8146706,16.9338493 C39.2094695,12.147396 39.7736679,5.99417844 44.0660555,5.99417844 C47.0018471,5.98931699 48.1876437,9.12356879 50.1112382,14.3100506 C51.5238341,18.1853276 55.4753228,28.0436711 60.1072095,33.9128406 C60.614745,34.5249133 61.3468947,34.9114733 62.1421037,34.987223 C62.9360918,35.0605687 63.7266935,34.8160265 64.3379974,34.3080078 C65.5804938,33.2829345 65.6371937,31.459193 64.7341962,30.0910397 C59.0306126,21.487647 56.9971184,15.73168 54.6822251,9.34997386 C51.6323338,0.917426686 46.8324476,-0.336135137 42.8802589,0.233350012 C36.3303777,1.2091142 33.9006847,7.41441885 33.1663868,16.0185061 C32.5972884,22.4543827 29.7783965,23.8246196 28.1404012,22.9141378 C25.3740092,21.3751389 27.9122019,16.6456342 28.5352001,14.9927383 C31.8111907,6.27405956 26.841905,2.85645417 22.2716181,2.85645417 C12.8405451,2.85645417 1.99827622,15.4490209 0.0221818936,31.6328166 C-0.20671745,33.455169 1.37387802,34.9976404 3.01117332,34.9976404 L3.01257331,34.9976404 Z" id="Shape"></path>
            </g>
        </g>
    </g>
</svg>