<?xml version="1.0" encoding="UTF-8"?>
<svg width="199px" height="50px" viewBox="0 0 199 50" version="1.1" xmlns="http://www.w3.org/2000/svg" xmlns:xlink="http://www.w3.org/1999/xlink">
    <title>Footer-neh</title>
    <g id="Symbols" stroke="none" stroke-width="1" fill="none" fill-rule="evenodd">
        <g id="Footer" transform="translate(-242.000000, -90.000000)" fill="#FFFFFF" fill-rule="nonzero">
            <g id="Group-2" transform="translate(74.000000, 83.000000)">
                <g id="Footer-neh" transform="translate(168.000000, 7.830769)">
                    <g id="Group" transform="translate(56.897449, 14.729950)">
                        <path d="M13.5996839,18.611276 C13.1063074,18.611276 11.3874474,18.6828578 10.9975208,18.6828578 L10.9975208,18.1976921 C11.6646961,18.046511 12.1513918,17.4725093 12.1911736,16.7899161 L12.1911736,11.5485353 L3.84356192,11.5485353 L3.84356192,16.8217302 C3.92086561,17.5010845 4.42387659,18.0550688 5.09291848,18.1976921 L5.09291848,18.6510436 C4.70299191,18.6510436 2.95230118,18.5794618 2.4589247,18.5794618 C1.96554823,18.5794618 0.389926571,18.6510436 0,18.6510436 L0,18.1976921 C0.665725979,18.0441288 1.15128219,17.4714712 1.19365277,16.7899161 L1.19365277,5.82198889 C1.13657035,5.14644493 0.657380096,4.58129521 0,4.41421289 L0,3.96086129 C0.389926571,3.96086129 2.03716739,4.03244313 2.4589247,4.03244313 C2.88068202,4.03244313 4.70299191,3.96086129 5.09291848,3.96086129 L5.09291848,4.41421289 C4.41363635,4.56055404 3.90787265,5.130449 3.84356192,5.82198889 L3.84356192,10.1487129 L12.1991313,10.1487129 L12.1991313,5.82198889 C12.1701343,5.13513283 11.6786299,4.55546003 11.0054785,4.41421289 L11.0054785,3.96086129 C11.3954051,3.96086129 13.1142651,4.03244313 13.6076416,4.03244313 C14.101018,4.03244313 15.7164281,3.96086129 16.098397,3.96086129 L16.098397,4.41421289 C15.4253702,4.56658184 14.9272649,5.13508944 14.8649558,5.82198889 L14.8649558,16.8137767 C14.9369929,17.4915588 15.4330625,18.0481465 16.098397,18.1976921 L16.098397,18.6510436 C15.7084704,18.6510436 14.0293989,18.5794618 13.6076416,18.5794618" id="Path"></path>
                        <path d="M31.6477137,18.2931345 C31.0827181,18.6749043 30.3506111,19.2714195 30.3506111,19.2714195 C29.5303267,18.5750603 28.9694902,17.6221353 28.759074,16.567217 C27.4426447,18.0207394 25.594609,18.8811768 23.6343248,18.953278 C20.6183622,18.953278 19.3212595,17.0285222 19.3212595,14.6742753 L19.3212595,7.69902356 C19.3212595,6.57757488 18.6926024,6.05264146 17.5307803,5.79812828 L17.5307803,5.40840498 L21.6051151,3.81769763 L21.987084,3.81769763 L21.987084,12.6779376 C21.987084,15.1673946 22.5122912,17.1398717 25.0110044,17.1398717 C26.4505122,17.0525688 27.7821055,16.3479751 28.6635818,15.2071622 L28.6635818,7.69902356 C28.6635818,6.57757488 28.0349247,6.05264146 26.8731027,5.79812828 L26.8731027,5.40840498 L30.9474375,3.81769763 L31.337364,3.81769763 L31.337364,15.588932 C31.337364,16.7103807 31.6875022,16.9887545 32.1331325,16.9887545 C32.4053457,16.9953089 32.6760604,16.9466057 32.9289011,16.8455908 L33.1755893,17.4023384 C33.1755893,17.4023384 32.4355246,17.7920617 31.7034175,18.2772274" id="Path"></path>
                        <path d="M55.019435,18.611276 C54.5658469,18.611276 52.6321294,18.6828578 52.1785414,18.6828578 L52.1785414,18.2613203 C52.9186061,17.9431789 53.7223323,17.5614091 53.7223323,16.893312 L53.7223323,10.0532704 C53.7223323,7.56381344 53.579094,5.59133633 51.0883385,5.59133633 C49.7381293,5.65731726 48.4611607,6.22456298 47.5073802,7.18204367 C47.525228,7.47340057 47.525228,7.76557582 47.5073802,8.05693271 L47.5073802,16.893312 C47.5073802,17.5932233 48.2474449,17.9113647 49.0989172,18.2613203 L49.0989172,18.6828578 C48.6453292,18.6828578 46.6081618,18.611276 46.146616,18.611276 C45.6850703,18.611276 43.7593105,18.6828578 43.3057225,18.6828578 L43.3057225,18.2613203 C44.0457872,17.9431789 44.8495134,17.5614091 44.8495134,16.893312 L44.8495134,10.0532704 C44.8495134,7.56381344 44.706275,5.59133633 42.2155196,5.59133633 C40.8156153,5.67928455 39.5283761,6.38820989 38.7061805,7.52404575 L38.7061805,16.893312 C38.7061805,17.5932233 39.4382875,17.9113647 40.2977175,18.2613203 L40.2977175,18.6828578 C39.8361717,18.6828578 37.806962,18.611276 37.353374,18.611276 C36.8997859,18.611276 34.9660684,18.6828578 34.5124804,18.6828578 L34.5124804,18.2613203 C35.2525451,17.9431789 36.0562713,17.5614091 36.0562713,16.893312 L36.0562713,7.69902356 C36.0562713,6.57757488 35.4276142,6.05264146 34.2657922,5.80608182 L34.2657922,5.41635852 L38.1968886,3.82565117 L38.5788575,3.82565117 L38.7220958,6.10831621 C39.9873678,4.9152857 41.4277088,3.82565117 43.6001568,3.82565117 C45.7726048,3.82565117 46.7832309,4.77212204 47.2209035,6.10831621 C48.6107902,4.71205928 50.47974,3.89606389 52.4491027,3.82565117 C55.4650653,3.82565117 56.3801991,5.7583606 56.3801991,8.10465393 L56.3801991,16.893312 C56.3801991,17.5932233 57.1123061,17.9113647 57.9717361,18.2613203 L57.9717361,18.6828578 C57.5181481,18.6828578 55.4809807,18.611276 55.019435,18.611276" id="Path"></path>
                        <path d="M71.1337473,18.2931345 C70.5687517,18.6749043 69.8366447,19.2714195 69.8366447,19.2714195 C69.1913366,18.6561148 68.6982079,17.8991076 68.3963037,17.0603363 C67.2118635,18.2834195 65.5710453,18.9578506 63.8683808,18.9214639 C61.1945986,18.9214639 59.3006696,17.6568516 59.3006696,14.8174389 C59.3006696,12.1530041 61.8312134,10.7849958 64.393588,10.3236907 C65.0938643,10.2202947 67.3379315,10.180527 68.109827,10.180527 L68.109827,7.90581552 C68.109827,6.31510817 67.1310317,5.02663522 64.9904144,5.02663522 C63.4023738,5.00163329 61.9462483,5.90657263 61.2662178,7.34111441 L60.8126297,7.34111441 L60.8126297,4.50170179 C62.4193391,4.02744698 64.0870296,3.79162663 65.7623099,3.80179056 C69.9400946,3.80179056 70.7836092,5.94129194 70.7836092,8.29553882 L70.7836092,15.5968855 C70.7836092,16.7183342 71.1337473,16.996708 71.5793777,16.996708 C71.85154,17.0026076 72.1221249,16.9539277 72.3751462,16.8535443 L72.6218345,17.4102919 C72.6218345,17.4102919 71.8817697,17.8000152 71.1496627,18.285181 M68.1257424,11.3019757 L66.0567442,11.3019757 C63.9797884,11.3019757 62.1574785,12.4234244 62.1574785,14.6742753 C62.1087323,15.3368285 62.3385624,15.9896965 62.7916609,16.4757687 C63.2447594,16.9618409 63.8800978,17.237103 64.5447841,17.2353228 C65.9844009,17.2236466 67.3202068,16.4842474 68.0939116,15.2707905 L68.1257424,11.3019757 Z" id="Shape"></path>
                        <path d="M86.205603,18.611276 C85.7520149,18.611276 83.8182974,18.6828578 83.3647094,18.6828578 L83.3647094,18.2613203 C84.1047741,17.9431789 84.9085003,17.5614091 84.9085003,16.893312 L84.9085003,10.0532704 C84.9085003,7.56381344 83.9217473,5.59133633 81.4309919,5.59133633 C79.9914841,5.67863918 78.6598907,6.38323288 77.7784144,7.52404575 L77.7784144,16.893312 C77.7784144,17.5932233 78.5184791,17.9113647 79.3699514,18.2613203 L79.3699514,18.6828578 C78.9163634,18.6828578 76.879196,18.611276 76.4176503,18.611276 C75.9561045,18.611276 74.0303447,18.6828578 73.5767567,18.6828578 L73.5767567,18.2613203 C74.3168214,17.9431789 75.1205476,17.5614091 75.1205476,16.893312 L75.1205476,7.69902356 C75.1205476,6.57757488 74.4918905,6.05264146 73.3300684,5.80608182 L73.3300684,5.41635852 L77.2611649,3.82565117 L77.6431338,3.82565117 L77.7863721,6.10831621 C79.0880596,4.70785383 80.8961027,3.88592376 82.8076714,3.82565117 C85.8236341,3.82565117 87.5822825,5.7583606 87.5822825,8.10465393 L87.5822825,16.893312 C87.5822825,17.5932233 88.3223472,17.9113647 89.1738195,18.2613203 L89.1738195,18.6828578 C88.7202315,18.6828578 86.6830641,18.611276 86.2215183,18.611276" id="Path"></path>
                        <path d="M93.6460386,18.611276 C93.1924505,18.611276 91.258733,18.6828578 90.805145,18.6828578 L90.805145,18.2613203 C91.5452097,17.9431789 92.3489359,17.5614091 92.3489359,16.893312 L92.3489359,7.69902356 C92.3489359,6.57757488 91.7202788,6.05264146 90.5584567,5.80608182 L90.5584567,5.41635852 L94.6327915,3.82565117 L95.0147604,3.82565117 L95.0147604,16.893312 C95.0147604,17.5932233 95.7468674,17.9113647 96.6062974,18.2613203 L96.6062974,18.6828578 C96.1527094,18.6828578 94.115542,18.611276 93.6539962,18.611276" id="Path"></path>
                        <path d="M103.441949,18.9214639 C101.75492,18.9214639 100.107679,18.1261102 100.107679,14.8174389 L100.107679,5.37659083 L97.9272732,5.37659083 L97.9272732,4.54146948 L99.8212022,3.97676837 C100.850451,2.89145565 101.481565,1.48971163 101.611681,0 L102.773503,0 L102.773503,4.03244313 L107.094526,4.03244313 L107.094526,5.3686373 L102.773503,5.3686373 L102.773503,14.3640873 C102.773503,16.2252149 103.37033,16.8535443 104.460533,16.8535443 C105.305511,16.8446491 106.103455,16.463349 106.640938,15.811631 L107.205934,16.3365645 C106.823965,17.0762434 105.447286,18.8976033 103.449907,18.8976033" id="Path"></path>
                        <path d="M111.869138,18.611276 C111.415549,18.611276 109.481832,18.6828578 109.028244,18.6828578 L109.028244,18.2613203 C109.768309,17.9431789 110.572035,17.5614091 110.572035,16.893312 L110.572035,7.69902356 C110.572035,6.57757488 109.943378,6.05264146 108.781556,5.80608182 L108.781556,5.41635852 L112.85589,3.82565117 L113.245817,3.82565117 L113.245817,16.893312 C113.245817,17.5932233 113.985882,17.9113647 114.837354,18.2613203 L114.837354,18.6828578 C114.383766,18.6828578 112.338641,18.611276 111.885053,18.611276" id="Path"></path>
                        <path d="M129.320341,10.1884806 L119.349362,10.1884806 C118.895773,14.2209237 121.139841,17.2432676 124.474111,17.2432676 C126.36804,17.2432676 127.657185,16.9251262 128.548446,16.018423 L129.145272,16.6865201 C127.861817,18.1752876 125.969327,18.9980625 124.004607,18.9214639 C119.054927,18.9214639 116.420933,15.9070735 116.420933,11.3417434 C116.420933,6.7764133 119.604007,3.80179056 123.439612,3.80179056 C127.275216,3.80179056 129.582945,6.43441122 129.407876,9.44880164 C129.413544,9.69932478 129.378609,9.9491137 129.304426,10.1884806 M123.4794,5.0664029 C121.163714,5.0664029 119.794992,7.20590428 119.500558,8.99545005 L126.590855,8.99545005 C126.837543,7.24567197 125.71551,5.0664029 123.503273,5.0664029" id="Shape"></path>
                        <path d="M136.450427,18.9214639 C134.951511,18.8805245 133.464257,18.6452544 132.025954,18.2215527 L132.025954,15.1355804 L132.479542,15.1355804 C133.458337,16.893312 134.580371,17.6648051 136.410638,17.6648051 C138.415975,17.6648051 139.49822,16.9251262 139.49822,15.6286997 C139.517837,14.8592231 139.053425,14.1597893 138.336398,13.8789216 L133.983544,11.7394202 C132.569997,11.1545486 131.662313,9.76054144 131.699689,8.23191052 C131.699689,5.35273022 134.301852,3.8097441 137.071126,3.8097441 C138.569935,3.85184083 140.057041,4.08708746 141.495599,4.50965533 L141.495599,7.49223161 L141.042011,7.49223161 C140.290066,6.03149109 138.786334,5.11131872 137.142745,5.10617059 C135.423885,5.10617059 134.333683,6.02082731 134.333683,7.3172538 C134.333683,8.43870248 134.75544,9.00340359 135.92522,9.56015116 L140.349693,11.6996525 C141.446937,12.266598 142.116952,13.4168115 142.068553,14.6504147 C142.068553,17.4182455 139.896105,18.9612316 136.450427,18.9612316" id="Path"></path>
                    </g>
                    <polygon id="Path" points="57.8205401 10.1089452 58.9505314 10.1089452 60.5420684 12.7336123 60.5420684 12.7336123 60.5420684 10.1089452 61.337837 10.1089452 61.337837 13.8789216 60.3112956 13.8789216 58.6640547 11.1906262 58.6640547 11.1906262 58.6640547 13.8789216 57.8682862 13.8789216"></polygon>
                    <path d="M63.5659888,10.1089452 L64.2503497,10.1089452 L65.8896328,13.8789216 L64.9585837,13.8789216 L64.6323186,13.0835679 L63.1283161,13.0835679 L62.8100087,13.8789216 L61.9346633,13.8789216 L63.5659888,10.1089452 Z M63.8842962,11.2065333 L63.4227505,12.3757032 L64.3458419,12.3757032 L63.8842962,11.2065333 Z" id="Shape"></path>
                    <polygon id="Path" points="66.6774437 10.8486241 65.6031562 10.8486241 65.6031562 10.1168987 68.5872881 10.1168987 68.5872881 10.8486241 67.5130006 10.8486241 67.5130006 13.8868751 66.7172321 13.8868751"></polygon>
                    <polygon id="Path" points="69.1602414 10.1089452 69.9560099 10.1089452 69.9560099 13.8789216 69.1602414 13.8789216"></polygon>
                    <path d="M72.7411997,10.0135028 C73.2820892,9.97695113 73.8130349,10.1718725 74.201651,10.5496654 C74.5902671,10.9274582 74.7999317,11.4525205 74.7783671,11.9939334 C74.7783671,13.1184434 73.8662962,14.0300388 72.7411997,14.0300388 C71.6161033,14.0300388 70.7040323,13.1184434 70.7040323,11.9939334 C70.6824678,11.4525205 70.8921324,10.9274582 71.2807485,10.5496654 C71.6693646,10.1718725 72.2003103,9.97695113 72.7411997,10.0135028 Z M72.7411997,13.1949174 C73.0628,13.2047105 73.3735173,13.0779731 73.5964338,12.8460789 C73.8193502,12.6141848 73.9336286,12.2988103 73.9109794,11.9780263 C73.9109794,11.3301153 73.3854698,10.8048797 72.7372209,10.8048797 C72.0889719,10.8048797 71.5634623,11.3301153 71.5634623,11.9780263 C71.5358468,12.3028806 71.6490391,12.62396 71.8743049,12.8597572 C72.0995706,13.0955544 72.4152475,13.2233944 72.7411997,13.2108245 L72.7411997,13.1949174 Z" id="Shape"></path>
                    <polygon id="Path" points="75.5025165 10.1089452 76.6563808 10.1089452 78.2479178 12.7336123 78.2479178 12.7336123 78.2479178 10.1089452 79.0436864 10.1089452 79.0436864 13.8789216 77.9932719 13.8789216 76.3460311 11.1906262 76.3460311 11.1906262 76.3460311 13.8789216 75.5502626 13.8789216"></polygon>
                    <path d="M81.2479651,10.1089452 L81.9323261,10.1089452 L83.5716092,13.8789216 L82.6326023,13.8789216 L82.3063373,13.0835679 L80.8421232,13.0835679 L80.5317735,13.8789216 L79.6166397,13.8789216 L81.2479651,10.1089452 Z M81.5662725,11.2065333 L81.1047268,12.3757032 L82.0278183,12.3757032 L81.5662725,11.2065333 Z" id="Shape"></path>
                    <polygon id="Path" points="84.1525202 10.1089452 84.9482887 10.1089452 84.9482887 13.1153821 86.4920796 13.1153821 86.4920796 13.9107358 84.1047741 13.9107358"></polygon>
                    <polygon id="Path" points="88.4815009 10.1089452 91.0438755 10.1089452 91.0438755 10.9042989 89.3091002 10.9042989 89.3091002 11.6042101 90.980214 11.6042101 90.980214 12.3995638 89.3091002 12.3995638 89.3091002 13.1949174 91.1393677 13.1949174 91.1393677 13.9902711 88.4815009 13.9902711"></polygon>
                    <polygon id="Path" points="91.966967 10.1089452 93.0969583 10.1089452 94.6884953 12.7336123 94.6884953 12.7336123 94.6884953 10.1089452 95.4842638 10.1089452 95.4842638 13.8789216 94.394061 13.8789216 92.7468201 11.1906262 92.7468201 11.1906262 92.7468201 13.8789216 91.9510516 13.8789216"></polygon>
                    <path d="M96.4710168,10.1089452 L97.7203733,10.1089452 C98.9378992,10.1089452 99.9564829,10.6259251 99.9564829,12.0018869 C99.9460153,12.5404203 99.7102519,13.0499301 99.3064614,13.4066525 C98.9026709,13.7633749 98.3678029,13.9346673 97.8317809,13.8789216 L96.4710168,13.8789216 L96.4710168,10.1089452 Z M97.2667853,13.1153821 L97.6965003,13.1153821 C98.4922688,13.1153821 99.0493068,12.8211012 99.0493068,11.9621193 C99.0493068,11.1031373 98.4604381,10.8724847 97.7522041,10.8724847 L97.2588276,10.8724847 L97.2667853,13.1153821 Z" id="Shape"></path>
                    <path d="M102.5109,10.0135028 C103.051789,9.97695113 103.582735,10.1718725 103.971351,10.5496654 C104.359967,10.9274582 104.569632,11.4525205 104.548067,11.9939334 C104.548067,13.1184434 103.635996,14.0300388 102.5109,14.0300388 C101.385803,14.0300388 100.473732,13.1184434 100.473732,11.9939334 C100.452168,11.4525205 100.661832,10.9274582 101.050449,10.5496654 C101.439065,10.1718725 101.97001,9.97695113 102.5109,10.0135028 Z M102.5109,13.1949174 C102.833499,13.2133987 103.148748,13.0939322 103.377992,12.8663248 C103.607236,12.6387174 103.728857,12.3244336 103.71251,12.0018869 C103.748969,11.5597015 103.533565,11.1345915 103.15535,10.9023028 C102.777135,10.6700141 102.300369,10.6700141 101.922153,10.9023028 C101.543938,11.1345915 101.328534,11.5597015 101.364993,12.0018869 C101.345091,12.317119 101.457242,12.6264262 101.674586,12.8557249 C101.89193,13.0850237 102.194889,13.2136603 102.5109,13.2108245 L102.5109,13.1949174 Z" id="Shape"></path>
                    <polygon id="Path" points="104.88229 10.1089452 105.789466 10.1089452 106.39425 12.4950062 106.39425 12.4950062 107.190019 10.1089452 107.985787 10.1089452 108.781556 12.5904487 108.781556 12.5904487 109.41817 10.1089452 110.261685 10.1089452 109.155567 13.8789216 108.415502 13.8789216 107.619734 11.2701616 107.619734 11.2701616 106.823965 13.8789216 106.107773 13.8789216"></polygon>
                    <polygon id="Path" points="110.763019 10.1089452 112.020334 10.1089452 112.887721 12.566588 112.887721 12.566588 113.763067 10.1089452 115.012423 10.1089452 115.012423 13.8789216 114.216655 13.8789216 114.216655 10.9917878 114.216655 10.9917878 113.221944 13.8868751 112.585329 13.8868751 111.630407 10.9917878 111.630407 10.9917878 111.630407 13.8868751 110.834638 13.8868751"></polygon>
                    <polygon id="Path" points="115.983261 10.1089452 118.545635 10.1089452 118.545635 10.9042989 116.81086 10.9042989 116.81086 11.6042101 118.450143 11.6042101 118.450143 12.3995638 116.81086 12.3995638 116.81086 13.1949174 118.641128 13.1949174 118.641128 13.9902711 115.983261 13.9902711"></polygon>
                    <polygon id="Path" points="119.476684 10.1089452 120.606676 10.1089452 122.198213 12.7336123 122.198213 12.7336123 122.198213 10.1089452 122.993981 10.1089452 122.993981 13.8789216 121.903778 13.8789216 120.256538 11.1906262 120.256538 11.1906262 120.256538 13.8789216 119.460769 13.8789216"></polygon>
                    <polygon id="Path" points="124.712841 10.8486241 123.606723 10.8486241 123.606723 10.1168987 126.590855 10.1168987 126.590855 10.8486241 125.516567 10.8486241 125.516567 13.8868751 124.720799 13.8868751"></polygon>
                    <polygon id="Path" points="128.548446 10.1089452 131.078989 10.1089452 131.078989 10.9042989 129.376045 10.9042989 129.376045 11.6996525 130.967582 11.6996525 130.967582 12.4950062 129.376045 12.4950062 129.376045 13.9664105 128.580276 13.9664105"></polygon>
                    <path d="M133.673195,10.0135028 C134.214084,9.97695113 134.74503,10.1718725 135.133646,10.5496654 C135.522262,10.9274582 135.731927,11.4525205 135.710362,11.9939334 C135.710362,13.1184434 134.798291,14.0300388 133.673195,14.0300388 C132.548098,14.0300388 131.636027,13.1184434 131.636027,11.9939334 C131.614463,11.4525205 131.824127,10.9274582 132.212744,10.5496654 C132.60136,10.1718725 133.132305,9.97695113 133.673195,10.0135028 Z M133.673195,13.1949174 C133.994795,13.2047105 134.305512,13.0779731 134.528429,12.8460789 C134.751345,12.6141848 134.865624,12.2988103 134.842974,11.9780263 C134.879433,11.5358409 134.66403,11.1107309 134.285814,10.8784422 C133.907599,10.6461535 133.430833,10.6461535 133.052618,10.8784422 C132.674402,11.1107309 132.458999,11.5358409 132.495457,11.9780263 C132.467842,12.3028806 132.581034,12.62396 132.8063,12.8597572 C133.031566,13.0955544 133.347243,13.2233944 133.673195,13.2108245 L133.673195,13.1949174 Z" id="Shape"></path>
                    <path d="M136.434511,10.1089452 L137.930556,10.1089452 C138.726325,10.1089452 139.354982,10.3714119 139.354982,11.2542545 C139.39566,11.7522863 139.051268,12.1997633 138.559213,12.2882143 L139.522093,13.8789216 L138.527383,13.8789216 L137.731614,12.3677496 L137.317815,12.3677496 L137.317815,13.8789216 L136.522046,13.8789216 L136.434511,10.1089452 Z M137.23028,11.6996525 L137.723656,11.6996525 C138.026049,11.6996525 138.423933,11.6996525 138.423933,11.2781151 C138.423933,10.8565776 138.081752,10.8406706 137.77936,10.8406706 L137.238238,10.8406706 L137.23028,11.6996525 Z" id="Shape"></path>
                    <polygon id="Path" points="142.092426 10.8486241 141.018138 10.8486241 141.018138 10.1168987 144.00227 10.1168987 144.00227 10.8486241 142.927983 10.8486241 142.927983 13.8868751 142.132214 13.8868751"></polygon>
                    <polygon id="Path" points="144.583181 10.1089452 145.37895 10.1089452 145.37895 11.5167212 146.970487 11.5167212 146.970487 10.1089452 147.766255 10.1089452 147.766255 13.8789216 146.970487 13.8789216 146.970487 12.2484466 145.37895 12.2484466 145.37895 13.8391539 144.583181 13.8391539"></polygon>
                    <polygon id="Path" points="148.81667 10.1089452 151.379044 10.1089452 151.379044 10.9042989 149.644269 10.9042989 149.644269 11.6042101 151.283552 11.6042101 151.283552 12.3995638 149.644269 12.3995638 149.644269 13.1949174 151.458621 13.1949174 151.458621 13.9902711 148.800754 13.9902711"></polygon>
                    <g id="Group">
                        <path d="M26.713949,24.1230769 C26.713949,25.5462848 25.5596092,26.7000228 24.135659,26.7000228 C22.7117087,26.7000228 21.557369,25.5462848 21.557369,24.1230769 C21.557369,22.699869 22.7117087,21.5461187 24.135659,21.5461187 C24.8208417,21.5440174 25.4786861,21.8145828 25.9639317,22.2980832 C26.4491773,22.7815836 26.7219067,23.4382481 26.7219067,24.1230769" id="Path"></path>
                        <path d="M22.544122,1.51912552 C22.4963759,0.230652565 23.0056677,0 24.135659,0 C25.2656503,0 25.7749421,0.238606102 25.727196,1.52707905 L24.6210778,17.2512212 C24.5733317,17.6091303 24.4221357,18.3806234 24.1117859,18.3806234 C23.8014362,18.3806234 23.6422825,17.5852697 23.6024941,17.2512212 L22.544122,1.51912552 Z" id="Path"></path>
                        <path d="M39.0244879,7.03888001 C39.8839179,6.07650207 40.4091251,6.24352634 41.2128513,7.03888001 C42.0165775,7.83423369 42.2075619,8.36712065 41.2128513,9.21814908 L29.3240697,19.5577468 C29.0455507,19.7724923 28.3850628,20.2178904 28.1622477,19.9951914 C27.9394325,19.7724923 28.3850628,19.1123488 28.5999203,18.833975 L39.0244879,7.03888001 Z" id="Path"></path>
                        <path d="M46.7514001,22.5880443 C48.0405451,22.5164625 48.271318,23.0175353 48.271318,24.1787517 C48.271318,25.339968 48.0325874,25.8171802 46.7434424,25.769459 L31.0110989,24.6082427 C30.6609608,24.5605214 29.8811076,24.4094042 29.8811076,24.0992163 C29.8811076,23.7890284 30.6768762,23.6299576 31.0110989,23.59019 L46.7514001,22.5880443 Z" id="Path"></path>
                        <path d="M41.2367243,39.0041442 C42.1996042,39.8631261 42.0324928,40.3880596 41.2367243,41.1834132 C40.4409558,41.9787669 39.9077909,42.1776053 39.0563186,41.1834132 L28.7113279,29.3008293 C28.4964704,29.0224556 28.0508401,28.362312 28.2736553,28.139613 C28.4964704,27.9169139 29.1569583,28.362312 29.4354773,28.5770575 L41.2367243,39.0041442 Z" id="Path"></path>
                        <path d="M25.727196,46.7270283 C25.7988152,48.0155013 25.297481,48.2461538 24.135659,48.2461538 C22.973837,48.2461538 22.4963759,48.0075477 22.544122,46.7190748 L23.6184095,30.9869791 C23.6581979,30.6370235 23.8173516,29.8575769 24.1277013,29.8575769 C24.438051,29.8575769 24.5972047,30.6529306 24.6369931,30.9869791 L25.727196,46.7270283 Z" id="Path"></path>
                        <path d="M9.2547878,41.2152274 C8.39535781,42.1776053 7.87015059,42.010581 7.07438208,41.2152274 C6.27861356,40.4198737 6.08762912,39.8869867 7.07438208,39.0359583 L18.9631637,28.6963605 C19.2416826,28.4816151 19.9021705,28.036217 20.1249857,28.258916 C20.3478009,28.4816151 19.9021705,29.1417586 19.687313,29.4201324 L9.2547878,41.2152274 Z" id="Path"></path>
                        <path d="M1.51991786,25.6819701 C0.262603609,25.769459 0,25.2524791 0,24.1230769 C0,22.9936747 0.238730554,22.4846484 1.52787554,22.5323696 L17.2681767,23.606097 C17.6183149,23.6458647 18.398168,23.8049355 18.398168,24.1151234 C18.398168,24.4253113 17.6023995,24.5843821 17.2681767,24.6241497 L1.51991786,25.6819701 Z" id="Path"></path>
                        <path d="M7.04255134,9.24200969 C6.07967144,8.38302772 6.24678282,7.8580943 7.04255134,7.06274062 C7.83831985,6.26738695 8.37148475,6.06854853 9.22295706,7.06274062 L19.5679477,18.9453245 C19.7907629,19.2236983 20.2284356,19.8838418 20.0056204,20.1065409 C19.7828052,20.3292399 19.1223174,19.8838418 18.8437984,19.6690964 L7.04255134,9.24200969 Z" id="Path"></path>
                        <path d="M26.9765526,16.8853585 C26.8253566,17.3705242 26.7776104,17.8875041 26.6264144,18.3726699 C26.4752184,18.8578356 26.3956416,18.9612316 25.9500112,18.8180679 C25.2417772,18.5874154 26.0455034,16.0581907 26.1648687,15.692328 C27.1993678,12.4631921 31.7352483,9.28973091 32.6822128,6.45827183 C32.9457157,5.6821586 32.8869336,4.83286046 32.5190186,4.10040375 C32.1511037,3.36794705 31.5047666,2.81347168 30.7246223,2.56103883 C29.2763236,2.0997337 28.6635818,2.9666692 28.1463323,2.79964493 C27.9976715,2.7373818 27.9267338,2.5672202 27.9871786,2.41787517 C28.2099938,1.7100104 29.7617424,0.691957696 32.5946783,1.62252149 C34.91412,2.35429089 36.2102829,4.81749118 35.4992333,7.14227599 C34.2498768,11.0474625 28.5919627,11.8189556 26.9685949,16.9171726" id="Path"></path>
                        <path d="M31.2975756,20.997337 C30.8439875,21.2359431 30.4461033,21.5699916 30.0004729,21.7926907 C29.5548426,22.0153897 29.4195619,22.0472038 29.2047044,21.6336199 C28.862524,20.9734764 31.2259564,19.7565853 31.5920099,19.5736539 C34.6079726,17.9829466 40.0908177,19.0089528 42.7327691,17.648898 C44.2255599,16.8661337 44.8051932,15.0250692 44.0298718,13.528966 C43.3295955,12.1768647 42.2871388,12.3597961 42.0324928,11.8746303 C41.9714361,11.7230813 42.0419266,11.5504696 42.1916465,11.484907 C42.8521344,11.142905 44.6664866,11.484907 46.0352085,14.1652489 C47.158081,16.323018 46.3304617,18.9820896 44.1810678,20.1224479 C40.536448,21.9994826 35.9846521,18.5317406 31.2339141,21.0052905" id="Path"></path>
                        <path d="M31.3771525,26.9624895 C30.8917337,26.8113723 30.3744841,26.7636511 29.8890653,26.6125339 C29.4036465,26.4614167 29.3001966,26.3818814 29.443435,25.9444368 C29.6662501,25.2365721 32.196794,26.0478328 32.5708052,26.1591823 C35.8095831,27.1931421 38.9767417,31.726658 41.8096777,32.6731289 C42.5861957,32.9364945 43.4359368,32.877743 44.1687755,32.5100198 C44.9016143,32.1422966 45.4563789,31.4962965 45.7089434,30.7165589 C46.1704891,29.2690152 45.3031014,28.6565929 45.4622551,28.139613 C45.5246907,27.9910875 45.6927118,27.9176165 45.844224,27.9725887 C46.552458,28.1952877 47.5710417,29.7462274 46.6399925,32.58564 C45.9078415,34.9038726 43.4433564,36.1993598 41.117359,35.4886809 C37.2101356,34.2399757 36.4382402,28.585011 31.337364,26.9624895" id="Path"></path>
                        <path d="M27.2550716,31.2494458 C27.016341,30.7960942 26.6821182,30.3984174 26.459303,29.9530194 C26.2364879,29.5076213 26.2046571,29.3803647 26.6184567,29.1576657 C27.2789446,28.8156636 28.4964704,31.177864 28.6794972,31.5437267 C30.2710342,34.5581171 29.2444928,40.0381039 30.605257,42.6786781 C30.9659798,43.4127469 31.6055115,43.9720911 32.3813261,44.2320552 C33.1571407,44.4920193 34.0047643,44.4309991 34.7352956,44.0625935 C36.088102,43.3706358 35.9050753,42.320769 36.3825364,42.0662558 C36.5341645,42.0052309 36.7068662,42.0756846 36.772463,42.2253265 C37.1146434,42.8854701 36.772463,44.6988765 34.0907231,46.0668848 C31.9216856,47.1962824 29.2472873,46.3562971 28.1145015,44.1898501 C26.2364879,40.5471303 29.7060386,36.0056608 27.2311985,31.2494458" id="Path"></path>
                        <path d="M21.3027231,31.3369347 C21.4539191,30.851769 21.5016652,30.3268356 21.6528612,29.8496234 C21.8040572,29.3724112 21.8836341,29.2610617 22.3213068,29.4042253 C23.0295408,29.6348779 22.2258146,32.1641026 22.1064493,32.5299653 C21.0719502,35.7670547 16.5360697,38.9325623 15.5891052,41.7640214 C15.3256023,42.5401346 15.3843844,43.3894328 15.7522993,44.1218895 C16.1202143,44.8543462 16.7665514,45.4088216 17.5466957,45.6612544 C18.9949944,46.1225595 19.6077362,45.255624 20.1249857,45.4146948 C20.2746944,45.4803353 20.3477869,45.6507955 20.2920971,45.8044181 C20.0692819,46.5122828 18.5095756,47.5303355 15.6766397,46.5997717 C13.3571979,45.8680023 12.0610351,43.4048021 12.7720846,41.0800172 C14.0214412,37.1748307 19.6793553,36.4033376 21.3027231,31.3051206" id="Path"></path>
                        <path d="M16.9737424,27.2408633 C17.4273304,27.0022572 17.8252147,26.6682087 18.270845,26.4455097 C18.7164754,26.2228106 18.8517561,26.1909965 19.0666136,26.6045804 C19.408794,27.2647239 17.0453615,28.4816151 16.679308,28.6645464 C13.6553877,30.2552537 8.18050031,29.2292475 5.53854885,30.5893023 C4.04111561,31.3722172 3.46075071,33.2191642 4.24144617,34.7171879 C4.94172246,36.0692891 5.98417921,35.8863578 6.23882514,36.36357 C6.29988189,36.515119 6.22939141,36.6877307 6.07967144,36.7532933 C5.42714126,37.0952953 3.60483136,36.7532933 2.23610952,34.0729514 C1.13482501,31.9331645 1.94387529,29.3060047 4.05841941,28.15552 C7.7030392,26.2784854 12.2468774,29.7462274 17.0055731,27.2726775" id="Path"></path>
                        <path d="M16.8941655,21.2836643 C17.3795843,21.4347815 17.8968338,21.4825027 18.3822526,21.6336199 C18.8676714,21.7847371 18.9711213,21.8642725 18.827883,22.301717 C18.5971101,23.0095818 16.0665663,22.2062746 15.7005128,22.0869715 C12.4617349,21.0530117 9.29457623,16.4797281 6.46164032,15.5730249 C5.68512229,15.3096594 4.83538117,15.3684109 4.10254243,15.736134 C3.36970369,16.1038572 2.81493912,16.7498573 2.56237461,17.529595 C2.10082887,18.9771387 2.96821655,19.589561 2.80906285,20.1065409 C2.74365261,20.2519647 2.57646543,20.3215897 2.42709396,20.2656116 C1.71885999,20.0429126 0.700276291,18.4840194 1.63132545,15.6605138 C2.36347652,13.3422812 4.82796156,12.046794 7.15395893,12.7574729 C11.0611823,14.0061782 11.8330778,19.6611428 16.9339539,21.2836643" id="Path"></path>
                        <path d="M21.0162464,17.0205686 C21.254977,17.4739202 21.5891997,17.871597 21.8120149,18.3169951 C22.0348301,18.7623932 22.0666609,18.8976033 21.6528612,19.1123488 C20.9923734,19.4543509 19.7748475,17.0921504 19.5918208,16.7262878 C18.0002838,13.7118973 19.0268251,8.23986406 17.666061,5.59133633 C17.3039511,4.85656835 16.6624141,4.29742217 15.8848242,4.03885885 C15.1072343,3.78029552 14.2584148,3.84387006 13.5280647,4.21537447 C12.1752582,4.90733217 12.358285,5.95719902 11.8808239,6.21171219 C11.7291958,6.27273712 11.5564941,6.20228338 11.4908973,6.05264146 C11.1487169,5.39249791 11.4908973,3.57909153 14.1726372,2.21108321 C16.3351643,1.07148564 19.0125489,1.89705668 20.1568164,4.05630374 C22.0189147,7.69902356 18.5652794,12.2484466 21.0162464,17.0205686" id="Path"></path>
                    </g>
                </g>
            </g>
        </g>
    </g>
</svg>