<?xml version="1.0" encoding="UTF-8"?>
<svg width="164px" height="50px" viewBox="0 0 164 50" version="1.1" xmlns="http://www.w3.org/2000/svg" xmlns:xlink="http://www.w3.org/1999/xlink">
    <title>Footer-ucr</title>
    <g id="Symbols" stroke="none" stroke-width="1" fill="none" fill-rule="evenodd">
        <g id="Footer-ucr" fill-rule="nonzero">
            <path d="M111.312836,18.3396988 L111.312836,14.2033581 C111.312836,10.693954 108.998617,9.30316351 105.493098,9.30316351 L99.5078017,9.30316351 L99.5078017,32.4818044 L103.344438,32.4818044 L103.344438,23.2434964 L105.262756,23.2434964 L108.206816,32.4818044 L112.108236,32.4818044 L108.800667,22.6453844 C110.387868,21.9499892 111.312836,20.5591987 111.312836,18.3396988 Z M107.4762,17.8100454 C107.4762,19.4674641 106.616016,19.9286589 105.359932,19.9286589 L103.340839,19.9286589 L103.340839,12.6792534 L105.359932,12.6792534 C106.616016,12.6792534 107.4762,13.1440513 107.4762,14.797867 L107.4762,17.8100454 Z" id="Shape" fill="#FFFFFF"></path>
            <path d="M122.624794,19.7989479 L119.911076,18.2748433 C118.82055,17.6443035 118.42105,17.1146501 118.42105,15.9256323 L118.42105,14.3366722 C118.42105,12.8810262 119.248842,12.3513728 120.37176,12.3513728 C121.494678,12.3513728 122.32247,12.8810262 122.32247,14.3366722 L122.32247,17.5830511 L126.094323,17.5830511 L126.094323,13.8034157 C126.094323,10.3588672 123.578555,9.03653527 120.404152,9.03653527 L120.339368,9.03653527 C117.164966,9.03653527 114.649198,10.3624703 114.649198,13.8034157 L114.649198,16.851625 C114.649198,19.2692945 115.937674,20.3286013 118.187109,21.6185054 L120.864836,23.1426101 C122.023745,23.7731498 122.387254,24.3676587 122.387254,25.5602796 L122.387254,27.3798371 C122.387254,28.8030554 121.559462,29.4335952 120.404152,29.4335952 C119.245243,29.4335952 118.42105,28.8030554 118.42105,27.3798371 L118.42105,23.8704331 L114.649198,23.8704331 L114.649198,27.9094905 C114.649198,31.5197809 116.866241,32.7448296 120.37176,32.7448296 L120.436544,32.7448296 C123.942063,32.7448296 126.159114,31.4873532 126.159114,27.9094905 L126.159114,24.5658283 C126.162705,22.0833033 124.841837,21.0564243 122.624794,19.7989479 Z" id="Path" fill="#FFFFFF"></path>
            <rect id="Rectangle" fill="#FFFFFF" x="129.902166" y="9.30316351" width="3.83663616" height="23.1786409"></rect>
            <path d="M143.924243,9.30316351 L138.003731,9.30316351 L138.003731,32.4818044 L143.924243,32.4818044 C147.429763,32.4818044 149.74758,31.0910139 149.74758,27.5816099 L149.74758,14.2033581 C149.743981,10.693954 147.429763,9.30316351 143.924243,9.30316351 Z M145.907345,26.9834979 C145.907345,28.6409166 145.047161,29.1021114 143.791077,29.1021114 L141.840367,29.1021114 L141.840367,12.6792534 L143.791077,12.6792534 C145.047161,12.6792534 145.907345,13.1440513 145.907345,14.797867 L145.907345,26.9834979 Z" id="Shape" fill="#FFFFFF"></path>
            <polygon id="Path" fill="#FFFFFF" points="157.582812 29.1021114 157.582812 22.4147871 162.877082 22.4147871 162.877082 19.035094 157.582812 19.035094 157.582812 12.6792534 163.899225 12.6792534 163.899225 9.30316351 153.746176 9.30316351 153.746176 32.4818044 164 32.4818044 164 29.1021114"></polygon>
            <path d="M59.223122,18.3396988 L59.223122,14.2033581 C59.223122,10.693954 56.9089034,9.30316351 53.3997849,9.30316351 L47.4144886,9.30316351 L47.4144886,32.4818044 L51.2511247,32.4818044 L51.2511247,23.2434964 L53.1694428,23.2434964 L56.1135032,32.4818044 L60.0149231,32.4818044 L56.707354,22.6453844 C58.2981544,21.9499892 59.223122,20.5591987 59.223122,18.3396988 Z M55.3864858,17.8100454 C55.3864858,19.4674641 54.5263019,19.9286589 53.2702175,19.9286589 L51.2511247,19.9286589 L51.2511247,12.6792534 L53.2702175,12.6792534 C54.5263019,12.6792534 55.3864858,13.1440513 55.3864858,14.797867 L55.3864858,17.8100454 Z" id="Shape" fill="#FFFFFF"></path>
            <rect id="Rectangle" fill="#FFFFFF" x="63.2901003" y="9.30316351" width="3.83663616" height="23.1786409"></rect>
            <polygon id="Path" fill="#FFFFFF" points="76.5887594 26.4862722 73.907433 9.30316351 70.0060131 9.30316351 74.3717164 32.4818044 78.6042531 32.4818044 82.9699563 9.30316351 79.2664867 9.30316351"></polygon>
            <polygon id="Path" fill="#FFFFFF" points="89.5527026 22.4147871 94.8433735 22.4147871 94.8433735 19.035094 89.5527026 19.035094 89.5527026 12.6792534 95.8691158 12.6792534 95.8691158 9.30316351 85.7160665 9.30316351 85.7160665 32.4818044 95.9698905 32.4818044 95.9698905 29.1021114 89.5527026 29.1021114"></polygon>
            <polygon id="Path" fill="#FFB71B" points="10.6137336 50 40.5798056 35.8290697 40.5798056 34.431073 10.6137336 41.2409022"></polygon>
            <polygon id="Path" fill="#FFFFFF" points="40.5798056 0 0 5.81537796 0 43.6549687 40.5798056 34.431073"></polygon>
            <path d="M33.8063072,27.8626504 C33.8063072,31.4441162 31.4884895,32.7700512 27.979371,32.7700512 L27.9145873,32.7700512 C24.4054689,32.7700512 22.0876512,31.4765439 22.0876512,27.8626504 L22.0876512,13.9403329 C22.0876512,10.4921813 24.4054689,9.03653527 27.9145873,9.03653527 L27.979371,9.03653527 C31.4884895,9.03653527 33.8063072,10.4957844 33.8063072,13.9403329 L33.8063072,18.1847662 L29.9660719,18.1847662 L29.9660719,14.5384449 C29.9660719,12.9134539 29.1706718,12.4162283 27.9469792,12.4162283 C26.7232866,12.4162283 25.9278864,12.9134539 25.9278864,14.5384449 L25.9278864,27.2681415 C25.9278864,28.8931325 26.7232866,29.3903581 27.9469792,29.3903581 C29.1706718,29.3903581 29.9660719,28.8931325 29.9660719,27.2681415 L29.9660719,23.0561361 L33.8063072,23.0561361 L33.8063072,27.8626504 Z" id="Path" fill="#003DA6"></path>
            <path d="M14.5907345,9.29956042 L14.5907345,27.2645384 C14.5907345,28.9219572 13.8637172,29.3867551 12.6040336,29.3867551 C11.3443501,29.3867551 10.6173327,28.9219572 10.6173327,27.2645384 L10.6173327,9.29956042 L6.77349837,9.29956042 L6.77349837,27.8626504 C6.77349837,31.4765439 9.02293326,32.7700512 12.5356508,32.7700512 L12.6688173,32.7700512 C16.1779358,32.7700512 18.4309698,31.4441162 18.4309698,27.8626504 L18.4309698,9.29956042 L14.5907345,9.29956042 Z" id="Path" fill="#003DA6"></path>
        </g>
    </g>
</svg>