<?xml version="1.0" encoding="UTF-8"?>
<svg width="21px" height="21px" viewBox="0 0 21 21" version="1.1" xmlns="http://www.w3.org/2000/svg" xmlns:xlink="http://www.w3.org/1999/xlink">
    <title>instagram</title>
    <defs>
        <polygon id="path-1" points="0 -1.10636696e-16 21 -1.10636696e-16 21 21 0 21"></polygon>
    </defs>
    <g id="Symbols" stroke="none" stroke-width="1" fill="none" fill-rule="evenodd">
        <g id="Footer" transform="translate(-379.000000, -215.000000)">
            <g id="Group-6" transform="translate(74.463415, 189.000000)">
                <g id="Group-3" transform="translate(241.536585, 0.000000)">
                    <g id="instagram" transform="translate(63.000000, 26.000000)">
                        <g id="Fill-1-Clipped">
                            <mask id="mask-2" fill="white">
                                <use xlink:href="#path-1"></use>
                            </mask>
                            <g id="path-1"></g>
                            <path d="M10.5000208,-1.10636696e-16 C7.64837119,-1.10636696e-16 7.29080007,0.0120885861 6.17086342,0.063194126 C5.05326085,0.114174611 4.28997838,0.291710088 3.62210101,0.551322895 C2.93163319,0.81964782 2.34607346,1.17872052 1.76230596,1.76251585 C1.17858014,2.34635287 0.819550215,2.93198234 0.551257241,3.62253241 C0.29167535,4.29048931 0.114161015,5.05386269 0.0631866004,6.17159837 C0.0120871465,7.29166839 0,7.64928209 0,10.5012713 C0,13.353219 0.0120871465,13.7108327 0.0631866004,14.8309027 C0.114161015,15.9486383 0.29167535,16.7120117 0.551257241,17.3799687 C0.819550215,18.0705187 1.17858014,18.6561482 1.76230596,19.2399852 C2.34607346,19.8237806 2.93163319,20.1828532 3.62210101,20.4512199 C4.28997838,20.710791 5.05326085,20.8883264 6.17086342,20.939307 C7.29080007,20.9904125 7.64837119,21.0025011 10.5000208,21.0025011 C13.3516288,21.0025011 13.7091999,20.9904125 14.8291365,20.939307 C15.9467391,20.8883264 16.7100216,20.710791 17.3778989,20.4512199 C18.0683668,20.1828532 18.6539265,19.8237806 19.237694,19.2399852 C19.8214198,18.6561482 20.1804498,18.0705187 20.4487844,17.3799687 C20.7083246,16.7120117 20.885839,15.9486383 20.9368133,14.8309027 C20.9879129,13.7108327 21,13.353219 21,10.5012713 C21,7.64928209 20.9879129,7.29166839 20.9368133,6.17159837 C20.885839,5.05386269 20.7083246,4.29048931 20.4487844,3.62253241 C20.1804498,2.93198234 19.8214198,2.34635287 19.237694,1.76251585 C18.6539265,1.17872052 18.0683668,0.81964782 17.3778989,0.551322895 C16.7100216,0.291710088 15.9467391,0.114174611 14.8291365,0.063194126 C13.7091999,0.0120885861 13.3516288,-1.10636696e-16 10.5000208,-1.10636696e-16 Z M10.5000208,1.89211384 C13.3036137,1.89211384 13.6357184,1.90282682 14.742901,1.95334878 C15.7666407,2.00003573 16.3226077,2.17111006 16.6925994,2.31492256 C17.1827124,2.50542199 17.5324894,2.73297921 17.899897,3.10047223 C18.2673462,3.46792356 18.4948764,3.81774223 18.6853531,4.30791355 C18.8291485,4.67794934 19.0002024,5.23398261 19.0468838,6.25784417 C19.0973998,7.36515866 19.1081114,7.69730295 19.1081114,10.5012713 C19.1081114,13.3051981 19.0973998,13.6373424 19.0468838,14.7446569 C19.0002024,15.7685185 18.8291485,16.3245517 18.6853531,16.6945875 C18.4948764,17.1847588 18.2673462,17.5345775 17.899897,17.9020288 C17.5324894,18.2695218 17.1827124,18.4970791 16.6925994,18.6875785 C16.3226077,18.831391 15.7666407,19.0024653 14.742901,19.0491523 C13.6358851,19.0996742 13.303822,19.1103872 10.5000208,19.1103872 C7.69617793,19.1103872 7.36415654,19.0996742 6.25709896,19.0491523 C5.23335933,19.0024653 4.67739227,18.831391 4.30740054,18.6875785 C3.81728759,18.4970791 3.46751058,18.2695218 3.10010301,17.9020288 C2.73269543,17.5345775 2.50512364,17.1847588 2.31464688,16.6945875 C2.17085152,16.3245517 1.99979756,15.7685185 1.95311616,14.7446569 C1.90260022,13.6373424 1.89188851,13.3051981 1.89188851,10.5012713 C1.89188851,7.69730295 1.90260022,7.36515866 1.95311616,6.25784417 C1.99979756,5.23398261 2.17085152,4.67794934 2.31464688,4.30791355 C2.50512364,3.81774223 2.73265375,3.46792356 3.10010301,3.10047223 C3.46751058,2.73297921 3.81728759,2.50542199 4.30740054,2.31492256 C4.67739227,2.17111006 5.23335933,2.00003573 6.25709896,1.95334878 C7.36428158,1.90282682 7.69638634,1.89211384 10.5000208,1.89211384 L10.5000208,1.89211384 Z" id="Fill-1" fill="#FFFFFF" fill-rule="nonzero" mask="url(#mask-2)"></path>
                        </g>
                        <path d="M10.5000208,14.0016674 C8.56699437,14.0016674 6.99999999,12.4344864 6.99999999,10.5012713 C6.99999999,8.56801467 8.56699437,7.00083369 10.5000208,7.00083369 C12.4330056,7.00083369 14,8.56801467 14,10.5012713 C14,12.4344864 12.4330056,14.0016674 10.5000208,14.0016674 Z M10.5000208,5.10871985 C7.52212302,5.10871985 5.10811148,7.52301895 5.10811148,10.5012713 C5.10811148,13.4794822 7.52212302,15.8937812 10.5000208,15.8937812 C13.4778769,15.8937812 15.8918885,13.4794822 15.8918885,10.5012713 C15.8918885,7.52301895 13.4778769,5.10871985 10.5000208,5.10871985 L10.5000208,5.10871985 Z" id="Fill-4" fill="#FFFFFF" fill-rule="nonzero"></path>
                        <path d="M17.3649365,4.89566895 C17.3649365,5.59163803 16.8008002,6.15579983 16.104914,6.15579983 C15.4090695,6.15579983 14.8449332,5.59163803 14.8449332,4.89566895 C14.8449332,4.19969986 15.4090695,3.63549638 16.104914,3.63549638 C16.8008002,3.63549638 17.3649365,4.19969986 17.3649365,4.89566895" id="Fill-5" fill="#FFFFFF" fill-rule="nonzero"></path>
                    </g>
                </g>
            </g>
        </g>
    </g>
</svg>