<?xml version="1.0" encoding="UTF-8"?>
<svg width="21px" height="21px" viewBox="0 0 21 21" version="1.1" xmlns="http://www.w3.org/2000/svg" xmlns:xlink="http://www.w3.org/1999/xlink">
    <title>linkedin</title>
    <g id="Symbols" stroke="none" stroke-width="1" fill="none" fill-rule="evenodd">
        <g id="Footer" transform="translate(-346.000000, -215.000000)" fill="#FFFFFF" fill-rule="nonzero">
            <g id="Group-6" transform="translate(74.463415, 189.000000)">
                <g id="Group-3" transform="translate(241.536585, 0.000000)">
                    <g id="linkedin" transform="translate(30.000000, 26.000000)">
                        <path d="M16.625,0 L4.375,0 C1.959125,0 0,1.959125 0,4.375 L0,16.625 C0,19.040875 1.959125,21 4.375,21 L16.625,21 C19.04175,21 21,19.040875 21,16.625 L21,4.375 C21,1.959125 19.04175,0 16.625,0 Z M7,16.625 L4.375,16.625 L4.375,7 L7,7 L7,16.625 Z M5.6875,5.8905 C4.84225,5.8905 4.15625,5.19925 4.15625,4.347 C4.15625,3.49475 4.84225,2.8035 5.6875,2.8035 C6.53275,2.8035 7.21875,3.49475 7.21875,4.347 C7.21875,5.19925 6.533625,5.8905 5.6875,5.8905 Z M17.5,16.625 L14.875,16.625 L14.875,11.7215 C14.875,8.7745 11.375,8.997625 11.375,11.7215 L11.375,16.625 L8.75,16.625 L8.75,7 L11.375,7 L11.375,8.544375 C12.5965,6.281625 17.5,6.1145 17.5,10.710875 L17.5,16.625 Z" id="Shape"></path>
                    </g>
                </g>
            </g>
        </g>
    </g>
</svg>