<?xml version="1.0" encoding="UTF-8"?>
<svg width="405px" height="132px" viewBox="0 0 405 132" version="1.1" xmlns="http://www.w3.org/2000/svg" xmlns:xlink="http://www.w3.org/1999/xlink">
    <!-- Generator: Sketch 53.2 (72643) - https://sketchapp.com -->
    <title>Logo - Landing - Mobile</title>
    <desc>Created with Sketch.</desc>
    <g id="Finals" stroke="none" stroke-width="1" fill="none" fill-rule="evenodd">
        <g id="Main-Hub---Mobile" transform="translate(-301.000000, -135.000000)" fill="#FBF9F5" fill-rule="nonzero">
            <g id="Logo---Landing---Mobile" transform="translate(300.000000, 114.000000)">
                <path d="M69.066,82.828 C66.1499854,89.0560311 63.7740092,94.9959717 61.938,100.648 C48.3659321,100.215998 38.7000288,100 32.94,100 C27.2519716,100 17.604068,100.215998 3.996,100.648 C3.41999712,100.648 3.132,100.144005 3.132,99.136 C3.132,98.2359955 3.41999712,97.7500004 3.996,97.678 C6.98401494,97.3179982 9.26999208,96.841003 10.854,96.247 C12.4380079,95.652997 13.5449969,94.852005 14.175,93.844 C14.8050032,92.835995 15.12,91.0720126 15.12,88.552 L15.12,37.738 C15.12,35.2539876 14.823003,33.4990051 14.229,32.473 C13.634997,31.4469949 12.5460079,30.6280031 10.962,30.016 C9.37799208,29.4039969 7.0560153,28.9180018 3.996,28.558 C3.41999712,28.558 3.132,28.054005 3.132,27.046 C3.132,26.037995 3.41999712,25.534 3.996,25.534 C13.0680454,25.9660022 22.3559525,26.182 31.86,26.182 C41.4360479,26.182 50.7419548,25.9660022 59.778,25.534 C60.6060041,31.1140279 61.8119921,36.6219728 63.396,42.058 C63.396,42.7780036 62.7660063,43.138 61.506,43.138 C60.8939969,43.138 60.5160007,42.8860025 60.372,42.382 C57.7079867,33.8859575 52.0200436,29.638 43.308,29.638 L32.4,29.638 C28.2239791,29.638 26.136,31.7979784 26.136,36.118 L26.136,60.148 L39.744,60.148 C43.344018,60.148 45.7829936,59.3200083 47.061,57.664 C48.3390064,56.0079917 49.2299975,53.0740211 49.734,48.862 C49.734,48.2859971 50.237995,47.998 51.246,47.998 C52.254005,47.998 52.758,48.2859971 52.758,48.862 C52.758,50.662009 52.6500011,52.9299863 52.434,55.666 C52.2179989,58.2940131 52.11,60.4359917 52.11,62.092 C52.11,63.7840085 52.2179989,65.9439869 52.434,68.572 C52.6500011,71.380014 52.758,73.683991 52.758,75.484 C52.758,76.0600029 52.254005,76.348 51.246,76.348 C50.237995,76.348 49.734,76.0600029 49.734,75.484 C49.1939973,71.091978 48.2490067,68.0140088 46.899,66.25 C45.5489933,64.4859912 43.1640171,63.604 39.744,63.604 L26.136,63.604 L26.136,90.172 C26.136,94.4200212 28.2239791,96.544 32.4,96.544 L44.172,96.544 C48.4560214,96.544 52.7039789,95.1490139 56.916,92.359 C61.1280211,89.5689861 64.2239901,86.0860209 66.204,81.91 C66.3480007,81.5859984 66.6539977,81.424 67.122,81.424 C67.6260025,81.424 68.075998,81.5589987 68.472,81.829 C68.868002,82.0990014 69.066,82.431998 69.066,82.828 Z M128.898,99.136 C128.898,100.144005 128.610003,100.648 128.034,100.648 C126.593993,100.648 124.83001,100.540001 122.742,100.324 C120.437988,100.107999 118.404009,100 116.64,100 C114.839991,100 112.770012,100.107999 110.43,100.324 C108.305989,100.540001 106.524007,100.648 105.084,100.648 C104.507997,100.648 104.22,100.144005 104.22,99.136 C104.22,98.2359955 104.507997,97.7500004 105.084,97.678 C107.568012,97.3899986 109.196996,96.6880056 109.971,95.572 C110.745004,94.4559944 111.132,92.1160178 111.132,88.552 L111.132,70.516 C111.132,66.4839798 110.340008,63.5320094 108.756,61.66 C107.171992,59.7879906 104.724017,58.852 101.412,58.852 C99.3239896,58.852 97.479008,59.247996 95.877,60.04 C94.274992,60.832004 92.5560092,62.2359899 90.72,64.252 L90.72,88.552 C90.72,92.1160178 91.1069961,94.4559944 91.881,95.572 C92.6550039,96.6880056 94.2839876,97.3899986 96.768,97.678 C97.3440029,97.7500004 97.632,98.2359955 97.632,99.136 C97.632,100.144005 97.3440029,100.648 96.768,100.648 C95.2919926,100.648 93.4920106,100.540001 91.368,100.324 C89.0279883,100.107999 86.9760088,100 85.212,100 C83.4839914,100 81.4680115,100.107999 79.164,100.324 C77.0399894,100.540001 75.2400074,100.648 73.764,100.648 C73.1879971,100.648 72.9,100.144005 72.9,99.136 C72.9,98.2359955 73.1879971,97.7500004 73.764,97.678 C76.8600155,97.281998 78.8579955,96.5350055 79.758,95.437 C80.6580045,94.3389945 81.108,92.0440175 81.108,88.552 L81.108,68.572 C81.108,65.6919856 80.7390037,63.8020045 80.001,62.902 C79.2629963,62.0019955 77.6160128,61.4080014 75.06,61.12 C74.4839971,61.12 74.196,60.6520047 74.196,59.716 C74.196,58.8519957 74.4839971,58.42 75.06,58.42 C78.6240178,57.5199955 81.5939881,56.5030057 83.97,55.369 C86.3460119,54.2349943 87.8399969,53.3080036 88.452,52.588 C88.8120018,52.1559978 89.2079978,51.94 89.64,51.94 C90.648005,51.94 91.152,52.2279971 91.152,52.804 L90.72,59.608 C95.9040259,54.7839759 100.727978,52.372 105.192,52.372 C110.088024,52.372 113.912986,53.775986 116.667,56.584 C119.421014,59.392014 120.798,63.1719762 120.798,67.924 L120.798,88.552 C120.798,92.0800176 121.238996,94.3839946 122.121,95.464 C123.003004,96.5440054 124.973985,97.281998 128.034,97.678 C128.610003,97.7500004 128.898,98.2359955 128.898,99.136 Z M167.292,86.716 C167.292,91.108022 165.564017,94.7979851 162.108,97.786 C158.651983,100.774015 154.476024,102.268 149.58,102.268 C147.851991,102.268 145.188018,101.890004 141.588,101.134 C138.887986,100.593997 137.052005,100.324 136.08,100.324 C135.791999,97.8039874 135.126005,93.9700257 134.082,88.822 C134.082,88.2819973 134.603995,88.012 135.648,88.012 C136.512004,88.012 137.033999,88.2999971 137.214,88.876 C138.042004,91.5400133 139.679988,93.8619901 142.128,95.842 C144.576012,97.8220099 147.095987,98.812 149.688,98.812 C152.388013,98.812 154.484993,98.0740074 155.979,96.598 C157.473007,95.1219926 158.22,93.0520133 158.22,90.388 C158.22,88.6959915 157.599006,87.2020065 156.357,85.906 C155.114994,84.6099935 152.424021,83.0080095 148.284,81.1 C142.847973,78.6159876 139.257009,76.276011 137.511,74.08 C135.764991,71.883989 134.892,69.2560153 134.892,66.196 C134.892,62.4159811 136.529984,59.1670136 139.806,56.449 C143.082016,53.7309864 146.951978,52.372 151.416,52.372 C153.288009,52.372 155.915983,52.6959968 159.3,53.344 C161.172009,53.7040018 162.395997,53.884 162.972,53.884 C163.080001,58.1320212 163.313998,61.7499851 163.674,64.738 C163.674,65.2780027 163.152005,65.548 162.108,65.548 C161.207995,65.548 160.704001,65.2600029 160.596,64.684 C160.199998,62.0559869 159.210008,59.9230082 157.626,58.285 C156.041992,56.6469918 154.152011,55.828 151.956,55.828 C146.339972,55.828 143.532,58.2759755 143.532,63.172 C143.532,64.8280083 144.197993,66.357993 145.53,67.762 C146.862007,69.166007 149.759978,70.9839888 154.224,73.216 C159.552027,75.8800133 163.061992,78.1839903 164.754,80.128 C166.446008,82.0720097 167.292,84.2679878 167.292,86.716 Z M198.288,99.028 C198.288,100.036005 198.000003,100.54 197.424,100.54 C195.947993,100.54 194.058012,100.450001 191.754,100.27 C189.161987,100.089999 186.984009,100 185.22,100 C183.491991,100 181.350013,100.089999 178.794,100.27 C176.489988,100.450001 174.600007,100.54 173.124,100.54 C172.547997,100.54 172.26,100.036005 172.26,99.028 C172.26,98.1279955 172.547997,97.6420004 173.124,97.57 C176.184015,97.2099982 178.172995,96.4810055 179.091,95.383 C180.009005,94.2849945 180.468,91.9720176 180.468,88.444 L180.468,38.278 C180.468,35.3619854 180.108004,33.4540045 179.388,32.554 C178.667996,31.6539955 177.012013,31.0600014 174.42,30.772 C173.843997,30.6999996 173.556,30.2500041 173.556,29.422 C173.556,28.5579957 173.843997,28.126 174.42,28.126 C178.200019,27.1539951 181.295988,26.1190055 183.708,25.021 C186.120012,23.9229945 187.631997,22.9960038 188.244,22.24 C188.604002,21.843998 188.999998,21.646 189.432,21.646 C190.440005,21.646 190.944,21.9339971 190.944,22.51 C190.367997,30.5740403 190.08,36.8379777 190.08,41.302 L190.08,88.444 C190.08,91.9720176 190.529995,94.2849945 191.43,95.383 C192.330005,96.4810055 194.327985,97.2099982 197.424,97.57 C198.000003,97.6420004 198.288,98.1279955 198.288,99.028 Z M237.276,101.836 C235.25999,101.836 233.505007,101.341005 232.011,100.351 C230.516993,99.360995 229.500003,98.0200085 228.96,96.328 C225.107981,100.28802 220.068031,102.268 213.84,102.268 C210.599984,102.268 207.95401,101.26901 205.902,99.271 C203.84999,97.27299 202.824,94.7800149 202.824,91.792 C202.824,84.4119631 211.571913,78.4360229 229.068,73.864 L229.392,65.44 L229.392,65.17 C229.392,62.577987 228.753006,60.5170077 227.475,58.987 C226.196994,57.4569924 224.496011,56.692 222.372,56.692 C220.247989,56.692 218.448007,57.2049949 216.972,58.231 C215.495993,59.2570051 214.74,60.5439923 214.704,62.092 C214.668,64.3960115 214.065006,66.1959935 212.895,67.492 C211.724994,68.7880065 210.16801,69.436 208.224,69.436 C207.071994,69.436 206.136004,69.0940034 205.416,68.41 C204.695996,67.7259966 204.336,66.8080058 204.336,65.656 C204.336,62.8839861 206.855975,59.9770152 211.896,56.935 C216.936025,53.8929848 221.615978,52.372 225.936,52.372 C229.824019,52.372 232.973988,53.5239885 235.386,55.828 C237.798012,58.1320115 239.004,61.2279806 239.004,65.116 L239.004,65.764 L238.248,90.172 L238.248,90.55 C238.248,94.3300189 239.471988,96.22 241.92,96.22 C243.108006,96.22 244.493992,95.5000072 246.078,94.06 L246.456,93.952 C246.744001,93.952 247.013999,94.1409981 247.266,94.519 C247.518001,94.8970019 247.644,95.3019978 247.644,95.734 C247.644,96.7780052 246.555011,98.0559924 244.377,99.568 C242.198989,101.080008 239.832013,101.836 237.276,101.836 Z M228.96,77.536 C218.447947,79.9120119 213.192,83.8359726 213.192,89.308 C213.192,94.4200256 215.17198,96.976 219.132,96.976 C221.04001,96.976 222.920991,96.4990048 224.775,95.545 C226.629009,94.5909952 227.879997,93.412007 228.528,92.008 L228.96,77.536 Z M299.754,55.612 C299.754,56.5480047 299.466003,57.0519996 298.89,57.124 C295.865985,57.4480016 293.841005,58.1679944 292.815,59.284 C291.788995,60.4000056 290.502008,62.7039825 288.954,66.196 L273.456,101.512 C273.203999,102.088003 272.772003,102.376 272.16,102.376 C271.511997,102.376 271.062001,102.088003 270.81,101.512 L256.284,66.196 C254.951993,62.8839834 253.602007,60.6160061 252.234,59.392 C250.865993,58.1679939 249.012012,57.3940016 246.672,57.07 C246.095997,56.9979996 245.808,56.5120045 245.808,55.612 C245.808,54.603995 246.095997,54.1 246.672,54.1 C248.148007,54.1 249.983989,54.2079989 252.18,54.424 C254.556012,54.6400011 256.607991,54.748 258.336,54.748 C260.100009,54.748 262.241987,54.6400011 264.762,54.424 C266.994011,54.2079989 268.847993,54.1 270.324,54.1 C270.900003,54.1 271.188,54.603995 271.188,55.612 C271.188,56.5120045 270.900003,56.9979996 270.324,57.07 C268.163989,57.3580014 266.670004,57.7449976 265.842,58.231 C265.013996,58.7170024 264.6,59.4279953 264.6,60.364 C264.6,61.4800056 265.139995,63.4059863 266.22,66.142 L275.076,89.092 L284.04,66.196 C285.120005,63.4959865 285.66,61.5520059 285.66,60.364 C285.66,59.4279953 285.255004,58.7170024 284.445,58.231 C283.634996,57.7449976 282.20401,57.3580014 280.152,57.07 C279.575997,56.9979996 279.288,56.5120045 279.288,55.612 C279.288,54.603995 279.575997,54.1 280.152,54.1 C281.664008,54.1 283.355991,54.2079989 285.228,54.424 C286.992009,54.6400011 288.575993,54.748 289.98,54.748 C290.700004,54.748 291.869992,54.6580009 293.49,54.478 C295.722011,54.2259987 297.521993,54.1 298.89,54.1 C299.466003,54.1 299.754,54.603995 299.754,55.612 Z M344.196,69.976 C344.196,70.984005 343.548006,71.488 342.252,71.488 L312.66,71.488 C312.443999,73.4320097 312.336,75.4479896 312.336,77.536 C312.336,83.332029 313.712986,87.7869844 316.467,90.901 C319.221014,94.0150156 323.135975,95.572 328.212,95.572 C330.768013,95.572 333.341987,94.8880068 335.934,93.52 C338.526013,92.1519932 340.613992,90.4060106 342.198,88.282 L342.468,88.174 C342.792002,88.174 343.106998,88.371998 343.413,88.768 C343.719002,89.164002 343.872,89.6319973 343.872,90.172 C343.872,90.9280038 342.720012,92.502988 340.416,94.897 C338.111988,97.291012 335.610013,99.1179937 332.91,100.378 C330.209986,101.638006 327.384015,102.268 324.432,102.268 C317.951968,102.268 312.498022,99.8920238 308.07,95.14 C303.641978,90.3879762 301.428,84.5560346 301.428,77.644 C301.428,70.5879647 303.596978,64.6120245 307.935,59.716 C312.273022,54.8199755 317.771967,52.372 324.432,52.372 C330.012028,52.372 334.700981,54.1989817 338.499,57.853 C342.297019,61.5070183 344.196,65.5479779 344.196,69.976 Z M334.368,65.224 C334.368,62.5239865 333.441009,60.2830089 331.587,58.501 C329.732991,56.7189911 327.348015,55.828 324.432,55.828 C321.659986,55.828 319.25701,56.9889884 317.223,59.311 C315.18899,61.6330116 313.812004,64.6839811 313.092,68.464 L328.104,68.032 C330.372011,67.9959998 331.982995,67.780002 332.937,67.384 C333.891005,66.987998 334.368,66.2680052 334.368,65.224 Z M406.026,97.084 C406.026,97.8400038 405.738003,98.2539996 405.162,98.326 C403.10999,98.5780013 400.734013,99.0819962 398.034,99.838 C395.333986,100.594004 393.228008,101.349996 391.716,102.106 C390.923996,102.502002 390.348002,102.7 389.988,102.7 C389.411997,102.7 389.124,102.412003 389.124,101.836 L389.556,96.004 C385.739981,100.180021 380.88003,102.268 374.976,102.268 C368.747969,102.268 363.447022,99.8740239 359.073,95.086 C354.698978,90.2979761 352.512,84.5560335 352.512,77.86 C352.512,70.263962 354.932976,64.1170235 359.775,59.419 C364.617024,54.7209765 370.691963,52.372 378,52.372 C382.176021,52.372 386.027982,53.667987 389.556,56.26 L389.556,38.278 C389.556,35.3619854 389.196004,33.4540045 388.476,32.554 C387.755996,31.6539955 386.100013,31.0600014 383.508,30.772 C382.931997,30.6999996 382.644,30.2500041 382.644,29.422 C382.644,28.4859953 382.931997,28.018 383.508,28.018 C386.892017,27.225996 389.825988,26.2720056 392.31,25.156 C394.794012,24.0399944 396.467996,23.0500043 397.332,22.186 C397.692002,21.8259982 398.069998,21.646 398.466,21.646 C399.474005,21.646 399.978,21.9339971 399.978,22.51 C399.401997,30.3580392 399.114,36.6219766 399.114,41.302 L399.114,88.876 C399.114,91.3600124 399.473996,93.0249958 400.194,93.871 C400.914004,94.7170042 402.569987,95.3199982 405.162,95.68 C405.738003,95.68 406.026,96.1479953 406.026,97.084 Z M389.556,91.252 L389.556,63.604 C389.556,61.7319906 388.467011,59.9680083 386.289,58.312 C384.110989,56.6559917 381.744013,55.828 379.188,55.828 C368.675947,55.828 363.42,63.2079262 363.42,77.968 C363.42,83.8000292 364.679987,88.6419807 367.2,92.494 C369.720013,96.3460193 373.031979,98.272 377.136,98.272 C379.476012,98.272 381.59999,97.7410053 383.508,96.679 C385.41601,95.6169947 387.431989,93.8080128 389.556,91.252 Z" id="Enslaved"></path>
                <path d="M17.0785,131.8915 C17.0785,133.475508 16.4687561,134.805245 15.24925,135.88075 C14.0297439,136.956255 12.520009,137.494 10.72,137.494 C9.6399946,137.494 8.57800522,137.449 7.534,137.359 L7.534,142.138 C7.534,142.768003 7.61274921,143.208999 7.77025,143.461 C7.92775079,143.713001 8.20224804,143.913249 8.59375,144.06175 C8.98525196,144.210251 9.55899622,144.3295 10.315,144.4195 C10.4590007,144.4375 10.531,144.558999 10.531,144.784 C10.531,145.036001 10.4590007,145.162 10.315,145.162 C9.71199699,145.162 8.99650414,145.135 8.1685,145.081 C7.37649604,145.027 6.70600275,145 6.157,145 C5.60799725,145 4.933004,145.027 4.132,145.081 C3.29499582,145.135 2.57500302,145.162 1.972,145.162 C1.82799928,145.162 1.756,145.036001 1.756,144.784 C1.756,144.558999 1.82799928,144.4375 1.972,144.4195 C3.06100545,144.293499 3.80124804,144.091001 4.19275,143.812 C4.58425196,143.532999 4.78,142.975004 4.78,142.138 L4.78,129.4345 C4.78,128.804497 4.70125079,128.361251 4.54375,128.10475 C4.38624921,127.848249 4.10950198,127.645751 3.7135,127.49725 C3.31749802,127.348749 2.73700382,127.2295 1.972,127.1395 C1.82799928,127.1395 1.756,127.013501 1.756,126.7615 C1.756,126.509499 1.82799928,126.3835 1.972,126.3835 C2.57500302,126.3835 3.29499582,126.4105 4.132,126.4645 C4.933004,126.5185 5.60799725,126.5455 6.157,126.5455 C6.70600275,126.5455 7.37649604,126.5185 8.1685,126.4645 C8.99650414,126.4105 9.71199699,126.3835 10.315,126.3835 C12.5290111,126.3835 14.2097443,126.851495 15.35725,127.7875 C16.5047557,128.723505 17.0785,130.091491 17.0785,131.8915 Z M14.0815,131.8915 C14.0815,130.451493 13.7282535,129.326504 13.02175,128.5165 C12.3152465,127.706496 11.3770059,127.3015 10.207,127.3015 C9.50499649,127.3015 8.96275191,127.355499 8.58025,127.4635 C8.19774809,127.571501 7.92775079,127.746999 7.77025,127.99 C7.61274921,128.233001 7.534,128.714496 7.534,129.4345 L7.534,135.631 C7.534,136.018002 7.65549879,136.276749 7.8985,136.40725 C8.14150121,136.537751 8.66799595,136.603 9.478,136.603 C10.9450073,136.603 12.078996,136.184504 12.88,135.3475 C13.681004,134.510496 14.0815,133.358507 14.0815,131.8915 Z M29.539,137.494 C29.539,137.746001 29.3770016,137.872 29.053,137.872 L21.655,137.872 C21.6009997,138.358002 21.574,138.861997 21.574,139.384 C21.574,140.833007 21.9182466,141.946746 22.60675,142.72525 C23.2952534,143.503754 24.2739937,143.893 25.543,143.893 C26.1820032,143.893 26.8254968,143.722002 27.4735,143.38 C28.1215032,143.037998 28.643498,142.601503 29.0395,142.0705 L29.107,142.0435 C29.1880004,142.0435 29.2667496,142.093 29.34325,142.192 C29.4197504,142.291 29.458,142.407999 29.458,142.543 C29.458,142.732001 29.1700029,143.125747 28.594,143.72425 C28.0179971,144.322753 27.3925034,144.779498 26.7175,145.0945 C26.0424966,145.409502 25.3360037,145.567 24.598,145.567 C22.9779919,145.567 21.6145055,144.973006 20.5075,143.785 C19.4004945,142.596994 18.847,141.139009 18.847,139.411 C18.847,137.646991 19.3892446,136.153006 20.47375,134.929 C21.5582554,133.704994 22.9329917,133.093 24.598,133.093 C25.993007,133.093 27.1652453,133.549745 28.11475,134.46325 C29.0642547,135.376755 29.539,136.386994 29.539,137.494 Z M27.082,136.306 C27.082,135.630997 26.8502523,135.070752 26.38675,134.62525 C25.9232477,134.179748 25.3270036,133.957 24.598,133.957 C23.9049965,133.957 23.3042525,134.247247 22.79575,134.82775 C22.2872475,135.408253 21.9430009,136.170995 21.763,137.116 L25.516,137.008 C26.0830028,136.999 26.4857488,136.945 26.72425,136.846 C26.9627512,136.747 27.082,136.567001 27.082,136.306 Z M44.0515,139.411 C44.0515,141.202009 43.4687558,142.675744 42.30325,143.83225 C41.1377442,144.988756 39.6280093,145.567 37.774,145.567 C35.9199907,145.567 34.4080059,144.986506 33.238,143.8255 C32.0679942,142.664494 31.483,141.193009 31.483,139.411 C31.483,137.601991 32.0724941,136.096756 33.2515,134.89525 C34.4305059,133.693744 35.9379908,133.093 37.774,133.093 C39.6190092,133.093 41.1264941,133.691494 42.2965,134.8885 C43.4665059,136.085506 44.0515,137.592991 44.0515,139.411 Z M41.338,139.384 C41.338,137.736992 41.0207532,136.420755 40.38625,135.43525 C39.7517468,134.449745 38.8810055,133.957 37.774,133.957 C36.6759945,133.957 35.8075032,134.451995 35.1685,135.442 C34.5294968,136.432005 34.21,137.745992 34.21,139.384 C34.21,141.013008 34.5249969,142.306745 35.155,143.26525 C35.7850032,144.223755 36.6579944,144.703 37.774,144.703 C38.8900056,144.703 39.7629969,144.228255 40.393,143.27875 C41.0230032,142.329245 41.338,141.031008 41.338,139.384 Z M58.7125,139.411 C58.7125,141.184009 58.114006,142.653244 56.917,143.81875 C55.719994,144.984256 54.1900093,145.567 52.327,145.567 C51.2559946,145.567 50.3380038,145.360002 49.573,144.946 L49.573,149.104 C49.573,149.977004 49.6854989,150.552999 49.9105,150.832 C50.1355011,151.111001 50.6349961,151.3 51.409,151.399 C51.5530007,151.399 51.625,151.524999 51.625,151.777 C51.625,152.029001 51.5530007,152.155 51.409,152.155 C51.0399982,152.155 50.5630029,152.128 49.978,152.074 C49.3479969,152.02 48.8170022,151.993 48.385,151.993 C47.9349978,151.993 47.3905032,152.02 46.7515,152.074 C46.1754971,152.128 45.7030018,152.155 45.334,152.155 C45.1899993,152.155 45.118,152.029001 45.118,151.777 C45.118,151.524999 45.1899993,151.399 45.334,151.399 C46.0990038,151.3 46.5962489,151.111001 46.82575,150.832 C47.0552511,150.552999 47.17,149.977004 47.17,149.104 L47.17,137.143 C47.17,136.422996 47.0777509,135.950501 46.89325,135.7255 C46.7087491,135.500499 46.2970032,135.352 45.658,135.28 C45.5139993,135.28 45.442,135.163001 45.442,134.929 C45.442,134.712999 45.5139993,134.605 45.658,134.605 C46.5310044,134.388999 47.2622471,134.141501 47.85175,133.8625 C48.4412529,133.583499 48.8304991,133.345001 49.0195,133.147 C49.1185005,133.038999 49.2129995,132.985 49.303,132.985 C49.5550013,132.985 49.681,133.056999 49.681,133.201 L49.573,134.902 C50.0680025,134.388997 50.6394968,133.959252 51.2875,133.61275 C51.9355032,133.266248 52.4889977,133.093 52.948,133.093 C54.7210089,133.093 56.1249948,133.671244 57.16,134.82775 C58.1950052,135.984256 58.7125,137.511991 58.7125,139.411 Z M55.999,139.384 C55.999,137.880992 55.6727533,136.708754 55.02025,135.86725 C54.3677467,135.025746 53.4520059,134.605 52.273,134.605 C51.7779975,134.605 51.330252,134.708499 50.92975,134.9155 C50.529248,135.122501 50.0770025,135.504997 49.573,136.063 L49.573,142.678 C49.573,143.254003 49.8294974,143.735498 50.3425,144.1225 C50.8555026,144.509502 51.4809963,144.703 52.219,144.703 C53.4430061,144.703 54.3789968,144.241755 55.027,143.31925 C55.6750032,142.396745 55.999,141.085009 55.999,139.384 Z M66.691,144.757 C66.691,145.009001 66.6190007,145.135 66.475,145.135 C66.1059982,145.135 65.6335029,145.1125 65.0575,145.0675 C64.4094968,145.0225 63.8650022,145 63.424,145 C62.9919978,145 62.4565032,145.0225 61.8175,145.0675 C61.2414971,145.1125 60.7690018,145.135 60.4,145.135 C60.2559993,145.135 60.184,145.009001 60.184,144.757 C60.184,144.531999 60.2559993,144.4105 60.4,144.3925 C61.1650038,144.3025 61.6622489,144.120251 61.89175,143.84575 C62.1212511,143.571249 62.236,142.993004 62.236,142.111 L62.236,129.5695 C62.236,128.840496 62.1460009,128.363501 61.966,128.1385 C61.7859991,127.913499 61.3720032,127.765 60.724,127.693 C60.5799993,127.675 60.508,127.562501 60.508,127.3555 C60.508,127.139499 60.5799993,127.0315 60.724,127.0315 C61.6690047,126.788499 62.442997,126.529751 63.046,126.25525 C63.649003,125.980749 64.0269992,125.749001 64.18,125.56 C64.2700004,125.461 64.3689995,125.4115 64.477,125.4115 C64.7290013,125.4115 64.855,125.483499 64.855,125.6275 C64.7109993,127.64351 64.639,129.209494 64.639,130.3255 L64.639,142.111 C64.639,142.993004 64.7514989,143.571249 64.9765,143.84575 C65.2015011,144.120251 65.7009961,144.3025 66.475,144.3925 C66.6190007,144.4105 66.691,144.531999 66.691,144.757 Z M78.436,137.494 C78.436,137.746001 78.2740016,137.872 77.95,137.872 L70.552,137.872 C70.4979997,138.358002 70.471,138.861997 70.471,139.384 C70.471,140.833007 70.8152466,141.946746 71.50375,142.72525 C72.1922534,143.503754 73.1709937,143.893 74.44,143.893 C75.0790032,143.893 75.7224968,143.722002 76.3705,143.38 C77.0185032,143.037998 77.540498,142.601503 77.9365,142.0705 L78.004,142.0435 C78.0850004,142.0435 78.1637496,142.093 78.24025,142.192 C78.3167504,142.291 78.355,142.407999 78.355,142.543 C78.355,142.732001 78.0670029,143.125747 77.491,143.72425 C76.9149971,144.322753 76.2895034,144.779498 75.6145,145.0945 C74.9394966,145.409502 74.2330037,145.567 73.495,145.567 C71.8749919,145.567 70.5115055,144.973006 69.4045,143.785 C68.2974945,142.596994 67.744,141.139009 67.744,139.411 C67.744,137.646991 68.2862446,136.153006 69.37075,134.929 C70.4552554,133.704994 71.8299917,133.093 73.495,133.093 C74.890007,133.093 76.0622453,133.549745 77.01175,134.46325 C77.9612547,135.376755 78.436,136.386994 78.436,137.494 Z M75.979,136.306 C75.979,135.630997 75.7472523,135.070752 75.28375,134.62525 C74.8202477,134.179748 74.2240036,133.957 73.495,133.957 C72.8019965,133.957 72.2012525,134.247247 71.69275,134.82775 C71.1842475,135.408253 70.8400009,136.170995 70.66,137.116 L74.413,137.008 C74.9800028,136.999 75.3827488,136.945 75.62125,136.846 C75.8597512,136.747 75.979,136.567001 75.979,136.306 Z M88.885,141.679 C88.885,142.777005 88.4530043,143.699496 87.589,144.4465 C86.7249957,145.193504 85.6810061,145.567 84.457,145.567 C84.0249978,145.567 83.3590045,145.472501 82.459,145.2835 C81.7839966,145.148499 81.3250012,145.081 81.082,145.081 C81.0099996,144.450997 80.8435013,143.492506 80.5825,142.2055 C80.5825,142.070499 80.7129987,142.003 80.974,142.003 C81.1900011,142.003 81.3204998,142.074999 81.3655,142.219 C81.572501,142.885003 81.9819969,143.465498 82.594,143.9605 C83.2060031,144.455502 83.8359968,144.703 84.484,144.703 C85.1590034,144.703 85.6832481,144.518502 86.05675,144.1495 C86.4302519,143.780498 86.617,143.263003 86.617,142.597 C86.617,142.173998 86.4617516,141.800502 86.15125,141.4765 C85.8407484,141.152498 85.1680052,140.752002 84.133,140.275 C82.7739932,139.653997 81.8762522,139.069003 81.43975,138.52 C81.0032478,137.970997 80.785,137.314004 80.785,136.549 C80.785,135.603995 81.1944959,134.791753 82.0135,134.11225 C82.8325041,133.432747 83.7999944,133.093 84.916,133.093 C85.3840023,133.093 86.0409958,133.173999 86.887,133.336 C87.3550023,133.426 87.6609993,133.471 87.805,133.471 C87.8320001,134.533005 87.8904995,135.437496 87.9805,136.1845 C87.9805,136.319501 87.8500013,136.387 87.589,136.387 C87.3639989,136.387 87.2380001,136.315001 87.211,136.171 C87.1119995,135.513997 86.864502,134.980752 86.4685,134.57125 C86.072498,134.161748 85.6000027,133.957 85.051,133.957 C83.646993,133.957 82.945,134.568994 82.945,135.793 C82.945,136.207002 83.1114983,136.589498 83.4445,136.9405 C83.7775017,137.291502 84.5019944,137.745997 85.618,138.304 C86.9500067,138.970003 87.8274979,139.545998 88.2505,140.032 C88.6735021,140.518002 88.885,141.066997 88.885,141.679 Z M110.0125,139.411 C110.0125,141.202009 109.429756,142.675744 108.26425,143.83225 C107.098744,144.988756 105.589009,145.567 103.735,145.567 C101.880991,145.567 100.369006,144.986506 99.199,143.8255 C98.0289941,142.664494 97.444,141.193009 97.444,139.411 C97.444,137.601991 98.0334941,136.096756 99.2125,134.89525 C100.391506,133.693744 101.898991,133.093 103.735,133.093 C105.580009,133.093 107.087494,133.691494 108.2575,134.8885 C109.427506,136.085506 110.0125,137.592991 110.0125,139.411 Z M107.299,139.384 C107.299,137.736992 106.981753,136.420755 106.34725,135.43525 C105.712747,134.449745 104.842006,133.957 103.735,133.957 C102.636995,133.957 101.768503,134.451995 101.1295,135.442 C100.490497,136.432005 100.171,137.745992 100.171,139.384 C100.171,141.013008 100.485997,142.306745 101.116,143.26525 C101.746003,144.223755 102.618994,144.703 103.735,144.703 C104.851006,144.703 105.723997,144.228255 106.354,143.27875 C106.984003,142.329245 107.299,141.031008 107.299,139.384 Z M122.6215,126.8155 C122.6215,127.184502 122.482001,127.474749 122.203,127.68625 C121.923999,127.897751 121.541502,128.0035 121.0555,128.0035 C120.623498,128.0035 120.187002,127.837002 119.746,127.504 C119.376998,127.224999 119.048501,127.0855 118.7605,127.0855 C118.148497,127.0855 117.626502,127.425247 117.1945,128.10475 C116.762498,128.784253 116.5465,129.704494 116.5465,130.8655 L116.5465,134.011 L119.5705,134.011 C119.786501,134.011 119.8945,134.253998 119.8945,134.74 C119.8945,135.226002 119.786501,135.469 119.5705,135.469 L116.5195,135.361 L116.5195,142.138 C116.5195,143.020004 116.627499,143.595999 116.8435,143.866 C117.059501,144.136001 117.554496,144.3205 118.3285,144.4195 C118.472501,144.4375 118.5445,144.558999 118.5445,144.784 C118.5445,145.036001 118.472501,145.162 118.3285,145.162 C117.959498,145.162 117.491503,145.135 116.9245,145.081 C116.285497,145.027 115.745502,145 115.3045,145 C114.854498,145 114.314503,145.027 113.6845,145.081 C113.117497,145.135 112.649502,145.162 112.2805,145.162 C112.136499,145.162 112.0645,145.036001 112.0645,144.784 C112.0645,144.558999 112.136499,144.4375 112.2805,144.4195 C113.045504,144.3205 113.538249,144.136001 113.75875,143.866 C113.979251,143.595999 114.0895,143.020004 114.0895,142.138 L114.0895,135.685 C114.0895,135.432999 113.981501,135.307 113.7655,135.307 L112.3885,135.307 C112.208499,135.307 112.1185,135.190001 112.1185,134.956 C112.1185,134.721999 112.199499,134.587 112.3615,134.551 C113.513506,134.289999 114.0895,134.038001 114.0895,133.795 C114.0895,131.616989 114.753243,129.697758 116.08075,128.03725 C117.408257,126.376742 118.940491,125.5465 120.6775,125.5465 C121.280503,125.5465 121.755248,125.658999 122.10175,125.884 C122.448252,126.109001 122.6215,126.419498 122.6215,126.8155 Z M136.081,134.416 C136.081,134.902002 135.964001,135.145 135.73,135.145 L131.707,135.037 L131.707,141.517 C131.707,143.209008 132.309994,144.055 133.516,144.055 C134.263004,144.055 134.942497,143.879502 135.5545,143.5285 C135.6265,143.5285 135.69175,143.57575 135.75025,143.67025 C135.80875,143.76475 135.838,143.865999 135.838,143.974 C135.838,144.199001 135.502753,144.502748 134.83225,144.88525 C134.161747,145.267752 133.408004,145.459 132.571,145.459 C131.544995,145.459 130.726003,145.146253 130.114,144.52075 C129.501997,143.895247 129.196,143.069505 129.196,142.0435 L129.196,141.922 L129.25,135.361 C129.25,135.108999 129.142001,134.983 128.926,134.983 L127.9,134.983 C127.701999,134.983 127.603,134.866001 127.603,134.632 C127.603,134.451999 127.683999,134.317 127.846,134.227 C129.097006,133.488996 130.185995,132.449507 131.113,131.1085 C131.212,130.964499 131.337999,130.8925 131.491,130.8925 C131.743001,130.8925 131.869,130.964499 131.869,131.1085 L131.761,133.687 L135.73,133.687 C135.964001,133.687 136.081,133.929998 136.081,134.416 Z M151.5655,144.784 C151.5655,145.036001 151.493501,145.162 151.3495,145.162 C150.989498,145.162 150.544003,145.135 150.013,145.081 C149.436997,145.027 148.933002,145 148.501,145 C148.050998,145 147.533503,145.027 146.9485,145.081 C146.417497,145.135 145.972002,145.162 145.612,145.162 C145.467999,145.162 145.396,145.036001 145.396,144.784 C145.396,144.558999 145.467999,144.4375 145.612,144.4195 C146.233003,144.3475 146.640249,144.172001 146.83375,143.893 C147.027251,143.613999 147.124,143.029004 147.124,142.138 L147.124,137.629 C147.124,135.68499 146.242009,134.713 144.478,134.713 C143.361994,134.713 142.399004,135.162995 141.589,136.063 L141.589,142.138 C141.589,142.948004 141.705999,143.510498 141.94,143.8255 C142.174001,144.140502 142.632997,144.3385 143.317,144.4195 C143.461001,144.4375 143.533,144.558999 143.533,144.784 C143.533,145.036001 143.461001,145.162 143.317,145.162 C142.947998,145.162 142.466503,145.135 141.8725,145.081 C141.206497,145.027 140.653002,145 140.212,145 C139.761998,145 139.249003,145.027 138.673,145.081 C138.159997,145.135 137.719002,145.162 137.35,145.162 C137.205999,145.162 137.134,145.036001 137.134,144.784 C137.134,144.558999 137.205999,144.4375 137.35,144.4195 C138.106004,144.3385 138.596499,144.160751 138.8215,143.88625 C139.046501,143.611749 139.159,143.029004 139.159,142.138 L139.159,129.5965 C139.159,128.867496 139.071251,128.390501 138.89575,128.1655 C138.720249,127.940499 138.313003,127.792 137.674,127.72 C137.529999,127.702 137.458,127.589501 137.458,127.3825 C137.458,127.148499 137.529999,127.0315 137.674,127.0315 C139.213008,126.671498 140.351496,126.194503 141.0895,125.6005 C141.224501,125.492499 141.337,125.4385 141.427,125.4385 C141.679001,125.4385 141.805,125.510499 141.805,125.6545 C141.660999,127.130507 141.589,128.696492 141.589,130.3525 L141.589,134.929 C142.876006,133.704994 144.144994,133.093 145.396,133.093 C146.674006,133.093 147.679746,133.443996 148.41325,134.146 C149.146754,134.848004 149.5135,135.792994 149.5135,136.981 L149.5135,142.138 C149.5135,143.020004 149.628249,143.598249 149.85775,143.87275 C150.087251,144.147251 150.584496,144.3295 151.3495,144.4195 C151.493501,144.4375 151.5655,144.558999 151.5655,144.784 Z M163.324,137.494 C163.324,137.746001 163.162002,137.872 162.838,137.872 L155.44,137.872 C155.386,138.358002 155.359,138.861997 155.359,139.384 C155.359,140.833007 155.703247,141.946746 156.39175,142.72525 C157.080253,143.503754 158.058994,143.893 159.328,143.893 C159.967003,143.893 160.610497,143.722002 161.2585,143.38 C161.906503,143.037998 162.428498,142.601503 162.8245,142.0705 L162.892,142.0435 C162.973,142.0435 163.05175,142.093 163.12825,142.192 C163.20475,142.291 163.243,142.407999 163.243,142.543 C163.243,142.732001 162.955003,143.125747 162.379,143.72425 C161.802997,144.322753 161.177503,144.779498 160.5025,145.0945 C159.827497,145.409502 159.121004,145.567 158.383,145.567 C156.762992,145.567 155.399506,144.973006 154.2925,143.785 C153.185494,142.596994 152.632,141.139009 152.632,139.411 C152.632,137.646991 153.174245,136.153006 154.25875,134.929 C155.343255,133.704994 156.717992,133.093 158.383,133.093 C159.778007,133.093 160.950245,133.549745 161.89975,134.46325 C162.849255,135.376755 163.324,136.386994 163.324,137.494 Z M160.867,136.306 C160.867,135.630997 160.635252,135.070752 160.17175,134.62525 C159.708248,134.179748 159.112004,133.957 158.383,133.957 C157.689997,133.957 157.089253,134.247247 156.58075,134.82775 C156.072247,135.408253 155.728001,136.170995 155.548,137.116 L159.301,137.008 C159.868003,136.999 160.270749,136.945 160.50925,136.846 C160.747751,136.747 160.867,136.567001 160.867,136.306 Z M193.6855,144.784 C193.6855,145.036001 193.613501,145.162 193.4695,145.162 C192.857497,145.162 192.133004,145.135 191.296,145.081 C190.503996,145.027 189.833503,145 189.2845,145 C188.735497,145 188.101004,145.027 187.381,145.081 C186.624996,145.135 185.945503,145.162 185.3425,145.162 C185.198499,145.162 185.1265,145.036001 185.1265,144.784 C185.1265,144.558999 185.202999,144.4375 185.356,144.4195 C186.112004,144.3295 186.674498,144.205751 187.0435,144.04825 C187.412502,143.890749 187.648749,143.683751 187.75225,143.42725 C187.855751,143.170749 187.9075,142.741003 187.9075,142.138 L187.9075,136.117 L177.607,136.117 L177.607,142.138 C177.607,142.741003 177.658749,143.170749 177.76225,143.42725 C177.865751,143.683751 178.101998,143.890749 178.471,144.04825 C178.840002,144.205751 179.406996,144.3295 180.172,144.4195 C180.316001,144.4375 180.388,144.558999 180.388,144.784 C180.388,145.036001 180.316001,145.162 180.172,145.162 C179.568997,145.162 178.889504,145.135 178.1335,145.081 C177.413496,145.027 176.779003,145 176.23,145 C175.680997,145 175.006004,145.027 174.205,145.081 C173.367996,145.135 172.648003,145.162 172.045,145.162 C171.900999,145.162 171.829,145.036001 171.829,144.784 C171.829,144.558999 171.900999,144.4375 172.045,144.4195 C173.134005,144.293499 173.874248,144.091001 174.26575,143.812 C174.657252,143.532999 174.853,142.975004 174.853,142.138 L174.853,129.4345 C174.853,128.804497 174.774251,128.361251 174.61675,128.10475 C174.459249,127.848249 174.182502,127.645751 173.7865,127.49725 C173.390498,127.348749 172.810004,127.2295 172.045,127.1395 C171.900999,127.1395 171.829,127.013501 171.829,126.7615 C171.829,126.509499 171.900999,126.3835 172.045,126.3835 C172.648003,126.3835 173.367996,126.4105 174.205,126.4645 C175.006004,126.5185 175.680997,126.5455 176.23,126.5455 C176.779003,126.5455 177.413496,126.5185 178.1335,126.4645 C178.889504,126.4105 179.568997,126.3835 180.172,126.3835 C180.316001,126.3835 180.388,126.509499 180.388,126.7615 C180.388,127.013501 180.316001,127.1395 180.172,127.1395 C179.469996,127.2205 178.939002,127.328499 178.579,127.4635 C178.218998,127.598501 177.967001,127.780749 177.823,128.01025 C177.678999,128.239751 177.607,128.714496 177.607,129.4345 L177.607,135.253 L187.9075,135.253 L187.9075,129.4345 C187.9075,128.831497 187.855751,128.399501 187.75225,128.1385 C187.648749,127.877499 187.414752,127.668251 187.05025,127.51075 C186.685748,127.353249 186.116504,127.2295 185.3425,127.1395 C185.198499,127.1395 185.1265,127.013501 185.1265,126.7615 C185.1265,126.509499 185.198499,126.3835 185.3425,126.3835 C185.945503,126.3835 186.624996,126.4105 187.381,126.4645 C188.101004,126.5185 188.735497,126.5455 189.2845,126.5455 C189.833503,126.5455 190.503996,126.5185 191.296,126.4645 C192.133004,126.4105 192.857497,126.3835 193.4695,126.3835 C193.613501,126.3835 193.6855,126.509499 193.6855,126.7615 C193.6855,127.013501 193.613501,127.1395 193.4695,127.1395 C192.704496,127.2295 192.124002,127.348749 191.728,127.49725 C191.331998,127.645751 191.055251,127.848249 190.89775,128.10475 C190.740249,128.361251 190.6615,128.804497 190.6615,129.4345 L190.6615,142.138 C190.6615,142.975004 190.857248,143.532999 191.24875,143.812 C191.640252,144.091001 192.380495,144.293499 193.4695,144.4195 C193.613501,144.4375 193.6855,144.558999 193.6855,144.784 Z M199.747,128.4625 C199.747,128.840502 199.609751,129.168999 199.33525,129.448 C199.060749,129.727001 198.730002,129.8665 198.343,129.8665 C197.955998,129.8665 197.625251,129.727001 197.35075,129.448 C197.076249,129.168999 196.939,128.840502 196.939,128.4625 C196.939,128.066498 197.073999,127.733501 197.344,127.4635 C197.614001,127.193499 197.946998,127.0585 198.343,127.0585 C198.730002,127.0585 199.060749,127.193499 199.33525,127.4635 C199.609751,127.733501 199.747,128.066498 199.747,128.4625 Z M201.637,144.784 C201.637,145.036001 201.565001,145.162 201.421,145.162 C201.051998,145.162 200.579503,145.135 200.0035,145.081 C199.355497,145.027 198.811002,145 198.37,145 C197.919998,145 197.380003,145.027 196.75,145.081 C196.182997,145.135 195.715002,145.162 195.346,145.162 C195.201999,145.162 195.13,145.036001 195.13,144.784 C195.13,144.558999 195.201999,144.4375 195.346,144.4195 C196.111004,144.3205 196.603749,144.136001 196.82425,143.866 C197.044751,143.595999 197.155,143.020004 197.155,142.138 L197.155,137.143 C197.155,136.422996 197.062751,135.950501 196.87825,135.7255 C196.693749,135.500499 196.291003,135.352 195.67,135.28 C195.525999,135.28 195.454,135.163001 195.454,134.929 C195.454,134.712999 195.525999,134.605 195.67,134.605 C196.615005,134.361999 197.388997,134.103251 197.992,133.82875 C198.595003,133.554249 198.972999,133.327001 199.126,133.147 C199.216,133.038999 199.314999,132.985 199.423,132.985 C199.675001,132.985 199.801,133.056999 199.801,133.201 C199.656999,135.21701 199.585,136.782994 199.585,137.899 L199.585,142.138 C199.585,143.020004 199.695249,143.595999 199.91575,143.866 C200.136251,144.136001 200.637996,144.3205 201.421,144.4195 C201.565001,144.4375 201.637,144.558999 201.637,144.784 Z M211.465,141.679 C211.465,142.777005 211.033004,143.699496 210.169,144.4465 C209.304996,145.193504 208.261006,145.567 207.037,145.567 C206.604998,145.567 205.939004,145.472501 205.039,145.2835 C204.363997,145.148499 203.905001,145.081 203.662,145.081 C203.59,144.450997 203.423501,143.492506 203.1625,142.2055 C203.1625,142.070499 203.292999,142.003 203.554,142.003 C203.770001,142.003 203.9005,142.074999 203.9455,142.219 C204.152501,142.885003 204.561997,143.465498 205.174,143.9605 C205.786003,144.455502 206.415997,144.703 207.064,144.703 C207.739003,144.703 208.263248,144.518502 208.63675,144.1495 C209.010252,143.780498 209.197,143.263003 209.197,142.597 C209.197,142.173998 209.041752,141.800502 208.73125,141.4765 C208.420748,141.152498 207.748005,140.752002 206.713,140.275 C205.353993,139.653997 204.456252,139.069003 204.01975,138.52 C203.583248,137.970997 203.365,137.314004 203.365,136.549 C203.365,135.603995 203.774496,134.791753 204.5935,134.11225 C205.412504,133.432747 206.379994,133.093 207.496,133.093 C207.964002,133.093 208.620996,133.173999 209.467,133.336 C209.935002,133.426 210.240999,133.471 210.385,133.471 C210.412,134.533005 210.4705,135.437496 210.5605,136.1845 C210.5605,136.319501 210.430001,136.387 210.169,136.387 C209.943999,136.387 209.818,136.315001 209.791,136.171 C209.692,135.513997 209.444502,134.980752 209.0485,134.57125 C208.652498,134.161748 208.180003,133.957 207.631,133.957 C206.226993,133.957 205.525,134.568994 205.525,135.793 C205.525,136.207002 205.691498,136.589498 206.0245,136.9405 C206.357502,137.291502 207.081994,137.745997 208.198,138.304 C209.530007,138.970003 210.407498,139.545998 210.8305,140.032 C211.253502,140.518002 211.465,141.066997 211.465,141.679 Z M221.644,134.416 C221.644,134.902002 221.527001,135.145 221.293,135.145 L217.27,135.037 L217.27,141.517 C217.27,143.209008 217.872994,144.055 219.079,144.055 C219.826004,144.055 220.505497,143.879502 221.1175,143.5285 C221.1895,143.5285 221.25475,143.57575 221.31325,143.67025 C221.37175,143.76475 221.401,143.865999 221.401,143.974 C221.401,144.199001 221.065753,144.502748 220.39525,144.88525 C219.724747,145.267752 218.971004,145.459 218.134,145.459 C217.107995,145.459 216.289003,145.146253 215.677,144.52075 C215.064997,143.895247 214.759,143.069505 214.759,142.0435 L214.759,141.922 L214.813,135.361 C214.813,135.108999 214.705001,134.983 214.489,134.983 L213.463,134.983 C213.264999,134.983 213.166,134.866001 213.166,134.632 C213.166,134.451999 213.246999,134.317 213.409,134.227 C214.660006,133.488996 215.748995,132.449507 216.676,131.1085 C216.775,130.964499 216.900999,130.8925 217.054,130.8925 C217.306001,130.8925 217.432,130.964499 217.432,131.1085 L217.324,133.687 L221.293,133.687 C221.527001,133.687 221.644,133.929998 221.644,134.416 Z M235.8055,139.411 C235.8055,141.202009 235.222756,142.675744 234.05725,143.83225 C232.891744,144.988756 231.382009,145.567 229.528,145.567 C227.673991,145.567 226.162006,144.986506 224.992,143.8255 C223.821994,142.664494 223.237,141.193009 223.237,139.411 C223.237,137.601991 223.826494,136.096756 225.0055,134.89525 C226.184506,133.693744 227.691991,133.093 229.528,133.093 C231.373009,133.093 232.880494,133.691494 234.0505,134.8885 C235.220506,136.085506 235.8055,137.592991 235.8055,139.411 Z M233.092,139.384 C233.092,137.736992 232.774753,136.420755 232.14025,135.43525 C231.505747,134.449745 230.635006,133.957 229.528,133.957 C228.429995,133.957 227.561503,134.451995 226.9225,135.442 C226.283497,136.432005 225.964,137.745992 225.964,139.384 C225.964,141.013008 226.278997,142.306745 226.909,143.26525 C227.539003,144.223755 228.411994,144.703 229.528,144.703 C230.644006,144.703 231.516997,144.228255 232.147,143.27875 C232.777003,142.329245 233.092,141.031008 233.092,139.384 Z M246.808,134.443 C246.808,134.803002 246.697751,135.108999 246.47725,135.361 C246.256749,135.613001 245.989002,135.739 245.674,135.739 C245.277998,135.739 244.886502,135.608501 244.4995,135.3475 C244.193498,135.140499 243.928001,135.037 243.703,135.037 C243.117997,135.037 242.515003,135.378997 241.894,136.063 L241.894,142.138 C241.894,142.921004 242.028999,143.467748 242.299,143.77825 C242.569001,144.088752 243.144996,144.302499 244.027,144.4195 C244.171001,144.4375 244.243,144.558999 244.243,144.784 C244.243,145.036001 244.171001,145.162 244.027,145.162 C243.657998,145.162 243.136003,145.135 242.461,145.081 C241.713996,145.027 241.120002,145 240.679,145 C240.228998,145 239.684503,145.027 239.0455,145.081 C238.469497,145.135 237.997002,145.162 237.628,145.162 C237.483999,145.162 237.412,145.036001 237.412,144.784 C237.412,144.558999 237.483999,144.4375 237.628,144.4195 C238.411004,144.3205 238.912749,144.136001 239.13325,143.866 C239.353751,143.595999 239.464,143.020004 239.464,142.138 L239.464,137.143 C239.464,136.422996 239.371751,135.950501 239.18725,135.7255 C239.002749,135.500499 238.591003,135.352 237.952,135.28 C237.807999,135.28 237.736,135.163001 237.736,134.929 C237.736,134.712999 237.807999,134.605 237.952,134.605 C238.843004,134.379999 239.578747,134.130251 240.15925,133.85575 C240.739753,133.581249 241.119999,133.345001 241.3,133.147 C241.408001,133.038999 241.515999,132.985 241.624,132.985 C241.876001,132.985 242.002,133.056999 242.002,133.201 L241.894,134.902 C242.614004,134.235997 243.232747,133.768001 243.75025,133.498 C244.267753,133.227999 244.782997,133.093 245.296,133.093 C245.710002,133.093 246.065499,133.227999 246.3625,133.498 C246.659501,133.768001 246.808,134.082998 246.808,134.443 Z M252.1,128.4625 C252.1,128.840502 251.962751,129.168999 251.68825,129.448 C251.413749,129.727001 251.083002,129.8665 250.696,129.8665 C250.308998,129.8665 249.978251,129.727001 249.70375,129.448 C249.429249,129.168999 249.292,128.840502 249.292,128.4625 C249.292,128.066498 249.426999,127.733501 249.697,127.4635 C249.967001,127.193499 250.299998,127.0585 250.696,127.0585 C251.083002,127.0585 251.413749,127.193499 251.68825,127.4635 C251.962751,127.733501 252.1,128.066498 252.1,128.4625 Z M253.99,144.784 C253.99,145.036001 253.918001,145.162 253.774,145.162 C253.404998,145.162 252.932503,145.135 252.3565,145.081 C251.708497,145.027 251.164002,145 250.723,145 C250.272998,145 249.733003,145.027 249.103,145.081 C248.535997,145.135 248.068002,145.162 247.699,145.162 C247.554999,145.162 247.483,145.036001 247.483,144.784 C247.483,144.558999 247.554999,144.4375 247.699,144.4195 C248.464004,144.3205 248.956749,144.136001 249.17725,143.866 C249.397751,143.595999 249.508,143.020004 249.508,142.138 L249.508,137.143 C249.508,136.422996 249.415751,135.950501 249.23125,135.7255 C249.046749,135.500499 248.644003,135.352 248.023,135.28 C247.878999,135.28 247.807,135.163001 247.807,134.929 C247.807,134.712999 247.878999,134.605 248.023,134.605 C248.968005,134.361999 249.741997,134.103251 250.345,133.82875 C250.948003,133.554249 251.325999,133.327001 251.479,133.147 C251.569,133.038999 251.667999,132.985 251.776,132.985 C252.028001,132.985 252.154,133.056999 252.154,133.201 C252.009999,135.21701 251.938,136.782994 251.938,137.899 L251.938,142.138 C251.938,143.020004 252.048249,143.595999 252.26875,143.866 C252.489251,144.136001 252.990996,144.3205 253.774,144.4195 C253.918001,144.4375 253.99,144.558999 253.99,144.784 Z M265.735,135.226 C265.735,135.964004 265.366004,136.333 264.628,136.333 C264.312998,136.333 264.054251,136.265501 263.85175,136.1305 C263.649249,135.995499 263.444501,135.703002 263.2375,135.253 C262.994499,134.721997 262.735751,134.373251 262.46125,134.20675 C262.186749,134.040249 261.829002,133.957 261.388,133.957 C260.298995,133.957 259.468753,134.409245 258.89725,135.31375 C258.325747,136.218255 258.04,137.538991 258.04,139.276 C258.04,140.725007 258.399996,141.892746 259.12,142.77925 C259.840004,143.665754 260.802994,144.109 262.009,144.109 C263.377007,144.109 264.461496,143.681504 265.2625,142.8265 L265.33,142.7995 C265.411,142.7995 265.48975,142.851249 265.56625,142.95475 C265.64275,143.058251 265.681,143.172999 265.681,143.299 C265.681,143.479001 265.417753,143.789498 264.89125,144.2305 C264.364747,144.671502 263.788753,145.004499 263.16325,145.2295 C262.537747,145.454501 261.874004,145.567 261.172,145.567 C259.560992,145.567 258.181756,144.975256 257.03425,143.79175 C255.886744,142.608244 255.313,141.112009 255.313,139.303 C255.313,137.511991 255.913744,136.029256 257.11525,134.85475 C258.316756,133.680244 259.740992,133.093 261.388,133.093 C262.603006,133.093 263.631246,133.302248 264.47275,133.72075 C265.314254,134.139252 265.735,134.640997 265.735,135.226 Z M286.2955,139.735 C286.2955,141.526009 285.764505,142.950245 284.7025,144.00775 C283.640495,145.065255 282.205009,145.594 280.396,145.594 C279.594996,145.594 278.636506,145.450001 277.5205,145.162 C276.503495,144.891999 275.671003,144.757 275.023,144.757 C274.969,143.226992 274.861001,141.697008 274.699,140.167 C274.699,140.022999 274.833999,139.951 275.104,139.951 C275.293001,139.951 275.41,140.022999 275.455,140.167 C275.941002,141.841008 276.561996,143.019997 277.318,143.704 C278.074004,144.388003 279.135993,144.73 280.504,144.73 C281.593005,144.73 282.436747,144.415003 283.03525,143.785 C283.633753,143.154997 283.933,142.273006 283.933,141.139 C283.933,140.409996 283.672003,139.732753 283.15,139.10725 C282.627997,138.481747 281.516509,137.674005 279.8155,136.684 C277.86249,135.558994 276.584503,134.605004 275.9815,133.822 C275.378497,133.038996 275.077,132.170505 275.077,131.2165 C275.077,129.749493 275.619245,128.509755 276.70375,127.49725 C277.788255,126.484745 279.162992,125.9785 280.828,125.9785 C281.458003,125.9785 282.182496,126.063999 283.0015,126.235 C283.766504,126.388001 284.427997,126.4645 284.986,126.4645 C285.094001,128.048508 285.237999,129.443494 285.418,130.6495 C285.418,130.793501 285.301001,130.8655 285.067,130.8655 C284.814999,130.8655 284.6755,130.793501 284.6485,130.6495 C284.351499,129.299493 283.901503,128.327503 283.2985,127.7335 C282.695497,127.139497 281.863005,126.8425 280.801,126.8425 C279.792995,126.8425 278.992003,127.139497 278.398,127.7335 C277.803997,128.327503 277.507,129.128495 277.507,130.1365 C277.507,130.775503 277.756748,131.385247 278.25625,131.96575 C278.755752,132.546253 279.837992,133.322495 281.503,134.2945 C283.47401,135.446506 284.765497,136.409496 285.3775,137.1835 C285.989503,137.957504 286.2955,138.807995 286.2955,139.735 Z M294.166,144.757 C294.166,145.009001 294.094001,145.135 293.95,145.135 C293.580998,145.135 293.108503,145.1125 292.5325,145.0675 C291.884497,145.0225 291.340002,145 290.899,145 C290.466998,145 289.931503,145.0225 289.2925,145.0675 C288.716497,145.1125 288.244002,145.135 287.875,145.135 C287.730999,145.135 287.659,145.009001 287.659,144.757 C287.659,144.531999 287.730999,144.4105 287.875,144.3925 C288.640004,144.3025 289.137249,144.120251 289.36675,143.84575 C289.596251,143.571249 289.711,142.993004 289.711,142.111 L289.711,129.5695 C289.711,128.840496 289.621001,128.363501 289.441,128.1385 C289.260999,127.913499 288.847003,127.765 288.199,127.693 C288.054999,127.675 287.983,127.562501 287.983,127.3555 C287.983,127.139499 288.054999,127.0315 288.199,127.0315 C289.144005,126.788499 289.917997,126.529751 290.521,126.25525 C291.124003,125.980749 291.501999,125.749001 291.655,125.56 C291.745,125.461 291.843999,125.4115 291.952,125.4115 C292.204001,125.4115 292.33,125.483499 292.33,125.6275 C292.185999,127.64351 292.114,129.209494 292.114,130.3255 L292.114,142.111 C292.114,142.993004 292.226499,143.571249 292.4515,143.84575 C292.676501,144.120251 293.175996,144.3025 293.95,144.3925 C294.094001,144.4105 294.166,144.531999 294.166,144.757 Z M303.913,145.459 C303.408997,145.459 302.970252,145.335251 302.59675,145.08775 C302.223248,144.840249 301.969001,144.505002 301.834,144.082 C300.870995,145.072005 299.611008,145.567 298.054,145.567 C297.243996,145.567 296.582503,145.317252 296.0695,144.81775 C295.556497,144.318248 295.3,143.695004 295.3,142.948 C295.3,141.102991 297.486978,139.609006 301.861,138.466 L301.942,136.36 L301.942,136.2925 C301.942,135.644497 301.782252,135.129252 301.46275,134.74675 C301.143248,134.364248 300.718003,134.173 300.187,134.173 C299.655997,134.173 299.206002,134.301249 298.837,134.55775 C298.467998,134.814251 298.279,135.135998 298.27,135.523 C298.261,136.099003 298.110251,136.548998 297.81775,136.873 C297.525249,137.197002 297.136002,137.359 296.65,137.359 C296.361999,137.359 296.128001,137.273501 295.948,137.1025 C295.767999,136.931499 295.678,136.702001 295.678,136.414 C295.678,135.720997 296.307994,134.994254 297.568,134.23375 C298.828006,133.473246 299.997995,133.093 301.078,133.093 C302.050005,133.093 302.837497,133.380997 303.4405,133.957 C304.043503,134.533003 304.345,135.306995 304.345,136.279 L304.345,136.441 L304.156,142.543 L304.156,142.6375 C304.156,143.582505 304.461997,144.055 305.074,144.055 C305.371001,144.055 305.717498,143.875002 306.1135,143.515 L306.208,143.488 C306.28,143.488 306.3475,143.53525 306.4105,143.62975 C306.4735,143.72425 306.505,143.825499 306.505,143.9335 C306.505,144.194501 306.232753,144.513998 305.68825,144.892 C305.143747,145.270002 304.552003,145.459 303.913,145.459 Z M301.834,139.384 C299.205987,139.978003 297.892,140.958993 297.892,142.327 C297.892,143.605006 298.386995,144.244 299.377,144.244 C299.854002,144.244 300.324248,144.124751 300.78775,143.88625 C301.251252,143.647749 301.563999,143.353002 301.726,143.002 L301.834,139.384 Z M319.1275,133.903 C319.1275,134.137001 319.055501,134.263 318.9115,134.281 C318.155496,134.362 317.649251,134.541999 317.39275,134.821 C317.136249,135.100001 316.814502,135.675996 316.4275,136.549 L312.553,145.378 C312.49,145.522001 312.382001,145.594 312.229,145.594 C312.066999,145.594 311.9545,145.522001 311.8915,145.378 L308.26,136.549 C307.926998,135.720996 307.589502,135.154002 307.2475,134.848 C306.905498,134.541998 306.442003,134.3485 305.857,134.2675 C305.712999,134.2495 305.641,134.128001 305.641,133.903 C305.641,133.650999 305.712999,133.525 305.857,133.525 C306.226002,133.525 306.684997,133.552 307.234,133.606 C307.828003,133.66 308.340998,133.687 308.773,133.687 C309.214002,133.687 309.749497,133.66 310.3795,133.606 C310.937503,133.552 311.400998,133.525 311.77,133.525 C311.914001,133.525 311.986,133.650999 311.986,133.903 C311.986,134.128001 311.914001,134.2495 311.77,134.2675 C311.229997,134.3395 310.856501,134.436249 310.6495,134.55775 C310.442499,134.679251 310.339,134.856999 310.339,135.091 C310.339,135.370001 310.473999,135.851497 310.744,136.5355 L312.958,142.273 L315.199,136.549 C315.469001,135.873997 315.604,135.388001 315.604,135.091 C315.604,134.856999 315.502751,134.679251 315.30025,134.55775 C315.097749,134.436249 314.740003,134.3395 314.227,134.2675 C314.082999,134.2495 314.011,134.128001 314.011,133.903 C314.011,133.650999 314.082999,133.525 314.227,133.525 C314.605002,133.525 315.027998,133.552 315.496,133.606 C315.937002,133.66 316.332998,133.687 316.684,133.687 C316.864001,133.687 317.156498,133.6645 317.5615,133.6195 C318.119503,133.5565 318.569498,133.525 318.9115,133.525 C319.055501,133.525 319.1275,133.650999 319.1275,133.903 Z M330.238,137.494 C330.238,137.746001 330.076002,137.872 329.752,137.872 L322.354,137.872 C322.3,138.358002 322.273,138.861997 322.273,139.384 C322.273,140.833007 322.617247,141.946746 323.30575,142.72525 C323.994253,143.503754 324.972994,143.893 326.242,143.893 C326.881003,143.893 327.524497,143.722002 328.1725,143.38 C328.820503,143.037998 329.342498,142.601503 329.7385,142.0705 L329.806,142.0435 C329.887,142.0435 329.96575,142.093 330.04225,142.192 C330.11875,142.291 330.157,142.407999 330.157,142.543 C330.157,142.732001 329.869003,143.125747 329.293,143.72425 C328.716997,144.322753 328.091503,144.779498 327.4165,145.0945 C326.741497,145.409502 326.035004,145.567 325.297,145.567 C323.676992,145.567 322.313506,144.973006 321.2065,143.785 C320.099494,142.596994 319.546,141.139009 319.546,139.411 C319.546,137.646991 320.088245,136.153006 321.17275,134.929 C322.257255,133.704994 323.631992,133.093 325.297,133.093 C326.692007,133.093 327.864245,133.549745 328.81375,134.46325 C329.763255,135.376755 330.238,136.386994 330.238,137.494 Z M327.781,136.306 C327.781,135.630997 327.549252,135.070752 327.08575,134.62525 C326.622248,134.179748 326.026004,133.957 325.297,133.957 C324.603997,133.957 324.003253,134.247247 323.49475,134.82775 C322.986247,135.408253 322.642001,136.170995 322.462,137.116 L326.215,137.008 C326.782003,136.999 327.184749,136.945 327.42325,136.846 C327.661751,136.747 327.781,136.567001 327.781,136.306 Z M357.1705,130.825 C357.1705,130.996001 357.008502,131.0815 356.6845,131.0815 C356.540499,131.0815 356.4505,131.018501 356.4145,130.8925 C356.027498,129.623494 355.474004,128.725753 354.754,128.19925 C354.033996,127.672747 352.967507,127.4095 351.5545,127.4095 L350.2855,127.4095 C349.844498,127.4095 349.543001,127.481499 349.381,127.6255 C349.218999,127.769501 349.138,128.039498 349.138,128.4355 L349.138,142.138 C349.138,142.759003 349.216749,143.197749 349.37425,143.45425 C349.531751,143.710751 349.810748,143.913249 350.21125,144.06175 C350.611752,144.210251 351.185496,144.3295 351.9325,144.4195 C352.076501,144.4375 352.1485,144.558999 352.1485,144.784 C352.1485,145.036001 352.076501,145.162 351.9325,145.162 C351.329497,145.162 350.609504,145.135 349.7725,145.081 C348.980496,145.027 348.319003,145 347.788,145 C347.238997,145 346.564004,145.027 345.763,145.081 C344.925996,145.135 344.206003,145.162 343.603,145.162 C343.458999,145.162 343.387,145.036001 343.387,144.784 C343.387,144.558999 343.458999,144.4375 343.603,144.4195 C344.692005,144.293499 345.432248,144.091001 345.82375,143.812 C346.215252,143.532999 346.411,142.975004 346.411,142.138 L346.411,128.4355 C346.411,128.039498 346.330001,127.769501 346.168,127.6255 C346.005999,127.481499 345.700002,127.4095 345.25,127.4095 L344.197,127.4095 C342.927994,127.4095 341.776005,127.731247 340.741,128.37475 C339.705995,129.018253 339.031002,129.852995 338.716,130.879 C338.671,131.014001 338.572001,131.0815 338.419,131.0815 C338.112998,131.0815 337.96,130.982501 337.96,130.7845 C338.464003,129.425493 338.940998,127.886509 339.391,126.1675 C340.615006,126.419501 343.413978,126.5455 347.788,126.5455 C352.279022,126.5455 355.136494,126.419501 356.3605,126.1675 C356.486501,127.337506 356.756498,128.88999 357.1705,130.825 Z M367.228,134.443 C367.228,134.803002 367.117751,135.108999 366.89725,135.361 C366.676749,135.613001 366.409002,135.739 366.094,135.739 C365.697998,135.739 365.306502,135.608501 364.9195,135.3475 C364.613498,135.140499 364.348001,135.037 364.123,135.037 C363.537997,135.037 362.935003,135.378997 362.314,136.063 L362.314,142.138 C362.314,142.921004 362.448999,143.467748 362.719,143.77825 C362.989001,144.088752 363.564996,144.302499 364.447,144.4195 C364.591001,144.4375 364.663,144.558999 364.663,144.784 C364.663,145.036001 364.591001,145.162 364.447,145.162 C364.077998,145.162 363.556003,145.135 362.881,145.081 C362.133996,145.027 361.540002,145 361.099,145 C360.648998,145 360.104503,145.027 359.4655,145.081 C358.889497,145.135 358.417002,145.162 358.048,145.162 C357.903999,145.162 357.832,145.036001 357.832,144.784 C357.832,144.558999 357.903999,144.4375 358.048,144.4195 C358.831004,144.3205 359.332749,144.136001 359.55325,143.866 C359.773751,143.595999 359.884,143.020004 359.884,142.138 L359.884,137.143 C359.884,136.422996 359.791751,135.950501 359.60725,135.7255 C359.422749,135.500499 359.011003,135.352 358.372,135.28 C358.227999,135.28 358.156,135.163001 358.156,134.929 C358.156,134.712999 358.227999,134.605 358.372,134.605 C359.263004,134.379999 359.998747,134.130251 360.57925,133.85575 C361.159753,133.581249 361.539999,133.345001 361.72,133.147 C361.828001,133.038999 361.935999,132.985 362.044,132.985 C362.296001,132.985 362.422,133.056999 362.422,133.201 L362.314,134.902 C363.034004,134.235997 363.652747,133.768001 364.17025,133.498 C364.687753,133.227999 365.202997,133.093 365.716,133.093 C366.130002,133.093 366.485499,133.227999 366.7825,133.498 C367.079501,133.768001 367.228,134.082998 367.228,134.443 Z M376.867,145.459 C376.362997,145.459 375.924252,145.335251 375.55075,145.08775 C375.177248,144.840249 374.923001,144.505002 374.788,144.082 C373.824995,145.072005 372.565008,145.567 371.008,145.567 C370.197996,145.567 369.536503,145.317252 369.0235,144.81775 C368.510497,144.318248 368.254,143.695004 368.254,142.948 C368.254,141.102991 370.440978,139.609006 374.815,138.466 L374.896,136.36 L374.896,136.2925 C374.896,135.644497 374.736252,135.129252 374.41675,134.74675 C374.097248,134.364248 373.672003,134.173 373.141,134.173 C372.609997,134.173 372.160002,134.301249 371.791,134.55775 C371.421998,134.814251 371.233,135.135998 371.224,135.523 C371.215,136.099003 371.064251,136.548998 370.77175,136.873 C370.479249,137.197002 370.090002,137.359 369.604,137.359 C369.315999,137.359 369.082001,137.273501 368.902,137.1025 C368.721999,136.931499 368.632,136.702001 368.632,136.414 C368.632,135.720997 369.261994,134.994254 370.522,134.23375 C371.782006,133.473246 372.951995,133.093 374.032,133.093 C375.004005,133.093 375.791497,133.380997 376.3945,133.957 C376.997503,134.533003 377.299,135.306995 377.299,136.279 L377.299,136.441 L377.11,142.543 L377.11,142.6375 C377.11,143.582505 377.415997,144.055 378.028,144.055 C378.325001,144.055 378.671498,143.875002 379.0675,143.515 L379.162,143.488 C379.234,143.488 379.3015,143.53525 379.3645,143.62975 C379.4275,143.72425 379.459,143.825499 379.459,143.9335 C379.459,144.194501 379.186753,144.513998 378.64225,144.892 C378.097747,145.270002 377.506003,145.459 376.867,145.459 Z M374.788,139.384 C372.159987,139.978003 370.846,140.958993 370.846,142.327 C370.846,143.605006 371.340995,144.244 372.331,144.244 C372.808002,144.244 373.278248,144.124751 373.74175,143.88625 C374.205252,143.647749 374.517999,143.353002 374.68,143.002 L374.788,139.384 Z M393.7285,144.271 C393.7285,144.460001 393.656501,144.5635 393.5125,144.5815 C392.999497,144.6445 392.405503,144.770499 391.7305,144.9595 C391.055497,145.148501 390.529002,145.337499 390.151,145.5265 C389.952999,145.6255 389.809,145.675 389.719,145.675 C389.574999,145.675 389.503,145.603001 389.503,145.459 L389.611,144.001 C388.656995,145.045005 387.442007,145.567 385.966,145.567 C384.408992,145.567 383.083755,144.968506 381.99025,143.7715 C380.896745,142.574494 380.35,141.139008 380.35,139.465 C380.35,137.565991 380.955244,136.029256 382.16575,134.85475 C383.376256,133.680244 384.894991,133.093 386.722,133.093 C387.766005,133.093 388.728996,133.416997 389.611,134.065 L389.611,129.5695 C389.611,128.840496 389.521001,128.363501 389.341,128.1385 C389.160999,127.913499 388.747003,127.765 388.099,127.693 C387.954999,127.675 387.883,127.562501 387.883,127.3555 C387.883,127.121499 387.954999,127.0045 388.099,127.0045 C388.945004,126.806499 389.678497,126.568001 390.2995,126.289 C390.920503,126.009999 391.338999,125.762501 391.555,125.5465 C391.645,125.4565 391.7395,125.4115 391.8385,125.4115 C392.090501,125.4115 392.2165,125.483499 392.2165,125.6275 C392.072499,127.58951 392.0005,129.155494 392.0005,130.3255 L392.0005,142.219 C392.0005,142.840003 392.090499,143.256249 392.2705,143.46775 C392.450501,143.679251 392.864497,143.83 393.5125,143.92 C393.656501,143.92 393.7285,144.036999 393.7285,144.271 Z M389.611,142.813 L389.611,135.901 C389.611,135.432998 389.338753,134.992002 388.79425,134.578 C388.249747,134.163998 387.658003,133.957 387.019,133.957 C384.390987,133.957 383.077,135.801982 383.077,139.492 C383.077,140.950007 383.391997,142.160495 384.022,143.1235 C384.652003,144.086505 385.479995,144.568 386.506,144.568 C387.091003,144.568 387.621998,144.435251 388.099,144.16975 C388.576002,143.904249 389.079997,143.452003 389.611,142.813 Z M405.541,137.494 C405.541,137.746001 405.379002,137.872 405.055,137.872 L397.657,137.872 C397.603,138.358002 397.576,138.861997 397.576,139.384 C397.576,140.833007 397.920247,141.946746 398.60875,142.72525 C399.297253,143.503754 400.275994,143.893 401.545,143.893 C402.184003,143.893 402.827497,143.722002 403.4755,143.38 C404.123503,143.037998 404.645498,142.601503 405.0415,142.0705 L405.109,142.0435 C405.19,142.0435 405.26875,142.093 405.34525,142.192 C405.42175,142.291 405.46,142.407999 405.46,142.543 C405.46,142.732001 405.172003,143.125747 404.596,143.72425 C404.019997,144.322753 403.394503,144.779498 402.7195,145.0945 C402.044497,145.409502 401.338004,145.567 400.6,145.567 C398.979992,145.567 397.616506,144.973006 396.5095,143.785 C395.402494,142.596994 394.849,141.139009 394.849,139.411 C394.849,137.646991 395.391245,136.153006 396.47575,134.929 C397.560255,133.704994 398.934992,133.093 400.6,133.093 C401.995007,133.093 403.167245,133.549745 404.11675,134.46325 C405.066255,135.376755 405.541,136.386994 405.541,137.494 Z M403.084,136.306 C403.084,135.630997 402.852252,135.070752 402.38875,134.62525 C401.925248,134.179748 401.329004,133.957 400.6,133.957 C399.906997,133.957 399.306253,134.247247 398.79775,134.82775 C398.289247,135.408253 397.945001,136.170995 397.765,137.116 L401.518,137.008 C402.085003,136.999 402.487749,136.945 402.72625,136.846 C402.964751,136.747 403.084,136.567001 403.084,136.306 Z" id="PeoplesoftheHistoricSlaveTrade"></path>
            </g>
        </g>
    </g>
</svg>