<?xml version="1.0" encoding="UTF-8"?>
<svg width="27px" height="27px" viewBox="0 0 27 27" version="1.1" xmlns="http://www.w3.org/2000/svg" xmlns:xlink="http://www.w3.org/1999/xlink">
    <!-- Generator: sketchtool 57.1 (101010) - https://sketch.com -->
    <title>99676CEB-50F2-46F0-AFDC-9E6945590D9C</title>
    <desc>Created with sketchtool.</desc>
    <g id="Main" stroke="none" stroke-width="1" fill="none" fill-rule="evenodd">
        <g id="Search-Results" transform="translate(-366.000000, -1175.000000)" fill="#0E3232" fill-rule="nonzero">
            <g id="Results" transform="translate(245.000000, 683.000000)">
                <g id="Record-Card/Person" transform="translate(96.000000, 470.000000)">
                    <g id="People">
                        <g transform="translate(25.000000, 22.000000)">
                            <path d="M13.5,1.77635684e-15 C20.956405,1.77635684e-15 27,6.04391482 27,13.5 C27,20.9560852 20.956405,27 13.5,27 C6.04422932,27 2.00728323e-13,20.9557707 2.00728323e-13,13.5 C2.00728323e-13,6.04422932 6.04422932,1.77635684e-15 13.5,1.77635684e-15 Z M13.6547362,20.2542282 C11.387606,20.2542282 9.36791837,21.5627091 8.41589524,23.5629304 C9.94360121,24.3368015 11.6709324,24.7724474 13.5,24.7724474 C15.4250803,24.7724474 17.2373689,24.2899914 18.8225757,23.439393 C17.8471719,21.5075726 15.8715388,20.2542282 13.6547362,20.2542282 Z M13.5,2.22755259 C7.27447265,2.22755259 2.22755259,7.27447265 2.22755259,13.5 C2.22755259,17.0936008 3.9091956,20.2944876 6.52846497,22.3586435 C7.88999988,19.7312322 10.6122993,18.0266756 13.6547362,18.0266756 C16.6294163,18.0266756 19.2921607,19.6579614 20.681959,22.1883922 C23.180473,20.1217292 24.7724474,16.9968815 24.7724474,13.5 C24.7724474,7.27413176 19.7261353,2.22755259 13.5,2.22755259 Z M13.4392786,7.59017921 C16.1464434,7.59017921 18.3405543,9.78429013 18.3405543,12.4914549 C18.3405543,15.1979555 16.1461589,17.3927307 13.4392786,17.3927307 C10.7331571,17.3927307 8.53895161,15.1977657 8.53895161,12.4914549 C8.53895161,9.78447999 10.7328727,7.59017921 13.4392786,7.59017921 Z M13.4392786,9.81773181 C11.9632023,9.81773181 10.7665042,11.014637 10.7665042,12.4914549 C10.7665042,13.9676949 11.9635731,15.1651781 13.4392786,15.1651781 C14.9158293,15.1651781 16.1130017,13.9677985 16.1130017,12.4914549 C16.1130017,11.0145335 14.9162,9.81773181 13.4392786,9.81773181 Z" id="Combined-Shape"></path>
                        </g>
                    </g>
                </g>
            </g>
        </g>
    </g>
</svg>