<?xml version="1.0" encoding="UTF-8"?>
<svg width="19px" height="23px" viewBox="0 0 19 23" version="1.1" xmlns="http://www.w3.org/2000/svg" xmlns:xlink="http://www.w3.org/1999/xlink">
    <!-- Generator: sketchtool 57.1 (101010) - https://sketch.com -->
    <title>B6A86615-96C9-41FC-95CD-C51A0305B61C</title>
    <desc>Created with sketchtool.</desc>
    <g id="Main" stroke="none" stroke-width="1" fill="none" fill-rule="evenodd">
        <g id="Home" transform="translate(-565.000000, -825.000000)" fill="#0E3232" fill-rule="nonzero">
            <g id="Explore" transform="translate(0.000000, 622.000000)">
                <g id="Explore-Buttons" transform="translate(537.000000, 50.000000)">
                    <g id="Place---Hover" transform="translate(0.000000, 134.000000)">
                        <g id="Places" transform="translate(28.000000, 19.000000)">
                            <path d="M9.50046798,-2.48689958e-14 C14.7470756,-2.48689958e-14 19,4.25509797 19,9.50460241 C19,12.2812249 17.7957478,14.8645355 15.7437034,16.6582779 C15.7342526,16.6685685 15.7245415,16.6787058 15.7145703,16.6886814 L15.7145703,16.6886814 L10.1923781,22.2132767 C9.81024668,22.5955744 9.19068928,22.5955744 8.80855789,22.2132767 L8.80855789,22.2132767 L3.28636567,16.6886814 C3.27639542,16.6787068 3.2666853,16.6685705 3.25723531,16.6582809 C1.20483488,14.8642558 1.7408297e-13,12.2808687 1.7408297e-13,9.50460241 C1.7408297e-13,4.25493656 4.25308569,-2.48689958e-14 9.50046798,-2.48689958e-14 Z M9.50046798,1.95786893 C5.33391649,1.95786893 1.95701727,5.33623771 1.95701727,9.50460241 C1.95701727,11.7407924 2.94080785,13.8173615 4.61756717,15.2466506 C4.66783991,15.2895036 4.71265239,15.3362639 4.75197066,15.3860794 L4.75197066,15.3860794 L9.50046798,20.1366431 L14.2489653,15.3860794 C14.2882836,15.3362639 14.3330961,15.2895036 14.3833688,15.2466506 C16.0596947,13.817731 17.0429827,11.7412914 17.0429827,9.50460241 C17.0429827,5.33636587 13.6662116,1.95786893 9.50046798,1.95786893 Z M9.50046798,5.60044151 C11.883798,5.60044151 13.816627,7.53411164 13.816627,9.91847888 C13.816627,12.3035016 11.8840789,14.2365162 9.50046798,14.2365162 C7.11620196,14.2365162 5.18430893,12.3037825 5.18430893,9.91847888 C5.18430893,7.53383066 7.11648276,5.60044151 9.50046798,5.60044151 Z M9.50046798,7.55831044 C8.19739842,7.55831044 7.1413262,8.61504692 7.1413262,9.91847888 C7.1413262,11.2224813 8.19703276,12.2786473 9.50046798,12.2786473 C10.803333,12.2786473 11.8596098,11.2221155 11.8596098,9.91847888 C11.8596098,8.61541279 10.8029672,7.55831044 9.50046798,7.55831044 Z" id="Combined-Shape"></path>
                        </g>
                    </g>
                </g>
            </g>
        </g>
    </g>
</svg>