<?xml version="1.0" encoding="UTF-8"?>
<svg width="24px" height="20px" viewBox="0 0 24 20" version="1.1" xmlns="http://www.w3.org/2000/svg" xmlns:xlink="http://www.w3.org/1999/xlink">
    <!-- Generator: sketchtool 55.2 (78181) - https://sketchapp.com -->
    <title>A2439CF7-A406-43DC-81DD-E4F0A47BB542</title>
    <desc>Created with sketchtool.</desc>
    <g id="Main" stroke="none" stroke-width="1" fill="none" fill-rule="evenodd" opacity="0.8">
        <g id="Explore-People" transform="translate(-419.000000, -1149.000000)" fill="#0E3232" fill-rule="nonzero">
            <g id="Featured" transform="translate(112.000000, 849.000000)">
                <g id="Record-Card/Person---Condensed" transform="translate(0.000000, 72.000000)">
                    <g id="Connections">
                        <g transform="translate(25.128866, 197.000000)">
                            <g id="Connection-Icons" transform="translate(0.000000, 30.000000)">
                                <g id="Projects" transform="translate(282.448454, 1.000000)">
                                    <g id="Combined-Shape">
                                        <path d="M6.79957527,3.42710997 L6.79957527,1.00047132 C6.79957527,0.447926266 7.23334072,0 7.78246443,0 L15.3360923,0 C15.878927,0 16.3189814,0.449390771 16.3189814,1.00047132 L16.3189814,3.42710997 L22.1251812,3.42710997 C22.6738073,3.42710997 23.1185567,3.87039475 23.1185567,4.42649633 L23.1185567,19.0006136 C23.1185567,19.5525595 22.6773765,20 22.1251812,20 L0.993375483,20 C0.444749353,20 0,19.5567152 0,19.0006136 L0,4.42649633 C0,3.87455049 0.441180219,3.42710997 0.993375483,3.42710997 L6.79957527,3.42710997 Z M8.76893382,3.42710997 L14.3496224,3.42710997 L14.3496224,2 L8.76893382,2 L8.76893382,3.42710997 Z M1.96935855,5.42710997 L1.96935855,18 L21.1491986,18 L21.1491986,5.42710997 L1.96935855,5.42710997 Z"></path>
                                    </g>
                                </g>
                            </g>
                        </g>
                    </g>
                </g>
            </g>
        </g>
    </g>
</svg>