<?xml version="1.0" encoding="UTF-8"?>
<svg width="19px" height="21px" viewBox="0 0 19 21" version="1.1" xmlns="http://www.w3.org/2000/svg" xmlns:xlink="http://www.w3.org/1999/xlink">
    <!-- Generator: sketchtool 55.2 (78181) - https://sketchapp.com -->
    <title>1AFF1C10-EEDC-4DBC-82D4-76E96A7F91C9</title>
    <desc>Created with sketchtool.</desc>
    <g id="Main" stroke="none" stroke-width="1" fill="none" fill-rule="evenodd" opacity="0.8">
        <g id="Explore-People" transform="translate(-351.000000, -1149.000000)" fill="#0E3232" fill-rule="nonzero">
            <g id="Featured" transform="translate(112.000000, 849.000000)">
                <g id="Record-Card/Person---Condensed" transform="translate(0.000000, 72.000000)">
                    <g id="Connections">
                        <g transform="translate(25.128866, 197.000000)">
                            <g id="Connection-Icons" transform="translate(0.000000, 30.000000)">
                                <g id="Events" transform="translate(214.097938, 1.000000)">
                                    <g id="Sources">
                                        <path d="M1.67407897e-13,1.01287365 C1.67407897e-13,0.453478979 0.447239827,3.55271368e-15 1.02458598,3.55271368e-15 L17.0681975,3.55271368e-15 C17.6340607,3.55271368e-15 18.0927835,0.458144769 18.0927835,1.01287365 L18.0927835,19.9871264 C18.0927835,20.546521 17.6455437,21 17.0681975,21 L1.02458598,21 C0.458722769,21 1.67407897e-13,20.5418552 1.67407897e-13,19.9871264 L1.67407897e-13,1.01287365 Z M2.03961266,2.01380907 L2.03961266,18.9861909 L16.0531704,18.9861909 L16.0531704,2.01380907 L2.03961266,2.01380907 Z M5.27242191,7.59303044 C4.70919843,7.59303044 4.25261559,7.14222393 4.25261559,6.58612591 C4.25261559,6.03002789 4.70919843,5.57922137 5.27242191,5.57922137 L12.74498,5.57922137 C13.3082035,5.57922137 13.7647863,6.03002789 13.7647863,6.58612591 C13.7647863,7.14222393 13.3082035,7.59303044 12.74498,7.59303044 L5.27242191,7.59303044 Z M5.27242191,11.0731953 C4.70919843,11.0731953 4.25261559,10.6223888 4.25261559,10.0662908 C4.25261559,9.51019274 4.70919843,9.05938623 5.27242191,9.05938623 L12.74498,9.05938623 C13.3082035,9.05938623 13.7647863,9.51019274 13.7647863,10.0662908 C13.7647863,10.6223888 13.3082035,11.0731953 12.74498,11.0731953 L5.27242191,11.0731953 Z M5.27242193,14.5533602 C4.70919844,14.5533602 4.25261559,14.1025536 4.25261559,13.5464556 C4.25261559,12.9903576 4.70919844,12.5395511 5.27242193,12.5395511 L8.75189212,12.5395511 C9.3151156,12.5395511 9.77169846,12.9903576 9.77169846,13.5464556 C9.77169846,14.1025536 9.3151156,14.5533602 8.75189212,14.5533602 L5.27242193,14.5533602 Z" id="Combined-Shape"></path>
                                    </g>
                                </g>
                            </g>
                        </g>
                    </g>
                </g>
            </g>
        </g>
    </g>
</svg>