<?xml version="1.0" encoding="UTF-8"?>
<svg width="24px" height="24px" viewBox="0 0 24 24" version="1.1" xmlns="http://www.w3.org/2000/svg" xmlns:xlink="http://www.w3.org/1999/xlink">
    <title>tooltip-info</title>
    <g id="Main" stroke="none" stroke-width="1" fill="none" fill-rule="evenodd">
        <g id="Single-Issue---Dataset---PDF" transform="translate(-886.000000, -149.000000)">
            <g id="tooltip-info" transform="translate(886.000000, 149.000000)">
                <g id="Group-3" transform="translate(9.000000, 5.000000)" fill="#0E3232" fill-rule="nonzero">
                    <path d="M5.76923077,12.4746064 C5.7072107,12.7362984 5.65591923,12.9671824 5.59521464,13.1937191 L5.59512051,13.1936209 C5.577145,13.2405416 5.54156912,13.2776468 5.49667914,13.296393 C4.87194902,13.5158785 4.25673561,13.7832647 3.61723652,13.9310978 C3.06413473,14.0598833 2.48636176,14.0072684 1.96311114,13.7805207 C1.62458114,13.6376982 1.33838102,13.3863995 1.14583018,13.0628654 C0.953274532,12.7393313 0.86432819,12.3603377 0.891818243,11.9806657 C0.930969282,11.0673823 1.23449223,10.2230273 1.44906402,9.35469936 C1.62308015,8.65109114 1.81195199,7.93765755 1.96178603,7.22138439 L1.96169192,7.22128623 C1.99679534,6.96959552 1.99406802,6.7137083 1.95359813,6.46279658 C1.92658753,6.19256077 1.75388929,6.04060653 1.50156626,5.99132882 L1.50166039,5.991427 C1.07560071,5.90386798 0.634410665,5.9479415 0.232082541,6.11805386 C0.16865063,6.14337873 0.0971234885,6.15466662 0,6.18274059 C0.0579724494,5.92800928 0.10258295,5.70282953 0.164603015,5.47913237 L0.164603015,5.47923053 C0.187848854,5.41896146 0.233682313,5.37125431 0.291372875,5.34691198 C0.965975395,5.07667617 1.62306234,4.78407567 2.34623624,4.69258147 C2.79723212,4.63113386 3.255745,4.67933001 3.68602094,4.83324532 C4.47535407,5.11466347 4.89216206,5.85910609 4.83824204,6.7288161 C4.78026959,7.70117752 4.44297315,8.59757438 4.22160716,9.52490487 C4.06152157,10.2003436 3.90632685,10.8772399 3.75613142,11.5555433 L3.75613142,11.5554451 C3.73467352,11.6732367 3.72742708,11.7932848 3.73457955,11.9129535 C3.74540259,12.4279947 3.94642884,12.6742827 4.43619027,12.6841081 C4.77753914,12.6733105 5.11765928,12.6351269 5.45346677,12.5701437 C5.56075508,12.5460946 5.66625568,12.5141917 5.76923077,12.4744379 L5.76923077,12.4746064 Z" id="Path"></path>
                    <path d="M4.30108051,0.000274673076 C5.22726014,0.0184827918 5.91394083,0.644410431 5.99418583,1.54406532 C6.0523202,2.17283885 5.67021455,2.79309174 5.04029373,3.09627637 C4.17784534,3.51027951 3.08974186,3.14121024 2.68686052,2.29911983 C2.17748026,1.21847641 3.04405709,-0.0221296131 4.30108051,0.000299733799 L4.30108051,0.000274673076 Z" id="Path"></path>
                </g>
                <circle id="Oval" stroke="#0E3232" stroke-width="2" cx="12" cy="12" r="11"></circle>
            </g>
        </g>
    </g>
</svg>