<?xml version="1.0" encoding="UTF-8"?>
<svg width="18px" height="15px" viewBox="0 0 18 15" version="1.1" xmlns="http://www.w3.org/2000/svg" xmlns:xlink="http://www.w3.org/1999/xlink">
    <title>twitter</title>
    <g id="Symbols" stroke="none" stroke-width="1" fill="none" fill-rule="evenodd">
        <g id="Footer" transform="translate(-316.000000, -218.000000)" fill="#FFFFFF" fill-rule="nonzero">
            <g id="Group-6" transform="translate(74.463415, 189.000000)">
                <g id="Group-3" transform="translate(241.536585, 0.000000)">
                    <g id="twitter" transform="translate(0.000000, 29.000000)">
                        <path d="M5.66064,15 C12.45312,15 16.16832,9.22860262 16.16832,4.22367196 C16.16832,4.05974534 16.16832,3.89655713 16.15752,3.73410733 C16.8802786,3.19795716 17.504176,2.53410497 18,1.77363359 C17.325993,2.07992662 16.6109971,2.28079349 15.87888,2.369529 C16.6498157,1.8961961 17.226809,1.15172554 17.50248,0.274664977 C16.7775534,0.715830873 15.9844652,1.02674259 15.15744,1.19398317 C14.0126996,-0.0543739346 12.1937179,-0.359913725 10.7204755,0.448692966 C9.24723302,1.25729965 8.48611796,2.97895627 8.86392001,4.64825666 C5.89456493,4.49559043 3.12802257,3.05722573 1.2528,0.691127194 C0.272608385,2.42169364 0.773271278,4.63559996 2.39616,5.74700804 C1.80845367,5.72914414 1.23356115,5.56655081 0.72,5.27294998 C0.72,5.28845656 0.72,5.30470154 0.72,5.32094652 C0.720481056,7.12383876 1.95966107,8.67666847 3.68280001,9.03366285 C3.13910611,9.18573067 2.56865802,9.20795992 2.01528,9.09864277 C2.49908251,10.6414897 3.88553369,11.6984184 5.46552,11.7288527 C4.15780923,12.7828802 2.54236285,13.3550695 0.879119997,13.3533508 C0.58529057,13.3527722 0.291746927,13.3345269 0,13.2987085 C1.68885788,14.4102171 3.65393765,14.999792 5.66064,14.9970474" id="Path"></path>
                    </g>
                </g>
            </g>
        </g>
    </g>
</svg>