<?xml version="1.0" encoding="UTF-8"?>
<svg width="161px" height="45px" viewBox="0 0 161 45" version="1.1" xmlns="http://www.w3.org/2000/svg" xmlns:xlink="http://www.w3.org/1999/xlink">
    <!-- Generator: Sketch 54.1 (76490) - https://sketchapp.com -->
    <title>Footer-Matrix-Logo-White</title>
    <desc>Created with Sketch.</desc>
    <g id="Page-1" stroke="none" stroke-width="1" fill="none" fill-rule="evenodd">
        <g id="Desktop" transform="translate(-302.000000, -655.000000)" fill="#FFFFFF" fill-rule="nonzero">
            <g id="Footer-Matrix-Logo-White" transform="translate(302.333333, 655.000000)">
                <polygon id="Path" points="25.6 44.3571429 25.2 26.1160714 15.68 40.7410714 15.04 40.7410714 5.44 26.1964286 5.12 44.3571429 0 44.3571429 1.28 13.5803571 2.08 13.5 15.52 33.6696429 28.64 13.5 29.44 13.5803571 30.72 44.3571429"></polygon>
                <path d="M56.64,44.3571429 L53.68,37.3660714 L41.68,37.3660714 L38.72,44.3571429 L33.36,44.3571429 L47.28,13.5 L48,13.5 L61.92,44.3571429 L56.64,44.3571429 Z M47.68,23.1428571 L43.36,33.2678571 L52,33.2678571 L47.68,23.1428571 Z" id="Shape"></path>
                <polygon id="Path" points="72.8 18.7232143 72.8 44.4375 67.6 44.4375 67.6 18.7232143 58 18.7232143 58 13.9821429 82.4 13.9821429 82.4 18.7232143"></polygon>
                <path d="M102.32,44.3571429 L95.68,33.4285714 C95.44,33.4285714 95.12,33.5089286 94.88,33.5089286 C94.64,33.5089286 94.32,33.5089286 94.08,33.5089286 C93.6,33.5089286 93.12,33.5089286 92.56,33.5089286 C92.08,33.5089286 91.52,33.5089286 91.04,33.4285714 L91.04,44.4375 L85.84,44.4375 L85.84,14.3035714 C87.04,14.1428571 88.32,14.0625 89.6,13.9821429 C90.88,13.9017857 92.32,13.8214286 93.84,13.8214286 C96,13.8214286 97.84,14.0625 99.36,14.5446429 C100.88,15.0267857 102.24,15.75 103.2,16.5535714 C104.24,17.4375 104.96,18.4017857 105.44,19.6071429 C105.92,20.7321429 106.16,22.0178571 106.16,23.3839286 C106.16,25.3928571 105.68,27.1607143 104.64,28.6875 C103.6,30.2142857 102.16,31.4196429 100.24,32.2232143 L108.16,44.4375 L102.32,44.4375 L102.32,44.3571429 Z M100.88,23.625 C100.88,22.0982143 100.32,20.8125 99.2,19.8482143 C98.08,18.8839286 96.56,18.4017857 94.56,18.4017857 C93.92,18.4017857 93.36,18.4017857 92.72,18.4821429 C92.16,18.4821429 91.6,18.5625 91.04,18.7232143 L91.04,29.0892857 C91.52,29.1696429 92,29.1696429 92.48,29.25 C92.96,29.25 93.52,29.3303571 94,29.3303571 C96.24,29.3303571 97.92,28.8482143 99.04,27.8035714 C100.24,26.7589286 100.88,25.3928571 100.88,23.625 Z" id="Shape"></path>
                <polygon id="Path" points="113.04 44.3571429 113.04 13.9821429 118.16 13.9821429 118.16 44.3571429 113.04 44.3571429"></polygon>
                <polygon id="Path" points="122.56 13.9821429 128.72 13.9821429 149.36 44.3571429 143.2 44.3571429"></polygon>
                <g id="Group" opacity="0.7" transform="translate(122.400000, 0.000000)">
                    <polygon id="Path" points="37.44 0.803571429 31.84 0.803571429 31.36 1.52678571 36.88 1.52678571"></polygon>
                    <polygon id="Path" points="30.32 2.89285714 35.92 2.89285714 36.4 2.16964286 30.88 2.16964286"></polygon>
                    <polygon id="Path" points="29.36 4.25892857 34.88 4.25892857 35.44 3.53571429 29.84 3.53571429"></polygon>
                    <polygon id="Path" points="28.4 5.70535714 33.92 5.70535714 34.48 4.98214286 28.88 4.98214286"></polygon>
                    <polygon id="Path" points="27.36 7.07142857 32.96 7.07142857 33.44 6.34821429 27.92 6.34821429"></polygon>
                    <polygon id="Path" points="26.4 8.4375 31.92 8.4375 32.48 7.71428571 26.88 7.71428571"></polygon>
                    <polygon id="Path" points="25.44 9.80357143 30.96 9.80357143 31.52 9.08035714 25.92 9.08035714"></polygon>
                    <polygon id="Path" points="24.4 11.1696429 30 11.1696429 30.48 10.4464286 24.96 10.4464286"></polygon>
                    <polygon id="Path" points="23.44 12.6160714 28.96 12.6160714 29.52 11.8928571 23.92 11.8928571"></polygon>
                    <polygon id="Path" points="22.48 13.9821429 28 13.9821429 28.56 13.2589286 22.96 13.2589286"></polygon>
                    <polygon id="Path" points="21.44 15.3482143 27.04 15.3482143 27.52 14.625 22 14.625"></polygon>
                    <polygon id="Path" points="20.48 16.7142857 26 16.7142857 26.56 15.9910714 20.96 15.9910714"></polygon>
                    <polygon id="Path" points="19.52 18.0803571 25.04 18.0803571 25.6 17.3571429 20 17.3571429"></polygon>
                    <polygon id="Path" points="18.48 19.5267857 24.08 19.5267857 24.56 18.8035714 19.04 18.8035714"></polygon>
                    <polygon id="Path" points="17.52 20.8928571 23.04 20.8928571 23.6 20.1696429 18 20.1696429"></polygon>
                    <polygon id="Path" points="16.56 22.2589286 22.08 22.2589286 22.64 21.5357143 17.04 21.5357143"></polygon>
                    <polygon id="Path" points="15.52 23.625 21.12 23.625 21.6 22.9017857 16.08 22.9017857"></polygon>
                    <polygon id="Path" points="14.56 24.9910714 20.16 24.9910714 20.64 24.2678571 15.04 24.2678571"></polygon>
                    <polygon id="Path" points="13.6 26.4375 19.12 26.4375 19.68 25.7142857 14.08 25.7142857"></polygon>
                    <polygon id="Path" points="12.56 27.8035714 18.16 27.8035714 18.64 27.0803571 13.12 27.0803571"></polygon>
                    <polygon id="Path" points="11.6 29.1696429 17.12 29.1696429 17.68 28.4464286 12.08 28.4464286"></polygon>
                    <polygon id="Path" points="10.64 30.5357143 16.16 30.5357143 16.72 29.8125 11.12 29.8125"></polygon>
                    <polygon id="Path" points="9.6 31.9017857 15.2 31.9017857 15.68 31.1785714 10.16 31.1785714"></polygon>
                    <polygon id="Path" points="8.64 33.3482143 14.24 33.3482143 14.72 32.625 9.12 32.625"></polygon>
                    <polygon id="Path" points="7.68 34.7142857 13.2 34.7142857 13.76 33.9910714 8.16 33.9910714"></polygon>
                    <polygon id="Path" points="6.64 36.0803571 12.24 36.0803571 12.72 35.3571429 7.2 35.3571429"></polygon>
                    <polygon id="Path" points="5.68 37.4464286 11.28 37.4464286 11.76 36.7232143 6.16 36.7232143"></polygon>
                    <polygon id="Path" points="4.72 38.8125 10.24 38.8125 10.8 38.0892857 5.2 38.0892857"></polygon>
                    <polygon id="Path" points="3.68 40.2589286 9.28 40.2589286 9.76 39.5357143 4.24 39.5357143"></polygon>
                    <polygon id="Path" points="2.72 41.625 8.32 41.625 8.8 40.9017857 3.2 40.9017857"></polygon>
                    <polygon id="Path" points="1.76 42.9910714 7.28 42.9910714 7.84 42.2678571 2.24 42.2678571"></polygon>
                    <polygon id="Path" points="0.72 44.3571429 6.32 44.3571429 6.8 43.6339286 1.28 43.6339286"></polygon>
                </g>
            </g>
        </g>
    </g>
</svg>