<?xml version="1.0" encoding="UTF-8"?>
<svg width="212px" height="45px" viewBox="0 0 212 45" version="1.1" xmlns="http://www.w3.org/2000/svg" xmlns:xlink="http://www.w3.org/1999/xlink">
    <!-- Generator: sketchtool 51.3 (57544) - http://www.bohemiancoding.com/sketch -->
    <title>60324F20-A63F-4FDB-BAA1-D01AB6757736</title>
    <desc>Created with sketchtool.</desc>
    <defs></defs>
    <g id="Projects" stroke="none" stroke-width="1" fill="none" fill-rule="evenodd">
        <g id="Single-Project" transform="translate(-255.000000, -661.000000)" fill="#122E46">
            <g id="Group-4" transform="translate(113.000000, 634.000000)">
                <g id="MSU" transform="translate(142.000000, 27.000000)">
                    <path d="M3.85499549,31.850439 L3.85499549,39.742755 C3.85499549,41.0608344 4.27988776,42.9273561 6.58472793,42.9273561 C8.69515984,42.9273561 9.4577613,41.4567633 9.4577613,39.5922617 L9.42168554,31.850439 C9.42168554,31.4171393 9.2092394,31.1525134 8.94368173,31 L11,31 C10.7334402,31.1525134 10.539032,31.4171393 10.539032,31.850439 L10.4859204,39.5538808 C10.4859204,42.7566623 8.69515984,44 6.2830945,44 C4.20873835,44 1.5671911,43.0212882 1.5671911,39.6861938 L1.5671911,31.850439 C1.5671911,31.4171393 1.28359555,31.1525134 1,31 L4.40414871,31 C4.12055316,31.1525134 3.85499549,31.4171393 3.85499549,31.850439" id="Fill-1"></path>
                    <path d="M35.3695947,31.892557 C35.3695947,31.4377981 35.1789293,31.1600666 34.8723481,31 L37,31 C36.7118353,31.1600666 36.5005868,31.4377981 36.5005868,31.892557 L36.5005868,45 C36.5005868,45 27.300984,33.8101764 27.300984,33.6511698 L27.300984,43.5562202 C27.300984,43.9908382 27.5111492,44.2685697 27.8372303,44.445597 L25.7095784,44.445597 C25.9966597,44.2685697 26.2079083,43.9908382 26.2079083,43.5562202 L26.2079083,32.9992428 C26.2079083,32.2264708 26.2263248,32.20739 25.8634107,31.7526312 C25.6705787,31.5151813 25.4019139,31.2385099 25,31 L28.2965604,31 L35.3695947,39.7008405 L35.3695947,31.892557" id="Fill-2"></path>
                    <path d="M54,31 C53.7180768,31.1547619 53.5691539,31.4232892 53.5691539,31.862977 L53.5691539,43.1400978 C53.5691539,43.5603122 53.7180768,43.8288395 54,44 L51,44 C51.265064,43.8288395 51.4308461,43.5603122 51.4308461,43.1400978 L51.4308461,31.862977 C51.4308461,31.4232892 51.265064,31.1547619 51,31 L54,31" id="Fill-3"></path>
                    <path d="M77.0764263,31.9999235 C77.247578,31.4806913 77.1711518,31.2012694 76.6759957,31 L79,31 C78.5048439,31.3415156 78.467169,31.4806913 78.2766416,31.960312 C77.9526372,32.7386251 73.3616792,45 73.3616792,45 C73.3616792,45 68.3907427,32.697943 68.0290635,31.960312 C67.8008611,31.5599144 67.5726588,31.2408809 67,31 L71.2099031,31 C70.714747,31.2012694 70.6759957,31.6209375 70.8094726,32.1005582 C70.8482239,32.2793454 74.0290635,40.4874971 74.0290635,40.4874971 C74.0290635,40.4874971 77.0570506,32.1401698 77.0764263,31.9999235" id="Fill-4"></path>
                    <path d="M99.1839599,32.6839325 C98.8471178,32.1858247 98.4741855,32.0331126 97.8005013,31.9951908 C97.2681704,31.957269 94.7849624,31.957269 94.7849624,31.957269 L94.7849624,36.3551719 L97.4626566,36.3551719 C97.7112782,36.3551719 98.0130326,36.0487228 98.1022556,35.8191422 L98.1022556,37.8443709 C98.0130326,37.5778934 97.7112782,37.2909177 97.4626566,37.2909177 L94.7849624,37.2909177 L94.7849624,42.9115421 C95.1398496,42.9679123 96.2215539,43.0458057 97.0907268,43.006859 C98.633584,42.9679123 99.3433584,43.006859 100,41.8025859 L99.6270677,44 L92,44 C92.3007519,43.8093661 92.5313283,43.5992589 92.5313283,43.1400978 L92.5313283,31.862977 C92.5313283,31.4232892 92.2837093,31.1547619 92,31 L99.1298246,31 L99.1839599,32.6839325" id="Fill-5"></path>
                    <path d="M117.899286,31.9544097 L117.899286,36.9287848 C117.899286,36.9287848 118.430714,36.9676152 118.753214,36.9676152 C120.043214,36.9676152 121.408214,36.2431222 121.408214,34.3179532 C121.408214,33.4412042 120.875714,31.9166012 119.000714,31.9166012 C118.430714,31.9166012 117.899286,31.9544097 117.899286,31.9544097 L117.899286,31.9544097 Z M120.706429,37.3865744 C121.995357,37.5194152 122.564286,38.3961641 122.847143,38.8171671 C122.847143,38.8171671 125.123929,42.4375884 125.787143,43.19989 C126.147143,43.6566578 127,43.9611696 127,43.9611696 L124.534643,44 C123.814643,44 123.188929,43.5616255 122.847143,43.1038359 C121.995357,41.9031599 121.161786,40.5124194 120.478214,39.445606 C119.985357,38.6822827 119.549286,37.8627574 118.733929,37.8627574 C118.506786,37.8627574 117.899286,37.9015878 117.899286,37.9015878 L117.899286,43.1038359 C117.899286,43.5227952 118.109286,43.7905204 118.430714,43.9611696 L115,43.9611696 C115.303214,43.7905204 115.492857,43.5227952 115.492857,43.1038359 L115.492857,31.8603993 C115.492857,31.4220248 115.303214,31.1542996 115,31 L119.095,31 C123.018571,31 123.908929,32.9272127 123.908929,34.2035057 C123.908929,36.2615155 122.052143,37.2905204 120.706429,37.3865744 L120.706429,37.3865744 Z" id="Fill-6"></path>
                    <path d="M147,40.8058891 C147,43.3028681 144.953464,45 142.663994,45 C140.969765,45 139.743526,44.381109 139.091495,44.0416826 L139,40.6656214 C139.351255,42.0854302 140.469173,43.9624474 142.403181,43.9624474 C144.245695,43.9624474 144.804128,42.5447801 144.804128,41.5661185 C144.804128,39.648413 143.18667,39.3882218 141.49139,38.4095602 C139.779282,37.3912811 139.035757,36.3130402 139.035757,34.793652 C139.035757,32.0782409 141.398843,31 143.092021,31 C143.725122,31 144.953464,31.1402677 145.901012,31.7388145 L145.99461,34.6951434 C145.734849,33.6361759 144.673722,32.0386233 142.886946,32.0386233 C141.473511,32.0386233 140.915078,33.0975908 140.915078,33.9563289 C140.915078,35.1737667 141.715394,35.6331166 143.464309,36.4929254 C145.195346,37.3709369 147,38.031587 147,40.8058891" id="Fill-7"></path>
                    <path d="M164,31 C163.717989,31.1547619 163.568082,31.4232892 163.568082,31.862977 L163.568082,43.1400978 C163.568082,43.5603122 163.717989,43.8288395 164,44 L161,44 C161.26421,43.8288395 161.430981,43.5603122 161.430981,43.1400978 L161.430981,31.862977 C161.430981,31.4232892 161.26421,31.1547619 161,31 L164,31" id="Fill-8"></path>
                    <path d="M184.149325,31.957269 L184.149325,43.1400978 C184.149325,43.5603122 184.350418,43.8288395 184.623698,44 L181.356708,44 C181.648551,43.8288395 181.832113,43.5603122 181.832113,43.1400978 L181.832113,31.957269 C180.48118,31.957269 178.911622,32.0915326 178.911622,32.0915326 C178.473342,32.0915326 178.163968,32.5312204 178,32.855093 L178,31 L188,31 L188,32.855093 C187.835001,32.5312204 187.57822,32.1294544 187.140971,32.0915326 C187.140971,32.0915326 185.480664,31.957269 184.149325,31.957269" id="Fill-9"></path>
                    <path d="M212,31 C211.434844,31.1926837 211.017655,31.7276884 210.798786,32.1673762 L207.890799,37.9786345 L207.890799,43.1400978 C207.890799,43.5603122 208.23503,43.8288395 208.526857,44 L204.890332,44 C205.163662,43.8288395 205.508921,43.5992589 205.508921,43.1400978 L205.508921,38.055503 L201.945353,31.9193472 C201.689491,31.4601861 201.491172,31.2685273 201,31 L205.108174,31 C204.653993,31.1926837 204.344699,31.2880006 204.817375,32.1858247 L207.38113,36.8891517 L209.781504,31.957269 C210.036338,31.5360296 209.907894,31.1352886 209.399253,31 L212,31" id="Fill-10"></path>
                    <path d="M14.6485831,1 L19,1 C18.5883229,1.21877955 18.3306318,1.60243645 18.3306318,2.23129554 L18.3306318,18.3850476 C18.3306318,18.987484 18.5883229,19.3711409 19,19.6174 L14.390892,19.6174 C14.8036167,19.3711409 15.0602602,18.987484 15.0602602,18.3850476 L15.0602602,4.61356177 C15.0602602,4.2859209 15.1126365,3.98470268 15.1126365,3.98470268 L14.880086,4.61356177 L8.7017863,20 L2.47111038,5.05112088 L2.29093616,4.31340046 L2.29093616,5.05112088 L2.29093616,18.3850476 C2.29093616,18.987484 2.5748153,19.3711409 3.01163304,19.6174 L0.153986107,19.6174 C0.54052266,19.3711409 0.823354284,18.987484 0.823354284,18.3850476 L0.823354284,2.23129554 C0.823354284,1.71129777 0.411677142,1.21877955 0,1 L4.53054361,1 L9.68017422,13.5666129 L14.6485831,1" id="Fill-11"></path>
                    <path d="M28,1 C27.53125,1.21152427 27.2816996,1.58245813 27.2816996,2.19046267 L27.2816996,17.8085155 C27.2816996,18.3909736 27.53125,18.7619075 28,19 L23,19 C23.4417716,18.7619075 23.7183004,18.3909736 23.7183004,17.8085155 L23.7183004,2.19046267 C23.7183004,1.58245813 23.4417716,1.21152427 23,1 L28,1" id="Fill-12"></path>
                    <path d="M47.8176436,6.61033097 C46.2804576,2.84255741 43.3341845,2.46379206 42.1249316,2.46379206 C37.8187613,2.46379206 35.3756604,5.85175395 35.3756604,10.2148797 C35.3756604,13.9282449 37.1126805,18.5090038 42.3011956,18.5090038 C43.4848287,18.5090038 46.3316972,18.0747839 47.9939076,14.3614186 C48.0441223,14.2536483 47.7674288,18.2652128 47.7674288,18.2652128 C45.6758311,19.5385759 43.434614,20 41.3696609,20 C36.4076246,20 32,16.341043 32,10.5674872 C32,5.82454981 35.2742061,1 41.6719741,1 C43.7369272,1 45.6256164,1.43317363 47.5901401,2.40938378 C47.5901401,2.40938378 47.8678583,6.71914753 47.8176436,6.61033097" id="Fill-13"></path>
                    <path d="M63.3369152,1 L68,1 C67.5617874,1.21152427 67.2787315,1.58245813 67.2787315,2.19046267 L67.2787315,17.8085155 C67.2787315,18.3909736 67.5617874,18.7619075 68,19 L63.3369152,19 C63.7489189,18.7619075 64.0068143,18.3909736 64.0068143,17.8085155 L64.0068143,9.70826001 L55.994234,9.70826001 L55.994234,17.8085155 C55.994234,18.3909736 56.2259206,18.7619075 56.6630848,19 L52,19 C52.4120037,18.7619075 52.6698991,18.3909736 52.6698991,17.8085155 L52.6698991,2.19046267 C52.6698991,1.58245813 52.4120037,1.21152427 52,1 L56.6630848,1 C56.2259206,1.21152427 55.994234,1.58245813 55.994234,2.19046267 L55.994234,8.41152427 L64.0068143,8.41152427 L64.0068143,2.19046267 C64.0068143,1.58245813 63.7489189,1.21152427 63.3369152,1" id="Fill-14"></path>
                    <path d="M77,1 C76.53125,1.21152427 76.2816996,1.58245813 76.2816996,2.19046267 L76.2816996,17.8085155 C76.2816996,18.3909736 76.53125,18.7619075 77,19 L72,19 C72.4417716,18.7619075 72.7183004,18.3909736 72.7183004,17.8085155 L72.7183004,2.19046267 C72.7183004,1.58245813 72.4417716,1.21152427 72,1 L77,1" id="Fill-15"></path>
                    <path d="M96.2023319,2.40938378 L96.3857025,6.71914753 C95.0575904,3.03194008 91.7484395,2.46379206 90.5242021,2.46379206 C86.0957484,2.46379206 83.5423389,5.85175395 83.5423389,10.2148797 C83.5423389,13.9282449 85.3135084,18.5090038 90.7065128,18.5090038 C91.2534448,18.5090038 92.7903663,18.4545955 94.0146037,17.6144061 L94.0146037,12.8986728 C94.0146037,12.2750702 93.753857,11.8952585 93.3372983,11.6514676 L98,11.6514676 C97.6099399,11.8952585 97.3237546,12.2750702 97.3237546,12.8986728 L97.3237546,16.9102373 C97.3237546,17.4511812 97.6099399,17.9398095 97.7403133,18.0214219 C95.5515251,19.294785 91.8523142,20 89.7684607,20 C84.5842657,20 80,16.341043 80,10.5674872 C80,5.82454981 83.4119656,1 90.0811447,1 C92.2169356,1 94.144977,1.48758192 96.2023319,2.40938378" id="Fill-16"></path>
                    <path d="M109.077513,12.4950713 C107.871425,9.48587477 106.461888,5.85412192 106.461888,5.85412192 C106.461888,5.85412192 104.718485,10.4620849 103.897386,12.4950713 L109.077513,12.4950713 L109.077513,12.4950713 Z M114.718792,17.6711823 C114.974408,18.2403767 115.15386,18.5385759 116,19 L110.513134,19 C111.179821,18.6201883 111.307107,18.2403767 111.128698,17.6711823 C111.051491,17.4001872 110.384804,15.7470125 109.665951,13.9044551 L103.384068,13.9044551 C102.615134,15.7470125 101.99957,17.345779 101.948447,17.6439782 C101.717872,18.294785 101.846201,18.6745966 102.538971,19 L99,19 C99.7167669,18.4841676 99.9483859,18.1870147 100.205045,17.6711823 C100.692279,16.6416102 107.4374,0 107.4374,0 C107.4374,0 114.256598,16.6416102 114.718792,17.6711823 L114.718792,17.6711823 Z" id="Fill-17"></path>
                    <path d="M130.828675,2.20692475 C130.828675,1.59051254 130.571819,1.21444929 130.164175,1 L133,1 C132.617314,1.21444929 132.33654,1.59051254 132.33654,2.20692475 L132.33654,20 C132.33654,20 120.067724,4.81035987 120.067724,4.59591058 L120.067724,18.0409487 C120.067724,18.6314613 120.349539,19.0075245 120.784219,19.2489095 L117.946315,19.2489095 C118.33108,19.0075245 118.610815,18.6314613 118.610815,18.0409487 L118.610815,3.71014177 C118.610815,2.66379498 118.636813,2.63685932 118.151176,2.01941112 C117.895359,1.69721919 117.537632,1.32219193 117,1 L121.397764,1 L130.828675,12.8081788 L130.828675,2.20692475" id="Fill-18"></path>
                    <path d="M154,14.3080566 C154,17.6960185 151.187547,20 148.038891,20 C145.711488,20 144.023183,19.1598106 143.126987,18.6983865 L143,14.1186739 C143.487131,16.0428438 145.021385,18.5906162 147.682911,18.5906162 C150.213285,18.5906162 150.982494,16.6664464 150.982494,15.3376287 C150.982494,12.735448 148.756056,12.3838868 146.428653,11.0550691 C144.075227,9.67288948 143.052044,8.21014373 143.052044,6.14995319 C143.052044,2.46379206 146.300625,1 148.628028,1 C149.498202,1 151.187547,1.18938268 152.490727,2.00236797 L152.617714,6.01393249 C152.261734,4.57839088 150.802422,2.40938378 148.348032,2.40938378 C146.402631,2.40938378 145.635503,3.84597169 145.635503,5.01156451 C145.635503,6.66473925 146.734671,7.28834187 149.14014,8.45288837 C151.519587,9.64568534 154,10.5402831 154,14.3080566" id="Fill-19"></path>
                    <path d="M164.609548,2.32432586 L164.609548,17.8085155 C164.609548,18.3909736 164.890192,18.7619075 165.274779,19 L160.701314,19 C161.108768,18.7619075 161.365506,18.3909736 161.365506,17.8085155 L161.365506,2.32432586 C159.474794,2.32432586 157.276413,2.50826001 157.276413,2.50826001 C156.664192,2.50826001 156.228673,3.1172864 156,3.56690321 L156,1 L170,1 L170,3.56690321 C169.769248,3.1172864 169.412726,2.56139654 168.799465,2.50826001 C168.799465,2.50826001 166.473235,2.32432586 164.609548,2.32432586" id="Fill-20"></path>
                    <path d="M178.076276,12.4950713 C176.871379,9.48587477 175.460972,5.85412192 175.460972,5.85412192 C175.460972,5.85412192 173.718827,10.4620849 172.897828,12.4950713 L178.076276,12.4950713 L178.076276,12.4950713 Z M183.716863,17.6711823 C183.974534,18.2403767 184.152921,18.5385759 185,19 L179.513807,19 C180.179369,18.6201883 180.307683,18.2403767 180.128252,17.6711823 C180.051055,17.4001872 179.38445,15.7470125 178.666728,13.9044551 L172.385616,13.9044551 C171.615734,15.7470125 171.000245,17.345779 170.949129,17.6439782 C170.717538,18.294785 170.846895,18.6745966 171.53958,19 L168,19 C168.717722,18.4841676 168.94827,18.1870147 169.20594,17.6711823 C169.693115,16.6416102 176.436365,0 176.436365,0 C176.436365,0 183.255768,16.6416102 183.716863,17.6711823 L183.716863,17.6711823 Z" id="Fill-21"></path>
                    <path d="M191.610826,2.32432586 L191.610826,17.8085155 C191.610826,18.3909736 191.891513,18.7619075 192.274077,19 L187.702012,19 C188.109527,18.7619075 188.365263,18.3909736 188.365263,17.8085155 L188.365263,2.32432586 C186.47531,2.32432586 184.277642,2.50826001 184.277642,2.50826001 C183.66533,2.50826001 183.229747,3.1172864 183,3.56690321 L183,1 L197,1 L197,3.56690321 C196.771293,3.1172864 196.413678,2.56139654 195.800327,2.50826001 C195.800327,2.50826001 193.47479,2.32432586 191.610826,2.32432586" id="Fill-22"></path>
                    <path d="M210.77445,3.32983253 C210.269939,2.64110133 209.712378,2.42957707 208.700108,2.37644053 C207.902201,2.32432586 204.176831,2.32432586 204.176831,2.32432586 L204.176831,8.41152427 L208.194515,8.41152427 C208.565861,8.41152427 209.018405,7.98745387 209.152652,7.6706784 L209.152652,10.476696 C209.018405,10.1057621 208.565861,9.70826001 208.194515,9.70826001 L204.176831,9.70826001 L204.176831,17.4907181 C204.709491,17.5704229 206.331288,17.6756741 207.635872,17.6235595 C209.950559,17.5704229 211.014796,17.6235595 212,15.9558899 L211.441357,19 L200,19 C200.451462,18.7353392 200.797907,18.4441101 200.797907,17.8085155 L200.797907,2.19046267 C200.797907,1.58245813 200.424396,1.21152427 200,1 L210.696499,1 L210.77445,3.32983253" id="Fill-23"></path>
                    <polygon id="Fill-24" points="0 24 211 24 211 25 0 25"></polygon>
                </g>
            </g>
        </g>
    </g>
</svg>