<?xml version="1.0" encoding="UTF-8"?>
<svg width="207px" height="31px" viewBox="0 0 207 31" version="1.1" xmlns="http://www.w3.org/2000/svg" xmlns:xlink="http://www.w3.org/1999/xlink">
    <title>news-fastcompany</title>
    <g id="Main" stroke="none" stroke-width="1" fill="none" fill-rule="evenodd">
        <g id="Home" transform="translate(-662.000000, -2572.000000)" fill="#000000" fill-rule="nonzero">
            <g id="Featured-in-Section" transform="translate(0.000000, 2294.000000)">
                <g id="Featured-In-Content" transform="translate(107.000000, 71.000000)">
                    <g id="News-Logos-Group" transform="translate(0.000000, 83.000000)">
                        <g id="News-Logos" transform="translate(35.000000, 32.000000)">
                            <g id="Row-Two" transform="translate(0.000000, 84.872000)">
                                <g id="news-fastcompany" transform="translate(520.356000, 7.416000)">
                                    <path d="M180.898488,3.83407519 C180.898488,1.81247359 181.525882,1.11536959 182.571538,1.11536959 C183.617194,1.11536959 184.453719,1.53363199 185.429664,3.83407519 L191.355048,17.2881824 L191.355048,25.7928512 C191.355048,27.8144528 190.518523,28.372136 188.21808,28.6509776 L188.21808,29.2086608 L199.162613,29.2086608 L199.162613,28.6509776 C196.792459,28.372136 196.025645,27.7447424 196.025645,25.7928512 L196.025645,17.2881824 L201.741898,4.32204799 C202.857264,1.81247359 203.972631,1.25479039 205.64568,0.975948791 L205.64568,0.418265591 L197.628984,0.418265591 L197.628984,0.975948791 C200.34769,1.25479039 201.323635,2.02160479 200.556821,3.83407519 L195.537672,15.3362912 L190.379103,3.55523359 C189.681999,1.95189439 190.100261,1.46392159 193.097808,1.04565919 L193.097808,0.487975991 L175.879339,0.487975991 L175.879339,1.04565919 C178.598045,1.46392159 179.43457,1.95189439 179.43457,3.90378559 L179.43457,19.658336 L166.816987,0.487975991 L160.612762,0.487975991 L160.612762,1.04565919 C162.634363,1.32450079 163.261757,1.95189439 163.261757,3.90378559 L163.261757,25.8625616 C163.261757,27.8841632 162.704074,28.5812672 162.00697,28.5812672 C161.379576,28.5812672 161.031024,28.3024256 160.124789,25.8625616 L150.783595,0.348555191 L150.225912,0.348555191 L141.233271,24.7471952 C140.257325,27.4659008 138.723696,28.372136 137.190067,28.720688 L137.190067,29.2783712 L145.415895,29.2783712 L145.415895,28.720688 C142.557768,28.4418464 141.651533,27.32648 142.278927,25.5140096 L144.300528,19.9371776 L152.805197,19.9371776 L154.757088,25.1654576 C155.593613,27.5356112 155.10564,28.2327152 152.665776,28.6509776 L152.665776,29.2086608 L168.280906,29.2086608 L168.280906,28.6509776 C165.5622,28.2327152 164.725675,27.7447424 164.725675,25.7928512 L164.725675,6.13451839 L179.992253,29.2783712 L180.898488,29.2783712 L180.898488,3.83407519 L180.898488,3.83407519 Z M70.8257667,14.778608 C70.8257667,5.85567679 75.0781011,1.18507999 80.0275395,1.18507999 C82.9553763,1.18507999 84.8375571,1.81247359 85.9529235,2.99755039 C86.7894483,3.83407519 87.4168419,5.01915199 88.1139459,6.90133279 L88.6716291,6.90133279 L88.6716291,0.906238391 C85.8135027,0.348555191 83.2342179,3.19108847e-06 80.6549331,3.19108847e-06 C73.1959203,3.19108847e-06 65.4580659,4.81002079 65.4580659,14.778608 C65.4580659,24.7471952 73.1959203,29.5572128 80.1669603,29.5572128 C83.2342179,29.5572128 85.9529235,29.06924 88.5322083,28.3024256 L89.3687331,22.6558832 L88.8807603,22.5164624 C88.2533667,23.7015392 87.4865523,24.7471952 86.6500275,25.6534304 C84.8375571,27.4659008 82.3976931,28.4418464 79.9578291,28.4418464 C75.2175219,28.372136 70.8257667,23.84096 70.8257667,14.778608 Z M132.658891,15.6151328 C132.031498,15.6151328 131.194973,15.5454224 130.358448,15.4060016 L130.358448,1.46392159 L132.658891,1.46392159 C136.492963,1.46392159 138.166013,3.48552319 138.166013,8.50467199 C138.166013,13.5935312 136.423253,15.6151328 132.658891,15.6151328 Z M43.0810275,0.418265591 L43.0810275,7.31959519 L43.6387107,7.31959519 C44.4752355,2.92783999 46.2179955,1.53363199 49.1458323,1.53363199 L50.5400403,1.53363199 L50.5400403,25.7928512 C50.5400403,27.8144528 49.7035155,28.372136 47.4030723,28.6509776 L47.4030723,29.2086608 L58.3476051,29.2086608 L58.3476051,28.6509776 C55.9774515,28.372136 55.2106371,27.7447424 55.2106371,25.7928512 L55.2106371,1.46392159 L56.6048451,1.46392159 C59.5326819,1.46392159 61.2754419,2.85812959 62.1119667,7.24988479 L62.6696499,7.24988479 L62.6696499,0.348555191 L43.0810275,0.348555191 L43.0810275,0.418265591 Z M34.3672275,29.5572128 C39.1075347,29.5572128 44.1266835,26.8385072 44.1266835,21.2616752 C44.1266835,17.9852864 42.3839235,15.2665808 39.3166659,13.5935312 L33.8792547,10.595984 C31.0211283,8.99264479 30.1846035,7.52872639 30.1846035,5.43741439 C30.1846035,3.06726079 31.9273635,1.18507999 35.2037523,1.18507999 C36.8070915,1.18507999 37.9921683,1.60334239 38.9681139,2.50957759 C39.8046387,3.34610239 40.6411635,4.74031039 41.4079779,7.24988479 L41.8959507,7.24988479 L41.8959507,0.906238391 C39.9440595,0.348555191 37.9224579,3.19108846e-06 35.5523043,3.19108846e-06 C30.8817075,3.19108846e-06 27.3961875,2.92783999 27.3961875,7.87727839 C27.3961875,11.0142464 29.1389475,13.8723728 31.9970739,15.5454224 L37.0162227,18.3338384 C39.8743491,19.9371776 40.7805843,21.4708064 40.7805843,23.7712496 C40.7805843,26.4899552 37.9921683,28.4418464 34.9249107,28.4418464 C32.9033091,28.4418464 31.2302595,27.7447424 30.0451827,26.5596656 C29.2783683,25.7928512 28.4418435,24.6077744 27.8841603,23.0741456 L31.1605491,23.0741456 L31.1605491,22.5164624 C30.2543139,22.3073312 29.6966307,22.1679104 28.9298163,20.35544 L22.5164595,5.08886239 L21.9587763,5.08886239 L15.6848403,20.006888 C14.8483155,22.0284896 14.2906323,22.3770416 13.3146867,22.5164624 L13.3146867,23.0741456 L18.8915187,23.0741456 L18.8915187,22.5164624 C16.8699171,22.3073312 16.3122339,21.3313856 16.8002067,20.0765984 L17.7761523,17.7064448 L23.4226947,17.7064448 L24.6774819,20.6342816 C25.2351651,21.9587792 24.3986403,22.3073312 22.3770387,22.446752 L22.3770387,23.0044352 L26.8385043,23.0044352 L26.8385043,28.5115568 C29.0692371,29.1389504 31.9273635,29.5572128 34.3672275,29.5572128 Z M105.192994,29.2783712 L113.488531,6.20422879 L114.115925,25.8625616 C114.185635,27.8144528 113.418821,28.372136 111.048667,28.6509776 L111.048667,29.2086608 L133.913679,29.2086608 L133.913679,28.6509776 C131.194973,28.2327152 130.358448,27.7447424 130.358448,25.7928512 L130.358448,16.521368 C131.264683,16.6607888 132.170919,16.7304992 132.868023,16.7304992 C138.375144,16.7304992 143.115451,14.7088976 143.115451,8.57438239 C143.115451,2.43986719 138.375144,0.418265591 132.868023,0.418265591 L123.038856,0.418265591 L123.038856,0.975948791 C125.060458,1.25479039 125.687851,1.88218399 125.687851,3.83407519 L125.687851,25.7928512 C125.687851,27.8144528 124.851327,28.6509776 122.550883,28.6509776 L122.481173,28.6509776 C120.041309,28.6509776 118.995653,27.7447424 118.925943,25.8625616 L118.089418,3.90378559 C118.019707,1.88218399 118.716811,1.25479039 120.877834,0.975948791 L120.877834,0.418265591 L114.115925,0.418265591 L106.726623,21.1222544 L99.3373203,0.418265591 L92.0874387,0.418265591 L92.0874387,0.975948791 C94.2484611,1.25479039 94.9455651,1.95189439 94.8758547,3.90378559 L94.1090403,24.9563264 C94.0393299,27.0476384 92.9239635,28.3024256 90.9023619,28.6509776 L90.9023619,29.2086608 L98.5705059,29.2086608 L98.5705059,28.6509776 C96.6186147,28.372136 95.5032483,27.1173488 95.5729587,24.9563264 L96.2003523,5.78596639 L104.635311,29.2086608 L105.192994,29.2783712 L105.192994,29.2783712 Z M82.9553763,23.2135664 C86.6500275,23.2135664 91.3903347,19.9371776 91.3903347,14.778608 C91.3903347,9.68974879 86.7197379,6.34364959 82.9553763,6.34364959 C79.2607251,6.34364959 74.5204179,9.62003839 74.5204179,14.778608 C74.5204179,19.8674672 79.1910147,23.2135664 82.9553763,23.2135664 Z M82.9553763,7.52872639 C85.3255299,7.52872639 86.9288691,9.48061759 86.9288691,14.778608 C86.9288691,20.1463088 85.2558195,22.0284896 82.9553763,22.0284896 C80.5852227,22.0284896 78.9818835,20.0765984 78.9818835,14.778608 C78.9818835,9.41090719 80.5852227,7.52872639 82.9553763,7.52872639 Z M152.456645,18.7521008 L144.718791,18.7521008 L148.552863,8.15611999 L152.456645,18.7521008 Z M23.0741427,16.5910784 L18.3338355,16.5910784 L20.7039891,10.8051152 L23.0741427,16.5910784 Z M14.0117907,18.0549968 L14.5694739,18.0549968 L14.5694739,9.41090719 L14.0117907,9.41090719 C13.1055555,12.4781648 12.1993203,13.1752688 10.5262707,13.1752688 L7.31959227,13.1752688 L7.31959227,1.46392159 L12.4084515,1.46392159 C15.3362883,1.46392159 17.0790483,2.85812959 17.9155731,7.24988479 L18.4732563,7.24988479 L18.4732563,0.348555191 L2.65924033e-07,0.348555191 L2.65924033e-07,0.906238391 C2.02160187,1.18507999 2.64899547,1.81247359 2.64899547,3.76436479 L2.64899547,25.7231408 C2.64899547,27.7447424 2.02160187,28.3024256 2.65924033e-07,28.5812672 L2.65924033e-07,29.1389504 L10.8748227,29.1389504 L10.8748227,28.5812672 C8.15611707,28.1630048 7.31959227,27.675032 7.31959227,25.7231408 L7.31959227,14.2209248 L10.5262707,14.2209248 C12.1296099,14.2906352 13.1055555,14.9877392 14.0117907,18.0549968 Z" id="svg_2"></path>
                                </g>
                            </g>
                        </g>
                    </g>
                </g>
            </g>
        </g>
    </g>
</svg>