<?xml version="1.0" encoding="UTF-8"?>
<svg width="20px" height="23px" viewBox="0 0 20 23" version="1.1" xmlns="http://www.w3.org/2000/svg" xmlns:xlink="http://www.w3.org/1999/xlink">
    <!-- Generator: sketchtool 55.2 (78181) - https://sketchapp.com -->
    <title>DBB100D6-8649-4778-AFCF-55EAE6A646E5</title>
    <desc>Created with sketchtool.</desc>
    <g id="Main" stroke="none" stroke-width="1" fill="none" fill-rule="evenodd" opacity="0.8">
        <g id="Explore-People" transform="translate(-281.000000, -1148.000000)" fill="#0E3232" fill-rule="nonzero">
            <g id="Featured" transform="translate(112.000000, 849.000000)">
                <g id="Record-Card/Person---Condensed" transform="translate(0.000000, 72.000000)">
                    <g id="Connections">
                        <g transform="translate(25.128866, 197.000000)">
                            <g id="Connection-Icons" transform="translate(0.000000, 30.000000)">
                                <g id="Places" transform="translate(144.742268, 0.000000)">
                                    <g id="Combined-Shape">
                                        <path d="M3.3033057,16.6886814 C3.29328405,16.6787068 3.28352388,16.6685705 3.27402519,16.6582809 C1.21104537,14.8642558 1.74531638e-13,12.2808687 1.74531638e-13,9.50460241 C1.74531638e-13,4.25493656 4.27500882,-2.48689958e-14 9.54943947,-2.48689958e-14 C14.8230915,-2.48689958e-14 19.0979381,4.25509797 19.0979381,9.50460241 C19.0979381,12.2812249 17.8874785,14.8645355 15.8248565,16.6582779 C15.815357,16.6685685 15.8055959,16.6787058 15.7955732,16.6886814 L10.2449161,22.2132767 C9.86081496,22.5955744 9.23806397,22.5955744 8.85396283,22.2132767 L3.3033057,16.6886814 Z M9.54943935,20.1366431 L14.3224134,15.3860794 C14.3619343,15.3362639 14.4069778,15.2895036 14.4575097,15.2466506 C16.1424763,13.817731 17.1308329,11.7412914 17.1308329,9.50460241 C17.1308329,5.33636587 13.7366558,1.95786893 9.54943935,1.95786893 C5.36141087,1.95786893 1.96710502,5.33623771 1.96710502,9.50460241 C1.96710502,11.7407924 2.95596666,13.8173615 4.64136904,15.2466506 C4.69190092,15.2895036 4.73694439,15.3362639 4.77646533,15.3860794 L9.54943935,20.1366431 Z M5.21103225,9.91847888 C5.21103225,7.53383066 7.15316582,5.60044151 9.54943974,5.60044151 C11.9450551,5.60044151 13.8878472,7.53411164 13.8878472,9.91847888 C13.8878472,12.3035016 11.9453374,14.2365162 9.54943974,14.2365162 C7.15288358,14.2365162 5.21103225,12.3037825 5.21103225,9.91847888 Z M7.17813727,9.91847888 C7.17813727,11.2224813 8.23928563,12.2786473 9.54943962,12.2786473 C10.8590204,12.2786473 11.920742,11.2221155 11.920742,9.91847888 C11.920742,8.61541279 10.8586528,7.55831044 9.54943962,7.55831044 C8.23965318,7.55831044 7.17813727,8.61504692 7.17813727,9.91847888 Z"></path>
                                    </g>
                                </g>
                            </g>
                        </g>
                    </g>
                </g>
            </g>
        </g>
    </g>
</svg>