<?xml version="1.0" encoding="UTF-8"?>
<svg width="170px" height="78px" viewBox="0 0 170 78" version="1.1" xmlns="http://www.w3.org/2000/svg" xmlns:xlink="http://www.w3.org/1999/xlink">
    <!-- Generator: sketchtool 51.2 (57519) - http://www.bohemiancoding.com/sketch -->
    <title>CAC1EF77-C3A5-4F13-9D65-D973C0374326</title>
    <desc>Created with sketchtool.</desc>
    <defs></defs>
    <g id="Main" stroke="none" stroke-width="1" fill="none" fill-rule="evenodd">
        <g id="Home" transform="translate(-445.000000, -1783.000000)" fill-rule="nonzero">
            <g id="mellon" transform="translate(445.000000, 1783.000000)">
                <g id="Group" transform="translate(0.515152, 26.860927)" fill="#F9F5EF">
                    <polygon id="Shape" points="28.3999008 31.153094 24.025809 31.153094 24.025809 7.27756704 23.9624163 7.27756704 14.5803062 19.1514922 13.8829872 19.1514922 4.43748451 7.27756704 4.37409187 7.27756704 4.37409187 31.153094 0 31.153094 0 0.510706459 4.12052133 0.510706459 14.1999504 13.086853 24.3427722 0.510706459 28.3999008 0.510706459"></polygon>
                    <polygon id="Shape" points="52.2355319 4.46868152 39.3034342 4.46868152 39.3034342 13.7252361 51.7283908 13.7252361 51.7283908 17.6832111 39.3034342 17.6832111 39.3034342 27.1951189 52.6158877 27.1951189 52.6158877 31.153094 34.9293423 31.153094 34.9293423 0.510706459 52.2355319 0.510706459"></polygon>
                    <polygon id="Shape" points="62.6953168 27.1951189 76.4515188 27.1951189 76.4515188 31.153094 58.321225 31.153094 58.321225 0.510706459 62.6953168 0.510706459"></polygon>
                    <polygon id="Shape" points="86.8479111 27.1951189 100.604113 27.1951189 100.604113 31.153094 82.4738192 31.153094 82.4738192 0.510706459 86.8479111 0.510706459"></polygon>
                    <path d="M119.368333,0.0638383074 C129.38437,0.0638383074 135.723633,7.27756704 135.723633,15.7680619 C135.723633,24.0670419 129.574548,31.4722855 119.241548,31.4722855 C109.288904,31.4722855 103.013033,24.0670419 103.013033,15.7680619 C103.013033,7.34140535 109.479082,0.0638383074 119.368333,0.0638383074 Z M119.368333,27.5143105 C126.214738,27.5143105 131.222756,22.5349225 131.222756,15.8319002 C131.222756,9.06503965 126.151345,4.14948998 119.368333,4.14948998 C112.585321,4.14948998 107.51391,9.06503965 107.51391,15.8319002 C107.51391,22.5349225 112.585321,27.5143105 119.368333,27.5143105 Z" id="Shape"></path>
                    <polygon id="Shape" points="169.258338 31.153094 165.518172 31.153094 145.169136 7.53292027 145.169136 31.153094 141.048615 31.153094 141.048615 0.510706459 144.53521 0.510706459 165.201209 24.2585568 165.201209 0.510706459 169.32173 0.510706459 169.32173 31.153094"></polygon>
                </g>
                <g id="Group" fill="#F9F5EF">
                    <polygon id="Shape" points="5.35984149 0.864300691 3.26814918 0.864300691 3.26814918 6.15637132 2.38076457 6.15637132 2.38076457 0.864300691 0.289072261 0.864300691 0.289072261 0.0991820465 5.35984149 0.0991820465"></polygon>
                    <polygon id="Shape" points="11.38138 6.15637132 10.4939953 6.15637132 10.4939953 3.54221595 7.07122611 3.54221595 7.07122611 6.2201312 6.18384149 6.2201312 6.18384149 0.0991820465 7.07122611 0.0991820465 7.07122611 2.7770973 10.4939953 2.7770973 10.4939953 0.0991820465 11.38138 0.0991820465"></polygon>
                    <polygon id="Shape" points="16.2619953 0.864300691 13.7266107 0.864300691 13.7266107 2.71333742 16.1986107 2.71333742 16.1986107 3.47845606 13.7266107 3.47845606 13.7266107 5.39125267 16.3887646 5.39125267 16.3887646 6.15637132 12.9026107 6.15637132 12.9026107 0.0991820465 16.32538 0.0991820465 16.32538 0.864300691"></polygon>
                    <path d="M6.05707226,17.633151 L5.16968765,17.633151 L4.34568765,15.8478742 L1.81030303,15.8478742 L1.04968765,17.633151 L0.16230303,17.633151 L2.76107226,11.5122018 L3.39491841,11.5122018 L6.05707226,17.633151 Z M2.12722611,15.0827555 L4.02876457,15.0827555 L3.07799534,12.8511595 L2.12722611,15.0827555 Z" id="Shape"></path>
                    <polygon id="Shape" points="12.3955338 17.633151 11.6349184 17.633151 7.64168765 12.9786792 7.64168765 17.6969109 6.81768765 17.6969109 6.81768765 11.5759617 7.51491841 11.5759617 11.6349184 16.2941934 11.6349184 11.5759617 12.4589184 11.5759617 12.4589184 17.633151"></polygon>
                    <path d="M13.85338,11.5759617 L16.1986107,11.5759617 C18.4170723,11.5759617 19.4312261,13.1699589 19.4312261,14.6364363 C19.4312261,16.2304335 18.2269184,17.6969109 16.1986107,17.6969109 L13.85338,17.6969109 L13.85338,11.5759617 L13.85338,11.5759617 Z M14.7407646,16.8680323 L16.0718415,16.8680323 C18.0367646,16.8680323 18.4804569,15.3377951 18.4804569,14.6364363 C18.4804569,13.4249984 17.7198415,12.4048402 16.0084569,12.4048402 L14.67738,12.4048402 L14.67738,16.8680323 L14.7407646,16.8680323 Z" id="Shape"></path>
                    <path d="M22.09338,11.5759617 C23.2976876,11.5759617 24.058303,12.2135606 24.058303,13.2974787 C24.058303,13.9988374 23.6779953,14.5089165 23.0441492,14.7639561 C23.6146107,15.1465154 23.9315338,15.7203544 24.3752261,16.4217131 C24.6287646,16.8680323 24.7555338,17.059312 25.1992261,17.633151 L24.1850723,17.633151 L23.3610723,16.3579532 C22.5370723,15.0827555 22.2201492,14.9552357 21.7764569,14.9552357 L21.3961492,14.9552357 L21.3961492,17.5693911 L20.5087646,17.5693911 L20.5087646,11.4484419 L22.09338,11.4484419 L22.09338,11.5759617 Z M21.4595338,14.1901171 L22.0299953,14.1901171 C22.9807646,14.1901171 23.234303,13.680038 23.234303,13.1699589 C23.234303,12.5961199 22.91738,12.2773205 22.0299953,12.2773205 L21.4595338,12.2773205 L21.4595338,14.1901171 Z" id="Shape"></path>
                    <polygon id="Shape" points="29.4459953 12.3410804 26.9106107 12.3410804 26.9106107 14.1901171 29.3826107 14.1901171 29.3826107 14.9552357 26.9106107 14.9552357 26.9106107 16.8680323 29.5727646 16.8680323 29.5727646 17.633151 26.0866107 17.633151 26.0866107 11.5122018 29.50938 11.5122018 29.50938 12.3410804"></polygon>
                    <polygon id="Shape" points="36.6718415 17.6969109 36.4816876 17.6969109 34.5167646 12.7236397 32.4884569 17.6969109 32.298303 17.6969109 29.826303 11.5759617 30.7136876 11.5759617 32.3616876 15.7841143 34.0096876 11.5759617 34.8336876 11.5759617 36.5450723 15.7841143 38.1930723 11.5759617 39.0804569 11.5759617"></polygon>
                    <polygon id="Shape" points="49.9826107 17.6969109 49.7924569 17.6969109 47.8275338 12.7236397 45.8626107 17.6969109 45.6724569 17.6969109 43.2004569 11.5759617 44.0878415 11.5759617 45.7358415 15.7841143 47.3838415 11.5759617 48.2078415 11.5759617 49.9192261 15.7841143 51.5672261 11.5759617 52.4546107 11.5759617"></polygon>
                    <path d="M52.898303,17.1868318 C52.898303,17.5056312 52.6447646,17.6969109 52.3912261,17.6969109 C52.1376876,17.6969109 51.8841492,17.4418713 51.8841492,17.1868318 C51.8841492,16.8680323 52.1376876,16.6767527 52.3912261,16.6767527 C52.6447646,16.6767527 52.898303,16.9317922 52.898303,17.1868318 Z" id="Shape"></path>
                </g>
                <polygon id="Shape" fill="#EF4B4B" points="24.6786735 27.3774834 28.8484848 27.3774834 28.8484848 28.7737721 14.9277301 45.9735099 14.0937679 45.9735099 11.8484848 43.1809326"></polygon>
                <g id="Group" transform="translate(86.545455, 68.701987)" fill="#F9F5EF">
                    <polygon id="Shape" points="4.78842072 1.42569536 1.43034326 1.42569536 1.43034326 3.78119205 4.78842072 3.78119205 4.78842072 4.89695364 1.43034326 4.89695364 1.43034326 8.80211921 0.163144224 8.80211921 0.163144224 0.37192053 4.78842072 0.37192053"></polygon>
                    <path d="M10.8076162,0.24794702 C13.658814,0.24794702 15.4328927,2.23152318 15.4328927,4.58701987 C15.4328927,6.8805298 13.658814,8.92609272 10.7442562,8.92609272 C7.89305837,8.92609272 6.11897971,6.8805298 6.11897971,4.58701987 C6.18233966,2.23152318 8.01977827,0.24794702 10.8076162,0.24794702 Z M10.8076162,7.81033113 C12.7717747,7.81033113 14.1656936,6.44662252 14.1656936,4.58701987 C14.1656936,2.72741722 12.7084147,1.36370861 10.8076162,1.36370861 C8.9068176,1.36370861 7.4495387,2.72741722 7.4495387,4.58701987 C7.4495387,6.44662252 8.84345765,7.81033113 10.8076162,7.81033113 Z" id="Shape"></path>
                    <path d="M24.4933658,5.45483444 C24.4933658,7.50039735 23.2261667,8.86410596 20.6284087,8.86410596 C18.7909701,8.86410596 17.0168915,7.87231788 17.0168915,5.57880795 L17.0168915,0.309933775 L18.2840905,0.309933775 L18.2840905,5.33086093 C18.2840905,6.26066225 18.4108104,6.69456954 18.7909701,7.06649007 C19.2978497,7.56238411 19.9314492,7.81033113 20.6284087,7.81033113 C21.578808,7.81033113 22.2757675,7.50039735 22.6559272,7.12847682 C23.0994468,6.69456954 23.2261667,6.07470199 23.2261667,5.26887417 L23.2261667,0.37192053 L24.4933658,0.37192053 L24.4933658,5.45483444 L24.4933658,5.45483444 Z" id="Shape"></path>
                    <polygon id="Shape" points="34.4408782 8.80211921 33.3637591 8.80211921 27.5980034 2.29350993 27.5980034 8.80211921 26.4575243 8.80211921 26.4575243 0.37192053 27.4712835 0.37192053 33.3003991 6.94251656 33.3003991 0.37192053 34.4408782 0.37192053"></polygon>
                    <path d="M36.6584766,0.37192053 L40.016554,0.37192053 C43.1845516,0.37192053 44.6418305,2.60344371 44.6418305,4.58701987 C44.6418305,6.75655629 42.9311118,8.80211921 40.079914,8.80211921 L36.7218365,8.80211921 L36.7218365,0.37192053 L36.6584766,0.37192053 Z M37.9256756,7.68635762 L39.8898341,7.68635762 C42.677672,7.68635762 43.3746315,5.57880795 43.3746315,4.52503311 C43.3746315,2.85139073 42.2975123,1.36370861 39.8264742,1.36370861 L37.9256756,1.36370861 L37.9256756,7.68635762 Z" id="Shape"></path>
                    <path d="M53.3221439,8.80211921 L52.0549449,8.80211921 L50.9144658,6.32264901 L47.2395886,6.32264901 L46.1624694,8.80211921 L44.8952703,8.80211921 L48.6335075,0.309933775 L49.5205468,0.309933775 L53.3221439,8.80211921 Z M47.6831082,5.20688742 L50.3442262,5.20688742 L48.9503073,2.16953642 L47.6831082,5.20688742 Z" id="Shape"></path>
                    <polygon id="Shape" points="59.784859 1.42569536 56.8069413 1.42569536 56.8069413 8.80211921 55.5397423 8.80211921 55.5397423 1.42569536 52.5618245 1.42569536 52.5618245 0.309933775 59.784859 0.309933775"></polygon>
                    <polygon id="Shape" points="62.509337 8.80211921 61.2421379 8.80211921 61.2421379 0.37192053 62.509337 0.37192053"></polygon>
                    <path d="M68.9720521,0.24794702 C71.8232499,0.24794702 73.5973286,2.23152318 73.5973286,4.58701987 C73.5973286,6.8805298 71.8232499,8.92609272 68.9086921,8.92609272 C66.0574943,8.92609272 64.2834156,6.8805298 64.2834156,4.58701987 C64.3467756,2.23152318 66.1842142,0.24794702 68.9720521,0.24794702 Z M68.9720521,7.81033113 C70.9362106,7.81033113 72.3301295,6.44662252 72.3301295,4.58701987 C72.3301295,2.72741722 70.8728506,1.36370861 68.9720521,1.36370861 C67.0712535,1.36370861 65.6139746,2.72741722 65.6139746,4.58701987 C65.6139746,6.44662252 67.0712535,7.81033113 68.9720521,7.81033113 Z" id="Shape"></path>
                    <polygon id="Shape" points="83.4181211 8.80211921 82.341002 8.80211921 76.5752463 2.29350993 76.5752463 8.80211921 75.4347672 8.80211921 75.4347672 0.37192053 76.4485264 0.37192053 82.277642 6.94251656 82.277642 0.37192053 83.4181211 0.37192053"></polygon>
                </g>
            </g>
        </g>
    </g>
</svg>