<?xml version="1.0" encoding="UTF-8"?>
<svg width="23px" height="26px" viewBox="0 0 23 26" version="1.1" xmlns="http://www.w3.org/2000/svg" xmlns:xlink="http://www.w3.org/1999/xlink">
    <!-- Generator: sketchtool 50.2 (55047) - http://www.bohemiancoding.com/sketch -->
    <title>607E2561-1E5F-4A68-892A-78CE8855A6A7</title>
    <desc>Created with sketchtool.</desc>
    <defs></defs>
    <g id="Stories" stroke="none" stroke-width="1" fill="none" fill-rule="evenodd" opacity="0.249999985" stroke-linecap="round" stroke-linejoin="round">
        <g id="Single-Story" transform="translate(-407.000000, -3008.000000)" fill-rule="nonzero" stroke="#253449">
            <g id="Places" transform="translate(408.000000, 3009.000000)">
                <path d="M10.326654,0 C4.62289312,0 0,4.64490838 0,10.3758319 C0,13.5392926 1.41771747,16.3677181 3.64069846,18.2708086 L3.63502759,18.2765065 L10.326654,25 L17.0182805,18.2765065 L17.0126096,18.2708086 C19.2355906,16.3677181 20.6521739,13.5392926 20.6521739,10.3758319 C20.6521739,4.64490838 16.0292808,0 10.326654,0 Z" id="Shape" fill="#ECEAE5"></path>
                <path d="M6.52173913,10.326087 C6.52173913,8.22548099 8.22441415,6.52173913 10.326087,6.52173913 C12.4266929,6.52173913 14.1304348,8.22548099 14.1304348,10.326087 C14.1304348,12.4277598 12.4266929,14.1304348 10.326087,14.1304348 C8.22441415,14.1304348 6.52173913,12.4277598 6.52173913,10.326087 Z" id="Shape" fill="#F9F5EF"></path>
            </g>
        </g>
    </g>
</svg>