<?xml version="1.0" encoding="UTF-8"?>
<svg width="46px" height="26px" viewBox="0 0 46 26" version="1.1" xmlns="http://www.w3.org/2000/svg" xmlns:xlink="http://www.w3.org/1999/xlink">
    <!-- Generator: sketchtool 51.3 (57544) - http://www.bohemiancoding.com/sketch -->
    <title>7410C79A-FCAB-4198-8FC4-544D868FEB3E</title>
    <desc>Created with sketchtool.</desc>
    <defs></defs>
    <g id="Explore---People---Full-Record" stroke="none" stroke-width="1" fill="none" fill-rule="evenodd">
        <g id="People---Full-Record" transform="translate(-181.000000, -2909.000000)">
            <g id="Group-5" transform="translate(115.000000, 2863.000000)">
                <g id="Twitter-Button-Small" transform="translate(66.000000, 46.000000)">
                    <rect id="Rectangle-31" fill="#59ADEB" x="0" y="0" width="46" height="26" rx="3"></rect>
                    <path d="M33,6.8939622 C32.2641748,7.21527728 31.4733495,7.43246601 30.6433495,7.52999785 C31.4903883,7.03010537 32.1411165,6.2385731 32.4474272,5.29531933 C31.6545631,5.75822522 30.7764563,6.09435405 29.8417961,6.27546412 C29.0933495,5.49043079 28.0269417,5 26.8467476,5 C24.1982039,5 22.2512136,7.43308723 22.8498058,9.95959668 C19.4396117,9.79119776 16.4161165,8.18304542 14.3923786,5.73939741 C13.3175243,7.55446444 13.8348544,9.92982582 15.6621845,11.1320813 C14.9896602,11.1111509 14.3567961,10.9294196 13.8036893,10.626789 C13.7591748,12.4981961 15.1214563,14.2480826 17.0947087,14.6384011 C16.517233,14.7930853 15.8847087,14.828495 15.2417961,14.7075478 C15.763835,16.3122118 17.2792718,17.4800134 19.0748058,17.5125559 C17.3497087,18.8433565 15.1769903,19.4377703 13,19.1852197 C14.8158252,20.3312307 16.9726699,21 19.2898544,21 C26.9079126,21 31.2119417,14.6658782 30.9525243,8.98485174 C31.7543204,8.41538241 32.4499029,7.70398777 33,6.8939622 L33,6.8939622 Z" id="twitter-icon" fill="#FFFFFF"></path>
                </g>
            </g>
        </g>
    </g>
</svg>