<?xml version="1.0" encoding="UTF-8"?>
<svg width="128px" height="96px" viewBox="0 0 128 96" version="1.1" xmlns="http://www.w3.org/2000/svg" xmlns:xlink="http://www.w3.org/1999/xlink">
    <!-- Generator: sketchtool 51.1 (57501) - http://www.bohemiancoding.com/sketch -->
    <title>1B8166D0-09BC-4091-AC4B-9C3EC06C09F0</title>
    <desc>Created with sketchtool.</desc>
    <defs>
        <filter x="-74.3%" y="-105.3%" width="248.6%" height="373.7%" filterUnits="objectBoundingBox" id="filter-1">
            <feOffset dx="0" dy="12" in="SourceAlpha" result="shadowOffsetOuter1"></feOffset>
            <feGaussianBlur stdDeviation="15" in="shadowOffsetOuter1" result="shadowBlurOuter1"></feGaussianBlur>
            <feColorMatrix values="0 0 0 0 0.0710264264   0 0 0 0 0.180718126   0 0 0 0 0.274739583  0 0 0 0.539515399 0" type="matrix" in="shadowBlurOuter1" result="shadowMatrixOuter1"></feColorMatrix>
            <feMerge>
                <feMergeNode in="shadowMatrixOuter1"></feMergeNode>
                <feMergeNode in="SourceGraphic"></feMergeNode>
            </feMerge>
        </filter>
    </defs>
    <g id="Symbols" stroke="none" stroke-width="1" fill="none" fill-rule="evenodd" stroke-linecap="round" stroke-linejoin="round">
        <g id="ByData" transform="translate(-59.000000, -36.000000)" stroke="#FBF9F5">
            <g filter="url(#filter-1)" transform="translate(88.000000, 53.000000)" id="Shape">
                <path d="M26,8 L44,31"></path>
                <path d="M8,31 L26,8"></path>
                <path d="M45,31 L63,8"></path>
                <path d="M0,30.5 C0,26.3575991 3.58260543,23 8.00075139,23 C12.4173946,23 16,26.3575991 16,30.5 C16,34.6424009 12.4173946,38 8.00075139,38 C3.58260543,38 0,34.6424009 0,30.5 Z" fill="#586B7C" fill-rule="nonzero"></path>
                <path d="M54,7.5 C54,3.3575991 57.5826054,0 61.9992486,0 C66.4173946,0 70,3.3575991 70,7.5 C70,11.6424009 66.4173946,15 61.9992486,15 C57.5826054,15 54,11.6424009 54,7.5 Z" fill="#586B7C" fill-rule="nonzero"></path>
                <path d="M18,7.5 C18,3.3575991 21.581439,0 26,0 C30.418561,0 34,3.3575991 34,7.5 C34,11.6424009 30.418561,15 26,15 C21.581439,15 18,11.6424009 18,7.5 Z" fill="#586B7C" fill-rule="nonzero"></path>
                <path d="M36,30.5 C36,26.3575991 39.581439,23 44,23 C48.418561,23 52,26.3575991 52,30.5 C52,34.6424009 48.418561,38 44,38 C39.581439,38 36,34.6424009 36,30.5 Z" fill="#586B7C" fill-rule="nonzero"></path>
            </g>
        </g>
    </g>
</svg>