<?xml version="1.0" encoding="UTF-8"?>
<svg width="82px" height="35px" viewBox="0 0 82 35" version="1.1" xmlns="http://www.w3.org/2000/svg" xmlns:xlink="http://www.w3.org/1999/xlink">
    <!-- Generator: Sketch 62 (91390) - https://sketch.com -->
    <title>CC-BY</title>
    <desc>Created with Sketch.</desc>
    <g id="Main" stroke="none" stroke-width="1" fill="none" fill-rule="evenodd">
        <g id="-Full-Record" transform="translate(-324.000000, -2912.000000)">
            <g id="Copyright" transform="translate(324.000000, 2877.000000)">
                <g id="CC-BY" transform="translate(0.000000, 35.000000)">
                    <g id="Group-6" transform="translate(47.523810, 0.000000)">
                        <ellipse id="Oval" fill="#FFFFFF" cx="17.1828966" cy="17.3955385" rx="15.1185109" ry="15.2255385"></ellipse>
                        <path d="M17.0791694,5.5067062e-14 C21.8848411,5.5067062e-14 25.9387579,1.66115385 29.2387808,4.98453846 C32.5580521,8.32838462 34.2192918,12.4104615 34.2192918,17.2307692 C34.2192918,22.0720769 32.5890634,26.1024615 29.3296758,29.3224615 C25.8671112,32.7486923 21.7837873,34.4615385 17.0791694,34.4615385 C12.4547529,34.4615385 8.4425409,32.7686154 5.0414641,29.3838462 C1.68102271,25.9990769 -3.99680289e-13,21.9487692 -3.99680289e-13,17.2307692 C-3.99680289e-13,12.5133077 1.68102271,8.43123077 5.0414641,4.98507692 C8.34148706,1.66115385 12.3531643,5.5067062e-14 17.0791694,5.5067062e-14 L17.0791694,5.5067062e-14 Z M17.1401225,3.108 C13.2498167,3.108 9.9604873,4.48269231 7.27159951,7.231 C4.48058852,10.1031538 3.0856177,13.4367692 3.0856177,17.2313077 C3.0856177,21.0468462 4.47042967,24.3497692 7.2400536,27.1379231 C10.0102122,29.9282308 13.3097005,31.3223077 17.1390531,31.3223077 C20.9475534,31.3223077 24.2684287,29.9185385 27.0995404,27.1072308 C29.7884282,24.5021538 31.1326048,21.21 31.1326048,17.2302308 C31.1326048,13.3123846 29.7675758,9.97984615 27.039122,7.23046154 C24.3101335,4.48215385 21.0101105,3.108 17.1401225,3.108 L17.1401225,3.108 Z M21.7233689,12.9537692 L21.7233689,19.9995385 L19.7685918,19.9995385 L19.7685918,28.3683077 L14.4517694,28.3683077 L14.4517694,20.0000769 L12.4969923,20.0000769 L12.4969923,12.9537692 C12.4969923,12.6457692 12.6039276,12.3846154 12.8172635,12.1692308 C13.0316687,11.9543846 13.2915215,11.8461538 13.5962871,11.8461538 L20.6240741,11.8461538 C20.9090567,11.8461538 21.1640973,11.9538462 21.3875921,12.1692308 C21.6105521,12.3846154 21.7233689,12.6463077 21.7233689,12.9537692 L21.7233689,12.9537692 Z M14.7260584,8.52330769 C14.7260584,6.90361538 15.5200529,6.09269231 17.1096459,6.09269231 C18.6992389,6.09269231 19.4926988,6.90253846 19.4926988,8.52330769 C19.4926988,10.1230769 18.6981696,10.9232308 17.1096459,10.9232308 C15.5211222,10.9232308 14.7260584,10.1230769 14.7260584,8.52330769 L14.7260584,8.52330769 Z" id="Shape" fill="#000000"></path>
                    </g>
                    <g id="Group-11">
                        <ellipse id="Oval" fill="#FFFFFF" cx="17.2620287" cy="17.2313077" rx="15.4179297" ry="15.5270769"></ellipse>
                        <path d="M17.0781,-1.19015908e-13 C21.8639888,-1.19015908e-13 25.9387579,1.68269231 29.2991993,5.04646154 C30.907506,6.66669231 32.130311,8.51846154 32.9654756,10.6001538 C33.8001055,12.6823846 34.2187571,14.8922308 34.2187571,17.2307692 C34.2187571,19.5897692 33.8054523,21.8001538 32.9815159,23.8608462 C32.1565101,25.9220769 30.9390519,27.7431538 29.3307452,29.3224615 C27.6609507,30.9836154 25.7665921,32.256 23.6476694,33.138 C21.529816,34.02 19.3397813,34.461 17.0791694,34.461 C14.8185574,34.461 12.6541872,34.0259231 10.5865934,33.1530769 C8.51953431,32.2818462 6.66581111,31.0202308 5.02595849,29.3693077 C3.38610586,27.7183846 2.13870574,25.8563846 1.28322344,23.7843846 C0.427741148,21.7123846 3.41060513e-13,19.5283846 3.41060513e-13,17.2307692 C3.41060513e-13,14.9536154 0.432553236,12.7642308 1.29819438,10.6615385 C2.16383553,8.55884615 3.42192918,6.67692308 5.07140598,5.01523077 C8.33025885,1.67246154 12.332312,-1.19015908e-13 17.0781,-1.19015908e-13 L17.0781,-1.19015908e-13 Z M17.1401225,3.108 C13.229499,3.108 9.93963492,4.48269231 7.27106484,7.231 C5.9263536,8.60569231 4.89282405,10.1489231 4.16994151,11.8617692 C3.44598962,13.5746154 3.08508303,15.3644615 3.08508303,17.2313077 C3.08508303,19.0776923 3.44598962,20.8573077 4.16994151,22.5690769 C4.89335873,24.283 5.9263536,25.8111538 7.27106484,27.1546154 C8.61524139,28.4986154 10.1321184,29.5233077 11.8238347,30.2319231 C13.5139469,30.9394615 15.2863993,31.2932308 17.1401225,31.2932308 C18.9729933,31.2932308 20.7491884,30.9351538 22.4724505,30.2168462 C24.193574,29.498 25.745205,28.4630769 27.1310863,27.1093846 C29.7991217,24.4838462 31.1326048,21.1916923 31.1326048,17.2318462 C31.1326048,15.3240769 30.7861344,13.5191538 30.0937284,11.8165385 C29.4023918,10.1139231 28.3934574,8.59653846 27.0706679,7.26223077 C24.319223,4.49292308 21.0101105,3.108 17.1401225,3.108 L17.1401225,3.108 Z M16.9257172,14.3699231 L14.6335593,15.5701538 C14.3886775,15.0580769 14.0887241,14.6983846 13.7326295,14.4932308 C13.3760004,14.2886154 13.0450357,14.1857692 12.7392007,14.1857692 C11.2121648,14.1857692 10.4475775,15.2007692 10.4475775,17.2318462 C10.4475775,18.1547692 10.6411304,18.8924615 11.0277015,19.4465385 C11.4148072,20.0006154 11.985307,20.2779231 12.7392007,20.2779231 C13.7374416,20.2779231 14.4400065,19.7852308 14.8479646,18.8009231 L16.9556591,19.8778462 C16.5076002,20.7194615 15.8863062,21.3806923 15.091777,21.8626154 C14.2983172,22.3450769 13.4219825,22.5857692 12.464377,22.5857692 C10.9368065,22.5857692 9.70384261,22.1146154 8.7670895,21.1701538 C7.83033639,20.2267692 7.36195983,18.914 7.36195983,17.2323846 C7.36195983,15.5911538 7.83568315,14.2891538 8.78259512,13.3247692 C9.72950708,12.3609231 10.9261129,11.8784615 12.3729474,11.8784615 C14.4918701,11.8773846 16.0087471,12.7082308 16.9257172,14.3699231 L16.9257172,14.3699231 Z M26.7942402,14.3699231 L24.5330935,15.5701538 C24.2887464,15.0580769 23.9877236,14.6983846 23.6316291,14.4932308 C23.2744652,14.2886154 22.932807,14.1857692 22.6082584,14.1857692 C21.0806878,14.1857692 20.3161005,15.2007692 20.3161005,17.2318462 C20.3161005,18.1547692 20.510188,18.8924615 20.8967591,19.4465385 C21.2833302,20.0006154 21.8532952,20.2779231 22.6082584,20.2779231 C23.6054299,20.2779231 24.3085294,19.7852308 24.7154182,18.8009231 L26.8541239,19.8778462 C26.3862821,20.7194615 25.7542945,21.3806923 24.9608347,21.8626154 C24.1663055,22.3450769 23.3006643,22.5857692 22.3639112,22.5857692 C20.8154883,22.5857692 19.5787817,22.1146154 18.6527221,21.1701538 C17.7245238,20.2267692 17.261494,18.914 17.261494,17.2323846 C17.261494,15.5911538 17.7346827,14.2891538 18.682664,13.3247692 C19.6290413,12.3609231 20.8256471,11.8784615 22.2719469,11.8784615 C24.3903349,11.8773846 25.8986571,12.7082308 26.7942402,14.3699231 L26.7942402,14.3699231 Z" id="Shape" fill="#000000"></path>
                    </g>
                </g>
            </g>
        </g>
    </g>
</svg>