<?xml version="1.0" encoding="UTF-8"?>
<svg width="70px" height="33px" viewBox="0 0 70 33" version="1.1" xmlns="http://www.w3.org/2000/svg" xmlns:xlink="http://www.w3.org/1999/xlink">
    <!-- Generator: sketchtool 54.1 (76490) - https://sketchapp.com -->
    <title>D137F94B-D031-45B3-BFC0-426518009102</title>
    <desc>Created with sketchtool.</desc>
    <g id="Explore---People---Full-Record" stroke="none" stroke-width="1" fill="none" fill-rule="evenodd" opacity="0.8">
        <g id="People---Full-Record" transform="translate(-107.000000, -1114.000000)" fill-rule="nonzero">
            <g id="ccby4" transform="translate(107.000000, 1114.000000)">
                <g id="cc">
                    <ellipse id="Oval" cx="16.3925" cy="16.5005077" rx="14.418" ry="14.6398154"></ellipse>
                    <path d="M16.2205,0.253846154 C20.696,0.253846154 24.5065,1.84038462 27.649,5.01193846 C29.153,6.53958462 30.2965,8.28553846 31.0775,10.2482769 C31.858,12.2115231 32.2495,14.2950923 32.2495,16.5 C32.2495,18.7242 31.863,20.8082769 31.0925,22.7512154 C30.321,24.6946615 29.1825,26.4116769 27.6785,27.9007385 C26.117,29.4669692 24.3455,30.6666462 22.364,31.4982462 C20.3835,32.3298462 18.3355,32.7456462 16.2215,32.7456462 C14.1075,32.7456462 12.0835,32.3354308 10.15,31.5124615 C8.217,30.6910154 6.4835,29.5014923 4.95,27.9449077 C3.4165,26.3883231 2.25,24.6327231 1.45,22.6791231 C0.65,20.7255231 0.25,18.6663231 0.25,16.5 C0.25,14.3529692 0.6545,12.2886923 1.464,10.3061538 C2.2735,8.32361538 3.45,6.54923077 4.9925,4.98249231 C8.04,1.83073846 11.7825,0.253846154 16.2205,0.253846154 Z M16.2785,3.18424615 C12.6215,3.18424615 9.545,4.48038462 7.0495,7.07164615 C5.792,8.36778462 4.8255,9.82283077 4.1495,11.4378 C3.4725,13.0527692 3.135,14.7403385 3.135,16.5005077 C3.135,18.2413846 3.4725,19.9193077 4.1495,21.5332615 C4.826,23.1492462 5.792,24.5900769 7.0495,25.8567692 C8.3065,27.1239692 9.725,28.0901077 11.307,28.7582308 C12.8875,29.4253385 14.545,29.7588923 16.2785,29.7588923 C17.9925,29.7588923 19.6535,29.4212769 21.265,28.7440154 C22.8745,28.0662462 24.3255,27.0904615 25.6215,25.8141231 C28.1165,23.3386154 29.3635,20.2345846 29.3635,16.5010154 C29.3635,14.7022615 29.0395,13.0004769 28.392,11.3951538 C27.7455,9.78983077 26.802,8.35915385 25.565,7.10109231 C22.992,4.49003077 19.8975,3.18424615 16.2785,3.18424615 Z M16.078,13.8026308 L13.9345,14.9342769 C13.7055,14.4514615 13.425,14.1123231 13.092,13.9188923 C12.7585,13.7259692 12.449,13.629 12.163,13.629 C10.735,13.629 10.02,14.586 10.02,16.5010154 C10.02,17.3712 10.201,18.0667385 10.5625,18.5891538 C10.9245,19.1115692 11.458,19.3730308 12.163,19.3730308 C13.0965,19.3730308 13.7535,18.9084923 14.135,17.9804308 L16.106,18.9958154 C15.687,19.7893385 15.106,20.4127846 14.363,20.8671692 C13.621,21.3220615 12.8015,21.549 11.906,21.549 C10.4775,21.549 9.3245,21.1047692 8.4485,20.2142769 C7.5725,19.3248 7.1345,18.0870462 7.1345,16.5015231 C7.1345,14.9540769 7.5775,13.7264769 8.463,12.8172 C9.3485,11.9084308 10.4675,11.4535385 11.8205,11.4535385 C13.802,11.4525231 15.2205,12.2358923 16.078,13.8026308 Z M25.3065,13.8026308 L23.192,14.9342769 C22.9635,14.4514615 22.682,14.1123231 22.349,13.9188923 C22.015,13.7259692 21.6955,13.629 21.392,13.629 C19.9635,13.629 19.2485,14.586 19.2485,16.5010154 C19.2485,17.3712 19.43,18.0667385 19.7915,18.5891538 C20.153,19.1115692 20.686,19.3730308 21.392,19.3730308 C22.3245,19.3730308 22.982,18.9084923 23.3625,17.9804308 L25.3625,18.9958154 C24.925,19.7893385 24.334,20.4127846 23.592,20.8671692 C22.849,21.3220615 22.0395,21.549 21.1635,21.549 C19.7155,21.549 18.559,21.1047692 17.693,20.2142769 C16.825,19.3248 16.392,18.0870462 16.392,16.5015231 C16.392,14.9540769 16.8345,13.7264769 17.721,12.8172 C18.606,11.9084308 19.725,11.4535385 21.0775,11.4535385 C23.0585,11.4525231 24.469,12.2358923 25.3065,13.8026308 Z" id="Shape" fill="#122E46"></path>
                </g>
                <g id="by" transform="translate(37.500000, 0.000000)">
                    <ellipse id="Oval" cx="16.3185" cy="16.6553538" rx="14.138" ry="14.3555077"></ellipse>
                    <path d="M16.2215,0.253846154 C20.7155,0.253846154 24.5065,1.82007692 27.5925,4.95355385 C30.6965,8.10632308 32.25,11.9551385 32.25,16.5 C32.25,21.0646615 30.7255,24.8647385 27.6775,27.9007385 C24.4395,31.1311846 20.621,32.7461538 16.2215,32.7461538 C11.897,32.7461538 8.145,31.1499692 4.9645,27.9586154 C1.822,24.7672615 0.25,20.9484 0.25,16.5 C0.25,12.0521077 1.822,8.20329231 4.9645,4.95406154 C8.0505,1.82007692 11.802,0.253846154 16.2215,0.253846154 Z M16.2785,3.18424615 C12.6405,3.18424615 9.5645,4.48038462 7.05,7.07164615 C4.44,9.77967692 3.1355,12.9228 3.1355,16.5005077 C3.1355,20.0980154 4.4305,23.2122 7.0205,25.8410308 C9.611,28.4718923 12.6965,29.7863077 16.2775,29.7863077 C19.839,29.7863077 22.9445,28.4627538 25.592,25.8120923 C28.1065,23.3558769 29.3635,20.2518462 29.3635,16.4994923 C29.3635,12.8055231 28.087,9.66341538 25.5355,7.07113846 C22.9835,4.47987692 19.8975,3.18424615 16.2785,3.18424615 Z M20.5645,12.4674 L20.5645,19.1105538 L18.7365,19.1105538 L18.7365,27.0011077 L13.7645,27.0011077 L13.7645,19.1110615 L11.9365,19.1110615 L11.9365,12.4674 C11.9365,12.177 12.0365,11.9307692 12.236,11.7276923 C12.4365,11.5251231 12.6795,11.4230769 12.9645,11.4230769 L19.5365,11.4230769 C19.803,11.4230769 20.0415,11.5246154 20.2505,11.7276923 C20.459,11.9307692 20.5645,12.1775077 20.5645,12.4674 Z M14.021,8.29010769 C14.021,6.76296923 14.7635,5.99838462 16.25,5.99838462 C17.7365,5.99838462 18.4785,6.76195385 18.4785,8.29010769 C18.4785,9.79846154 17.7355,10.5528923 16.25,10.5528923 C14.7645,10.5528923 14.021,9.79846154 14.021,8.29010769 Z" id="Shape" fill="#122E46"></path>
                </g>
            </g>
        </g>
    </g>
</svg>