<?xml version="1.0" encoding="UTF-8"?>
<svg width="58px" height="32px" viewBox="0 0 58 32" version="1.1" xmlns="http://www.w3.org/2000/svg" xmlns:xlink="http://www.w3.org/1999/xlink">
    <!-- Generator: sketchtool 63.1 (101010) - https://sketch.com -->
    <title>9838E138-8BD2-4111-A5DC-ED4741C75800</title>
    <desc>Created with sketchtool.</desc>
    <g id="Main" stroke="none" stroke-width="1" fill="none" fill-rule="evenodd" stroke-linecap="round" stroke-linejoin="round">
        <g id="Visualize" transform="translate(-763.000000, -588.000000)" stroke="#0E3232" stroke-width="2">
            <g id="ByData" transform="translate(669.000000, 540.000000)">
                <g transform="translate(95.000000, 49.000000)" id="Shape">
                    <line x1="20.5263158" y1="6.31578947" x2="34.7368421" y2="24.4736842"></line>
                    <line x1="6.31578947" y1="24.4736842" x2="20.5263158" y2="6.31578947"></line>
                    <line x1="35.5263158" y1="24.4736842" x2="49.7368421" y2="6.31578947"></line>
                    <path d="M0,24.0789474 C0,20.8086309 2.82837271,18.1578947 6.31638267,18.1578947 C9.80320624,18.1578947 12.6315789,20.8086309 12.6315789,24.0789474 C12.6315789,27.3492639 9.80320624,30 6.31638267,30 C2.82837271,30 0,27.3492639 0,24.0789474 Z" fill="#FFFFFF" fill-rule="nonzero"></path>
                    <path d="M42.6315789,5.92105263 C42.6315789,2.65073613 45.4599517,0 48.9467752,0 C52.4347852,0 55.2631579,2.65073613 55.2631579,5.92105263 C55.2631579,9.19136913 52.4347852,11.8421053 48.9467752,11.8421053 C45.4599517,11.8421053 42.6315789,9.19136913 42.6315789,5.92105263 Z" fill="#FFFFFF" fill-rule="nonzero"></path>
                    <path d="M14.2105263,5.92105263 C14.2105263,2.65073613 17.0379782,0 20.5263158,0 C24.0146534,0 26.8421053,2.65073613 26.8421053,5.92105263 C26.8421053,9.19136913 24.0146534,11.8421053 20.5263158,11.8421053 C17.0379782,11.8421053 14.2105263,9.19136913 14.2105263,5.92105263 Z" fill="#FFFFFF" fill-rule="nonzero"></path>
                    <path d="M28.4210526,24.0789474 C28.4210526,20.8086309 31.2485045,18.1578947 34.7368421,18.1578947 C38.2251797,18.1578947 41.0526316,20.8086309 41.0526316,24.0789474 C41.0526316,27.3492639 38.2251797,30 34.7368421,30 C31.2485045,30 28.4210526,27.3492639 28.4210526,24.0789474 Z" fill="#FFFFFF" fill-rule="nonzero"></path>
                </g>
            </g>
        </g>
    </g>
</svg>
