<?xml version="1.0" encoding="UTF-8"?>
<svg width="35px" height="20px" viewBox="0 0 35 20" version="1.1" xmlns="http://www.w3.org/2000/svg" xmlns:xlink="http://www.w3.org/1999/xlink">
    <!-- Generator: sketchtool 51.1 (57501) - http://www.bohemiancoding.com/sketch -->
    <title>D4446824-A99D-4698-88E3-255B8BC9B4E8</title>
    <desc>Created with sketchtool.</desc>
    <defs></defs>
    <g id="Home" stroke="none" stroke-width="1" fill="none" fill-rule="evenodd" stroke-linecap="round" stroke-linejoin="round">
        <g transform="translate(-579.000000, -1215.000000)" id="data" stroke="#000000">
            <g transform="translate(580.000000, 1216.000000)">
                <path d="M13,4 L22,15" id="Shape"></path>
                <path d="M4,15 L13,4" id="Shape"></path>
                <path d="M21,15 L30,4" id="Shape"></path>
                <path d="M0,14.5 C0,12.5668796 1.56738988,11 3.50032873,11 C5.43261012,11 7,12.5668796 7,14.5 C7,16.4331204 5.43261012,18 3.50032873,18 C1.56738988,18 0,16.4331204 0,14.5 Z" id="Shape" fill="#FAF7F4" fill-rule="nonzero"></path>
                <path d="M26,3.5 C26,1.56687958 27.5673899,0 29.4996713,0 C31.4326101,0 33,1.56687958 33,3.5 C33,5.43312042 31.4326101,7 29.4996713,7 C27.5673899,7 26,5.43312042 26,3.5 Z" id="Shape" fill="#FAF7F4" fill-rule="nonzero"></path>
                <path d="M9,3.5 C9,1.56687958 10.5668796,0 12.5,0 C14.4331204,0 16,1.56687958 16,3.5 C16,5.43312042 14.4331204,7 12.5,7 C10.5668796,7 9,5.43312042 9,3.5 Z" id="Shape" fill="#FAF7F4" fill-rule="nonzero"></path>
                <path d="M18,14.5 C18,12.5668796 19.5668796,11 21.5,11 C23.4331204,11 25,12.5668796 25,14.5 C25,16.4331204 23.4331204,18 21.5,18 C19.5668796,18 18,16.4331204 18,14.5 Z" id="Shape" fill="#FAF7F4" fill-rule="nonzero"></path>
            </g>
        </g>
    </g>
</svg>