<?xml version="1.0" encoding="UTF-8"?>
<svg width="21px" height="20px" viewBox="0 0 21 20" version="1.1" xmlns="http://www.w3.org/2000/svg" xmlns:xlink="http://www.w3.org/1999/xlink">
    <!-- Generator: Sketch 56.2 (81672) - https://sketch.com -->
    <title>Events</title>
    <desc>Created with Sketch.</desc>
    <g id="Main" stroke="none" stroke-width="1" fill="none" fill-rule="evenodd">
        <g id="Home" transform="translate(-564.000000, -761.000000)" fill="#0E3232" fill-rule="nonzero">
            <g id="Explore" transform="translate(0.000000, 622.000000)">
                <g id="Explore-Buttons" transform="translate(537.000000, 50.000000)">
                    <g id="Events" transform="translate(27.000000, 89.000000)">
                        <g transform="translate(0.000000, -0.000000)" id="Combined-Shape">
                            <path d="M14.0560641,1.9047619 L14.0560641,1 C14.0560641,0.44771525 14.5078774,4.4408921e-15 15.0652174,4.4408921e-15 C15.6225574,4.4408921e-15 16.0743707,0.44771525 16.0743707,1 L16.0743707,1.9047619 L19.9871264,1.9047619 C20.546521,1.9047619 21,2.34900469 21,2.90044557 L21,6.33764966 C21,6.36821228 20.9985848,6.39845329 20.9958165,6.42831402 C20.9985853,6.45813876 21,6.4883268 21,6.51881672 L21,19.0049928 C21,19.5545201 20.5418552,20 19.9871264,20 L1.01287365,20 C0.453478979,20 4.26325641e-14,19.5508823 4.26325641e-14,19.0049928 L4.26325641e-14,6.51881672 C4.26325641e-14,6.48840634 0.00140303343,6.45831459 0.00414782589,6.42859934 C0.0014025359,6.39865298 4.26325641e-14,6.36831709 4.26325641e-14,6.33764966 L4.26325641e-14,2.90044557 C4.26325641e-14,2.35054467 0.458144769,1.9047619 1.01287365,1.9047619 L5.38215103,1.9047619 L5.38215103,1 C5.38215103,0.44771525 5.83396436,4.4408921e-15 6.39130435,4.4408921e-15 C6.94864434,4.4408921e-15 7.40045767,0.44771525 7.40045767,1 L7.40045767,1.9047619 L14.0560641,1.9047619 Z M16.0743707,3.9047619 L16.0743707,3.94224319 C16.0743707,4.49452794 15.6225574,4.94224319 15.0652174,4.94224319 C14.5078774,4.94224319 14.0560641,4.49452794 14.0560641,3.94224319 L14.0560641,3.9047619 L7.40045767,3.9047619 L7.40045767,3.94224319 C7.40045767,4.49452794 6.94864434,4.94224319 6.39130435,4.94224319 C5.83396436,4.94224319 5.38215103,4.49452794 5.38215103,3.94224319 L5.38215103,3.9047619 L2.01830664,3.9047619 L2.01830664,5.33333333 L18.9816934,5.33333333 L18.9816934,3.9047619 L16.0743707,3.9047619 Z M2.01830664,7.52380952 L2.01830664,18 L18.9816934,18 L18.9816934,7.52380952 L2.01830664,7.52380952 Z M14.326087,12.8571429 L15.826087,12.8571429 C16.3783717,12.8571429 16.826087,13.3048581 16.826087,13.8571429 L16.826087,15.3571429 C16.826087,15.9094276 16.3783717,16.3571429 15.826087,16.3571429 L14.326087,16.3571429 C13.7738022,16.3571429 13.326087,15.9094276 13.326087,15.3571429 L13.326087,13.8571429 C13.326087,13.3048581 13.7738022,12.8571429 14.326087,12.8571429 Z"></path>
                        </g>
                    </g>
                </g>
            </g>
        </g>
    </g>
</svg>