<?xml version="1.0" encoding="UTF-8"?>
<svg width="21px" height="20px" viewBox="0 0 21 20" version="1.1" xmlns="http://www.w3.org/2000/svg" xmlns:xlink="http://www.w3.org/1999/xlink">
    <!-- Generator: sketchtool 57.1 (101010) - https://sketch.com -->
    <title>48D171FB-A0CE-4063-AB4D-F8D82A2CFBDD</title>
    <desc>Created with sketchtool.</desc>
    <g id="Main" stroke="none" stroke-width="1" fill="none" fill-rule="evenodd">
        <g id="Home" transform="translate(-564.000000, -761.000000)" fill="#0E3232" fill-rule="nonzero">
            <g id="Explore" transform="translate(0.000000, 622.000000)">
                <g id="Explore-Buttons" transform="translate(537.000000, 50.000000)">
                    <g id="Events" transform="translate(27.000000, 89.000000)">
                        <g transform="translate(0.000000, -0.000000)" id="Combined-Shape">
                            <path d="M14.9475288,0.00672773133 L15.0652174,4.4408921e-15 C15.5827474,4.4408921e-15 16.0092875,0.38604019 16.0675814,0.883378875 L16.0743707,1 L16.074,1.904 L19.9871264,1.9047619 C20.546521,1.9047619 21,2.34900469 21,2.90044557 L21,6.33764966 L20.9958095,6.42823878 C20.9985829,6.45808799 21,6.48830116 21,6.51881672 L21,19.0049928 C21,19.5545201 20.5418552,20 19.9871264,20 L1.01287365,20 C0.453478979,20 4.26325641e-14,19.5508823 4.26325641e-14,19.0049928 L4.26325641e-14,6.51881672 L0.00413928354,6.42850611 C0.00139962648,6.39859001 4.26325641e-14,6.36828527 4.26325641e-14,6.33764966 L4.26325641e-14,2.90044557 C4.26325641e-14,2.35054467 0.458144769,1.9047619 1.01287365,1.9047619 L5.382,1.904 L5.38215103,1 C5.38215103,0.487164161 5.77172477,0.0644928393 6.27361575,0.00672773133 L6.39130435,4.4408921e-15 C6.90883434,4.4408921e-15 7.3353745,0.38604019 7.39366835,0.883378875 L7.40045767,1 L7.4,1.904 L14.056,1.904 L14.0560641,1 C14.0560641,0.487164161 14.4456378,0.0644928393 14.9475288,0.00672773133 L15.0652174,4.4408921e-15 Z M18.9816934,7.52380952 L2.01830664,7.52380952 L2.01830664,18 L18.9816934,18 L18.9816934,7.52380952 Z M15.826087,12.8571429 C16.3783717,12.8571429 16.826087,13.3048581 16.826087,13.8571429 L16.826087,15.3571429 C16.826087,15.9094276 16.3783717,16.3571429 15.826087,16.3571429 L14.326087,16.3571429 C13.7738022,16.3571429 13.326087,15.9094276 13.326087,15.3571429 L13.326087,13.8571429 C13.326087,13.3048581 13.7738022,12.8571429 14.326087,12.8571429 L15.826087,12.8571429 Z M5.382,3.904 L2.01830664,3.9047619 L2.01830664,5.33333333 L18.9816934,5.33333333 L18.9816934,3.9047619 L16.074,3.904 L16.0743707,3.94224319 C16.0743707,4.45507903 15.684797,4.87775035 15.182906,4.93551546 L15.0652174,4.94224319 C14.5476874,4.94224319 14.1211472,4.556203 14.0628534,4.05886432 L14.0560641,3.94224319 L14.056,3.904 L7.4,3.904 L7.40045767,3.94224319 C7.40045767,4.45507903 7.01088393,4.87775035 6.50899294,4.93551546 L6.39130435,4.94224319 C5.87377436,4.94224319 5.44723419,4.556203 5.38894034,4.05886432 L5.38215103,3.94224319 L5.382,3.904 Z"></path>
                        </g>
                    </g>
                </g>
            </g>
        </g>
    </g>
</svg>