<?xml version="1.0" encoding="UTF-8"?>
<svg width="25px" height="25px" viewBox="0 0 25 25" version="1.1" xmlns="http://www.w3.org/2000/svg" xmlns:xlink="http://www.w3.org/1999/xlink">
    <!-- Generator: sketchtool 50.2 (55047) - http://www.bohemiancoding.com/sketch -->
    <title>FD091CD0-43EC-40F7-B93B-ED8C660C00AE</title>
    <desc>Created with sketchtool.</desc>
    <defs></defs>
    <g id="Stories" stroke="none" stroke-width="1" fill="none" fill-rule="evenodd" opacity="1">
        <g id="Single-Story" transform="translate(-266.000000, -3009.000000)">
            <g id="Events" transform="translate(266.000000, 3009.000000)">
                <rect id="Rectangle-9" x="1" y="8" width="23" height="16"></rect>
                <path d="M18.75,2.08333333 L18.75,0 L17.7083333,0 L17.7083333,2.08333333 L7.29166667,2.08333333 L7.29166667,0 L6.25,0 L6.25,2.08333333 L0,2.08333333 L0,25 L25,25 L25,2.08333333 L18.75,2.08333333 Z M23.9583333,23.9583333 L1.04166667,23.9583333 L1.04166667,8.33333333 L23.9583333,8.33333333 L23.9583333,23.9583333 Z M23.9583333,7.29166667 L1.04166667,7.29166667 L1.04166667,3.125 L6.25,3.125 L6.25,5.20833333 L7.29166667,5.20833333 L7.29166667,3.125 L17.7083333,3.125 L17.7083333,5.20833333 L18.75,5.20833333 L18.75,3.125 L23.9583333,3.125 L23.9583333,7.29166667 Z" id="Shape" fill="#122E46" fill-rule="nonzero"></path>
                <polygon id="Shape" fill="#122E46" fill-rule="nonzero" points="16.1818182 16.1818182 20.1818182 16.1818182 20.1818182 20.1818182 16.1818182 20.1818182"></polygon>
            </g>
        </g>
    </g>
</svg>