<?xml version="1.0" encoding="UTF-8"?>
<svg width="26px" height="32px" viewBox="0 0 26 32" version="1.1" xmlns="http://www.w3.org/2000/svg" xmlns:xlink="http://www.w3.org/1999/xlink">
    <!-- Generator: Sketch 48.2 (47327) - http://www.bohemiancoding.com/sketch -->
    <title>file-text</title>
    <desc>Created with Sketch.</desc>
    <defs></defs>
    <g id="home" stroke="none" stroke-width="1" fill="none" fill-rule="evenodd" transform="translate(-496.000000, -1398.000000)" stroke-linecap="round" stroke-linejoin="round">
        <g id="Group-8" transform="translate(114.000000, 1373.000000)" stroke="#0E0E1D" stroke-width="2">
            <g id="essays" transform="translate(351.000000, 0.000000)">
                <g id="file-text" transform="translate(32.000000, 26.000000)">
                    <path d="M15,0 L3,0 C1.34314575,0 0,1.34314575 0,3 L0,27 C0,28.6568542 1.34314575,30 3,30 L21,30 C22.6568542,30 24,28.6568542 24,27 L24,9 L15,0 Z" id="Shape"></path>
                    <polyline id="Shape" points="15 0 15 9 24 9"></polyline>
                    <path d="M18,16.5 L6,16.5" id="Shape"></path>
                    <path d="M18,22.5 L6,22.5" id="Shape"></path>
                    <polyline id="Shape" points="9 10.5 7.5 10.5 6 10.5"></polyline>
                </g>
            </g>
        </g>
    </g>
</svg>