<?xml version="1.0" encoding="UTF-8"?>
<svg width="185px" height="85px" viewBox="0 0 185 85" version="1.1" xmlns="http://www.w3.org/2000/svg" xmlns:xlink="http://www.w3.org/1999/xlink">
    <!-- Generator: Sketch 54.1 (76490) - https://sketchapp.com -->
    <title>Footer-mellon</title>
    <desc>Created with Sketch.</desc>
    <g id="Page-1" stroke="none" stroke-width="1" fill="none" fill-rule="evenodd">
        <g id="Desktop" transform="translate(-57.000000, -637.000000)" fill-rule="nonzero">
            <g id="Footer-mellon" transform="translate(57.000000, 637.000000)">
                <g id="Group" transform="translate(0.560606, 29.271523)" fill="#F9F5EF">
                    <polygon id="Shape" points="30.9057744 33.9488845 26.1457333 33.9488845 26.1457333 7.93068203 26.0767472 7.93068203 15.8668038 20.8702159 15.1079567 20.8702159 4.82902726 7.93068203 4.76004115 7.93068203 4.76004115 33.9488845 0 33.9488845 0 0.55653909 4.48409674 0.55653909 15.4528872 14.2613142 26.4906638 0.55653909 30.9057744 0.55653909"></polygon>
                    <polygon id="Shape" points="56.8445494 4.86971704 42.7713843 4.86971704 42.7713843 14.956988 56.2926606 14.956988 56.2926606 19.270166 42.7713843 19.270166 42.7713843 29.6357065 57.2584661 29.6357065 57.2584661 33.9488845 38.0113431 33.9488845 38.0113431 0.55653909 56.8445494 0.55653909"></polygon>
                    <polygon id="Shape" points="68.2272565 29.6357065 83.197241 29.6357065 83.197241 33.9488845 63.4672154 33.9488845 63.4672154 0.55653909 68.2272565 0.55653909"></polygon>
                    <polygon id="Shape" points="94.510962 29.6357065 109.480947 29.6357065 109.480947 33.9488845 89.7509209 33.9488845 89.7509209 0.55653909 94.510962 0.55653909"></polygon>
                    <path d="M129.900833,0.0695673863 C140.800638,0.0695673863 147.699248,7.93068203 147.699248,17.1831444 C147.699248,26.2269046 141.007596,34.2967214 129.762861,34.2967214 C118.932043,34.2967214 112.102418,26.2269046 112.102418,17.1831444 C112.102418,8.00024942 119.139001,0.0695673863 129.900833,0.0695673863 Z M129.900833,29.9835435 C137.351332,29.9835435 142.801235,24.5572873 142.801235,17.2527118 C142.801235,9.87856885 137.282346,4.52188011 129.900833,4.52188011 C122.51932,4.52188011 117.000432,9.87856885 117.000432,17.2527118 C117.000432,24.5572873 122.51932,29.9835435 129.900833,29.9835435 Z" id="Shape"></path>
                    <polygon id="Shape" points="184.192897 33.9488845 180.122717 33.9488845 157.978177 8.20895158 157.978177 33.9488845 153.494081 33.9488845 153.494081 0.55653909 157.288316 0.55653909 179.777786 26.4356068 179.777786 0.55653909 184.261883 0.55653909 184.261883 33.9488845"></polygon>
                </g>
                <g id="Group" fill="#F9F5EF">
                    <polygon id="Shape" points="5.83276868 0.941866138 3.55651529 0.941866138 3.55651529 6.70886618 2.59083203 6.70886618 2.59083203 0.941866138 0.314578637 0.941866138 0.314578637 0.108082999 5.83276868 0.108082999"></polygon>
                    <polygon id="Shape" points="12.3856194 6.70886618 11.4199361 6.70886618 11.4199361 3.86010712 7.69515782 3.86010712 7.69515782 6.77834811 6.72947456 6.77834811 6.72947456 0.108082999 7.69515782 0.108082999 7.69515782 3.02632398 11.4199361 3.02632398 11.4199361 0.108082999 12.3856194 0.108082999"></polygon>
                    <polygon id="Shape" points="17.6968773 0.941866138 14.9377823 0.941866138 14.9377823 2.95684206 17.6278999 2.95684206 17.6278999 3.79062519 14.9377823 3.79062519 14.9377823 5.87508304 17.834832 5.87508304 17.834832 6.70886618 14.0410764 6.70886618 14.0410764 0.108082999 17.7658547 0.108082999 17.7658547 0.941866138"></polygon>
                    <path d="M6.59151981,19.2156133 L5.62583656,19.2156133 L4.72913067,17.2701193 L1.97003565,17.2701193 L1.14230714,19.2156133 L0.176623886,19.2156133 L3.00469628,12.5453481 L3.69447004,12.5453481 L6.59151981,19.2156133 Z M2.31492253,16.4363361 L4.3842438,16.4363361 L3.34958316,14.0044686 L2.31492253,16.4363361 Z" id="Shape"></path>
                    <polygon id="Shape" points="13.4892574 19.2156133 12.6615289 19.2156133 8.3159542 14.1434325 8.3159542 19.2850952 7.41924832 19.2850952 7.41924832 12.6148301 8.17799945 12.6148301 12.6615289 17.7564928 12.6615289 12.6148301 13.5582347 12.6148301 13.5582347 19.2156133"></polygon>
                    <path d="M15.075737,12.6148301 L17.6278999,12.6148301 C20.042108,12.6148301 21.1457461,14.3518783 21.1457461,15.9499626 C21.1457461,17.6870108 19.8351759,19.2850952 17.6278999,19.2850952 L15.075737,19.2850952 L15.075737,12.6148301 L15.075737,12.6148301 Z M16.0414203,18.3818301 L17.4899452,18.3818301 C19.6282438,18.3818301 20.1110854,16.7142638 20.1110854,15.9499626 C20.1110854,14.629806 19.2833569,13.5180951 17.4209678,13.5180951 L15.9724429,13.5180951 L15.9724429,18.3818301 L16.0414203,18.3818301 Z" id="Shape"></path>
                    <path d="M24.0427958,12.6148301 C25.353366,12.6148301 26.1810945,13.3096494 26.1810945,14.4908421 C26.1810945,15.2551433 25.7672302,15.8109988 25.0774565,16.0889265 C25.6982528,16.5058181 26.0431397,17.1311554 26.5259814,17.8954566 C26.8018909,18.3818301 26.9398456,18.5902759 27.4226872,19.2156133 L26.3190492,19.2156133 L25.4223433,17.8259747 C24.5256375,16.4363361 24.1807506,16.2973723 23.697909,16.2973723 L23.2840447,16.2973723 L23.2840447,19.1461313 L22.3183614,19.1461313 L22.3183614,12.4758662 L24.0427958,12.4758662 L24.0427958,12.6148301 Z M23.3530221,15.4635891 L23.9738185,15.4635891 C25.0084791,15.4635891 25.2843886,14.9077337 25.2843886,14.3518783 C25.2843886,13.7265409 24.9395017,13.3791313 23.9738185,13.3791313 L23.3530221,13.3791313 L23.3530221,15.4635891 Z" id="Shape"></path>
                    <polygon id="Shape" points="32.0441714 13.4486132 29.2850764 13.4486132 29.2850764 15.4635891 31.975194 15.4635891 31.975194 16.2973723 29.2850764 16.2973723 29.2850764 18.3818301 32.1821261 18.3818301 32.1821261 19.2156133 28.3883705 19.2156133 28.3883705 12.5453481 32.1131488 12.5453481 32.1131488 13.4486132"></polygon>
                    <polygon id="Shape" points="39.9075922 19.2850952 39.7006601 19.2850952 37.5623614 13.8655048 35.3550854 19.2850952 35.1481533 19.2850952 32.4580357 12.6148301 33.4237189 12.6148301 35.2171307 17.2006373 37.0105424 12.6148301 37.9072483 12.6148301 39.7696375 17.2006373 41.5630492 12.6148301 42.5287325 12.6148301"></polygon>
                    <polygon id="Shape" points="54.3928411 19.2850952 54.185909 19.2850952 52.0476103 13.8655048 49.9093117 19.2850952 49.7023795 19.2850952 47.0122619 12.6148301 47.9779452 12.6148301 49.7713569 17.2006373 51.5647687 12.6148301 52.4614746 12.6148301 54.3238637 17.2006373 56.1172755 12.6148301 57.0829587 12.6148301"></polygon>
                    <path d="M57.5658004,18.7292398 C57.5658004,19.0766494 57.2898909,19.2850952 57.0139814,19.2850952 C56.7380718,19.2850952 56.4621623,19.0071675 56.4621623,18.7292398 C56.4621623,18.3818301 56.7380718,18.1733843 57.0139814,18.1733843 C57.2898909,18.1733843 57.5658004,18.451312 57.5658004,18.7292398 Z" id="Shape"></path>
                </g>
                <polygon id="Shape" fill="#EF4B4B" points="26.8562035 29.8344371 31.3939394 29.8344371 31.3939394 31.3560337 16.2448828 50.0993377 15.3373356 50.0993377 12.8939394 47.0561445"></polygon>
                <g id="Group" transform="translate(94.181818, 74.867550)" fill="#F9F5EF">
                    <polygon id="Shape" points="5.21092843 1.55364238 1.55655002 1.55364238 1.55655002 4.1205298 5.21092843 4.1205298 5.21092843 5.33642384 1.55655002 5.33642384 1.55655002 9.59205298 0.177539303 9.59205298 0.177539303 0.405298013 5.21092843 0.405298013"></polygon>
                    <path d="M11.7612293,0.270198675 C14.8640035,0.270198675 16.7946185,2.43178808 16.7946185,4.9986755 C16.7946185,7.49801325 14.8640035,9.72715232 11.6922788,9.72715232 C8.58950469,9.72715232 6.65888969,7.49801325 6.65888969,4.9986755 C6.72784022,2.43178808 8.72740576,0.270198675 11.7612293,0.270198675 Z M11.7612293,8.51125828 C13.898696,8.51125828 15.4156078,7.02516556 15.4156078,4.9986755 C15.4156078,2.97218543 13.8297454,1.48609272 11.7612293,1.48609272 C9.69271327,1.48609272 8.10685094,2.97218543 8.10685094,4.9986755 C8.10685094,7.02516556 9.62376273,8.51125828 11.7612293,8.51125828 Z" id="Shape"></path>
                    <path d="M26.6545451,5.94437086 C26.6545451,8.17350993 25.2755344,9.65960265 22.4485624,9.65960265 C20.4489969,9.65960265 18.5183819,8.57880795 18.5183819,6.0794702 L18.5183819,0.337748344 L19.8973926,0.337748344 L19.8973926,5.80927152 C19.8973926,6.82251656 20.0352937,7.29536424 20.4489969,7.70066225 C21.0006012,8.2410596 21.6901065,8.51125828 22.4485624,8.51125828 C23.4828205,8.51125828 24.2412764,8.17350993 24.6549796,7.76821192 C25.1376333,7.29536424 25.2755344,6.61986755 25.2755344,5.74172185 L25.2755344,0.405298013 L26.6545451,0.405298013 L26.6545451,5.94437086 L26.6545451,5.94437086 Z" id="Shape"></path>
                    <polygon id="Shape" points="37.4797793 9.59205298 36.3076202 9.59205298 30.0331214 2.49933775 30.0331214 9.59205298 28.7920117 9.59205298 28.7920117 0.405298013 29.8952203 0.405298013 36.2386696 7.56556291 36.2386696 0.405298013 37.4797793 0.405298013"></polygon>
                    <path d="M39.893048,0.405298013 L43.5474264,0.405298013 C46.9949532,0.405298013 48.5808156,2.83708609 48.5808156,4.9986755 C48.5808156,7.36291391 46.7191511,9.59205298 43.616377,9.59205298 L39.9619986,9.59205298 L39.9619986,0.405298013 L39.893048,0.405298013 Z M41.2720587,8.37615894 L43.4095254,8.37615894 C46.4433489,8.37615894 47.2018048,6.0794702 47.2018048,4.93112583 C47.2018048,3.10728477 46.0296457,1.48609272 43.3405748,1.48609272 L41.2720587,1.48609272 L41.2720587,8.37615894 Z" id="Shape"></path>
                    <path d="M58.027039,9.59205298 L56.6480283,9.59205298 L55.4069186,6.89006623 L51.4077875,6.89006623 L50.2356284,9.59205298 L48.8566177,9.59205298 L52.9246993,0.337748344 L53.8900068,0.337748344 L58.027039,9.59205298 Z M51.8904413,5.67417219 L54.7863638,5.67417219 L53.269452,2.36423841 L51.8904413,5.67417219 Z" id="Shape"></path>
                    <polygon id="Shape" points="65.0599937 1.55364238 61.8193185 1.55364238 61.8193185 9.59205298 60.4403078 9.59205298 60.4403078 1.55364238 57.1996326 1.55364238 57.1996326 0.337748344 65.0599937 0.337748344"></polygon>
                    <polygon id="Shape" points="68.0248667 9.59205298 66.645856 9.59205298 66.645856 0.405298013 68.0248667 0.405298013"></polygon>
                    <path d="M75.0578214,0.270198675 C78.1605955,0.270198675 80.0912105,2.43178808 80.0912105,4.9986755 C80.0912105,7.49801325 78.1605955,9.72715232 74.9888708,9.72715232 C71.8860967,9.72715232 69.9554817,7.49801325 69.9554817,4.9986755 C70.0244323,2.43178808 72.0239978,0.270198675 75.0578214,0.270198675 Z M75.0578214,8.51125828 C77.195288,8.51125828 78.7121998,7.02516556 78.7121998,4.9986755 C78.7121998,2.97218543 77.1263375,1.48609272 75.0578214,1.48609272 C72.9893053,1.48609272 71.403443,2.97218543 71.403443,4.9986755 C71.403443,7.02516556 72.9893053,8.51125828 75.0578214,8.51125828 Z" id="Shape"></path>
                    <polygon id="Shape" points="90.7785436 9.59205298 89.6063845 9.59205298 83.3318857 2.49933775 83.3318857 9.59205298 82.0907761 9.59205298 82.0907761 0.405298013 83.1939846 0.405298013 89.5374339 7.56556291 89.5374339 0.405298013 90.7785436 0.405298013"></polygon>
                </g>
            </g>
        </g>
    </g>
</svg>