<?xml version="1.0" encoding="UTF-8"?>
<svg width="170px" height="37px" viewBox="0 0 170 37" version="1.1" xmlns="http://www.w3.org/2000/svg" xmlns:xlink="http://www.w3.org/1999/xlink">
    <!-- Generator: Sketch 54.1 (76490) - https://sketchapp.com -->
    <title>Footer-MSUWordmark</title>
    <desc>Created with Sketch.</desc>
    <g id="Page-1" stroke="none" stroke-width="1" fill="none" fill-rule="evenodd">
        <g id="Desktop" transform="translate(-518.000000, -665.000000)" fill="#FFFFFF" fill-rule="nonzero">
            <g id="Footer-MSUWordmark" transform="translate(517.666667, 665.000000)">
                <path d="M3.00887218,26.4381228 L3.00887218,33.0903333 C3.00887218,34.2009825 3.36484962,35.7731579 5.29300752,35.7731579 C7.05691729,35.7731579 7.69473684,34.5339825 7.69473684,32.9631053 L7.66533835,26.4381228 C7.66533835,26.0726667 7.48766917,25.8493684 7.26526316,25.7214912 L8.98507519,25.7214912 C8.76266917,25.8493684 8.59969925,26.0726667 8.59969925,26.4381228 L8.55496241,32.9306491 C8.55496241,35.6297018 7.05691729,36.6780351 5.04056391,36.6780351 C3.30541353,36.6780351 1.09605263,35.8523509 1.09605263,33.0416491 L1.09605263,26.4381228 C1.09605263,26.0726667 0.858947368,25.8493684 0.621842105,25.7214912 L3.46902256,25.7214912 C3.23191729,25.8493684 3.00887218,26.0726667 3.00887218,26.4381228" id="Fill-1"></path>
                <path d="M28.069812,26.4381228 C28.069812,26.0726667 27.9215414,25.8493684 27.6844361,25.7214912 L29.3307519,25.7214912 C29.1077068,25.8493684 28.9447368,26.0726667 28.9447368,26.4381228 L28.9447368,36.9636491 C28.9447368,36.9636491 21.8271053,27.9784912 21.8271053,27.8499649 L21.8271053,35.8043158 C21.8271053,36.1535439 21.9900752,36.376193 22.2418797,36.519 L20.596203,36.519 C20.818609,36.376193 20.9815789,36.1535439 20.9815789,35.8043158 L20.9815789,27.3267719 C20.9815789,26.7068596 20.9962782,26.6906316 20.7150752,26.3258246 C20.5661654,26.1356316 20.3584586,25.9129825 20.047218,25.7214912 L22.5978571,25.7214912 L28.069812,32.7086491 L28.069812,26.4381228" id="Fill-2"></path>
                <path d="M43.8178195,25.7214912 C43.5653759,25.8493684 43.4324436,26.0726667 43.4324436,26.4381228 L43.4324436,35.8043158 C43.4324436,36.1535439 43.5653759,36.376193 43.8178195,36.519 L41.133609,36.519 C41.3707143,36.376193 41.518985,36.1535439 41.518985,35.8043158 L41.518985,26.4381228 C41.518985,26.0726667 41.3707143,25.8493684 41.133609,25.7214912 L43.8178195,25.7214912" id="Fill-3"></path>
                <path d="M61.8946992,26.5166667 C62.0282707,26.1038246 61.9688346,25.8811754 61.5828195,25.7214912 L63.3921053,25.7214912 C63.0067293,25.9928246 62.9773308,26.1038246 62.8290602,26.4848596 C62.5766165,27.1034737 59.002782,36.8526491 59.002782,36.8526491 C59.002782,36.8526491 55.132406,27.0716667 54.8505639,26.4848596 C54.6728947,26.1667895 54.4952256,25.9129825 54.0497744,25.7214912 L57.3270677,25.7214912 C56.9416917,25.8811754 56.9116541,26.2148246 57.015188,26.5965088 C57.0458647,26.7380175 59.5217293,33.2649474 59.5217293,33.2649474 C59.5217293,33.2649474 61.88,26.6283158 61.8946992,26.5166667" id="Fill-4"></path>
                <path d="M79.8968045,27.1197018 C79.6149624,26.7068596 79.3037218,26.5796316 78.7400376,26.5478246 C78.2952256,26.5166667 76.2194361,26.5166667 76.2194361,26.5166667 L76.2194361,30.1692807 L78.4581955,30.1692807 C78.6659023,30.1692807 78.9177068,29.9141754 78.9924812,29.7239825 L78.9924812,31.4065088 C78.9177068,31.1845088 78.6659023,30.9462807 78.4581955,30.9462807 L76.2194361,30.9462807 L76.2194361,35.6141228 C76.5159774,35.6615088 77.4203008,35.7257719 78.1469549,35.6933158 C79.4366541,35.6615088 80.0303759,35.6933158 80.5793609,34.6930175 L80.2674812,36.519 L73.891203,36.519 C74.1430075,36.3599649 74.3353759,36.186 74.3353759,35.8043158 L74.3353759,26.4381228 C74.3353759,26.0726667 74.1283083,25.8493684 73.891203,25.7214912 L79.8520677,25.7214912 L79.8968045,27.1197018" id="Fill-5"></path>
                <path d="M93.9537594,26.5166667 L93.9537594,30.6600175 C93.9537594,30.6600175 94.3691729,30.6924737 94.6216165,30.6924737 C95.6301128,30.6924737 96.6980451,30.0894386 96.6980451,28.4854561 C96.6980451,27.755193 96.2819925,26.4848596 94.8146241,26.4848596 C94.3691729,26.4848596 93.9537594,26.5166667 93.9537594,26.5166667 Z M96.1490602,31.0410526 C97.1575564,31.1520526 97.6023684,31.8823158 97.8241353,32.2328421 C97.8241353,32.2328421 99.6046617,35.2493158 100.123609,35.8841579 C100.404812,36.2645439 101.07203,36.519 101.07203,36.519 L99.1438722,36.5514561 C98.5808271,36.5514561 98.0912782,36.186 97.8241353,35.8043158 C97.1575564,34.8040175 96.5050376,33.6453333 95.9707519,32.7566842 C95.5853759,32.1205439 95.2440977,31.4383158 94.6062782,31.4383158 C94.428609,31.4383158 93.9537594,31.4701228 93.9537594,31.4701228 L93.9537594,35.8043158 C93.9537594,36.1535439 94.1173684,36.376193 94.3691729,36.519 L91.6856015,36.519 C91.9227068,36.376193 92.0709774,36.1535439 92.0709774,35.8043158 L92.0709774,26.4381228 C92.0709774,26.0726667 91.9227068,25.8493684 91.6856015,25.7214912 L94.8887594,25.7214912 C97.9577068,25.7214912 98.6543233,27.3267719 98.6543233,28.3900351 C98.6543233,30.1043684 97.2016541,30.9612105 96.1490602,31.0410526 Z" id="Fill-6"></path>
                <path d="M117.340263,33.3434912 C117.340263,35.3285088 115.709286,36.6780351 113.885301,36.6780351 C112.534887,36.6780351 111.557707,36.186 111.03812,35.9159649 L110.964624,33.2318421 C111.245188,34.3606667 112.135451,35.8523509 113.676955,35.8523509 C115.145602,35.8523509 115.590414,34.7254737 115.590414,33.9478246 C115.590414,32.4230351 114.301353,32.216614 112.950301,31.4383158 C111.586466,30.6295088 110.993383,29.7713684 110.993383,28.564 C110.993383,26.4050175 112.876805,25.5475263 114.22594,25.5475263 C114.730827,25.5475263 115.709286,25.6591754 116.464699,26.1356316 L116.539474,28.4854561 C116.331767,27.6435439 115.48688,26.3732105 114.06297,26.3732105 C112.936241,26.3732105 112.491429,27.2151228 112.491429,27.8986491 C112.491429,28.8658421 113.128609,29.2306491 114.52312,29.9141754 C115.902293,30.6126316 117.340263,31.1377719 117.340263,33.3434912" id="Fill-7"></path>
                <path d="M131.605564,25.7214912 C131.35312,25.8493684 131.219549,26.0726667 131.219549,26.4381228 L131.219549,35.8043158 C131.219549,36.1535439 131.35312,36.376193 131.605564,36.519 L128.921992,36.519 C129.158459,36.376193 129.307368,36.1535439 129.307368,35.8043158 L129.307368,26.4381228 C129.307368,26.0726667 129.158459,25.8493684 128.921992,25.7214912 L131.605564,25.7214912" id="Fill-8"></path>
                <path d="M147.710188,26.5166667 L147.710188,35.8043158 C147.710188,36.1535439 147.873797,36.376193 148.096203,36.519 L145.440752,36.519 C145.677857,36.376193 145.826767,36.1535439 145.826767,35.8043158 L145.826767,26.5166667 C144.729436,26.5166667 143.453797,26.6283158 143.453797,26.6283158 C143.09782,26.6283158 142.846015,26.9931228 142.712444,27.2618596 L142.712444,25.7214912 L150.83985,25.7214912 L150.83985,27.2618596 C150.705639,26.9931228 150.497293,26.6594737 150.141955,26.6283158 C150.141955,26.6283158 148.79218,26.5166667 147.710188,26.5166667" id="Fill-9"></path>
                <path d="M169.58203,25.7214912 C169.121241,25.8811754 168.780602,26.3258246 168.602293,26.6906316 L166.230602,31.5175088 L166.230602,35.8043158 C166.230602,36.1535439 166.511165,36.376193 166.74891,36.519 L163.782857,36.519 C164.005902,36.376193 164.287744,36.186 164.287744,35.8043158 L164.287744,31.5811228 L161.381128,26.4848596 C161.172782,26.1038246 161.010451,25.9447895 160.610376,25.7214912 L163.961165,25.7214912 C163.590489,25.8811754 163.338045,25.9603684 163.72406,26.7068596 L165.814549,30.6126316 L167.772744,26.5166667 C167.980451,26.1667895 167.875639,25.8337895 167.460865,25.7214912 L169.58203,25.7214912" id="Fill-10"></path>
                <path d="M12.1415789,0.822438596 L15.6227444,0.822438596 C15.2929699,0.999 15.0871805,1.30798246 15.0871805,1.81429825 L15.0871805,14.8246667 C15.0871805,15.3095614 15.2929699,15.6185439 15.6227444,15.8171754 L11.9357895,15.8171754 C12.2655639,15.6185439 12.4713534,15.3095614 12.4713534,14.8246667 L12.4713534,3.73375439 C12.4713534,3.46891228 12.5128947,3.22614035 12.5128947,3.22614035 L12.3269173,3.73375439 L7.38349624,16.1255088 L2.39853383,4.08557895 L2.25473684,3.49098246 C2.25473684,3.49098246 2.25473684,3.88759649 2.25473684,4.08557895 L2.25473684,14.8246667 C2.25473684,15.3095614 2.48161654,15.6185439 2.83120301,15.8171754 L0.544511278,15.8171754 C0.853834586,15.6185439 1.08071429,15.3095614 1.08071429,14.8246667 L1.08071429,1.81429825 C1.08071429,1.39561404 0.75093985,0.999 0.421165414,0.822438596 L4.04612782,0.822438596 L8.16639098,10.9435614 L12.1415789,0.822438596" id="Fill-11"></path>
                <path d="M22.6860526,0.822438596 C22.3358271,0.999 22.1504887,1.30798246 22.1504887,1.81429825 L22.1504887,14.8246667 C22.1504887,15.3095614 22.3358271,15.6185439 22.6860526,15.8171754 L18.9575564,15.8171754 C19.2873308,15.6185439 19.4931203,15.3095614 19.4931203,14.8246667 L19.4931203,1.81429825 C19.4931203,1.30798246 19.2873308,0.999 18.9575564,0.822438596 L22.6860526,0.822438596" id="Fill-12"></path>
                <path d="M38.4832707,5.14429825 C37.2261654,2.07978947 34.8167669,1.77080702 33.8280827,1.77080702 C30.306015,1.77080702 28.3081955,4.52698246 28.3081955,8.07703509 C28.3081955,11.0980526 29.7289098,14.8246667 33.9725188,14.8246667 C34.9401128,14.8246667 37.2683459,14.4715439 38.6277068,11.4505263 C38.668609,11.3628947 38.4423684,14.6260351 38.4423684,14.6260351 C36.7321429,15.6626842 34.8992105,16.0378772 33.2100752,16.0378772 C29.1524436,16.0378772 25.5479323,13.061 25.5479323,8.36394737 C25.5479323,4.50491228 28.2257519,0.580315789 33.457406,0.580315789 C35.1465414,0.580315789 36.6912406,0.932789474 38.2979323,1.72666667 C38.2979323,1.72666667 38.5241729,5.23257895 38.4832707,5.14429825" id="Fill-13"></path>
                <path d="M50.5519925,0.822438596 L54.2798496,0.822438596 C53.9296241,0.999 53.7033835,1.30798246 53.7033835,1.81429825 L53.7033835,14.8246667 C53.7033835,15.3095614 53.9296241,15.6185439 54.2798496,15.8171754 L50.5519925,15.8171754 C50.8817669,15.6185439 51.0875564,15.3095614 51.0875564,14.8246667 L51.0875564,8.07703509 L44.6818797,8.07703509 L44.6818797,14.8246667 C44.6818797,15.3095614 44.867218,15.6185439 45.2168045,15.8171754 L41.4889474,15.8171754 C41.8187218,15.6185439 42.0245113,15.3095614 42.0245113,14.8246667 L42.0245113,1.81429825 C42.0245113,1.30798246 41.8187218,0.999 41.4889474,0.822438596 L45.2168045,0.822438596 C44.867218,0.999 44.6818797,1.30798246 44.6818797,1.81429825 L44.6818797,6.99689474 L51.0875564,6.99689474 L51.0875564,1.81429825 C51.0875564,1.30798246 50.8817669,0.999 50.5519925,0.822438596" id="Fill-14"></path>
                <path d="M61.3227068,0.822438596 C60.9724812,0.999 60.7871429,1.30798246 60.7871429,1.81429825 L60.7871429,14.8246667 C60.7871429,15.3095614 60.9724812,15.6185439 61.3227068,15.8171754 L57.5942105,15.8171754 C57.923985,15.6185439 58.1304135,15.3095614 58.1304135,14.8246667 L58.1304135,1.81429825 C58.1304135,1.30798246 57.923985,0.999 57.5942105,0.822438596 L61.3227068,0.822438596" id="Fill-15"></path>
                <path d="M76.9965789,1.72666667 L77.141015,5.23257895 C76.0909774,2.23363158 73.4745113,1.77080702 72.5062782,1.77080702 C69.0053008,1.77080702 66.986391,4.52698246 66.986391,8.07703509 C66.986391,11.0980526 68.3866541,14.8246667 72.6507143,14.8246667 C73.0833835,14.8246667 74.2983083,14.7805263 75.2665414,14.097 L75.2665414,10.2606842 C75.2665414,9.75307018 75.0607519,9.44408772 74.7309774,9.24610526 L78.4179323,9.24610526 C78.1092481,9.44408772 77.8830075,9.75307018 77.8830075,10.2606842 L77.8830075,13.5238246 C77.8830075,13.9645789 78.1092481,14.3618421 78.2121429,14.4280526 C76.4814662,15.4640526 73.5569549,16.0378772 71.9093609,16.0378772 C67.810188,16.0378772 64.1852256,13.061 64.1852256,8.36394737 C64.1852256,4.50491228 66.8834962,0.580315789 72.1560526,0.580315789 C73.845188,0.580315789 75.3694361,0.976929825 76.9965789,1.72666667" id="Fill-16"></path>
                <path d="M87.5001504,10.5248772 C86.5312782,8.07703509 85.3994361,5.12287719 85.3994361,5.12287719 C85.3994361,5.12287719 83.9985338,8.87091228 83.338985,10.5248772 L87.5001504,10.5248772 Z M92.0313534,14.736386 C92.2371429,15.1998596 92.3809398,15.4419825 93.0609398,15.8171754 L88.6537218,15.8171754 C89.1886466,15.508193 89.2915414,15.1998596 89.1477444,14.736386 C89.0857519,14.5156842 88.550188,13.1707018 87.9730827,11.6712281 L82.9267669,11.6712281 C82.3093985,13.1707018 81.8147368,14.4715439 81.7731955,14.7143158 C81.5878571,15.2433509 81.691391,15.5523333 82.247406,15.8171754 L79.4053383,15.8171754 C79.9811654,15.3978421 80.1671429,15.1557193 80.3729323,14.736386 C80.7646992,13.8983684 86.1823308,0.359614035 86.1823308,0.359614035 C86.1823308,0.359614035 91.6606767,13.8983684 92.0313534,14.736386 Z" id="Fill-17"></path>
                <path d="M104.718722,1.81429825 C104.718722,1.30798246 104.511654,0.999 104.183158,0.822438596 L106.468571,0.822438596 C106.159887,0.999 105.933647,1.30798246 105.933647,1.81429825 L105.933647,16.4344912 C105.933647,16.4344912 96.0461654,3.95380702 96.0461654,3.77724561 L96.0461654,14.8246667 C96.0461654,15.3095614 96.2730451,15.6185439 96.6239098,15.8171754 L94.3365789,15.8171754 C94.6465414,15.6185439 94.8721429,15.3095614 94.8721429,14.8246667 L94.8721429,3.04957895 C94.8721429,2.19014035 94.8932331,2.16742105 94.5014662,1.66045614 C94.2956767,1.39561404 94.0074436,1.0872807 93.5741353,0.822438596 L97.1179323,0.822438596 L104.718722,10.5248772 L104.718722,1.81429825" id="Fill-18"></path>
                <path d="M123.35609,11.4070351 C123.35609,14.1632105 121.091767,16.0378772 118.556466,16.0378772 C116.682632,16.0378772 115.323271,15.3537018 114.601729,14.9791579 L114.499474,11.2525439 C114.891241,12.8182281 116.126617,14.8908772 118.269511,14.8908772 C120.307594,14.8908772 120.926241,13.325193 120.926241,12.2450526 C120.926241,10.1282632 119.134211,9.84135088 117.259737,8.7605614 C115.364812,7.6362807 114.541015,6.44578947 114.541015,4.76975439 C114.541015,1.77080702 117.156842,0.580315789 119.030677,0.580315789 C119.731128,0.580315789 121.091767,0.734157895 122.141165,1.39561404 L122.243421,4.65940351 C121.956466,3.49098246 120.781805,1.72666667 118.805075,1.72666667 C117.239286,1.72666667 116.621278,2.89508772 116.621278,3.84345614 C116.621278,5.18908772 117.506429,5.69540351 119.443534,6.64377193 C121.35891,7.61421053 123.35609,8.34187719 123.35609,11.4070351" id="Fill-19"></path>
                <path d="M131.576165,1.92529825 L131.576165,14.8246667 C131.576165,15.3095614 131.802406,15.6185439 132.112368,15.8171754 L128.424774,15.8171754 C128.75391,15.6185439 128.960338,15.3095614 128.960338,14.8246667 L128.960338,1.92529825 C127.43609,1.92529825 125.663872,2.07978947 125.663872,2.07978947 C125.16985,2.07978947 124.818985,2.58675439 124.634286,2.96129825 L124.634286,0.822438596 L135.922669,0.822438596 L135.922669,2.96129825 C135.736692,2.58675439 135.449098,2.1232807 134.954436,2.07978947 C134.954436,2.07978947 133.079323,1.92529825 131.576165,1.92529825" id="Fill-20"></path>
                <path d="M142.119361,10.5248772 C141.151767,8.07703509 140.018647,5.12287719 140.018647,5.12287719 C140.018647,5.12287719 138.618383,8.87091228 137.958835,10.5248772 L142.119361,10.5248772 Z M146.651203,14.736386 C146.857632,15.1998596 147.001429,15.4419825 147.681429,15.8171754 L143.274211,15.8171754 C143.809135,15.508193 143.91203,15.1998596 143.768233,14.736386 C143.705602,14.5156842 143.170677,13.1707018 142.593571,11.6712281 L137.547256,11.6712281 C136.929248,13.1707018 136.434586,14.4715439 136.393684,14.7143158 C136.207707,15.2433509 136.311241,15.5523333 136.867895,15.8171754 L134.024549,15.8171754 C134.601015,15.3978421 134.786353,15.1557193 134.993421,14.736386 C135.384549,13.8983684 140.801541,0.359614035 140.801541,0.359614035 C140.801541,0.359614035 146.280526,13.8983684 146.651203,14.736386 Z" id="Fill-21"></path>
                <path d="M153.058797,1.92529825 L153.058797,14.8246667 C153.058797,15.3095614 153.285038,15.6185439 153.593722,15.8171754 L149.907406,15.8171754 C150.236541,15.6185439 150.442331,15.3095614 150.442331,14.8246667 L150.442331,1.92529825 C148.918722,1.92529825 147.147143,2.07978947 147.147143,2.07978947 C146.65312,2.07978947 146.302256,2.58675439 146.116917,2.96129825 L146.116917,0.822438596 L157.404023,0.822438596 L157.404023,2.96129825 C157.219323,2.58675439 156.93109,2.1232807 156.436429,2.07978947 C156.436429,2.07978947 154.561955,1.92529825 153.058797,1.92529825" id="Fill-22"></path>
                <path d="M167.968947,2.76331579 C167.578459,2.19014035 167.146429,2.01357895 166.362895,1.96878947 C165.744887,1.92529825 162.861278,1.92529825 162.861278,1.92529825 L162.861278,6.99689474 L165.971767,6.99689474 C166.259361,6.99689474 166.609586,6.64377193 166.71312,6.37957895 L166.71312,8.71707018 C166.609586,8.40808772 166.259361,8.07703509 165.971767,8.07703509 L162.861278,8.07703509 L162.861278,14.5598246 C163.273496,14.6260351 164.529323,14.7143158 165.539098,14.6701754 C167.331128,14.6260351 168.154925,14.6701754 168.917368,13.2810526 L168.484699,15.8171754 L159.628083,15.8171754 C159.977669,15.5964737 160.245451,15.3537018 160.245451,14.8246667 L160.245451,1.81429825 C160.245451,1.30798246 159.956579,0.999 159.628083,0.822438596 L167.908233,0.822438596 L167.968947,2.76331579" id="Fill-23"></path>
                <polygon id="Fill-24" points="0.380263158 20.8654035 169.272068 20.8654035 169.272068 19.7060702 0.380263158 19.7060702"></polygon>
            </g>
        </g>
    </g>
</svg>