<?xml version="1.0" encoding="UTF-8"?>
<svg width="159px" height="32px" viewBox="0 0 159 32" version="1.1" xmlns="http://www.w3.org/2000/svg" xmlns:xlink="http://www.w3.org/1999/xlink">
    <!-- Generator: Sketch 60 (88103) - https://sketch.com -->
    <title>Footer-UMD</title>
    <desc>Created with Sketch.</desc>
    <g id="Symbols" stroke="none" stroke-width="1" fill="none" fill-rule="evenodd">
        <g id="Footer" transform="translate(-756.000000, -85.000000)" fill="#FFFFFF">
            <g id="Logos">
                <g transform="translate(111.000000, 60.000000)">
                    <g id="Footer-UMD" transform="translate(645.000000, 25.000000)">
                        <path d="M12.3391129,30.8057888 L4.98776931,15.4230376 L4.93048131,15.4230376 L4.14323335,28.401541 C4.05822535,29.8725489 5.1614813,30.1904049 6.45877723,30.2476929 L6.45877723,30.8057888 L0.449081537,30.8057888 L0.449081537,30.2476929 C2.55395343,30.2476929 2.81267342,29.7856929 2.95681741,27.161533 L3.64981737,15.9423256 C3.76439337,14.0388857 3.70710537,13.5195977 1.91824146,13.4031737 L1.91824146,12.8875817 L6.28691324,12.8875817 L13.2316969,27.422101 L20.1524565,12.8875817 L24.3899203,12.8875817 L24.3899203,13.4031737 C22.9780484,13.5195977 22.4291924,13.5473177 22.4864804,14.5267577 L23.4086324,27.595813 C23.5823444,30.2476929 23.8133443,30.2476929 25.9182162,30.2476929 L25.9182162,30.8057888 L18.5095846,30.8057888 L18.5095846,30.2476929 C19.8623206,30.2476929 21.1891845,29.8725489 21.0746085,28.344253 L20.2374645,15.4230376 L20.1801765,15.4230376 L13.0025449,30.8057888 L12.3391129,30.8057888 Z" id="Fill-1"></path>
                        <path d="M37.9819596,22.8507036 L39.9131195,28.0897834 C40.0276955,28.3762234 40.2309755,28.8105033 40.2309755,29.2706553 C40.2309755,30.0745353 39.6248315,30.2482473 37.9819596,30.2482473 L37.2335197,30.2482473 L37.2335197,30.8063432 L45.1614393,30.8063432 L45.1614393,30.2482473 C43.7181513,30.2482473 43.1120074,29.9618073 42.5372794,28.4335114 L36.5109517,12.4741842 L34.0032158,12.4741842 L34.2619358,13.1062001 L29.0154641,27.3986314 C28.0933121,29.9008233 27.7773041,30.2186793 25.9015842,30.2482473 L25.9015842,30.8063432 L32.5617759,30.8063432 L32.5617759,30.2482473 L32.1016239,30.2482473 C30.51604,30.2482473 29.7676,29.9618073 29.7676,29.1837993 C29.7676,28.7809353 30.140896,27.9160714 30.342328,27.3690634 L32.0147679,22.8507036 L37.9819596,22.8507036 Z M37.4922397,21.5700397 L32.5044879,21.5700397 L34.9549358,14.896912 L37.4922397,21.5700397 Z" id="Fill-3"></path>
                        <path d="M50.3223486,23.256894 C50.7861966,23.28831 51.1631886,23.31603 51.8007485,23.31603 C52.5843005,23.31603 53.0481485,23.28831 53.7707164,23.256894 C54.4674124,23.717046 55.4819643,24.548646 56.7552363,25.8089819 L58.6531322,27.6976378 C61.20522,30.2608137 62.502516,31.3529816 67.5457077,31.1219816 L67.5457077,30.6063896 C65.3262598,30.4603977 63.5688119,29.3996457 61.868652,27.7068778 L59.5956121,25.4412299 C58.2521162,24.090342 57.3927962,23.28831 56.3209563,22.4419261 C58.6790042,21.7507741 60.1389241,19.9341902 60.1389241,17.7720303 C60.1389241,14.8337104 57.7660922,12.6327426 52.4105885,12.6327426 C50.5256286,12.6327426 49.9509006,12.6641586 48.7774207,12.7214466 C47.6002447,12.7750386 45.8427968,12.8914625 45.1497969,12.8914625 L45.1497969,13.4495585 L45.7855088,13.4495585 C47.4561007,13.4495585 47.9476687,13.9688465 47.9476687,15.7540144 L47.9476687,27.8713498 C47.9476687,29.7895737 47.3415248,30.2478777 45.6413648,30.2478777 L45.1497969,30.2478777 L45.1497969,30.8059736 L53.3068685,30.8059736 L53.3068685,30.2478777 L52.6415885,30.2478777 C51.0190446,30.2478777 50.3223486,29.8191417 50.3223486,28.1005018 L50.3223486,23.256894 Z M50.3223486,13.2499745 C50.8434846,13.1926865 51.2204766,13.1926865 51.7711805,13.1926865 C56.2341003,13.1926865 57.4500842,15.2661424 57.4500842,17.9457423 C57.4500842,21.4033501 55.3359723,22.756086 52.1204525,22.756086 C51.4533245,22.756086 51.0190446,22.787502 50.3223486,22.700646 L50.3223486,13.2499745 Z" id="Fill-5"></path>
                        <path d="M77.419756,15.5200576 C78.338212,13.9400177 77.793052,13.4502977 75.9505961,13.4502977 L75.9505961,12.8903537 L82.4481638,12.8903537 L82.4481638,13.4502977 C80.4948279,13.5944417 79.6613799,14.3706017 78.855652,15.7214896 L74.0785722,23.8046412 L74.0785722,28.119721 C74.0785722,29.6443209 74.6255802,30.2486169 76.3811801,30.2486169 L76.7581721,30.2486169 L76.7581721,30.8048648 L68.8247085,30.8048648 L68.8247085,30.2486169 L69.3754124,30.2486169 C71.1790603,30.2486169 71.7020443,29.5851849 71.7020443,28.177009 L71.7020443,24.1206492 L66.5479726,16.1243536 C65.1397966,13.9104497 64.4782127,13.5075857 62.6117328,13.4502977 L62.6117328,12.8903537 L70.2790844,12.8903537 L70.2790844,13.4502977 C68.0115885,13.4502977 67.8692925,13.9973057 68.7378525,15.3204736 L73.3652442,22.4241853 L77.419756,15.5200576 Z" id="Fill-7"></path>
                        <path d="M95.0912551,30.8057888 L82.2217838,30.8057888 L82.2217838,30.2476929 L83.1735037,30.2476929 C84.5003677,30.2476929 84.9882396,29.8171089 84.9882396,28.349797 L84.9882396,15.6096856 C84.9882396,14.0832377 84.5280877,13.4493737 82.7133518,13.4493737 L82.3086398,13.4493737 L82.3086398,12.8912777 L90.7965033,12.8912777 L90.7965033,13.4493737 L89.7302074,13.4493737 C87.8563355,13.4493737 87.3647675,13.6526537 87.3647675,15.4378216 L87.3647675,28.7120049 C87.3647675,29.4900129 87.6826235,29.7783009 88.5179195,29.7783009 L92.7553832,29.7783009 C94.4573912,29.7783009 94.9766791,29.1167169 96.793263,26.596045 L97.310703,26.596045 L95.0912551,30.8057888 Z" id="Fill-9"></path>
                        <path d="M108.722102,22.8507036 L110.65511,28.0897834 C110.769686,28.3762234 110.971118,28.8105033 110.971118,29.2706553 C110.971118,30.0745353 110.366822,30.2482473 108.722102,30.2482473 L107.973662,30.2482473 L107.973662,30.8063432 L115.901582,30.8063432 L115.901582,30.2482473 C114.458294,30.2482473 113.853998,29.9618073 113.277422,28.4335114 L107.252943,12.4741842 L104.745207,12.4741842 L105.003927,13.1062001 L99.7556069,27.3986314 C98.8334549,29.9008233 98.519295,30.2186793 96.643575,30.2482473 L96.643575,30.8063432 L103.303767,30.8063432 L103.303767,30.2482473 L102.841767,30.2482473 C101.258031,30.2482473 100.507743,29.9618073 100.507743,29.1837993 C100.507743,28.7809353 100.882887,27.9160714 101.084319,27.3690634 L102.754911,22.8507036 L108.722102,22.8507036 Z M108.23423,21.5700397 L103.246479,21.5700397 L105.696927,14.896912 L108.23423,21.5700397 Z" id="Fill-11"></path>
                        <path d="M134.595949,31.0188632 L119.69183,15.40696 L119.69183,27.7460554 C119.69183,29.8176633 120.151982,30.2482473 122.598734,30.2482473 L122.598734,30.8063432 L115.92191,30.8063432 L115.92191,30.2482473 L116.034638,30.2482473 C117.823502,30.2482473 118.39823,29.6439513 118.39823,28.3207834 L118.39823,14.1706481 C117.736646,13.7104961 116.988206,13.4794961 115.979198,13.4499281 L115.979198,12.8899841 L120.49571,12.8899841 L134.052637,27.0438154 L134.052637,15.580672 C134.052637,13.8250721 133.533349,13.5072161 131.230741,13.4499281 L131.230741,12.8899841 L137.964853,12.8899841 L137.964853,13.4499281 C135.804541,13.4499281 135.342541,13.8250721 135.342541,14.948656 L135.342541,31.0188632 L134.595949,31.0188632 Z" id="Fill-13"></path>
                        <path d="M140.961015,28.149289 C140.961015,29.8161849 140.238447,30.2486169 138.684279,30.2486169 L138.192711,30.2486169 L138.192711,30.8048648 L147.406839,30.8048648 C154.708286,30.8048648 158.05871,25.5879611 158.05871,21.2451613 C158.05871,16.4994976 154.708286,12.6334818 147.087135,12.6334818 C145.588407,12.6334818 143.827263,12.6630498 142.249071,12.7203378 C140.672727,12.7757778 139.259007,12.8330657 138.192711,12.8903537 L138.192711,13.4040977 L138.769287,13.4040977 C140.469447,13.4040977 140.961015,13.8660977 140.961015,15.7399696 L140.961015,28.149289 Z M143.335695,13.3080017 C143.683119,13.2784337 144.462975,13.1915777 145.645695,13.1915777 C149.687271,13.1915777 151.736703,14.1987377 153.063567,15.5219056 C154.767422,17.2183695 155.373566,19.5764174 155.373566,21.7071613 C155.373566,24.6676571 154.044855,26.881561 152.976711,27.918289 C151.187847,29.7016089 149.570847,30.2486169 145.702983,30.2486169 C143.422551,30.2486169 143.335695,29.8457529 143.335695,28.6648809 L143.335695,13.3080017 Z" id="Fill-15"></path>
                        <path d="M8.80740031,1.38396713 L8.9866563,1.39320713 C10.0215363,1.44310313 10.2063362,1.55767912 10.2063362,2.87715105 L10.2063362,6.20355088 C10.2063362,8.60964676 8.53759233,9.11599874 7.1405044,9.11599874 C5.1612965,9.11599874 4.07097655,8.08666279 4.07097655,6.21833488 L4.07097655,2.24698309 C4.07097655,1.57615912 4.27425654,1.39320713 5.01160851,1.39320713 L5.32761649,1.39320713 L5.32761649,0.750103162 L1.2768007,0.750103162 L1.2768007,1.38951113 L1.46160069,1.39320713 C2.37820864,1.40799113 2.50572063,1.51332712 2.50572063,2.27470308 L2.50572063,6.44563887 C2.50572063,8.74824676 4.20218455,10.2358867 6.82634441,10.2358867 C10.0843682,10.2358867 11.2412162,8.15503879 11.2412162,6.37541488 L11.2412162,2.51863907 C11.2412162,1.68888711 11.5239602,1.40614313 12.3574081,1.39320713 L12.5422081,1.38951113 L12.5422081,0.750103162 L8.80740031,0.750103162 L8.80740031,1.38396713 Z" id="Fill-17"></path>
                        <path d="M24.4468387,1.38766313 L24.6297907,1.39320713 C25.7459827,1.42092713 25.8439266,1.56137512 25.8439266,2.26546308 L25.8439266,7.49530282 L19.396255,0.750103162 L16.8885191,0.750103162 L16.8885191,1.38766313 L17.0714711,1.39320713 C17.4872711,1.40614313 17.8069751,1.48930312 18.089719,1.66301512 L18.089719,8.60964676 C18.089719,9.12154274 17.938183,9.38026272 17.1047351,9.38026272 L16.8607991,9.38026272 L16.8607991,10.0233667 L20.5438629,10.0233667 L20.5438629,9.38026272 L20.3553669,9.38026272 C19.204063,9.38026272 19.102423,9.20655073 19.102423,8.32320678 L19.102423,2.65169507 L26.1654786,10.0695667 L26.2209186,10.1287027 L26.8584786,10.1287027 L26.8584786,1.9494551 C26.8584786,1.60203112 26.8584786,1.39320713 27.9691265,1.39320713 L28.1594705,1.39320713 L28.1594705,0.750103162 L24.4468387,0.750103162 L24.4468387,1.38766313 Z" id="Fill-19"></path>
                        <path d="M32.6329239,1.38396713 L32.8103319,1.39320713 C33.5365959,1.43201513 33.7047638,1.58909512 33.7047638,2.23589509 L33.7047638,8.33799078 C33.7047638,9.20655073 33.5883399,9.34330273 32.8121799,9.38026272 L32.6329239,9.38950272 L32.6329239,10.0233667 L36.4860037,10.0233667 L36.4860037,9.38026272 L36.2975077,9.38026272 C35.4067718,9.38026272 35.2718678,9.16774273 35.2718678,8.43593477 L35.2718678,2.36340708 C35.2718678,1.51332712 35.4899318,1.39320713 36.2975077,1.39320713 L36.4860037,1.39320713 L36.4860037,0.750103162 L32.6329239,0.750103162 L32.6329239,1.38396713 Z" id="Fill-21"></path>
                        <path d="M47.5071055,1.39302233 L47.6974495,1.39302233 C48.8376655,1.39302233 48.8376655,1.65174232 48.8376655,1.80512631 C48.8376655,1.9659023 48.7655935,2.21538229 48.6066655,2.62379027 L46.5221216,8.07354199 L44.1289617,2.11928629 C44.0032977,1.81251831 44.0679777,1.71087831 44.0883057,1.67761431 C44.2028817,1.50575032 44.6168337,1.40780633 45.3153777,1.39302233 L45.5001776,1.38932633 L45.5001776,0.749918362 L41.1887939,0.749918362 L41.1887939,1.39302233 L41.3791379,1.39302233 C42.1534498,1.39302233 42.2643298,1.52977432 42.6062098,2.38909428 L45.7552016,10.2357019 L46.7235536,10.2357019 L49.7154654,2.50182227 C50.0370174,1.67207032 50.3641134,1.39302233 51.0109134,1.39302233 L51.2012574,1.39302233 L51.2012574,0.749918362 L47.5071055,0.749918362 L47.5071055,1.39302233 Z" id="Fill-23"></path>
                        <path d="M63.0238368,7.65164361 C62.6708688,8.87686755 62.4084528,9.14297954 61.5509808,9.14297954 L59.3407729,9.14297954 C58.906493,9.14297954 58.753109,9.09123554 58.753109,8.53868357 L58.753109,5.66873971 L60.9910369,5.66873971 C61.4456448,5.66873971 61.6729488,5.66873971 61.7801328,6.63524366 L61.7986128,6.80341165 L62.4213888,6.80341165 L62.4213888,3.70985981 L61.7949168,3.70985981 L61.7801328,3.8817238 C61.7062128,4.72256376 61.4659728,4.78724376 61.1370289,4.78724376 L58.753109,4.78724376 L58.753109,1.63085992 L61.5953328,1.63085992 C61.9464528,1.63085992 62.2772448,1.73249991 62.4601968,2.95033185 L62.4860688,3.11110784 L63.1051488,3.11110784 L62.9683968,0.751211962 L55.7297811,0.751211962 L55.7297811,1.39246793 L56.2324371,1.39246793 C57.0566451,1.39246793 57.1878531,1.61977192 57.1878531,2.35157988 L57.1878531,8.39269157 C57.1878531,9.12449954 57.0936051,9.38137152 56.0328531,9.38137152 L55.4433411,9.38137152 L55.4433411,10.0226275 L63.4026767,10.0226275 L63.6724847,7.51673962 L63.0626448,7.51673962 L63.0238368,7.65164361 Z" id="Fill-25"></path>
                        <path d="M71.9749939,1.27216314 C72.1450099,1.25922714 72.2965459,1.25922714 72.4998259,1.25922714 C74.3053218,1.25922714 75.1073537,1.9300511 75.1073537,3.43432303 C75.1073537,4.91641895 74.3127138,5.63529091 72.6716899,5.63529091 L72.3187219,5.63898691 C72.2041459,5.63898691 72.0951139,5.63529091 71.9749939,5.62605091 L71.9749939,1.27216314 Z M77.6372656,8.15041879 L76.5062897,7.01759484 C75.9740657,6.48537087 75.5693537,6.09913889 75.1239857,5.73323491 C76.1736497,5.30449893 76.8352337,4.39713098 76.8352337,3.34746703 C76.8352337,1.63806712 75.3309617,0.617971169 72.8139859,0.617971169 C71.8973779,0.617971169 71.6072419,0.630907168 71.002946,0.660475166 L70.614866,0.682651165 C70.082642,0.714067164 69.476498,0.751027162 69.210386,0.751027162 L69.0218901,0.751027162 L69.0218901,1.39228313 L69.524546,1.39228313 C70.25081,1.39228313 70.40789,1.56229912 70.40789,2.34954708 L70.40789,8.37587477 C70.40789,9.24073873 70.180586,9.38118672 69.454322,9.38118672 L69.0218901,9.38118672 L69.0218901,10.0224427 L73.4441538,10.0224427 L73.4441538,9.38118672 L72.9304099,9.38118672 C72.1708819,9.38118672 71.9749939,9.19823473 71.9749939,8.49045077 L71.9749939,6.26176288 C72.1302259,6.27100288 72.2910019,6.27839488 72.5146099,6.27839488 C72.8269219,6.27839488 73.0357458,6.26915488 73.2926178,6.25806688 L73.4312178,6.25252288 C73.7989698,6.50939487 74.2905378,6.93997885 74.8209138,7.47405082 L75.7670897,8.42392277 C76.9701376,9.61957871 77.6391136,10.1943067 79.7125695,10.1943067 C79.9066095,10.1943067 80.1098895,10.1887627 80.3298015,10.1795227 L80.5090575,10.1702827 L80.5090575,9.55305071 L80.3316495,9.54381071 C79.3669935,9.47913072 78.5353936,9.05039474 77.6372656,8.15041879 L77.6372656,8.15041879 Z" id="Fill-27"></path>
                        <path d="M86.9160731,4.48269337 C85.8996732,3.8488294 84.9424092,3.25192543 84.9424092,2.41108548 C84.9424092,1.72178151 85.5060492,1.25978154 86.3487372,1.25978154 C87.2671931,1.25978154 88.0987931,1.8733175 88.4646971,2.82134146 L88.5108971,2.94146145 L89.096713,2.94146145 L88.804729,0.749733562 L88.3187051,0.749733562 L88.2632651,0.827349558 C88.2115211,0.897573554 88.2096731,0.897573554 88.1597771,0.897573554 C87.9953051,0.897573554 87.8640971,0.849525557 87.6792971,0.78484556 C87.3854651,0.681357565 86.9807531,0.539061573 86.2212252,0.539061573 C84.6707533,0.539061573 83.5028173,1.50926152 83.5028173,2.79546946 C83.5028173,4.20734139 84.8518572,5.05926934 86.0401212,5.8132533 C87.0842411,6.47298927 88.0710731,7.09761324 88.0710731,7.96986919 C88.0710731,8.94930915 87.1766411,9.46305312 86.2932972,9.46305312 C85.2103692,9.46305312 84.3381133,8.73124516 84.0738493,7.60026921 L84.0387373,7.45242922 L83.4048733,7.45242922 L83.7541453,10.0229971 L84.2734333,10.0229971 L84.3270253,9.9195091 C84.3528973,9.8659171 84.3935533,9.8381971 84.4416013,9.8381971 C84.4878013,9.8400451 84.6633613,9.8917891 84.8204412,9.9342931 C85.2399372,10.0544131 85.8738012,10.2318211 86.4208092,10.2318211 C88.1819531,10.2318211 89.508817,9.10084514 89.508817,7.60026921 C89.508817,6.09784529 88.1302091,5.23852533 86.9160731,4.48269337" id="Fill-29"></path>
                        <path d="M95.0931031,1.38396713 L95.2723591,1.39320713 C95.9986231,1.43201513 96.1649431,1.58909512 96.1649431,2.23589509 L96.1649431,8.33799078 C96.1649431,9.20655073 96.0503671,9.34330273 95.2723591,9.38026272 L95.0931031,9.38950272 L95.0931031,10.0233667 L98.9480309,10.0233667 L98.9480309,9.38026272 L98.7595349,9.38026272 C97.866951,9.38026272 97.732047,9.16774273 97.732047,8.43593477 L97.732047,2.36340708 C97.732047,1.51332712 97.950111,1.39320713 98.7595349,1.39320713 L98.9480309,1.39320713 L98.9480309,0.750103162 L95.0931031,0.750103162 L95.0931031,1.38396713 Z" id="Fill-31"></path>
                        <path d="M112.649102,0.537583173 L112.621382,0.694663165 C112.619534,0.707599164 112.553006,0.750103162 112.36451,0.750103162 L105.482559,0.750103162 C105.401247,0.750103162 105.319935,0.737167163 105.225687,0.696511165 L105.199815,0.537583173 L104.599215,0.537583173 L104.331255,3.22272704 L104.955879,3.22272704 L104.983599,3.06564704 C105.210903,1.73139111 105.469623,1.63159912 105.841071,1.63159912 L108.14183,1.63159912 L108.14183,8.52279077 C108.14183,9.15665473 107.997686,9.38026272 107.199351,9.38026272 L106.482327,9.38026272 L106.482327,10.0233667 L111.36659,10.0233667 L111.36659,9.38026272 L110.647718,9.38026272 C109.849382,9.38026272 109.707086,9.15665473 109.707086,8.52279077 L109.707086,1.63159912 L112.005998,1.63159912 C112.377446,1.63159912 112.638014,1.73139111 112.86347,3.06564704 L112.89119,3.22272704 L113.515814,3.22272704 L113.247854,0.537583173 L112.649102,0.537583173 Z" id="Fill-33"></path>
                        <path d="M124.52398,1.39302233 L124.712476,1.39302233 C125.279812,1.39302233 125.423956,1.49651032 125.459068,1.55564632 C125.488636,1.60923832 125.507116,1.75523031 125.283508,2.13961429 L123.409636,5.31447813 L121.306612,2.0342783 C121.071916,1.67207032 121.084852,1.56303832 121.099636,1.53347032 C121.118116,1.50020632 121.228996,1.39302233 121.894276,1.39302233 L122.082772,1.39302233 L122.082772,0.749918362 L117.909988,0.749918362 L117.909988,1.38747833 L118.09294,1.39302233 C118.920844,1.41889433 119.205436,1.54455832 119.902132,2.63857427 L122.396932,6.57296607 L122.396932,8.53738997 C122.396932,9.11026994 122.254636,9.38007792 121.458148,9.38007792 L121.001692,9.38007792 L121.001692,10.0231819 L125.303836,10.0231819 L125.303836,9.38007792 L124.928692,9.38007792 C124.102636,9.38007792 123.964036,9.11211794 123.964036,8.50966997 L123.964036,6.41219007 L126.32578,2.43159828 C126.69538,1.81067031 127.06498,1.45955033 127.959412,1.39302233 L128.134972,1.38008633 L128.134972,0.749918362 L124.52398,0.749918362 L124.52398,1.39302233 Z" id="Fill-35"></path>
                        <path d="M140.935698,1.25941194 C143.208737,1.25941194 144.799865,3.04827585 144.799865,5.60960371 C144.799865,7.48901962 143.777921,9.51442752 141.536298,9.51442752 C139.294674,9.51442752 137.601906,7.63131561 137.601906,5.13651574 C137.601906,3.57865182 138.490794,1.25941194 140.935698,1.25941194 M141.307146,0.538691973 C138.16185,0.538691973 135.877722,2.66019586 135.877722,5.58003572 C135.877722,8.23191558 138.18033,10.2332995 141.236922,10.2332995 C144.251009,10.2332995 146.524049,8.04341959 146.524049,5.13651574 C146.524049,2.55855587 144.232529,0.538691973 141.307146,0.538691973" id="Fill-37"></path>
                        <path d="M154.813807,1.63122952 C155.565943,1.63122952 155.800639,1.86407751 155.813575,2.62360547 L155.817271,2.80840546 L156.428959,2.80840546 L156.428959,0.749733562 L149.644952,0.749733562 L149.644952,1.39098953 L149.8316,1.39283753 C150.63548,1.40392553 150.716791,1.62198952 150.716791,2.55153347 L150.716791,8.16206119 C150.716791,9.28934113 150.58004,9.33369313 149.85008,9.37989312 L149.67452,9.39282912 L149.67452,10.0229971 L153.531295,10.0229971 L153.531295,9.37989312 L153.342799,9.37989312 C152.367055,9.37989312 152.285743,9.15628513 152.285743,8.46328517 L152.285743,5.50833332 L154.747279,5.50833332 C155.286895,5.50833332 155.547463,5.64508531 155.575183,6.41754927 L155.580727,6.59865326 L156.190567,6.59865326 L156.190567,3.70838141 L155.588119,3.70838141 L155.575183,3.8857894 C155.530831,4.53628537 155.238847,4.62683736 154.932079,4.62683736 L152.285743,4.62683736 L152.285743,1.63122952 L154.813807,1.63122952 Z" id="Fill-39"></path>
                    </g>
                </g>
            </g>
        </g>
    </g>
</svg>