<?xml version="1.0" encoding="UTF-8"?>
<svg width="214px" height="46px" viewBox="0 0 214 46" version="1.1" xmlns="http://www.w3.org/2000/svg" xmlns:xlink="http://www.w3.org/1999/xlink">
    <!-- Generator: Sketch 54.1 (76490) - https://sketchapp.com -->
    <title>Footer-collegeSocialScience</title>
    <desc>Created with Sketch.</desc>
    <defs>
        <polygon id="path-1" points="0.0143731343 34.5946705 0.0143731343 0.233611364 29.5918881 0.233611364 29.5918881 34.5946705"></polygon>
        <polygon id="path-3" points="0.0143731343 34.5946705 0.0143731343 0.233611364 29.5918881 0.233611364 29.5918881 34.5946705"></polygon>
    </defs>
    <g id="Page-1" stroke="none" stroke-width="1" fill="none" fill-rule="evenodd">
        <g id="Desktop" transform="translate(-753.000000, -656.000000)">
            <g id="Footer-collegeSocialScience" transform="translate(753.000000, 656.000000)">
                <polygon id="Line-3" fill="#FFFFFF" fill-rule="nonzero" points="38.3017413 0.213636364 38.3017413 45.9420443 38.8340796 45.9420443 38.8340796 0.213636364"></polygon>
                <path d="M54.5163403,21.4183273 C56.179791,21.4183273 57.2529851,20.7588319 58.2456895,19.7763181 L57.7761672,19.3187091 C56.8237075,20.2608455 55.8980776,20.78575 54.5431701,20.78575 C52.3028776,20.78575 50.5723523,18.9283955 50.5723523,16.5461364 L50.5723523,16.5192181 C50.5723523,14.1504181 52.2760477,12.3065227 54.5297552,12.3065227 C55.9383224,12.3065227 56.8773672,12.8987227 57.6956776,13.6928091 L58.1920299,13.1813636 C57.2261552,12.2930636 56.2200358,11.6739455 54.5431701,11.6739455 C51.8333552,11.6739455 49.8479463,13.8812364 49.8479463,16.5461364 L49.8479463,16.5730545 C49.8479463,19.2783319 51.8333552,21.4183273 54.5163403,21.4183273 Z M62.9140836,21.4183273 C60.8884299,21.4183273 59.4127881,19.7763181 59.4127881,17.8516681 L59.4127881,17.82475 C59.4127881,15.9001 60.9018448,14.2311727 62.9409134,14.2311727 C64.9665672,14.2311727 66.442209,15.8731819 66.442209,17.7978319 L66.442209,17.82475 C66.442209,19.7494 64.9531523,21.4183273 62.9140836,21.4183273 Z M62.9409134,20.7992091 C64.5641194,20.7992091 65.731218,19.4667591 65.731218,17.8516681 L65.731218,17.82475 C65.731218,16.1692819 64.4970448,14.8502909 62.9140836,14.8502909 C61.2908776,14.8502909 60.1237791,16.1827409 60.1237791,17.7978319 L60.1237791,17.82475 C60.1237791,19.4802181 61.3579523,20.7992091 62.9409134,20.7992091 Z M68.5617672,21.2568181 L69.2190985,21.2568181 L69.2190985,11.4316819 L68.5617672,11.4316819 L68.5617672,21.2568181 Z M71.9020836,21.2568181 L72.5594149,21.2568181 L72.5594149,11.4316819 L71.9020836,11.4316819 L71.9020836,21.2568181 Z M78.0327044,21.4183273 C76.2351044,21.4183273 74.6789732,19.9782045 74.6789732,17.8382091 L74.6789732,17.8112909 C74.6789732,15.8193455 76.0741253,14.2311727 77.9253851,14.2311727 C79.8437194,14.2311727 81.0644776,15.7924273 81.0644776,17.82475 C81.0644776,17.9458819 81.0644776,17.9862591 81.0510627,18.0939319 L75.3765492,18.0939319 C75.4972836,19.8032364 76.7180418,20.7992091 78.0595343,20.7992091 C79.1193134,20.7992091 79.8437194,20.3281409 80.4071463,19.7224819 L80.8632537,20.1262545 C80.1656776,20.8799636 79.3473672,21.4183273 78.0327044,21.4183273 Z M75.3765492,17.5017319 L80.3534866,17.5017319 C80.259582,16.1154455 79.4681015,14.8368319 77.8985552,14.8368319 C76.5436477,14.8368319 75.4972836,15.9808545 75.3765492,17.5017319 Z M85.9877552,23.4371909 C84.8474866,23.4371909 83.7877075,23.0872545 82.8486627,22.3873819 L83.2376956,21.8490181 C84.056006,22.4815955 84.9950508,22.8180727 86.0011701,22.8180727 C87.5707164,22.8180727 88.6841552,21.9163136 88.6841552,20.1531727 L88.6841552,19.1572 C88.0938985,20.0051227 87.1816836,20.7453727 85.8267761,20.7453727 C84.1767403,20.7453727 82.5401194,19.4802181 82.5401194,17.5151909 L82.5401194,17.4882727 C82.5401194,15.5097864 84.1767403,14.2311727 85.8267761,14.2311727 C87.1950985,14.2311727 88.1207284,14.9579636 88.6841552,15.7655091 L88.6841552,14.3926819 L89.3414866,14.3926819 L89.3414866,20.19355 C89.3414866,21.1895227 89.0195284,21.97015 88.4695164,22.5219727 C87.8792597,23.1141727 86.9938747,23.4371909 85.9877552,23.4371909 Z M85.8938508,20.1127955 C87.3158328,20.1127955 88.7244,19.0629864 88.7244,17.5017319 L88.7244,17.4748136 C88.7244,15.8866409 87.3158328,14.86375 85.8938508,14.86375 C84.4584537,14.86375 83.2511105,15.8597227 83.2511105,17.4613545 L83.2511105,17.4882727 C83.2511105,19.0360681 84.4852836,20.1127955 85.8938508,20.1127955 Z M94.7208716,21.4183273 C92.9232716,21.4183273 91.3671403,19.9782045 91.3671403,17.8382091 L91.3671403,17.8112909 C91.3671403,15.8193455 92.7622925,14.2311727 94.6135523,14.2311727 C96.5318866,14.2311727 97.7526448,15.7924273 97.7526448,17.82475 C97.7526448,17.9458819 97.7526448,17.9862591 97.7392299,18.0939319 L92.0647164,18.0939319 C92.1854508,19.8032364 93.406209,20.7992091 94.7477015,20.7992091 C95.8074806,20.7992091 96.5318866,20.3281409 97.0953134,19.7224819 L97.5514209,20.1262545 C96.8538448,20.8799636 96.0355343,21.4183273 94.7208716,21.4183273 Z M92.0647164,17.5017319 L97.0416537,17.5017319 C96.9477492,16.1154455 96.1562686,14.8368319 94.5867224,14.8368319 C93.2318149,14.8368319 92.1854508,15.9808545 92.0647164,17.5017319 Z M106.72723,21.4183273 C104.701576,21.4183273 103.225934,19.7763181 103.225934,17.8516681 L103.225934,17.82475 C103.225934,15.9001 104.714991,14.2311727 106.75406,14.2311727 C108.779713,14.2311727 110.255355,15.8731819 110.255355,17.7978319 L110.255355,17.82475 C110.255355,19.7494 108.766299,21.4183273 106.72723,21.4183273 Z M106.75406,20.7992091 C108.377266,20.7992091 109.544364,19.4667591 109.544364,17.8516681 L109.544364,17.82475 C109.544364,16.1692819 108.310191,14.8502909 106.72723,14.8502909 C105.104024,14.8502909 103.936925,16.1827409 103.936925,17.7978319 L103.936925,17.82475 C103.936925,19.4802181 105.171099,20.7992091 106.75406,20.7992091 Z M112.683457,21.2568181 L113.340788,21.2568181 L113.340788,14.9983409 L115.728644,14.9983409 L115.728644,14.3926819 L113.340788,14.3926819 L113.340788,13.7331864 C113.340788,12.5622455 113.783481,11.9969636 114.722525,11.9969636 C115.071314,11.9969636 115.353027,12.0508 115.74206,12.1719319 L115.74206,11.5528136 C115.433516,11.4451409 115.138388,11.3913045 114.722525,11.3913045 C114.118853,11.3913045 113.635916,11.5797319 113.287128,11.9296681 C112.898095,12.3199819 112.683457,12.9391 112.683457,13.7197273 L112.683457,14.3926819 L111.690752,14.3926819 L111.690752,14.9983409 L112.683457,14.9983409 L112.683457,21.2568181 Z M124.488591,21.3914091 C126.299606,21.3914091 127.600853,20.3416 127.600853,18.8207227 L127.600853,18.7938045 C127.600853,17.4209773 126.688639,16.64035 124.51542,16.1962 C122.288543,15.7385909 121.778776,15.1329319 121.778776,14.1369591 L121.778776,14.1100409 C121.778776,13.1275273 122.690991,12.3334409 124.072728,12.3334409 C125.105677,12.3334409 125.991063,12.6295409 126.876448,13.3967091 L127.31914,12.8448864 C126.366681,12.0777181 125.467881,11.7008636 124.099558,11.7008636 C122.355618,11.7008636 121.0812,12.7775909 121.0812,14.1773364 L121.0812,14.2042545 C121.0812,15.6309181 121.993415,16.3980864 124.247123,16.8556955 C126.380095,17.2863864 126.903277,17.8651273 126.903277,18.8611 L126.903277,18.8880181 C126.903277,19.9647455 125.937403,20.7588319 124.528836,20.7588319 C123.147099,20.7588319 122.194639,20.3146819 121.16169,19.3590864 L120.705582,19.8839909 C121.832436,20.8934227 122.986119,21.3914091 124.488591,21.3914091 Z M132.779015,21.4183273 C130.753361,21.4183273 129.277719,19.7763181 129.277719,17.8516681 L129.277719,17.82475 C129.277719,15.9001 130.766776,14.2311727 132.805844,14.2311727 C134.831499,14.2311727 136.30714,15.8731819 136.30714,17.7978319 L136.30714,17.82475 C136.30714,19.7494 134.818084,21.4183273 132.779015,21.4183273 Z M132.805844,20.7992091 C134.429051,20.7992091 135.596149,19.4667591 135.596149,17.8516681 L135.596149,17.82475 C135.596149,16.1692819 134.361976,14.8502909 132.779015,14.8502909 C131.155809,14.8502909 129.98871,16.1827409 129.98871,17.7978319 L129.98871,17.82475 C129.98871,19.4802181 131.222884,20.7992091 132.805844,20.7992091 Z M141.351152,21.4183273 C142.612156,21.4183273 143.443881,20.8530455 144.141457,20.0589591 L143.685349,19.6551864 C143.108508,20.3012227 142.357272,20.7992091 141.391397,20.7992091 C139.821851,20.7992091 138.574263,19.4802181 138.574263,17.82475 L138.574263,17.7978319 C138.574263,16.1558227 139.781606,14.8502909 141.337737,14.8502909 C142.357272,14.8502909 143.028018,15.3751955 143.618275,15.9808545 L144.087797,15.4963273 C143.443881,14.8233727 142.638985,14.2311727 141.351152,14.2311727 C139.392573,14.2311727 137.863272,15.9001 137.863272,17.82475 L137.863272,17.8516681 C137.863272,19.7763181 139.379158,21.4183273 141.351152,21.4183273 Z M146.006132,12.6026227 L146.824442,12.6026227 L146.824442,11.7008636 L146.006132,11.7008636 L146.006132,12.6026227 Z M146.08662,21.2568181 L146.743952,21.2568181 L146.743952,14.3926819 L146.08662,14.3926819 L146.08662,21.2568181 Z M151.412347,21.4183273 C150.137928,21.4183273 148.769606,20.6915364 148.769606,19.2648727 L148.769606,19.2379545 C148.769606,17.8112909 149.990364,17.0037455 151.761134,17.0037455 C152.713594,17.0037455 153.370925,17.1248773 154.028257,17.2998455 L154.028257,17.0037455 C154.028257,15.6174591 153.183116,14.9041273 151.774549,14.9041273 C150.942824,14.9041273 150.258663,15.1329319 149.628161,15.45595 L149.386692,14.8772091 C150.137928,14.5272727 150.875749,14.2850091 151.814794,14.2850091 C152.740424,14.2850091 153.478244,14.5407319 153.974597,15.0387181 C154.430705,15.4963273 154.672173,16.1289045 154.672173,16.9768273 L154.672173,21.2568181 L154.028257,21.2568181 L154.028257,20.1127955 C153.558734,20.7722909 152.713594,21.4183273 151.412347,21.4183273 Z M151.452591,20.7992091 C152.847743,20.7992091 154.041672,19.9378273 154.041672,18.6861319 L154.041672,17.9055045 C153.46483,17.7574545 152.70018,17.5959455 151.72089,17.5959455 C150.272077,17.5959455 149.467182,18.2419819 149.467182,19.1975773 L149.467182,19.2244955 C149.467182,20.2204681 150.406227,20.7992091 151.452591,20.7992091 Z M157.127105,21.2568181 L157.784436,21.2568181 L157.784436,11.4316819 L157.127105,11.4316819 L157.127105,21.2568181 Z M167.724895,21.3914091 C169.53591,21.3914091 170.837158,20.3416 170.837158,18.8207227 L170.837158,18.7938045 C170.837158,17.4209773 169.924943,16.64035 167.751725,16.1962 C165.524848,15.7385909 165.015081,15.1329319 165.015081,14.1369591 L165.015081,14.1100409 C165.015081,13.1275273 165.927295,12.3334409 167.309033,12.3334409 C168.341982,12.3334409 169.227367,12.6295409 170.112752,13.3967091 L170.555444,12.8448864 C169.602985,12.0777181 168.704185,11.7008636 167.335863,11.7008636 C165.591923,11.7008636 164.317505,12.7775909 164.317505,14.1773364 L164.317505,14.2042545 C164.317505,15.6309181 165.229719,16.3980864 167.483427,16.8556955 C169.6164,17.2863864 170.139582,17.8651273 170.139582,18.8611 L170.139582,18.8880181 C170.139582,19.9647455 169.173708,20.7588319 167.76514,20.7588319 C166.383403,20.7588319 165.430943,20.3146819 164.397994,19.3590864 L163.941886,19.8839909 C165.06874,20.8934227 166.222424,21.3914091 167.724895,21.3914091 Z M176.001905,21.4183273 C177.262908,21.4183273 178.094633,20.8530455 178.792209,20.0589591 L178.336101,19.6551864 C177.75926,20.3012227 177.008024,20.7992091 176.042149,20.7992091 C174.472603,20.7992091 173.225015,19.4802181 173.225015,17.82475 L173.225015,17.7978319 C173.225015,16.1558227 174.432358,14.8502909 175.98849,14.8502909 C177.008024,14.8502909 177.67877,15.3751955 178.269027,15.9808545 L178.738549,15.4963273 C178.094633,14.8233727 177.289737,14.2311727 176.001905,14.2311727 C174.043325,14.2311727 172.514024,15.9001 172.514024,17.82475 L172.514024,17.8516681 C172.514024,19.7763181 174.02991,21.4183273 176.001905,21.4183273 Z M180.656884,12.6026227 L181.475194,12.6026227 L181.475194,11.7008636 L180.656884,11.7008636 L180.656884,12.6026227 Z M180.737373,21.2568181 L181.394705,21.2568181 L181.394705,14.3926819 L180.737373,14.3926819 L180.737373,21.2568181 Z M186.867994,21.4183273 C185.070394,21.4183273 183.514263,19.9782045 183.514263,17.8382091 L183.514263,17.8112909 C183.514263,15.8193455 184.909415,14.2311727 186.760675,14.2311727 C188.679009,14.2311727 189.899767,15.7924273 189.899767,17.82475 C189.899767,17.9458819 189.899767,17.9862591 189.886352,18.0939319 L184.211839,18.0939319 C184.332573,19.8032364 185.553332,20.7992091 186.894824,20.7992091 C187.954603,20.7992091 188.679009,20.3281409 189.242436,19.7224819 L189.698543,20.1262545 C189.000967,20.8799636 188.182657,21.4183273 186.867994,21.4183273 Z M184.211839,17.5017319 L189.188776,17.5017319 C189.094872,16.1154455 188.303391,14.8368319 186.733844,14.8368319 C185.378937,14.8368319 184.332573,15.9808545 184.211839,17.5017319 Z M191.818101,21.2568181 L192.475433,21.2568181 L192.475433,17.2863864 C192.475433,15.8597227 193.508382,14.8368319 194.849875,14.8368319 C196.231612,14.8368319 197.023092,15.7655091 197.023092,17.1787136 L197.023092,21.2568181 L197.680424,21.2568181 L197.680424,17.0575819 C197.680424,15.4155727 196.674305,14.2311727 194.94378,14.2311727 C193.696191,14.2311727 192.93154,14.86375 192.475433,15.6712955 L192.475433,14.3926819 L191.818101,14.3926819 L191.818101,21.2568181 Z M203.059809,21.4183273 C204.320812,21.4183273 205.152537,20.8530455 205.850114,20.0589591 L205.394006,19.6551864 C204.817164,20.3012227 204.065928,20.7992091 203.100053,20.7992091 C201.530508,20.7992091 200.282919,19.4802181 200.282919,17.82475 L200.282919,17.7978319 C200.282919,16.1558227 201.490263,14.8502909 203.046394,14.8502909 C204.065928,14.8502909 204.736675,15.3751955 205.326932,15.9808545 L205.796453,15.4963273 C205.152537,14.8233727 204.347642,14.2311727 203.059809,14.2311727 C201.10123,14.2311727 199.571928,15.9001 199.571928,17.82475 L199.571928,17.8516681 C199.571928,19.7763181 201.087815,21.4183273 203.059809,21.4183273 Z M210.384358,21.4183273 C208.586758,21.4183273 207.030627,19.9782045 207.030627,17.8382091 L207.030627,17.8112909 C207.030627,15.8193455 208.42578,14.2311727 210.277039,14.2311727 C212.195373,14.2311727 213.416132,15.7924273 213.416132,17.82475 C213.416132,17.9458819 213.416132,17.9862591 213.402716,18.0939319 L207.728203,18.0939319 C207.848937,19.8032364 209.069695,20.7992091 210.411188,20.7992091 C211.470967,20.7992091 212.195373,20.3281409 212.7588,19.7224819 L213.214908,20.1262545 C212.517332,20.8799636 211.69902,21.4183273 210.384358,21.4183273 Z M207.728203,17.5017319 L212.70514,17.5017319 C212.611236,16.1154455 211.819756,14.8368319 210.250209,14.8368319 C208.895301,14.8368319 207.848937,15.9808545 207.728203,17.5017319 Z" id="College-of-Social-Sc" fill="#FFFFFF" fill-rule="nonzero"></path>
                <g id="MSU_typegraphic" transform="translate(49.826866, 25.956819)" fill="#FFFFFF" fill-rule="nonzero">
                    <path d="M88.7886198,0.923630114 L88.7886198,5.80783806 C88.7886198,6.62331477 89.0333001,7.77947471 90.3780308,7.77947471 C91.611543,7.77947471 92.0564163,6.86990455 92.0564163,5.71266306 L92.0351838,0.923630114 C92.0351838,0.654328125 91.9087993,0.489934944 91.7551158,0.39908608 L92.9572847,0.39908608 C92.7985459,0.489934944 92.6873275,0.654328125 92.6873275,0.923630114 L92.6549732,5.69103239 C92.6549732,7.67240284 91.611543,8.44245511 90.2041257,8.44245511 C88.9958904,8.44245511 87.454,7.83571449 87.454,5.77106591 L87.454,0.923630114 C87.454,0.654328125 87.2902057,0.489934944 87.120345,0.39908608 L89.1081197,0.39908608 C88.9423033,0.489934944 88.7886198,0.654328125 88.7886198,0.923630114" id="Fill-1"></path>
                    <path d="M99.7203698,0.923630114 C99.7203698,0.654328125 99.6182512,0.489934944 99.4504127,0.39908608 L100.600006,0.39908608 C100.441267,0.489934944 100.329037,0.654328125 100.329037,0.923630114 L100.329037,8.65227273 C100.329037,8.65227273 95.3656669,2.05599631 95.3656669,1.95865824 L95.3656669,7.80543154 C95.3656669,8.05634744 95.4789074,8.22290369 95.6568567,8.32673096 L94.5052416,8.32673096 C94.6619583,8.22290369 94.778232,8.05634744 94.778232,7.80543154 L94.778232,1.5736321 C94.778232,1.11938779 94.7883428,1.10749091 94.5891609,0.841433523 C94.4870422,0.700834091 94.3444805,0.540767045 94.1260882,0.39908608 L95.9025481,0.39908608 L99.7203698,5.52555767 L99.7203698,0.923630114" id="Fill-2"></path>
                    <path d="M103.930489,0.39908608 C103.754562,0.489934944 103.661543,0.654328125 103.661543,0.923630114 L103.661543,7.80543154 C103.661543,8.05634744 103.754562,8.22290369 103.930489,8.32673096 L102.059999,8.32673096 C102.225815,8.22290369 102.329956,8.05634744 102.329956,7.80543154 L102.329956,0.923630114 C102.329956,0.654328125 102.225815,0.489934944 102.059999,0.39908608 L103.930489,0.39908608" id="Fill-3"></path>
                    <path d="M110.217357,0.98095142 C110.312398,0.677040341 110.269933,0.511565625 110.000987,0.39908608 L111.264832,0.39908608 C110.998919,0.597006819 110.974653,0.677040341 110.872534,0.958239205 C110.698629,1.41248352 108.203295,8.57115767 108.203295,8.57115767 C108.203295,8.57115767 105.503723,1.38868977 105.307574,0.958239205 C105.184223,0.722464773 105.057838,0.540767045 104.746427,0.39908608 L107.034491,0.39908608 C106.767567,0.511565625 106.747346,0.757073864 106.816099,1.03827273 C106.838342,1.14101846 108.56526,5.93762216 108.56526,5.93762216 C108.56526,5.93762216 110.211291,1.06314801 110.217357,0.98095142" id="Fill-4"></path>
                    <path d="M116.452661,1.42546194 C116.256512,1.11938779 116.043175,1.02962045 115.645823,1.00474517 C115.339467,0.98095142 113.892617,0.98095142 113.892617,0.98095142 L113.892617,3.66207444 L115.453718,3.66207444 C115.597291,3.66207444 115.773218,3.4738875 115.824783,3.33545114 L115.824783,4.57380767 C115.773218,4.40941449 115.597291,4.2320429 115.453718,4.2320429 L113.892617,4.2320429 L113.892617,7.66050596 C114.094833,7.69511506 114.725744,7.74270256 115.233304,7.72107188 C116.133161,7.69511506 116.546691,7.72107188 116.93191,6.98454716 L116.711496,8.32673096 L112.266808,8.32673096 C112.441724,8.20776221 112.578219,8.08014119 112.578219,7.80543154 L112.578219,0.923630114 C112.578219,0.654328125 112.431612,0.489934944 112.266808,0.39908608 L116.420307,0.39908608 L116.452661,1.42546194" id="Fill-5"></path>
                    <path d="M119.485888,0.98095142 L119.485888,4.02114375 C119.485888,4.02114375 119.777077,4.04926364 119.951994,4.04926364 C120.655702,4.04926364 121.400866,3.60150852 121.400866,2.42804404 C121.400866,1.88944006 121.107653,0.958239205 120.084445,0.958239205 C119.777077,0.958239205 119.485888,0.98095142 119.485888,0.98095142 Z M121.01969,4.30558721 C121.720365,4.38237614 122.031777,4.92206165 122.186471,5.17946676 C122.186471,5.17946676 123.42605,7.39228551 123.787004,7.85950824 C123.983152,8.13854404 124.449259,8.32673096 124.449259,8.32673096 L123.10756,8.35052471 C122.715264,8.35052471 122.375543,8.08014119 122.186471,7.80543154 C121.720365,7.06890681 121.268414,6.21449489 120.893305,5.56232983 C120.624359,5.09618864 120.385745,4.59219375 119.944916,4.59219375 C119.819542,4.59219375 119.485888,4.6192321 119.485888,4.6192321 L119.485888,7.80543154 C119.485888,8.05634744 119.60115,8.22290369 119.777077,8.32673096 L117.906587,8.32673096 C118.070382,8.22290369 118.175534,8.05634744 118.175534,7.80543154 L118.175534,0.923630114 C118.175534,0.654328125 118.070382,0.489934944 117.906587,0.39908608 L120.141064,0.39908608 C122.281513,0.39908608 122.763795,1.5736321 122.763795,2.35558125 C122.763795,3.61448694 121.748675,4.24393977 121.01969,4.30558721 L121.01969,4.30558721 Z" id="Fill-6"></path>
                    <path d="M129.250856,5.99169886 C129.250856,7.45068835 128.113397,8.44245511 126.840452,8.44245511 C125.903185,8.44245511 125.219698,8.08014119 124.859755,7.88222045 L124.806168,5.91166534 C124.998273,6.74120199 125.625139,7.83571449 126.696879,7.83571449 C127.720088,7.83571449 128.031499,7.01050398 128.031499,6.43729091 C128.031499,5.31898466 127.131642,5.16648835 126.189319,4.59219375 C125.236886,3.99951306 124.824367,3.37114176 124.824367,2.48320227 C124.824367,0.899836364 126.140787,0.272546591 127.08311,0.272546591 C127.429909,0.272546591 128.113397,0.349335511 128.642189,0.700834091 L128.690721,2.42804404 C128.547148,1.808325 127.958702,0.871716477 126.967848,0.871716477 C126.179209,0.871716477 125.87083,1.49359858 125.87083,1.9954304 C125.87083,2.70816136 126.315704,2.97421875 127.286336,3.4738875 C128.249892,3.9908608 129.250856,4.3715608 129.250856,5.99169886" id="Fill-7"></path>
                    <path d="M132.151633,0.39908608 C131.975706,0.489934944 131.880664,0.654328125 131.880664,0.923630114 L131.880664,7.80543154 C131.880664,8.05634744 131.975706,8.22290369 132.151633,8.32673096 L130.281143,8.32673096 C130.442915,8.22290369 130.546045,8.05634744 130.546045,7.80543154 L130.546045,0.923630114 C130.546045,0.654328125 130.442915,0.489934944 130.281143,0.39908608 L132.151633,0.39908608" id="Fill-8"></path>
                    <path d="M136.663052,0.98095142 L136.663052,7.80543154 C136.663052,8.05634744 136.778315,8.22290369 136.936042,8.32673096 L135.083752,8.32673096 C135.247546,8.22290369 135.352698,8.05634744 135.352698,7.80543154 L135.352698,0.98095142 C134.585291,0.98095142 133.696556,1.06314801 133.696556,1.06314801 C133.44682,1.06314801 133.271905,1.3292054 133.177874,1.5260446 L133.177874,0.39908608 L138.844953,0.39908608 L138.844953,1.5260446 C138.753956,1.3292054 138.610384,1.0880233 138.357615,1.06314801 C138.357615,1.06314801 137.42237,0.98095142 136.663052,0.98095142" id="Fill-9"></path>
                    <path d="M145.598939,0.39908608 C145.279439,0.511565625 145.033747,0.841433523 144.915451,1.10749091 L143.258299,4.65167813 L143.258299,7.80543154 C143.258299,8.05634744 143.45748,8.22290369 143.622286,8.32673096 L141.552614,8.32673096 C141.710342,8.22290369 141.910535,8.08014119 141.910535,7.80543154 L141.910535,4.70142869 L139.881306,0.958239205 C139.733689,0.677040341 139.62247,0.558071591 139.345436,0.39908608 L141.678998,0.39908608 C141.423196,0.511565625 141.244236,0.572131534 141.509138,1.11938779 L142.971154,3.9908608 L144.333072,0.98095142 C144.484733,0.722464773 144.402836,0.478038069 144.118724,0.39908608 L145.598939,0.39908608" id="Fill-10"></path>
                    <path d="M5.81166287,0.502913352 L7.5385801,0.502913352 C7.37276369,0.592680681 7.27367827,0.753829261 7.27367827,1.01988665 L7.27367827,7.8108392 C7.27367827,8.06608125 7.37276369,8.22831136 7.5385801,8.32889404 L5.71156638,8.32889404 C5.87434957,8.22831136 5.97545713,8.06608125 5.97545713,7.8108392 L5.97545713,2.02030569 C5.97545713,1.88403239 5.99668971,1.75641136 5.99668971,1.75641136 L5.90265968,2.02030569 L3.45383445,8.49328721 L0.982765537,2.20524801 L0.910979166,1.8970108 C0.910979166,1.8970108 0.910979166,2.10142074 0.910979166,2.20524801 L0.910979166,7.8108392 C0.910979166,8.06608125 1.02320856,8.22831136 1.19812466,8.32889404 L0.061675615,8.32889404 C0.217381266,8.22831136 0.327588512,8.06608125 0.327588512,7.8108392 L0.327588512,1.01988665 C0.327588512,0.801416761 0.164805332,0.592680681 0,0.502913352 L1.80072574,0.502913352 L3.83905427,5.78620739 L5.81166287,0.502913352" id="Fill-11"></path>
                    <path d="M11.038924,0.502913352 C10.8660301,0.592680681 10.7740222,0.753829261 10.7740222,1.01988665 L10.7740222,7.8108392 C10.7740222,8.06608125 10.8660301,8.22831136 11.038924,8.32889404 L9.19168879,8.32889404 C9.35548305,8.22831136 9.45760169,8.06608125 9.45760169,7.8108392 L9.45760169,1.01988665 C9.45760169,0.753829261 9.35548305,0.592680681 9.19168879,0.502913352 L11.038924,0.502913352" id="Fill-12"></path>
                    <path d="M18.8727382,2.7568304 C18.2489046,1.15724148 17.052802,0.995011364 16.5644525,0.995011364 C14.8183248,0.995011364 13.8294929,2.43885938 13.8294929,4.28828267 C13.8294929,5.86840398 14.5311794,7.8108392 16.6342168,7.8108392 C17.1175109,7.8108392 18.2701371,7.62914148 18.9425024,6.0501017 C18.963735,6.00467727 18.8515056,7.70809346 18.8515056,7.70809346 C18.0042242,8.24886051 17.0972893,8.44353665 16.2580965,8.44353665 C14.2440338,8.44353665 12.4594853,6.89153523 12.4594853,4.43969744 C12.4594853,2.42263636 13.7850055,0.376373864 16.3824589,0.376373864 C17.2196295,0.376373864 17.9829916,0.558071591 18.7817414,0.974462216 C18.7817414,0.974462216 18.8919487,2.80333636 18.8727382,2.7568304" id="Fill-13"></path>
                    <path d="M24.8552729,0.502913352 L26.7045303,0.502913352 C26.5296142,0.592680681 26.4163737,0.753829261 26.4163737,1.01988665 L26.4163737,7.8108392 C26.4163737,8.06608125 26.5296142,8.22831136 26.7045303,8.32889404 L24.8552729,8.32889404 C25.0190672,8.22831136 25.1211857,8.06608125 25.1211857,7.8108392 L25.1211857,4.28828267 L21.9443861,4.28828267 L21.9443861,7.8108392 C21.9443861,8.06608125 22.0353828,8.22831136 22.2102989,8.32889404 L20.3610415,8.32889404 C20.5258469,8.22831136 20.6289766,8.06608125 20.6289766,7.8108392 L20.6289766,1.01988665 C20.6289766,0.753829261 20.5258469,0.592680681 20.3610415,0.502913352 L22.2102989,0.502913352 C22.0353828,0.592680681 21.9443861,0.753829261 21.9443861,1.01988665 L21.9443861,3.72588494 L25.1211857,3.72588494 L25.1211857,1.01988665 C25.1211857,0.753829261 25.0190672,0.592680681 24.8552729,0.502913352" id="Fill-14"></path>
                    <path d="M30.1947634,0.502913352 C30.0208584,0.592680681 29.9288505,0.753829261 29.9288505,1.01988665 L29.9288505,7.8108392 C29.9288505,8.06608125 30.0208584,8.22831136 30.1947634,8.32889404 L28.3475282,8.32889404 C28.5123335,8.22831136 28.6114189,8.06608125 28.6114189,7.8108392 L28.6114189,1.01988665 C28.6114189,0.753829261 28.5123335,0.592680681 28.3475282,0.502913352 L30.1947634,0.502913352" id="Fill-15"></path>
                    <g id="Group-19" transform="translate(31.343345, 0.000000)">
                        <path d="M6.62153448,0.974462216 L6.69332084,2.80333636 C6.17362796,1.23943806 4.87742897,0.995011364 4.39716803,0.995011364 C2.66418435,0.995011364 1.66220837,2.43885938 1.66220837,4.28828267 C1.66220837,5.86840398 2.35580628,7.8108392 4.46794333,7.8108392 C4.68229136,7.8108392 5.28590353,7.79029006 5.76717554,7.43446534 L5.76717554,5.4314642 C5.76717554,5.16432529 5.66202367,5.00209517 5.50126265,4.89934944 L7.32827636,4.89934944 C7.17560393,5.00209517 7.06236346,5.16432529 7.06236346,5.4314642 L7.06236346,7.1348804 C7.06236346,7.36308409 7.17560393,7.57073864 7.22716879,7.60534773 C6.36674341,8.14611477 4.91584984,8.44353665 4.09991178,8.44353665 C2.06663864,8.44353665 0.271979352,6.89153523 0.271979352,4.43969744 C0.271979352,2.42263636 1.60963245,0.376373864 4.22326302,0.376373864 C5.06043366,0.376373864 5.81671825,0.581865341 6.62153448,0.974462216" id="Fill-16"></path>
                        <path d="M11.8326184,5.56881904 C11.347302,4.28828267 10.7901994,2.74925966 10.7901994,2.74925966 C10.7901994,2.74925966 10.0955904,4.70251023 9.76699083,5.56881904 L11.8326184,5.56881904 Z M14.0772064,7.76757784 C14.1773028,8.00984148 14.2511114,8.13205483 14.5867884,8.32889404 L12.4008429,8.32889404 C12.6677669,8.16882699 12.7162985,8.00984148 12.6505786,7.76757784 C12.615191,7.65293523 12.3523113,6.94885654 12.0651658,6.16798892 L9.56275356,6.16798892 C9.25538656,6.94885654 9.01070625,7.62914148 8.98947366,7.75568096 C8.89847685,8.03147216 8.95105279,8.1915392 9.22505429,8.32889404 L7.8166259,8.32889404 C8.10174923,8.11042415 8.19476819,7.98496619 8.29789791,7.76757784 C8.49000228,7.32739346 11.1774414,0.259568181 11.1774414,0.259568181 C11.1774414,0.259568181 13.8931906,7.32739346 14.0772064,7.76757784 L14.0772064,7.76757784 Z" id="Fill-18"></path>
                    </g>
                    <path d="M51.7094423,1.01988665 C51.7094423,0.753829261 51.6083347,0.592680681 51.4455515,0.502913352 L52.5789673,0.502913352 C52.427306,0.592680681 52.3120434,0.753829261 52.3120434,1.01988665 L52.3120434,8.65227273 C52.3120434,8.65227273 47.4123708,2.13602983 47.4123708,2.04409944 L47.4123708,7.8108392 C47.4123708,8.06608125 47.5246001,8.22831136 47.6995162,8.32889404 L46.5630672,8.32889404 C46.7147286,8.22831136 46.826958,8.06608125 46.826958,7.8108392 L46.826958,1.66339944 C46.826958,1.21672585 46.8370687,1.20374744 46.6449643,0.938771591 C46.5438567,0.801416761 46.3992729,0.639186648 46.1829027,0.502913352 L47.9421744,0.502913352 L51.7094423,5.56881904 L51.7094423,1.01988665" id="Fill-20"></path>
                    <path d="M60.9506737,6.02847102 C60.9506737,7.46691136 59.8283798,8.44353665 58.574646,8.44353665 C57.6434453,8.44353665 56.97108,8.08771194 56.6141702,7.89195426 L56.5605833,5.94627444 C56.7536987,6.76607727 57.3664106,7.8454483 58.427029,7.8454483 C59.4401267,7.8454483 59.7485049,7.02780852 59.7485049,6.46432926 C59.7485049,5.36008295 58.8587582,5.21083125 57.9305908,4.64951506 C56.9913015,4.05899744 56.582827,3.43711534 56.582827,2.5632358 C56.582827,0.995011364 57.8780149,0.376373864 58.8092155,0.376373864 C59.1529813,0.376373864 59.8283798,0.456407386 60.3500948,0.801416761 L60.3996375,2.50483295 C60.2601091,1.8970108 59.6746963,0.974462216 58.6939529,0.974462216 C57.919469,0.974462216 57.6151352,1.58444744 57.6151352,2.07762699 C57.6151352,2.78062415 58.052931,3.0488446 59.0134529,3.53986108 C59.9618418,4.04926364 60.9506737,4.42780056 60.9506737,6.02847102" id="Fill-21"></path>
                    <g id="Group-25" transform="translate(60.664540, 0.000000)">
                        <path d="M4.36178038,1.07612642 L4.36178038,7.8108392 C4.36178038,8.06608125 4.47502086,8.22831136 4.62466005,8.32889404 L2.80067957,8.32889404 C2.96447382,8.22831136 3.06558139,8.06608125 3.06558139,7.8108392 L3.06558139,1.07612642 C2.3092968,1.07612642 1.43067205,1.15724148 1.43067205,1.15724148 C1.18599174,1.15724148 1.01410888,1.42329886 0.919067772,1.617975 L0.919067772,0.502913352 L6.51739367,0.502913352 L6.51739367,1.617975 C6.4253858,1.42329886 6.28181305,1.17887216 6.03612167,1.15724148 C6.03612167,1.15724148 5.10795421,1.07612642 4.36178038,1.07612642" id="Fill-22"></path>
                        <path d="M9.58803044,5.56881904 C9.10878059,4.28828267 8.54864468,2.74925966 8.54864468,2.74925966 C8.54864468,2.74925966 7.8540357,4.70251023 7.52543611,5.56881904 L9.58803044,5.56881904 Z M11.8376737,7.76757784 C11.9387814,8.00984148 12.0075345,8.13205483 12.348267,8.32889404 L10.1633325,8.32889404 C10.4282343,8.16882699 10.477777,8.00984148 10.4080128,7.76757784 C10.3797027,7.65293523 10.1127787,6.94885654 9.82563323,6.16798892 L7.32220991,6.16798892 C7.01787612,6.94885654 6.77117368,7.62914148 6.75095215,7.75568096 C6.65692212,8.03147216 6.70949806,8.1915392 6.98552171,8.32889404 L5.57304902,8.32889404 C5.86423881,8.11042415 5.95523562,7.98496619 6.05634318,7.76757784 C6.2504697,7.32739346 8.93689773,0.259568181 8.93689773,0.259568181 C8.93689773,0.259568181 11.6506247,7.32739346 11.8376737,7.76757784 L11.8376737,7.76757784 Z" id="Fill-24"></path>
                    </g>
                    <path d="M75.6790129,1.07612642 L75.6790129,7.8108392 C75.6790129,8.06608125 75.7912422,8.22831136 75.9408814,8.32889404 L74.1169009,8.32889404 C74.2806952,8.22831136 74.3818028,8.06608125 74.3818028,7.8108392 L74.3818028,1.07612642 C73.622485,1.07612642 72.7468935,1.15724148 72.7468935,1.15724148 C72.5022131,1.15724148 72.326286,1.42329886 72.2352891,1.617975 L72.2352891,0.502913352 L77.8315929,0.502913352 L77.8315929,1.617975 C77.7416072,1.42329886 77.5980345,1.17887216 77.3523431,1.15724148 C77.3523431,1.15724148 76.4241757,1.07612642 75.6790129,1.07612642" id="Fill-26"></path>
                    <path d="M83.0719981,1.5163108 C82.8758494,1.21672585 82.6625124,1.12263239 82.2742594,1.1010017 C81.9648702,1.07612642 80.5402647,1.07612642 80.5402647,1.07612642 L80.5402647,3.72588494 L82.0801328,3.72588494 C82.2216834,3.72588494 82.3955884,3.53986108 82.4481644,3.40250625 L82.4481644,4.62463977 C82.3955884,4.46349119 82.2216834,4.28828267 82.0801328,4.28828267 L80.5402647,4.28828267 L80.5402647,7.67240284 C80.7434908,7.70809346 81.3673245,7.75568096 81.8637627,7.73188721 C82.7535093,7.70809346 83.1629949,7.73188721 83.5381039,7.00509631 L83.3237559,8.32889404 L78.9326543,8.32889404 C79.1106036,8.21533295 79.2410324,8.08771194 79.2410324,7.8108392 L79.2410324,1.01988665 C79.2410324,0.753829261 79.0974596,0.592680681 78.9326543,0.502913352 L83.0416657,0.502913352 L83.0719981,1.5163108" id="Fill-27"></path>
                </g>
                <g id="helmet_black.eps" transform="translate(0.000000, 5.768181)">
                    <g id="Group-4">
                        <g id="Fill-1-Clipped">
                            <mask id="mask-2" fill="white">
                                <use xlink:href="#path-1"></use>
                            </mask>
                            <g id="path-1"></g>
                            <path d="M27.7502105,2.59928694 C27.7502105,2.59928694 25.9715351,6.4296 25.0674649,8.33406136 C20.6383836,6.28900056 14.8306791,5.99746705 9.95076044,8.89838181 C6.69692239,10.8941727 4.07334627,14.4408835 3.80217314,18.2495659 C3.71138284,20.7887676 4.81068806,23.5678295 4.44896418,26.1072716 C4.35865299,27.4668801 4.04675597,28.8252869 3.4136194,30.0029574 C2.6005791,31.3637676 1.62679925,32.5431205 0,32.6339694 C0.361963433,32.1806864 2.87295,30.9378835 1.88551567,25.2309886 C1.49384776,22.9684194 -1.60571866,17.3569398 1.39012164,10.321921 C4.12604776,3.89832955 15.9613657,-3.71206534 27.7502105,2.59928694" id="Fill-1" fill="#FFFFFF" fill-rule="nonzero" mask="url(#mask-2)"></path>
                        </g>
                        <g id="Fill-3-Clipped">
                            <mask id="mask-4" fill="white">
                                <use xlink:href="#path-3"></use>
                            </mask>
                            <g id="path-1"></g>
                            <path d="M14.1893977,13.863104 C15.7222925,13.3086375 17.4391634,13.2985431 19.0671605,13.6600159 C22.139418,14.2043881 24.439359,16.064867 25.560703,18.8273455 C26.7340299,21.7181659 27.576056,24.0504341 29.5911694,26.521379 C29.6489015,26.5922795 26.4444112,26.0491091 26.4561492,25.960183 C27.2399642,20.2316574 21.8428523,19.9951619 20.3545142,22.1406852 C21.4744209,23.3765181 23.3970672,24.0112585 24.8889985,23.7697159 C24.5727895,29.4588256 26.1540739,34.621108 26.0649605,34.6090909 C24.7788044,34.4305176 18.8867776,30.9525444 17.163918,29.442242 C14.632809,29.894804 12.6505142,30.8330949 9.71863433,31.2395114 C9.62856268,31.2520091 10.2566687,29.0697136 10.1663575,27.9816904 C10.1663575,24.9896864 7.88078956,22.184908 9.49800672,18.5093744 C10.4674746,16.3049676 11.929941,14.6790614 14.1893977,13.863104" id="Fill-3" fill="#FFFFFF" fill-rule="nonzero" mask="url(#mask-4)"></path>
                        </g>
                    </g>
                    <path d="M16.3099142,12.1372159 C16.4816732,12.1398596 16.742306,12.1797563 16.747097,12.1614904 C16.7954866,11.9639301 16.9559866,10.5451977 18.1609343,9.51077045 C19.5012291,8.35977784 21.2631358,8.47369944 21.2451694,8.46288409 C19.4897306,7.92452045 17.6808716,7.88654659 16.4316067,7.99734375 L16.3099142,12.1372159" id="Fill-5" fill="#FFFFFF" fill-rule="nonzero"></path>
                    <path d="M5.14510299,17.2997386 C4.87800224,19.004717 4.85979627,20.5866409 5.0025694,21.4273534 C5.00592314,21.4384091 5.25529701,19.9833852 6.08007537,19.1643034 C6.79873209,18.4497699 7.71430075,18.3103721 8.03913358,18.3216681 C8.03913358,18.3171017 8.2020291,17.7640773 8.17903209,17.7626352 L5.14510299,17.2997386" id="Fill-6" fill="#FFFFFF" fill-rule="nonzero"></path>
                    <path d="M8.54291194,16.9829694 C8.63130672,16.7556069 8.73886567,16.5556431 8.87037985,16.2970364 L5.75188881,15.0835551 C5.55785149,15.4733881 5.41196418,16.0578971 5.33937985,16.3744261 L8.54291194,16.9829694" id="Fill-7" fill="#FFFFFF" fill-rule="nonzero"></path>
                    <path d="M9.29558508,15.7901574 C9.30420895,15.7803034 9.79648881,15.1506102 9.80535224,15.1568591 L6.94749403,13.0014819 C6.6502097,13.3790574 6.40730373,13.7931648 6.21302686,14.2313063 L9.29558508,15.7901574" id="Fill-8" fill="#FFFFFF" fill-rule="nonzero"></path>
                    <path d="M10.3594366,14.6163324 C10.375247,14.5999892 10.9944896,14.0368705 10.9944896,14.0368705 L8.51895672,11.2121438 C7.9603209,11.6985938 7.79071791,11.9177846 7.45079328,12.3323727 L10.3594366,14.6163324" id="Fill-9" fill="#FFFFFF" fill-rule="nonzero"></path>
                    <path d="M11.6451134,13.6364625 C11.650144,13.6710716 12.3565836,13.2396596 12.3721544,13.2079346 L10.5333515,9.84820909 C9.82954701,10.1890125 9.38014701,10.554571 9.17437164,10.7006983 L11.6451134,13.6364625" id="Fill-10" fill="#FFFFFF" fill-rule="nonzero"></path>
                    <path d="M13.0091239,12.892367 C13.8868433,12.5931426 13.8830105,12.5840096 13.8830105,12.6001125 L12.8392814,8.82531819 C12.2569299,8.99596023 11.4707194,9.3336392 11.2855456,9.45861648 L13.0091239,12.892367" id="Fill-11" fill="#FFFFFF" fill-rule="nonzero"></path>
                    <path d="M14.5626201,12.3806813 C14.594241,12.3965438 15.3541008,12.2107602 15.3636828,12.2102795 L15.4604619,8.11895625 C15.428841,8.15068125 14.513991,8.28983864 13.7373627,8.50902955 L14.5626201,12.3806813" id="Fill-12" fill="#FFFFFF" fill-rule="nonzero"></path>
                </g>
            </g>
        </g>
    </g>
</svg>