<?xml version="1.0" encoding="UTF-8"?>
<svg width="13px" height="13px" viewBox="0 0 13 13" version="1.1" xmlns="http://www.w3.org/2000/svg" xmlns:xlink="http://www.w3.org/1999/xlink">
    <!-- Generator: Sketch 52.3 (67297) - http://www.bohemiancoding.com/sketch -->
    <title>Fullscreen</title>
    <desc>Created with Sketch.</desc>
    <g id="Explore---Places---Full-Record" stroke="none" stroke-width="1" fill="none" fill-rule="evenodd">
        <g id="Place---Full-Record" transform="translate(-886.000000, -1738.000000)" fill="#FFFDFB">
            <g id="Fullscreen" transform="translate(886.000000, 1738.000000)">
                <polygon id="Fill-1" points="7.6716 -0.0001 7.6706 1.1209 10.9786 1.1209 1.1216 10.9769 1.1226 7.6719 -0.0004 7.6719 -0.0004 12.8919 5.2206 12.8929 5.2216 11.7699 1.9146 11.7709 11.7716 1.9139 11.7706 5.2209 12.8926 5.2209 12.8916 -0.0001"></polygon>
                <polygon id="Fill-2" points="5.2209 -0.0001 -0.0001 0.0009 -0.0001 5.2209 1.1209 5.2219 1.1209 1.9149 10.9769 11.7709 7.6719 11.7699 7.6719 12.8929 12.8919 12.8929 12.8929 7.6719 11.7699 7.6709 11.7709 10.9779 1.9139 1.1209 5.2209 1.1219"></polygon>
            </g>
        </g>
    </g>
</svg>