<?xml version="1.0" encoding="UTF-8"?>
<svg width="46px" height="26px" viewBox="0 0 46 26" version="1.1" xmlns="http://www.w3.org/2000/svg" xmlns:xlink="http://www.w3.org/1999/xlink">
    <!-- Generator: sketchtool 51.3 (57544) - http://www.bohemiancoding.com/sketch -->
    <title>4D443A12-DB80-48B7-90CA-368A16CC568F</title>
    <desc>Created with sketchtool.</desc>
    <defs></defs>
    <g id="Explore---People---Full-Record" stroke="none" stroke-width="1" fill="none" fill-rule="evenodd">
        <g id="People---Full-Record" transform="translate(-247.000000, -2909.000000)">
            <g id="Group-5" transform="translate(115.000000, 2863.000000)">
                <g id="Google-Plus-Button-Small" transform="translate(132.000000, 46.000000)">
                    <rect id="Rectangle-31" fill="#BD4C3A" x="0" y="0" width="46" height="26" rx="3"></rect>
                    <path d="M15,18.0192308 C15,17.4999974 15.1454234,17.019233 15.4362745,16.5769231 C15.7271256,16.1346132 16.1143767,15.7660271 16.5980392,15.4711538 C17.4542526,14.9455102 18.7745009,14.6250006 20.5588235,14.5096154 C20.3496722,14.2403833 20.194445,14.0032062 20.0931373,13.7980769 C19.9918296,13.5929477 19.9411765,13.3589757 19.9411765,13.0961538 C19.9411765,12.8653835 20.0098032,12.5929503 20.1470588,12.2788462 C19.8464037,12.3044873 19.6241837,12.3173077 19.4803922,12.3173077 C18.5130671,12.3173077 17.6977157,12.0080159 17.0343137,11.3894231 C16.3709117,10.7708302 16.0392157,9.98718423 16.0392157,9.03846154 C16.0392157,8.51281788 16.1568616,8.0032076 16.3921569,7.50961538 C16.6274522,7.01602317 16.9509783,6.59615558 17.3627451,6.25 C17.8660156,5.82692096 18.4624149,5.51282154 19.1519608,5.30769231 C19.8415067,5.10256308 20.5522839,5 21.2843137,5 L25.3823529,5 L24.0294118,5.84615385 L22.745098,5.84615385 C23.2287606,6.25000202 23.59477,6.67627981 23.8431373,7.125 C24.0915045,7.57372019 24.2156863,8.08653558 24.2156863,8.66346154 C24.2156863,9.12500231 24.1356217,9.54006226 23.9754902,9.90865385 C23.8153587,10.2772454 23.6225501,10.5753194 23.3970588,10.8028846 C23.1715675,11.0304499 22.9444456,11.2387811 22.7156863,11.4278846 C22.486927,11.6169881 22.2924845,11.8141015 22.1323529,12.0192308 C21.9722214,12.22436 21.8921569,12.4358963 21.8921569,12.6538462 C21.8921569,12.8846165 21.996731,13.1105758 22.2058824,13.3317308 C22.4150337,13.5528857 22.6682992,13.7708323 22.9656863,13.9855769 C23.2630734,14.2003216 23.5588221,14.4358962 23.8529412,14.6923077 C24.1470603,14.9487192 24.3986918,15.2820492 24.6078431,15.6923077 C24.8169945,16.1025662 24.9215686,16.5576898 24.9215686,17.0576923 C24.9215686,17.6346183 24.7647075,18.1890999 24.4509804,18.7211538 C23.9803898,19.503209 23.2908542,20.0785238 22.3823529,20.4471154 C21.4738517,20.815707 20.5000052,21 19.4607843,21 C18.5980349,21 17.7924874,20.8669885 17.0441176,20.6009615 C16.2957479,20.3349346 15.735296,19.8942338 15.3627451,19.2788462 C15.1209138,18.8942288 15,18.4743613 15,18.0192308 Z M16.8235294,17.5769231 C16.8235294,18.0256433 16.9379074,18.4214726 17.1666667,18.7644231 C17.395426,19.1073735 17.6944426,19.3733965 18.0637255,19.5625 C18.4330084,19.7516035 18.8218934,19.8926277 19.2303922,19.9855769 C19.6388909,20.0785261 20.0555534,20.125 20.4803922,20.125 C20.859479,20.125 21.2238545,20.0833337 21.5735294,20 C21.9232044,19.9166663 22.2467305,19.7916675 22.5441176,19.625 C22.8415048,19.4583325 23.0800645,19.2243605 23.2598039,18.9230769 C23.4395434,18.6217934 23.5294118,18.2724379 23.5294118,17.875 C23.5294118,17.7147428 23.5065362,17.5576931 23.4607843,17.4038462 C23.4150325,17.2499992 23.3676473,17.1153852 23.3186275,17 C23.2696076,16.8846148 23.1813732,16.7516033 23.0539216,16.6009615 C22.92647,16.4503198 22.8300657,16.3381414 22.7647059,16.2644231 C22.6993461,16.1907048 22.5735303,16.0801289 22.3872549,15.9326923 C22.2009795,15.7852557 22.0816996,15.6923079 22.0294118,15.6538462 C21.9771239,15.6153844 21.8415044,15.5192315 21.622549,15.3653846 C21.4035937,15.2115377 21.2843138,15.1282052 21.2647059,15.1153846 C21.1601302,15.102564 21.003269,15.0961538 20.7941176,15.0961538 C20.4477107,15.0961538 20.1045769,15.1185895 19.7647059,15.1634615 C19.4248349,15.2083336 19.0735312,15.288461 18.7107843,15.4038462 C18.3480374,15.5192313 18.0310471,15.6666658 17.7598039,15.8461538 C17.4885607,16.0256419 17.2647068,16.2644216 17.0882353,16.5625 C16.9117638,16.8605784 16.8235294,17.1987161 16.8235294,17.5769231 Z M17.8627451,8.01923077 C17.8627451,8.31410404 17.8954245,8.62660091 17.9607843,8.95673077 C18.0261441,9.28686062 18.1290843,9.61698553 18.2696078,9.94711538 C18.4101314,10.2772452 18.5800644,10.5737166 18.7794118,10.8365385 C18.9787592,11.0993603 19.2238548,11.3141017 19.5147059,11.4807692 C19.805557,11.6474367 20.1209133,11.7307692 20.4607843,11.7307692 C20.7091516,11.7307692 20.964051,11.6778851 21.2254902,11.5721154 C21.4869294,11.4663456 21.7026135,11.3269239 21.872549,11.1538462 C22.218956,10.7884597 22.3921569,10.2788494 22.3921569,9.625 C22.3921569,9.25320327 22.3366019,8.85256625 22.2254902,8.42307692 C22.1143785,7.9935876 21.9558834,7.57852764 21.75,7.17788462 C21.5441166,6.77724159 21.2679756,6.44551413 20.9215686,6.18269231 C20.5751617,5.91987048 20.1928125,5.78846154 19.7745098,5.78846154 C19.4999986,5.78846154 19.2303935,5.85096091 18.9656863,5.97596154 C18.7009791,6.10096216 18.4869289,6.26922971 18.3235294,6.48076923 C18.0163383,6.85897625 17.8627451,7.37179163 17.8627451,8.01923077 Z M25.3137255,12.7403846 L25.3137255,11.7019231 L27.3921569,11.7019231 L27.3921569,9.61538462 L28.4215686,9.61538462 L28.4215686,11.7019231 L30.5098039,11.7019231 L30.5098039,12.7403846 L28.4215686,12.7403846 L28.4215686,14.8461538 L27.3921569,14.8461538 L27.3921569,12.7403846 L25.3137255,12.7403846 Z" id="icon" fill="#FFFFFF"></path>
                </g>
            </g>
        </g>
    </g>
</svg>