<?xml version="1.0" encoding="UTF-8"?>
<svg width="865px" height="111px" viewBox="0 0 865 111" version="1.1" xmlns="http://www.w3.org/2000/svg" xmlns:xlink="http://www.w3.org/1999/xlink">
    <!-- Generator: Sketch 53.2 (72643) - https://sketchapp.com -->
    <title>Logo - Landing</title>
    <desc>Created with Sketch.</desc>
    <g id="Finals" stroke="none" stroke-width="1" fill="none" fill-rule="evenodd">
        <g id="Main-Hub" transform="translate(-74.000000, -144.000000)" fill="#FBF9F5" fill-rule="nonzero">
            <g id="Logo---Landing" transform="translate(74.000000, 144.000000)">
                <path d="M440,109.5 C440,110.052285 439.552285,110.5 439,110.5 C438.447715,110.5 438,110.052285 438,109.5 L438,1.9375 C438,1.38521525 438.447715,0.9375 439,0.9375 C439.552285,0.9375 440,1.38521525 440,1.9375 L440,109.5 Z" id="Line"></path>
                <path d="M66.066,75.828 C63.1499854,82.0560311 60.7740092,87.9959717 58.938,93.648 C45.3659321,93.2159978 35.7000288,93 29.94,93 C24.2519716,93 14.604068,93.2159978 0.996,93.648 C0.41999712,93.648 0.132,93.144005 0.132,92.136 C0.132,91.2359955 0.41999712,90.7500004 0.996,90.678 C3.98401494,90.3179982 6.26999208,89.841003 7.854,89.247 C9.43800792,88.652997 10.5449969,87.852005 11.175,86.844 C11.8050032,85.835995 12.12,84.0720126 12.12,81.552 L12.12,30.738 C12.12,28.2539876 11.823003,26.4990051 11.229,25.473 C10.634997,24.4469949 9.54600792,23.6280031 7.962,23.016 C6.37799208,22.4039969 4.0560153,21.9180018 0.996,21.558 C0.41999712,21.558 0.132,21.054005 0.132,20.046 C0.132,19.037995 0.41999712,18.534 0.996,18.534 C10.0680454,18.9660022 19.3559525,19.182 28.86,19.182 C38.4360479,19.182 47.7419548,18.9660022 56.778,18.534 C57.6060041,24.1140279 58.8119921,29.6219728 60.396,35.058 C60.396,35.7780036 59.7660063,36.138 58.506,36.138 C57.8939969,36.138 57.5160007,35.8860025 57.372,35.382 C54.7079867,26.8859575 49.0200436,22.638 40.308,22.638 L29.4,22.638 C25.2239791,22.638 23.136,24.7979784 23.136,29.118 L23.136,53.148 L36.744,53.148 C40.344018,53.148 42.7829936,52.3200083 44.061,50.664 C45.3390064,49.0079917 46.2299975,46.0740211 46.734,41.862 C46.734,41.2859971 47.237995,40.998 48.246,40.998 C49.254005,40.998 49.758,41.2859971 49.758,41.862 C49.758,43.662009 49.6500011,45.9299863 49.434,48.666 C49.2179989,51.2940131 49.11,53.4359917 49.11,55.092 C49.11,56.7840085 49.2179989,58.9439869 49.434,61.572 C49.6500011,64.380014 49.758,66.683991 49.758,68.484 C49.758,69.0600029 49.254005,69.348 48.246,69.348 C47.237995,69.348 46.734,69.0600029 46.734,68.484 C46.1939973,64.091978 45.2490068,61.0140088 43.899,59.25 C42.5489933,57.4859912 40.1640171,56.604 36.744,56.604 L23.136,56.604 L23.136,83.172 C23.136,87.4200212 25.2239791,89.544 29.4,89.544 L41.172,89.544 C45.4560214,89.544 49.7039789,88.1490139 53.916,85.359 C58.1280211,82.568986 61.2239901,79.0860209 63.204,74.91 C63.3480007,74.5859984 63.6539977,74.424 64.122,74.424 C64.6260025,74.424 65.075998,74.5589986 65.472,74.829 C65.868002,75.0990013 66.066,75.431998 66.066,75.828 Z M125.898,92.136 C125.898,93.144005 125.610003,93.648 125.034,93.648 C123.593993,93.648 121.83001,93.5400011 119.742,93.324 C117.437988,93.1079989 115.404009,93 113.64,93 C111.839991,93 109.770012,93.1079989 107.43,93.324 C105.305989,93.5400011 103.524007,93.648 102.084,93.648 C101.507997,93.648 101.22,93.144005 101.22,92.136 C101.22,91.2359955 101.507997,90.7500004 102.084,90.678 C104.568012,90.3899986 106.196996,89.6880056 106.971,88.572 C107.745004,87.4559944 108.132,85.1160178 108.132,81.552 L108.132,63.516 C108.132,59.4839798 107.340008,56.5320094 105.756,54.66 C104.171992,52.7879906 101.724017,51.852 98.412,51.852 C96.3239896,51.852 94.479008,52.247996 92.877,53.04 C91.274992,53.832004 89.5560092,55.2359899 87.72,57.252 L87.72,81.552 C87.72,85.1160178 88.1069961,87.4559944 88.881,88.572 C89.6550039,89.6880056 91.2839876,90.3899986 93.768,90.678 C94.3440029,90.7500004 94.632,91.2359955 94.632,92.136 C94.632,93.144005 94.3440029,93.648 93.768,93.648 C92.2919926,93.648 90.4920106,93.5400011 88.368,93.324 C86.0279883,93.1079989 83.9760088,93 82.212,93 C80.4839914,93 78.4680115,93.1079989 76.164,93.324 C74.0399894,93.5400011 72.2400074,93.648 70.764,93.648 C70.1879971,93.648 69.9,93.144005 69.9,92.136 C69.9,91.2359955 70.1879971,90.7500004 70.764,90.678 C73.8600155,90.281998 75.8579955,89.5350055 76.758,88.437 C77.6580045,87.3389945 78.108,85.0440175 78.108,81.552 L78.108,61.572 C78.108,58.6919856 77.7390037,56.8020045 77.001,55.902 C76.2629963,55.0019955 74.6160128,54.4080014 72.06,54.12 C71.4839971,54.12 71.196,53.6520047 71.196,52.716 C71.196,51.8519957 71.4839971,51.42 72.06,51.42 C75.6240178,50.5199955 78.5939881,49.5030057 80.97,48.369 C83.3460119,47.2349943 84.8399969,46.3080036 85.452,45.588 C85.8120018,45.1559978 86.2079978,44.94 86.64,44.94 C87.648005,44.94 88.152,45.2279971 88.152,45.804 L87.72,52.608 C92.9040259,47.7839759 97.7279777,45.372 102.192,45.372 C107.088024,45.372 110.912986,46.775986 113.667,49.584 C116.421014,52.392014 117.798,56.1719762 117.798,60.924 L117.798,81.552 C117.798,85.0800176 118.238996,87.3839946 119.121,88.464 C120.003004,89.5440054 121.973985,90.281998 125.034,90.678 C125.610003,90.7500004 125.898,91.2359955 125.898,92.136 Z M164.292,79.716 C164.292,84.108022 162.564017,87.7979851 159.108,90.786 C155.651983,93.7740149 151.476024,95.268 146.58,95.268 C144.851991,95.268 142.188018,94.8900038 138.588,94.134 C135.887987,93.5939973 134.052005,93.324 133.08,93.324 C132.791999,90.8039874 132.126005,86.9700257 131.082,81.822 C131.082,81.2819973 131.603995,81.012 132.648,81.012 C133.512004,81.012 134.033999,81.2999971 134.214,81.876 C135.042004,84.5400133 136.679988,86.8619901 139.128,88.842 C141.576012,90.8220099 144.095987,91.812 146.688,91.812 C149.388014,91.812 151.484993,91.0740074 152.979,89.598 C154.473007,88.1219926 155.22,86.0520133 155.22,83.388 C155.22,81.6959915 154.599006,80.2020065 153.357,78.906 C152.114994,77.6099935 149.424021,76.0080095 145.284,74.1 C139.847973,71.6159876 136.257009,69.276011 134.511,67.08 C132.764991,64.883989 131.892,62.2560153 131.892,59.196 C131.892,55.4159811 133.529984,52.1670136 136.806,49.449 C140.082016,46.7309864 143.951978,45.372 148.416,45.372 C150.288009,45.372 152.915983,45.6959968 156.3,46.344 C158.172009,46.7040018 159.395997,46.884 159.972,46.884 C160.080001,51.1320212 160.313998,54.7499851 160.674,57.738 C160.674,58.2780027 160.152005,58.548 159.108,58.548 C158.207996,58.548 157.704001,58.2600029 157.596,57.684 C157.199998,55.0559869 156.210008,52.9230082 154.626,51.285 C153.041992,49.6469918 151.152011,48.828 148.956,48.828 C143.339972,48.828 140.532,51.2759755 140.532,56.172 C140.532,57.8280083 141.197993,59.357993 142.53,60.762 C143.862007,62.166007 146.759978,63.9839888 151.224,66.216 C156.552027,68.8800133 160.061992,71.1839903 161.754,73.128 C163.446008,75.0720097 164.292,77.2679878 164.292,79.716 Z M195.288,92.028 C195.288,93.036005 195.000003,93.54 194.424,93.54 C192.947993,93.54 191.058012,93.4500009 188.754,93.27 C186.161987,93.0899991 183.984009,93 182.22,93 C180.491991,93 178.350013,93.0899991 175.794,93.27 C173.489988,93.4500009 171.600007,93.54 170.124,93.54 C169.547997,93.54 169.26,93.036005 169.26,92.028 C169.26,91.1279955 169.547997,90.6420004 170.124,90.57 C173.184015,90.2099982 175.172995,89.4810055 176.091,88.383 C177.009005,87.2849945 177.468,84.9720176 177.468,81.444 L177.468,31.278 C177.468,28.3619854 177.108004,26.4540045 176.388,25.554 C175.667996,24.6539955 174.012013,24.0600014 171.42,23.772 C170.843997,23.6999996 170.556,23.2500041 170.556,22.422 C170.556,21.5579957 170.843997,21.126 171.42,21.126 C175.200019,20.1539951 178.295988,19.1190055 180.708,18.021 C183.120012,16.9229945 184.631997,15.9960038 185.244,15.24 C185.604002,14.843998 185.999998,14.646 186.432,14.646 C187.440005,14.646 187.944,14.9339971 187.944,15.51 C187.367997,23.5740403 187.08,29.8379777 187.08,34.302 L187.08,81.444 C187.08,84.9720176 187.529996,87.2849945 188.43,88.383 C189.330005,89.4810055 191.327985,90.2099982 194.424,90.57 C195.000003,90.6420004 195.288,91.1279955 195.288,92.028 Z M234.276,94.836 C232.25999,94.836 230.505007,94.3410049 229.011,93.351 C227.516993,92.360995 226.500003,91.0200085 225.96,89.328 C222.107981,93.2880198 217.068031,95.268 210.84,95.268 C207.599984,95.268 204.95401,94.26901 202.902,92.271 C200.84999,90.27299 199.824,87.7800149 199.824,84.792 C199.824,77.4119631 208.571913,71.4360229 226.068,66.864 L226.392,58.44 L226.392,58.17 C226.392,55.577987 225.753006,53.5170076 224.475,51.987 C223.196994,50.4569923 221.496011,49.692 219.372,49.692 C217.247989,49.692 215.448007,50.2049949 213.972,51.231 C212.495993,52.2570051 211.74,53.5439923 211.704,55.092 C211.668,57.3960115 211.065006,59.1959935 209.895,60.492 C208.724994,61.7880065 207.16801,62.436 205.224,62.436 C204.071994,62.436 203.136004,62.0940034 202.416,61.41 C201.695996,60.7259966 201.336,59.8080058 201.336,58.656 C201.336,55.8839861 203.855975,52.9770152 208.896,49.935 C213.936025,46.8929848 218.615978,45.372 222.936,45.372 C226.824019,45.372 229.973988,46.5239885 232.386,48.828 C234.798012,51.1320115 236.004,54.2279806 236.004,58.116 L236.004,58.764 L235.248,83.172 L235.248,83.55 C235.248,87.3300189 236.471988,89.22 238.92,89.22 C240.108006,89.22 241.493992,88.5000072 243.078,87.06 L243.456,86.952 C243.744001,86.952 244.013999,87.1409981 244.266,87.519 C244.518001,87.8970019 244.644,88.3019978 244.644,88.734 C244.644,89.7780052 243.555011,91.0559924 241.377,92.568 C239.198989,94.0800076 236.832013,94.836 234.276,94.836 Z M225.96,70.536 C215.447947,72.9120119 210.192,76.8359726 210.192,82.308 C210.192,87.4200256 212.17198,89.976 216.132,89.976 C218.04001,89.976 219.920991,89.4990048 221.775,88.545 C223.629009,87.5909952 224.879997,86.412007 225.528,85.008 L225.96,70.536 Z M296.754,48.612 C296.754,49.5480047 296.466003,50.0519996 295.89,50.124 C292.865985,50.4480016 290.841005,51.1679944 289.815,52.284 C288.788995,53.4000056 287.502008,55.7039825 285.954,59.196 L270.456,94.512 C270.203999,95.0880029 269.772003,95.376 269.16,95.376 C268.511997,95.376 268.062001,95.0880029 267.81,94.512 L253.284,59.196 C251.951993,55.8839834 250.602007,53.6160061 249.234,52.392 C247.865993,51.1679939 246.012012,50.3940016 243.672,50.07 C243.095997,49.9979996 242.808,49.5120045 242.808,48.612 C242.808,47.603995 243.095997,47.1 243.672,47.1 C245.148007,47.1 246.983989,47.2079989 249.18,47.424 C251.556012,47.6400011 253.607991,47.748 255.336,47.748 C257.100009,47.748 259.241987,47.6400011 261.762,47.424 C263.994011,47.2079989 265.847993,47.1 267.324,47.1 C267.900003,47.1 268.188,47.603995 268.188,48.612 C268.188,49.5120045 267.900003,49.9979996 267.324,50.07 C265.163989,50.3580014 263.670004,50.7449976 262.842,51.231 C262.013996,51.7170024 261.6,52.4279953 261.6,53.364 C261.6,54.4800056 262.139995,56.4059863 263.22,59.142 L272.076,82.092 L281.04,59.196 C282.120005,56.4959865 282.66,54.5520059 282.66,53.364 C282.66,52.4279953 282.255004,51.7170024 281.445,51.231 C280.634996,50.7449976 279.20401,50.3580014 277.152,50.07 C276.575997,49.9979996 276.288,49.5120045 276.288,48.612 C276.288,47.603995 276.575997,47.1 277.152,47.1 C278.664008,47.1 280.355991,47.2079989 282.228,47.424 C283.992009,47.6400011 285.575993,47.748 286.98,47.748 C287.700004,47.748 288.869992,47.6580009 290.49,47.478 C292.722011,47.2259987 294.521993,47.1 295.89,47.1 C296.466003,47.1 296.754,47.603995 296.754,48.612 Z M341.196,62.976 C341.196,63.984005 340.548006,64.488 339.252,64.488 L309.66,64.488 C309.443999,66.4320097 309.336,68.4479896 309.336,70.536 C309.336,76.332029 310.712986,80.7869844 313.467,83.901 C316.221014,87.0150156 320.135975,88.572 325.212,88.572 C327.768013,88.572 330.341987,87.8880068 332.934,86.52 C335.526013,85.1519932 337.613992,83.4060106 339.198,81.282 L339.468,81.174 C339.792002,81.174 340.106998,81.371998 340.413,81.768 C340.719002,82.164002 340.872,82.6319973 340.872,83.172 C340.872,83.9280038 339.720012,85.502988 337.416,87.897 C335.111988,90.291012 332.610014,92.1179937 329.91,93.378 C327.209987,94.6380063 324.384015,95.268 321.432,95.268 C314.951968,95.268 309.498022,92.8920238 305.07,88.14 C300.641978,83.3879762 298.428,77.5560346 298.428,70.644 C298.428,63.5879647 300.596978,57.6120245 304.935,52.716 C309.273022,47.8199755 314.771967,45.372 321.432,45.372 C327.012028,45.372 331.700981,47.1989817 335.499,50.853 C339.297019,54.5070183 341.196,58.5479779 341.196,62.976 Z M331.368,58.224 C331.368,55.5239865 330.441009,53.2830089 328.587,51.501 C326.732991,49.7189911 324.348015,48.828 321.432,48.828 C318.659986,48.828 316.25701,49.9889884 314.223,52.311 C312.18899,54.6330116 310.812004,57.6839811 310.092,61.464 L325.104,61.032 C327.372011,60.9959998 328.982995,60.780002 329.937,60.384 C330.891005,59.987998 331.368,59.2680052 331.368,58.224 Z M403.026,90.084 C403.026,90.8400038 402.738003,91.2539996 402.162,91.326 C400.10999,91.5780013 397.734014,92.0819962 395.034,92.838 C392.333986,93.5940038 390.228008,94.3499962 388.716,95.106 C387.923996,95.502002 387.348002,95.7 386.988,95.7 C386.411997,95.7 386.124,95.4120029 386.124,94.836 L386.556,89.004 C382.739981,93.1800209 377.88003,95.268 371.976,95.268 C365.747969,95.268 360.447022,92.8740239 356.073,88.086 C351.698978,83.2979761 349.512,77.5560335 349.512,70.86 C349.512,63.263962 351.932976,57.1170235 356.775,52.419 C361.617024,47.7209765 367.691963,45.372 375,45.372 C379.176021,45.372 383.027982,46.667987 386.556,49.26 L386.556,31.278 C386.556,28.3619854 386.196004,26.4540045 385.476,25.554 C384.755996,24.6539955 383.100013,24.0600014 380.508,23.772 C379.931997,23.6999996 379.644,23.2500041 379.644,22.422 C379.644,21.4859953 379.931997,21.018 380.508,21.018 C383.892017,20.225996 386.825988,19.2720056 389.31,18.156 C391.794012,17.0399944 393.467996,16.0500043 394.332,15.186 C394.692002,14.8259982 395.069998,14.646 395.466,14.646 C396.474005,14.646 396.978,14.9339971 396.978,15.51 C396.401997,23.3580392 396.114,29.6219766 396.114,34.302 L396.114,81.876 C396.114,84.3600124 396.473996,86.0249958 397.194,86.871 C397.914004,87.7170042 399.569987,88.3199982 402.162,88.68 C402.738003,88.68 403.026,89.1479953 403.026,90.084 Z M386.556,84.252 L386.556,56.604 C386.556,54.7319906 385.467011,52.9680083 383.289,51.312 C381.110989,49.6559917 378.744013,48.828 376.188,48.828 C365.675947,48.828 360.42,56.2079262 360.42,70.968 C360.42,76.8000292 361.679987,81.6419807 364.2,85.494 C366.720013,89.3460193 370.031979,91.272 374.136,91.272 C376.476012,91.272 378.59999,90.7410053 380.508,89.679 C382.41601,88.6169947 384.431989,86.8080128 386.556,84.252 Z" id="Enslaved"></path>
                <path d="M500.7975,29.1525 C500.7975,31.7925132 499.78126,34.008741 497.74875,35.80125 C495.71624,37.593759 493.200015,38.49 490.2,38.49 C488.399991,38.49 486.630009,38.4150007 484.89,38.265 L484.89,46.23 C484.89,47.2800052 485.021249,48.0149979 485.28375,48.435 C485.546251,48.8550021 486.003747,49.1887488 486.65625,49.43625 C487.308753,49.6837512 488.264994,49.8824992 489.525,50.0325 C489.765001,50.0625001 489.885,50.2649981 489.885,50.64 C489.885,51.0600021 489.765001,51.27 489.525,51.27 C488.519995,51.27 487.327507,51.2250004 485.9475,51.135 C484.627493,51.0449995 483.510005,51 482.595,51 C481.679995,51 480.555007,51.0449995 479.22,51.135 C477.824993,51.2250004 476.625005,51.27 475.62,51.27 C475.379999,51.27 475.26,51.0600021 475.26,50.64 C475.26,50.2649981 475.379999,50.0625001 475.62,50.0325 C477.435009,49.8224989 478.668747,49.4850023 479.32125,49.02 C479.973753,48.5549977 480.3,47.625007 480.3,46.23 L480.3,25.0575 C480.3,24.0074947 480.168751,23.2687521 479.90625,22.84125 C479.643749,22.4137479 479.182503,22.0762512 478.5225,21.82875 C477.862497,21.5812488 476.895006,21.3825007 475.62,21.2325 C475.379999,21.2325 475.26,21.0225021 475.26,20.6025 C475.26,20.1824979 475.379999,19.9725 475.62,19.9725 C476.625005,19.9725 477.824993,20.0174995 479.22,20.1075 C480.555007,20.1975004 481.679995,20.2425 482.595,20.2425 C483.510005,20.2425 484.627493,20.1975004 485.9475,20.1075 C487.327507,20.0174995 488.519995,19.9725 489.525,19.9725 C493.215018,19.9725 496.01624,20.7524922 497.92875,22.3125 C499.84126,23.8725078 500.7975,26.152485 500.7975,29.1525 Z M495.8025,29.1525 C495.8025,26.752488 495.213756,24.8775067 494.03625,23.5275 C492.858744,22.1774932 491.29501,21.5025 489.345,21.5025 C488.174994,21.5025 487.271253,21.5924991 486.63375,21.7725 C485.996247,21.9525009 485.546251,22.244998 485.28375,22.65 C485.021249,23.055002 484.89,23.857494 484.89,25.0575 L484.89,35.385 C484.89,36.0300032 485.092498,36.4612489 485.4975,36.67875 C485.902502,36.8962511 486.779993,37.005 488.13,37.005 C490.575012,37.005 492.464993,36.307507 493.8,34.9125 C495.135007,33.517493 495.8025,31.5975122 495.8025,29.1525 Z M521.565,38.49 C521.565,38.9100021 521.295003,39.12 520.755,39.12 L508.425,39.12 C508.335,39.930004 508.29,40.7699956 508.29,41.64 C508.29,44.0550121 508.863744,45.9112435 510.01125,47.20875 C511.158756,48.5062565 512.789989,49.155 514.905,49.155 C515.970005,49.155 517.042495,48.8700028 518.1225,48.3 C519.202505,47.7299971 520.072497,47.0025044 520.7325,46.1175 L520.845,46.0725 C520.980001,46.0725 521.111249,46.1549992 521.23875,46.32 C521.366251,46.4850008 521.43,46.6799989 521.43,46.905 C521.43,47.2200016 520.950005,47.876245 519.99,48.87375 C519.029995,49.871255 517.987506,50.6324974 516.8625,51.1575 C515.737494,51.6825026 514.560006,51.945 513.33,51.945 C510.629986,51.945 508.357509,50.9550099 506.5125,48.975 C504.667491,46.9949901 503.745,44.5650144 503.745,41.685 C503.745,38.7449853 504.648741,36.2550102 506.45625,34.215 C508.263759,32.1749898 510.554986,31.155 513.33,31.155 C515.655012,31.155 517.608742,31.9162424 519.19125,33.43875 C520.773758,34.9612576 521.565,36.6449908 521.565,38.49 Z M517.47,36.51 C517.47,35.3849944 517.083754,34.4512537 516.31125,33.70875 C515.538746,32.9662463 514.545006,32.595 513.33,32.595 C512.174994,32.595 511.173754,33.0787452 510.32625,34.04625 C509.478746,35.0137548 508.905002,36.2849921 508.605,37.86 L514.86,37.68 C515.805005,37.6649999 516.476248,37.5750008 516.87375,37.41 C517.271252,37.2449992 517.47,36.9450022 517.47,36.51 Z M545.7525,41.685 C545.7525,44.6700149 544.78126,47.1262404 542.83875,49.05375 C540.89624,50.9812596 538.380015,51.945 535.29,51.945 C532.199985,51.945 529.68001,50.9775097 527.73,49.0425 C525.77999,47.1074903 524.805,44.6550148 524.805,41.685 C524.805,38.6699849 525.78749,36.16126 527.7525,34.15875 C529.71751,32.15624 532.229985,31.155 535.29,31.155 C538.365015,31.155 540.87749,32.15249 542.8275,34.1475 C544.77751,36.14251 545.7525,38.6549848 545.7525,41.685 Z M541.23,41.64 C541.23,38.8949863 540.701255,36.7012582 539.64375,35.05875 C538.586245,33.4162418 537.135009,32.595 535.29,32.595 C533.459991,32.595 532.012505,33.4199917 530.9475,35.07 C529.882495,36.7200082 529.35,38.9099863 529.35,41.64 C529.35,44.3550136 529.874995,46.511242 530.925,48.10875 C531.975005,49.706258 533.429991,50.505 535.29,50.505 C537.150009,50.505 538.604995,49.7137579 539.655,48.13125 C540.705005,46.5487421 541.23,44.3850137 541.23,41.64 Z M570.1875,41.685 C570.1875,44.6400148 569.19001,47.0887403 567.195,49.03125 C565.19999,50.9737597 562.650016,51.945 559.545,51.945 C557.759991,51.945 556.230006,51.6000034 554.955,50.91 L554.955,57.84 C554.955,59.2950073 555.142498,60.2549977 555.5175,60.72 C555.892502,61.1850023 556.724994,61.4999992 558.015,61.665 C558.255001,61.665 558.375,61.8749979 558.375,62.295 C558.375,62.7150021 558.255001,62.925 558.015,62.925 C557.399997,62.925 556.605005,62.8800004 555.63,62.79 C554.579995,62.6999995 553.695004,62.655 552.975,62.655 C552.224996,62.655 551.317505,62.6999995 550.2525,62.79 C549.292495,62.8800004 548.505003,62.925 547.89,62.925 C547.649999,62.925 547.53,62.7150021 547.53,62.295 C547.53,61.8749979 547.649999,61.665 547.89,61.665 C549.165006,61.4999992 549.993748,61.1850023 550.37625,60.72 C550.758752,60.2549977 550.95,59.2950073 550.95,57.84 L550.95,37.905 C550.95,36.704994 550.796252,35.9175019 550.48875,35.5425 C550.181248,35.1674981 549.495005,34.9200006 548.43,34.8 C548.189999,34.8 548.07,34.6050019 548.07,34.215 C548.07,33.8549982 548.189999,33.675 548.43,33.675 C549.885007,33.3149982 551.103745,32.9025023 552.08625,32.4375 C553.068755,31.9724977 553.717498,31.5750016 554.0325,31.245 C554.197501,31.0649991 554.354999,30.975 554.505,30.975 C554.925002,30.975 555.135,31.0949988 555.135,31.335 L554.955,34.17 C555.780004,33.3149957 556.732495,32.5987529 557.8125,32.02125 C558.892505,31.4437471 559.814996,31.155 560.58,31.155 C563.535015,31.155 565.874991,32.1187404 567.6,34.04625 C569.325009,35.9737596 570.1875,38.5199842 570.1875,41.685 Z M565.665,41.64 C565.665,39.1349875 565.121255,37.181257 564.03375,35.77875 C562.946245,34.376243 561.42001,33.675 559.455,33.675 C558.629996,33.675 557.883753,33.8474983 557.21625,34.1925 C556.548747,34.5375017 555.795004,35.1749953 554.955,36.105 L554.955,47.13 C554.955,48.0900048 555.382496,48.8924968 556.2375,49.5375 C557.092504,50.1825032 558.134994,50.505 559.365,50.505 C561.40501,50.505 562.964995,49.7362577 564.045,48.19875 C565.125005,46.6612423 565.665,44.4750142 565.665,41.64 Z M583.485,50.595 C583.485,51.0150021 583.365001,51.225 583.125,51.225 C582.509997,51.225 581.722505,51.1875004 580.7625,51.1125 C579.682495,51.0374996 578.775004,51 578.04,51 C577.319996,51 576.427505,51.0374996 575.3625,51.1125 C574.402495,51.1875004 573.615003,51.225 573,51.225 C572.759999,51.225 572.64,51.0150021 572.64,50.595 C572.64,50.2199981 572.759999,50.0175001 573,49.9875 C574.275006,49.8374992 575.103748,49.5337523 575.48625,49.07625 C575.868752,48.6187477 576.06,47.6550073 576.06,46.185 L576.06,25.2825 C576.06,24.0674939 575.910002,23.2725019 575.61,22.8975 C575.309999,22.5224981 574.620005,22.2750006 573.54,22.155 C573.299999,22.1249998 573.18,21.9375017 573.18,21.5925 C573.18,21.2324982 573.299999,21.0525 573.54,21.0525 C575.115008,20.647498 576.404995,20.2162523 577.41,19.75875 C578.415005,19.3012477 579.044999,18.9150016 579.3,18.6 C579.450001,18.4349992 579.614999,18.3525 579.795,18.3525 C580.215002,18.3525 580.425,18.4724988 580.425,18.7125 C580.184999,22.0725168 580.065,24.6824907 580.065,26.5425 L580.065,46.185 C580.065,47.6550073 580.252498,48.6187477 580.6275,49.07625 C581.002502,49.5337523 581.834994,49.8374992 583.125,49.9875 C583.365001,50.0175001 583.485,50.2199981 583.485,50.595 Z M603.06,38.49 C603.06,38.9100021 602.790003,39.12 602.25,39.12 L589.92,39.12 C589.83,39.930004 589.785,40.7699956 589.785,41.64 C589.785,44.0550121 590.358744,45.9112435 591.50625,47.20875 C592.653756,48.5062565 594.284989,49.155 596.4,49.155 C597.465005,49.155 598.537495,48.8700028 599.6175,48.3 C600.697505,47.7299971 601.567497,47.0025044 602.2275,46.1175 L602.34,46.0725 C602.475001,46.0725 602.606249,46.1549992 602.73375,46.32 C602.861251,46.4850008 602.925,46.6799989 602.925,46.905 C602.925,47.2200016 602.445005,47.876245 601.485,48.87375 C600.524995,49.871255 599.482506,50.6324974 598.3575,51.1575 C597.232494,51.6825026 596.055006,51.945 594.825,51.945 C592.124986,51.945 589.852509,50.9550099 588.0075,48.975 C586.162491,46.9949901 585.24,44.5650144 585.24,41.685 C585.24,38.7449853 586.143741,36.2550102 587.95125,34.215 C589.758759,32.1749898 592.049986,31.155 594.825,31.155 C597.150012,31.155 599.103742,31.9162424 600.68625,33.43875 C602.268758,34.9612576 603.06,36.6449908 603.06,38.49 Z M598.965,36.51 C598.965,35.3849944 598.578754,34.4512537 597.80625,33.70875 C597.033746,32.9662463 596.040006,32.595 594.825,32.595 C593.669994,32.595 592.668754,33.0787452 591.82125,34.04625 C590.973746,35.0137548 590.400002,36.2849921 590.1,37.86 L596.355,37.68 C597.300005,37.6649999 597.971248,37.5750008 598.36875,37.41 C598.766252,37.2449992 598.965,36.9450022 598.965,36.51 Z M620.475,45.465 C620.475,47.2950091 619.755007,48.8324938 618.315,50.0775 C616.874993,51.3225062 615.13501,51.945 613.095,51.945 C612.374996,51.945 611.265008,51.7875016 609.765,51.4725 C608.639994,51.2474989 607.875002,51.135 607.47,51.135 C607.349999,50.0849947 607.072502,48.4875107 606.6375,46.3425 C606.6375,46.1174989 606.854998,46.005 607.29,46.005 C607.650002,46.005 607.8675,46.1249988 607.9425,46.365 C608.287502,47.4750055 608.969995,48.4424959 609.99,49.2675 C611.010005,50.0925041 612.059995,50.505 613.14,50.505 C614.265006,50.505 615.138747,50.1975031 615.76125,49.5825 C616.383753,48.9674969 616.695,48.1050055 616.695,46.995 C616.695,46.2899965 616.436253,45.6675027 615.91875,45.1275 C615.401247,44.5874973 614.280009,43.920004 612.555,43.125 C610.289989,42.0899948 608.793754,41.1150046 608.06625,40.2 C607.338746,39.2849954 606.975,38.1900064 606.975,36.915 C606.975,35.3399921 607.657493,33.9862557 609.0225,32.85375 C610.387507,31.7212443 611.999991,31.155 613.86,31.155 C614.640004,31.155 615.734993,31.2899986 617.145,31.56 C617.925004,31.7100007 618.434999,31.785 618.675,31.785 C618.72,33.5550088 618.817499,35.0624938 618.9675,36.3075 C618.9675,36.5325011 618.750002,36.645 618.315,36.645 C617.939998,36.645 617.73,36.5250012 617.685,36.285 C617.519999,35.1899945 617.107503,34.3012534 616.4475,33.61875 C615.787497,32.9362466 615.000005,32.595 614.085,32.595 C611.744988,32.595 610.575,33.6149898 610.575,35.655 C610.575,36.3450034 610.852497,36.9824971 611.4075,37.5675 C611.962503,38.1525029 613.169991,38.9099953 615.03,39.84 C617.250011,40.9500055 618.712496,41.9099959 619.4175,42.72 C620.122504,43.530004 620.475,44.4449949 620.475,45.465 Z M655.6875,41.685 C655.6875,44.6700149 654.71626,47.1262404 652.77375,49.05375 C650.83124,50.9812596 648.315015,51.945 645.225,51.945 C642.134985,51.945 639.61501,50.9775097 637.665,49.0425 C635.71499,47.1074903 634.74,44.6550148 634.74,41.685 C634.74,38.6699849 635.72249,36.16126 637.6875,34.15875 C639.65251,32.15624 642.164985,31.155 645.225,31.155 C648.300015,31.155 650.81249,32.15249 652.7625,34.1475 C654.71251,36.14251 655.6875,38.6549848 655.6875,41.685 Z M651.165,41.64 C651.165,38.8949863 650.636255,36.7012582 649.57875,35.05875 C648.521245,33.4162418 647.070009,32.595 645.225,32.595 C643.394991,32.595 641.947505,33.4199917 640.8825,35.07 C639.817495,36.7200082 639.285,38.9099863 639.285,41.64 C639.285,44.3550136 639.809995,46.511242 640.86,48.10875 C641.910005,49.706258 643.364991,50.505 645.225,50.505 C647.085009,50.505 648.539995,49.7137579 649.59,48.13125 C650.640005,46.5487421 651.165,44.3850137 651.165,41.64 Z M676.7025,20.6925 C676.7025,21.3075031 676.470002,21.7912482 676.005,22.14375 C675.539998,22.4962518 674.902504,22.6725 674.0925,22.6725 C673.372496,22.6725 672.645004,22.3950028 671.91,21.84 C671.294997,21.3749977 670.747502,21.1425 670.2675,21.1425 C669.247495,21.1425 668.377504,21.7087443 667.6575,22.84125 C666.937496,23.9737557 666.5775,25.5074903 666.5775,27.4425 L666.5775,32.685 L671.6175,32.685 C671.977502,32.685 672.1575,33.0899959 672.1575,33.9 C672.1575,34.710004 671.977502,35.115 671.6175,35.115 L666.5325,34.935 L666.5325,46.23 C666.5325,47.7000073 666.712498,48.6599977 667.0725,49.11 C667.432502,49.5600022 668.257494,49.8674992 669.5475,50.0325 C669.787501,50.0625001 669.9075,50.2649981 669.9075,50.64 C669.9075,51.0600021 669.787501,51.27 669.5475,51.27 C668.932497,51.27 668.152505,51.2250004 667.2075,51.135 C666.142495,51.0449995 665.242504,51 664.5075,51 C663.757496,51 662.857505,51.0449995 661.8075,51.135 C660.862495,51.2250004 660.082503,51.27 659.4675,51.27 C659.227499,51.27 659.1075,51.0600021 659.1075,50.64 C659.1075,50.2649981 659.227499,50.0625001 659.4675,50.0325 C660.742506,49.8674992 661.563748,49.5600022 661.93125,49.11 C662.298752,48.6599977 662.4825,47.7000073 662.4825,46.23 L662.4825,35.475 C662.4825,35.0549979 662.302502,34.845 661.9425,34.845 L659.6475,34.845 C659.347499,34.845 659.1975,34.6500019 659.1975,34.26 C659.1975,33.869998 659.332499,33.6450003 659.6025,33.585 C661.52251,33.1499978 662.4825,32.730002 662.4825,32.325 C662.4825,28.6949818 663.588739,25.4962638 665.80125,22.72875 C668.013761,19.9612362 670.567486,18.5775 673.4625,18.5775 C674.467505,18.5775 675.258747,18.7649981 675.83625,19.14 C676.413753,19.5150019 676.7025,20.0324967 676.7025,20.6925 Z M699.135,33.36 C699.135,34.170004 698.940002,34.575 698.55,34.575 L691.845,34.395 L691.845,45.195 C691.845,48.0150141 692.84999,49.425 694.86,49.425 C696.105006,49.425 697.237495,49.1325029 698.2575,48.5475 C698.377501,48.5475 698.48625,48.6262492 698.58375,48.78375 C698.68125,48.9412508 698.73,49.1099991 698.73,49.29 C698.73,49.6650019 698.171256,50.1712468 697.05375,50.80875 C695.936244,51.4462532 694.680007,51.765 693.285,51.765 C691.574991,51.765 690.210005,51.2437552 689.19,50.20125 C688.169995,49.1587448 687.66,47.7825085 687.66,46.0725 L687.66,45.87 L687.75,34.935 C687.75,34.5149979 687.570002,34.305 687.21,34.305 L685.5,34.305 C685.169998,34.305 685.005,34.1100019 685.005,33.72 C685.005,33.4199985 685.139999,33.1950007 685.41,33.045 C687.49501,31.8149938 689.309992,30.0825112 690.855,27.8475 C691.020001,27.6074988 691.229999,27.4875 691.485,27.4875 C691.905002,27.4875 692.115,27.6074988 692.115,27.8475 L691.935,32.145 L698.55,32.145 C698.940002,32.145 699.135,32.5499959 699.135,33.36 Z M724.9425,50.64 C724.9425,51.0600021 724.822501,51.27 724.5825,51.27 C723.982497,51.27 723.240004,51.2250004 722.355,51.135 C721.394995,51.0449995 720.555004,51 719.835,51 C719.084996,51 718.222505,51.0449995 717.2475,51.135 C716.362496,51.2250004 715.620003,51.27 715.02,51.27 C714.779999,51.27 714.66,51.0600021 714.66,50.64 C714.66,50.2649981 714.779999,50.0625001 715.02,50.0325 C716.055005,49.9124994 716.733748,49.6200023 717.05625,49.155 C717.378752,48.6899977 717.54,47.7150074 717.54,46.23 L717.54,38.715 C717.54,35.4749838 716.070015,33.855 713.13,33.855 C711.269991,33.855 709.665007,34.6049925 708.315,36.105 L708.315,46.23 C708.315,47.5800067 708.509998,48.5174974 708.9,49.0425 C709.290002,49.5675026 710.054994,49.8974993 711.195,50.0325 C711.435001,50.0625001 711.555,50.2649981 711.555,50.64 C711.555,51.0600021 711.435001,51.27 711.195,51.27 C710.579997,51.27 709.777505,51.2250004 708.7875,51.135 C707.677494,51.0449995 706.755004,51 706.02,51 C705.269996,51 704.415005,51.0449995 703.455,51.135 C702.599996,51.2250004 701.865003,51.27 701.25,51.27 C701.009999,51.27 700.89,51.0600021 700.89,50.64 C700.89,50.2649981 701.009999,50.0625001 701.25,50.0325 C702.510006,49.8974993 703.327498,49.6012523 703.7025,49.14375 C704.077502,48.6862477 704.265,47.7150074 704.265,46.23 L704.265,25.3275 C704.265,24.1124939 704.118751,23.3175019 703.82625,22.9425 C703.533749,22.5674981 702.855005,22.3200006 701.79,22.2 C701.549999,22.1699998 701.43,21.9825017 701.43,21.6375 C701.43,21.247498 701.549999,21.0525 701.79,21.0525 C704.355013,20.452497 706.252494,19.6575049 707.4825,18.6675 C707.707501,18.4874991 707.894999,18.3975 708.045,18.3975 C708.465002,18.3975 708.675,18.5174988 708.675,18.7575 C708.434999,21.2175123 708.315,23.8274862 708.315,26.5875 L708.315,34.215 C710.460011,32.1749898 712.57499,31.155 714.66,31.155 C716.790011,31.155 718.466244,31.7399941 719.68875,32.91 C720.911256,34.0800058 721.5225,35.6549901 721.5225,37.635 L721.5225,46.23 C721.5225,47.7000073 721.713748,48.6637477 722.09625,49.12125 C722.478752,49.5787523 723.307494,49.8824992 724.5825,50.0325 C724.822501,50.0625001 724.9425,50.2649981 724.9425,50.64 Z M744.54,38.49 C744.54,38.9100021 744.270003,39.12 743.73,39.12 L731.4,39.12 C731.31,39.930004 731.265,40.7699956 731.265,41.64 C731.265,44.0550121 731.838744,45.9112435 732.98625,47.20875 C734.133756,48.5062565 735.764989,49.155 737.88,49.155 C738.945005,49.155 740.017495,48.8700028 741.0975,48.3 C742.177505,47.7299971 743.047497,47.0025044 743.7075,46.1175 L743.82,46.0725 C743.955001,46.0725 744.086249,46.1549992 744.21375,46.32 C744.341251,46.4850008 744.405,46.6799989 744.405,46.905 C744.405,47.2200016 743.925005,47.876245 742.965,48.87375 C742.004995,49.871255 740.962506,50.6324974 739.8375,51.1575 C738.712494,51.6825026 737.535006,51.945 736.305,51.945 C733.604986,51.945 731.332509,50.9550099 729.4875,48.975 C727.642491,46.9949901 726.72,44.5650144 726.72,41.685 C726.72,38.7449853 727.623741,36.2550102 729.43125,34.215 C731.238759,32.1749898 733.529986,31.155 736.305,31.155 C738.630012,31.155 740.583742,31.9162424 742.16625,33.43875 C743.748758,34.9612576 744.54,36.6449908 744.54,38.49 Z M740.445,36.51 C740.445,35.3849944 740.058754,34.4512537 739.28625,33.70875 C738.513746,32.9662463 737.520006,32.595 736.305,32.595 C735.149994,32.595 734.148754,33.0787452 733.30125,34.04625 C732.453746,35.0137548 731.880001,36.2849921 731.58,37.86 L737.835,37.68 C738.780005,37.6649999 739.451248,37.5750008 739.84875,37.41 C740.246252,37.2449992 740.445,36.9450022 740.445,36.51 Z M511.6875,94.64 C511.6875,95.0600021 511.567501,95.27 511.3275,95.27 C510.307495,95.27 509.100007,95.2250004 507.705,95.135 C506.384993,95.0449995 505.267505,95 504.3525,95 C503.437495,95 502.380006,95.0449995 501.18,95.135 C499.919994,95.2250004 498.787505,95.27 497.7825,95.27 C497.542499,95.27 497.4225,95.0600021 497.4225,94.64 C497.4225,94.2649981 497.549999,94.0625001 497.805,94.0325 C499.065006,93.8824992 500.002497,93.6762513 500.6175,93.41375 C501.232503,93.1512487 501.626249,92.8062521 501.79875,92.37875 C501.971251,91.9512479 502.0575,91.235005 502.0575,90.23 L502.0575,80.195 L484.89,80.195 L484.89,90.23 C484.89,91.235005 484.976249,91.9512479 485.14875,92.37875 C485.321251,92.8062521 485.714997,93.1512487 486.33,93.41375 C486.945003,93.6762513 487.889994,93.8824992 489.165,94.0325 C489.405001,94.0625001 489.525,94.2649981 489.525,94.64 C489.525,95.0600021 489.405001,95.27 489.165,95.27 C488.159995,95.27 487.027506,95.2250004 485.7675,95.135 C484.567494,95.0449995 483.510005,95 482.595,95 C481.679995,95 480.555007,95.0449995 479.22,95.135 C477.824993,95.2250004 476.625005,95.27 475.62,95.27 C475.379999,95.27 475.26,95.0600021 475.26,94.64 C475.26,94.2649981 475.379999,94.0625001 475.62,94.0325 C477.435009,93.8224989 478.668747,93.4850023 479.32125,93.02 C479.973753,92.5549977 480.3,91.625007 480.3,90.23 L480.3,69.0575 C480.3,68.0074947 480.168751,67.2687521 479.90625,66.84125 C479.643749,66.4137479 479.182503,66.0762512 478.5225,65.82875 C477.862497,65.5812488 476.895006,65.3825007 475.62,65.2325 C475.379999,65.2325 475.26,65.0225021 475.26,64.6025 C475.26,64.1824979 475.379999,63.9725 475.62,63.9725 C476.625005,63.9725 477.824993,64.0174995 479.22,64.1075 C480.555007,64.1975004 481.679995,64.2425 482.595,64.2425 C483.510005,64.2425 484.567494,64.1975004 485.7675,64.1075 C487.027506,64.0174995 488.159995,63.9725 489.165,63.9725 C489.405001,63.9725 489.525,64.1824979 489.525,64.6025 C489.525,65.0225021 489.405001,65.2325 489.165,65.2325 C487.994994,65.3675007 487.110003,65.5474989 486.51,65.7725 C485.909997,65.9975011 485.490001,66.3012481 485.25,66.68375 C485.009999,67.0662519 484.89,67.857494 484.89,69.0575 L484.89,78.755 L502.0575,78.755 L502.0575,69.0575 C502.0575,68.052495 501.971251,67.3325022 501.79875,66.8975 C501.626249,66.4624978 501.236253,66.1137513 500.62875,65.85125 C500.021247,65.5887487 499.072506,65.3825007 497.7825,65.2325 C497.542499,65.2325 497.4225,65.0225021 497.4225,64.6025 C497.4225,64.1824979 497.542499,63.9725 497.7825,63.9725 C498.787505,63.9725 499.919994,64.0174995 501.18,64.1075 C502.380006,64.1975004 503.437495,64.2425 504.3525,64.2425 C505.267505,64.2425 506.384993,64.1975004 507.705,64.1075 C509.100007,64.0174995 510.307495,63.9725 511.3275,63.9725 C511.567501,63.9725 511.6875,64.1824979 511.6875,64.6025 C511.6875,65.0225021 511.567501,65.2325 511.3275,65.2325 C510.052494,65.3825007 509.085003,65.5812488 508.425,65.82875 C507.764997,66.0762512 507.303751,66.4137479 507.04125,66.84125 C506.778749,67.2687521 506.6475,68.0074947 506.6475,69.0575 L506.6475,90.23 C506.6475,91.625007 506.973747,92.5549977 507.62625,93.02 C508.278753,93.4850023 509.512491,93.8224989 511.3275,94.0325 C511.567501,94.0625001 511.6875,94.2649981 511.6875,94.64 Z M521.79,67.4375 C521.79,68.0675031 521.561252,68.6149977 521.10375,69.08 C520.646248,69.5450023 520.095003,69.7775 519.45,69.7775 C518.804997,69.7775 518.253752,69.5450023 517.79625,69.08 C517.338748,68.6149977 517.11,68.0675031 517.11,67.4375 C517.11,66.7774967 517.334998,66.2225022 517.785,65.7725 C518.235002,65.3224977 518.789997,65.0975 519.45,65.0975 C520.095003,65.0975 520.646248,65.3224977 521.10375,65.7725 C521.561252,66.2225022 521.79,66.7774967 521.79,67.4375 Z M524.94,94.64 C524.94,95.0600021 524.820001,95.27 524.58,95.27 C523.964997,95.27 523.177505,95.2250004 522.2175,95.135 C521.137495,95.0449995 520.230004,95 519.495,95 C518.744996,95 517.845005,95.0449995 516.795,95.135 C515.849995,95.2250004 515.070003,95.27 514.455,95.27 C514.214999,95.27 514.095,95.0600021 514.095,94.64 C514.095,94.2649981 514.214999,94.0625001 514.455,94.0325 C515.730006,93.8674992 516.551248,93.5600022 516.91875,93.11 C517.286252,92.6599977 517.47,91.7000073 517.47,90.23 L517.47,81.905 C517.47,80.704994 517.316252,79.9175019 517.00875,79.5425 C516.701248,79.1674981 516.030005,78.9200006 514.995,78.8 C514.754999,78.8 514.635,78.6050019 514.635,78.215 C514.635,77.8549982 514.754999,77.675 514.995,77.675 C516.570008,77.269998 517.859995,76.8387523 518.865,76.38125 C519.870005,75.9237477 520.499999,75.5450015 520.755,75.245 C520.905001,75.0649991 521.069999,74.975 521.25,74.975 C521.670002,74.975 521.88,75.0949988 521.88,75.335 C521.639999,78.6950168 521.52,81.3049907 521.52,83.165 L521.52,90.23 C521.52,91.7000073 521.703748,92.6599977 522.07125,93.11 C522.438752,93.5600022 523.274993,93.8674992 524.58,94.0325 C524.820001,94.0625001 524.94,94.2649981 524.94,94.64 Z M541.32,89.465 C541.32,91.2950091 540.600007,92.8324938 539.16,94.0775 C537.719993,95.3225062 535.98001,95.945 533.94,95.945 C533.219996,95.945 532.110008,95.7875016 530.61,95.4725 C529.484994,95.2474989 528.720002,95.135 528.315,95.135 C528.194999,94.0849947 527.917502,92.4875107 527.4825,90.3425 C527.4825,90.1174989 527.699998,90.005 528.135,90.005 C528.495002,90.005 528.7125,90.1249988 528.7875,90.365 C529.132502,91.4750055 529.814995,92.4424959 530.835,93.2675 C531.855005,94.0925041 532.904995,94.505 533.985,94.505 C535.110006,94.505 535.983747,94.1975031 536.60625,93.5825 C537.228753,92.9674969 537.54,92.1050055 537.54,90.995 C537.54,90.2899965 537.281253,89.6675027 536.76375,89.1275 C536.246247,88.5874973 535.125009,87.920004 533.4,87.125 C531.134989,86.0899948 529.638754,85.1150046 528.91125,84.2 C528.183746,83.2849954 527.82,82.1900064 527.82,80.915 C527.82,79.3399921 528.502493,77.9862557 529.8675,76.85375 C531.232507,75.7212443 532.844991,75.155 534.705,75.155 C535.485004,75.155 536.579993,75.2899986 537.99,75.56 C538.770004,75.7100007 539.279999,75.785 539.52,75.785 C539.565,77.5550088 539.662499,79.0624938 539.8125,80.3075 C539.8125,80.5325011 539.595002,80.645 539.16,80.645 C538.784998,80.645 538.575,80.5250012 538.53,80.285 C538.364999,79.1899945 537.952503,78.3012534 537.2925,77.61875 C536.632497,76.9362466 535.845005,76.595 534.93,76.595 C532.589988,76.595 531.42,77.6149898 531.42,79.655 C531.42,80.3450034 531.697497,80.9824971 532.2525,81.5675 C532.807503,82.1525029 534.014991,82.9099953 535.875,83.84 C538.095011,84.9500055 539.557496,85.9099959 540.2625,86.72 C540.967504,87.530004 541.32,88.4449949 541.32,89.465 Z M558.285,77.36 C558.285,78.170004 558.090002,78.575 557.7,78.575 L550.995,78.395 L550.995,89.195 C550.995,92.0150141 551.99999,93.425 554.01,93.425 C555.255006,93.425 556.387495,93.1325029 557.4075,92.5475 C557.527501,92.5475 557.63625,92.6262492 557.73375,92.78375 C557.83125,92.9412508 557.88,93.1099991 557.88,93.29 C557.88,93.6650019 557.321256,94.1712468 556.20375,94.80875 C555.086244,95.4462532 553.830007,95.765 552.435,95.765 C550.724991,95.765 549.360005,95.2437552 548.34,94.20125 C547.319995,93.1587448 546.81,91.7825085 546.81,90.0725 L546.81,89.87 L546.9,78.935 C546.9,78.5149979 546.720002,78.305 546.36,78.305 L544.65,78.305 C544.319998,78.305 544.155,78.1100019 544.155,77.72 C544.155,77.4199985 544.289999,77.1950007 544.56,77.045 C546.64501,75.8149938 548.459992,74.0825112 550.005,71.8475 C550.170001,71.6074988 550.379999,71.4875 550.635,71.4875 C551.055002,71.4875 551.265,71.6074988 551.265,71.8475 L551.085,76.145 L557.7,76.145 C558.090002,76.145 558.285,76.5499959 558.285,77.36 Z M581.8875,85.685 C581.8875,88.6700149 580.91626,91.1262404 578.97375,93.05375 C577.03124,94.9812596 574.515015,95.945 571.425,95.945 C568.334985,95.945 565.81501,94.9775097 563.865,93.0425 C561.91499,91.1074903 560.94,88.6550148 560.94,85.685 C560.94,82.6699849 561.92249,80.16126 563.8875,78.15875 C565.85251,76.15624 568.364985,75.155 571.425,75.155 C574.500015,75.155 577.01249,76.15249 578.9625,78.1475 C580.91251,80.14251 581.8875,82.6549848 581.8875,85.685 Z M577.365,85.64 C577.365,82.8949863 576.836255,80.7012582 575.77875,79.05875 C574.721245,77.4162418 573.270009,76.595 571.425,76.595 C569.594991,76.595 568.147505,77.4199917 567.0825,79.07 C566.017495,80.7200082 565.485,82.9099863 565.485,85.64 C565.485,88.3550136 566.009995,90.511242 567.06,92.10875 C568.110005,93.706258 569.564991,94.505 571.425,94.505 C573.285009,94.505 574.739995,93.7137579 575.79,92.13125 C576.840005,90.5487421 577.365,88.3850137 577.365,85.64 Z M600.225,77.405 C600.225,78.005003 600.041252,78.5149979 599.67375,78.935 C599.306248,79.3550021 598.860003,79.565 598.335,79.565 C597.674997,79.565 597.022503,79.3475022 596.3775,78.9125 C595.867497,78.5674983 595.425002,78.395 595.05,78.395 C594.074995,78.395 593.070005,78.9649943 592.035,80.105 L592.035,90.23 C592.035,91.5350065 592.259998,92.4462474 592.71,92.96375 C593.160002,93.4812526 594.119993,93.837499 595.59,94.0325 C595.830001,94.0625001 595.95,94.2649981 595.95,94.64 C595.95,95.0600021 595.830001,95.27 595.59,95.27 C594.974997,95.27 594.105006,95.2250004 592.98,95.135 C591.734994,95.0449995 590.745004,95 590.01,95 C589.259996,95 588.352505,95.0449995 587.2875,95.135 C586.327495,95.2250004 585.540003,95.27 584.925,95.27 C584.684999,95.27 584.565,95.0600021 584.565,94.64 C584.565,94.2649981 584.684999,94.0625001 584.925,94.0325 C586.230007,93.8674992 587.066248,93.5600022 587.43375,93.11 C587.801252,92.6599977 587.985,91.7000073 587.985,90.23 L587.985,81.905 C587.985,80.704994 587.831252,79.9175019 587.52375,79.5425 C587.216248,79.1674981 586.530005,78.9200006 585.465,78.8 C585.224999,78.8 585.105,78.6050019 585.105,78.215 C585.105,77.8549982 585.224999,77.675 585.465,77.675 C586.950007,77.2999981 588.176245,76.8837523 589.14375,76.42625 C590.111255,75.9687477 590.744998,75.5750016 591.045,75.245 C591.225001,75.0649991 591.404999,74.975 591.585,74.975 C592.005002,74.975 592.215,75.0949988 592.215,75.335 L592.035,78.17 C593.235006,77.0599944 594.266246,76.2800022 595.12875,75.83 C595.991254,75.3799977 596.849996,75.155 597.705,75.155 C598.395003,75.155 598.987498,75.3799977 599.4825,75.83 C599.977502,76.2800022 600.225,76.804997 600.225,77.405 Z M609.045,67.4375 C609.045,68.0675031 608.816252,68.6149977 608.35875,69.08 C607.901248,69.5450023 607.350003,69.7775 606.705,69.7775 C606.059997,69.7775 605.508752,69.5450023 605.05125,69.08 C604.593748,68.6149977 604.365,68.0675031 604.365,67.4375 C604.365,66.7774967 604.589998,66.2225022 605.04,65.7725 C605.490002,65.3224977 606.044997,65.0975 606.705,65.0975 C607.350003,65.0975 607.901248,65.3224977 608.35875,65.7725 C608.816252,66.2225022 609.045,66.7774967 609.045,67.4375 Z M612.195,94.64 C612.195,95.0600021 612.075001,95.27 611.835,95.27 C611.219997,95.27 610.432505,95.2250004 609.4725,95.135 C608.392495,95.0449995 607.485004,95 606.75,95 C605.999996,95 605.100005,95.0449995 604.05,95.135 C603.104995,95.2250004 602.325003,95.27 601.71,95.27 C601.469999,95.27 601.35,95.0600021 601.35,94.64 C601.35,94.2649981 601.469999,94.0625001 601.71,94.0325 C602.985006,93.8674992 603.806248,93.5600022 604.17375,93.11 C604.541252,92.6599977 604.725,91.7000073 604.725,90.23 L604.725,81.905 C604.725,80.704994 604.571252,79.9175019 604.26375,79.5425 C603.956248,79.1674981 603.285005,78.9200006 602.25,78.8 C602.009999,78.8 601.89,78.6050019 601.89,78.215 C601.89,77.8549982 602.009999,77.675 602.25,77.675 C603.825008,77.269998 605.114995,76.8387523 606.12,76.38125 C607.125005,75.9237477 607.754999,75.5450015 608.01,75.245 C608.160001,75.0649991 608.324999,74.975 608.505,74.975 C608.925002,74.975 609.135,75.0949988 609.135,75.335 C608.894999,78.6950168 608.775,81.3049907 608.775,83.165 L608.775,90.23 C608.775,91.7000073 608.958748,92.6599977 609.32625,93.11 C609.693752,93.5600022 610.529993,93.8674992 611.835,94.0325 C612.075001,94.0625001 612.195,94.2649981 612.195,94.64 Z M631.77,78.71 C631.77,79.9400061 631.155006,80.555 629.925,80.555 C629.399997,80.555 628.968752,80.4425011 628.63125,80.2175 C628.293748,79.9924989 627.952502,79.5050037 627.6075,78.755 C627.202498,77.8699956 626.771252,77.2887514 626.31375,77.01125 C625.856248,76.7337486 625.260004,76.595 624.525,76.595 C622.709991,76.595 621.326255,77.3487425 620.37375,78.85625 C619.421245,80.3637575 618.945,82.5649855 618.945,85.46 C618.945,87.8750121 619.544994,89.8212426 620.745,91.29875 C621.945006,92.7762574 623.54999,93.515 625.56,93.515 C627.840011,93.515 629.647493,92.8025071 630.9825,91.3775 L631.095,91.3325 C631.230001,91.3325 631.361249,91.4187491 631.48875,91.59125 C631.616251,91.7637509 631.68,91.9549989 631.68,92.165 C631.68,92.4650015 631.241254,92.9824963 630.36375,93.7175 C629.486246,94.4525037 628.526255,95.0074981 627.48375,95.3825 C626.441245,95.7575019 625.335006,95.945 624.165,95.945 C621.479987,95.945 619.18126,94.9587599 617.26875,92.98625 C615.35624,91.0137401 614.4,88.5200151 614.4,85.505 C614.4,82.5199851 615.40124,80.0487598 617.40375,78.09125 C619.40626,76.1337402 621.779986,75.155 624.525,75.155 C626.55001,75.155 628.263743,75.5037465 629.66625,76.20125 C631.068757,76.8987535 631.77,77.7349951 631.77,78.71 Z M666.0375,86.225 C666.0375,89.2100149 665.152509,91.5837412 663.3825,93.34625 C661.612491,95.1087588 659.220015,95.99 656.205,95.99 C654.869993,95.99 653.272509,95.7500024 651.4125,95.27 C649.717492,94.8199977 648.330005,94.595 647.25,94.595 C647.16,92.0449872 646.980001,89.4950127 646.71,86.945 C646.71,86.7049988 646.934998,86.585 647.385,86.585 C647.700002,86.585 647.895,86.7049988 647.97,86.945 C648.780004,89.7350139 649.814994,91.6999943 651.075,92.84 C652.335006,93.9800057 654.104989,94.55 656.385,94.55 C658.200009,94.55 659.606245,94.0250052 660.60375,92.975 C661.601255,91.9249947 662.1,90.4550094 662.1,88.565 C662.1,87.3499939 661.665004,86.2212552 660.795,85.17875 C659.924996,84.1362448 658.072514,82.7900082 655.2375,81.14 C651.982484,79.2649906 649.852505,77.6750065 648.8475,76.37 C647.842495,75.0649935 647.34,73.6175079 647.34,72.0275 C647.34,69.5824878 648.243741,67.5162584 650.05125,65.82875 C651.858759,64.1412416 654.149986,63.2975 656.925,63.2975 C657.975005,63.2975 659.182493,63.4399986 660.5475,63.725 C661.822506,63.9800013 662.924995,64.1075 663.855,64.1075 C664.035001,66.7475132 664.274999,69.0724899 664.575,71.0825 C664.575,71.3225012 664.380002,71.4425 663.99,71.4425 C663.569998,71.4425 663.3375,71.3225012 663.2925,71.0825 C662.797498,68.8324887 662.047505,67.2125049 661.0425,66.2225 C660.037495,65.232495 658.650009,64.7375 656.88,64.7375 C655.199992,64.7375 653.865005,65.232495 652.875,66.2225 C651.884995,67.2125049 651.39,68.5474916 651.39,70.2275 C651.39,71.2925053 651.806246,72.3087452 652.63875,73.27625 C653.471254,74.2437548 655.274986,75.5374919 658.05,77.1575 C661.335016,79.0775096 663.487495,80.6824935 664.5075,81.9725 C665.527505,83.2625064 666.0375,84.6799923 666.0375,86.225 Z M679.155,94.595 C679.155,95.0150021 679.035001,95.225 678.795,95.225 C678.179997,95.225 677.392505,95.1875004 676.4325,95.1125 C675.352495,95.0374996 674.445004,95 673.71,95 C672.989996,95 672.097505,95.0374996 671.0325,95.1125 C670.072495,95.1875004 669.285003,95.225 668.67,95.225 C668.429999,95.225 668.31,95.0150021 668.31,94.595 C668.31,94.2199981 668.429999,94.0175001 668.67,93.9875 C669.945006,93.8374992 670.773748,93.5337523 671.15625,93.07625 C671.538752,92.6187477 671.73,91.6550073 671.73,90.185 L671.73,69.2825 C671.73,68.0674939 671.580001,67.2725019 671.28,66.8975 C670.979998,66.5224981 670.290005,66.2750006 669.21,66.155 C668.969999,66.1249998 668.85,65.9375017 668.85,65.5925 C668.85,65.2324982 668.969999,65.0525 669.21,65.0525 C670.785008,64.647498 672.074995,64.2162523 673.08,63.75875 C674.085005,63.3012477 674.714999,62.9150016 674.97,62.6 C675.120001,62.4349992 675.284999,62.3525 675.465,62.3525 C675.885002,62.3525 676.095,62.4724988 676.095,62.7125 C675.854999,66.0725168 675.735,68.6824907 675.735,70.5425 L675.735,90.185 C675.735,91.6550073 675.922498,92.6187477 676.2975,93.07625 C676.672502,93.5337523 677.504994,93.8374992 678.795,93.9875 C679.035001,94.0175001 679.155,94.2199981 679.155,94.595 Z M695.4,95.765 C694.559996,95.765 693.828753,95.5587521 693.20625,95.14625 C692.583747,94.7337479 692.160001,94.1750035 691.935,93.47 C690.329992,95.1200082 688.230013,95.945 685.635,95.945 C684.284993,95.945 683.182504,95.5287542 682.3275,94.69625 C681.472496,93.8637458 681.045,92.8250062 681.045,91.58 C681.045,88.5049846 684.689964,86.0150095 691.98,84.11 L692.115,80.6 L692.115,80.4875 C692.115,79.4074946 691.848753,78.5487532 691.31625,77.91125 C690.783747,77.2737468 690.075004,76.955 689.19,76.955 C688.304996,76.955 687.555003,77.1687479 686.94,77.59625 C686.324997,78.0237521 686.01,78.5599968 685.995,79.205 C685.98,80.1650048 685.728752,80.9149973 685.24125,81.455 C684.753748,81.9950027 684.105004,82.265 683.295,82.265 C682.814998,82.265 682.425002,82.1225014 682.125,81.8375 C681.824998,81.5524986 681.675,81.1700024 681.675,80.69 C681.675,79.5349942 682.724989,78.3237563 684.825,77.05625 C686.92501,75.7887437 688.874991,75.155 690.675,75.155 C692.295008,75.155 693.607495,75.6349952 694.6125,76.595 C695.617505,77.5550048 696.12,78.8449919 696.12,80.465 L696.12,80.735 L695.805,90.905 L695.805,91.0625 C695.805,92.6375079 696.314995,93.425 697.335,93.425 C697.830002,93.425 698.407497,93.125003 699.0675,92.525 L699.225,92.48 C699.345001,92.48 699.457499,92.5587492 699.5625,92.71625 C699.667501,92.8737508 699.72,93.0424991 699.72,93.2225 C699.72,93.6575022 699.266255,94.1899968 698.35875,94.82 C697.451245,95.4500031 696.465005,95.765 695.4,95.765 Z M691.935,85.64 C687.554978,86.6300049 685.365,88.2649886 685.365,90.545 C685.365,92.6750106 686.189992,93.74 687.84,93.74 C688.635004,93.74 689.418746,93.541252 690.19125,93.14375 C690.963754,92.746248 691.484999,92.2550029 691.755,91.67 L691.935,85.64 Z M720.7575,76.505 C720.7575,76.8950019 720.637501,77.1049998 720.3975,77.135 C719.137494,77.2700007 718.293752,77.5699977 717.86625,78.035 C717.438748,78.5000023 716.902503,79.4599927 716.2575,80.915 L709.8,95.63 C709.694999,95.8700012 709.515001,95.99 709.26,95.99 C708.989999,95.99 708.802501,95.8700012 708.6975,95.63 L702.645,80.915 C702.089997,79.5349931 701.527503,78.5900025 700.9575,78.08 C700.387497,77.5699974 699.615005,77.2475007 698.64,77.1125 C698.399999,77.0824998 698.28,76.8800019 698.28,76.505 C698.28,76.0849979 698.399999,75.875 698.64,75.875 C699.255003,75.875 700.019995,75.9199995 700.935,76.01 C701.925005,76.1000004 702.779996,76.145 703.5,76.145 C704.235004,76.145 705.127495,76.1000004 706.1775,76.01 C707.107505,75.9199995 707.879997,75.875 708.495,75.875 C708.735001,75.875 708.855,76.0849979 708.855,76.505 C708.855,76.8800019 708.735001,77.0824998 708.495,77.1125 C707.594995,77.2325006 706.972502,77.393749 706.6275,77.59625 C706.282498,77.798751 706.11,78.094998 706.11,78.485 C706.11,78.9500023 706.334998,79.7524943 706.785,80.8925 L710.475,90.455 L714.21,80.915 C714.660002,79.7899944 714.885,78.9800025 714.885,78.485 C714.885,78.094998 714.716252,77.798751 714.37875,77.59625 C714.041248,77.393749 713.445004,77.2325006 712.59,77.1125 C712.349999,77.0824998 712.23,76.8800019 712.23,76.505 C712.23,76.0849979 712.349999,75.875 712.59,75.875 C713.220003,75.875 713.924996,75.9199995 714.705,76.01 C715.440004,76.1000004 716.099997,76.145 716.685,76.145 C716.985001,76.145 717.472497,76.1075004 718.1475,76.0325 C719.077505,75.9274995 719.827497,75.875 720.3975,75.875 C720.637501,75.875 720.7575,76.0849979 720.7575,76.505 Z M739.275,82.49 C739.275,82.9100021 739.005003,83.12 738.465,83.12 L726.135,83.12 C726.045,83.930004 726,84.7699956 726,85.64 C726,88.0550121 726.573744,89.9112435 727.72125,91.20875 C728.868756,92.5062565 730.499989,93.155 732.615,93.155 C733.680005,93.155 734.752495,92.8700028 735.8325,92.3 C736.912505,91.7299971 737.782497,91.0025044 738.4425,90.1175 L738.555,90.0725 C738.690001,90.0725 738.821249,90.1549992 738.94875,90.32 C739.076251,90.4850008 739.14,90.6799989 739.14,90.905 C739.14,91.2200016 738.660005,91.876245 737.7,92.87375 C736.739995,93.871255 735.697506,94.6324974 734.5725,95.1575 C733.447494,95.6825026 732.270006,95.945 731.04,95.945 C728.339986,95.945 726.067509,94.9550099 724.2225,92.975 C722.377491,90.9949901 721.455,88.5650144 721.455,85.685 C721.455,82.7449853 722.358741,80.2550102 724.16625,78.215 C725.973759,76.1749898 728.264986,75.155 731.04,75.155 C733.365012,75.155 735.318742,75.9162424 736.90125,77.43875 C738.483758,78.9612576 739.275,80.6449908 739.275,82.49 Z M735.18,80.51 C735.18,79.3849944 734.793754,78.4512537 734.02125,77.70875 C733.248746,76.9662463 732.255006,76.595 731.04,76.595 C729.884994,76.595 728.883754,77.0787452 728.03625,78.04625 C727.188746,79.0137548 726.615001,80.2849921 726.315,81.86 L732.57,81.68 C733.515005,81.6649999 734.186248,81.5750008 734.58375,81.41 C734.981252,81.2449992 735.18,80.9450022 735.18,80.51 Z M784.1625,71.375 C784.1625,71.6600014 783.892503,71.8025 783.3525,71.8025 C783.112499,71.8025 782.9625,71.697501 782.9025,71.4875 C782.257497,69.3724894 781.335006,67.8762544 780.135,66.99875 C778.934994,66.1212456 777.157512,65.6825 774.8025,65.6825 L772.6875,65.6825 C771.952496,65.6825 771.450001,65.8024988 771.18,66.0425 C770.909999,66.2825012 770.775,66.7324967 770.775,67.3925 L770.775,90.23 C770.775,91.2650052 770.906249,91.9962479 771.16875,92.42375 C771.431251,92.8512521 771.896247,93.1887488 772.56375,93.43625 C773.231253,93.6837512 774.187494,93.8824992 775.4325,94.0325 C775.672501,94.0625001 775.7925,94.2649981 775.7925,94.64 C775.7925,95.0600021 775.672501,95.27 775.4325,95.27 C774.427495,95.27 773.227507,95.2250004 771.8325,95.135 C770.512493,95.0449995 769.410004,95 768.525,95 C767.609995,95 766.485007,95.0449995 765.15,95.135 C763.754993,95.2250004 762.555005,95.27 761.55,95.27 C761.309999,95.27 761.19,95.0600021 761.19,94.64 C761.19,94.2649981 761.309999,94.0625001 761.55,94.0325 C763.365009,93.8224989 764.598747,93.4850023 765.25125,93.02 C765.903753,92.5549977 766.23,91.625007 766.23,90.23 L766.23,67.3925 C766.23,66.7324967 766.095001,66.2825012 765.825,66.0425 C765.554999,65.8024988 765.045004,65.6825 764.295,65.6825 L762.54,65.6825 C760.424989,65.6825 758.505009,66.2187446 756.78,67.29125 C755.054991,68.3637554 753.930003,69.7549914 753.405,71.465 C753.33,71.6900011 753.165001,71.8025 752.91,71.8025 C752.399997,71.8025 752.145,71.6375016 752.145,71.3075 C752.985004,69.0424887 753.779996,66.4775143 754.53,63.6125 C756.57001,64.0325021 761.234964,64.2425 768.525,64.2425 C776.010037,64.2425 780.77249,64.0325021 782.8125,63.6125 C783.022501,65.5625097 783.472497,68.1499839 784.1625,71.375 Z M800.925,77.405 C800.925,78.005003 800.741252,78.5149979 800.37375,78.935 C800.006248,79.3550021 799.560003,79.565 799.035,79.565 C798.374997,79.565 797.722503,79.3475022 797.0775,78.9125 C796.567497,78.5674983 796.125002,78.395 795.75,78.395 C794.774995,78.395 793.770005,78.9649943 792.735,80.105 L792.735,90.23 C792.735,91.5350065 792.959998,92.4462474 793.41,92.96375 C793.860002,93.4812526 794.819993,93.837499 796.29,94.0325 C796.530001,94.0625001 796.65,94.2649981 796.65,94.64 C796.65,95.0600021 796.530001,95.27 796.29,95.27 C795.674997,95.27 794.805006,95.2250004 793.68,95.135 C792.434994,95.0449995 791.445004,95 790.71,95 C789.959996,95 789.052505,95.0449995 787.9875,95.135 C787.027495,95.2250004 786.240003,95.27 785.625,95.27 C785.384999,95.27 785.265,95.0600021 785.265,94.64 C785.265,94.2649981 785.384999,94.0625001 785.625,94.0325 C786.930007,93.8674992 787.766248,93.5600022 788.13375,93.11 C788.501252,92.6599977 788.685,91.7000073 788.685,90.23 L788.685,81.905 C788.685,80.704994 788.531252,79.9175019 788.22375,79.5425 C787.916248,79.1674981 787.230005,78.9200006 786.165,78.8 C785.924999,78.8 785.805,78.6050019 785.805,78.215 C785.805,77.8549982 785.924999,77.675 786.165,77.675 C787.650007,77.2999981 788.876245,76.8837523 789.84375,76.42625 C790.811255,75.9687477 791.444998,75.5750016 791.745,75.245 C791.925001,75.0649991 792.104999,74.975 792.285,74.975 C792.705002,74.975 792.915,75.0949988 792.915,75.335 L792.735,78.17 C793.935006,77.0599944 794.966246,76.2800022 795.82875,75.83 C796.691254,75.3799977 797.549996,75.155 798.405,75.155 C799.095003,75.155 799.687498,75.3799977 800.1825,75.83 C800.677502,76.2800022 800.925,76.804997 800.925,77.405 Z M816.99,95.765 C816.149996,95.765 815.418753,95.5587521 814.79625,95.14625 C814.173747,94.7337479 813.750001,94.1750035 813.525,93.47 C811.919992,95.1200082 809.820013,95.945 807.225,95.945 C805.874993,95.945 804.772504,95.5287542 803.9175,94.69625 C803.062496,93.8637458 802.635,92.8250062 802.635,91.58 C802.635,88.5049846 806.279964,86.0150095 813.57,84.11 L813.705,80.6 L813.705,80.4875 C813.705,79.4074946 813.438753,78.5487532 812.90625,77.91125 C812.373747,77.2737468 811.665004,76.955 810.78,76.955 C809.894996,76.955 809.145003,77.1687479 808.53,77.59625 C807.914997,78.0237521 807.6,78.5599968 807.585,79.205 C807.57,80.1650048 807.318752,80.9149973 806.83125,81.455 C806.343748,81.9950027 805.695004,82.265 804.885,82.265 C804.404998,82.265 804.015001,82.1225014 803.715,81.8375 C803.414998,81.5524986 803.265,81.1700024 803.265,80.69 C803.265,79.5349942 804.314989,78.3237563 806.415,77.05625 C808.515011,75.7887437 810.464991,75.155 812.265,75.155 C813.885008,75.155 815.197495,75.6349952 816.2025,76.595 C817.207505,77.5550048 817.71,78.8449919 817.71,80.465 L817.71,80.735 L817.395,90.905 L817.395,91.0625 C817.395,92.6375079 817.904995,93.425 818.925,93.425 C819.420002,93.425 819.997497,93.125003 820.6575,92.525 L820.815,92.48 C820.935001,92.48 821.047499,92.5587492 821.1525,92.71625 C821.257501,92.8737508 821.31,93.0424991 821.31,93.2225 C821.31,93.6575022 820.856255,94.1899968 819.94875,94.82 C819.041245,95.4500031 818.055005,95.765 816.99,95.765 Z M813.525,85.64 C809.144978,86.6300049 806.955,88.2649886 806.955,90.545 C806.955,92.6750106 807.779992,93.74 809.43,93.74 C810.225004,93.74 811.008746,93.541252 811.78125,93.14375 C812.553754,92.746248 813.074999,92.2550029 813.345,91.67 L813.525,85.64 Z M845.0925,93.785 C845.0925,94.1000016 844.972501,94.2724998 844.7325,94.3025 C843.877496,94.4075005 842.887506,94.6174984 841.7625,94.9325 C840.637494,95.2475016 839.760003,95.5624984 839.13,95.8775 C838.799998,96.0425008 838.560001,96.125 838.41,96.125 C838.169999,96.125 838.05,96.0050012 838.05,95.765 L838.23,93.335 C836.639992,95.0750087 834.615012,95.945 832.155,95.945 C829.559987,95.945 827.351259,94.94751 825.52875,92.9525 C823.706241,90.95749 822.795,88.5650139 822.795,85.775 C822.795,82.6099842 823.80374,80.0487598 825.82125,78.09125 C827.83876,76.1337402 830.369985,75.155 833.415,75.155 C835.155009,75.155 836.759993,75.6949946 838.23,76.775 L838.23,69.2825 C838.23,68.0674939 838.080001,67.2725019 837.78,66.8975 C837.479998,66.5224981 836.790005,66.2750006 835.71,66.155 C835.469999,66.1249998 835.35,65.9375017 835.35,65.5925 C835.35,65.202498 835.469999,65.0075 835.71,65.0075 C837.120007,64.6774983 838.342495,64.2800023 839.3775,63.815 C840.412505,63.3499977 841.109998,62.9375018 841.47,62.5775 C841.620001,62.4274992 841.777499,62.3525 841.9425,62.3525 C842.362502,62.3525 842.5725,62.4724988 842.5725,62.7125 C842.332499,65.9825163 842.2125,68.5924902 842.2125,70.5425 L842.2125,90.365 C842.2125,91.4000052 842.362498,92.0937482 842.6625,92.44625 C842.962501,92.7987518 843.652495,93.0499992 844.7325,93.2 C844.972501,93.2 845.0925,93.394998 845.0925,93.785 Z M838.23,91.355 L838.23,79.835 C838.23,79.0549961 837.776255,78.3200034 836.86875,77.63 C835.961245,76.9399965 834.975005,76.595 833.91,76.595 C829.529978,76.595 827.34,79.6699692 827.34,85.82 C827.34,88.2500121 827.864995,90.267492 828.915,91.8725 C829.965005,93.477508 831.344991,94.28 833.055,94.28 C834.030005,94.28 834.914996,94.0587522 835.71,93.61625 C836.505004,93.1737478 837.344996,92.4200053 838.23,91.355 Z M864.78,82.49 C864.78,82.9100021 864.510003,83.12 863.97,83.12 L851.64,83.12 C851.55,83.930004 851.505,84.7699956 851.505,85.64 C851.505,88.0550121 852.078744,89.9112435 853.22625,91.20875 C854.373756,92.5062565 856.004989,93.155 858.12,93.155 C859.185005,93.155 860.257495,92.8700028 861.3375,92.3 C862.417505,91.7299971 863.287497,91.0025044 863.9475,90.1175 L864.06,90.0725 C864.195001,90.0725 864.326249,90.1549992 864.45375,90.32 C864.581251,90.4850008 864.645,90.6799989 864.645,90.905 C864.645,91.2200016 864.165005,91.876245 863.205,92.87375 C862.244995,93.871255 861.202506,94.6324974 860.0775,95.1575 C858.952494,95.6825026 857.775006,95.945 856.545,95.945 C853.844987,95.945 851.572509,94.9550099 849.7275,92.975 C847.882491,90.9949901 846.96,88.5650144 846.96,85.685 C846.96,82.7449853 847.863741,80.2550102 849.67125,78.215 C851.478759,76.1749898 853.769986,75.155 856.545,75.155 C858.870012,75.155 860.823742,75.9162424 862.40625,77.43875 C863.988758,78.9612576 864.78,80.6449908 864.78,82.49 Z M860.685,80.51 C860.685,79.3849944 860.298754,78.4512537 859.52625,77.70875 C858.753746,76.9662463 857.760006,76.595 856.545,76.595 C855.389994,76.595 854.388754,77.0787452 853.54125,78.04625 C852.693746,79.0137548 852.120001,80.2849921 851.82,81.86 L858.075,81.68 C859.020005,81.6649999 859.691248,81.5750008 860.08875,81.41 C860.486252,81.2449992 860.685,80.9450022 860.685,80.51 Z" id="PeoplesoftheHistoricSlaveTrade"></path>
            </g>
        </g>
    </g>
</svg>