<?xml version="1.0" encoding="UTF-8"?>
<svg width="409px" height="132px" viewBox="0 0 409 132" version="1.1" xmlns="http://www.w3.org/2000/svg" xmlns:xlink="http://www.w3.org/1999/xlink">
    <!-- Generator: Sketch 53.2 (72643) - https://sketchapp.com -->
    <title>Logo - Landing - Mobile</title>
    <desc>Created with Sketch.</desc>
    <g id="Finals" stroke="none" stroke-width="1" fill="none" fill-rule="evenodd">
        <g id="Main-Hub---Mobile" transform="translate(-301.000000, -135.000000)" fill="#FBF9F5" fill-rule="nonzero">
            <g id="Logo---Landing---Mobile" transform="translate(301.000000, 135.000000)">
                <path d="M68.066,61.828 C65.1499854,68.0560311 62.7740092,73.9959717 60.938,79.648 C47.3659321,79.2159978 37.7000288,79 31.94,79 C26.2519716,79 16.604068,79.2159978 2.996,79.648 C2.41999712,79.648 2.132,79.144005 2.132,78.136 C2.132,77.2359955 2.41999712,76.7500004 2.996,76.678 C5.98401494,76.3179982 8.26999208,75.841003 9.854,75.247 C11.4380079,74.652997 12.5449969,73.852005 13.175,72.844 C13.8050032,71.835995 14.12,70.0720126 14.12,67.552 L14.12,16.738 C14.12,14.2539876 13.823003,12.4990051 13.229,11.473 C12.634997,10.4469949 11.5460079,9.62800306 9.962,9.016 C8.37799208,8.40399694 6.0560153,7.9180018 2.996,7.558 C2.41999712,7.558 2.132,7.05400504 2.132,6.046 C2.132,5.03799496 2.41999712,4.534 2.996,4.534 C12.0680454,4.96600216 21.3559525,5.182 30.86,5.182 C40.4360479,5.182 49.7419548,4.96600216 58.778,4.534 C59.6060041,10.1140279 60.8119921,15.6219728 62.396,21.058 C62.396,21.7780036 61.7660063,22.138 60.506,22.138 C59.8939969,22.138 59.5160007,21.8860025 59.372,21.382 C56.7079867,12.8859575 51.0200436,8.638 42.308,8.638 L31.4,8.638 C27.2239791,8.638 25.136,10.7979784 25.136,15.118 L25.136,39.148 L38.744,39.148 C42.344018,39.148 44.7829936,38.3200083 46.061,36.664 C47.3390064,35.0079917 48.2299975,32.0740211 48.734,27.862 C48.734,27.2859971 49.237995,26.998 50.246,26.998 C51.254005,26.998 51.758,27.2859971 51.758,27.862 C51.758,29.662009 51.6500011,31.9299863 51.434,34.666 C51.2179989,37.2940131 51.11,39.4359917 51.11,41.092 C51.11,42.7840085 51.2179989,44.9439869 51.434,47.572 C51.6500011,50.380014 51.758,52.683991 51.758,54.484 C51.758,55.0600029 51.254005,55.348 50.246,55.348 C49.237995,55.348 48.734,55.0600029 48.734,54.484 C48.1939973,50.091978 47.2490068,47.0140088 45.899,45.25 C44.5489933,43.4859912 42.1640171,42.604 38.744,42.604 L25.136,42.604 L25.136,69.172 C25.136,73.4200212 27.2239791,75.544 31.4,75.544 L43.172,75.544 C47.4560214,75.544 51.7039789,74.149014 55.916,71.359 C60.1280211,68.5689861 63.2239901,65.0860209 65.204,60.91 C65.3480007,60.5859984 65.6539977,60.424 66.122,60.424 C66.6260025,60.424 67.075998,60.5589987 67.472,60.829 C67.868002,61.0990014 68.066,61.431998 68.066,61.828 Z M127.898,78.136 C127.898,79.144005 127.610003,79.648 127.034,79.648 C125.593993,79.648 123.83001,79.5400011 121.742,79.324 C119.437988,79.1079989 117.404009,79 115.64,79 C113.839991,79 111.770012,79.1079989 109.43,79.324 C107.305989,79.5400011 105.524007,79.648 104.084,79.648 C103.507997,79.648 103.22,79.144005 103.22,78.136 C103.22,77.2359955 103.507997,76.7500004 104.084,76.678 C106.568012,76.3899986 108.196996,75.6880056 108.971,74.572 C109.745004,73.4559944 110.132,71.1160178 110.132,67.552 L110.132,49.516 C110.132,45.4839798 109.340008,42.5320094 107.756,40.66 C106.171992,38.7879906 103.724017,37.852 100.412,37.852 C98.3239896,37.852 96.479008,38.247996 94.877,39.04 C93.274992,39.832004 91.5560092,41.2359899 89.72,43.252 L89.72,67.552 C89.72,71.1160178 90.1069961,73.4559944 90.881,74.572 C91.6550039,75.6880056 93.2839876,76.3899986 95.768,76.678 C96.3440029,76.7500004 96.632,77.2359955 96.632,78.136 C96.632,79.144005 96.3440029,79.648 95.768,79.648 C94.2919926,79.648 92.4920106,79.5400011 90.368,79.324 C88.0279883,79.1079989 85.9760088,79 84.212,79 C82.4839914,79 80.4680115,79.1079989 78.164,79.324 C76.0399894,79.5400011 74.2400074,79.648 72.764,79.648 C72.1879971,79.648 71.9,79.144005 71.9,78.136 C71.9,77.2359955 72.1879971,76.7500004 72.764,76.678 C75.8600155,76.281998 77.8579955,75.5350055 78.758,74.437 C79.6580045,73.3389945 80.108,71.0440175 80.108,67.552 L80.108,47.572 C80.108,44.6919856 79.7390037,42.8020045 79.001,41.902 C78.2629963,41.0019955 76.6160128,40.4080014 74.06,40.12 C73.4839971,40.12 73.196,39.6520047 73.196,38.716 C73.196,37.8519957 73.4839971,37.42 74.06,37.42 C77.6240178,36.5199955 80.5939881,35.5030057 82.97,34.369 C85.3460119,33.2349943 86.8399969,32.3080036 87.452,31.588 C87.8120018,31.1559978 88.2079978,30.94 88.64,30.94 C89.648005,30.94 90.152,31.2279971 90.152,31.804 L89.72,38.608 C94.9040259,33.7839759 99.7279777,31.372 104.192,31.372 C109.088024,31.372 112.912986,32.775986 115.667,35.584 C118.421014,38.392014 119.798,42.1719762 119.798,46.924 L119.798,67.552 C119.798,71.0800176 120.238996,73.3839946 121.121,74.464 C122.003004,75.5440054 123.973985,76.281998 127.034,76.678 C127.610003,76.7500004 127.898,77.2359955 127.898,78.136 Z M166.292,65.716 C166.292,70.108022 164.564017,73.7979851 161.108,76.786 C157.651983,79.7740149 153.476024,81.268 148.58,81.268 C146.851991,81.268 144.188018,80.8900038 140.588,80.134 C137.887987,79.5939973 136.052005,79.324 135.08,79.324 C134.791999,76.8039874 134.126005,72.9700257 133.082,67.822 C133.082,67.2819973 133.603995,67.012 134.648,67.012 C135.512004,67.012 136.033999,67.2999971 136.214,67.876 C137.042004,70.5400133 138.679988,72.8619901 141.128,74.842 C143.576012,76.8220099 146.095987,77.812 148.688,77.812 C151.388014,77.812 153.484993,77.0740074 154.979,75.598 C156.473007,74.1219926 157.22,72.0520133 157.22,69.388 C157.22,67.6959915 156.599006,66.2020065 155.357,64.906 C154.114994,63.6099935 151.424021,62.0080095 147.284,60.1 C141.847973,57.6159876 138.257009,55.276011 136.511,53.08 C134.764991,50.883989 133.892,48.2560153 133.892,45.196 C133.892,41.4159811 135.529984,38.1670136 138.806,35.449 C142.082016,32.7309864 145.951978,31.372 150.416,31.372 C152.288009,31.372 154.915983,31.6959968 158.3,32.344 C160.172009,32.7040018 161.395997,32.884 161.972,32.884 C162.080001,37.1320212 162.313998,40.7499851 162.674,43.738 C162.674,44.2780027 162.152005,44.548 161.108,44.548 C160.207996,44.548 159.704001,44.2600029 159.596,43.684 C159.199998,41.0559869 158.210008,38.9230082 156.626,37.285 C155.041992,35.6469918 153.152011,34.828 150.956,34.828 C145.339972,34.828 142.532,37.2759755 142.532,42.172 C142.532,43.8280083 143.197993,45.357993 144.53,46.762 C145.862007,48.166007 148.759978,49.9839888 153.224,52.216 C158.552027,54.8800133 162.061992,57.1839903 163.754,59.128 C165.446008,61.0720097 166.292,63.2679878 166.292,65.716 Z M197.288,78.028 C197.288,79.036005 197.000003,79.54 196.424,79.54 C194.947993,79.54 193.058012,79.4500009 190.754,79.27 C188.161987,79.0899991 185.984009,79 184.22,79 C182.491991,79 180.350013,79.0899991 177.794,79.27 C175.489988,79.4500009 173.600007,79.54 172.124,79.54 C171.547997,79.54 171.26,79.036005 171.26,78.028 C171.26,77.1279955 171.547997,76.6420004 172.124,76.57 C175.184015,76.2099982 177.172995,75.4810055 178.091,74.383 C179.009005,73.2849945 179.468,70.9720176 179.468,67.444 L179.468,17.278 C179.468,14.3619854 179.108004,12.4540045 178.388,11.554 C177.667996,10.6539955 176.012013,10.0600014 173.42,9.772 C172.843997,9.69999964 172.556,9.25000414 172.556,8.422 C172.556,7.55799568 172.843997,7.126 173.42,7.126 C177.200019,6.15399514 180.295988,5.11900549 182.708,4.021 C185.120012,2.92299451 186.631997,1.99600378 187.244,1.24 C187.604002,0.84399802 187.999998,0.646 188.432,0.646 C189.440005,0.646 189.944,0.93399712 189.944,1.51 C189.367997,9.57404032 189.08,15.8379777 189.08,20.302 L189.08,67.444 C189.08,70.9720176 189.529996,73.2849945 190.43,74.383 C191.330005,75.4810055 193.327985,76.2099982 196.424,76.57 C197.000003,76.6420004 197.288,77.1279955 197.288,78.028 Z M236.276,80.836 C234.25999,80.836 232.505007,80.341005 231.011,79.351 C229.516993,78.3609951 228.500003,77.0200085 227.96,75.328 C224.107981,79.2880198 219.068031,81.268 212.84,81.268 C209.599984,81.268 206.95401,80.26901 204.902,78.271 C202.84999,76.27299 201.824,73.7800149 201.824,70.792 C201.824,63.4119631 210.571913,57.4360229 228.068,52.864 L228.392,44.44 L228.392,44.17 C228.392,41.577987 227.753006,39.5170077 226.475,37.987 C225.196994,36.4569924 223.496011,35.692 221.372,35.692 C219.247989,35.692 217.448007,36.2049949 215.972,37.231 C214.495993,38.2570051 213.74,39.5439923 213.704,41.092 C213.668,43.3960115 213.065006,45.1959935 211.895,46.492 C210.724994,47.7880065 209.16801,48.436 207.224,48.436 C206.071994,48.436 205.136004,48.0940034 204.416,47.41 C203.695996,46.7259966 203.336,45.8080058 203.336,44.656 C203.336,41.8839861 205.855975,38.9770152 210.896,35.935 C215.936025,32.8929848 220.615978,31.372 224.936,31.372 C228.824019,31.372 231.973988,32.5239885 234.386,34.828 C236.798012,37.1320115 238.004,40.2279806 238.004,44.116 L238.004,44.764 L237.248,69.172 L237.248,69.55 C237.248,73.3300189 238.471988,75.22 240.92,75.22 C242.108006,75.22 243.493992,74.5000072 245.078,73.06 L245.456,72.952 C245.744001,72.952 246.013999,73.1409981 246.266,73.519 C246.518001,73.8970019 246.644,74.3019978 246.644,74.734 C246.644,75.7780052 245.555011,77.0559924 243.377,78.568 C241.198989,80.0800076 238.832013,80.836 236.276,80.836 Z M227.96,56.536 C217.447947,58.9120119 212.192,62.8359726 212.192,68.308 C212.192,73.4200256 214.17198,75.976 218.132,75.976 C220.04001,75.976 221.920991,75.4990048 223.775,74.545 C225.629009,73.5909952 226.879997,72.412007 227.528,71.008 L227.96,56.536 Z M298.754,34.612 C298.754,35.5480047 298.466003,36.0519996 297.89,36.124 C294.865985,36.4480016 292.841005,37.1679944 291.815,38.284 C290.788995,39.4000056 289.502008,41.7039825 287.954,45.196 L272.456,80.512 C272.203999,81.0880029 271.772003,81.376 271.16,81.376 C270.511997,81.376 270.062001,81.0880029 269.81,80.512 L255.284,45.196 C253.951993,41.8839834 252.602007,39.6160061 251.234,38.392 C249.865993,37.1679939 248.012012,36.3940016 245.672,36.07 C245.095997,35.9979996 244.808,35.5120045 244.808,34.612 C244.808,33.603995 245.095997,33.1 245.672,33.1 C247.148007,33.1 248.983989,33.2079989 251.18,33.424 C253.556012,33.6400011 255.607991,33.748 257.336,33.748 C259.100009,33.748 261.241987,33.6400011 263.762,33.424 C265.994011,33.2079989 267.847993,33.1 269.324,33.1 C269.900003,33.1 270.188,33.603995 270.188,34.612 C270.188,35.5120045 269.900003,35.9979996 269.324,36.07 C267.163989,36.3580014 265.670004,36.7449976 264.842,37.231 C264.013996,37.7170024 263.6,38.4279953 263.6,39.364 C263.6,40.4800056 264.139995,42.4059863 265.22,45.142 L274.076,68.092 L283.04,45.196 C284.120005,42.4959865 284.66,40.5520059 284.66,39.364 C284.66,38.4279953 284.255004,37.7170024 283.445,37.231 C282.634996,36.7449976 281.20401,36.3580014 279.152,36.07 C278.575997,35.9979996 278.288,35.5120045 278.288,34.612 C278.288,33.603995 278.575997,33.1 279.152,33.1 C280.664008,33.1 282.355991,33.2079989 284.228,33.424 C285.992009,33.6400011 287.575993,33.748 288.98,33.748 C289.700004,33.748 290.869992,33.6580009 292.49,33.478 C294.722011,33.2259987 296.521993,33.1 297.89,33.1 C298.466003,33.1 298.754,33.603995 298.754,34.612 Z M343.196,48.976 C343.196,49.984005 342.548006,50.488 341.252,50.488 L311.66,50.488 C311.443999,52.4320097 311.336,54.4479896 311.336,56.536 C311.336,62.332029 312.712986,66.7869844 315.467,69.901 C318.221014,73.0150156 322.135975,74.572 327.212,74.572 C329.768013,74.572 332.341987,73.8880068 334.934,72.52 C337.526013,71.1519932 339.613992,69.4060106 341.198,67.282 L341.468,67.174 C341.792002,67.174 342.106998,67.371998 342.413,67.768 C342.719002,68.164002 342.872,68.6319973 342.872,69.172 C342.872,69.9280038 341.720012,71.502988 339.416,73.897 C337.111988,76.291012 334.610014,78.1179937 331.91,79.378 C329.209987,80.6380063 326.384015,81.268 323.432,81.268 C316.951968,81.268 311.498022,78.8920238 307.07,74.14 C302.641978,69.3879762 300.428,63.5560346 300.428,56.644 C300.428,49.5879647 302.596978,43.6120245 306.935,38.716 C311.273022,33.8199755 316.771967,31.372 323.432,31.372 C329.012028,31.372 333.700981,33.1989817 337.499,36.853 C341.297019,40.5070183 343.196,44.5479779 343.196,48.976 Z M333.368,44.224 C333.368,41.5239865 332.441009,39.2830089 330.587,37.501 C328.732991,35.7189911 326.348015,34.828 323.432,34.828 C320.659986,34.828 318.25701,35.9889884 316.223,38.311 C314.18899,40.6330116 312.812004,43.6839811 312.092,47.464 L327.104,47.032 C329.372011,46.9959998 330.982995,46.780002 331.937,46.384 C332.891005,45.987998 333.368,45.2680052 333.368,44.224 Z M405.026,76.084 C405.026,76.8400038 404.738003,77.2539996 404.162,77.326 C402.10999,77.5780013 399.734014,78.0819962 397.034,78.838 C394.333986,79.5940038 392.228008,80.3499962 390.716,81.106 C389.923996,81.502002 389.348002,81.7 388.988,81.7 C388.411997,81.7 388.124,81.4120029 388.124,80.836 L388.556,75.004 C384.739981,79.1800209 379.88003,81.268 373.976,81.268 C367.747969,81.268 362.447022,78.8740239 358.073,74.086 C353.698978,69.2979761 351.512,63.5560335 351.512,56.86 C351.512,49.263962 353.932976,43.1170235 358.775,38.419 C363.617024,33.7209765 369.691963,31.372 377,31.372 C381.176021,31.372 385.027982,32.667987 388.556,35.26 L388.556,17.278 C388.556,14.3619854 388.196004,12.4540045 387.476,11.554 C386.755996,10.6539955 385.100013,10.0600014 382.508,9.772 C381.931997,9.69999964 381.644,9.25000414 381.644,8.422 C381.644,7.48599532 381.931997,7.018 382.508,7.018 C385.892017,6.22599604 388.825988,5.27200558 391.31,4.156 C393.794012,3.03999442 395.467996,2.05000432 396.332,1.186 C396.692002,0.8259982 397.069998,0.646 397.466,0.646 C398.474005,0.646 398.978,0.93399712 398.978,1.51 C398.401997,9.35803924 398.114,15.6219766 398.114,20.302 L398.114,67.876 C398.114,70.3600124 398.473996,72.0249958 399.194,72.871 C399.914004,73.7170042 401.569987,74.3199982 404.162,74.68 C404.738003,74.68 405.026,75.1479953 405.026,76.084 Z M388.556,70.252 L388.556,42.604 C388.556,40.7319906 387.467011,38.9680083 385.289,37.312 C383.110989,35.6559917 380.744013,34.828 378.188,34.828 C367.675947,34.828 362.42,42.2079262 362.42,56.968 C362.42,62.8000292 363.679987,67.6419807 366.2,71.494 C368.720013,75.3460193 372.031979,77.272 376.136,77.272 C378.476012,77.272 380.59999,76.7410053 382.508,75.679 C384.41601,74.6169947 386.431989,72.8080128 388.556,70.252 Z" id="Enslaved"></path>
                <path d="M16.674,110.406 C16.674,112.048675 16.041673,113.427661 14.777,114.543 C13.512327,115.658339 11.946676,116.216 10.08,116.216 C8.9599944,116.216 7.85867208,116.169334 6.776,116.076 L6.776,121.032 C6.776,121.685337 6.85766585,122.142665 7.021,122.404 C7.18433415,122.665335 7.46899797,122.872999 7.875,123.027 C8.28100203,123.181001 8.87599608,123.304666 9.66,123.398 C9.80933408,123.416667 9.884,123.542666 9.884,123.776 C9.884,124.037335 9.80933408,124.168 9.66,124.168 C9.03466354,124.168 8.29267096,124.14 7.434,124.084 C6.61266256,124.028 5.91733618,124 5.348,124 C4.77866382,124 4.07867082,124.028 3.248,124.084 C2.37999566,124.14 1.63333646,124.168 1.008,124.168 C0.85866592,124.168 0.784,124.037335 0.784,123.776 C0.784,123.542666 0.85866592,123.416667 1.008,123.398 C2.13733898,123.267333 2.90499797,123.057335 3.311,122.768 C3.71700203,122.478665 3.92,121.900004 3.92,121.032 L3.92,107.858 C3.92,107.204663 3.83833415,106.745001 3.675,106.479 C3.51166585,106.212999 3.22466872,106.003001 2.814,105.849 C2.40333128,105.694999 1.8013373,105.571334 1.008,105.478 C0.85866592,105.478 0.784,105.347335 0.784,105.086 C0.784,104.824665 0.85866592,104.694 1.008,104.694 C1.63333646,104.694 2.37999566,104.722 3.248,104.778 C4.07867082,104.834 4.77866382,104.862 5.348,104.862 C5.91733618,104.862 6.61266256,104.834 7.434,104.778 C8.29267096,104.722 9.03466354,104.694 9.66,104.694 C11.9560115,104.694 13.6989941,105.179328 14.889,106.15 C16.079006,107.120672 16.674,108.539324 16.674,110.406 Z M13.566,110.406 C13.566,108.912659 13.1996703,107.746004 12.467,106.906 C11.7343297,106.065996 10.7613394,105.646 9.548,105.646 C8.81999636,105.646 8.25766865,105.701999 7.861,105.814 C7.46433135,105.926001 7.18433415,106.107999 7.021,106.36 C6.85766585,106.612001 6.776,107.11133 6.776,107.858 L6.776,114.284 C6.776,114.685335 6.90199874,114.953666 7.154,115.089 C7.40600126,115.224334 7.9519958,115.292 8.792,115.292 C10.3133409,115.292 11.4893292,114.858004 12.32,113.99 C13.1506708,113.121996 13.566,111.927341 13.566,110.406 Z M29.596,116.216 C29.596,116.477335 29.4280017,116.608 29.092,116.608 L21.42,116.608 C21.3639997,117.112003 21.336,117.634664 21.336,118.176 C21.336,119.678674 21.6929964,120.833663 22.407,121.641 C23.1210036,122.448337 24.1359934,122.852 25.452,122.852 C26.11467,122.852 26.7819966,122.674668 27.454,122.32 C28.1260034,121.965332 28.6673313,121.512669 29.078,120.962 L29.148,120.934 C29.2320004,120.934 29.3136663,120.985333 29.393,121.088 C29.4723337,121.190667 29.512,121.311999 29.512,121.452 C29.512,121.648001 29.2133363,122.05633 28.616,122.677 C28.0186637,123.29767 27.3700035,123.771332 26.67,124.098 C25.9699965,124.424668 25.2373372,124.588 24.472,124.588 C22.7919916,124.588 21.3780057,123.972006 20.23,122.74 C19.0819943,121.507994 18.508,119.996009 18.508,118.204 C18.508,116.374658 19.0703277,114.82534 20.195,113.556 C21.3196723,112.28666 22.7453247,111.652 24.472,111.652 C25.9186739,111.652 27.1343284,112.125662 28.119,113.073 C29.1036716,114.020338 29.596,115.067994 29.596,116.216 Z M27.048,114.984 C27.048,114.283997 26.8076691,113.703002 26.327,113.241 C25.8463309,112.778998 25.2280038,112.548 24.472,112.548 C23.7533297,112.548 23.130336,112.848997 22.603,113.451 C22.075664,114.053003 21.7186676,114.843995 21.532,115.824 L25.424,115.712 C26.0120029,115.702667 26.4296654,115.646667 26.677,115.544 C26.9243346,115.441333 27.048,115.254668 27.048,114.984 Z M44.646,118.204 C44.646,120.061343 44.0416727,121.589661 42.833,122.789 C41.6243273,123.988339 40.0586763,124.588 38.136,124.588 C36.2133237,124.588 34.6453394,123.986006 33.432,122.782 C32.2186606,121.577994 31.612,120.052009 31.612,118.204 C31.612,116.327991 32.2233272,114.767006 33.446,113.521 C34.6686728,112.274994 36.2319905,111.652 38.136,111.652 C40.0493429,111.652 41.6126606,112.27266 42.826,113.514 C44.0393394,114.75534 44.646,116.318657 44.646,118.204 Z M41.832,118.176 C41.832,116.467991 41.5030033,115.103005 40.845,114.081 C40.1869967,113.058995 39.2840057,112.548 38.136,112.548 C36.9973276,112.548 36.09667,113.061328 35.434,114.088 C34.77133,115.114672 34.44,116.477325 34.44,118.176 C34.44,119.865342 34.7666634,121.206995 35.42,122.201 C36.0733366,123.195005 36.9786609,123.692 38.136,123.692 C39.2933391,123.692 40.1986634,123.199672 40.852,122.215 C41.5053366,121.230328 41.832,119.884009 41.832,118.176 Z M59.85,118.204 C59.85,120.042676 59.2293395,121.566327 57.988,122.775 C56.7466605,123.983673 55.1600097,124.588 53.228,124.588 C52.1173278,124.588 51.1653373,124.373335 50.372,123.944 L50.372,128.256 C50.372,129.161338 50.4886655,129.758665 50.722,130.048 C50.9553345,130.337335 51.4733293,130.533333 52.276,130.636 C52.4253341,130.636 52.5,130.766665 52.5,131.028 C52.5,131.289335 52.4253341,131.42 52.276,131.42 C51.8933314,131.42 51.3986697,131.392 50.792,131.336 C50.1386634,131.28 49.5880022,131.252 49.14,131.252 C48.673331,131.252 48.10867,131.28 47.446,131.336 C46.8486637,131.392 46.3586686,131.42 45.976,131.42 C45.8266659,131.42 45.752,131.289335 45.752,131.028 C45.752,130.766665 45.8266659,130.636 45.976,130.636 C46.7693373,130.533333 47.2849988,130.337335 47.523,130.048 C47.7610012,129.758665 47.88,129.161338 47.88,128.256 L47.88,115.852 C47.88,115.10533 47.7843343,114.615335 47.593,114.382 C47.4016657,114.148666 46.97467,113.994667 46.312,113.92 C46.1626659,113.92 46.088,113.798668 46.088,113.556 C46.088,113.331999 46.1626659,113.22 46.312,113.22 C47.2173379,112.995999 47.9756636,112.739335 48.587,112.45 C49.1983364,112.160665 49.601999,111.913334 49.798,111.708 C49.9006672,111.595999 49.9986662,111.54 50.092,111.54 C50.3533346,111.54 50.484,111.614666 50.484,111.764 L50.372,113.528 C50.8853359,112.995997 51.4779966,112.550335 52.15,112.191 C52.8220034,111.831665 53.3959976,111.652 53.872,111.652 C55.7106759,111.652 57.1666613,112.251661 58.24,113.451 C59.3133387,114.650339 59.85,116.234657 59.85,118.204 Z M57.036,118.176 C57.036,116.617326 56.6976701,115.401671 56.021,114.529 C55.34433,113.656329 54.3946728,113.22 53.172,113.22 C52.6586641,113.22 52.1943354,113.327332 51.779,113.542 C51.3636646,113.756668 50.8946693,114.15333 50.372,114.732 L50.372,121.592 C50.372,122.189336 50.6379973,122.688665 51.17,123.09 C51.7020027,123.491335 52.3506628,123.692 53.116,123.692 C54.3853397,123.692 55.3559966,123.213671 56.028,122.257 C56.7000034,121.300329 57.036,119.940009 57.036,118.176 Z M68.124,123.748 C68.124,124.009335 68.0493341,124.14 67.9,124.14 C67.5173314,124.14 67.0273363,124.116667 66.43,124.07 C65.7579966,124.023333 65.1933356,124 64.736,124 C64.2879978,124 63.73267,124.023333 63.07,124.07 C62.4726637,124.116667 61.9826686,124.14 61.6,124.14 C61.4506659,124.14 61.376,124.009335 61.376,123.748 C61.376,123.514666 61.4506659,123.388667 61.6,123.37 C62.3933373,123.276666 62.9089988,123.087668 63.147,122.803 C63.3850012,122.518332 63.504,121.918671 63.504,121.004 L63.504,107.998 C63.504,107.241996 63.4106676,106.747335 63.224,106.514 C63.0373324,106.280666 62.6080034,106.126667 61.936,106.052 C61.7866659,106.033333 61.712,105.916668 61.712,105.702 C61.712,105.477999 61.7866659,105.366 61.936,105.366 C62.9160049,105.113999 63.7186635,104.845668 64.344,104.561 C64.9693365,104.276332 65.3613325,104.036001 65.52,103.84 C65.6133338,103.737333 65.7159994,103.686 65.828,103.686 C66.0893346,103.686 66.22,103.760666 66.22,103.91 C66.0706659,106.000677 65.996,107.624661 65.996,108.782 L65.996,121.004 C65.996,121.918671 66.1126655,122.518332 66.346,122.803 C66.5793345,123.087668 67.0973293,123.276666 67.9,123.37 C68.0493341,123.388667 68.124,123.514666 68.124,123.748 Z M80.304,116.216 C80.304,116.477335 80.1360017,116.608 79.8,116.608 L72.128,116.608 C72.0719997,117.112003 72.044,117.634664 72.044,118.176 C72.044,119.678674 72.4009964,120.833663 73.115,121.641 C73.8290036,122.448337 74.8439934,122.852 76.16,122.852 C76.82267,122.852 77.4899966,122.674668 78.162,122.32 C78.8340034,121.965332 79.3753313,121.512669 79.786,120.962 L79.856,120.934 C79.9400004,120.934 80.0216663,120.985333 80.101,121.088 C80.1803337,121.190667 80.22,121.311999 80.22,121.452 C80.22,121.648001 79.9213363,122.05633 79.324,122.677 C78.7266637,123.29767 78.0780035,123.771332 77.378,124.098 C76.6779965,124.424668 75.9453372,124.588 75.18,124.588 C73.4999916,124.588 72.0860057,123.972006 70.938,122.74 C69.7899943,121.507994 69.216,119.996009 69.216,118.204 C69.216,116.374658 69.7783277,114.82534 70.903,113.556 C72.0276723,112.28666 73.4533247,111.652 75.18,111.652 C76.6266739,111.652 77.8423284,112.125662 78.827,113.073 C79.8116716,114.020338 80.304,115.067994 80.304,116.216 Z M77.756,114.984 C77.756,114.283997 77.5156691,113.703002 77.035,113.241 C76.5543309,112.778998 75.9360038,112.548 75.18,112.548 C74.4613297,112.548 73.838336,112.848997 73.311,113.451 C72.783664,114.053003 72.4266676,114.843995 72.24,115.824 L76.132,115.712 C76.7200029,115.702667 77.1376654,115.646667 77.385,115.544 C77.6323346,115.441333 77.756,115.254668 77.756,114.984 Z M102.354,118.204 C102.354,120.061343 101.749673,121.589661 100.541,122.789 C99.3323273,123.988339 97.7666763,124.588 95.844,124.588 C93.9213237,124.588 92.3533394,123.986006 91.14,122.782 C89.9266606,121.577994 89.32,120.052009 89.32,118.204 C89.32,116.327991 89.9313272,114.767006 91.154,113.521 C92.3766728,112.274994 93.9399905,111.652 95.844,111.652 C97.7573429,111.652 99.3206606,112.27266 100.534,113.514 C101.747339,114.75534 102.354,116.318657 102.354,118.204 Z M99.54,118.176 C99.54,116.467991 99.2110033,115.103005 98.553,114.081 C97.8949967,113.058995 96.9920057,112.548 95.844,112.548 C94.7053276,112.548 93.80467,113.061328 93.142,114.088 C92.47933,115.114672 92.148,116.477325 92.148,118.176 C92.148,119.865342 92.4746634,121.206995 93.128,122.201 C93.7813366,123.195005 94.6866609,123.692 95.844,123.692 C97.0013391,123.692 97.9066634,123.199672 98.56,122.215 C99.2133366,121.230328 99.54,119.884009 99.54,118.176 Z M115.43,105.142 C115.43,105.524669 115.285335,105.825666 114.996,106.045 C114.706665,106.264334 114.310003,106.374 113.806,106.374 C113.357998,106.374 112.905336,106.201335 112.448,105.856 C112.065331,105.566665 111.724668,105.422 111.426,105.422 C110.79133,105.422 110.250002,105.77433 109.802,106.479 C109.353998,107.18367 109.13,108.137994 109.13,109.342 L109.13,112.604 L112.266,112.604 C112.490001,112.604 112.602,112.855997 112.602,113.36 C112.602,113.864003 112.490001,114.116 112.266,114.116 L109.102,114.004 L109.102,121.032 C109.102,121.946671 109.213999,122.543999 109.438,122.824 C109.662001,123.104001 110.175329,123.295333 110.978,123.398 C111.127334,123.416667 111.202,123.542666 111.202,123.776 C111.202,124.037335 111.127334,124.168 110.978,124.168 C110.595331,124.168 110.110003,124.14 109.522,124.084 C108.85933,124.028 108.299336,124 107.842,124 C107.375331,124 106.815337,124.028 106.162,124.084 C105.573997,124.14 105.088669,124.168 104.706,124.168 C104.556666,124.168 104.482,124.037335 104.482,123.776 C104.482,123.542666 104.556666,123.416667 104.706,123.398 C105.499337,123.295333 106.010332,123.104001 106.239,122.824 C106.467668,122.543999 106.582,121.946671 106.582,121.032 L106.582,114.34 C106.582,114.078665 106.470001,113.948 106.246,113.948 L104.818,113.948 C104.631332,113.948 104.538,113.826668 104.538,113.584 C104.538,113.341332 104.621999,113.201334 104.79,113.164 C105.984673,112.893332 106.582,112.632001 106.582,112.38 C106.582,110.121322 107.270326,108.131009 108.647,106.409 C110.023674,104.686991 111.612658,103.826 113.414,103.826 C114.039336,103.826 114.531665,103.942666 114.891,104.176 C115.250335,104.409335 115.43,104.731331 115.43,105.142 Z M129.388,113.024 C129.388,113.528003 129.266668,113.78 129.024,113.78 L124.852,113.668 L124.852,120.388 C124.852,122.142675 125.477327,123.02 126.728,123.02 C127.502671,123.02 128.20733,122.838002 128.842,122.474 C128.916667,122.474 128.984333,122.523 129.045,122.621 C129.105667,122.719 129.136,122.823999 129.136,122.936 C129.136,123.169335 128.788337,123.484331 128.093,123.881 C127.397663,124.277669 126.616004,124.476 125.748,124.476 C124.683995,124.476 123.83467,124.15167 123.2,123.503 C122.56533,122.85433 122.248,121.998005 122.248,120.934 L122.248,120.808 L122.304,114.004 C122.304,113.742665 122.192001,113.612 121.968,113.612 L120.904,113.612 C120.698666,113.612 120.596,113.490668 120.596,113.248 C120.596,113.061332 120.679999,112.921334 120.848,112.828 C122.14534,112.062663 123.274662,110.984674 124.236,109.594 C124.338667,109.444666 124.469333,109.37 124.628,109.37 C124.889335,109.37 125.02,109.444666 125.02,109.594 L124.908,112.268 L129.024,112.268 C129.266668,112.268 129.388,112.519997 129.388,113.024 Z M145.446,123.776 C145.446,124.037335 145.371334,124.168 145.222,124.168 C144.848665,124.168 144.386669,124.14 143.836,124.084 C143.238664,124.028 142.716002,124 142.268,124 C141.801331,124 141.26467,124.028 140.658,124.084 C140.107331,124.14 139.645335,124.168 139.272,124.168 C139.122666,124.168 139.048,124.037335 139.048,123.776 C139.048,123.542666 139.122666,123.416667 139.272,123.398 C139.916003,123.323333 140.338332,123.141335 140.539,122.852 C140.739668,122.562665 140.84,121.956005 140.84,121.032 L140.84,116.356 C140.84,114.33999 139.925342,113.332 138.096,113.332 C136.938661,113.332 135.940004,113.798662 135.1,114.732 L135.1,121.032 C135.1,121.872004 135.221332,122.455332 135.464,122.782 C135.706668,123.108668 136.182663,123.314 136.892,123.398 C137.041334,123.416667 137.116,123.542666 137.116,123.776 C137.116,124.037335 137.041334,124.168 136.892,124.168 C136.509331,124.168 136.010003,124.14 135.394,124.084 C134.70333,124.028 134.129336,124 133.672,124 C133.205331,124 132.673336,124.028 132.076,124.084 C131.543997,124.14 131.086669,124.168 130.704,124.168 C130.554666,124.168 130.48,124.037335 130.48,123.776 C130.48,123.542666 130.554666,123.416667 130.704,123.398 C131.488004,123.314 131.996666,123.129668 132.23,122.845 C132.463335,122.560332 132.58,121.956005 132.58,121.032 L132.58,108.026 C132.58,107.269996 132.489001,106.775335 132.307,106.542 C132.124999,106.308666 131.70267,106.154667 131.04,106.08 C130.890666,106.061333 130.816,105.944668 130.816,105.73 C130.816,105.487332 130.890666,105.366 131.04,105.366 C132.636008,104.992665 133.816663,104.498003 134.582,103.882 C134.722001,103.769999 134.838666,103.714 134.932,103.714 C135.193335,103.714 135.324,103.788666 135.324,103.938 C135.174666,105.468674 135.1,107.092658 135.1,108.81 L135.1,113.556 C136.434673,112.28666 137.75066,111.652 139.048,111.652 C140.37334,111.652 141.41633,112.015996 142.177,112.744 C142.93767,113.472004 143.318,114.451994 143.318,115.684 L143.318,121.032 C143.318,121.946671 143.436999,122.546332 143.675,122.831 C143.913001,123.115668 144.428663,123.304666 145.222,123.398 C145.371334,123.416667 145.446,123.542666 145.446,123.776 Z M157.64,116.216 C157.64,116.477335 157.472002,116.608 157.136,116.608 L149.464,116.608 C149.408,117.112003 149.38,117.634664 149.38,118.176 C149.38,119.678674 149.736996,120.833663 150.451,121.641 C151.165004,122.448337 152.179993,122.852 153.496,122.852 C154.15867,122.852 154.825997,122.674668 155.498,122.32 C156.170003,121.965332 156.711331,121.512669 157.122,120.962 L157.192,120.934 C157.276,120.934 157.357666,120.985333 157.437,121.088 C157.516334,121.190667 157.556,121.311999 157.556,121.452 C157.556,121.648001 157.257336,122.05633 156.66,122.677 C156.062664,123.29767 155.414004,123.771332 154.714,124.098 C154.013997,124.424668 153.281337,124.588 152.516,124.588 C150.835992,124.588 149.422006,123.972006 148.274,122.74 C147.125994,121.507994 146.552,119.996009 146.552,118.204 C146.552,116.374658 147.114328,114.82534 148.239,113.556 C149.363672,112.28666 150.789325,111.652 152.516,111.652 C153.962674,111.652 155.178328,112.125662 156.163,113.073 C157.147672,114.020338 157.64,115.067994 157.64,116.216 Z M155.092,114.984 C155.092,114.283997 154.851669,113.703002 154.371,113.241 C153.890331,112.778998 153.272004,112.548 152.516,112.548 C151.79733,112.548 151.174336,112.848997 150.647,113.451 C150.119664,114.053003 149.762668,114.843995 149.576,115.824 L153.468,115.712 C154.056003,115.702667 154.473665,115.646667 154.721,115.544 C154.968335,115.441333 155.092,115.254668 155.092,114.984 Z M189.126,123.776 C189.126,124.037335 189.051334,124.168 188.902,124.168 C188.26733,124.168 187.516004,124.14 186.648,124.084 C185.826663,124.028 185.131336,124 184.562,124 C183.992664,124 183.33467,124.028 182.588,124.084 C181.803996,124.14 181.099336,124.168 180.474,124.168 C180.324666,124.168 180.25,124.037335 180.25,123.776 C180.25,123.542666 180.329333,123.416667 180.488,123.398 C181.272004,123.304666 181.855331,123.176334 182.238,123.013 C182.620669,122.849666 182.865666,122.635001 182.973,122.369 C183.080334,122.102999 183.134,121.657336 183.134,121.032 L183.134,114.788 L172.452,114.788 L172.452,121.032 C172.452,121.657336 172.505666,122.102999 172.613,122.369 C172.720334,122.635001 172.965331,122.849666 173.348,123.013 C173.730669,123.176334 174.318663,123.304666 175.112,123.398 C175.261334,123.416667 175.336,123.542666 175.336,123.776 C175.336,124.037335 175.261334,124.168 175.112,124.168 C174.486664,124.168 173.782004,124.14 172.998,124.084 C172.25133,124.028 171.593336,124 171.024,124 C170.454664,124 169.754671,124.028 168.924,124.084 C168.055996,124.14 167.309336,124.168 166.684,124.168 C166.534666,124.168 166.46,124.037335 166.46,123.776 C166.46,123.542666 166.534666,123.416667 166.684,123.398 C167.813339,123.267333 168.580998,123.057335 168.987,122.768 C169.393002,122.478665 169.596,121.900004 169.596,121.032 L169.596,107.858 C169.596,107.204663 169.514334,106.745001 169.351,106.479 C169.187666,106.212999 168.900669,106.003001 168.49,105.849 C168.079331,105.694999 167.477337,105.571334 166.684,105.478 C166.534666,105.478 166.46,105.347335 166.46,105.086 C166.46,104.824665 166.534666,104.694 166.684,104.694 C167.309336,104.694 168.055996,104.722 168.924,104.778 C169.754671,104.834 170.454664,104.862 171.024,104.862 C171.593336,104.862 172.25133,104.834 172.998,104.778 C173.782004,104.722 174.486664,104.694 175.112,104.694 C175.261334,104.694 175.336,104.824665 175.336,105.086 C175.336,105.347335 175.261334,105.478 175.112,105.478 C174.383996,105.562 173.833335,105.673999 173.46,105.814 C173.086665,105.954001 172.825334,106.142999 172.676,106.381 C172.526666,106.619001 172.452,107.11133 172.452,107.858 L172.452,113.892 L183.134,113.892 L183.134,107.858 C183.134,107.232664 183.080334,106.784668 182.973,106.514 C182.865666,106.243332 182.623002,106.026334 182.245,105.863 C181.866998,105.699666 181.276671,105.571334 180.474,105.478 C180.324666,105.478 180.25,105.347335 180.25,105.086 C180.25,104.824665 180.324666,104.694 180.474,104.694 C181.099336,104.694 181.803996,104.722 182.588,104.778 C183.33467,104.834 183.992664,104.862 184.562,104.862 C185.131336,104.862 185.826663,104.834 186.648,104.778 C187.516004,104.722 188.26733,104.694 188.902,104.694 C189.051334,104.694 189.126,104.824665 189.126,105.086 C189.126,105.347335 189.051334,105.478 188.902,105.478 C188.108663,105.571334 187.506669,105.694999 187.096,105.849 C186.685331,106.003001 186.398334,106.212999 186.235,106.479 C186.071666,106.745001 185.99,107.204663 185.99,107.858 L185.99,121.032 C185.99,121.900004 186.192998,122.478665 186.599,122.768 C187.005002,123.057335 187.772661,123.267333 188.902,123.398 C189.051334,123.416667 189.126,123.542666 189.126,123.776 Z M195.412,106.85 C195.412,107.242002 195.269668,107.582665 194.985,107.872 C194.700332,108.161335 194.357335,108.306 193.956,108.306 C193.554665,108.306 193.211668,108.161335 192.927,107.872 C192.642332,107.582665 192.5,107.242002 192.5,106.85 C192.5,106.439331 192.639999,106.094001 192.92,105.814 C193.200001,105.533999 193.545331,105.394 193.956,105.394 C194.357335,105.394 194.700332,105.533999 194.985,105.814 C195.269668,106.094001 195.412,106.439331 195.412,106.85 Z M197.372,123.776 C197.372,124.037335 197.297334,124.168 197.148,124.168 C196.765331,124.168 196.275336,124.14 195.678,124.084 C195.005997,124.028 194.441336,124 193.984,124 C193.517331,124 192.957337,124.028 192.304,124.084 C191.715997,124.14 191.230669,124.168 190.848,124.168 C190.698666,124.168 190.624,124.037335 190.624,123.776 C190.624,123.542666 190.698666,123.416667 190.848,123.398 C191.641337,123.295333 192.152332,123.104001 192.381,122.824 C192.609668,122.543999 192.724,121.946671 192.724,121.032 L192.724,115.852 C192.724,115.10533 192.628334,114.615335 192.437,114.382 C192.245666,114.148666 191.828003,113.994667 191.184,113.92 C191.034666,113.92 190.96,113.798668 190.96,113.556 C190.96,113.331999 191.034666,113.22 191.184,113.22 C192.164005,112.967999 192.966664,112.699668 193.592,112.415 C194.217336,112.130332 194.609333,111.894668 194.768,111.708 C194.861334,111.595999 194.963999,111.54 195.076,111.54 C195.337335,111.54 195.468,111.614666 195.468,111.764 C195.318666,113.854677 195.244,115.478661 195.244,116.636 L195.244,121.032 C195.244,121.946671 195.358332,122.543999 195.587,122.824 C195.815668,123.104001 196.335996,123.295333 197.148,123.398 C197.297334,123.416667 197.372,123.542666 197.372,123.776 Z M207.564,120.556 C207.564,121.694672 207.116004,122.651329 206.22,123.426 C205.323996,124.200671 204.24134,124.588 202.972,124.588 C202.523998,124.588 201.833338,124.490001 200.9,124.294 C200.199997,124.153999 199.724001,124.084 199.472,124.084 C199.397333,123.430663 199.224668,122.436673 198.954,121.102 C198.954,120.961999 199.089332,120.892 199.36,120.892 C199.584001,120.892 199.719333,120.966666 199.766,121.116 C199.980668,121.80667 200.40533,122.408664 201.04,122.922 C201.67467,123.435336 202.327997,123.692 203,123.692 C203.700004,123.692 204.243665,123.500669 204.631,123.118 C205.018335,122.735331 205.212,122.19867 205.212,121.508 C205.212,121.069331 205.051002,120.682002 204.729,120.346 C204.406998,120.009998 203.709339,119.594669 202.636,119.1 C201.22666,118.455997 200.295669,117.849336 199.843,117.28 C199.390331,116.710664 199.164,116.029337 199.164,115.236 C199.164,114.255995 199.588662,113.41367 200.438,112.709 C201.287338,112.00433 202.290661,111.652 203.448,111.652 C203.933336,111.652 204.614662,111.735999 205.492,111.904 C205.977336,111.997334 206.294666,112.044 206.444,112.044 C206.472,113.145339 206.532666,114.083329 206.626,114.858 C206.626,114.998001 206.490668,115.068 206.22,115.068 C205.986666,115.068 205.856,114.993334 205.828,114.844 C205.725333,114.162663 205.468669,113.609669 205.058,113.185 C204.647331,112.760331 204.157336,112.548 203.588,112.548 C202.131993,112.548 201.404,113.18266 201.404,114.452 C201.404,114.881335 201.576665,115.277998 201.922,115.642 C202.267335,116.006002 203.018661,116.47733 204.176,117.056 C205.55734,117.74667 206.467331,118.343997 206.906,118.848 C207.344669,119.352003 207.564,119.92133 207.564,120.556 Z M218.12,113.024 C218.12,113.528003 217.998668,113.78 217.756,113.78 L213.584,113.668 L213.584,120.388 C213.584,122.142675 214.209327,123.02 215.46,123.02 C216.234671,123.02 216.93933,122.838002 217.574,122.474 C217.648667,122.474 217.716333,122.523 217.777,122.621 C217.837667,122.719 217.868,122.823999 217.868,122.936 C217.868,123.169335 217.520337,123.484331 216.825,123.881 C216.129663,124.277669 215.348004,124.476 214.48,124.476 C213.415995,124.476 212.56667,124.15167 211.932,123.503 C211.29733,122.85433 210.98,121.998005 210.98,120.934 L210.98,120.808 L211.036,114.004 C211.036,113.742665 210.924001,113.612 210.7,113.612 L209.636,113.612 C209.430666,113.612 209.328,113.490668 209.328,113.248 C209.328,113.061332 209.411999,112.921334 209.58,112.828 C210.87734,112.062663 212.006662,110.984674 212.968,109.594 C213.070667,109.444666 213.201333,109.37 213.36,109.37 C213.621335,109.37 213.752,109.444666 213.752,109.594 L213.64,112.268 L217.756,112.268 C217.998668,112.268 218.12,112.519997 218.12,113.024 Z M232.806,118.204 C232.806,120.061343 232.201673,121.589661 230.993,122.789 C229.784327,123.988339 228.218676,124.588 226.296,124.588 C224.373324,124.588 222.805339,123.986006 221.592,122.782 C220.378661,121.577994 219.772,120.052009 219.772,118.204 C219.772,116.327991 220.383327,114.767006 221.606,113.521 C222.828673,112.274994 224.39199,111.652 226.296,111.652 C228.209343,111.652 229.772661,112.27266 230.986,113.514 C232.199339,114.75534 232.806,116.318657 232.806,118.204 Z M229.992,118.176 C229.992,116.467991 229.663003,115.103005 229.005,114.081 C228.346997,113.058995 227.444006,112.548 226.296,112.548 C225.157328,112.548 224.25667,113.061328 223.594,114.088 C222.93133,115.114672 222.6,116.477325 222.6,118.176 C222.6,119.865342 222.926663,121.206995 223.58,122.201 C224.233337,123.195005 225.138661,123.692 226.296,123.692 C227.453339,123.692 228.358663,123.199672 229.012,122.215 C229.665337,121.230328 229.992,119.884009 229.992,118.176 Z M244.216,113.052 C244.216,113.425335 244.101668,113.742665 243.873,114.004 C243.644332,114.265335 243.366668,114.396 243.04,114.396 C242.629331,114.396 242.223335,114.260668 241.822,113.99 C241.504665,113.775332 241.229335,113.668 240.996,113.668 C240.38933,113.668 239.764003,114.022663 239.12,114.732 L239.12,121.032 C239.12,121.844004 239.259999,122.410998 239.54,122.733 C239.820001,123.055002 240.417329,123.276666 241.332,123.398 C241.481334,123.416667 241.556,123.542666 241.556,123.776 C241.556,124.037335 241.481334,124.168 241.332,124.168 C240.949331,124.168 240.408004,124.14 239.708,124.084 C238.933329,124.028 238.317336,124 237.86,124 C237.393331,124 236.82867,124.028 236.166,124.084 C235.568664,124.14 235.078669,124.168 234.696,124.168 C234.546666,124.168 234.472,124.037335 234.472,123.776 C234.472,123.542666 234.546666,123.416667 234.696,123.398 C235.508004,123.295333 236.028332,123.104001 236.257,122.824 C236.485668,122.543999 236.6,121.946671 236.6,121.032 L236.6,115.852 C236.6,115.10533 236.504334,114.615335 236.313,114.382 C236.121666,114.148666 235.69467,113.994667 235.032,113.92 C234.882666,113.92 234.808,113.798668 234.808,113.556 C234.808,113.331999 234.882666,113.22 235.032,113.22 C235.956005,112.986666 236.718997,112.727668 237.321,112.443 C237.923003,112.158332 238.317332,111.913334 238.504,111.708 C238.616001,111.595999 238.727999,111.54 238.84,111.54 C239.101335,111.54 239.232,111.614666 239.232,111.764 L239.12,113.528 C239.86667,112.83733 240.508331,112.352001 241.045,112.072 C241.581669,111.791999 242.115997,111.652 242.648,111.652 C243.077335,111.652 243.445998,111.791999 243.754,112.072 C244.062002,112.352001 244.216,112.678665 244.216,113.052 Z M249.704,106.85 C249.704,107.242002 249.561668,107.582665 249.277,107.872 C248.992332,108.161335 248.649335,108.306 248.248,108.306 C247.846665,108.306 247.503668,108.161335 247.219,107.872 C246.934332,107.582665 246.792,107.242002 246.792,106.85 C246.792,106.439331 246.931999,106.094001 247.212,105.814 C247.492001,105.533999 247.837331,105.394 248.248,105.394 C248.649335,105.394 248.992332,105.533999 249.277,105.814 C249.561668,106.094001 249.704,106.439331 249.704,106.85 Z M251.664,123.776 C251.664,124.037335 251.589334,124.168 251.44,124.168 C251.057331,124.168 250.567336,124.14 249.97,124.084 C249.297997,124.028 248.733336,124 248.276,124 C247.809331,124 247.249337,124.028 246.596,124.084 C246.007997,124.14 245.522669,124.168 245.14,124.168 C244.990666,124.168 244.916,124.037335 244.916,123.776 C244.916,123.542666 244.990666,123.416667 245.14,123.398 C245.933337,123.295333 246.444332,123.104001 246.673,122.824 C246.901668,122.543999 247.016,121.946671 247.016,121.032 L247.016,115.852 C247.016,115.10533 246.920334,114.615335 246.729,114.382 C246.537666,114.148666 246.120003,113.994667 245.476,113.92 C245.326666,113.92 245.252,113.798668 245.252,113.556 C245.252,113.331999 245.326666,113.22 245.476,113.22 C246.456005,112.967999 247.258664,112.699668 247.884,112.415 C248.509336,112.130332 248.901333,111.894668 249.06,111.708 C249.153334,111.595999 249.255999,111.54 249.368,111.54 C249.629335,111.54 249.76,111.614666 249.76,111.764 C249.610666,113.854677 249.536,115.478661 249.536,116.636 L249.536,121.032 C249.536,121.946671 249.650332,122.543999 249.879,122.824 C250.107668,123.104001 250.627996,123.295333 251.44,123.398 C251.589334,123.416667 251.664,123.542666 251.664,123.776 Z M263.844,113.864 C263.844,114.629337 263.461337,115.012 262.696,115.012 C262.369332,115.012 262.101001,114.942001 261.891,114.802 C261.680999,114.661999 261.468668,114.358669 261.254,113.892 C261.001999,113.341331 260.733668,112.979668 260.449,112.807 C260.164332,112.634332 259.793336,112.548 259.336,112.548 C258.206661,112.548 257.34567,113.016995 256.753,113.955 C256.16033,114.893005 255.864,116.262658 255.864,118.064 C255.864,119.566674 256.23733,120.777662 256.984,121.697 C257.73067,122.616338 258.729327,123.076 259.98,123.076 C261.398674,123.076 262.523329,122.632671 263.354,121.746 L263.424,121.718 C263.508,121.718 263.589666,121.771666 263.669,121.879 C263.748334,121.986334 263.788,122.105333 263.788,122.236 C263.788,122.422668 263.515003,122.744664 262.969,123.202 C262.422997,123.659336 261.82567,124.004666 261.177,124.238 C260.52833,124.471335 259.840004,124.588 259.112,124.588 C257.441325,124.588 256.011006,123.974339 254.821,122.747 C253.630994,121.519661 253.036,119.968009 253.036,118.092 C253.036,116.234657 253.658994,114.697006 254.905,113.479 C256.151006,112.260994 257.627991,111.652 259.336,111.652 C260.596006,111.652 261.662329,111.868998 262.535,112.303 C263.407671,112.737002 263.844,113.25733 263.844,113.864 Z M285.166,118.54 C285.166,120.397343 284.615339,121.874328 283.514,122.971 C282.412661,124.067672 280.924009,124.616 279.048,124.616 C278.217329,124.616 277.223339,124.466668 276.066,124.168 C275.011328,123.887999 274.148003,123.748 273.476,123.748 C273.42,122.161325 273.308001,120.574675 273.14,118.988 C273.14,118.838666 273.279999,118.764 273.56,118.764 C273.756001,118.764 273.877333,118.838666 273.924,118.988 C274.428003,120.724009 275.071996,121.946663 275.856,122.656 C276.640004,123.365337 277.741326,123.72 279.16,123.72 C280.289339,123.72 281.16433,123.393337 281.785,122.74 C282.40567,122.086663 282.716,121.172006 282.716,119.996 C282.716,119.239996 282.445336,118.53767 281.904,117.889 C281.362664,117.24033 280.210009,116.402672 278.446,115.376 C276.420657,114.209328 275.095336,113.220004 274.47,112.408 C273.844664,111.595996 273.532,110.695338 273.532,109.706 C273.532,108.184659 274.094328,106.899005 275.219,105.849 C276.343672,104.798995 277.769325,104.274 279.496,104.274 C280.149337,104.274 280.900662,104.362666 281.75,104.54 C282.543337,104.698667 283.22933,104.778 283.808,104.778 C283.920001,106.420675 284.069332,107.867327 284.256,109.118 C284.256,109.267334 284.134668,109.342 283.892,109.342 C283.630665,109.342 283.486,109.267334 283.458,109.118 C283.149998,107.717993 282.683336,106.710003 282.058,106.094 C281.432664,105.477997 280.569339,105.17 279.468,105.17 C278.422661,105.17 277.592003,105.477997 276.976,106.094 C276.359997,106.710003 276.052,107.540661 276.052,108.586 C276.052,109.24867 276.310997,109.880997 276.829,110.483 C277.347003,111.085003 278.469325,111.889995 280.196,112.898 C282.24001,114.092673 283.57933,115.091329 284.214,115.894 C284.84867,116.696671 285.166,117.578662 285.166,118.54 Z M293.328,123.748 C293.328,124.009335 293.253334,124.14 293.104,124.14 C292.721331,124.14 292.231336,124.116667 291.634,124.07 C290.961997,124.023333 290.397336,124 289.94,124 C289.491998,124 288.93667,124.023333 288.274,124.07 C287.676664,124.116667 287.186669,124.14 286.804,124.14 C286.654666,124.14 286.58,124.009335 286.58,123.748 C286.58,123.514666 286.654666,123.388667 286.804,123.37 C287.597337,123.276666 288.112999,123.087668 288.351,122.803 C288.589001,122.518332 288.708,121.918671 288.708,121.004 L288.708,107.998 C288.708,107.241996 288.614668,106.747335 288.428,106.514 C288.241332,106.280666 287.812003,106.126667 287.14,106.052 C286.990666,106.033333 286.916,105.916668 286.916,105.702 C286.916,105.477999 286.990666,105.366 287.14,105.366 C288.120005,105.113999 288.922664,104.845668 289.548,104.561 C290.173336,104.276332 290.565333,104.036001 290.724,103.84 C290.817334,103.737333 290.919999,103.686 291.032,103.686 C291.293335,103.686 291.424,103.760666 291.424,103.91 C291.274666,106.000677 291.2,107.624661 291.2,108.782 L291.2,121.004 C291.2,121.918671 291.316666,122.518332 291.55,122.803 C291.783335,123.087668 292.301329,123.276666 293.104,123.37 C293.253334,123.388667 293.328,123.514666 293.328,123.748 Z M303.436,124.476 C302.913331,124.476 302.458335,124.347668 302.071,124.091 C301.683665,123.834332 301.420001,123.486669 301.28,123.048 C300.281328,124.074672 298.974675,124.588 297.36,124.588 C296.519996,124.588 295.834003,124.329003 295.302,123.811 C294.769997,123.292997 294.504,122.646671 294.504,121.872 C294.504,119.958657 296.771977,118.409339 301.308,117.224 L301.392,115.04 L301.392,114.97 C301.392,114.297997 301.226335,113.763669 300.895,113.367 C300.563665,112.970331 300.122669,112.772 299.572,112.772 C299.021331,112.772 298.554669,112.904999 298.172,113.171 C297.789331,113.437001 297.593333,113.770665 297.584,114.172 C297.574667,114.769336 297.418335,115.235998 297.115,115.572 C296.811665,115.908002 296.408003,116.076 295.904,116.076 C295.605332,116.076 295.362668,115.987334 295.176,115.81 C294.989332,115.632666 294.896,115.394668 294.896,115.096 C294.896,114.37733 295.549327,113.623671 296.856,112.835 C298.162673,112.046329 299.375994,111.652 300.496,111.652 C301.504005,111.652 302.320664,111.950664 302.946,112.548 C303.571336,113.145336 303.884,113.947995 303.884,114.956 L303.884,115.124 L303.688,121.452 L303.688,121.55 C303.688,122.530005 304.00533,123.02 304.64,123.02 C304.948002,123.02 305.307331,122.833335 305.718,122.46 L305.816,122.432 C305.890667,122.432 305.960666,122.481 306.026,122.579 C306.091334,122.677 306.124,122.781999 306.124,122.894 C306.124,123.164668 305.841669,123.495998 305.277,123.888 C304.712331,124.280002 304.09867,124.476 303.436,124.476 Z M301.28,118.176 C298.554653,118.792003 297.192,119.809326 297.192,121.228 C297.192,122.55334 297.705328,123.216 298.732,123.216 C299.226669,123.216 299.714331,123.092335 300.195,122.845 C300.675669,122.597665 300.999999,122.292002 301.168,121.928 L301.28,118.176 Z M319.214,112.492 C319.214,112.734668 319.139334,112.865333 318.99,112.884 C318.205996,112.968 317.681001,113.154665 317.415,113.444 C317.148999,113.733335 316.815335,114.330662 316.414,115.236 L312.396,124.392 C312.330666,124.541334 312.218667,124.616 312.06,124.616 C311.891999,124.616 311.775334,124.541334 311.71,124.392 L307.944,115.236 C307.598665,114.377329 307.248668,113.789335 306.894,113.472 C306.539332,113.154665 306.05867,112.954 305.452,112.87 C305.302666,112.851333 305.228,112.725335 305.228,112.492 C305.228,112.230665 305.302666,112.1 305.452,112.1 C305.834669,112.1 306.310664,112.128 306.88,112.184 C307.496003,112.24 308.027998,112.268 308.476,112.268 C308.933336,112.268 309.488663,112.24 310.142,112.184 C310.72067,112.128 311.201331,112.1 311.584,112.1 C311.733334,112.1 311.808,112.230665 311.808,112.492 C311.808,112.725335 311.733334,112.851333 311.584,112.87 C311.023997,112.944667 310.636668,113.044999 310.422,113.171 C310.207332,113.297001 310.1,113.481332 310.1,113.724 C310.1,114.013335 310.239999,114.512663 310.52,115.222 L312.816,121.172 L315.14,115.236 C315.420001,114.535997 315.56,114.032002 315.56,113.724 C315.56,113.481332 315.455001,113.297001 315.245,113.171 C315.034999,113.044999 314.664003,112.944667 314.132,112.87 C313.982666,112.851333 313.908,112.725335 313.908,112.492 C313.908,112.230665 313.982666,112.1 314.132,112.1 C314.524002,112.1 314.962664,112.128 315.448,112.184 C315.905336,112.24 316.315998,112.268 316.68,112.268 C316.866668,112.268 317.169998,112.244667 317.59,112.198 C318.16867,112.132666 318.635332,112.1 318.99,112.1 C319.139334,112.1 319.214,112.230665 319.214,112.492 Z M330.736,116.216 C330.736,116.477335 330.568002,116.608 330.232,116.608 L322.56,116.608 C322.504,117.112003 322.476,117.634664 322.476,118.176 C322.476,119.678674 322.832996,120.833663 323.547,121.641 C324.261004,122.448337 325.275993,122.852 326.592,122.852 C327.25467,122.852 327.921997,122.674668 328.594,122.32 C329.266003,121.965332 329.807331,121.512669 330.218,120.962 L330.288,120.934 C330.372,120.934 330.453666,120.985333 330.533,121.088 C330.612334,121.190667 330.652,121.311999 330.652,121.452 C330.652,121.648001 330.353336,122.05633 329.756,122.677 C329.158664,123.29767 328.510004,123.771332 327.81,124.098 C327.109997,124.424668 326.377337,124.588 325.612,124.588 C323.931992,124.588 322.518006,123.972006 321.37,122.74 C320.221994,121.507994 319.648,119.996009 319.648,118.204 C319.648,116.374658 320.210328,114.82534 321.335,113.556 C322.459672,112.28666 323.885325,111.652 325.612,111.652 C327.058674,111.652 328.274328,112.125662 329.259,113.073 C330.243672,114.020338 330.736,115.067994 330.736,116.216 Z M328.188,114.984 C328.188,114.283997 327.947669,113.703002 327.467,113.241 C326.986331,112.778998 326.368004,112.548 325.612,112.548 C324.89333,112.548 324.270336,112.848997 323.743,113.451 C323.215664,114.053003 322.858668,114.843995 322.672,115.824 L326.564,115.712 C327.152003,115.702667 327.569665,115.646667 327.817,115.544 C328.064335,115.441333 328.188,115.254668 328.188,114.984 Z M358.666,109.3 C358.666,109.477334 358.498002,109.566 358.162,109.566 C358.012666,109.566 357.919334,109.500667 357.882,109.37 C357.480665,108.053993 356.90667,107.123003 356.16,106.577 C355.41333,106.030997 354.307341,105.758 352.842,105.758 L351.526,105.758 C351.068664,105.758 350.756001,105.832666 350.588,105.982 C350.419999,106.131334 350.336,106.411331 350.336,106.822 L350.336,121.032 C350.336,121.676003 350.417666,122.130999 350.581,122.397 C350.744334,122.663001 351.033665,122.872999 351.449,123.027 C351.864335,123.181001 352.459329,123.304666 353.234,123.398 C353.383334,123.416667 353.458,123.542666 353.458,123.776 C353.458,124.037335 353.383334,124.168 353.234,124.168 C352.608664,124.168 351.862004,124.14 350.994,124.084 C350.172663,124.028 349.486669,124 348.936,124 C348.366664,124 347.666671,124.028 346.836,124.084 C345.967996,124.14 345.221336,124.168 344.596,124.168 C344.446666,124.168 344.372,124.037335 344.372,123.776 C344.372,123.542666 344.446666,123.416667 344.596,123.398 C345.725339,123.267333 346.492998,123.057335 346.899,122.768 C347.305002,122.478665 347.508,121.900004 347.508,121.032 L347.508,106.822 C347.508,106.411331 347.424001,106.131334 347.256,105.982 C347.087999,105.832666 346.770669,105.758 346.304,105.758 L345.212,105.758 C343.895993,105.758 342.701339,106.091663 341.628,106.759 C340.554661,107.426337 339.854668,108.291995 339.528,109.356 C339.481333,109.496001 339.378667,109.566 339.22,109.566 C338.902665,109.566 338.744,109.463334 338.744,109.258 C339.266669,107.84866 339.761331,106.252676 340.228,104.47 C341.49734,104.731335 344.399977,104.862 348.936,104.862 C353.593357,104.862 356.55666,104.731335 357.826,104.47 C357.956667,105.683339 358.236665,107.293323 358.666,109.3 Z M369.096,113.052 C369.096,113.425335 368.981668,113.742665 368.753,114.004 C368.524332,114.265335 368.246668,114.396 367.92,114.396 C367.509331,114.396 367.103335,114.260668 366.702,113.99 C366.384665,113.775332 366.109335,113.668 365.876,113.668 C365.26933,113.668 364.644003,114.022663 364,114.732 L364,121.032 C364,121.844004 364.139999,122.410998 364.42,122.733 C364.700001,123.055002 365.297329,123.276666 366.212,123.398 C366.361334,123.416667 366.436,123.542666 366.436,123.776 C366.436,124.037335 366.361334,124.168 366.212,124.168 C365.829331,124.168 365.288004,124.14 364.588,124.084 C363.813329,124.028 363.197336,124 362.74,124 C362.273331,124 361.70867,124.028 361.046,124.084 C360.448664,124.14 359.958669,124.168 359.576,124.168 C359.426666,124.168 359.352,124.037335 359.352,123.776 C359.352,123.542666 359.426666,123.416667 359.576,123.398 C360.388004,123.295333 360.908332,123.104001 361.137,122.824 C361.365668,122.543999 361.48,121.946671 361.48,121.032 L361.48,115.852 C361.48,115.10533 361.384334,114.615335 361.193,114.382 C361.001666,114.148666 360.57467,113.994667 359.912,113.92 C359.762666,113.92 359.688,113.798668 359.688,113.556 C359.688,113.331999 359.762666,113.22 359.912,113.22 C360.836005,112.986666 361.598997,112.727668 362.201,112.443 C362.803003,112.158332 363.197332,111.913334 363.384,111.708 C363.496001,111.595999 363.607999,111.54 363.72,111.54 C363.981335,111.54 364.112,111.614666 364.112,111.764 L364,113.528 C364.74667,112.83733 365.388331,112.352001 365.925,112.072 C366.461669,111.791999 366.995997,111.652 367.528,111.652 C367.957335,111.652 368.325998,111.791999 368.634,112.072 C368.942002,112.352001 369.096,112.678665 369.096,113.052 Z M379.092,124.476 C378.569331,124.476 378.114335,124.347668 377.727,124.091 C377.339665,123.834332 377.076001,123.486669 376.936,123.048 C375.937328,124.074672 374.630675,124.588 373.016,124.588 C372.175996,124.588 371.490003,124.329003 370.958,123.811 C370.425997,123.292997 370.16,122.646671 370.16,121.872 C370.16,119.958657 372.427977,118.409339 376.964,117.224 L377.048,115.04 L377.048,114.97 C377.048,114.297997 376.882335,113.763669 376.551,113.367 C376.219665,112.970331 375.778669,112.772 375.228,112.772 C374.677331,112.772 374.210669,112.904999 373.828,113.171 C373.445331,113.437001 373.249333,113.770665 373.24,114.172 C373.230667,114.769336 373.074335,115.235998 372.771,115.572 C372.467665,115.908002 372.064003,116.076 371.56,116.076 C371.261332,116.076 371.018668,115.987334 370.832,115.81 C370.645332,115.632666 370.552,115.394668 370.552,115.096 C370.552,114.37733 371.205327,113.623671 372.512,112.835 C373.818673,112.046329 375.031994,111.652 376.152,111.652 C377.160005,111.652 377.976664,111.950664 378.602,112.548 C379.227336,113.145336 379.54,113.947995 379.54,114.956 L379.54,115.124 L379.344,121.452 L379.344,121.55 C379.344,122.530005 379.66133,123.02 380.296,123.02 C380.604002,123.02 380.963331,122.833335 381.374,122.46 L381.472,122.432 C381.546667,122.432 381.616666,122.481 381.682,122.579 C381.747334,122.677 381.78,122.781999 381.78,122.894 C381.78,123.164668 381.497669,123.495998 380.933,123.888 C380.368331,124.280002 379.75467,124.476 379.092,124.476 Z M376.936,118.176 C374.210653,118.792003 372.848,119.809326 372.848,121.228 C372.848,122.55334 373.361328,123.216 374.388,123.216 C374.882669,123.216 375.370331,123.092335 375.851,122.845 C376.331669,122.597665 376.655999,122.292002 376.824,121.928 L376.936,118.176 Z M396.578,123.244 C396.578,123.440001 396.503334,123.547333 396.354,123.566 C395.821997,123.631334 395.206004,123.761999 394.506,123.958 C393.805997,124.154001 393.260002,124.349999 392.868,124.546 C392.662666,124.648667 392.513334,124.7 392.42,124.7 C392.270666,124.7 392.196,124.625334 392.196,124.476 L392.308,122.964 C391.318662,124.046672 390.058674,124.588 388.528,124.588 C386.913325,124.588 385.539006,123.96734 384.405,122.726 C383.270994,121.48466 382.704,119.996009 382.704,118.26 C382.704,116.290657 383.33166,114.697006 384.587,113.479 C385.84234,112.260994 387.417324,111.652 389.312,111.652 C390.394672,111.652 391.393329,111.987997 392.308,112.66 L392.308,107.998 C392.308,107.241996 392.214668,106.747335 392.028,106.514 C391.841332,106.280666 391.412003,106.126667 390.74,106.052 C390.590666,106.033333 390.516,105.916668 390.516,105.702 C390.516,105.459332 390.590666,105.338 390.74,105.338 C391.617338,105.132666 392.377997,104.885335 393.022,104.596 C393.666003,104.306665 394.099999,104.050001 394.324,103.826 C394.417334,103.732666 394.515333,103.686 394.618,103.686 C394.879335,103.686 395.01,103.760666 395.01,103.91 C394.860666,105.944677 394.786,107.568661 394.786,108.782 L394.786,121.116 C394.786,121.760003 394.879332,122.191666 395.066,122.411 C395.252668,122.630334 395.681997,122.786666 396.354,122.88 C396.503334,122.88 396.578,123.001332 396.578,123.244 Z M392.308,121.732 L392.308,114.564 C392.308,114.078664 392.025669,113.621335 391.461,113.192 C390.896331,112.762665 390.28267,112.548 389.62,112.548 C386.894653,112.548 385.532,114.461314 385.532,118.288 C385.532,119.800008 385.858663,121.055328 386.512,122.054 C387.165337,123.052672 388.023995,123.552 389.088,123.552 C389.69467,123.552 390.245331,123.414335 390.74,123.139 C391.234669,122.863665 391.757331,122.39467 392.308,121.732 Z M408.828,116.216 C408.828,116.477335 408.660002,116.608 408.324,116.608 L400.652,116.608 C400.596,117.112003 400.568,117.634664 400.568,118.176 C400.568,119.678674 400.924996,120.833663 401.639,121.641 C402.353004,122.448337 403.367993,122.852 404.684,122.852 C405.34667,122.852 406.013997,122.674668 406.686,122.32 C407.358003,121.965332 407.899331,121.512669 408.31,120.962 L408.38,120.934 C408.464,120.934 408.545666,120.985333 408.625,121.088 C408.704334,121.190667 408.744,121.311999 408.744,121.452 C408.744,121.648001 408.445336,122.05633 407.848,122.677 C407.250664,123.29767 406.602004,123.771332 405.902,124.098 C405.201997,124.424668 404.469337,124.588 403.704,124.588 C402.023992,124.588 400.610006,123.972006 399.462,122.74 C398.313994,121.507994 397.74,119.996009 397.74,118.204 C397.74,116.374658 398.302328,114.82534 399.427,113.556 C400.551672,112.28666 401.977325,111.652 403.704,111.652 C405.150674,111.652 406.366328,112.125662 407.351,113.073 C408.335672,114.020338 408.828,115.067994 408.828,116.216 Z M406.28,114.984 C406.28,114.283997 406.039669,113.703002 405.559,113.241 C405.078331,112.778998 404.460004,112.548 403.704,112.548 C402.98533,112.548 402.362336,112.848997 401.835,113.451 C401.307664,114.053003 400.950668,114.843995 400.764,115.824 L404.656,115.712 C405.244003,115.702667 405.661665,115.646667 405.909,115.544 C406.156335,115.441333 406.28,115.254668 406.28,114.984 Z" id="PeopleoftheHistoricSlaveTrade"></path>
            </g>
        </g>
    </g>
</svg>