<?xml version="1.0" encoding="UTF-8"?>
<svg width="420px" height="111px" viewBox="0 0 420 111" version="1.1" xmlns="http://www.w3.org/2000/svg" xmlns:xlink="http://www.w3.org/1999/xlink">
    <!-- Generator: Sketch 53.2 (72643) - https://sketchapp.com -->
    <title>Logo</title>
    <desc>Created with Sketch.</desc>
    <g id="Finals" stroke="none" stroke-width="1" fill="none" fill-rule="evenodd">
        <g id="-Main-Hub---Condensed---Outlined" transform="translate(-324.000000, -134.000000)" fill="#FBF9F5" fill-rule="nonzero">
            <g id="Logo" transform="translate(324.000000, 134.000000)">
                <path d="M66,76.3513514 C63.0810665,82.5856168 60.7027119,88.5315032 58.8648649,94.1891892 C45.2792114,93.7567546 35.6036324,93.5405405 29.8378378,93.5405405 C24.1441157,93.5405405 14.4865546,93.7567546 0.864864865,94.1891892 C0.288285405,94.1891892 5.1159077e-13,93.6846897 5.1159077e-13,92.6756757 C5.1159077e-13,91.7747703 0.288285405,91.2882886 0.864864865,91.2162162 C3.85587081,90.8558541 6.14413622,90.3783814 7.72972973,89.7837838 C9.31532324,89.1891862 10.4234203,88.3873924 11.0540541,87.3783784 C11.6846878,86.3693643 12,84.6036162 12,82.0810811 L12,31.2162162 C12,28.7297173 11.7027057,26.9729781 11.1081081,25.9459459 C10.5135105,24.9189138 9.42343135,24.0991022 7.83783784,23.4864865 C6.25224432,22.8738708 3.92794324,22.3873892 0.864864865,22.027027 C0.288285405,22.027027 5.1159077e-13,21.5225276 5.1159077e-13,20.5135135 C5.1159077e-13,19.5044995 0.288285405,19 0.864864865,19 C9.94599135,19.4324346 19.2431957,19.6486486 28.7567568,19.6486486 C38.3423903,19.6486486 47.6576124,19.4324346 56.7027027,19 C57.5315357,24.5856135 58.7387308,30.0990719 60.3243243,35.5405405 C60.3243243,36.2612649 59.6937,36.6216216 58.4324324,36.6216216 C57.8198168,36.6216216 57.4414422,36.3693719 57.2972973,35.8648649 C54.6306173,27.3603178 48.9369805,23.1081081 40.2162162,23.1081081 L29.2972973,23.1081081 C25.1170962,23.1081081 23.027027,25.2702486 23.027027,29.5945946 L23.027027,53.6486486 L36.6486486,53.6486486 C40.2522703,53.6486486 42.6936873,52.8198281 43.972973,51.1621622 C45.2522586,49.5044962 46.1441416,46.5675886 46.6486486,42.3513514 C46.6486486,41.7747719 47.1531481,41.4864865 48.1621622,41.4864865 C49.1711762,41.4864865 49.6756757,41.7747719 49.6756757,42.3513514 C49.6756757,44.1531622 49.5675686,46.4234097 49.3513514,49.1621622 C49.1351341,51.7928059 49.027027,53.9369286 49.027027,55.5945946 C49.027027,57.2882968 49.1351341,59.4504373 49.3513514,62.0810811 C49.5675686,64.8919059 49.6756757,67.1981892 49.6756757,69 C49.6756757,69.5765795 49.1711762,69.8648649 48.1621622,69.8648649 C47.1531481,69.8648649 46.6486486,69.5765795 46.6486486,69 C46.1081054,64.6035816 45.1621689,61.5225314 43.8108108,59.7567568 C42.4594527,57.9909822 40.0720892,57.1081081 36.6486486,57.1081081 L23.027027,57.1081081 L23.027027,83.7027027 C23.027027,87.9549762 25.1170962,90.0810811 29.2972973,90.0810811 L41.0810811,90.0810811 C45.3693908,90.0810811 49.6216005,88.6846986 53.8378378,85.8918919 C58.0540751,83.0990851 61.1531432,79.6126335 63.1351351,75.4324324 C63.27928,75.1081065 63.5855832,74.9459459 64.0540541,74.9459459 C64.5585611,74.9459459 65.009007,75.0810797 65.4054054,75.3513514 C65.8018038,75.621623 66,75.954953 66,76.3513514 Z" id="E"></path>
                <path d="M136.8425,36.0075 C136.8425,38.0608436 136.052091,39.7845764 134.47125,41.17875 C132.890409,42.5729236 130.933345,43.27 128.6,43.27 C127.199993,43.27 125.82334,43.2116673 124.47,43.095 L124.47,49.29 C124.47,50.1066708 124.572082,50.6783317 124.77625,51.005 C124.980418,51.3316683 125.336247,51.591249 125.84375,51.78375 C126.351253,51.976251 127.094995,52.1308328 128.075,52.2475 C128.261668,52.2708335 128.355,52.4283319 128.355,52.72 C128.355,53.0466683 128.261668,53.21 128.075,53.21 C127.293329,53.21 126.365839,53.1750004 125.2925,53.105 C124.265828,53.0349997 123.39667,53 122.685,53 C121.97333,53 121.098339,53.0349997 120.06,53.105 C118.974995,53.1750004 118.041671,53.21 117.26,53.21 C117.073332,53.21 116.98,53.0466683 116.98,52.72 C116.98,52.4283319 117.073332,52.2708335 117.26,52.2475 C118.671674,52.0841659 119.631247,51.8216685 120.13875,51.46 C120.646253,51.0983315 120.9,50.3750054 120.9,49.29 L120.9,32.8225 C120.9,32.0058293 120.797918,31.4312517 120.59375,31.09875 C120.389582,30.7662483 120.030836,30.503751 119.5175,30.31125 C119.004164,30.118749 118.251672,29.9641673 117.26,29.8475 C117.073332,29.8475 116.98,29.6841683 116.98,29.3575 C116.98,29.0308317 117.073332,28.8675 117.26,28.8675 C118.041671,28.8675 118.974995,28.9024997 120.06,28.9725 C121.098339,29.0425004 121.97333,29.0775 122.685,29.0775 C123.39667,29.0775 124.265828,29.0425004 125.2925,28.9725 C126.365839,28.9024997 127.293329,28.8675 128.075,28.8675 C130.945014,28.8675 133.123743,29.4741606 134.61125,30.6875 C136.098757,31.9008394 136.8425,33.674155 136.8425,36.0075 Z M132.9575,36.0075 C132.9575,34.140824 132.499588,32.6825053 131.58375,31.6325 C130.667912,30.5824948 129.451674,30.0575 127.935,30.0575 C127.024995,30.0575 126.322086,30.1274993 125.82625,30.2675 C125.330414,30.4075007 124.980418,30.6349984 124.77625,30.95 C124.572082,31.2650016 124.47,31.889162 124.47,32.8225 L124.47,40.855 C124.47,41.3566692 124.627498,41.6920825 124.9425,41.86125 C125.257502,42.0304175 125.939995,42.115 126.99,42.115 C128.891676,42.115 130.361661,41.5725054 131.4,40.4875 C132.438339,39.4024946 132.9575,37.9091762 132.9575,36.0075 Z M152.995,43.27 C152.995,43.5966683 152.785002,43.76 152.365,43.76 L142.775,43.76 C142.705,44.3900032 142.67,45.04333 142.67,45.72 C142.67,47.5983427 143.116246,49.0420783 144.00875,50.05125 C144.901254,51.0604217 146.169992,51.565 147.815,51.565 C148.643337,51.565 149.477496,51.3433356 150.3175,50.9 C151.157504,50.4566645 151.834164,49.8908368 152.3475,49.2025 L152.435,49.1675 C152.540001,49.1675 152.642083,49.231666 152.74125,49.36 C152.840417,49.488334 152.89,49.6399991 152.89,49.815 C152.89,50.0600012 152.51667,50.5704128 151.77,51.34625 C151.02333,52.1220872 150.212504,52.7141646 149.3375,53.1225 C148.462496,53.5308354 147.546671,53.735 146.59,53.735 C144.489989,53.735 142.722507,52.9650077 141.2875,51.425 C139.852493,49.8849923 139.135,47.9950112 139.135,45.755 C139.135,43.4683219 139.83791,41.5316746 141.24375,39.945 C142.64959,38.3583254 144.431656,37.565 146.59,37.565 C148.398342,37.565 149.917911,38.1570774 151.14875,39.34125 C152.379589,40.5254226 152.995,41.8349928 152.995,43.27 Z M149.81,41.73 C149.81,40.8549956 149.509586,40.1287529 148.90875,39.55125 C148.307914,38.9737471 147.535005,38.685 146.59,38.685 C145.691662,38.685 144.91292,39.0612462 144.25375,39.81375 C143.59458,40.5662538 143.148334,41.5549939 142.915,42.78 L147.78,42.64 C148.515004,42.6283333 149.037082,42.558334 149.34625,42.43 C149.655418,42.301666 149.81,42.068335 149.81,41.73 Z M171.8075,45.755 C171.8075,48.0766783 171.052091,49.9870758 169.54125,51.48625 C168.030409,52.9854242 166.073345,53.735 163.67,53.735 C161.266655,53.735 159.306674,52.9825075 157.79,51.4775 C156.273326,49.9724925 155.515,48.0650116 155.515,45.755 C155.515,43.4099883 156.279159,41.4587578 157.8075,39.90125 C159.335841,38.3437422 161.289988,37.565 163.67,37.565 C166.061679,37.565 168.015826,38.3408256 169.5325,39.8925 C171.049174,41.4441744 171.8075,43.3983216 171.8075,45.755 Z M168.29,45.72 C168.29,43.5849893 167.878754,41.8787564 167.05625,40.60125 C166.233746,39.3237436 165.105007,38.685 163.67,38.685 C162.24666,38.685 161.120837,39.3266603 160.2925,40.61 C159.464163,41.8933398 159.05,43.5966561 159.05,45.72 C159.05,47.8316772 159.458329,49.5087438 160.275,50.75125 C161.091671,51.9937562 162.223326,52.615 163.67,52.615 C165.116674,52.615 166.248329,51.9995895 167.065,50.76875 C167.881671,49.5379105 168.29,47.8550107 168.29,45.72 Z M190.8125,45.755 C190.8125,48.0533448 190.036674,49.9579091 188.485,51.46875 C186.933326,52.9795909 184.950012,53.735 182.535,53.735 C181.14666,53.735 179.956672,53.4666694 178.965,52.93 L178.965,58.32 C178.965,59.4516723 179.110832,60.1983315 179.4025,60.56 C179.694168,60.9216685 180.341662,61.166666 181.345,61.295 C181.531668,61.295 181.625,61.4583317 181.625,61.785 C181.625,62.1116683 181.531668,62.275 181.345,62.275 C180.866664,62.275 180.248337,62.2400004 179.49,62.17 C178.673329,62.0999997 177.985003,62.065 177.425,62.065 C176.841664,62.065 176.135837,62.0999997 175.3075,62.17 C174.56083,62.2400004 173.948336,62.275 173.47,62.275 C173.283332,62.275 173.19,62.1116683 173.19,61.785 C173.19,61.4583317 173.283332,61.295 173.47,61.295 C174.461672,61.166666 175.106249,60.9216685 175.40375,60.56 C175.701251,60.1983315 175.85,59.4516723 175.85,58.32 L175.85,42.815 C175.85,41.881662 175.730418,41.2691681 175.49125,40.9775 C175.252082,40.6858319 174.718337,40.4933338 173.89,40.4 C173.703332,40.4 173.61,40.2483349 173.61,39.945 C173.61,39.6649986 173.703332,39.525 173.89,39.525 C175.021672,39.2449986 175.96958,38.9241685 176.73375,38.5625 C177.49792,38.2008315 178.002499,37.891668 178.2475,37.635 C178.375834,37.4949993 178.498333,37.425 178.615,37.425 C178.941668,37.425 179.105,37.5183324 179.105,37.705 L178.965,39.91 C179.60667,39.2449967 180.347496,38.6879189 181.1875,38.23875 C182.027504,37.7895811 182.744997,37.565 183.34,37.565 C185.638345,37.565 187.458327,38.3145758 188.8,39.81375 C190.141673,41.3129242 190.8125,43.293321 190.8125,45.755 Z M187.295,45.72 C187.295,43.7716569 186.872088,42.2520888 186.02625,41.16125 C185.180412,40.0704112 183.993341,39.525 182.465,39.525 C181.82333,39.525 181.242919,39.6591653 180.72375,39.9275 C180.204581,40.1958347 179.618337,40.6916631 178.965,41.415 L178.965,49.99 C178.965,50.7366704 179.297497,51.3608308 179.9625,51.8625 C180.627503,52.3641692 181.438329,52.615 182.395,52.615 C183.981675,52.615 185.194996,52.0170893 186.035,50.82125 C186.875004,49.6254107 187.295,47.925011 187.295,45.72 Z M201.155,52.685 C201.155,53.0116683 201.061668,53.175 200.875,53.175 C200.396664,53.175 199.78417,53.1458336 199.0375,53.0875 C198.197496,53.0291664 197.49167,53 196.92,53 C196.359997,53 195.665837,53.0291664 194.8375,53.0875 C194.09083,53.1458336 193.478336,53.175 193,53.175 C192.813332,53.175 192.72,53.0116683 192.72,52.685 C192.72,52.3933319 192.813332,52.2358335 193,52.2125 C193.991672,52.0958328 194.636249,51.8595851 194.93375,51.50375 C195.231251,51.1479149 195.38,50.3983391 195.38,49.255 L195.38,32.9975 C195.38,32.0524953 195.263334,31.4341681 195.03,31.1425 C194.796665,30.8508319 194.260004,30.6583338 193.42,30.565 C193.233332,30.5416666 193.14,30.3958347 193.14,30.1275 C193.14,29.8474986 193.233332,29.7075 193.42,29.7075 C194.645006,29.3924984 195.648329,29.0570851 196.43,28.70125 C197.211671,28.3454149 197.701666,28.0450012 197.9,27.8 C198.016667,27.671666 198.144999,27.6075 198.285,27.6075 C198.611668,27.6075 198.775,27.7008324 198.775,27.8875 C198.588332,30.5008464 198.495,32.5308261 198.495,33.9775 L198.495,49.255 C198.495,50.3983391 198.640832,51.1479149 198.9325,51.50375 C199.224168,51.8595851 199.871662,52.0958328 200.875,52.2125 C201.061668,52.2358335 201.155,52.3933319 201.155,52.685 Z M216.38,43.27 C216.38,43.5966683 216.170002,43.76 215.75,43.76 L206.16,43.76 C206.09,44.3900032 206.055,45.04333 206.055,45.72 C206.055,47.5983427 206.501246,49.0420783 207.39375,50.05125 C208.286254,51.0604217 209.554992,51.565 211.2,51.565 C212.028337,51.565 212.862496,51.3433356 213.7025,50.9 C214.542504,50.4566645 215.219164,49.8908368 215.7325,49.2025 L215.82,49.1675 C215.925001,49.1675 216.027083,49.231666 216.12625,49.36 C216.225417,49.488334 216.275,49.6399991 216.275,49.815 C216.275,50.0600012 215.90167,50.5704128 215.155,51.34625 C214.40833,52.1220872 213.597504,52.7141646 212.7225,53.1225 C211.847496,53.5308354 210.931671,53.735 209.975,53.735 C207.874989,53.735 206.107507,52.9650077 204.6725,51.425 C203.237493,49.8849923 202.52,47.9950112 202.52,45.755 C202.52,43.4683219 203.22291,41.5316746 204.62875,39.945 C206.03459,38.3583254 207.816656,37.565 209.975,37.565 C211.783342,37.565 213.302911,38.1570774 214.53375,39.34125 C215.764589,40.5254226 216.38,41.8349928 216.38,43.27 Z M213.195,41.73 C213.195,40.8549956 212.894586,40.1287529 212.29375,39.55125 C211.692914,38.9737471 210.920005,38.685 209.975,38.685 C209.076662,38.685 208.29792,39.0612462 207.63875,39.81375 C206.97958,40.5662538 206.533334,41.5549939 206.3,42.78 L211.165,42.64 C211.900004,42.6283333 212.422082,42.558334 212.73125,42.43 C213.040418,42.301666 213.195,42.068335 213.195,41.73 Z M229.925,48.695 C229.925,50.1183405 229.365006,51.3141618 228.245,52.2825 C227.124994,53.2508382 225.771675,53.735 224.185,53.735 C223.624997,53.735 222.761672,53.6125012 221.595,53.3675 C220.719996,53.1924991 220.125002,53.105 219.81,53.105 C219.716666,52.2883293 219.500835,51.0458417 219.1625,49.3775 C219.1625,49.2024991 219.331665,49.115 219.67,49.115 C219.950001,49.115 220.119166,49.2083324 220.1775,49.395 C220.445835,50.2583377 220.976663,51.0108301 221.77,51.6525 C222.563337,52.2941699 223.379996,52.615 224.22,52.615 C225.095004,52.615 225.774581,52.3758357 226.25875,51.8975 C226.742919,51.4191643 226.985,50.7483377 226.985,49.885 C226.985,49.3366639 226.783752,48.8525021 226.38125,48.4325 C225.978748,48.0124979 225.106673,47.4933364 223.765,46.875 C222.003325,46.069996 220.839586,45.3116702 220.27375,44.6 C219.707914,43.8883298 219.425,43.0366716 219.425,42.045 C219.425,40.8199939 219.955828,39.7670877 221.0175,38.88625 C222.079172,38.0054123 223.333326,37.565 224.78,37.565 C225.38667,37.565 226.238328,37.669999 227.335,37.88 C227.94167,37.9966673 228.338332,38.055 228.525,38.055 C228.56,39.4316736 228.635833,40.6041618 228.7525,41.5725 C228.7525,41.7475009 228.583335,41.835 228.245,41.835 C227.953332,41.835 227.79,41.7416676 227.755,41.555 C227.626666,40.7033291 227.305836,40.012086 226.7925,39.48125 C226.279164,38.950414 225.66667,38.685 224.955,38.685 C223.134991,38.685 222.225,39.4783254 222.225,41.065 C222.225,41.6016694 222.440831,42.0974977 222.8725,42.5525 C223.304169,43.0075023 224.243326,43.5966631 225.69,44.32 C227.416675,45.1833377 228.554164,45.9299969 229.1025,46.56 C229.650836,47.1900032 229.925,47.9016627 229.925,48.695 Z M257.3125,45.755 C257.3125,48.0766783 256.557091,49.9870758 255.04625,51.48625 C253.535409,52.9854242 251.578345,53.735 249.175,53.735 C246.771655,53.735 244.811674,52.9825075 243.295,51.4775 C241.778326,49.9724925 241.02,48.0650116 241.02,45.755 C241.02,43.4099883 241.784159,41.4587578 243.3125,39.90125 C244.840841,38.3437422 246.794988,37.565 249.175,37.565 C251.566679,37.565 253.520826,38.3408256 255.0375,39.8925 C256.554174,41.4441744 257.3125,43.3983216 257.3125,45.755 Z M253.795,45.72 C253.795,43.5849893 253.383754,41.8787564 252.56125,40.60125 C251.738746,39.3237436 250.610007,38.685 249.175,38.685 C247.75166,38.685 246.625837,39.3266603 245.7975,40.61 C244.969163,41.8933398 244.555,43.5966561 244.555,45.72 C244.555,47.8316772 244.963329,49.5087438 245.78,50.75125 C246.596671,51.9937562 247.728326,52.615 249.175,52.615 C250.621674,52.615 251.753329,51.9995895 252.57,50.76875 C253.386671,49.5379105 253.795,47.8550107 253.795,45.72 Z M273.6575,29.4275 C273.6575,29.9058357 273.476668,30.282082 273.115,30.55625 C272.753332,30.830418 272.257503,30.9675 271.6275,30.9675 C271.067497,30.9675 270.50167,30.7516688 269.93,30.32 C269.451664,29.9583315 269.025835,29.7775 268.6525,29.7775 C267.859163,29.7775 267.182503,30.2179123 266.6225,31.09875 C266.062497,31.9795877 265.7825,33.1724925 265.7825,34.6775 L265.7825,38.755 L269.7025,38.755 C269.982501,38.755 270.1225,39.0699969 270.1225,39.7 C270.1225,40.3300032 269.982501,40.645 269.7025,40.645 L265.7475,40.505 L265.7475,49.29 C265.7475,50.4333391 265.887499,51.1799983 266.1675,51.53 C266.447501,51.8800018 267.089162,52.119166 268.0925,52.2475 C268.279168,52.2708335 268.3725,52.4283319 268.3725,52.72 C268.3725,53.0466683 268.279168,53.21 268.0925,53.21 C267.614164,53.21 267.007504,53.1750004 266.2725,53.105 C265.444163,53.0349997 264.74417,53 264.1725,53 C263.589164,53 262.889171,53.0349997 262.0725,53.105 C261.337496,53.1750004 260.730836,53.21 260.2525,53.21 C260.065832,53.21 259.9725,53.0466683 259.9725,52.72 C259.9725,52.4283319 260.065832,52.2708335 260.2525,52.2475 C261.244172,52.119166 261.882915,51.8800018 262.16875,51.53 C262.454585,51.1799983 262.5975,50.4333391 262.5975,49.29 L262.5975,40.925 C262.5975,40.5983317 262.457501,40.435 262.1775,40.435 L260.3925,40.435 C260.159165,40.435 260.0425,40.2833349 260.0425,39.98 C260.0425,39.6766652 260.147499,39.5016669 260.3575,39.455 C261.850841,39.116665 262.5975,38.7900016 262.5975,38.475 C262.5975,35.6516526 263.457908,33.1637608 265.17875,31.01125 C266.899592,28.8587392 268.885822,27.7825 271.1375,27.7825 C271.919171,27.7825 272.534581,27.9283319 272.98375,28.22 C273.432919,28.5116681 273.6575,28.9141641 273.6575,29.4275 Z M291.105,39.28 C291.105,39.9100032 290.953335,40.225 290.65,40.225 L285.435,40.085 L285.435,48.485 C285.435,50.6783443 286.216659,51.775 287.78,51.775 C288.748338,51.775 289.629163,51.5475023 290.4225,51.0925 C290.515834,51.0925 290.600416,51.1537494 290.67625,51.27625 C290.752084,51.3987506 290.79,51.5299993 290.79,51.67 C290.79,51.9616681 290.355421,52.3554142 289.48625,52.85125 C288.617079,53.3470858 287.640005,53.595 286.555,53.595 C285.224993,53.595 284.163337,53.1895874 283.37,52.37875 C282.576663,51.5679126 282.18,50.4975067 282.18,49.1675 L282.18,49.01 L282.25,40.505 C282.25,40.1783317 282.110001,40.015 281.83,40.015 L280.5,40.015 C280.243332,40.015 280.115,39.8633349 280.115,39.56 C280.115,39.3266655 280.219999,39.1516673 280.43,39.035 C282.051675,38.0783286 283.463327,36.730842 284.665,34.9925 C284.793334,34.8058324 284.956666,34.7125 285.155,34.7125 C285.481668,34.7125 285.645,34.8058324 285.645,34.9925 L285.505,38.335 L290.65,38.335 C290.953335,38.335 291.105,38.6499969 291.105,39.28 Z M311.1775,52.72 C311.1775,53.0466683 311.084168,53.21 310.8975,53.21 C310.430831,53.21 309.853337,53.1750004 309.165,53.105 C308.41833,53.0349997 307.765003,53 307.205,53 C306.621664,53 305.950837,53.0349997 305.1925,53.105 C304.504163,53.1750004 303.926669,53.21 303.46,53.21 C303.273332,53.21 303.18,53.0466683 303.18,52.72 C303.18,52.4283319 303.273332,52.2708335 303.46,52.2475 C304.265004,52.1541662 304.792915,51.9266685 305.04375,51.565 C305.294585,51.2033315 305.42,50.4450058 305.42,49.29 L305.42,43.445 C305.42,40.9249874 304.276678,39.665 301.99,39.665 C300.543326,39.665 299.295005,40.2483275 298.245,41.415 L298.245,49.29 C298.245,50.3400053 298.396665,51.0691646 298.7,51.4775 C299.003335,51.8858354 299.598329,52.1424995 300.485,52.2475 C300.671668,52.2708335 300.765,52.4283319 300.765,52.72 C300.765,53.0466683 300.671668,53.21 300.485,53.21 C300.006664,53.21 299.382504,53.1750004 298.6125,53.105 C297.749162,53.0349997 297.03167,53 296.46,53 C295.876664,53 295.21167,53.0349997 294.465,53.105 C293.799997,53.1750004 293.228336,53.21 292.75,53.21 C292.563332,53.21 292.47,53.0466683 292.47,52.72 C292.47,52.4283319 292.563332,52.2708335 292.75,52.2475 C293.730005,52.1424995 294.365832,51.9120851 294.6575,51.55625 C294.949168,51.2004149 295.095,50.4450058 295.095,49.29 L295.095,33.0325 C295.095,32.0874953 294.981251,31.4691681 294.75375,31.1775 C294.526249,30.8858319 293.998337,30.6933338 293.17,30.6 C292.983332,30.5766666 292.89,30.4308347 292.89,30.1625 C292.89,29.8591652 292.983332,29.7075 293.17,29.7075 C295.16501,29.240831 296.640829,28.6225039 297.5975,27.8525 C297.772501,27.7124993 297.918333,27.6425 298.035,27.6425 C298.361668,27.6425 298.525,27.7358324 298.525,27.9225 C298.338332,29.8358429 298.245,31.8658226 298.245,34.0125 L298.245,39.945 C299.913342,38.3583254 301.558325,37.565 303.18,37.565 C304.836675,37.565 306.140412,38.0199955 307.09125,38.93 C308.042088,39.8400046 308.5175,41.0649923 308.5175,42.605 L308.5175,49.29 C308.5175,50.4333391 308.666249,51.1829149 308.96375,51.53875 C309.261251,51.8945851 309.905828,52.1308328 310.8975,52.2475 C311.084168,52.2708335 311.1775,52.4283319 311.1775,52.72 Z M326.42,43.27 C326.42,43.5966683 326.210002,43.76 325.79,43.76 L316.2,43.76 C316.13,44.3900032 316.095,45.04333 316.095,45.72 C316.095,47.5983427 316.541246,49.0420783 317.43375,50.05125 C318.326254,51.0604217 319.594992,51.565 321.24,51.565 C322.068337,51.565 322.902496,51.3433356 323.7425,50.9 C324.582504,50.4566645 325.259164,49.8908368 325.7725,49.2025 L325.86,49.1675 C325.965001,49.1675 326.067083,49.231666 326.16625,49.36 C326.265417,49.488334 326.315,49.6399991 326.315,49.815 C326.315,50.0600012 325.94167,50.5704128 325.195,51.34625 C324.44833,52.1220872 323.637504,52.7141646 322.7625,53.1225 C321.887496,53.5308354 320.971671,53.735 320.015,53.735 C317.914989,53.735 316.147507,52.9650077 314.7125,51.425 C313.277493,49.8849923 312.56,47.9950112 312.56,45.755 C312.56,43.4683219 313.26291,41.5316746 314.66875,39.945 C316.07459,38.3583254 317.856656,37.565 320.015,37.565 C321.823342,37.565 323.342911,38.1570774 324.57375,39.34125 C325.804589,40.5254226 326.42,41.8349928 326.42,43.27 Z M323.235,41.73 C323.235,40.8549956 322.934586,40.1287529 322.33375,39.55125 C321.732914,38.9737471 320.960005,38.685 320.015,38.685 C319.116662,38.685 318.33792,39.0612462 317.67875,39.81375 C317.01958,40.5662538 316.573334,41.5549939 316.34,42.78 L321.205,42.64 C321.940004,42.6283333 322.462082,42.558334 322.77125,42.43 C323.080418,42.301666 323.235,42.068335 323.235,41.73 Z M145.3125,87.72 C145.3125,88.0466683 145.219168,88.21 145.0325,88.21 C144.239163,88.21 143.300005,88.1750004 142.215,88.105 C141.188328,88.0349997 140.31917,88 139.6075,88 C138.89583,88 138.073338,88.0349997 137.14,88.105 C136.159995,88.1750004 135.279171,88.21 134.4975,88.21 C134.310832,88.21 134.2175,88.0466683 134.2175,87.72 C134.2175,87.4283319 134.316666,87.2708335 134.515,87.2475 C135.495005,87.1308328 136.224164,86.9704177 136.7025,86.76625 C137.180836,86.5620823 137.487083,86.2937517 137.62125,85.96125 C137.755417,85.6287483 137.8225,85.0716706 137.8225,84.29 L137.8225,76.485 L124.47,76.485 L124.47,84.29 C124.47,85.0716706 124.537083,85.6287483 124.67125,85.96125 C124.805417,86.2937517 125.111664,86.5620823 125.59,86.76625 C126.068336,86.9704177 126.803328,87.1308328 127.795,87.2475 C127.981668,87.2708335 128.075,87.4283319 128.075,87.72 C128.075,88.0466683 127.981668,88.21 127.795,88.21 C127.013329,88.21 126.132505,88.1750004 125.1525,88.105 C124.219162,88.0349997 123.39667,88 122.685,88 C121.97333,88 121.098339,88.0349997 120.06,88.105 C118.974995,88.1750004 118.041671,88.21 117.26,88.21 C117.073332,88.21 116.98,88.0466683 116.98,87.72 C116.98,87.4283319 117.073332,87.2708335 117.26,87.2475 C118.671674,87.0841659 119.631247,86.8216685 120.13875,86.46 C120.646253,86.0983315 120.9,85.3750054 120.9,84.29 L120.9,67.8225 C120.9,67.0058293 120.797918,66.4312517 120.59375,66.09875 C120.389582,65.7662483 120.030836,65.503751 119.5175,65.31125 C119.004164,65.118749 118.251672,64.9641673 117.26,64.8475 C117.073332,64.8475 116.98,64.6841683 116.98,64.3575 C116.98,64.0308317 117.073332,63.8675 117.26,63.8675 C118.041671,63.8675 118.974995,63.9024997 120.06,63.9725 C121.098339,64.0425004 121.97333,64.0775 122.685,64.0775 C123.39667,64.0775 124.219162,64.0425004 125.1525,63.9725 C126.132505,63.9024997 127.013329,63.8675 127.795,63.8675 C127.981668,63.8675 128.075,64.0308317 128.075,64.3575 C128.075,64.6841683 127.981668,64.8475 127.795,64.8475 C126.884995,64.9525005 126.196669,65.0924991 125.73,65.2675 C125.263331,65.4425009 124.936668,65.6787485 124.75,65.97625 C124.563332,66.2737515 124.47,66.889162 124.47,67.8225 L124.47,75.365 L137.8225,75.365 L137.8225,67.8225 C137.8225,67.0408294 137.755417,66.480835 137.62125,66.1425 C137.487083,65.804165 137.183752,65.5329177 136.71125,65.32875 C136.238748,65.1245823 135.500838,64.9641673 134.4975,64.8475 C134.310832,64.8475 134.2175,64.6841683 134.2175,64.3575 C134.2175,64.0308317 134.310832,63.8675 134.4975,63.8675 C135.279171,63.8675 136.159995,63.9024997 137.14,63.9725 C138.073338,64.0425004 138.89583,64.0775 139.6075,64.0775 C140.31917,64.0775 141.188328,64.0425004 142.215,63.9725 C143.300005,63.9024997 144.239163,63.8675 145.0325,63.8675 C145.219168,63.8675 145.3125,64.0308317 145.3125,64.3575 C145.3125,64.6841683 145.219168,64.8475 145.0325,64.8475 C144.040828,64.9641673 143.288336,65.118749 142.775,65.31125 C142.261664,65.503751 141.902918,65.7662483 141.69875,66.09875 C141.494582,66.4312517 141.3925,67.0058293 141.3925,67.8225 L141.3925,84.29 C141.3925,85.3750054 141.646247,86.0983315 142.15375,86.46 C142.661253,86.8216685 143.620826,87.0841659 145.0325,87.2475 C145.219168,87.2708335 145.3125,87.4283319 145.3125,87.72 Z M153.17,66.5625 C153.17,67.0525025 152.992085,67.4783315 152.63625,67.84 C152.280415,68.2016685 151.851669,68.3825 151.35,68.3825 C150.848331,68.3825 150.419585,68.2016685 150.06375,67.84 C149.707915,67.4783315 149.53,67.0525025 149.53,66.5625 C149.53,66.0491641 149.704998,65.6175018 150.055,65.2675 C150.405002,64.9174983 150.836664,64.7425 151.35,64.7425 C151.851669,64.7425 152.280415,64.9174983 152.63625,65.2675 C152.992085,65.6175018 153.17,66.0491641 153.17,66.5625 Z M155.62,87.72 C155.62,88.0466683 155.526668,88.21 155.34,88.21 C154.861664,88.21 154.24917,88.1750004 153.5025,88.105 C152.662496,88.0349997 151.95667,88 151.385,88 C150.801664,88 150.101671,88.0349997 149.285,88.105 C148.549996,88.1750004 147.943336,88.21 147.465,88.21 C147.278332,88.21 147.185,88.0466683 147.185,87.72 C147.185,87.4283319 147.278332,87.2708335 147.465,87.2475 C148.456672,87.119166 149.095415,86.8800018 149.38125,86.53 C149.667085,86.1799983 149.81,85.4333391 149.81,84.29 L149.81,77.815 C149.81,76.881662 149.690418,76.2691681 149.45125,75.9775 C149.212082,75.6858319 148.690004,75.4933338 147.885,75.4 C147.698332,75.4 147.605,75.2483349 147.605,74.945 C147.605,74.6649986 147.698332,74.525 147.885,74.525 C149.110006,74.2099984 150.113329,73.8745851 150.895,73.51875 C151.676671,73.1629149 152.166666,72.8683345 152.365,72.635 C152.481667,72.4949993 152.609999,72.425 152.75,72.425 C153.076668,72.425 153.24,72.5183324 153.24,72.705 C153.053332,75.3183464 152.96,77.3483261 152.96,78.795 L152.96,84.29 C152.96,85.4333391 153.102915,86.1799983 153.38875,86.53 C153.674585,86.8800018 154.324995,87.119166 155.34,87.2475 C155.526668,87.2708335 155.62,87.4283319 155.62,87.72 Z M168.36,83.695 C168.36,85.1183405 167.800006,86.3141618 166.68,87.2825 C165.559994,88.2508382 164.206675,88.735 162.62,88.735 C162.059997,88.735 161.196672,88.6125012 160.03,88.3675 C159.154996,88.1924991 158.560002,88.105 158.245,88.105 C158.151666,87.2883293 157.935835,86.0458417 157.5975,84.3775 C157.5975,84.2024991 157.766665,84.115 158.105,84.115 C158.385001,84.115 158.554166,84.2083324 158.6125,84.395 C158.880835,85.2583377 159.411663,86.0108301 160.205,86.6525 C160.998337,87.2941699 161.814996,87.615 162.655,87.615 C163.530004,87.615 164.209581,87.3758357 164.69375,86.8975 C165.177919,86.4191643 165.42,85.7483377 165.42,84.885 C165.42,84.3366639 165.218752,83.8525021 164.81625,83.4325 C164.413748,83.0124979 163.541673,82.4933364 162.2,81.875 C160.438325,81.069996 159.274586,80.3116702 158.70875,79.6 C158.142914,78.8883298 157.86,78.0366716 157.86,77.045 C157.86,75.8199939 158.390828,74.7670877 159.4525,73.88625 C160.514172,73.0054123 161.768326,72.565 163.215,72.565 C163.82167,72.565 164.673328,72.669999 165.77,72.88 C166.37667,72.9966673 166.773332,73.055 166.96,73.055 C166.995,74.4316736 167.070833,75.6041618 167.1875,76.5725 C167.1875,76.7475009 167.018335,76.835 166.68,76.835 C166.388332,76.835 166.225,76.7416676 166.19,76.555 C166.061666,75.7033291 165.740836,75.012086 165.2275,74.48125 C164.714164,73.950414 164.10167,73.685 163.39,73.685 C161.569991,73.685 160.66,74.4783254 160.66,76.065 C160.66,76.6016694 160.875831,77.0974977 161.3075,77.5525 C161.739169,78.0075023 162.678326,78.5966631 164.125,79.32 C165.851675,80.1833377 166.989164,80.9299969 167.5375,81.56 C168.085836,82.1900032 168.36,82.9016627 168.36,83.695 Z M181.555,74.28 C181.555,74.9100032 181.403335,75.225 181.1,75.225 L175.885,75.085 L175.885,83.485 C175.885,85.6783443 176.666659,86.775 178.23,86.775 C179.198338,86.775 180.079163,86.5475023 180.8725,86.0925 C180.965834,86.0925 181.050416,86.1537494 181.12625,86.27625 C181.202084,86.3987506 181.24,86.5299993 181.24,86.67 C181.24,86.9616681 180.805421,87.3554142 179.93625,87.85125 C179.067079,88.3470858 178.090005,88.595 177.005,88.595 C175.674993,88.595 174.613337,88.1895874 173.82,87.37875 C173.026663,86.5679126 172.63,85.4975067 172.63,84.1675 L172.63,84.01 L172.7,75.505 C172.7,75.1783317 172.560001,75.015 172.28,75.015 L170.95,75.015 C170.693332,75.015 170.565,74.8633349 170.565,74.56 C170.565,74.3266655 170.669999,74.1516673 170.88,74.035 C172.501675,73.0783286 173.913327,71.730842 175.115,69.9925 C175.243334,69.8058324 175.406666,69.7125 175.605,69.7125 C175.931668,69.7125 176.095,69.8058324 176.095,69.9925 L175.955,73.335 L181.1,73.335 C181.403335,73.335 181.555,73.6499969 181.555,74.28 Z M199.9125,80.755 C199.9125,83.0766783 199.157091,84.9870758 197.64625,86.48625 C196.135409,87.9854242 194.178345,88.735 191.775,88.735 C189.371655,88.735 187.411674,87.9825075 185.895,86.4775 C184.378326,84.9724925 183.62,83.0650116 183.62,80.755 C183.62,78.4099883 184.384159,76.4587578 185.9125,74.90125 C187.440841,73.3437422 189.394988,72.565 191.775,72.565 C194.166679,72.565 196.120826,73.3408256 197.6375,74.8925 C199.154174,76.4441744 199.9125,78.3983216 199.9125,80.755 Z M196.395,80.72 C196.395,78.5849893 195.983754,76.8787564 195.16125,75.60125 C194.338746,74.3237436 193.210007,73.685 191.775,73.685 C190.35166,73.685 189.225837,74.3266603 188.3975,75.61 C187.569163,76.8933398 187.155,78.5966561 187.155,80.72 C187.155,82.8316772 187.563329,84.5087438 188.38,85.75125 C189.196671,86.9937562 190.328326,87.615 191.775,87.615 C193.221674,87.615 194.353329,86.9995895 195.17,85.76875 C195.986671,84.5379105 196.395,82.8550107 196.395,80.72 Z M214.175,74.315 C214.175,74.781669 214.032085,75.1783317 213.74625,75.505 C213.460415,75.8316683 213.113335,75.995 212.705,75.995 C212.191664,75.995 211.684169,75.825835 211.1825,75.4875 C210.785831,75.2191653 210.441668,75.085 210.15,75.085 C209.391663,75.085 208.610004,75.5283289 207.805,76.415 L207.805,84.29 C207.805,85.3050051 207.979998,86.013748 208.33,86.41625 C208.680002,86.818752 209.426661,87.0958326 210.57,87.2475 C210.756668,87.2708335 210.85,87.4283319 210.85,87.72 C210.85,88.0466683 210.756668,88.21 210.57,88.21 C210.091664,88.21 209.415004,88.1750004 208.54,88.105 C207.571662,88.0349997 206.80167,88 206.23,88 C205.646664,88 204.940837,88.0349997 204.1125,88.105 C203.36583,88.1750004 202.753336,88.21 202.275,88.21 C202.088332,88.21 201.995,88.0466683 201.995,87.72 C201.995,87.4283319 202.088332,87.2708335 202.275,87.2475 C203.290005,87.119166 203.940415,86.8800018 204.22625,86.53 C204.512085,86.1799983 204.655,85.4333391 204.655,84.29 L204.655,77.815 C204.655,76.881662 204.535418,76.2691681 204.29625,75.9775 C204.057082,75.6858319 203.523337,75.4933338 202.695,75.4 C202.508332,75.4 202.415,75.2483349 202.415,74.945 C202.415,74.6649986 202.508332,74.525 202.695,74.525 C203.850006,74.2333319 204.803746,73.9095851 205.55625,73.55375 C206.308754,73.1979149 206.801665,72.891668 207.035,72.635 C207.175001,72.4949993 207.314999,72.425 207.455,72.425 C207.781668,72.425 207.945,72.5183324 207.945,72.705 L207.805,74.91 C208.738338,74.0466624 209.540413,73.4400018 210.21125,73.09 C210.882087,72.7399983 211.549997,72.565 212.215,72.565 C212.751669,72.565 213.212498,72.7399983 213.5975,73.09 C213.982502,73.4400018 214.175,73.848331 214.175,74.315 Z M221.035,66.5625 C221.035,67.0525025 220.857085,67.4783315 220.50125,67.84 C220.145415,68.2016685 219.716669,68.3825 219.215,68.3825 C218.713331,68.3825 218.284585,68.2016685 217.92875,67.84 C217.572915,67.4783315 217.395,67.0525025 217.395,66.5625 C217.395,66.0491641 217.569998,65.6175018 217.92,65.2675 C218.270002,64.9174983 218.701664,64.7425 219.215,64.7425 C219.716669,64.7425 220.145415,64.9174983 220.50125,65.2675 C220.857085,65.6175018 221.035,66.0491641 221.035,66.5625 Z M223.485,87.72 C223.485,88.0466683 223.391668,88.21 223.205,88.21 C222.726664,88.21 222.11417,88.1750004 221.3675,88.105 C220.527496,88.0349997 219.82167,88 219.25,88 C218.666664,88 217.966671,88.0349997 217.15,88.105 C216.414996,88.1750004 215.808336,88.21 215.33,88.21 C215.143332,88.21 215.05,88.0466683 215.05,87.72 C215.05,87.4283319 215.143332,87.2708335 215.33,87.2475 C216.321672,87.119166 216.960415,86.8800018 217.24625,86.53 C217.532085,86.1799983 217.675,85.4333391 217.675,84.29 L217.675,77.815 C217.675,76.881662 217.555418,76.2691681 217.31625,75.9775 C217.077082,75.6858319 216.555004,75.4933338 215.75,75.4 C215.563332,75.4 215.47,75.2483349 215.47,74.945 C215.47,74.6649986 215.563332,74.525 215.75,74.525 C216.975006,74.2099984 217.978329,73.8745851 218.76,73.51875 C219.541671,73.1629149 220.031666,72.8683345 220.23,72.635 C220.346667,72.4949993 220.474999,72.425 220.615,72.425 C220.941668,72.425 221.105,72.5183324 221.105,72.705 C220.918332,75.3183464 220.825,77.3483261 220.825,78.795 L220.825,84.29 C220.825,85.4333391 220.967915,86.1799983 221.25375,86.53 C221.539585,86.8800018 222.189995,87.119166 223.205,87.2475 C223.391668,87.2708335 223.485,87.4283319 223.485,87.72 Z M238.71,75.33 C238.71,76.2866715 238.231671,76.765 237.275,76.765 C236.866665,76.765 236.531251,76.6775009 236.26875,76.5025 C236.006249,76.3274991 235.740835,75.9483363 235.4725,75.365 C235.157498,74.6766632 234.822085,74.2245844 234.46625,74.00875 C234.110415,73.7929156 233.64667,73.685 233.075,73.685 C231.663326,73.685 230.587087,74.2712441 229.84625,75.44375 C229.105413,76.6162559 228.735,78.3283221 228.735,80.58 C228.735,82.4583427 229.201662,83.9720776 230.135,85.12125 C231.068338,86.2704224 232.316659,86.845 233.88,86.845 C235.653342,86.845 237.059161,86.2908389 238.0975,85.1825 L238.185,85.1475 C238.290001,85.1475 238.392083,85.2145827 238.49125,85.34875 C238.590417,85.4829173 238.64,85.6316659 238.64,85.795 C238.64,86.0283345 238.298753,86.4308305 237.61625,87.0025 C236.933747,87.5741695 236.187087,88.0058319 235.37625,88.2975 C234.565413,88.5891681 233.705005,88.735 232.795,88.735 C230.706656,88.735 228.918757,87.9679243 227.43125,86.43375 C225.943743,84.8995757 225.2,82.9600117 225.2,80.615 C225.2,78.2933217 225.978742,76.3712576 227.53625,74.84875 C229.093758,73.3262424 230.939989,72.565 233.075,72.565 C234.650008,72.565 235.982911,72.8362473 237.07375,73.37875 C238.164589,73.9212527 238.71,74.5716629 238.71,75.33 Z M265.3625,81.175 C265.3625,83.4966783 264.674174,85.3429098 263.2975,86.71375 C261.920826,88.0845902 260.060012,88.77 257.715,88.77 C256.676661,88.77 255.434174,88.5833352 253.9875,88.21 C252.66916,87.8599983 251.590004,87.685 250.75,87.685 C250.68,85.7016568 250.540001,83.7183433 250.33,81.735 C250.33,81.5483324 250.504998,81.455 250.855,81.455 C251.100001,81.455 251.251666,81.5483324 251.31,81.735 C251.940003,83.9050109 252.744995,85.4333289 253.725,86.32 C254.705005,87.2066711 256.081658,87.65 257.855,87.65 C259.266674,87.65 260.360413,87.2416708 261.13625,86.425 C261.912087,85.6083293 262.3,84.4650074 262.3,82.995 C262.3,82.0499953 261.96167,81.1720874 261.285,80.36125 C260.60833,79.5504126 259.167511,78.5033398 256.9625,77.22 C254.430821,75.7616594 252.774171,74.5250051 251.9925,73.51 C251.210829,72.4949949 250.82,71.3691729 250.82,70.1325 C250.82,68.2308238 251.52291,66.6237566 252.92875,65.31125 C254.33459,63.9987434 256.116656,63.3425 258.275,63.3425 C259.091671,63.3425 260.030828,63.4533322 261.0925,63.675 C262.084172,63.8733343 262.941663,63.9725 263.665,63.9725 C263.805001,66.0258436 263.991665,67.8341589 264.225,69.3975 C264.225,69.5841676 264.073335,69.6775 263.77,69.6775 C263.443332,69.6775 263.2625,69.5841676 263.2275,69.3975 C262.842498,67.6474913 262.259171,66.3875039 261.4775,65.6175 C260.695829,64.8474962 259.616674,64.4625 258.24,64.4625 C256.933327,64.4625 255.895004,64.8474962 255.125,65.6175 C254.354996,66.3875039 253.97,67.4258268 253.97,68.7325 C253.97,69.5608375 254.293747,70.3512462 254.94125,71.10375 C255.588753,71.8562538 256.991656,72.8624937 259.15,74.1225 C261.705013,75.6158408 263.379163,76.8641617 264.1725,77.8675 C264.965837,78.8708384 265.3625,79.9733273 265.3625,81.175 Z M275.565,87.685 C275.565,88.0116683 275.471668,88.175 275.285,88.175 C274.806664,88.175 274.19417,88.1458336 273.4475,88.0875 C272.607496,88.0291664 271.90167,88 271.33,88 C270.769997,88 270.075837,88.0291664 269.2475,88.0875 C268.50083,88.1458336 267.888336,88.175 267.41,88.175 C267.223332,88.175 267.13,88.0116683 267.13,87.685 C267.13,87.3933319 267.223332,87.2358335 267.41,87.2125 C268.401672,87.0958328 269.046249,86.8595851 269.34375,86.50375 C269.641251,86.1479149 269.79,85.3983391 269.79,84.255 L269.79,67.9975 C269.79,67.0524953 269.673334,66.4341681 269.44,66.1425 C269.206665,65.8508319 268.670004,65.6583338 267.83,65.565 C267.643332,65.5416666 267.55,65.3958347 267.55,65.1275 C267.55,64.8474986 267.643332,64.7075 267.83,64.7075 C269.055006,64.3924984 270.058329,64.0570851 270.84,63.70125 C271.621671,63.3454149 272.111666,63.0450012 272.31,62.8 C272.426667,62.671666 272.554999,62.6075 272.695,62.6075 C273.021668,62.6075 273.185,62.7008324 273.185,62.8875 C272.998332,65.5008464 272.905,67.5308261 272.905,68.9775 L272.905,84.255 C272.905,85.3983391 273.050832,86.1479149 273.3425,86.50375 C273.634168,86.8595851 274.281662,87.0958328 275.285,87.2125 C275.471668,87.2358335 275.565,87.3933319 275.565,87.685 Z M288.2,88.595 C287.546663,88.595 286.977919,88.4345849 286.49375,88.11375 C286.009581,87.7929151 285.680001,87.3583361 285.505,86.81 C284.25666,88.0933398 282.623343,88.735 280.605,88.735 C279.554995,88.735 278.697503,88.4112532 278.0325,87.76375 C277.367497,87.1162468 277.035,86.3083382 277.035,85.34 C277.035,82.9483214 279.869972,81.0116741 285.54,79.53 L285.645,76.8 L285.645,76.7125 C285.645,75.8724958 285.437919,75.2045858 285.02375,74.70875 C284.609581,74.2129142 284.058337,73.965 283.37,73.965 C282.681663,73.965 282.098336,74.1312483 281.62,74.46375 C281.141664,74.7962517 280.896667,75.2133308 280.885,75.715 C280.873333,76.4616704 280.677919,77.0449979 280.29875,77.465 C279.919581,77.8850021 279.415003,78.095 278.785,78.095 C278.411665,78.095 278.108334,77.9841678 277.875,77.7625 C277.641665,77.5408322 277.525,77.2433352 277.525,76.87 C277.525,75.9716622 278.341658,75.0295883 279.975,74.04375 C281.608341,73.0579117 283.124993,72.565 284.525,72.565 C285.785006,72.565 286.805829,72.9383296 287.5875,73.685 C288.369171,74.4316704 288.76,75.4349937 288.76,76.695 L288.76,76.905 L288.515,84.815 L288.515,84.9375 C288.515,86.1625061 288.911663,86.775 289.705,86.775 C290.090002,86.775 290.539164,86.541669 291.0525,86.075 L291.175,86.04 C291.268334,86.04 291.355833,86.1012494 291.4375,86.22375 C291.519167,86.3462506 291.56,86.4774993 291.56,86.6175 C291.56,86.955835 291.207087,87.3699976 290.50125,87.86 C289.795413,88.3500025 289.028337,88.595 288.2,88.595 Z M285.505,80.72 C282.098316,81.4900039 280.395,82.7616578 280.395,84.535 C280.395,86.191675 281.03666,87.02 282.32,87.02 C282.938336,87.02 283.547914,86.8654182 284.14875,86.55625 C284.749586,86.2470818 285.154999,85.8650023 285.365,85.41 L285.505,80.72 Z M307.9225,73.615 C307.9225,73.9183349 307.829168,74.0816666 307.6425,74.105 C306.662495,74.2100005 306.006252,74.4433315 305.67375,74.805 C305.341248,75.1666685 304.924169,75.9133277 304.4225,77.045 L299.4,88.49 C299.318333,88.6766676 299.178334,88.77 298.98,88.77 C298.769999,88.77 298.624167,88.6766676 298.5425,88.49 L293.835,77.045 C293.403331,75.9716613 292.965836,75.2366687 292.5225,74.84 C292.079164,74.4433314 291.478337,74.1925005 290.72,74.0875 C290.533332,74.0641666 290.44,73.9066681 290.44,73.615 C290.44,73.2883317 290.533332,73.125 290.72,73.125 C291.198336,73.125 291.79333,73.1599997 292.505,73.23 C293.275004,73.3000004 293.939997,73.335 294.5,73.335 C295.07167,73.335 295.765829,73.3000004 296.5825,73.23 C297.305837,73.1599997 297.906664,73.125 298.385,73.125 C298.571668,73.125 298.665,73.2883317 298.665,73.615 C298.665,73.9066681 298.571668,74.0641666 298.385,74.0875 C297.684996,74.1808338 297.200835,74.3062492 296.9325,74.46375 C296.664165,74.6212508 296.53,74.8516652 296.53,75.155 C296.53,75.5166685 296.704998,76.1408289 297.055,77.0275 L299.925,84.465 L302.83,77.045 C303.180002,76.1699956 303.355,75.5400019 303.355,75.155 C303.355,74.8516652 303.223751,74.6212508 302.96125,74.46375 C302.698749,74.3062492 302.235003,74.1808338 301.57,74.0875 C301.383332,74.0641666 301.29,73.9066681 301.29,73.615 C301.29,73.2883317 301.383332,73.125 301.57,73.125 C302.060002,73.125 302.60833,73.1599997 303.215,73.23 C303.78667,73.3000004 304.299998,73.335 304.755,73.335 C304.988335,73.335 305.367497,73.3058336 305.8925,73.2475 C306.615837,73.1658329 307.199164,73.125 307.6425,73.125 C307.829168,73.125 307.9225,73.2883317 307.9225,73.615 Z M322.325,78.27 C322.325,78.5966683 322.115002,78.76 321.695,78.76 L312.105,78.76 C312.035,79.3900032 312,80.04333 312,80.72 C312,82.5983427 312.446246,84.0420783 313.33875,85.05125 C314.231254,86.0604217 315.499992,86.565 317.145,86.565 C317.973337,86.565 318.807496,86.3433356 319.6475,85.9 C320.487504,85.4566645 321.164164,84.8908368 321.6775,84.2025 L321.765,84.1675 C321.870001,84.1675 321.972083,84.231666 322.07125,84.36 C322.170417,84.488334 322.22,84.6399991 322.22,84.815 C322.22,85.0600012 321.84667,85.5704128 321.1,86.34625 C320.35333,87.1220872 319.542504,87.7141646 318.6675,88.1225 C317.792496,88.5308354 316.876671,88.735 315.92,88.735 C313.819989,88.735 312.052507,87.9650077 310.6175,86.425 C309.182493,84.8849923 308.465,82.9950112 308.465,80.755 C308.465,78.4683219 309.16791,76.5316746 310.57375,74.945 C311.97959,73.3583254 313.761656,72.565 315.92,72.565 C317.728342,72.565 319.247911,73.1570774 320.47875,74.34125 C321.709589,75.5254226 322.325,76.8349928 322.325,78.27 Z M319.14,76.73 C319.14,75.8549956 318.839586,75.1287529 318.23875,74.55125 C317.637914,73.9737471 316.865005,73.685 315.92,73.685 C315.021662,73.685 314.24292,74.0612462 313.58375,74.81375 C312.92458,75.5662538 312.478335,76.5549939 312.245,77.78 L317.11,77.64 C317.845004,77.6283333 318.367082,77.558334 318.67625,77.43 C318.985418,77.301666 319.14,77.068335 319.14,76.73 Z M357.2375,69.625 C357.2375,69.8466678 357.027502,69.9575 356.6075,69.9575 C356.420832,69.9575 356.304167,69.8758342 356.2575,69.7125 C355.755831,68.0674918 355.038338,66.9037534 354.105,66.22125 C353.171662,65.5387466 351.789176,65.1975 349.9575,65.1975 L348.3125,65.1975 C347.74083,65.1975 347.350001,65.2908324 347.14,65.4775 C346.929999,65.6641676 346.825,66.0141641 346.825,66.5275 L346.825,84.29 C346.825,85.095004 346.927082,85.6637483 347.13125,85.99625 C347.335418,86.3287517 347.697081,86.591249 348.21625,86.78375 C348.735419,86.976251 349.479162,87.1308328 350.4475,87.2475 C350.634168,87.2708335 350.7275,87.4283319 350.7275,87.72 C350.7275,88.0466683 350.634168,88.21 350.4475,88.21 C349.665829,88.21 348.732505,88.1750004 347.6475,88.105 C346.620828,88.0349997 345.763337,88 345.075,88 C344.36333,88 343.488339,88.0349997 342.45,88.105 C341.364995,88.1750004 340.431671,88.21 339.65,88.21 C339.463332,88.21 339.37,88.0466683 339.37,87.72 C339.37,87.4283319 339.463332,87.2708335 339.65,87.2475 C341.061674,87.0841659 342.021247,86.8216685 342.52875,86.46 C343.036253,86.0983315 343.29,85.3750054 343.29,84.29 L343.29,66.5275 C343.29,66.0141641 343.185001,65.6641676 342.975,65.4775 C342.764999,65.2908324 342.368336,65.1975 341.785,65.1975 L340.42,65.1975 C338.774992,65.1975 337.281673,65.6145792 335.94,66.44875 C334.598327,67.2829208 333.723335,68.3649934 333.315,69.695 C333.256666,69.8700009 333.128334,69.9575 332.93,69.9575 C332.533331,69.9575 332.335,69.829168 332.335,69.5725 C332.988337,67.8108245 333.606664,65.8158445 334.19,63.5875 C335.776675,63.9141683 339.404972,64.0775 345.075,64.0775 C350.896696,64.0775 354.600825,63.9141683 356.1875,63.5875 C356.350834,65.1041743 356.700831,67.1166541 357.2375,69.625 Z M370.275,74.315 C370.275,74.781669 370.132085,75.1783317 369.84625,75.505 C369.560415,75.8316683 369.213335,75.995 368.805,75.995 C368.291664,75.995 367.784169,75.825835 367.2825,75.4875 C366.885831,75.2191653 366.541668,75.085 366.25,75.085 C365.491663,75.085 364.710004,75.5283289 363.905,76.415 L363.905,84.29 C363.905,85.3050051 364.079998,86.013748 364.43,86.41625 C364.780002,86.818752 365.526661,87.0958326 366.67,87.2475 C366.856668,87.2708335 366.95,87.4283319 366.95,87.72 C366.95,88.0466683 366.856668,88.21 366.67,88.21 C366.191664,88.21 365.515004,88.1750004 364.64,88.105 C363.671662,88.0349997 362.90167,88 362.33,88 C361.746664,88 361.040837,88.0349997 360.2125,88.105 C359.46583,88.1750004 358.853336,88.21 358.375,88.21 C358.188332,88.21 358.095,88.0466683 358.095,87.72 C358.095,87.4283319 358.188332,87.2708335 358.375,87.2475 C359.390005,87.119166 360.040415,86.8800018 360.32625,86.53 C360.612085,86.1799983 360.755,85.4333391 360.755,84.29 L360.755,77.815 C360.755,76.881662 360.635418,76.2691681 360.39625,75.9775 C360.157082,75.6858319 359.623337,75.4933338 358.795,75.4 C358.608332,75.4 358.515,75.2483349 358.515,74.945 C358.515,74.6649986 358.608332,74.525 358.795,74.525 C359.950006,74.2333319 360.903746,73.9095851 361.65625,73.55375 C362.408754,73.1979149 362.901665,72.891668 363.135,72.635 C363.275001,72.4949993 363.414999,72.425 363.555,72.425 C363.881668,72.425 364.045,72.5183324 364.045,72.705 L363.905,74.91 C364.838338,74.0466624 365.640413,73.4400018 366.31125,73.09 C366.982087,72.7399983 367.649997,72.565 368.315,72.565 C368.851669,72.565 369.312498,72.7399983 369.6975,73.09 C370.082502,73.4400018 370.275,73.848331 370.275,74.315 Z M382.77,88.595 C382.116663,88.595 381.547919,88.4345849 381.06375,88.11375 C380.579581,87.7929151 380.250001,87.3583361 380.075,86.81 C378.82666,88.0933398 377.193343,88.735 375.175,88.735 C374.124995,88.735 373.267503,88.4112532 372.6025,87.76375 C371.937497,87.1162468 371.605,86.3083382 371.605,85.34 C371.605,82.9483214 374.439972,81.0116741 380.11,79.53 L380.215,76.8 L380.215,76.7125 C380.215,75.8724958 380.007919,75.2045858 379.59375,74.70875 C379.179581,74.2129142 378.628337,73.965 377.94,73.965 C377.251663,73.965 376.668336,74.1312483 376.19,74.46375 C375.711664,74.7962517 375.466667,75.2133308 375.455,75.715 C375.443333,76.4616704 375.247919,77.0449979 374.86875,77.465 C374.489581,77.8850021 373.985003,78.095 373.355,78.095 C372.981665,78.095 372.678334,77.9841678 372.445,77.7625 C372.211665,77.5408322 372.095,77.2433352 372.095,76.87 C372.095,75.9716622 372.911658,75.0295883 374.545,74.04375 C376.178342,73.0579117 377.694993,72.565 379.095,72.565 C380.355006,72.565 381.375829,72.9383296 382.1575,73.685 C382.939171,74.4316704 383.33,75.4349937 383.33,76.695 L383.33,76.905 L383.085,84.815 L383.085,84.9375 C383.085,86.1625061 383.481663,86.775 384.275,86.775 C384.660002,86.775 385.109164,86.541669 385.6225,86.075 L385.745,86.04 C385.838334,86.04 385.925833,86.1012494 386.0075,86.22375 C386.089167,86.3462506 386.13,86.4774993 386.13,86.6175 C386.13,86.955835 385.777087,87.3699976 385.07125,87.86 C384.365413,88.3500025 383.598337,88.595 382.77,88.595 Z M380.075,80.72 C376.668316,81.4900039 374.965,82.7616578 374.965,84.535 C374.965,86.191675 375.60666,87.02 376.89,87.02 C377.508336,87.02 378.117914,86.8654182 378.71875,86.55625 C379.319586,86.2470818 379.724999,85.8650023 379.935,85.41 L380.075,80.72 Z M404.6275,87.055 C404.6275,87.3000012 404.534168,87.4341666 404.3475,87.4575 C403.682497,87.5391671 402.912504,87.7024988 402.0375,87.9475 C401.162496,88.1925012 400.480002,88.4374988 399.99,88.6825 C399.733332,88.810834 399.546667,88.875 399.43,88.875 C399.243332,88.875 399.15,88.7816676 399.15,88.595 L399.29,86.705 C398.053327,88.0583401 396.478343,88.735 394.565,88.735 C392.546657,88.735 390.828757,87.9591744 389.41125,86.4075 C387.993743,84.8558256 387.285,82.9950109 387.285,80.825 C387.285,78.363321 388.069575,76.3712576 389.63875,74.84875 C391.207925,73.3262424 393.176655,72.565 395.545,72.565 C396.89834,72.565 398.146661,72.9849958 399.29,73.825 L399.29,67.9975 C399.29,67.0524953 399.173335,66.4341681 398.94,66.1425 C398.706666,65.8508319 398.170004,65.6583338 397.33,65.565 C397.143332,65.5416666 397.05,65.3958347 397.05,65.1275 C397.05,64.8241652 397.143332,64.6725 397.33,64.6725 C398.426672,64.4158321 399.377496,64.1066685 400.1825,63.745 C400.987504,63.3833315 401.529999,63.0625014 401.81,62.7825 C401.926667,62.6658328 402.049166,62.6075 402.1775,62.6075 C402.504168,62.6075 402.6675,62.7008324 402.6675,62.8875 C402.480832,65.4308461 402.3875,67.4608258 402.3875,68.9775 L402.3875,84.395 C402.3875,85.200004 402.504166,85.739582 402.7375,86.01375 C402.970835,86.287918 403.507496,86.4833328 404.3475,86.6 C404.534168,86.6 404.6275,86.7516652 404.6275,87.055 Z M399.29,85.165 L399.29,76.205 C399.29,75.5983303 398.937087,75.0266694 398.23125,74.49 C397.525413,73.9533307 396.758337,73.685 395.93,73.685 C392.523316,73.685 390.82,76.0766428 390.82,80.86 C390.82,82.7500095 391.228329,84.3191604 392.045,85.5675 C392.861671,86.8158396 393.934993,87.44 395.265,87.44 C396.023337,87.44 396.711664,87.2679184 397.33,86.92375 C397.948336,86.5795816 398.601663,85.9933375 399.29,85.165 Z M419.94,78.27 C419.94,78.5966683 419.730002,78.76 419.31,78.76 L409.72,78.76 C409.65,79.3900032 409.615,80.04333 409.615,80.72 C409.615,82.5983427 410.061246,84.0420783 410.95375,85.05125 C411.846254,86.0604217 413.114992,86.565 414.76,86.565 C415.588337,86.565 416.422496,86.3433356 417.2625,85.9 C418.102504,85.4566645 418.779164,84.8908368 419.2925,84.2025 L419.38,84.1675 C419.485001,84.1675 419.587083,84.231666 419.68625,84.36 C419.785417,84.488334 419.835,84.6399991 419.835,84.815 C419.835,85.0600012 419.46167,85.5704128 418.715,86.34625 C417.96833,87.1220872 417.157504,87.7141646 416.2825,88.1225 C415.407496,88.5308354 414.491671,88.735 413.535,88.735 C411.43499,88.735 409.667507,87.9650077 408.2325,86.425 C406.797493,84.8849923 406.08,82.9950112 406.08,80.755 C406.08,78.4683219 406.78291,76.5316746 408.18875,74.945 C409.59459,73.3583254 411.376656,72.565 413.535,72.565 C415.343342,72.565 416.862911,73.1570774 418.09375,74.34125 C419.324589,75.5254226 419.94,76.8349928 419.94,78.27 Z M416.755,76.73 C416.755,75.8549956 416.454586,75.1287529 415.85375,74.55125 C415.252914,73.9737471 414.480005,73.685 413.535,73.685 C412.636662,73.685 411.85792,74.0612462 411.19875,74.81375 C410.53958,75.5662538 410.093335,76.5549939 409.86,77.78 L414.725,77.64 C415.460004,77.6283333 415.982082,77.558334 416.29125,77.43 C416.600418,77.301666 416.755,77.068335 416.755,76.73 Z" id="PeoplesoftheHistoricSlaveTrade"></path>
                <path d="M92,109.5 C92,110.052285 91.5522847,110.5 91,110.5 C90.4477153,110.5 90,110.052285 90,109.5 L90,1.9375 C90,1.38521525 90.4477153,0.9375 91,0.9375 C91.5522847,0.9375 92,1.38521525 92,1.9375 L92,109.5 Z" id="Line"></path>
            </g>
        </g>
    </g>
</svg>