<?xml version="1.0" encoding="UTF-8"?>
<svg width="157px" height="42px" viewBox="0 0 157 42" version="1.1" xmlns="http://www.w3.org/2000/svg" xmlns:xlink="http://www.w3.org/1999/xlink">
    <!-- Generator: Sketch 53.2 (72643) - https://sketchapp.com -->
    <title>Logo</title>
    <desc>Created with Sketch.</desc>
    <g id="Home" stroke="none" stroke-width="1" fill="none" fill-rule="evenodd">
        <g transform="translate(-106.000000, -5.000000)" fill="#FBF9F5" fill-rule="nonzero" id="Logo">
            <g transform="translate(106.000000, 4.000000)">
                <path d="M24.5823928,29.3431689 C23.4952054,31.6881678 22.6093622,33.9246939 21.9248368,36.0528143 C16.8647175,35.8901554 13.2609466,35.8088272 11.1134159,35.8088272 C8.99272931,35.8088272 5.39566932,35.8901554 0.322127997,36.0528143 C0.107374925,36.0528143 0,35.8630484 0,35.483511 C0,35.1446384 0.107374925,34.9616499 0.322127997,34.93454 C1.43615956,34.798991 2.28844803,34.6193912 2.87901897,34.3957352 C3.46958992,34.1720792 3.88231229,33.8704871 4.11719846,33.4909497 C4.35208463,33.1114123 4.46952596,32.4472318 4.46952596,31.4983883 L4.46952596,12.3657327 C4.46952596,11.4304441 4.35879557,10.7696523 4.13733146,10.3833375 C3.91586736,9.99702262 3.50985592,9.68865311 2.91928497,9.45821969 C2.32871403,9.22778627 1.46300369,9.04479777 0.322127997,8.9092487 C0.107374925,8.9092487 0,8.71948285 0,8.33994545 C0,7.96040805 0.107374925,7.7706422 0.322127997,7.7706422 C3.70448888,7.93330109 7.16733022,8.01462931 10.7107559,8.01462931 C14.2810257,8.01462931 17.750578,7.93330109 21.1195168,7.7706422 C21.4282243,9.87165279 21.8778568,11.9455225 22.4684278,13.9923134 C22.4684278,14.2634116 22.2335451,14.3989586 21.7637728,14.3989586 C21.5355977,14.3989586 21.3946681,14.3040757 21.3409798,14.114307 C20.3477468,10.9153489 18.2270921,9.31589388 14.9789519,9.31589388 L10.9120859,9.31589388 C9.35512613,9.31589388 8.57665792,10.1291761 8.57665792,11.7557649 L8.57665792,20.8036201 L13.6501739,20.8036201 C14.9923806,20.8036201 15.901712,20.4918619 16.3781954,19.8683362 C16.8546787,19.2448105 17.1868699,18.1401022 17.3747788,16.554178 C17.3747788,16.3372995 17.562685,16.2288619 17.9385028,16.2288619 C18.3143207,16.2288619 18.5022268,16.3372995 18.5022268,16.554178 C18.5022268,17.2319234 18.4619612,18.0858697 18.3814288,19.1160426 C18.3008964,20.1055509 18.2606308,20.9120557 18.2606308,21.5355815 C18.2606308,22.1726621 18.3008964,22.9859443 18.3814288,23.9754525 C18.4619612,25.0327353 18.5022268,25.9002363 18.5022268,26.5779817 C18.5022268,26.7948602 18.3143207,26.9032978 17.9385028,26.9032978 C17.562685,26.9032978 17.3747788,26.7948602 17.3747788,26.5779817 C17.1734478,24.924283 16.8211239,23.7653558 16.3177964,23.1011654 C15.8144688,22.4369749 14.9252702,22.1048847 13.6501739,22.1048847 L8.57665792,22.1048847 L8.57665792,32.1083561 C8.57665792,33.7078351 9.35512613,34.5075626 10.9120859,34.5075626 L15.3010799,34.5075626 C16.8983058,34.5075626 18.482086,33.9823178 20.0524678,32.9318125 C21.6228497,31.8813073 22.7771301,30.5698897 23.5153438,28.9975205 C23.5690321,28.8755263 23.6831179,28.8145301 23.8576048,28.8145301 C24.0455137,28.8145301 24.213287,28.8653603 24.3609298,28.9670221 C24.5085725,29.0686839 24.5823928,29.1940649 24.5823928,29.3431689 Z" id="E"></path>
                <path d="M50.9684255,14.1679587 C50.9684255,14.9403173 50.6740295,15.5886939 50.0852286,16.1131078 C49.4964276,16.6375217 48.7674987,16.8997248 47.8984199,16.8997248 C47.3769726,16.8997248 46.8642237,16.8777831 46.360158,16.8338991 L46.360158,19.1641284 C46.360158,19.4713165 46.3981796,19.686345 46.474224,19.8092202 C46.5502684,19.9320954 46.682801,20.0297359 46.8718256,20.1021445 C47.0608503,20.1745531 47.337865,20.2326986 47.7028781,20.2765826 C47.7724044,20.2853594 47.807167,20.3446019 47.807167,20.4543119 C47.807167,20.5771872 47.7724044,20.6386239 47.7028781,20.6386239 C47.4117367,20.6386239 47.066283,20.6254588 46.6665068,20.5991284 C46.2841121,20.572798 45.9603851,20.559633 45.695316,20.559633 C45.430247,20.559633 45.1043473,20.572798 44.7176072,20.5991284 C44.3134856,20.6254588 43.9658592,20.6386239 43.6747178,20.6386239 C43.6051915,20.6386239 43.5704289,20.5771872 43.5704289,20.4543119 C43.5704289,20.3446019 43.6051915,20.2853594 43.6747178,20.2765826 C44.2005105,20.215145 44.5579138,20.1164074 44.7469385,19.980367 C44.9359631,19.8443265 45.030474,19.5722497 45.030474,19.1641284 L45.030474,12.9699312 C45.030474,12.6627431 44.9924524,12.4466176 44.916408,12.3215482 C44.8403636,12.1964787 44.7067447,12.0977412 44.5155474,12.0253326 C44.3243501,11.9529239 44.0440763,11.8947785 43.6747178,11.8508945 C43.6051915,11.8508945 43.5704289,11.7894578 43.5704289,11.6665826 C43.5704289,11.5437073 43.6051915,11.4822706 43.6747178,11.4822706 C43.9658592,11.4822706 44.3134856,11.4954356 44.7176072,11.5217661 C45.1043473,11.5480965 45.430247,11.5612615 45.695316,11.5612615 C45.9603851,11.5612615 46.2841121,11.5480965 46.6665068,11.5217661 C47.066283,11.4954356 47.4117367,11.4822706 47.7028781,11.4822706 C48.7718451,11.4822706 49.5833353,11.7104641 50.137373,12.1668578 C50.6914108,12.6232515 50.9684255,13.2902785 50.9684255,14.1679587 Z M49.5214165,14.1679587 C49.5214165,13.4658145 49.3508623,12.9172726 49.0097489,12.5223165 C48.6686354,12.1273604 48.2156349,11.9298853 47.6507336,11.9298853 C47.3117929,11.9298853 47.0499868,11.9562153 46.8653076,12.0088761 C46.6806283,12.061537 46.5502684,12.1471095 46.474224,12.2655963 C46.3981796,12.3840832 46.360158,12.6188591 46.360158,12.9699312 L46.360158,15.9913303 C46.360158,16.1800315 46.41882,16.3061962 46.5361456,16.369828 C46.6534712,16.4334598 46.907673,16.4652752 47.2987585,16.4652752 C48.0070577,16.4652752 48.5545692,16.2612176 48.9413093,15.8530963 C49.3280493,15.444975 49.5214165,14.8832681 49.5214165,14.1679587 Z M56.9845937,16.8997248 C56.9845937,17.0226 56.9063778,17.0840367 56.7499436,17.0840367 L53.1780474,17.0840367 C53.151975,17.3210104 53.1389391,17.5667571 53.1389391,17.8212844 C53.1389391,18.527817 53.3051479,19.0708735 53.6375705,19.4504702 C53.9699932,19.8300669 54.4425477,20.0198624 55.0552483,20.0198624 C55.3637713,20.0198624 55.6744623,19.936484 55.9873307,19.7697248 C56.3001991,19.6029655 56.5522282,19.3901313 56.7434255,19.1312156 L56.7760158,19.1180505 C56.8151243,19.1180505 56.853146,19.1421863 56.8900818,19.1904587 C56.9270177,19.2387311 56.9454853,19.2957795 56.9454853,19.3616055 C56.9454853,19.4537619 56.8064348,19.6457516 56.5283296,19.9375803 C56.2502243,20.229409 55.948224,20.452117 55.6223194,20.605711 C55.2964148,20.759305 54.9553065,20.8361009 54.5989842,20.8361009 C53.8168132,20.8361009 53.1584959,20.5464708 52.6240124,19.9672018 C52.0895289,19.3879329 51.8222912,18.6770226 51.8222912,17.8344495 C51.8222912,16.9743229 52.0840973,16.2458593 52.6077173,15.6490367 C53.1313373,15.0522141 53.7950863,14.7538073 54.5989842,14.7538073 C55.2725203,14.7538073 55.8384994,14.9765154 56.2969385,15.4219381 C56.7553776,15.8673608 56.9845937,16.3599514 56.9845937,16.8997248 Z M55.798307,16.3204587 C55.798307,15.9913286 55.6864148,15.7181548 55.462627,15.5009289 C55.2388392,15.283703 54.9509611,15.1750917 54.5989842,15.1750917 C54.2643888,15.1750917 53.9743381,15.3166156 53.7288234,15.5996674 C53.4833086,15.8827193 53.3170998,16.2546307 53.2301919,16.7154128 L55.0422122,16.6627523 C55.315972,16.6583639 55.5104255,16.6320339 55.6255784,16.5837615 C55.7407314,16.5354891 55.798307,16.4477223 55.798307,16.3204587 Z M63.9915068,17.8344495 C63.9915068,18.7077414 63.7101467,19.4263313 63.1474182,19.9902408 C62.5846896,20.5541504 61.8557607,20.8361009 60.9606095,20.8361009 C60.0654583,20.8361009 59.335443,20.5530533 58.7705418,19.9869495 C58.2056405,19.4208458 57.9231941,18.703353 57.9231941,17.8344495 C57.9231941,16.9523809 58.2078132,16.2184318 58.7770598,15.6325803 C59.3463065,15.0467287 60.0741491,14.7538073 60.9606095,14.7538073 C61.8514153,14.7538073 62.5792579,15.0456316 63.1441591,15.629289 C63.7090604,16.2129463 63.9915068,16.9479925 63.9915068,17.8344495 Z M62.681377,17.8212844 C62.681377,17.018207 62.5282041,16.376413 62.2218538,15.895883 C61.9155035,15.4153531 61.495093,15.1750917 60.9606095,15.1750917 C60.4304714,15.1750917 60.0111471,15.4164502 59.7026242,15.8991743 C59.3941012,16.3818984 59.239842,17.0225954 59.239842,17.8212844 C59.239842,18.615585 59.3919285,19.2464082 59.6961061,19.7137729 C60.0002837,20.1811377 60.4217806,20.4148165 60.9606095,20.4148165 C61.4994384,20.4148165 61.9209353,20.1833318 62.2251129,19.7203555 C62.5292905,19.2573792 62.681377,18.6243618 62.681377,17.8212844 Z M71.0701185,17.8344495 C71.0701185,18.6989646 70.7811541,19.4153603 70.2032167,19.9836583 C69.6252793,20.5519562 68.8865733,20.8361009 67.9870767,20.8361009 C67.4699748,20.8361009 67.0267513,20.7351692 66.6573928,20.5333028 L66.6573928,22.5607339 C66.6573928,22.9864089 66.7117094,23.2672623 66.8203442,23.4033028 C66.9289791,23.5393432 67.1701449,23.6314982 67.5438488,23.6797706 C67.6133751,23.6797706 67.6481377,23.7412073 67.6481377,23.8640826 C67.6481377,23.9869578 67.6133751,24.0483945 67.5438488,24.0483945 C67.3656876,24.0483945 67.1353852,24.0352295 66.8529345,24.0088991 C66.5487569,23.9825687 66.2923825,23.9694037 66.0838036,23.9694037 C65.8665339,23.9694037 65.6036415,23.9825687 65.2951185,24.0088991 C65.0170133,24.0352295 64.7888835,24.0483945 64.6107223,24.0483945 C64.541196,24.0483945 64.5064334,23.9869578 64.5064334,23.8640826 C64.5064334,23.7412073 64.541196,23.6797706 64.6107223,23.6797706 C64.9800809,23.6314982 65.2201603,23.5393432 65.3309678,23.4033028 C65.4417754,23.2672623 65.4971783,22.9864089 65.4971783,22.5607339 L65.4971783,16.728578 C65.4971783,16.3775059 65.4526387,16.1471183 65.3635581,16.0374083 C65.2744775,15.9276982 65.0756787,15.8552907 64.7671558,15.8201835 C64.6976294,15.8201835 64.6628668,15.7631351 64.6628668,15.6490367 C64.6628668,15.5437151 64.6976294,15.491055 64.7671558,15.491055 C65.188659,15.3857334 65.541717,15.2650542 65.8263403,15.1290138 C66.1109636,14.9929733 66.2988991,14.8766824 66.3901524,14.7801376 C66.4379517,14.7274768 66.4835777,14.7011468 66.5270316,14.7011468 C66.6487026,14.7011468 66.7095372,14.7362535 66.7095372,14.8064679 L66.6573928,15.6358716 C66.8963895,15.3857327 67.1723178,15.1761897 67.4851862,15.0072362 C67.7980546,14.8382828 68.0652923,14.7538073 68.2869074,14.7538073 C69.1429501,14.7538073 69.8208214,15.0357579 70.3205418,15.5996674 C70.8202621,16.163577 71.0701185,16.9084969 71.0701185,17.8344495 Z M69.7599887,17.8212844 C69.7599887,17.0884214 69.6024705,16.5168407 69.2874295,16.1065252 C68.9723884,15.6962097 68.5302512,15.491055 67.9610045,15.491055 C67.7220078,15.491055 67.5058277,15.5415209 67.3124577,15.6424541 C67.1190876,15.7433874 66.9007349,15.9298916 66.6573928,16.2019725 L66.6573928,19.4274312 C66.6573928,19.7082889 66.7812347,19.9430648 67.0289221,20.1317661 C67.2766096,20.3204673 67.57861,20.4148165 67.9349323,20.4148165 C68.5259059,20.4148165 68.9778201,20.1899143 69.2906885,19.7401032 C69.6035569,19.2902921 69.7599887,18.6506922 69.7599887,17.8212844 Z M74.9222912,20.4411468 C74.9222912,20.564022 74.8875286,20.6254587 74.8180023,20.6254587 C74.6398411,20.6254587 74.4117113,20.6144879 74.1336061,20.5925459 C73.8207377,20.5706039 73.5578453,20.559633 73.344921,20.559633 C73.1363421,20.559633 72.877795,20.5706039 72.569272,20.5925459 C72.2911668,20.6144879 72.063037,20.6254587 71.8848758,20.6254587 C71.8153495,20.6254587 71.7805869,20.564022 71.7805869,20.4411468 C71.7805869,20.3314368 71.8153495,20.2721942 71.8848758,20.2634174 C72.2542344,20.2195334 72.4943138,20.1306696 72.6051213,19.9968234 C72.7159289,19.8629772 72.7713318,19.5810266 72.7713318,19.1509633 L72.7713318,13.0357569 C72.7713318,12.6802964 72.7278785,12.4477146 72.6409707,12.3380046 C72.5540628,12.2282946 72.3541776,12.155887 72.0413093,12.1207798 C71.9717829,12.112003 71.9370203,12.0571488 71.9370203,11.9562156 C71.9370203,11.850894 71.9717829,11.7982339 72.0413093,11.7982339 C72.4975756,11.6797471 72.8712739,11.5535825 73.1624153,11.4197362 C73.4535568,11.28589 73.6360606,11.1728904 73.7099323,11.0807339 C73.7533862,11.0324615 73.8011848,11.0083257 73.8533296,11.0083257 C73.9750006,11.0083257 74.0358352,11.0434324 74.0358352,11.1136468 C73.9663089,12.0966486 73.9315463,12.860219 73.9315463,13.4043807 L73.9315463,19.1509633 C73.9315463,19.5810266 73.9858629,19.8629772 74.0944977,19.9968234 C74.2031326,20.1306696 74.4442984,20.2195334 74.8180023,20.2634174 C74.8875286,20.2721942 74.9222912,20.3314368 74.9222912,20.4411468 Z M80.5930023,16.8997248 C80.5930023,17.0226 80.5147863,17.0840367 80.3583521,17.0840367 L76.786456,17.0840367 C76.7603836,17.3210104 76.7473476,17.5667571 76.7473476,17.8212844 C76.7473476,18.527817 76.9135565,19.0708735 77.2459791,19.4504702 C77.5784018,19.8300669 78.0509563,20.0198624 78.6636569,20.0198624 C78.9721799,20.0198624 79.2828709,19.936484 79.5957393,19.7697248 C79.9086077,19.6029655 80.1606367,19.3901313 80.3518341,19.1312156 L80.3844244,19.1180505 C80.4235329,19.1180505 80.4615546,19.1421863 80.4984904,19.1904587 C80.5354263,19.2387311 80.5538939,19.2957795 80.5538939,19.3616055 C80.5538939,19.4537619 80.4148434,19.6457516 80.1367381,19.9375803 C79.8586329,20.229409 79.5566326,20.452117 79.230728,20.605711 C78.9048234,20.759305 78.5637151,20.8361009 78.2073928,20.8361009 C77.4252218,20.8361009 76.7669045,20.5464708 76.232421,19.9672018 C75.6979375,19.3879329 75.4306998,18.6770226 75.4306998,17.8344495 C75.4306998,16.9743229 75.6925058,16.2458593 76.2161258,15.6490367 C76.7397458,15.0522141 77.4034949,14.7538073 78.2073928,14.7538073 C78.8809289,14.7538073 79.446908,14.9765154 79.9053471,15.4219381 C80.3637862,15.8673608 80.5930023,16.3599514 80.5930023,16.8997248 Z M79.4067156,16.3204587 C79.4067156,15.9913286 79.2948234,15.7181548 79.0710356,15.5009289 C78.8472478,15.283703 78.5593697,15.1750917 78.2073928,15.1750917 C77.8727974,15.1750917 77.5827467,15.3166156 77.3372319,15.5996674 C77.0917172,15.8827193 76.9255083,16.2546307 76.8386005,16.7154128 L78.6506208,16.6627523 C78.9243806,16.6583639 79.1188341,16.6320339 79.233987,16.5837615 C79.34914,16.5354891 79.4067156,16.4477223 79.4067156,16.3204587 Z M90.8589447,17.8344495 C90.8589447,18.7077414 90.5775846,19.4263313 90.0148561,19.9902408 C89.4521275,20.5541504 88.7231986,20.8361009 87.8280474,20.8361009 C86.9328962,20.8361009 86.2028809,20.5530533 85.6379797,19.9869495 C85.0730784,19.4208458 84.7906321,18.703353 84.7906321,17.8344495 C84.7906321,16.9523809 85.0752511,16.2184318 85.6444977,15.6325803 C86.2137444,15.0467287 86.941587,14.7538073 87.8280474,14.7538073 C88.7188532,14.7538073 89.4466958,15.0456316 90.0115971,15.629289 C90.5764983,16.2129463 90.8589447,16.9479925 90.8589447,17.8344495 Z M89.5488149,17.8212844 C89.5488149,17.018207 89.3956421,16.376413 89.0892918,15.895883 C88.7829415,15.4153531 88.3625309,15.1750917 87.8280474,15.1750917 C87.2979093,15.1750917 86.8785851,15.4164502 86.5700621,15.8991743 C86.2615391,16.3818984 86.1072799,17.0225954 86.1072799,17.8212844 C86.1072799,18.615585 86.2593664,19.2464082 86.563544,19.7137729 C86.8677216,20.1811377 87.2892185,20.4148165 87.8280474,20.4148165 C88.3668763,20.4148165 88.7883732,20.1833318 89.0925508,19.7203555 C89.3967284,19.2573792 89.5488149,18.6243618 89.5488149,17.8212844 Z M96.9468115,11.6929128 C96.9468115,11.8728373 96.8794589,12.0143611 96.7447517,12.1174885 C96.6100445,12.220616 96.425368,12.2721789 96.1907167,12.2721789 C95.9821378,12.2721789 95.7713893,12.1909947 95.558465,12.0286239 C95.3803038,11.8925834 95.2216993,11.8245642 95.0826467,11.8245642 C94.7871599,11.8245642 94.5351308,11.9902239 94.3265519,12.3215482 C94.117973,12.6528725 94.0136851,13.1015797 94.0136851,13.6676835 L94.0136851,15.201422 L95.4737302,15.201422 C95.5780197,15.201422 95.6301637,15.3199071 95.6301637,15.5568807 C95.6301637,15.7938544 95.5780197,15.9123394 95.4737302,15.9123394 L94.000649,15.8596789 L94.000649,19.1641284 C94.000649,19.5941918 94.0527929,19.8750452 94.1570824,20.0066972 C94.2613719,20.1383493 94.5003649,20.2283102 94.8740688,20.2765826 C94.9435952,20.2853594 94.9783578,20.3446019 94.9783578,20.4543119 C94.9783578,20.5771872 94.9435952,20.6386239 94.8740688,20.6386239 C94.6959077,20.6386239 94.4699506,20.6254588 94.1961907,20.5991284 C93.8876678,20.572798 93.626948,20.559633 93.4140237,20.559633 C93.196754,20.559633 92.9360343,20.572798 92.6318567,20.5991284 C92.3580968,20.6254588 92.1321397,20.6386239 91.9539786,20.6386239 C91.8844522,20.6386239 91.8496896,20.5771872 91.8496896,20.4543119 C91.8496896,20.3446019 91.8844522,20.2853594 91.9539786,20.2765826 C92.3233371,20.2283102 92.5612438,20.1383493 92.667706,20.0066972 C92.7741681,19.8750452 92.8273984,19.5941918 92.8273984,19.1641284 L92.8273984,16.0176606 C92.8273984,15.8947853 92.7752545,15.8333486 92.670965,15.8333486 L92.006123,15.8333486 C91.9192151,15.8333486 91.8757619,15.7763003 91.8757619,15.6622018 C91.8757619,15.5481034 91.9148698,15.4822784 91.9930869,15.4647248 C92.5492974,15.3374611 92.8273984,15.2145877 92.8273984,15.0961009 C92.8273984,14.0341078 93.1478664,13.0982953 93.7888121,12.2886353 C94.4297577,11.4789753 95.16955,11.0741514 96.0082111,11.0741514 C96.2993525,11.0741514 96.5285686,11.1290056 96.6958663,11.2387156 C96.8631639,11.3484256 96.9468115,11.4998232 96.9468115,11.6929128 Z M103.445316,15.3988991 C103.445316,15.6358727 103.388827,15.7543578 103.275847,15.7543578 L101.333465,15.7016972 L101.333465,18.8613303 C101.333465,19.6863497 101.624602,20.0988532 102.206885,20.0988532 C102.567553,20.0988532 102.895625,20.0132807 103.191112,19.842133 C103.225875,19.842133 103.257379,19.8651718 103.285624,19.91125 C103.313869,19.9573282 103.327991,20.006697 103.327991,20.0593578 C103.327991,20.1690678 103.166127,20.3171741 102.842396,20.5036812 C102.518664,20.6901882 102.154742,20.7834404 101.750621,20.7834404 C101.255246,20.7834404 100.859821,20.6309457 100.564334,20.3259518 C100.268847,20.020958 100.121106,19.6183282 100.121106,19.1180505 L100.121106,19.0588073 L100.147178,15.8596789 C100.147178,15.7368037 100.095034,15.675367 99.9907449,15.675367 L99.4953725,15.675367 C99.3997738,15.675367 99.3519752,15.6183186 99.3519752,15.5042202 C99.3519752,15.4164522 99.3910831,15.3506271 99.4693002,15.3067431 C100.07331,14.9468942 100.599095,14.4400415 101.04667,13.7861697 C101.09447,13.7159553 101.155304,13.6808486 101.229176,13.6808486 C101.350847,13.6808486 101.411682,13.7159553 101.411682,13.7861697 L101.359537,15.0434404 L103.275847,15.0434404 C103.388827,15.0434404 103.445316,15.1619254 103.445316,15.3988991 Z M110.921529,20.4543119 C110.921529,20.5771872 110.886767,20.6386239 110.81724,20.6386239 C110.643425,20.6386239 110.428331,20.6254588 110.171953,20.5991284 C109.893847,20.572798 109.650509,20.559633 109.44193,20.559633 C109.22466,20.559633 108.974804,20.572798 108.692353,20.5991284 C108.435975,20.6254588 108.220881,20.6386239 108.047065,20.6386239 C107.977539,20.6386239 107.942777,20.5771872 107.942777,20.4543119 C107.942777,20.3446019 107.977539,20.2853594 108.047065,20.2765826 C108.346898,20.2414754 108.543524,20.1559028 108.63695,20.0198624 C108.730376,19.8838219 108.777088,19.5985802 108.777088,19.1641284 L108.777088,16.9655505 C108.777088,16.0176558 108.351246,15.5437156 107.499549,15.5437156 C106.96072,15.5437156 106.495769,15.7631324 106.104684,16.2019725 L106.104684,19.1641284 C106.104684,19.5590845 106.161173,19.8333555 106.274153,19.9869495 C106.387134,20.1405436 106.608746,20.237087 106.938995,20.2765826 C107.008522,20.2853594 107.043284,20.3446019 107.043284,20.4543119 C107.043284,20.5771872 107.008522,20.6386239 106.938995,20.6386239 C106.760834,20.6386239 106.528359,20.6254588 106.241563,20.5991284 C105.920004,20.572798 105.652766,20.559633 105.439842,20.559633 C105.222572,20.559633 104.974889,20.572798 104.696783,20.5991284 C104.449096,20.6254588 104.236175,20.6386239 104.058014,20.6386239 C103.988487,20.6386239 103.953725,20.5771872 103.953725,20.4543119 C103.953725,20.3446019 103.988487,20.2853594 104.058014,20.2765826 C104.423027,20.237087 104.659847,20.1504173 104.768482,20.0165711 C104.877117,19.8827249 104.931433,19.5985802 104.931433,19.1641284 L104.931433,13.048922 C104.931433,12.6934615 104.889066,12.4608798 104.804331,12.3511697 C104.719596,12.2414597 104.52297,12.1690522 104.214447,12.133945 C104.144921,12.1251682 104.110158,12.070314 104.110158,11.9693807 C104.110158,11.8552823 104.144921,11.7982339 104.214447,11.7982339 C104.957509,11.6226979 105.507193,11.3901161 105.863516,11.1004817 C105.928697,11.0478208 105.983013,11.0214908 106.026467,11.0214908 C106.148138,11.0214908 106.208973,11.0565975 106.208973,11.1268119 C106.139447,11.8465097 106.104684,12.6100801 106.104684,13.4175459 L106.104684,15.6490367 C106.726075,15.0522141 107.338767,14.7538073 107.942777,14.7538073 C108.559822,14.7538073 109.045413,14.9249524 109.399563,15.2672477 C109.753712,15.609543 109.930784,16.0703182 109.930784,16.6495872 L109.930784,19.1641284 C109.930784,19.5941918 109.986187,19.8761423 110.096995,20.0099885 C110.207802,20.1438348 110.447882,20.2326986 110.81724,20.2765826 C110.886767,20.2853594 110.921529,20.3446019 110.921529,20.4543119 Z M116.598758,16.8997248 C116.598758,17.0226 116.520543,17.0840367 116.364108,17.0840367 L112.792212,17.0840367 C112.76614,17.3210104 112.753104,17.5667571 112.753104,17.8212844 C112.753104,18.527817 112.919313,19.0708735 113.251735,19.4504702 C113.584158,19.8300669 114.056713,20.0198624 114.669413,20.0198624 C114.977936,20.0198624 115.288627,19.936484 115.601495,19.7697248 C115.914364,19.6029655 116.166393,19.3901313 116.35759,19.1312156 L116.390181,19.1180505 C116.429289,19.1180505 116.467311,19.1421863 116.504247,19.1904587 C116.541182,19.2387311 116.55965,19.2957795 116.55965,19.3616055 C116.55965,19.4537619 116.4206,19.6457516 116.142494,19.9375803 C115.864389,20.229409 115.562389,20.452117 115.236484,20.605711 C114.91058,20.759305 114.569471,20.8361009 114.213149,20.8361009 C113.430978,20.8361009 112.772661,20.5464708 112.238177,19.9672018 C111.703694,19.3879329 111.436456,18.6770226 111.436456,17.8344495 C111.436456,16.9743229 111.698262,16.2458593 112.221882,15.6490367 C112.745502,15.0522141 113.409251,14.7538073 114.213149,14.7538073 C114.886685,14.7538073 115.452664,14.9765154 115.911103,15.4219381 C116.369542,15.8673608 116.598758,16.3599514 116.598758,16.8997248 Z M115.412472,16.3204587 C115.412472,15.9913286 115.30058,15.7181548 115.076792,15.5009289 C114.853004,15.283703 114.565126,15.1750917 114.213149,15.1750917 C113.878554,15.1750917 113.588503,15.3166156 113.342988,15.5996674 C113.097473,15.8827193 112.931265,16.2546307 112.844357,16.7154128 L114.656377,16.6627523 C114.930137,16.6583639 115.12459,16.6320339 115.239743,16.5837615 C115.354896,16.5354891 115.412472,16.4477223 115.412472,16.3204587 Z M54.1231659,33.6194495 C54.1231659,33.7423248 54.0884033,33.8037615 54.018877,33.8037615 C53.7233902,33.8037615 53.3735912,33.7905965 52.9694695,33.7642661 C52.5870748,33.7379356 52.2633478,33.7247706 51.9982788,33.7247706 C51.7332097,33.7247706 51.426864,33.7379356 51.0792325,33.7642661 C50.7142194,33.7905965 50.3861471,33.8037615 50.0950056,33.8037615 C50.0254793,33.8037615 49.9907167,33.7423248 49.9907167,33.6194495 C49.9907167,33.5097395 50.027652,33.450497 50.1015237,33.4417202 C50.4665368,33.3978362 50.7381199,33.3374966 50.916281,33.2606995 C51.0944422,33.1839025 51.2085071,33.0829708 51.2584791,32.9579014 C51.3084512,32.8328319 51.3334368,32.6232889 51.3334368,32.3292661 L51.3334368,29.3934404 L46.360158,29.3934404 L46.360158,32.3292661 C46.360158,32.6232889 46.3851437,32.8328319 46.4351157,32.9579014 C46.4850877,33.0829708 46.5991526,33.1839025 46.7773138,33.2606995 C46.9554749,33.3374966 47.2292307,33.3978362 47.5985892,33.4417202 C47.6681155,33.450497 47.7028781,33.5097395 47.7028781,33.6194495 C47.7028781,33.7423248 47.6681155,33.8037615 47.5985892,33.8037615 C47.3074478,33.8037615 46.9793754,33.7905965 46.6143623,33.7642661 C46.2667308,33.7379356 45.9603851,33.7247706 45.695316,33.7247706 C45.430247,33.7247706 45.1043473,33.7379356 44.7176072,33.7642661 C44.3134856,33.7905965 43.9658592,33.8037615 43.6747178,33.8037615 C43.6051915,33.8037615 43.5704289,33.7423248 43.5704289,33.6194495 C43.5704289,33.5097395 43.6051915,33.450497 43.6747178,33.4417202 C44.2005105,33.3802826 44.5579138,33.281545 44.7469385,33.1455046 C44.9359631,33.0094642 45.030474,32.7373874 45.030474,32.3292661 L45.030474,26.1350688 C45.030474,25.8278807 44.9924524,25.6117552 44.916408,25.4866858 C44.8403636,25.3616163 44.7067447,25.2628788 44.5155474,25.1904702 C44.3243501,25.1180616 44.0440763,25.0599161 43.6747178,25.0160321 C43.6051915,25.0160321 43.5704289,24.9545954 43.5704289,24.8317202 C43.5704289,24.708845 43.6051915,24.6474083 43.6747178,24.6474083 C43.9658592,24.6474083 44.3134856,24.6605733 44.7176072,24.6869037 C45.1043473,24.7132341 45.430247,24.7263991 45.695316,24.7263991 C45.9603851,24.7263991 46.2667308,24.7132341 46.6143623,24.6869037 C46.9793754,24.6605733 47.3074478,24.6474083 47.5985892,24.6474083 C47.6681155,24.6474083 47.7028781,24.708845 47.7028781,24.8317202 C47.7028781,24.9545954 47.6681155,25.0160321 47.5985892,25.0160321 C47.2596484,25.0555277 47.003274,25.1081877 46.8294582,25.1740138 C46.6556425,25.2398398 46.5339733,25.3287036 46.464447,25.4406078 C46.3949206,25.552512 46.360158,25.7839967 46.360158,26.1350688 L46.360158,28.972156 L51.3334368,28.972156 L51.3334368,26.1350688 C51.3334368,25.8410459 51.3084512,25.6304058 51.2584791,25.5031422 C51.2085071,25.3758786 51.0955285,25.2738498 50.9195401,25.1970528 C50.7435516,25.1202557 50.4687095,25.0599161 50.0950056,25.0160321 C50.0254793,25.0160321 49.9907167,24.9545954 49.9907167,24.8317202 C49.9907167,24.708845 50.0254793,24.6474083 50.0950056,24.6474083 C50.3861471,24.6474083 50.7142194,24.6605733 51.0792325,24.6869037 C51.426864,24.7132341 51.7332097,24.7263991 51.9982788,24.7263991 C52.2633478,24.7263991 52.5870748,24.7132341 52.9694695,24.6869037 C53.3735912,24.6605733 53.7233902,24.6474083 54.018877,24.6474083 C54.0884033,24.6474083 54.1231659,24.708845 54.1231659,24.8317202 C54.1231659,24.9545954 54.0884033,25.0160321 54.018877,25.0160321 C53.6495185,25.0599161 53.3692447,25.1180616 53.1780474,25.1904702 C52.9868501,25.2628788 52.8532312,25.3616163 52.7771868,25.4866858 C52.7011424,25.6117552 52.6631208,25.8278807 52.6631208,26.1350688 L52.6631208,32.3292661 C52.6631208,32.7373874 52.7576317,33.0094642 52.9466563,33.1455046 C53.135681,33.281545 53.4930843,33.3802826 54.018877,33.4417202 C54.0884033,33.450497 54.1231659,33.5097395 54.1231659,33.6194495 Z M57.0497743,25.6611239 C57.0497743,25.8454367 56.983508,26.0056109 56.8509735,26.1416514 C56.718439,26.2776918 56.5587481,26.345711 56.3718962,26.345711 C56.1850442,26.345711 56.0253534,26.2776918 55.8928188,26.1416514 C55.7602843,26.0056109 55.6940181,25.8454367 55.6940181,25.6611239 C55.6940181,25.4680342 55.759198,25.3056658 55.8895598,25.1740138 C56.0199216,25.0423617 56.1806988,24.9765367 56.3718962,24.9765367 C56.5587481,24.9765367 56.718439,25.0423617 56.8509735,25.1740138 C56.983508,25.3056658 57.0497743,25.4680342 57.0497743,25.6611239 Z M57.9623025,33.6194495 C57.9623025,33.7423248 57.9275399,33.8037615 57.8580135,33.8037615 C57.6798524,33.8037615 57.4517226,33.7905965 57.1736174,33.7642661 C56.860749,33.7379356 56.5978566,33.7247706 56.3849323,33.7247706 C56.1676626,33.7247706 55.9069428,33.7379356 55.6027652,33.7642661 C55.3290054,33.7905965 55.1030483,33.8037615 54.9248871,33.8037615 C54.8553608,33.8037615 54.8205982,33.7423248 54.8205982,33.6194495 C54.8205982,33.5097395 54.8553608,33.450497 54.9248871,33.4417202 C55.2942456,33.3934478 55.5321524,33.3034869 55.6386146,33.1718349 C55.7450767,33.0401828 55.798307,32.7593294 55.798307,32.3292661 L55.798307,29.8937156 C55.798307,29.5426435 55.7537674,29.3122559 55.6646868,29.2025459 C55.5756062,29.0928358 55.3811527,29.0204283 55.0813205,28.9853211 C55.0117942,28.9853211 54.9770316,28.9282727 54.9770316,28.8141743 C54.9770316,28.7088527 55.0117942,28.6561927 55.0813205,28.6561927 C55.5375869,28.5377058 55.9112852,28.4115412 56.2024266,28.277695 C56.493568,28.1438487 56.6760719,28.0330433 56.7499436,27.9452752 C56.7933975,27.8926144 56.8411961,27.8662844 56.8933409,27.8662844 C57.0150119,27.8662844 57.0758465,27.9013911 57.0758465,27.9716055 C57.0063202,28.9546074 56.9715576,29.7181777 56.9715576,30.2623394 L56.9715576,32.3292661 C56.9715576,32.7593294 57.0247878,33.0401828 57.13125,33.1718349 C57.2377122,33.3034869 57.4799642,33.3934478 57.8580135,33.4417202 C57.9275399,33.450497 57.9623025,33.5097395 57.9623025,33.6194495 Z M62.7074492,32.1054587 C62.7074492,32.6408437 62.4988734,33.090648 62.0817156,33.4548853 C61.6645577,33.8191226 61.1604996,34.0012385 60.569526,34.0012385 C60.360947,34.0012385 60.0393927,33.955161 59.6048533,33.8630046 C59.2789487,33.7971786 59.0573369,33.7642661 58.9400113,33.7642661 C58.9052481,33.457078 58.8248595,32.9897203 58.6988431,32.3621789 C58.6988431,32.2963529 58.7618504,32.2634404 58.8878668,32.2634404 C58.9921563,32.2634404 59.0551635,32.298547 59.0768905,32.3687615 C59.1768346,32.6935032 59.3745471,32.9765508 59.6700339,33.2179128 C59.9655207,33.4592749 60.2696937,33.5799541 60.5825621,33.5799541 C60.9084666,33.5799541 61.1615821,33.4899933 61.3419159,33.3100688 C61.5222498,33.1301444 61.6124153,32.8778151 61.6124153,32.5530734 C61.6124153,32.3468185 61.5374584,32.1647026 61.3875423,32.0067202 C61.2376262,31.8487377 60.9128129,31.6534568 60.4130926,31.4208716 C59.756938,31.1180719 59.3234915,30.8328301 59.1127398,30.5651376 C58.9019882,30.2974451 58.796614,29.9770967 58.796614,29.6040826 C58.796614,29.1433004 58.9943265,28.7472532 59.3897573,28.4159289 C59.7851882,28.0846046 60.2523111,27.918945 60.79114,27.918945 C61.0171005,27.918945 61.3343095,27.95844 61.7427765,28.0374312 C61.968737,28.0813152 62.1164782,28.1032569 62.1860045,28.1032569 C62.1990407,28.6210882 62.2272853,29.0621159 62.2707393,29.4263532 C62.2707393,29.4921792 62.207732,29.5250917 62.0817156,29.5250917 C61.9730807,29.5250917 61.9122461,29.4899851 61.8992099,29.4197706 C61.8514106,29.0994174 61.731914,28.8394085 61.5407167,28.6397362 C61.3495194,28.440064 61.1213896,28.3402294 60.8563205,28.3402294 C60.178439,28.3402294 59.8395034,28.6386362 59.8395034,29.2354587 C59.8395034,29.4373252 59.919892,29.6238294 60.0806716,29.7949771 C60.2414511,29.9661247 60.5912501,30.1877356 61.130079,30.4598165 C61.7731973,30.7845582 62.1968669,31.0654117 62.4011005,31.3023853 C62.605334,31.539359 62.7074492,31.8070474 62.7074492,32.1054587 Z M67.6220655,28.5640367 C67.6220655,28.8010104 67.5655762,28.9194954 67.4525959,28.9194954 L65.5102144,28.8668349 L65.5102144,32.0264679 C65.5102144,32.8514873 65.8013515,33.2639908 66.3836343,33.2639908 C66.744302,33.2639908 67.0723744,33.1784183 67.3678612,33.0072706 C67.4026243,33.0072706 67.434128,33.0303094 67.462373,33.0763876 C67.4906181,33.1224658 67.5047404,33.1718346 67.5047404,33.2244954 C67.5047404,33.3342054 67.3428769,33.4823118 67.019145,33.6688188 C66.6954132,33.8553259 66.3314919,33.948578 65.9273702,33.948578 C65.4319953,33.948578 65.0365703,33.7960833 64.7410835,33.4910894 C64.4455967,33.1860956 64.2978555,32.7834658 64.2978555,32.2831881 L64.2978555,32.223945 L64.3239278,29.0248165 C64.3239278,28.9019413 64.2717838,28.8405046 64.1674944,28.8405046 L63.6721219,28.8405046 C63.5765232,28.8405046 63.5287246,28.7834562 63.5287246,28.6693578 C63.5287246,28.5815898 63.5678326,28.5157647 63.6460497,28.4718807 C64.2500595,28.1120318 64.7758443,27.6051791 65.2234199,26.9513073 C65.2712192,26.8810929 65.3320538,26.8459862 65.4059255,26.8459862 C65.5275965,26.8459862 65.5884312,26.8810929 65.5884312,26.9513073 L65.5362867,28.208578 L67.4525959,28.208578 C67.5655762,28.208578 67.6220655,28.327063 67.6220655,28.5640367 Z M74.459509,30.9995872 C74.459509,31.872879 74.178149,32.5914689 73.6154204,33.1553784 C73.0526919,33.719288 72.3237629,34.0012385 71.4286117,34.0012385 C70.5334605,34.0012385 69.8034453,33.7181909 69.238544,33.1520872 C68.6736428,32.5859834 68.3911964,31.8684906 68.3911964,30.9995872 C68.3911964,30.1175185 68.6758154,29.3835694 69.2450621,28.7977179 C69.8143087,28.2118663 70.5421513,27.918945 71.4286117,27.918945 C72.3194175,27.918945 73.0472602,28.2107693 73.6121614,28.7944266 C74.1770626,29.378084 74.459509,30.1131301 74.459509,30.9995872 Z M73.1493792,30.986422 C73.1493792,30.1833446 72.9962064,29.5415506 72.6898561,29.0610206 C72.3835058,28.5804907 71.9630952,28.3402294 71.4286117,28.3402294 C70.8984736,28.3402294 70.4791494,28.5815878 70.1706264,29.0643119 C69.8621034,29.5470361 69.7078442,30.187733 69.7078442,30.986422 C69.7078442,31.7807226 69.8599308,32.4115458 70.1641084,32.8789106 C70.4682859,33.3462753 70.8897829,33.5799541 71.4286117,33.5799541 C71.9674406,33.5799541 72.3889375,33.3484694 72.6931151,32.8854931 C72.9972927,32.4225168 73.1493792,31.7894994 73.1493792,30.986422 Z M79.7717269,28.5772018 C79.7717269,28.7527379 79.7184966,28.9019413 79.6120344,29.0248165 C79.5055723,29.1476917 79.3762987,29.2091284 79.2242099,29.2091284 C79.0330126,29.2091284 78.8439908,29.1454976 78.6571388,29.0182339 C78.5093954,28.9173007 78.3812082,28.8668349 78.2725734,28.8668349 C77.9901227,28.8668349 77.6989857,29.0335916 77.3991535,29.3671101 L77.3991535,32.3292661 C77.3991535,32.711057 77.4643334,32.9776483 77.5946953,33.1290482 C77.7250571,33.280448 78.0031581,33.384671 78.4290068,33.4417202 C78.4985331,33.450497 78.5332957,33.5097395 78.5332957,33.6194495 C78.5332957,33.7423248 78.4985331,33.8037615 78.4290068,33.8037615 C78.2508456,33.8037615 77.9988165,33.7905965 77.672912,33.7642661 C77.3122442,33.7379356 77.0254525,33.7247706 76.8125282,33.7247706 C76.5952585,33.7247706 76.3323661,33.7379356 76.0238431,33.7642661 C75.7457379,33.7905965 75.5176081,33.8037615 75.339447,33.8037615 C75.2699206,33.8037615 75.235158,33.7423248 75.235158,33.6194495 C75.235158,33.5097395 75.2699206,33.450497 75.339447,33.4417202 C75.7174962,33.3934478 75.9597483,33.3034869 76.0662105,33.1718349 C76.1726727,33.0401828 76.2259029,32.7593294 76.2259029,32.3292661 L76.2259029,29.8937156 C76.2259029,29.5426435 76.1813633,29.3122559 76.0922827,29.2025459 C76.0032022,29.0928358 75.8044033,29.0204283 75.4958804,28.9853211 C75.4263541,28.9853211 75.3915914,28.9282727 75.3915914,28.8141743 C75.3915914,28.7088527 75.4263541,28.6561927 75.4958804,28.6561927 C75.9260744,28.5464826 76.281305,28.4247063 76.561583,28.2908601 C76.8418609,28.1570139 77.025451,28.0418201 77.1123589,27.9452752 C77.1645036,27.8926144 77.2166476,27.8662844 77.2687923,27.8662844 C77.3904634,27.8662844 77.451298,27.9013911 77.451298,27.9716055 L77.3991535,28.8010092 C77.746785,28.4762675 78.0455264,28.2480741 78.2953866,28.116422 C78.5452467,27.98477 78.7940168,27.918945 79.0417043,27.918945 C79.2415924,27.918945 79.4132329,27.98477 79.5566309,28.116422 C79.7000289,28.2480741 79.7717269,28.4016658 79.7717269,28.5772018 Z M82.3268059,25.6611239 C82.3268059,25.8454367 82.2605396,26.0056109 82.1280051,26.1416514 C81.9954706,26.2776918 81.8357797,26.345711 81.6489278,26.345711 C81.4620758,26.345711 81.302385,26.2776918 81.1698505,26.1416514 C81.0373159,26.0056109 80.9710497,25.8454367 80.9710497,25.6611239 C80.9710497,25.4680342 81.0362296,25.3056658 81.1665914,25.1740138 C81.2969532,25.0423617 81.4577304,24.9765367 81.6489278,24.9765367 C81.8357797,24.9765367 81.9954706,25.0423617 82.1280051,25.1740138 C82.2605396,25.3056658 82.3268059,25.4680342 82.3268059,25.6611239 Z M83.2393341,33.6194495 C83.2393341,33.7423248 83.2045715,33.8037615 83.1350451,33.8037615 C82.956884,33.8037615 82.7287542,33.7905965 82.450649,33.7642661 C82.1377806,33.7379356 81.8748882,33.7247706 81.6619639,33.7247706 C81.4446942,33.7247706 81.1839744,33.7379356 80.8797968,33.7642661 C80.606037,33.7905965 80.3800799,33.8037615 80.2019187,33.8037615 C80.1323924,33.8037615 80.0976298,33.7423248 80.0976298,33.6194495 C80.0976298,33.5097395 80.1323924,33.450497 80.2019187,33.4417202 C80.5712772,33.3934478 80.809184,33.3034869 80.9156462,33.1718349 C81.0221083,33.0401828 81.0753386,32.7593294 81.0753386,32.3292661 L81.0753386,29.8937156 C81.0753386,29.5426435 81.030799,29.3122559 80.9417184,29.2025459 C80.8526378,29.0928358 80.6581843,29.0204283 80.3583521,28.9853211 C80.2888258,28.9853211 80.2540632,28.9282727 80.2540632,28.8141743 C80.2540632,28.7088527 80.2888258,28.6561927 80.3583521,28.6561927 C80.8146185,28.5377058 81.1883168,28.4115412 81.4794582,28.277695 C81.7705996,28.1438487 81.9531035,28.0330433 82.0269752,27.9452752 C82.0704291,27.8926144 82.1182277,27.8662844 82.1703725,27.8662844 C82.2920435,27.8662844 82.3528781,27.9013911 82.3528781,27.9716055 C82.2833518,28.9546074 82.2485892,29.7181777 82.2485892,30.2623394 L82.2485892,32.3292661 C82.2485892,32.7593294 82.3018194,33.0401828 82.4082816,33.1718349 C82.5147438,33.3034869 82.7569959,33.3934478 83.1350451,33.4417202 C83.2045715,33.450497 83.2393341,33.5097395 83.2393341,33.6194495 Z M88.9100451,28.9589908 C88.9100451,29.3188397 88.7318867,29.4987615 88.3755643,29.4987615 C88.2234755,29.4987615 88.0985473,29.465849 88.000776,29.4000229 C87.9030046,29.3341969 87.8041484,29.191576 87.7042043,28.972156 C87.5868786,28.7132403 87.4619504,28.5431923 87.3294159,28.4620069 C87.1968814,28.3808215 87.0241546,28.3402294 86.8112302,28.3402294 C86.2854376,28.3402294 85.884581,28.5607432 85.6086484,29.0017775 C85.3327159,29.4428118 85.1947517,30.0868 85.1947517,30.9337615 C85.1947517,31.6402941 85.3685649,32.2096806 85.7161964,32.6419381 C86.0638279,33.0741956 86.5287781,33.2903211 87.1110609,33.2903211 C87.7715609,33.2903211 88.295173,33.0818752 88.6819131,32.6649771 L88.7145034,32.6518119 C88.7536119,32.6518119 88.7916336,32.6770449 88.8285694,32.7275115 C88.8655053,32.7779781 88.8839729,32.8339294 88.8839729,32.895367 C88.8839729,32.983135 88.756872,33.1345326 88.5026665,33.3495642 C88.2484609,33.5645959 87.9703599,33.7269643 87.668355,33.8366743 C87.3663501,33.9463843 87.0458821,34.0012385 86.7069413,34.0012385 C85.9291157,34.0012385 85.2631941,33.7127055 84.7091563,33.1356307 C84.1551186,32.558556 83.8781038,31.8289952 83.8781038,30.9469266 C83.8781038,30.0736348 84.1681545,29.3506565 84.7482647,28.7779702 C85.3283748,28.2052838 86.0160231,27.918945 86.8112302,27.918945 C87.3978585,27.918945 87.8943123,28.0209738 88.3006067,28.2250344 C88.706901,28.4290951 88.9100451,28.6737448 88.9100451,28.9589908 Z M98.8370485,31.1575688 C98.8370485,32.0308606 98.5806741,32.7253147 98.0679176,33.2409518 C97.5551611,33.756589 96.8620811,34.0144037 95.9886569,34.0144037 C95.6019168,34.0144037 95.1391393,33.9441903 94.6003104,33.8037615 C94.1092808,33.6721094 93.7073379,33.6062844 93.3944695,33.6062844 C93.3683972,32.8602562 93.3162532,32.1142392 93.2380361,31.368211 C93.2380361,31.2979966 93.3032161,31.2628899 93.4335779,31.2628899 C93.5248312,31.2628899 93.5813204,31.2979966 93.6030474,31.368211 C93.8376987,32.1844536 94.1375264,32.7593255 94.5025395,33.092844 C94.8675526,33.4263625 95.3803014,33.5931193 96.0408014,33.5931193 C96.5665941,33.5931193 96.9739686,33.4395275 97.2629374,33.1323394 C97.5519061,32.8251514 97.6963883,32.3950945 97.6963883,31.842156 C97.6963883,31.4866955 97.5703737,31.1564732 97.3183409,30.8514794 C97.066308,30.5464855 96.5296599,30.1526324 95.7083804,29.6699083 C94.7654298,29.1213581 94.1483931,28.6561946 93.8572517,28.2744037 C93.5661103,27.8926128 93.4205418,27.4691384 93.4205418,27.0039679 C93.4205418,26.2886585 93.6823478,25.6841653 94.2059678,25.1904702 C94.7295878,24.6967751 95.3933368,24.4499312 96.1972348,24.4499312 C96.5014124,24.4499312 96.8512113,24.4916204 97.2466422,24.575 C97.6160007,24.6496028 97.9353824,24.6869037 98.2047968,24.6869037 C98.2569416,25.4592623 98.3264668,26.1394542 98.4133747,26.7275 C98.4133747,26.7977144 98.3568854,26.8328211 98.2439052,26.8328211 C98.1222342,26.8328211 98.0548816,26.7977144 98.0418454,26.7275 C97.8984474,26.0692398 97.6811809,25.5952996 97.3900395,25.3056651 C97.0988981,25.0160307 96.6969552,24.8712156 96.1841986,24.8712156 C95.6975145,24.8712156 95.3107802,25.0160307 95.0239842,25.3056651 C94.7371882,25.5952996 94.5937923,25.9858615 94.5937923,26.4773624 C94.5937923,26.7889389 94.7143752,27.0862486 94.9555446,27.3693005 C95.196714,27.6523523 95.7192398,28.0308463 96.5231377,28.5047936 C97.474779,29.0665089 98.0983337,29.5360608 98.3938205,29.9134633 C98.6893073,30.2908658 98.8370485,30.7055635 98.8370485,31.1575688 Z M102.637077,33.6062844 C102.637077,33.7291596 102.602314,33.7905963 102.532788,33.7905963 C102.354627,33.7905963 102.126497,33.7796255 101.848392,33.7576835 C101.535523,33.7357415 101.272631,33.7247706 101.059707,33.7247706 C100.851128,33.7247706 100.592581,33.7357415 100.284058,33.7576835 C100.005952,33.7796255 99.7778226,33.7905963 99.5996614,33.7905963 C99.5301351,33.7905963 99.4953725,33.7291596 99.4953725,33.6062844 C99.4953725,33.4965744 99.5301351,33.4373318 99.5996614,33.428555 C99.9690199,33.384671 100.209099,33.2958072 100.319907,33.161961 C100.430714,33.0281148 100.486117,32.7461642 100.486117,32.3161009 L100.486117,26.2008945 C100.486117,25.845434 100.442664,25.6128522 100.355756,25.5031422 C100.268848,25.3934322 100.068963,25.3210246 99.7560948,25.2859174 C99.6865685,25.2771406 99.6518059,25.2222864 99.6518059,25.1213532 C99.6518059,25.0160316 99.6865685,24.9633716 99.7560948,24.9633716 C100.212361,24.8448847 100.586059,24.7187201 100.877201,24.5848739 C101.168342,24.4510276 101.350846,24.338028 101.424718,24.2458716 C101.468172,24.1975991 101.51597,24.1734633 101.568115,24.1734633 C101.689786,24.1734633 101.750621,24.20857 101.750621,24.2787844 C101.681094,25.2617863 101.646332,26.0253566 101.646332,26.5695183 L101.646332,32.3161009 C101.646332,32.7461642 101.700648,33.0281148 101.809283,33.161961 C101.917918,33.2958072 102.159084,33.384671 102.532788,33.428555 C102.602314,33.4373318 102.637077,33.4965744 102.637077,33.6062844 Z M107.343115,33.948578 C107.099773,33.948578 106.887938,33.8882384 106.707604,33.7675573 C106.527271,33.6468763 106.404515,33.4834108 106.339334,33.277156 C105.874377,33.7598801 105.266031,34.0012385 104.514278,34.0012385 C104.123192,34.0012385 103.80381,33.8794622 103.556123,33.635906 C103.308436,33.3923497 103.184594,33.0884575 103.184594,32.7242202 C103.184594,31.8245979 104.240509,31.0961343 106.35237,30.5388073 L106.391479,29.5119266 L106.391479,29.4790138 C106.391479,29.1630489 106.314349,28.9118167 106.160087,28.7253096 C106.005826,28.5388026 105.800509,28.4455505 105.544131,28.4455505 C105.287753,28.4455505 105.070486,28.5080842 104.892325,28.6331537 C104.714164,28.7582231 104.622912,28.9151061 104.618567,29.1038073 C104.614221,29.384665 104.541437,29.6040818 104.400212,29.7620642 C104.258986,29.9200467 104.071051,29.9990367 103.8364,29.9990367 C103.697347,29.9990367 103.584368,29.9573475 103.49746,29.8739679 C103.410553,29.7905883 103.367099,29.6786857 103.367099,29.5382569 C103.367099,29.20035 103.671272,28.8459919 104.279628,28.475172 C104.887983,28.1043521 105.452875,27.918945 105.974323,27.918945 C106.443625,27.918945 106.823842,28.0593717 107.114983,28.3402294 C107.406124,28.621087 107.551693,28.9984839 107.551693,29.4724312 L107.551693,29.551422 L107.46044,32.5267431 L107.46044,32.5728211 C107.46044,33.0336032 107.608181,33.2639908 107.903668,33.2639908 C108.047066,33.2639908 108.214361,33.1762241 108.405559,33.0006881 L108.451185,32.9875229 C108.485948,32.9875229 108.518538,33.0105617 108.548956,33.0566399 C108.579374,33.1027181 108.594582,33.1520869 108.594582,33.2047477 C108.594582,33.3320113 108.463136,33.4877972 108.20024,33.6721101 C107.937343,33.8564229 107.651638,33.948578 107.343115,33.948578 Z M106.339334,30.986422 C105.070479,31.2760565 104.436061,31.754385 104.436061,32.421422 C104.436061,33.044575 104.675054,33.3561468 105.153047,33.3561468 C105.383353,33.3561468 105.610397,33.2980013 105.834185,33.1817087 C106.057972,33.0654161 106.208973,32.9216981 106.28719,32.7505505 L106.339334,30.986422 Z M114.688967,28.3138991 C114.688967,28.4279975 114.654205,28.4894342 114.584678,28.498211 C114.219665,28.5377066 113.97524,28.6254733 113.851397,28.7615138 C113.727553,28.8975542 113.572207,29.1784077 113.385356,29.6040826 L111.514673,33.9090826 C111.484255,33.979297 111.432111,34.0144037 111.358239,34.0144037 C111.280022,34.0144037 111.225706,33.979297 111.195288,33.9090826 L109.44193,29.6040826 C109.28115,29.2003497 109.118201,28.9238845 108.953076,28.7746789 C108.787951,28.6254733 108.564166,28.5311241 108.281716,28.4916284 C108.212189,28.4828516 108.177427,28.4236091 108.177427,28.3138991 C108.177427,28.1910239 108.212189,28.1295872 108.281716,28.1295872 C108.459877,28.1295872 108.681489,28.1427522 108.946558,28.1690826 C109.233354,28.195413 109.481037,28.208578 109.689616,28.208578 C109.902541,28.208578 110.161088,28.195413 110.465265,28.1690826 C110.73468,28.1427522 110.958464,28.1295872 111.136625,28.1295872 C111.206152,28.1295872 111.240914,28.1910239 111.240914,28.3138991 C111.240914,28.4236091 111.206152,28.4828516 111.136625,28.4916284 C110.875902,28.5267356 110.69557,28.5739103 110.595626,28.6331537 C110.495682,28.6923971 110.445711,28.7790667 110.445711,28.8931651 C110.445711,29.0292056 110.510891,29.2639815 110.641253,29.5975 L111.710214,32.3950917 L112.792212,29.6040826 C112.922574,29.2749525 112.987754,29.0379824 112.987754,28.8931651 C112.987754,28.7790667 112.938869,28.6923971 112.841098,28.6331537 C112.743326,28.5739103 112.570599,28.5267356 112.322912,28.4916284 C112.253386,28.4828516 112.218623,28.4236091 112.218623,28.3138991 C112.218623,28.1910239 112.253386,28.1295872 112.322912,28.1295872 C112.505419,28.1295872 112.709649,28.1427522 112.935609,28.1690826 C113.148534,28.195413 113.339728,28.208578 113.509199,28.208578 C113.596107,28.208578 113.73733,28.1976071 113.932872,28.1756651 C114.202287,28.1449463 114.419553,28.1295872 114.584678,28.1295872 C114.654205,28.1295872 114.688967,28.1910239 114.688967,28.3138991 Z M120.05333,30.0648624 C120.05333,30.1877376 119.975114,30.2491743 119.818679,30.2491743 L116.246783,30.2491743 C116.220711,30.486148 116.207675,30.7318948 116.207675,30.986422 C116.207675,31.6929546 116.373884,32.2360111 116.706306,32.6156078 C117.038729,32.9952045 117.511284,33.185 118.123984,33.185 C118.432507,33.185 118.743198,33.1016216 119.056067,32.9348624 C119.368935,32.7681031 119.620964,32.5552689 119.812161,32.2963532 L119.844752,32.2831881 C119.88386,32.2831881 119.921882,32.3073239 119.958818,32.3555963 C119.995754,32.4038687 120.014221,32.4609171 120.014221,32.5267431 C120.014221,32.6188995 119.875171,32.8108892 119.597065,33.1027179 C119.31896,33.3945466 119.01696,33.6172546 118.691055,33.7708486 C118.365151,33.9244427 118.024042,34.0012385 117.66772,34.0012385 C116.885549,34.0012385 116.227232,33.7116084 115.692748,33.1323394 C115.158265,32.5530705 114.891027,31.8421602 114.891027,30.9995872 C114.891027,30.1394605 115.152833,29.4109969 115.676453,28.8141743 C116.200073,28.2173518 116.863822,27.918945 117.66772,27.918945 C118.341256,27.918945 118.907235,28.141653 119.365674,28.5870757 C119.824113,29.0324984 120.05333,29.525089 120.05333,30.0648624 Z M118.867043,29.4855963 C118.867043,29.1564662 118.755151,28.8832924 118.531363,28.6660665 C118.307575,28.4488407 118.019697,28.3402294 117.66772,28.3402294 C117.333125,28.3402294 117.043074,28.4817532 116.797559,28.764805 C116.552044,29.0478569 116.385836,29.4197683 116.298928,29.8805505 L118.110948,29.8278899 C118.384708,29.8235015 118.579161,29.7971715 118.694314,29.7488991 C118.809467,29.7006267 118.867043,29.61286 118.867043,29.4855963 Z M133.056857,26.8130734 C133.056857,26.896453 132.978641,26.9381422 132.822207,26.9381422 C132.75268,26.9381422 132.709227,26.9074239 132.691845,26.8459862 C132.504993,26.2272217 132.237756,25.7894852 131.890124,25.5327638 C131.542493,25.2760423 131.027571,25.1476835 130.345344,25.1476835 L129.732647,25.1476835 C129.519722,25.1476835 129.374154,25.1827902 129.295937,25.2530046 C129.21772,25.323219 129.178612,25.4548691 129.178612,25.6479587 L129.178612,32.3292661 C129.178612,32.6320657 129.216633,32.8459971 129.292678,32.9710665 C129.368722,33.0961359 129.503427,33.1948735 129.696797,33.2672821 C129.890167,33.3396907 130.167182,33.3978362 130.52785,33.4417202 C130.597376,33.450497 130.632139,33.5097395 130.632139,33.6194495 C130.632139,33.7423248 130.597376,33.8037615 130.52785,33.8037615 C130.236708,33.8037615 129.889082,33.7905965 129.48496,33.7642661 C129.102566,33.7379356 128.783184,33.7247706 128.526806,33.7247706 C128.261737,33.7247706 127.935837,33.7379356 127.549097,33.7642661 C127.144975,33.7905965 126.797349,33.8037615 126.506208,33.8037615 C126.436681,33.8037615 126.401919,33.7423248 126.401919,33.6194495 C126.401919,33.5097395 126.436681,33.450497 126.506208,33.4417202 C127.032,33.3802826 127.389404,33.281545 127.578428,33.1455046 C127.767453,33.0094642 127.861964,32.7373874 127.861964,32.3292661 L127.861964,25.6479587 C127.861964,25.4548691 127.822856,25.323219 127.744639,25.2530046 C127.666422,25.1827902 127.518681,25.1476835 127.301411,25.1476835 L126.793002,25.1476835 C126.180302,25.1476835 125.6241,25.3045665 125.124379,25.6183372 C124.624659,25.9321078 124.298759,26.3391259 124.14667,26.8394037 C124.124943,26.9052297 124.077145,26.9381422 124.003273,26.9381422 C123.85553,26.9381422 123.781659,26.8898705 123.781659,26.7933257 C124.025001,26.1306771 124.255304,25.3802718 124.472573,24.5420872 C125.063547,24.6649624 126.414944,24.7263991 128.526806,24.7263991 C130.695158,24.7263991 132.0748,24.6649624 132.665773,24.5420872 C132.726609,25.1125793 132.856969,25.8695671 133.056857,26.8130734 Z M137.91281,28.5772018 C137.91281,28.7527379 137.85958,28.9019413 137.753118,29.0248165 C137.646656,29.1476917 137.517382,29.2091284 137.365293,29.2091284 C137.174096,29.2091284 136.985074,29.1454976 136.798222,29.0182339 C136.650479,28.9173007 136.522292,28.8668349 136.413657,28.8668349 C136.131206,28.8668349 135.840069,29.0335916 135.540237,29.3671101 L135.540237,32.3292661 C135.540237,32.711057 135.605417,32.9776483 135.735779,33.1290482 C135.866141,33.280448 136.144242,33.384671 136.57009,33.4417202 C136.639617,33.450497 136.674379,33.5097395 136.674379,33.6194495 C136.674379,33.7423248 136.639617,33.8037615 136.57009,33.8037615 C136.391929,33.8037615 136.1399,33.7905965 135.813995,33.7642661 C135.453328,33.7379356 135.166536,33.7247706 134.953612,33.7247706 C134.736342,33.7247706 134.47345,33.7379356 134.164927,33.7642661 C133.886821,33.7905965 133.658692,33.8037615 133.48053,33.8037615 C133.411004,33.8037615 133.376242,33.7423248 133.376242,33.6194495 C133.376242,33.5097395 133.411004,33.450497 133.48053,33.4417202 C133.85858,33.3934478 134.100832,33.3034869 134.207294,33.1718349 C134.313756,33.0401828 134.366986,32.7593294 134.366986,32.3292661 L134.366986,29.8937156 C134.366986,29.5426435 134.322447,29.3122559 134.233366,29.2025459 C134.144286,29.0928358 133.945487,29.0204283 133.636964,28.9853211 C133.567438,28.9853211 133.532675,28.9282727 133.532675,28.8141743 C133.532675,28.7088527 133.567438,28.6561927 133.636964,28.6561927 C134.067158,28.5464826 134.422389,28.4247063 134.702666,28.2908601 C134.982944,28.1570139 135.166535,28.0418201 135.253442,27.9452752 C135.305587,27.8926144 135.357731,27.8662844 135.409876,27.8662844 C135.531547,27.8662844 135.592381,27.9013911 135.592381,27.9716055 L135.540237,28.8010092 C135.887869,28.4762675 136.18661,28.2480741 136.43647,28.116422 C136.68633,27.98477 136.9351,27.918945 137.182788,27.918945 C137.382676,27.918945 137.554316,27.98477 137.697714,28.116422 C137.841112,28.2480741 137.91281,28.4016658 137.91281,28.5772018 Z M142.566704,33.948578 C142.323362,33.948578 142.111527,33.8882384 141.931194,33.7675573 C141.75086,33.6468763 141.628104,33.4834108 141.562923,33.277156 C141.097966,33.7598801 140.48962,34.0012385 139.737867,34.0012385 C139.346781,34.0012385 139.0274,33.8794622 138.779712,33.635906 C138.532025,33.3923497 138.408183,33.0884575 138.408183,32.7242202 C138.408183,31.8245979 139.464098,31.0961343 141.575959,30.5388073 L141.615068,29.5119266 L141.615068,29.4790138 C141.615068,29.1630489 141.537938,28.9118167 141.383677,28.7253096 C141.229415,28.5388026 141.024098,28.4455505 140.76772,28.4455505 C140.511342,28.4455505 140.294075,28.5080842 140.115914,28.6331537 C139.937753,28.7582231 139.846501,28.9151061 139.842156,29.1038073 C139.83781,29.384665 139.765026,29.6040818 139.623801,29.7620642 C139.482575,29.9200467 139.29464,29.9990367 139.059989,29.9990367 C138.920936,29.9990367 138.807958,29.9573475 138.72105,29.8739679 C138.634142,29.7905883 138.590688,29.6786857 138.590688,29.5382569 C138.590688,29.20035 138.894862,28.8459919 139.503217,28.475172 C140.111572,28.1043521 140.676465,27.918945 141.197912,27.918945 C141.667215,27.918945 142.047431,28.0593717 142.338572,28.3402294 C142.629714,28.621087 142.775282,28.9984839 142.775282,29.4724312 L142.775282,29.551422 L142.684029,32.5267431 L142.684029,32.5728211 C142.684029,33.0336032 142.831771,33.2639908 143.127257,33.2639908 C143.270655,33.2639908 143.437951,33.1762241 143.629148,33.0006881 L143.674774,32.9875229 C143.709537,32.9875229 143.742127,33.0105617 143.772545,33.0566399 C143.802963,33.1027181 143.818172,33.1520869 143.818172,33.2047477 C143.818172,33.3320113 143.686725,33.4877972 143.423829,33.6721101 C143.160933,33.8564229 142.875227,33.948578 142.566704,33.948578 Z M141.562923,30.986422 C140.294068,31.2760565 139.65965,31.754385 139.65965,32.421422 C139.65965,33.044575 139.898643,33.3561468 140.376637,33.3561468 C140.606942,33.3561468 140.833986,33.2980013 141.057774,33.1817087 C141.281562,33.0654161 141.432562,32.9216981 141.510779,32.7505505 L141.562923,30.986422 Z M150.70776,33.3693119 C150.70776,33.4614684 150.672997,33.5119342 150.603471,33.520711 C150.355783,33.5514298 150.068991,33.6128665 149.743087,33.7050229 C149.417182,33.7971794 149.162981,33.8893344 148.980474,33.9814908 C148.884875,34.0297632 148.81535,34.0538991 148.771896,34.0538991 C148.70237,34.0538991 148.667607,34.0187924 148.667607,33.948578 L148.719752,33.2376606 C148.25914,33.7467151 147.67252,34.0012385 146.959876,34.0012385 C146.208123,34.0012385 145.568273,33.7094142 145.040308,33.1257569 C144.512342,32.5420995 144.248363,31.84216 144.248363,31.0259174 C144.248363,30.0999648 144.540587,29.3506565 145.125042,28.7779702 C145.709498,28.2052838 146.442772,27.918945 147.324887,27.918945 C147.828953,27.918945 148.293903,28.076925 148.719752,28.3928899 L148.719752,26.2008945 C148.719752,25.845434 148.676298,25.6128522 148.589391,25.5031422 C148.502483,25.3934322 148.302598,25.3210246 147.989729,25.2859174 C147.920203,25.2771406 147.88544,25.2222864 147.88544,25.1213532 C147.88544,25.0072548 147.920203,24.9502064 147.989729,24.9502064 C148.398196,24.8536616 148.75234,24.7373707 149.052173,24.6013303 C149.352005,24.4652898 149.554063,24.3446106 149.658352,24.239289 C149.701806,24.195405 149.747432,24.1734633 149.795231,24.1734633 C149.916902,24.1734633 149.977737,24.20857 149.977737,24.2787844 C149.908211,25.2354559 149.873448,25.9990262 149.873448,26.5695183 L149.873448,32.3687615 C149.873448,32.6715611 149.916901,32.8745217 150.003809,32.9776491 C150.090717,33.0807765 150.290602,33.1542811 150.603471,33.1981651 C150.672997,33.1981651 150.70776,33.2552135 150.70776,33.3693119 Z M148.719752,32.6583945 L148.719752,29.2881193 C148.719752,29.0599224 148.588305,28.844894 148.325409,28.6430275 C148.062513,28.4411611 147.776807,28.3402294 147.468284,28.3402294 C146.199429,28.3402294 145.565011,29.2398381 145.565011,31.0390826 C145.565011,31.7500036 145.717098,32.3402347 146.021275,32.8097936 C146.325453,33.2793525 146.725223,33.5141284 147.220598,33.5141284 C147.503049,33.5141284 147.759423,33.4494005 147.989729,33.3199427 C148.220035,33.1904848 148.463373,32.969971 148.719752,32.6583945 Z M156.411061,30.0648624 C156.411061,30.1877376 156.332845,30.2491743 156.176411,30.2491743 L152.604515,30.2491743 C152.578442,30.486148 152.565406,30.7318948 152.565406,30.986422 C152.565406,31.6929546 152.731615,32.2360111 153.064038,32.6156078 C153.39646,32.9952045 153.869015,33.185 154.481716,33.185 C154.790239,33.185 155.10093,33.1016216 155.413798,32.9348624 C155.726666,32.7681031 155.978695,32.5552689 156.169893,32.2963532 L156.202483,32.2831881 C156.241592,32.2831881 156.279613,32.3073239 156.316549,32.3555963 C156.353485,32.4038687 156.371953,32.4609171 156.371953,32.5267431 C156.371953,32.6188995 156.232902,32.8108892 155.954797,33.1027179 C155.676692,33.3945466 155.374691,33.6172546 155.048787,33.7708486 C154.722882,33.9244427 154.381774,34.0012385 154.025451,34.0012385 C153.243281,34.0012385 152.584963,33.7116084 152.05048,33.1323394 C151.515996,32.5530705 151.248758,31.8421602 151.248758,30.9995872 C151.248758,30.1394605 151.510565,29.4109969 152.034185,28.8141743 C152.557805,28.2173518 153.221554,27.918945 154.025451,27.918945 C154.698988,27.918945 155.264967,28.141653 155.723406,28.5870757 C156.181845,29.0324984 156.411061,29.525089 156.411061,30.0648624 Z M155.224774,29.4855963 C155.224774,29.1564662 155.112882,28.8832924 154.889094,28.6660665 C154.665306,28.4488407 154.377428,28.3402294 154.025451,28.3402294 C153.690856,28.3402294 153.400805,28.4817532 153.155291,28.764805 C152.909776,29.0478569 152.743567,29.4197683 152.656659,29.8805505 L154.468679,29.8278899 C154.742439,29.8235015 154.936893,29.7971715 155.052046,29.7488991 C155.167199,29.7006267 155.224774,29.61286 155.224774,29.4855963 Z" id="PeopleoftheHistoricSlaveTrade"></path>
                <path d="M34.5214447,41.8119266 C34.5214447,42.0196667 34.2975871,42.1880734 34.0214447,42.1880734 C33.7453023,42.1880734 33.5214447,42.0196667 33.5214447,41.8119266 L33.5214447,1.35263761 C33.5214447,1.14489748 33.7453023,0.976490826 34.0214447,0.976490826 C34.2975871,0.976490826 34.5214447,1.14489748 34.5214447,1.35263761 L34.5214447,41.8119266 Z" id="Line"></path>
            </g>
        </g>
    </g>
</svg>