<?xml version="1.0" encoding="UTF-8"?>
<svg width="40px" height="40px" viewBox="0 0 40 40" version="1.1" xmlns="http://www.w3.org/2000/svg" xmlns:xlink="http://www.w3.org/1999/xlink">
    <!-- Generator: Sketch 48.2 (47327) - http://www.bohemiancoding.com/sketch -->
    <title>logo</title>
    <desc>Created with Sketch.</desc>
    <defs>
        <path d="M132,20 L132,20 C143.045695,20 152,28.954305 152,40 L152,40 C152,51.045695 143.045695,60 132,60 L132,60 C120.954305,60 112,51.045695 112,40 L112,40 C112,28.954305 120.954305,20 132,20 Z" id="path-1"></path>
    </defs>
    <g id="home" stroke="none" stroke-width="1" fill="none" fill-rule="evenodd" transform="translate(-112.000000, -20.000000)">
        <g id="logo" transform="translate(132.000000, 40.000000) scale(-1, 1) translate(-132.000000, -40.000000) ">
            <use fill-opacity="0.200000018" fill="#FFFFFF" fill-rule="evenodd" xlink:href="#path-1"></use>
            <path stroke="#FFFFFF" stroke-width="1" d="M132,20.5 C121.230447,20.5 112.5,29.2304474 112.5,40 C112.5,50.7695526 121.230447,59.5 132,59.5 C142.769553,59.5 151.5,50.7695526 151.5,40 C151.5,29.2304474 142.769553,20.5 132,20.5 Z"></path>
        </g>
    </g>
</svg>