<?xml version="1.0" encoding="UTF-8"?>
<svg width="780px" height="99px" viewBox="0 0 780 99" version="1.1" xmlns="http://www.w3.org/2000/svg" xmlns:xlink="http://www.w3.org/1999/xlink">
    <!-- Generator: sketchtool 53.2 (72643) - https://sketchapp.com -->
    <title>DBA5971E-E946-4E96-9C57-793C6EB8B01A</title>
    <desc>Created with sketchtool.</desc>
    <g id="Home" stroke="none" stroke-width="1" fill="none" fill-rule="evenodd">
        <g transform="translate(-108.000000, -119.000000)" fill="#FBF9F5" fill-rule="nonzero" id="Logo---Landing">
            <g transform="translate(108.000000, 119.000000)">
                <path d="M396.900452,97.85 C396.900452,98.3470563 396.497306,98.75 396,98.75 C395.502694,98.75 395.099548,98.3470563 395.099548,97.85 L395.099548,1.04375 C395.099548,0.546693725 395.502694,0.14375 396,0.14375 C396.497306,0.14375 396.900452,0.546693725 396.900452,1.04375 L396.900452,97.85 Z" id="Line"></path>
                <path d="M60.1906516,67.5452 C57.564919,73.150428 55.4254653,78.4963746 53.7722262,83.5832 C41.551224,83.1943981 32.8475372,83 27.660905,83 C22.5391056,83 13.8516269,83.1943981 1.59820814,83.5832 C1.07954492,83.5832 0.820217195,83.1296045 0.820217195,82.2224 C0.820217195,81.412396 1.07954492,80.9750003 1.59820814,80.9102 C4.28877363,80.5861984 6.34718744,80.1569027 7.77351131,79.6223 C9.19983519,79.0876973 10.1966261,78.3668045 10.763914,77.4596 C11.3312019,76.5523955 11.6148416,74.9648113 11.6148416,72.6968 L11.6148416,26.9642 C11.6148416,24.7285888 11.3474099,23.1491046 10.8125385,22.2257 C10.277667,21.3022954 9.29708405,20.5652028 7.87076018,20.0144 C6.44443631,19.4635972 4.35360654,19.0262016 1.59820814,18.7022 C1.07954492,18.7022 0.820217195,18.2486045 0.820217195,17.3414 C0.820217195,16.4341955 1.07954492,15.9806 1.59820814,15.9806 C9.76715397,16.3694019 18.130473,16.5638 26.6884163,16.5638 C35.3111924,16.5638 43.6907195,16.3694019 51.8272489,15.9806 C52.5728273,21.0026251 53.6587621,25.9597755 55.085086,30.8522 C55.085086,31.5002032 54.5178066,31.8242 53.3832308,31.8242 C52.8321511,31.8242 52.4917835,31.5974023 52.3621176,31.1438 C49.9633002,23.4973618 44.8415777,19.6742 36.9967964,19.6742 L27.1746606,19.6742 C23.4143522,19.6742 21.5342262,21.6181806 21.5342262,25.5062 L21.5342262,47.1332 L33.7875837,47.1332 C37.0292289,47.1332 39.2254105,46.3880075 40.3761946,44.8976 C41.5269786,43.4071925 42.3292737,40.766619 42.7831041,36.9758 C42.7831041,36.4573974 43.2369276,36.1982 44.1445882,36.1982 C45.0522489,36.1982 45.5060724,36.4573974 45.5060724,36.9758 C45.5060724,38.5958081 45.4088245,40.6369877 45.2143258,43.0994 C45.0198271,45.4646118 44.9225792,47.3923925 44.9225792,48.8828 C44.9225792,50.4056076 45.0198271,52.3495882 45.2143258,54.7148 C45.4088245,57.2420126 45.5060724,59.3155919 45.5060724,60.9356 C45.5060724,61.4540026 45.0522489,61.7132 44.1445882,61.7132 C43.2369276,61.7132 42.7831041,61.4540026 42.7831041,60.9356 C42.2968573,56.9827802 41.4459382,54.2126079 40.2303213,52.625 C39.0147043,51.0373921 36.8671466,50.2436 33.7875837,50.2436 L21.5342262,50.2436 L21.5342262,74.1548 C21.5342262,77.9780191 23.4143522,79.8896 27.1746606,79.8896 L37.7747873,79.8896 C41.6323451,79.8896 45.457429,78.6341126 49.2501538,76.1231 C53.0428787,73.6120874 55.8306517,70.4774188 57.6135566,66.719 C57.7432224,66.4273985 58.0187581,66.2816 58.4401719,66.2816 C58.8940023,66.2816 59.2992018,66.4030988 59.6557828,66.6461 C60.0123638,66.8891012 60.1906516,67.1887982 60.1906516,67.5452 Z M114.066525,82.2224 C114.066525,83.1296045 113.807197,83.5832 113.288534,83.5832 C111.991876,83.5832 110.403494,83.486001 108.523339,83.2916 C106.448686,83.097199 104.617184,83 103.028778,83 C101.407956,83 99.5440377,83.097199 97.4369683,83.2916 C95.5243977,83.486001 93.9198074,83.5832 92.6231493,83.5832 C92.1044861,83.5832 91.8451584,83.1296045 91.8451584,82.2224 C91.8451584,81.412396 92.1044861,80.9750003 92.6231493,80.9102 C94.8598845,80.6509987 96.3267069,80.019205 97.0236606,79.0148 C97.7206143,78.010395 98.069086,75.904416 98.069086,72.6968 L98.069086,56.4644 C98.069086,52.8355819 97.3559347,50.1788084 95.9296109,48.494 C94.503287,46.8091916 92.2990013,45.9668 89.3166878,45.9668 C87.4365336,45.9668 85.7752154,46.3231964 84.3326833,47.036 C82.8901512,47.7488036 81.3422888,49.0123909 79.6890498,50.8268 L79.6890498,72.6968 C79.6890498,75.904416 80.0375214,78.010395 80.7344751,79.0148 C81.4314288,80.019205 82.8982513,80.6509987 85.1349864,80.9102 C85.6536497,80.9750003 85.9129774,81.412396 85.9129774,82.2224 C85.9129774,83.1296045 85.6536497,83.5832 85.1349864,83.5832 C83.8059119,83.5832 82.1851136,83.486001 80.272543,83.2916 C78.1654736,83.097199 76.3177636,83 74.7293575,83 C73.1733678,83 71.3580737,83.097199 69.2834208,83.2916 C67.3708502,83.486001 65.7500519,83.5832 64.4209774,83.5832 C63.9023141,83.5832 63.6429864,83.1296045 63.6429864,82.2224 C63.6429864,81.412396 63.9023141,80.9750003 64.4209774,80.9102 C67.2087922,80.5537982 69.0078783,79.8815049 69.8182896,78.8933 C70.6287009,77.9050951 71.0339005,75.8396157 71.0339005,72.6968 L71.0339005,54.7148 C71.0339005,52.122787 70.7016368,50.4218041 70.0370995,49.6118 C69.3725623,48.801796 67.8895319,48.2672013 65.5879638,48.008 C65.0693006,48.008 64.8099729,47.5868042 64.8099729,46.7444 C64.8099729,45.9667961 65.0693006,45.578 65.5879638,45.578 C68.7971925,44.767996 71.4715097,43.8527051 73.6109955,42.8321 C75.7504813,41.8114949 77.0957439,40.9772032 77.6468235,40.3292 C77.970988,39.9403981 78.3275637,39.746 78.7165611,39.746 C79.6242217,39.746 80.0780452,40.0051974 80.0780452,40.5236 L79.6890498,46.6472 C84.3570188,42.3055783 88.7007582,40.1348 92.7203982,40.1348 C97.1290356,40.1348 100.573232,41.3983874 103.05309,43.9256 C105.532949,46.4528126 106.77286,49.8547786 106.77286,54.1316 L106.77286,72.6968 C106.77286,75.8720159 107.169955,77.9455951 107.964158,78.9176 C108.758361,79.8896049 110.533136,80.5537982 113.288534,80.9102 C113.807197,80.9750003 114.066525,81.412396 114.066525,82.2224 Z M148.638498,71.0444 C148.638498,74.9972198 147.082531,78.3181866 143.970552,81.0074 C140.858573,83.6966134 137.098321,85.0412 132.689683,85.0412 C131.133694,85.0412 128.734912,84.7010034 125.493267,84.0206 C123.062033,83.5345976 121.408819,83.2916 120.533575,83.2916 C120.274243,81.0235887 119.674548,77.5730232 118.734471,72.9398 C118.734471,72.4537976 119.204502,72.2108 120.144579,72.2108 C120.922574,72.2108 121.392606,72.4699974 121.554688,72.9884 C122.300266,75.386012 123.775193,77.4757911 125.979511,79.2578 C128.18383,81.0398089 130.452948,81.9308 132.786932,81.9308 C135.218166,81.9308 137.106396,81.2666066 138.451679,79.9382 C139.796961,78.6097934 140.469593,76.746812 140.469593,74.3492 C140.469593,72.8263924 139.910417,71.4818058 138.79205,70.3154 C137.673682,69.1489942 135.250589,67.7072086 131.522697,65.99 C126.627813,63.7543888 123.39432,61.6484099 121.822122,59.672 C120.249924,57.6955901 119.463837,55.3304138 119.463837,52.5764 C119.463837,49.174383 120.938764,46.2503122 123.888661,43.8041 C126.838558,41.3578878 130.323274,40.1348 134.342914,40.1348 C136.02857,40.1348 138.394935,40.4263971 141.442081,41.0096 C143.127737,41.3336016 144.22988,41.4956 144.748543,41.4956 C144.845792,45.3188191 145.056496,48.5749866 145.380661,51.2642 C145.380661,51.7502024 144.910629,51.9932 143.970552,51.9932 C143.160141,51.9932 142.706317,51.7340026 142.609068,51.2156 C142.252487,48.8503882 141.361048,46.9307074 139.934724,45.4565 C138.5084,43.9822926 136.806562,43.2452 134.829158,43.2452 C129.772192,43.2452 127.243747,45.448378 127.243747,49.8548 C127.243747,51.3452075 127.843442,52.7221937 129.042851,53.9858 C130.242259,55.2494063 132.851745,56.88559 136.871385,58.8944 C141.669019,61.292012 144.829576,63.3655913 146.353149,65.1152 C147.876723,66.8648087 148.638498,68.841189 148.638498,71.0444 Z M176.548923,82.1252 C176.548923,83.0324045 176.289595,83.486 175.770932,83.486 C174.441858,83.486 172.740019,83.4050008 170.665367,83.243 C168.331382,83.0809992 166.370216,83 164.78181,83 C163.22582,83 161.29707,83.0809992 158.995502,83.243 C156.920849,83.4050008 155.219011,83.486 153.889937,83.486 C153.371273,83.486 153.111946,83.0324045 153.111946,82.1252 C153.111946,81.315196 153.371273,80.8778003 153.889937,80.813 C156.645335,80.4889984 158.436317,79.8329049 159.262937,78.8447 C160.089556,77.8564951 160.50286,75.7748159 160.50286,72.5996 L160.50286,27.4502 C160.50286,24.8257869 160.1787,23.1086041 159.530371,22.2986 C158.882042,21.488596 157.390908,20.9540013 155.056923,20.6948 C154.53826,20.6299997 154.278932,20.2250037 154.278932,19.4798 C154.278932,18.7021961 154.53826,18.3134 155.056923,18.3134 C158.460651,17.4385956 161.248424,16.5071049 163.420326,15.5189 C165.592228,14.5306951 166.953699,13.6964034 167.504778,13.016 C167.828943,12.6595982 168.185518,12.4814 168.574516,12.4814 C169.482176,12.4814 169.936,12.7405974 169.936,13.259 C169.417337,20.5166363 169.158009,26.1541799 169.158009,30.1718 L169.158009,72.5996 C169.158009,75.7748159 169.563209,77.8564951 170.37362,78.8447 C171.184031,79.8329049 172.983117,80.4889984 175.770932,80.813 C176.289595,80.8778003 176.548923,81.315196 176.548923,82.1252 Z M211.655765,84.6524 C209.840443,84.6524 208.260165,84.2069045 206.914882,83.3159 C205.5696,82.4248955 204.653849,81.2180076 204.167602,79.6952 C200.699041,83.2592178 196.160806,85.0412 190.55276,85.0412 C187.63528,85.0412 185.252706,84.142109 183.404968,82.3439 C181.557231,80.545691 180.633376,78.3020134 180.633376,75.6128 C180.633376,68.9707668 188.510455,63.5924206 204.264851,59.4776 L204.556597,51.896 L204.556597,51.653 C204.556597,49.3201883 203.981214,47.4653069 202.83043,46.0883 C201.679646,44.7112931 200.147991,44.0228 198.235421,44.0228 C196.32285,44.0228 194.702052,44.4844954 193.372977,45.4079 C192.043903,46.3313046 191.363168,47.489593 191.330751,48.8828 C191.298335,50.9564104 190.755367,52.5763942 189.701833,53.7428 C188.648298,54.9092058 187.246307,55.4924 185.495819,55.4924 C184.458493,55.4924 183.615677,55.1846031 182.967348,54.569 C182.319019,53.9533969 181.99486,53.1272052 181.99486,52.0904 C181.99486,49.5955875 184.263977,46.9793137 188.802281,44.2415 C193.340584,41.5036863 197.554659,40.1348 201.444633,40.1348 C204.94561,40.1348 207.782007,41.1715896 209.95391,43.2452 C212.125812,45.3188104 213.211747,48.1051825 213.211747,51.6044 L213.211747,52.1876 L212.531005,74.1548 L212.531005,74.495 C212.531005,77.897017 213.633147,79.598 215.837466,79.598 C216.907209,79.598 218.155224,78.9500065 219.581548,77.654 L219.921919,77.5568 C220.18125,77.5568 220.42437,77.7268983 220.651285,78.0671 C220.8782,78.4073017 220.991656,78.7717981 220.991656,79.1606 C220.991656,80.1002047 220.011073,81.2503932 218.049878,82.6112 C216.088683,83.9720068 213.957333,84.6524 211.655765,84.6524 Z M204.167602,62.7824 C194.701998,64.9208107 189.969267,68.4523754 189.969267,73.3772 C189.969267,77.978023 191.752145,80.2784 195.317955,80.2784 C197.036027,80.2784 198.729761,79.8491043 200.399208,78.9905 C202.068655,78.1318957 203.19511,77.0708063 203.778606,75.8072 L204.167602,62.7824 Z M267.914235,43.0508 C267.914235,43.8932042 267.654908,44.3467997 267.136244,44.4116 C264.413262,44.7032015 262.589864,45.351195 261.665995,46.3556 C260.742127,47.360005 259.583256,49.4335843 258.189348,52.5764 L244.234136,84.3608 C244.007221,84.8792026 243.618229,85.1384 243.067149,85.1384 C242.483653,85.1384 242.078454,84.8792026 241.851538,84.3608 L228.771566,52.5764 C227.572157,49.5955851 226.356558,47.5544055 225.124733,46.4528 C223.892908,45.3511945 222.223486,44.6546015 220.116416,44.363 C219.597753,44.2981997 219.338425,43.8608041 219.338425,43.0508 C219.338425,42.1435955 219.597753,41.69 220.116416,41.69 C221.445491,41.69 223.098705,41.787199 225.076109,41.9816 C227.215594,42.176001 229.063304,42.2732 230.619294,42.2732 C232.2077,42.2732 234.13645,42.176001 236.405602,41.9816 C238.415422,41.787199 240.084844,41.69 241.413919,41.69 C241.932582,41.69 242.19191,42.1435955 242.19191,43.0508 C242.19191,43.8608041 241.932582,44.2981997 241.413919,44.363 C239.468931,44.6222013 238.123669,44.9704978 237.37809,45.4079 C236.632512,45.8453022 236.259729,46.4851958 236.259729,47.3276 C236.259729,48.332005 236.745968,50.0653877 237.718462,52.5278 L245.692869,73.1828 L253.764525,52.5764 C254.737018,50.1463879 255.223258,48.3968053 255.223258,47.3276 C255.223258,46.4851958 254.858578,45.8453022 254.129208,45.4079 C253.399838,44.9704978 252.111303,44.6222013 250.263566,44.363 C249.744902,44.2981997 249.485575,43.8608041 249.485575,43.0508 C249.485575,42.1435955 249.744902,41.69 250.263566,41.69 C251.625057,41.69 253.148607,41.787199 254.834262,41.9816 C256.422669,42.176001 257.848971,42.2732 259.113213,42.2732 C259.761542,42.2732 260.815061,42.1922008 262.273801,42.0302 C264.283621,41.8033989 265.904419,41.69 267.136244,41.69 C267.654908,41.69 267.914235,42.1435955 267.914235,43.0508 Z M307.932145,55.9784 C307.932145,56.8856045 307.348657,57.3392 306.181665,57.3392 L279.535475,57.3392 C279.340976,59.0888087 279.243729,60.9031906 279.243729,62.7824 C279.243729,67.9988261 280.483639,72.008286 282.963498,74.8109 C285.443356,77.613514 288.968593,79.0148 293.539312,79.0148 C295.84088,79.0148 298.158622,78.3992062 300.492606,77.168 C302.826591,75.9367938 304.706717,74.3654096 306.133041,72.4538 L306.376163,72.3566 C306.667911,72.3566 306.951551,72.5347982 307.22709,72.8912 C307.50263,73.2476018 307.640398,73.6687976 307.640398,74.1548 C307.640398,74.8352034 306.603087,76.2526892 304.528434,78.4073 C302.453781,80.5619108 300.200872,82.2061943 297.769638,83.3402 C295.338404,84.4742057 292.793751,85.0412 290.135602,85.0412 C284.300641,85.0412 279.389622,82.9028214 275.402398,78.626 C271.415175,74.3491786 269.421593,69.1004311 269.421593,62.8796 C269.421593,56.5291682 271.374655,51.150822 275.280837,46.7444 C279.18702,42.337978 284.138558,40.1348 290.135602,40.1348 C295.160152,40.1348 299.382331,41.7790836 302.802267,45.0677 C306.222203,48.3563164 307.932145,51.9931801 307.932145,55.9784 Z M299.082498,51.7016 C299.082498,49.2715879 298.247787,47.254708 296.578339,45.6509 C294.908892,44.047092 292.761334,43.2452 290.135602,43.2452 C287.639535,43.2452 285.475769,44.2900896 283.64424,46.3799 C281.81271,48.4697104 280.5728,51.215583 279.924471,54.6176 L293.442063,54.2288 C295.4843,54.1963998 296.934914,54.0020018 297.79395,53.6456 C298.652986,53.2891982 299.082498,52.6412047 299.082498,51.7016 Z M363.607122,80.3756 C363.607122,81.0560034 363.347794,81.4285997 362.829131,81.4934 C360.981393,81.7202011 358.84194,82.1737966 356.410706,82.8542 C353.979472,83.5346034 352.083138,84.2149966 350.721647,84.8954 C350.008485,85.2518018 349.48983,85.43 349.165665,85.43 C348.647002,85.43 348.387674,85.1708026 348.387674,84.6524 L348.77667,79.4036 C345.340526,83.1620188 340.96437,85.0412 335.648072,85.0412 C330.040026,85.0412 325.266775,82.8866215 321.328176,78.5774 C317.389578,74.2681785 315.420308,69.1004301 315.420308,63.074 C315.420308,56.2375658 317.600281,50.7053211 321.960294,46.4771 C326.320307,42.2488789 331.790501,40.1348 338.371041,40.1348 C342.131349,40.1348 345.599857,41.3011883 348.77667,43.634 L348.77667,27.4502 C348.77667,24.8257869 348.45251,23.1086041 347.804181,22.2986 C347.155852,21.488596 345.664718,20.9540013 343.330733,20.6948 C342.81207,20.6299997 342.552742,20.2250037 342.552742,19.4798 C342.552742,18.6373958 342.81207,18.2162 343.330733,18.2162 C346.377879,17.5033964 349.019781,16.644805 351.256516,15.6404 C353.493251,14.635995 355.000593,13.7450039 355.778588,12.9674 C356.102753,12.6433984 356.44312,12.4814 356.799701,12.4814 C357.707362,12.4814 358.161186,12.7405974 358.161186,13.259 C357.642522,20.3222353 357.383195,25.9597789 357.383195,30.1718 L357.383195,72.9884 C357.383195,75.2240112 357.707354,76.7224962 358.355683,77.4839 C359.004012,78.2453038 360.495147,78.7879984 362.829131,79.112 C363.347794,79.112 363.607122,79.5331958 363.607122,80.3756 Z M348.77667,75.1268 L348.77667,50.2436 C348.77667,48.5587916 347.796087,46.9712075 345.834891,45.4808 C343.873696,43.9903925 341.742346,43.2452 339.440778,43.2452 C329.975174,43.2452 325.242443,49.8871336 325.242443,63.1712 C325.242443,68.4200262 326.377002,72.7777827 328.646154,76.2446 C330.915305,79.7114173 333.897574,81.4448 337.59305,81.4448 C339.700119,81.4448 341.612661,80.9669048 343.330733,80.0111 C345.048805,79.0552952 346.864099,77.4272115 348.77667,75.1268 Z" id="Enslaved"></path>
                <path d="M451.645713,25.53725 C451.645713,27.9132619 450.730637,29.9078669 448.900458,31.521125 C447.070279,33.1343831 444.804538,33.941 442.103167,33.941 C440.482345,33.941 438.88856,33.8735007 437.321765,33.7385 L437.321765,40.907 C437.321765,41.8520047 437.439948,42.5134981 437.676318,42.8915 C437.912688,43.2695019 438.324641,43.5698739 438.912189,43.792625 C439.499737,44.0153761 440.360786,44.1942493 441.495362,44.32925 C441.711472,44.3562501 441.819525,44.5384983 441.819525,44.876 C441.819525,45.2540019 441.711472,45.443 441.495362,45.443 C440.590403,45.443 439.516624,45.4025004 438.273993,45.3215 C437.08539,45.2404996 436.079144,45.2 435.255226,45.2 C434.431308,45.2 433.418309,45.2404996 432.216199,45.3215 C430.960062,45.4025004 429.879529,45.443 428.97457,45.443 C428.75846,45.443 428.650407,45.2540019 428.650407,44.876 C428.650407,44.5384983 428.75846,44.3562501 428.97457,44.32925 C430.6089,44.1402491 431.719822,43.8365021 432.30737,43.418 C432.894918,42.9994979 433.188688,42.1625063 433.188688,40.907 L433.188688,21.85175 C433.188688,20.9067453 433.070505,20.2418769 432.834135,19.857125 C432.597765,19.4723731 432.182435,19.1686261 431.588133,18.945875 C430.993832,18.7231239 430.122653,18.5442507 428.97457,18.40925 C428.75846,18.40925 428.650407,18.2202519 428.650407,17.84225 C428.650407,17.4642481 428.75846,17.27525 428.97457,17.27525 C429.879529,17.27525 430.960062,17.3157496 432.216199,17.39675 C433.418309,17.4777504 434.431308,17.51825 435.255226,17.51825 C436.079144,17.51825 437.08539,17.4777504 438.273993,17.39675 C439.516624,17.3157496 440.590403,17.27525 441.495362,17.27525 C444.818048,17.27525 447.340416,17.977243 449.06254,19.38125 C450.784664,20.785257 451.645713,22.8372365 451.645713,25.53725 Z M447.147952,25.53725 C447.147952,23.3772392 446.617816,21.6897561 445.557528,20.47475 C444.49724,19.2597439 443.089172,18.65225 441.333281,18.65225 C440.279746,18.65225 439.46597,18.7332492 438.891929,18.89525 C438.317887,19.0572508 437.912688,19.3204982 437.676318,19.685 C437.439948,20.0495018 437.321765,20.7717446 437.321765,21.85175 L437.321765,31.1465 C437.321765,31.7270029 437.504105,32.115124 437.86879,32.310875 C438.233475,32.506626 439.023614,32.6045 440.239231,32.6045 C442.440848,32.6045 444.142686,31.9767563 445.344796,30.72125 C446.546906,29.4657437 447.147952,27.737761 447.147952,25.53725 Z M470.34586,33.941 C470.34586,34.3190019 470.10274,34.508 469.616493,34.508 L458.513914,34.508 C458.432873,35.2370036 458.392353,35.9929961 458.392353,36.776 C458.392353,38.9495109 458.908982,40.6201192 459.942257,41.787875 C460.975531,42.9556308 462.44438,43.5395 464.348846,43.5395 C465.307833,43.5395 466.273558,43.2830026 467.246052,42.77 C468.218546,42.2569974 469.001931,41.602254 469.596233,40.80575 L469.697534,40.76525 C469.819096,40.76525 469.937279,40.8394993 470.052087,40.988 C470.166895,41.1365007 470.224299,41.311999 470.224299,41.5145 C470.224299,41.7980014 469.792086,42.3886205 468.927647,43.286375 C468.063208,44.1841295 467.124496,44.8692476 466.111482,45.34175 C465.098468,45.8142524 464.038196,46.0505 462.930633,46.0505 C460.4994,46.0505 458.453142,45.1595089 456.791799,43.3775 C455.130455,41.5954911 454.299796,39.408513 454.299796,36.8165 C454.299796,34.1704868 455.113572,31.9295092 456.741148,30.0935 C458.368724,28.2574908 460.431865,27.3395 462.930633,27.3395 C465.024196,27.3395 466.783437,28.0246181 468.208411,29.394875 C469.633384,30.7651319 470.34586,32.2804917 470.34586,33.941 Z M466.658507,32.159 C466.658507,31.1464949 466.31071,30.3061283 465.615107,29.637875 C464.919504,28.9696217 464.024689,28.6355 462.930633,28.6355 C461.890606,28.6355 460.989037,29.0708706 460.225899,29.941625 C459.462762,30.8123794 458.946133,31.9564929 458.675995,33.374 L464.308326,33.212 C465.159258,33.1984999 465.76368,33.1175007 466.121612,32.969 C466.479544,32.8204993 466.658507,32.550502 466.658507,32.159 Z M492.125554,36.8165 C492.125554,39.5030134 491.250999,41.7136163 489.501861,43.448375 C487.752723,45.1831337 485.486982,46.0505 482.70457,46.0505 C479.922158,46.0505 477.65304,45.1797587 475.897149,43.43825 C474.141258,41.6967413 473.263326,39.4895134 473.263326,36.8165 C473.263326,34.1029864 474.148012,31.845134 475.91741,30.042875 C477.686807,28.240616 479.949172,27.3395 482.70457,27.3395 C485.473475,27.3395 487.73584,28.237241 489.491731,30.03275 C491.247622,31.828259 492.125554,34.0894864 492.125554,36.8165 Z M488.053258,36.776 C488.053258,34.3054876 487.577148,32.3311324 486.624915,30.852875 C485.672682,29.3746176 484.365913,28.6355 482.70457,28.6355 C481.056734,28.6355 479.753342,29.3779926 478.794355,30.863 C477.835369,32.3480074 477.355882,34.3189877 477.355882,36.776 C477.355882,39.2195122 477.828615,41.1601178 478.774095,42.597875 C479.719575,44.0356322 481.02972,44.7545 482.70457,44.7545 C484.37942,44.7545 485.689565,44.0423821 486.635045,42.618125 C487.580525,41.1938679 488.053258,39.2465124 488.053258,36.776 Z M514.128111,36.8165 C514.128111,39.4760133 513.229918,41.6798663 511.433507,43.428125 C509.637095,45.1763837 507.340964,46.0505 504.545045,46.0505 C502.93773,46.0505 501.560051,45.7400031 500.411968,45.119 L500.411968,51.356 C500.411968,52.6655065 500.580801,53.5294979 500.918473,53.948 C501.256144,54.3665021 502.005763,54.6499993 503.167353,54.7985 C503.383463,54.7985 503.491516,54.9874981 503.491516,55.3655 C503.491516,55.7435019 503.383463,55.9325 503.167353,55.9325 C502.613572,55.9325 501.897719,55.8920004 501.019774,55.811 C500.074294,55.7299996 499.277401,55.6895 498.629072,55.6895 C497.95373,55.6895 497.136577,55.7299996 496.17759,55.811 C495.313152,55.8920004 494.604053,55.9325 494.050271,55.9325 C493.834162,55.9325 493.726109,55.7435019 493.726109,55.3655 C493.726109,54.9874981 493.834162,54.7985 494.050271,54.7985 C495.198354,54.6499993 495.944597,54.3665021 496.289021,53.948 C496.633446,53.5294979 496.805656,52.6655065 496.805656,51.356 L496.805656,33.4145 C496.805656,32.3344946 496.667213,31.6257517 496.390322,31.28825 C496.113432,30.9507483 495.495503,30.7280005 494.536516,30.62 C494.320406,30.62 494.212353,30.4445018 494.212353,30.0935 C494.212353,29.7694984 494.320406,29.6075 494.536516,29.6075 C495.846681,29.2834984 496.944096,28.9122521 497.828795,28.49375 C498.713494,28.0752479 499.297657,27.7175015 499.581301,27.4205 C499.729876,27.2584992 499.871696,27.1775 500.006765,27.1775 C500.384957,27.1775 500.57405,27.2854989 500.57405,27.5015 L500.411968,30.053 C501.154845,29.2834962 502.012518,28.6388776 502.985011,28.119125 C503.957505,27.5993724 504.788164,27.3395 505.477014,27.3395 C508.137864,27.3395 510.244902,28.2068663 511.79819,29.941625 C513.351478,31.6763837 514.128111,33.9679858 514.128111,36.8165 Z M510.055814,36.776 C510.055814,34.5214887 509.566198,32.7631313 508.586951,31.500875 C507.607704,30.2386187 506.233403,29.6075 504.464005,29.6075 C503.721128,29.6075 503.049172,29.7627484 502.448117,30.07325 C501.847061,30.3837516 501.168352,30.9574958 500.411968,31.7945 L500.411968,41.717 C500.411968,42.5810043 500.796908,43.3032471 501.566799,43.88375 C502.336689,44.4642529 503.275402,44.7545 504.382964,44.7545 C506.219896,44.7545 507.624588,44.0626319 508.597081,42.678875 C509.569575,41.2951181 510.055814,39.3275128 510.055814,36.776 Z M526.101878,44.8355 C526.101878,45.2135019 525.993825,45.4025 525.777715,45.4025 C525.223934,45.4025 524.514835,45.3687503 523.650396,45.30125 C522.677902,45.2337497 521.86075,45.2 521.198914,45.2 C520.550585,45.2 519.746939,45.2337497 518.787952,45.30125 C517.923514,45.3687503 517.214415,45.4025 516.660633,45.4025 C516.444524,45.4025 516.336471,45.2135019 516.336471,44.8355 C516.336471,44.4979983 516.444524,44.3157501 516.660633,44.28875 C517.808716,44.1537493 518.554959,43.8803771 518.899383,43.468625 C519.243808,43.0568729 519.416018,42.1895066 519.416018,40.8665 L519.416018,22.05425 C519.416018,20.9607445 519.280952,20.2452517 519.010814,19.90775 C518.740677,19.5702483 518.119371,19.3475005 517.146878,19.2395 C516.930768,19.2124999 516.822715,19.0437516 516.822715,18.73325 C516.822715,18.4092484 516.930768,18.24725 517.146878,18.24725 C518.565098,17.8827482 519.72667,17.4946271 520.631629,17.082875 C521.536588,16.6711229 522.103868,16.3235014 522.333484,16.04 C522.468553,15.8914993 522.617126,15.81725 522.779208,15.81725 C523.1574,15.81725 523.346493,15.9252489 523.346493,16.14125 C523.130384,19.1652651 523.02233,21.5142416 523.02233,23.18825 L523.02233,40.8665 C523.02233,42.1895066 523.191163,43.0568729 523.528835,43.468625 C523.866506,43.8803771 524.616125,44.1537493 525.777715,44.28875 C525.993825,44.3157501 526.101878,44.4979983 526.101878,44.8355 Z M543.728235,33.941 C543.728235,34.3190019 543.485116,34.508 542.998869,34.508 L531.89629,34.508 C531.815248,35.2370036 531.774729,35.9929961 531.774729,36.776 C531.774729,38.9495109 532.291358,40.6201192 533.324632,41.787875 C534.357907,42.9556308 535.826755,43.5395 537.731222,43.5395 C538.690208,43.5395 539.655934,43.2830026 540.628428,42.77 C541.600921,42.2569974 542.384307,41.602254 542.978609,40.80575 L543.07991,40.76525 C543.201471,40.76525 543.319654,40.8394993 543.434463,40.988 C543.549271,41.1365007 543.606674,41.311999 543.606674,41.5145 C543.606674,41.7980014 543.174461,42.3886205 542.310023,43.286375 C541.445584,44.1841295 540.506872,44.8692476 539.493857,45.34175 C538.480843,45.8142524 537.420571,46.0505 536.313009,46.0505 C533.881775,46.0505 531.835517,45.1595089 530.174174,43.3775 C528.512831,41.5954911 527.682172,39.408513 527.682172,36.8165 C527.682172,34.1704868 528.495948,31.9295092 530.123524,30.0935 C531.7511,28.2574908 533.814241,27.3395 536.313009,27.3395 C538.406572,27.3395 540.165813,28.0246181 541.590786,29.394875 C543.015759,30.7651319 543.728235,32.2804917 543.728235,33.941 Z M540.040882,32.159 C540.040882,31.1464949 539.693086,30.3061283 538.997483,29.637875 C538.30188,28.9696217 537.407064,28.6355 536.313009,28.6355 C535.272981,28.6355 534.371412,29.0708706 533.608275,29.941625 C532.845138,30.8123794 532.328508,31.9564929 532.058371,33.374 L537.690701,33.212 C538.541633,33.1984999 539.146056,33.1175007 539.503988,32.969 C539.861919,32.8204993 540.040882,32.550502 540.040882,32.159 Z M575.63802,36.8165 C575.63802,39.5030134 574.763465,41.7136163 573.014327,43.448375 C571.265189,45.1831337 568.999448,46.0505 566.217036,46.0505 C563.434624,46.0505 561.165507,45.1797587 559.409615,43.43825 C557.653724,41.6967413 556.775792,39.4895134 556.775792,36.8165 C556.775792,34.1029864 557.660478,31.845134 559.429876,30.042875 C561.199274,28.240616 563.461638,27.3395 566.217036,27.3395 C568.985941,27.3395 571.248306,28.237241 573.004197,30.03275 C574.760088,31.828259 575.63802,34.0894864 575.63802,36.8165 Z M571.565724,36.776 C571.565724,34.3054876 571.089614,32.3311324 570.137381,30.852875 C569.185148,29.3746176 567.878379,28.6355 566.217036,28.6355 C564.5692,28.6355 563.265808,29.3779926 562.306821,30.863 C561.347835,32.3480074 560.868348,34.3189877 560.868348,36.776 C560.868348,39.2195122 561.341081,41.1601178 562.286561,42.597875 C563.232041,44.0356322 564.542186,44.7545 566.217036,44.7545 C567.891886,44.7545 569.202031,44.0423821 570.147511,42.618125 C571.092991,41.1938679 571.565724,39.2465124 571.565724,36.776 Z M594.561029,17.92325 C594.561029,18.4767528 594.351676,18.9121234 593.932964,19.229375 C593.514251,19.5466266 592.940219,19.70525 592.210848,19.70525 C591.562519,19.70525 590.907447,19.4555025 590.245611,18.956 C589.69183,18.5374979 589.198837,18.32825 588.766618,18.32825 C587.848152,18.32825 587.064766,18.8378699 586.416437,19.857125 C585.768108,20.8763801 585.443948,22.2567413 585.443948,23.99825 L585.443948,28.7165 L589.982229,28.7165 C590.306393,28.7165 590.468473,29.0809964 590.468473,29.81 C590.468473,30.5390036 590.306393,30.9035 589.982229,30.9035 L585.403428,30.7415 L585.403428,40.907 C585.403428,42.2300066 585.565507,43.093998 585.889672,43.499 C586.213836,43.904002 586.956702,44.1807493 588.118292,44.32925 C588.334402,44.3562501 588.442455,44.5384983 588.442455,44.876 C588.442455,45.2540019 588.334402,45.443 588.118292,45.443 C587.564511,45.443 586.862165,45.4025004 586.011233,45.3215 C585.052246,45.2404996 584.241847,45.2 583.580011,45.2 C582.904669,45.2 582.094269,45.2404996 581.14879,45.3215 C580.297858,45.4025004 579.595512,45.443 579.041731,45.443 C578.825621,45.443 578.717568,45.2540019 578.717568,44.876 C578.717568,44.5384983 578.825621,44.3562501 579.041731,44.32925 C580.189813,44.1807493 580.929303,43.904002 581.260221,43.499 C581.591139,43.093998 581.756595,42.2300066 581.756595,40.907 L581.756595,31.2275 C581.756595,30.8494981 581.594515,30.6605 581.270351,30.6605 L579.203812,30.6605 C578.933675,30.6605 578.798609,30.4850018 578.798609,30.134 C578.798609,29.7829982 578.920168,29.5805003 579.163292,29.5265 C580.892169,29.134998 581.756595,28.7570018 581.756595,28.3925 C581.756595,25.1254837 582.752711,22.2466375 584.744972,19.755875 C586.737233,17.2651125 589.03674,16.01975 591.643563,16.01975 C592.548523,16.01975 593.260999,16.1884983 593.781012,16.526 C594.301026,16.8635017 594.561029,17.329247 594.561029,17.92325 Z M614.76043,29.324 C614.76043,30.0530036 614.584843,30.4175 614.233665,30.4175 L608.196131,30.2555 L608.196131,39.9755 C608.196131,42.5135127 609.101077,43.7825 610.910995,43.7825 C612.032064,43.7825 613.051817,43.5192526 613.970283,42.99275 C614.078338,42.99275 614.176261,43.0636243 614.264055,43.205375 C614.35185,43.3471257 614.395747,43.4989992 614.395747,43.661 C614.395747,43.9985017 613.892624,44.4541221 612.886363,45.027875 C611.880102,45.6016279 610.74892,45.8885 609.492783,45.8885 C607.953001,45.8885 606.723896,45.4193797 605.80543,44.481125 C604.886964,43.5428703 604.427738,42.3042577 604.427738,40.76525 L604.427738,40.583 L604.508778,30.7415 C604.508778,30.3634981 604.346698,30.1745 604.022534,30.1745 L602.48276,30.1745 C602.185609,30.1745 602.037036,29.9990018 602.037036,29.648 C602.037036,29.3779987 602.158596,29.1755007 602.401719,29.0405 C604.279172,27.9334945 605.913477,26.3742601 607.304683,24.36275 C607.453259,24.1467489 607.642352,24.03875 607.871968,24.03875 C608.25016,24.03875 608.439253,24.1467489 608.439253,24.36275 L608.277172,28.2305 L614.233665,28.2305 C614.584843,28.2305 614.76043,28.5949964 614.76043,29.324 Z M637.998857,44.876 C637.998857,45.2540019 637.890804,45.443 637.674695,45.443 C637.13442,45.443 636.465841,45.4025004 635.668937,45.3215 C634.804498,45.2404996 634.048125,45.2 633.399796,45.2 C632.724454,45.2 631.947821,45.2404996 631.069876,45.3215 C630.272971,45.4025004 629.604392,45.443 629.064118,45.443 C628.848008,45.443 628.739955,45.2540019 628.739955,44.876 C628.739955,44.5384983 628.848008,44.3562501 629.064118,44.32925 C629.996091,44.2212495 630.607267,43.9580021 630.897664,43.5395 C631.188061,43.1209979 631.333258,42.2435067 631.333258,40.907 L631.333258,34.1435 C631.333258,31.2274854 630.009606,29.7695 627.362262,29.7695 C625.687412,29.7695 624.242201,30.4444933 623.026584,31.7945 L623.026584,40.907 C623.026584,42.1220061 623.20217,42.9657476 623.553348,43.43825 C623.904527,43.9107524 624.593366,44.2077494 625.619887,44.32925 C625.835997,44.3562501 625.94405,44.5384983 625.94405,44.876 C625.94405,45.2540019 625.835997,45.443 625.619887,45.443 C625.066106,45.443 624.3435,45.4025004 623.452048,45.3215 C622.45254,45.2404996 621.621881,45.2 620.960045,45.2 C620.284703,45.2 619.514823,45.2404996 618.650385,45.3215 C617.880494,45.4025004 617.218668,45.443 616.664887,45.443 C616.448777,45.443 616.340724,45.2540019 616.340724,44.876 C616.340724,44.5384983 616.448777,44.3562501 616.664887,44.32925 C617.799463,44.2077494 618.535575,43.9411271 618.873247,43.529375 C619.210918,43.1176229 619.379751,42.2435067 619.379751,40.907 L619.379751,22.09475 C619.379751,21.0012445 619.248061,20.2857517 618.984678,19.94825 C618.721294,19.6107483 618.110118,19.3880005 617.151131,19.28 C616.935022,19.2529999 616.826968,19.0842516 616.826968,18.77375 C616.826968,18.4227482 616.935022,18.24725 617.151131,18.24725 C619.460803,17.7072473 621.169395,16.9917545 622.276957,16.10075 C622.47956,15.9387492 622.648393,15.85775 622.783462,15.85775 C623.161653,15.85775 623.350747,15.9657489 623.350747,16.18175 C623.134637,18.3957611 623.026584,20.7447376 623.026584,23.22875 L623.026584,30.0935 C624.958064,28.2574908 626.862502,27.3395 628.739955,27.3395 C630.657928,27.3395 632.167297,27.8659947 633.268105,28.919 C634.368914,29.9720053 634.91931,31.3894911 634.91931,33.1715 L634.91931,40.907 C634.91931,42.2300066 635.09152,43.0973729 635.435945,43.509125 C635.780369,43.9208771 636.526612,44.1942493 637.674695,44.32925 C637.890804,44.3562501 637.998857,44.5384983 637.998857,44.876 Z M655.645475,33.941 C655.645475,34.3190019 655.402355,34.508 654.916109,34.508 L643.813529,34.508 C643.732488,35.2370036 643.691968,35.9929961 643.691968,36.776 C643.691968,38.9495109 644.208598,40.6201192 645.241872,41.787875 C646.275147,42.9556308 647.743995,43.5395 649.648462,43.5395 C650.607448,43.5395 651.573174,43.2830026 652.545667,42.77 C653.518161,42.2569974 654.301547,41.602254 654.895848,40.80575 L654.997149,40.76525 C655.118711,40.76525 655.236894,40.8394993 655.351702,40.988 C655.466511,41.1365007 655.523914,41.311999 655.523914,41.5145 C655.523914,41.7980014 655.091701,42.3886205 654.227262,43.286375 C653.362824,44.1841295 652.424111,44.8692476 651.411097,45.34175 C650.398083,45.8142524 649.337811,46.0505 648.230249,46.0505 C645.799015,46.0505 643.752757,45.1595089 642.091414,43.3775 C640.430071,41.5954911 639.599412,39.408513 639.599412,36.8165 C639.599412,34.1704868 640.413188,31.9295092 642.040764,30.0935 C643.66834,28.2574908 645.731481,27.3395 648.230249,27.3395 C650.323811,27.3395 652.083053,28.0246181 653.508026,29.394875 C654.932999,30.7651319 655.645475,32.2804917 655.645475,33.941 Z M651.958122,32.159 C651.958122,31.1464949 651.610326,30.3061283 650.914723,29.637875 C650.21912,28.9696217 649.324304,28.6355 648.230249,28.6355 C647.190221,28.6355 646.288652,29.0708706 645.525515,29.941625 C644.762377,30.8123794 644.245748,31.9564929 643.975611,33.374 L649.607941,33.212 C650.458873,33.1984999 651.063296,33.1175007 651.421227,32.969 C651.779159,32.8204993 651.958122,32.550502 651.958122,32.159 Z M461.45164,84.476 C461.45164,84.8540019 461.343587,85.043 461.127477,85.043 C460.209011,85.043 459.121726,85.0025004 457.865588,84.9215 C456.676985,84.8404996 455.670739,84.8 454.846821,84.8 C454.022903,84.8 453.070684,84.8404996 451.990136,84.9215 C450.85556,85.0025004 449.835808,85.043 448.930848,85.043 C448.714739,85.043 448.606686,84.8540019 448.606686,84.476 C448.606686,84.1384983 448.721492,83.9562501 448.951109,83.92925 C450.085684,83.7942493 450.92985,83.6086262 451.483631,83.372375 C452.037412,83.1361238 452.391962,82.8256269 452.547291,82.440875 C452.70262,82.0561231 452.780283,81.4115045 452.780283,80.507 L452.780283,71.4755 L437.321765,71.4755 L437.321765,80.507 C437.321765,81.4115045 437.399428,82.0561231 437.554757,82.440875 C437.710086,82.8256269 438.064635,83.1361238 438.618416,83.372375 C439.172197,83.6086262 440.023116,83.7942493 441.171199,83.92925 C441.387309,83.9562501 441.495362,84.1384983 441.495362,84.476 C441.495362,84.8540019 441.387309,85.043 441.171199,85.043 C440.26624,85.043 439.246488,85.0025004 438.111912,84.9215 C437.031363,84.8404996 436.079144,84.8 435.255226,84.8 C434.431308,84.8 433.418309,84.8404996 432.216199,84.9215 C430.960062,85.0025004 429.879529,85.043 428.97457,85.043 C428.75846,85.043 428.650407,84.8540019 428.650407,84.476 C428.650407,84.1384983 428.75846,83.9562501 428.97457,83.92925 C430.6089,83.7402491 431.719822,83.4365021 432.30737,83.018 C432.894918,82.5994979 433.188688,81.7625063 433.188688,80.507 L433.188688,61.45175 C433.188688,60.5067453 433.070505,59.8418769 432.834135,59.457125 C432.597765,59.0723731 432.182435,58.7686261 431.588133,58.545875 C430.993832,58.3231239 430.122653,58.1442507 428.97457,58.00925 C428.75846,58.00925 428.650407,57.8202519 428.650407,57.44225 C428.650407,57.0642481 428.75846,56.87525 428.97457,56.87525 C429.879529,56.87525 430.960062,56.9157496 432.216199,56.99675 C433.418309,57.0777504 434.431308,57.11825 435.255226,57.11825 C436.079144,57.11825 437.031363,57.0777504 438.111912,56.99675 C439.246488,56.9157496 440.26624,56.87525 441.171199,56.87525 C441.387309,56.87525 441.495362,57.0642481 441.495362,57.44225 C441.495362,57.8202519 441.387309,58.00925 441.171199,58.00925 C440.117664,58.1307506 439.320772,58.292749 438.780498,58.49525 C438.240224,58.697751 437.862037,58.9711233 437.645928,59.315375 C437.429818,59.6596267 437.321765,60.3717446 437.321765,61.45175 L437.321765,70.1795 L452.780283,70.1795 L452.780283,61.45175 C452.780283,60.5472455 452.70262,59.899252 452.547291,59.50775 C452.391962,59.116248 452.040789,58.8023762 451.493761,58.566125 C450.946734,58.3298738 450.092438,58.1442507 448.930848,58.00925 C448.714739,58.00925 448.606686,57.8202519 448.606686,57.44225 C448.606686,57.0642481 448.714739,56.87525 448.930848,56.87525 C449.835808,56.87525 450.85556,56.9157496 451.990136,56.99675 C453.070684,57.0777504 454.022903,57.11825 454.846821,57.11825 C455.670739,57.11825 456.676985,57.0777504 457.865588,56.99675 C459.121726,56.9157496 460.209011,56.87525 461.127477,56.87525 C461.343587,56.87525 461.45164,57.0642481 461.45164,57.44225 C461.45164,57.8202519 461.343587,58.00925 461.127477,58.00925 C459.979395,58.1442507 459.108216,58.3231239 458.513914,58.545875 C457.919612,58.7686261 457.504283,59.0723731 457.267913,59.457125 C457.031543,59.8418769 456.91336,60.5067453 456.91336,61.45175 L456.91336,80.507 C456.91336,81.7625063 457.207129,82.5994979 457.794678,83.018 C458.382226,83.4365021 459.493148,83.7402491 461.127477,83.92925 C461.343587,83.9562501 461.45164,84.1384983 461.45164,84.476 Z M470.548462,59.99375 C470.548462,60.5607528 470.342485,61.0534979 469.930526,61.472 C469.518567,61.8905021 469.022197,62.09975 468.441403,62.09975 C467.860608,62.09975 467.364238,61.8905021 466.952279,61.472 C466.54032,61.0534979 466.334344,60.5607528 466.334344,59.99375 C466.334344,59.399747 466.536944,58.900252 466.942149,58.49525 C467.347355,58.090248 467.847101,57.88775 468.441403,57.88775 C469.022197,57.88775 469.518567,58.090248 469.930526,58.49525 C470.342485,58.900252 470.548462,59.399747 470.548462,59.99375 Z M473.384887,84.476 C473.384887,84.8540019 473.276834,85.043 473.060724,85.043 C472.506943,85.043 471.797844,85.0025004 470.933405,84.9215 C469.960911,84.8404996 469.143759,84.8 468.481923,84.8 C467.80658,84.8 466.996181,84.8404996 466.050701,84.9215 C465.19977,85.0025004 464.497424,85.043 463.943643,85.043 C463.727533,85.043 463.61948,84.8540019 463.61948,84.476 C463.61948,84.1384983 463.727533,83.9562501 463.943643,83.92925 C465.091725,83.7807493 465.831214,83.504002 466.162132,83.099 C466.49305,82.693998 466.658507,81.8300066 466.658507,80.507 L466.658507,73.0145 C466.658507,71.9344946 466.520064,71.2257517 466.243173,70.88825 C465.966283,70.5507483 465.36186,70.3280005 464.429887,70.22 C464.213777,70.22 464.105724,70.0445018 464.105724,69.6935 C464.105724,69.3694984 464.213777,69.2075 464.429887,69.2075 C465.848107,68.8429982 467.009679,68.4548771 467.914638,68.043125 C468.819597,67.6313729 469.386877,67.2905014 469.616493,67.0205 C469.751562,66.8584992 469.900135,66.7775 470.062217,66.7775 C470.440409,66.7775 470.629502,66.8854989 470.629502,67.1015 C470.413393,70.1255151 470.305339,72.4744916 470.305339,74.1485 L470.305339,80.507 C470.305339,81.8300066 470.470796,82.693998 470.801714,83.099 C471.132632,83.504002 471.885628,83.7807493 473.060724,83.92925 C473.276834,83.9562501 473.384887,84.1384983 473.384887,84.476 Z M488.134299,79.8185 C488.134299,81.4655082 487.485979,82.8492444 486.189321,83.96975 C484.892663,85.0902556 483.325892,85.6505 481.488959,85.6505 C480.84063,85.6505 479.841138,85.5087514 478.490452,85.22525 C477.477438,85.022749 476.788599,84.9215 476.423914,84.9215 C476.315859,83.9764953 476.065986,82.5387597 475.674287,80.60825 C475.674287,80.405749 475.870134,80.3045 476.261833,80.3045 C476.585997,80.3045 476.781844,80.4124989 476.849378,80.6285 C477.160035,81.627505 477.774588,82.4982463 478.693054,83.24075 C479.61152,83.9832537 480.556986,84.3545 481.52948,84.3545 C482.542494,84.3545 483.329256,84.0777528 483.889791,83.52425 C484.450325,82.9707472 484.730588,82.194505 484.730588,81.1955 C484.730588,80.5609968 484.497598,80.0007524 484.031612,79.51475 C483.565625,79.0287476 482.556003,78.4280036 481.002715,77.7125 C478.96318,76.7809953 477.615891,75.9035041 476.960809,75.08 C476.305726,74.2564959 475.97819,73.2710057 475.97819,72.1235 C475.97819,70.7059929 476.592743,69.4876301 477.821867,68.468375 C479.05099,67.4491199 480.502955,66.9395 482.177805,66.9395 C482.880162,66.9395 483.866147,67.0609988 485.135792,67.304 C485.838148,67.4390007 486.297374,67.5065 486.513484,67.5065 C486.554005,69.099508 486.641798,70.4562444 486.776867,71.57675 C486.776867,71.779251 486.58102,71.8805 486.189321,71.8805 C485.85165,71.8805 485.662557,71.7725011 485.622036,71.5565 C485.473461,70.5709951 485.102028,69.7711281 484.507726,69.156875 C483.913425,68.5426219 483.204325,68.2355 482.380407,68.2355 C480.273338,68.2355 479.219819,69.1534908 479.219819,70.9895 C479.219819,71.6105031 479.469692,72.1842474 479.969446,72.71075 C480.469199,73.2372526 481.556485,73.9189958 483.231335,74.756 C485.230349,75.755005 486.547248,76.6189964 487.18207,77.348 C487.816892,78.0770036 488.134299,78.9004954 488.134299,79.8185 Z M503.410475,68.924 C503.410475,69.6530036 503.234889,70.0175 502.88371,70.0175 L496.846176,69.8555 L496.846176,79.5755 C496.846176,82.1135127 497.751122,83.3825 499.561041,83.3825 C500.68211,83.3825 501.701862,83.1192526 502.620328,82.59275 C502.728383,82.59275 502.826306,82.6636243 502.914101,82.805375 C503.001895,82.9471257 503.045792,83.0989992 503.045792,83.261 C503.045792,83.5985017 502.542669,84.0541221 501.536408,84.627875 C500.530148,85.2016279 499.398966,85.4885 498.142828,85.4885 C496.603047,85.4885 495.373941,85.0193797 494.455475,84.081125 C493.537009,83.1428703 493.077783,81.9042577 493.077783,80.36525 L493.077783,80.183 L493.158824,70.3415 C493.158824,69.9634981 492.996744,69.7745 492.672579,69.7745 L491.132805,69.7745 C490.835655,69.7745 490.687081,69.5990018 490.687081,69.248 C490.687081,68.9779987 490.808641,68.7755007 491.051765,68.6405 C492.929218,67.5334945 494.563522,65.9742601 495.954729,63.96275 C496.103304,63.7467489 496.292397,63.63875 496.522014,63.63875 C496.900206,63.63875 497.089299,63.7467489 497.089299,63.96275 L496.927217,67.8305 L502.88371,67.8305 C503.234889,67.8305 503.410475,68.1949964 503.410475,68.924 Z M524.663405,76.4165 C524.663405,79.1030134 523.788849,81.3136163 522.039712,83.048375 C520.290574,84.7831337 518.024833,85.6505 515.242421,85.6505 C512.460009,85.6505 510.190891,84.7797587 508.435,83.03825 C506.679109,81.2967413 505.801176,79.0895134 505.801176,76.4165 C505.801176,73.7029864 506.685862,71.445134 508.45526,69.642875 C510.224658,67.840616 512.487022,66.9395 515.242421,66.9395 C518.011326,66.9395 520.27369,67.837241 522.029581,69.63275 C523.785473,71.428259 524.663405,73.6894864 524.663405,76.4165 Z M520.591109,76.376 C520.591109,73.9054876 520.114999,71.9311324 519.162766,70.452875 C518.210533,68.9746176 516.903764,68.2355 515.242421,68.2355 C513.594585,68.2355 512.291193,68.9779926 511.332206,70.463 C510.373219,71.9480074 509.893733,73.9189877 509.893733,76.376 C509.893733,78.8195122 510.366466,80.7601178 511.311946,82.197875 C512.257426,83.6356322 513.567571,84.3545 515.242421,84.3545 C516.917271,84.3545 518.227416,83.6423821 519.172896,82.218125 C520.118376,80.7938679 520.591109,78.8465124 520.591109,76.376 Z M541.175452,68.9645 C541.175452,69.5045027 541.009996,69.9634981 540.679078,70.3415 C540.34816,70.7195019 539.946337,70.9085 539.473597,70.9085 C538.879296,70.9085 538.291756,70.712752 537.710962,70.32125 C537.251728,70.0107484 536.853282,69.8555 536.515611,69.8555 C535.637665,69.8555 534.73272,70.3684949 533.800747,71.3945 L533.800747,80.507 C533.800747,81.6815059 534.003346,82.5016227 534.408552,82.967375 C534.813758,83.4331273 535.678183,83.7537491 537.001855,83.92925 C537.217965,83.9562501 537.326018,84.1384983 537.326018,84.476 C537.326018,84.8540019 537.217965,85.043 537.001855,85.043 C536.448074,85.043 535.664688,85.0025004 534.651674,84.9215 C533.530605,84.8404996 532.639166,84.8 531.97733,84.8 C531.301988,84.8 530.484835,84.8404996 529.525848,84.9215 C528.66141,85.0025004 527.95231,85.043 527.398529,85.043 C527.18242,85.043 527.074367,84.8540019 527.074367,84.476 C527.074367,84.1384983 527.18242,83.9562501 527.398529,83.92925 C528.573626,83.7807493 529.326622,83.504002 529.65754,83.099 C529.988458,82.693998 530.153914,81.8300066 530.153914,80.507 L530.153914,73.0145 C530.153914,71.9344946 530.015471,71.2257517 529.73858,70.88825 C529.46169,70.5507483 528.84376,70.3280005 527.884774,70.22 C527.668664,70.22 527.560611,70.0445018 527.560611,69.6935 C527.560611,69.3694984 527.668664,69.2075 527.884774,69.2075 C529.221952,68.8699983 530.326121,68.4953771 531.197313,68.083625 C532.068505,67.6718729 532.639162,67.3175015 532.909299,67.0205 C533.071381,66.8584992 533.233461,66.7775 533.395543,66.7775 C533.773735,66.7775 533.962828,66.8854989 533.962828,67.1015 L533.800747,69.653 C534.881295,68.653995 535.809877,67.952002 536.586521,67.547 C537.363166,67.141998 538.136421,66.9395 538.906312,66.9395 C539.527628,66.9395 540.06114,67.141998 540.506867,67.547 C540.952593,67.952002 541.175452,68.4244973 541.175452,68.9645 Z M549.117443,59.99375 C549.117443,60.5607528 548.911467,61.0534979 548.499508,61.472 C548.087549,61.8905021 547.591179,62.09975 547.010385,62.09975 C546.42959,62.09975 545.93322,61.8905021 545.521261,61.472 C545.109302,61.0534979 544.903326,60.5607528 544.903326,59.99375 C544.903326,59.399747 545.105926,58.900252 545.511131,58.49525 C545.916337,58.090248 546.416083,57.88775 547.010385,57.88775 C547.591179,57.88775 548.087549,58.090248 548.499508,58.49525 C548.911467,58.900252 549.117443,59.399747 549.117443,59.99375 Z M551.953869,84.476 C551.953869,84.8540019 551.845816,85.043 551.629706,85.043 C551.075925,85.043 550.366826,85.0025004 549.502387,84.9215 C548.529893,84.8404996 547.712741,84.8 547.050905,84.8 C546.375562,84.8 545.565163,84.8404996 544.619683,84.9215 C543.768751,85.0025004 543.066405,85.043 542.512624,85.043 C542.296515,85.043 542.188462,84.8540019 542.188462,84.476 C542.188462,84.1384983 542.296515,83.9562501 542.512624,83.92925 C543.660707,83.7807493 544.400196,83.504002 544.731114,83.099 C545.062032,82.693998 545.227489,81.8300066 545.227489,80.507 L545.227489,73.0145 C545.227489,71.9344946 545.089046,71.2257517 544.812155,70.88825 C544.535264,70.5507483 543.930842,70.3280005 542.998869,70.22 C542.782759,70.22 542.674706,70.0445018 542.674706,69.6935 C542.674706,69.3694984 542.782759,69.2075 542.998869,69.2075 C544.417089,68.8429982 545.578661,68.4548771 546.48362,68.043125 C547.388579,67.6313729 547.955859,67.2905014 548.185475,67.0205 C548.320544,66.8584992 548.469117,66.7775 548.631199,66.7775 C549.009391,66.7775 549.198484,66.8854989 549.198484,67.1015 C548.982374,70.1255151 548.874321,72.4744916 548.874321,74.1485 L548.874321,80.507 C548.874321,81.8300066 549.039778,82.693998 549.370696,83.099 C549.701614,83.504002 550.45461,83.7807493 551.629706,83.92925 C551.845816,83.9562501 551.953869,84.1384983 551.953869,84.476 Z M569.580226,70.139 C569.580226,71.2460055 569.026454,71.7995 567.918891,71.7995 C567.446151,71.7995 567.057835,71.698251 566.753931,71.49575 C566.450027,71.293249 566.14275,70.8545034 565.832093,70.1795 C565.467408,69.382996 565.079091,68.8598762 564.667132,68.610125 C564.255173,68.3603738 563.718284,68.2355 563.056448,68.2355 C561.422119,68.2355 560.17613,68.9138682 559.318445,70.270625 C558.460759,71.6273818 558.031923,73.608487 558.031923,76.214 C558.031923,78.3875109 558.572189,80.1391184 559.652738,81.468875 C560.733286,82.7986316 562.178498,83.4635 563.988416,83.4635 C566.041458,83.4635 567.66901,82.8222564 568.87112,81.53975 L568.972421,81.49925 C569.093983,81.49925 569.212166,81.5768742 569.326974,81.732125 C569.441782,81.8873758 569.499186,82.0594991 569.499186,82.2485 C569.499186,82.5185014 569.104116,82.9842467 568.313965,83.64575 C567.523814,84.3072533 566.659388,84.8067483 565.720662,85.14425 C564.781935,85.4817517 563.78582,85.6505 562.732285,85.6505 C560.314558,85.6505 558.244664,84.7628839 556.52254,82.987625 C554.800416,81.2123661 553.939367,78.9680136 553.939367,76.2545 C553.939367,73.5679866 554.840936,71.3438838 556.644101,69.582125 C558.447266,67.8203662 560.584694,66.9395 563.056448,66.9395 C564.879873,66.9395 566.423008,67.2533719 567.685899,67.881125 C568.94879,68.5088781 569.580226,69.2614956 569.580226,70.139 Z M600.436482,76.9025 C600.436482,79.5890134 599.639589,81.7253671 598.045781,83.311625 C596.451972,84.8978829 594.297661,85.691 591.582783,85.691 C590.380673,85.691 588.942214,85.4750022 587.267364,85.043 C585.74109,84.637998 584.491724,84.4355 583.519231,84.4355 C583.43819,82.1404885 583.27611,79.8455115 583.032986,77.5505 C583.032986,77.3344989 583.235586,77.2265 583.640792,77.2265 C583.924436,77.2265 584.100022,77.3344989 584.167557,77.5505 C584.896927,80.0615126 585.828886,81.8299949 586.963462,82.856 C588.098037,83.8820051 589.691822,84.395 591.744864,84.395 C593.379194,84.395 594.645442,83.9225047 595.543648,82.9775 C596.441854,82.0324953 596.89095,80.7095085 596.89095,79.0085 C596.89095,77.9149945 596.499257,76.8991297 595.71586,75.960875 C594.932462,75.0226203 593.264391,73.8110074 590.711595,72.326 C587.780608,70.6384916 585.862663,69.2075059 584.957704,68.033 C584.052744,66.8584941 583.600271,65.5557572 583.600271,64.12475 C583.600271,61.924239 584.414047,60.0646326 586.041623,58.545875 C587.669199,57.0271174 589.73234,56.26775 592.231109,56.26775 C593.176588,56.26775 594.263874,56.3959987 595.492998,56.6525 C596.64108,56.8820011 597.633819,56.99675 598.471244,56.99675 C598.633327,59.3727619 598.849433,61.465241 599.11957,63.27425 C599.11957,63.4902511 598.943984,63.59825 598.592805,63.59825 C598.214613,63.59825 598.00526,63.4902511 597.96474,63.27425 C597.519014,61.2492399 596.843681,59.7912545 595.938722,58.90025 C595.033762,58.0092455 593.784397,57.56375 592.190588,57.56375 C590.67782,57.56375 589.475728,58.0092455 588.584276,58.90025 C587.692824,59.7912545 587.247104,60.9927424 587.247104,62.50475 C587.247104,63.4632548 587.621914,64.3778706 588.371544,65.248625 C589.121175,66.1193794 590.745349,67.2837427 593.244118,68.74175 C596.202119,70.4697586 598.140323,71.9142442 599.05879,73.07525 C599.977256,74.2362558 600.436482,75.511993 600.436482,76.9025 Z M612.248167,84.4355 C612.248167,84.8135019 612.140114,85.0025 611.924005,85.0025 C611.370223,85.0025 610.661124,84.9687503 609.796686,84.90125 C608.824192,84.8337497 608.00704,84.8 607.345204,84.8 C606.696875,84.8 605.893229,84.8337497 604.934242,84.90125 C604.069803,84.9687503 603.360704,85.0025 602.806923,85.0025 C602.590813,85.0025 602.48276,84.8135019 602.48276,84.4355 C602.48276,84.0979983 602.590813,83.9157501 602.806923,83.88875 C603.955006,83.7537493 604.701248,83.4803771 605.045673,83.068625 C605.390098,82.6568729 605.562308,81.7895066 605.562308,80.4665 L605.562308,61.65425 C605.562308,60.5607445 605.427241,59.8452517 605.157104,59.50775 C604.886967,59.1702483 604.265661,58.9475005 603.293167,58.8395 C603.077058,58.8124999 602.969005,58.6437516 602.969005,58.33325 C602.969005,58.0092484 603.077058,57.84725 603.293167,57.84725 C604.711387,57.4827482 605.872959,57.0946271 606.777919,56.682875 C607.682878,56.2711229 608.250157,55.9235014 608.479774,55.64 C608.614842,55.4914993 608.763415,55.41725 608.925498,55.41725 C609.30369,55.41725 609.492783,55.5252489 609.492783,55.74125 C609.276673,58.7652651 609.16862,61.1142416 609.16862,62.78825 L609.16862,80.4665 C609.16862,81.7895066 609.337453,82.6568729 609.675124,83.068625 C610.012796,83.4803771 610.762415,83.7537493 611.924005,83.88875 C612.140114,83.9157501 612.248167,84.0979983 612.248167,84.4355 Z M626.876018,85.4885 C626.119634,85.4885 625.461185,85.3028769 624.90065,84.931625 C624.340116,84.5603731 623.958553,84.0575032 623.75595,83.423 C622.310717,84.9080074 620.419785,85.6505 618.0831,85.6505 C616.867483,85.6505 615.874744,85.2758787 615.104853,84.526625 C614.334962,83.7773713 613.950023,82.8425056 613.950023,81.722 C613.950023,78.9544862 617.232139,76.7135086 623.796471,74.999 L623.918032,71.84 L623.918032,71.73875 C623.918032,70.7667451 623.678289,69.9938779 623.198795,69.420125 C622.719302,68.8463721 622.081113,68.5595 621.284208,68.5595 C620.487304,68.5595 619.811971,68.7518731 619.25819,69.136625 C618.704409,69.5213769 618.420769,70.0039971 618.407262,70.5845 C618.393756,71.4485043 618.167519,72.1234976 617.728546,72.6095 C617.289574,73.0955024 616.705411,73.3385 615.976041,73.3385 C615.543821,73.3385 615.192648,73.2102513 614.922511,72.95375 C614.652374,72.6972487 614.517308,72.3530022 614.517308,71.921 C614.517308,70.8814948 615.462773,69.7913807 617.353733,68.650625 C619.244693,67.5098693 621.000558,66.9395 622.62138,66.9395 C624.08012,66.9395 625.261952,67.3714957 626.166912,68.2355 C627.071871,69.0995043 627.524344,70.2604927 627.524344,71.7185 L627.524344,71.9615 L627.240701,81.1145 L627.240701,81.25625 C627.240701,82.6737571 627.699928,83.3825 628.618394,83.3825 C629.06412,83.3825 629.584126,83.1125027 630.178428,82.5725 L630.320249,82.532 C630.428304,82.532 630.529604,82.6028743 630.624152,82.744625 C630.7187,82.8863757 630.765973,83.0382492 630.765973,83.20025 C630.765973,83.591752 630.357397,84.0709972 629.540232,84.638 C628.723067,85.2050028 627.835005,85.4885 626.876018,85.4885 Z M623.75595,76.376 C619.811949,77.2670045 617.839977,78.7384897 617.839977,80.7905 C617.839977,82.7075096 618.582843,83.666 620.068597,83.666 C620.784461,83.666 621.490183,83.4871268 622.185786,83.129375 C622.881389,82.7716232 623.350745,82.3295026 623.593869,81.803 L623.75595,76.376 Z M649.709242,68.1545 C649.709242,68.5055018 649.601189,68.6944999 649.385079,68.7215 C648.250503,68.8430006 647.490754,69.1129979 647.105809,69.5315 C646.720863,69.9500021 646.238001,70.8139935 645.657206,72.1235 L639.842534,85.367 C639.747986,85.5830011 639.585906,85.691 639.35629,85.691 C639.113166,85.691 638.944333,85.5830011 638.849785,85.367 L633.399796,72.1235 C632.900043,70.8814938 632.393543,70.0310023 631.880283,69.572 C631.367022,69.1129977 630.67143,68.8227506 629.793484,68.70125 C629.577374,68.6742499 629.469321,68.4920017 629.469321,68.1545 C629.469321,67.7764981 629.577374,67.5875 629.793484,67.5875 C630.347265,67.5875 631.036104,67.6279996 631.860023,67.709 C632.751475,67.7900004 633.521354,67.8305 634.169683,67.8305 C634.831519,67.8305 635.635165,67.7900004 636.580645,67.709 C637.41807,67.6279996 638.113662,67.5875 638.667443,67.5875 C638.883553,67.5875 638.991606,67.7764981 638.991606,68.1545 C638.991606,68.4920017 638.883553,68.6742499 638.667443,68.70125 C637.857032,68.8092505 637.296506,68.9543741 636.985848,69.136625 C636.675191,69.3188759 636.519864,69.5854982 636.519864,69.9365 C636.519864,70.3550021 636.722464,71.0772449 637.12767,72.10325 L640.450339,80.7095 L643.813529,72.1235 C644.218735,71.1109949 644.421335,70.3820022 644.421335,69.9365 C644.421335,69.5854982 644.269385,69.3188759 643.965481,69.136625 C643.661577,68.9543741 643.124687,68.8092505 642.354796,68.70125 C642.138687,68.6742499 642.030633,68.4920017 642.030633,68.1545 C642.030633,67.7764981 642.138687,67.5875 642.354796,67.5875 C642.922084,67.5875 643.556897,67.6279996 644.259253,67.709 C644.921089,67.7900004 645.515382,67.8305 646.042149,67.8305 C646.312286,67.8305 646.751253,67.7967503 647.359061,67.72925 C648.196486,67.6347495 648.871819,67.5875 649.385079,67.5875 C649.601189,67.5875 649.709242,67.7764981 649.709242,68.1545 Z M666.383371,73.541 C666.383371,73.9190019 666.140251,74.108 665.654005,74.108 L654.551425,74.108 C654.470384,74.8370036 654.429864,75.5929961 654.429864,76.376 C654.429864,78.5495109 654.946494,80.2201192 655.979768,81.387875 C657.013042,82.5556308 658.481891,83.1395 660.386357,83.1395 C661.345344,83.1395 662.31107,82.8830026 663.283563,82.37 C664.256057,81.8569974 665.039443,81.202254 665.633744,80.40575 L665.735045,80.36525 C665.856607,80.36525 665.97479,80.4394993 666.089598,80.588 C666.204407,80.7365007 666.26181,80.911999 666.26181,81.1145 C666.26181,81.3980014 665.829597,81.9886205 664.965158,82.886375 C664.10072,83.7841295 663.162007,84.4692476 662.148993,84.94175 C661.135979,85.4142524 660.075707,85.6505 658.968145,85.6505 C656.536911,85.6505 654.490653,84.7595089 652.82931,82.9775 C651.167967,81.1954911 650.337308,79.008513 650.337308,76.4165 C650.337308,73.7704868 651.151083,71.5295092 652.77866,69.6935 C654.406236,67.8574908 656.469377,66.9395 658.968145,66.9395 C661.061707,66.9395 662.820949,67.6246181 664.245922,68.994875 C665.670895,70.3651319 666.383371,71.8804917 666.383371,73.541 Z M662.696018,71.759 C662.696018,70.7464949 662.348222,69.9061283 661.652619,69.237875 C660.957016,68.5696217 660.0622,68.2355 658.968145,68.2355 C657.928117,68.2355 657.026548,68.6708706 656.263411,69.541625 C655.500273,70.4123794 654.983644,71.5564929 654.713507,72.974 L660.345837,72.812 C661.196769,72.7984999 661.801192,72.7175007 662.159123,72.569 C662.517055,72.4204993 662.696018,72.150502 662.696018,71.759 Z M706.802432,63.5375 C706.802432,63.7940013 706.559312,63.92225 706.073066,63.92225 C705.856956,63.92225 705.721889,63.8277509 705.667862,63.63875 C705.087067,61.7352405 704.256408,60.3886289 703.17586,59.598875 C702.095311,58.8091211 700.494773,58.41425 698.374197,58.41425 L696.46974,58.41425 C695.807904,58.41425 695.355431,58.5222489 695.112308,58.73825 C694.869184,58.9542511 694.747624,59.359247 694.747624,59.95325 L694.747624,80.507 C694.747624,81.4385047 694.865808,82.0966231 695.102178,82.481375 C695.338548,82.8661269 695.757254,83.1698739 696.358309,83.392625 C696.959364,83.6153761 697.820413,83.7942493 698.941482,83.92925 C699.157592,83.9562501 699.265645,84.1384983 699.265645,84.476 C699.265645,84.8540019 699.157592,85.043 698.941482,85.043 C698.036523,85.043 696.95599,85.0025004 695.699853,84.9215 C694.51125,84.8404996 693.518511,84.8 692.721606,84.8 C691.897688,84.8 690.884689,84.8404996 689.682579,84.9215 C688.426442,85.0025004 687.34591,85.043 686.44095,85.043 C686.224841,85.043 686.116787,84.8540019 686.116787,84.476 C686.116787,84.1384983 686.224841,83.9562501 686.44095,83.92925 C688.07528,83.7402491 689.186202,83.4365021 689.77375,83.018 C690.361298,82.5994979 690.655068,81.7625063 690.655068,80.507 L690.655068,59.95325 C690.655068,59.359247 690.533508,58.9542511 690.290385,58.73825 C690.047261,58.5222489 689.588035,58.41425 688.912692,58.41425 L687.332398,58.41425 C685.427932,58.41425 683.69908,58.8968702 682.145792,59.862125 C680.592504,60.8273798 679.579505,62.0794923 679.106765,63.6185 C679.03923,63.821001 678.890657,63.92225 678.661041,63.92225 C678.201808,63.92225 677.972195,63.7737515 677.972195,63.47675 C678.728578,61.4382398 679.444431,59.1297629 680.119774,56.55125 C681.956706,56.9292519 686.157275,57.11825 692.721606,57.11825 C699.461527,57.11825 703.749889,56.9292519 705.586821,56.55125 C705.775917,58.3062588 706.181117,60.6349855 706.802432,63.5375 Z M721.896267,68.9645 C721.896267,69.5045027 721.73081,69.9634981 721.399893,70.3415 C721.068975,70.7195019 720.667152,70.9085 720.194412,70.9085 C719.60011,70.9085 719.012571,70.712752 718.431776,70.32125 C717.972543,70.0107484 717.574097,69.8555 717.236425,69.8555 C716.35848,69.8555 715.453534,70.3684949 714.521561,71.3945 L714.521561,80.507 C714.521561,81.6815059 714.724161,82.5016227 715.129367,82.967375 C715.534572,83.4331273 716.398998,83.7537491 717.72267,83.92925 C717.938779,83.9562501 718.046833,84.1384983 718.046833,84.476 C718.046833,84.8540019 717.938779,85.043 717.72267,85.043 C717.168889,85.043 716.385503,85.0025004 715.372489,84.9215 C714.25142,84.8404996 713.359981,84.8 712.698145,84.8 C712.022802,84.8 711.20565,84.8404996 710.246663,84.9215 C709.382224,85.0025004 708.673125,85.043 708.119344,85.043 C707.903234,85.043 707.795181,84.8540019 707.795181,84.476 C707.795181,84.1384983 707.903234,83.9562501 708.119344,83.92925 C709.29444,83.7807493 710.047436,83.504002 710.378354,83.099 C710.709272,82.693998 710.874729,81.8300066 710.874729,80.507 L710.874729,73.0145 C710.874729,71.9344946 710.736285,71.2257517 710.459395,70.88825 C710.182504,70.5507483 709.564575,70.3280005 708.605588,70.22 C708.389479,70.22 708.281425,70.0445018 708.281425,69.6935 C708.281425,69.3694984 708.389479,69.2075 708.605588,69.2075 C709.942767,68.8699983 711.046936,68.4953771 711.918128,68.083625 C712.78932,67.6718729 713.359976,67.3175015 713.630113,67.0205 C713.792195,66.8584992 713.954275,66.7775 714.116357,66.7775 C714.494549,66.7775 714.683643,66.8854989 714.683643,67.1015 L714.521561,69.653 C715.602109,68.653995 716.530692,67.952002 717.307336,67.547 C718.08398,67.141998 718.857236,66.9395 719.627127,66.9395 C720.248442,66.9395 720.781955,67.141998 721.227681,67.547 C721.673407,67.952002 721.896267,68.4244973 721.896267,68.9645 Z M736.362036,85.4885 C735.605652,85.4885 734.947203,85.3028769 734.386669,84.931625 C733.826134,84.5603731 733.444571,84.0575032 733.241968,83.423 C731.796735,84.9080074 729.905804,85.6505 727.569118,85.6505 C726.353501,85.6505 725.360762,85.2758787 724.590871,84.526625 C723.82098,83.7773713 723.436041,82.8425056 723.436041,81.722 C723.436041,78.9544862 726.718157,76.7135086 733.282489,74.999 L733.40405,71.84 L733.40405,71.73875 C733.40405,70.7667451 733.164307,69.9938779 732.684813,69.420125 C732.20532,68.8463721 731.567131,68.5595 730.770226,68.5595 C729.973322,68.5595 729.297989,68.7518731 728.744208,69.136625 C728.190427,69.5213769 727.906787,70.0039971 727.893281,70.5845 C727.879774,71.4485043 727.653537,72.1234976 727.214564,72.6095 C726.775592,73.0955024 726.191429,73.3385 725.462059,73.3385 C725.029839,73.3385 724.678667,73.2102513 724.408529,72.95375 C724.138392,72.6972487 724.003326,72.3530022 724.003326,71.921 C724.003326,70.8814948 724.948791,69.7913807 726.839751,68.650625 C728.730711,67.5098693 730.486576,66.9395 732.107398,66.9395 C733.566139,66.9395 734.747971,67.3714957 735.65293,68.2355 C736.557889,69.0995043 737.010362,70.2604927 737.010362,71.7185 L737.010362,71.9615 L736.726719,81.1145 L736.726719,81.25625 C736.726719,82.6737571 737.185946,83.3825 738.104412,83.3825 C738.550138,83.3825 739.070144,83.1125027 739.664446,82.5725 L739.806267,82.532 C739.914322,82.532 740.015622,82.6028743 740.11017,82.744625 C740.204718,82.8863757 740.251991,83.0382492 740.251991,83.20025 C740.251991,83.591752 739.843415,84.0709972 739.02625,84.638 C738.209085,85.2050028 737.321023,85.4885 736.362036,85.4885 Z M733.241968,76.376 C729.297967,77.2670045 727.325995,78.7384897 727.325995,80.7905 C727.325995,82.7075096 728.068861,83.666 729.554615,83.666 C730.270479,83.666 730.976201,83.4871268 731.671804,83.129375 C732.367407,82.7716232 732.836763,82.3295026 733.079887,81.803 L733.241968,76.376 Z M761.667002,83.7065 C761.667002,83.9900014 761.558949,84.1452499 761.342839,84.17225 C760.572949,84.2667505 759.68151,84.4557486 758.668495,84.73925 C757.655481,85.0227514 756.865342,85.3062486 756.298054,85.58975 C756.000903,85.7382507 755.784797,85.8125 755.649729,85.8125 C755.433619,85.8125 755.325566,85.7045011 755.325566,85.4885 L755.487647,83.3015 C754.05592,84.8675078 752.232522,85.6505 750.017398,85.6505 C747.680712,85.6505 745.691858,84.752759 744.050775,82.95725 C742.409692,81.161741 741.589163,79.0085126 741.589163,76.4975 C741.589163,73.6489858 742.497485,71.3438838 744.314157,69.582125 C746.130829,67.8203662 748.410077,66.9395 751.151968,66.9395 C752.718763,66.9395 754.163975,67.4254951 755.487647,68.3975 L755.487647,61.65425 C755.487647,60.5607445 755.352581,59.8452517 755.082443,59.50775 C754.812306,59.1702483 754.191,58.9475005 753.218507,58.8395 C753.002397,58.8124999 752.894344,58.6437516 752.894344,58.33325 C752.894344,57.9822482 753.002397,57.80675 753.218507,57.80675 C754.488151,57.5097485 755.588943,57.1520021 756.520916,56.7335 C757.452889,56.3149979 758.080949,55.9437516 758.405113,55.61975 C758.540182,55.4847493 758.682002,55.41725 758.830577,55.41725 C759.208769,55.41725 759.397862,55.5252489 759.397862,55.74125 C759.181752,58.6842647 759.073699,61.0332412 759.073699,62.78825 L759.073699,80.6285 C759.073699,81.5600047 759.208766,82.1843734 759.478903,82.501625 C759.74904,82.8188766 760.370346,83.0449993 761.342839,83.18 C761.558949,83.18 761.667002,83.3554982 761.667002,83.7065 Z M755.487647,81.5195 L755.487647,71.1515 C755.487647,70.4494965 755.079071,69.7880031 754.261906,69.167 C753.444741,68.5459969 752.556679,68.2355 751.597692,68.2355 C747.653691,68.2355 745.681719,71.0029723 745.681719,76.538 C745.681719,78.7250109 746.154452,80.5407428 747.099932,81.98525 C748.045412,83.4297572 749.288024,84.152 750.827805,84.152 C751.705751,84.152 752.502643,83.952877 753.218507,83.554625 C753.93437,83.156373 754.690743,82.4780048 755.487647,81.5195 Z M779.394661,73.541 C779.394661,73.9190019 779.151541,74.108 778.665294,74.108 L767.562715,74.108 C767.481674,74.8370036 767.441154,75.5929961 767.441154,76.376 C767.441154,78.5495109 767.957783,80.2201192 768.991058,81.387875 C770.024332,82.5556308 771.493181,83.1395 773.397647,83.1395 C774.356634,83.1395 775.322359,82.8830026 776.294853,82.37 C777.267346,81.8569974 778.050732,81.202254 778.645034,80.40575 L778.746335,80.36525 C778.867897,80.36525 778.98608,80.4394993 779.100888,80.588 C779.215696,80.7365007 779.2731,80.911999 779.2731,81.1145 C779.2731,81.3980014 778.840887,81.9886205 777.976448,82.886375 C777.112009,83.7841295 776.173297,84.4692476 775.160283,84.94175 C774.147269,85.4142524 773.086996,85.6505 771.979434,85.6505 C769.548201,85.6505 767.501943,84.7595089 765.8406,82.9775 C764.179256,81.1954911 763.348597,79.008513 763.348597,76.4165 C763.348597,73.7704868 764.162373,71.5295092 765.789949,69.6935 C767.417525,67.8574908 769.480666,66.9395 771.979434,66.9395 C774.072997,66.9395 775.832238,67.6246181 777.257212,68.994875 C778.682185,70.3651319 779.394661,71.8804917 779.394661,73.541 Z M775.707308,71.759 C775.707308,70.7464949 775.359511,69.9061283 774.663908,69.237875 C773.968305,68.5696217 773.07349,68.2355 771.979434,68.2355 C770.939407,68.2355 770.037838,68.6708706 769.2747,69.541625 C768.511563,70.4123794 767.994933,71.5564929 767.724796,72.974 L773.357127,72.812 C774.208059,72.7984999 774.812481,72.7175007 775.170413,72.569 C775.528345,72.4204993 775.707308,72.150502 775.707308,71.759 Z" id="PeopleoftheHistoricSlaveTrade"></path>
            </g>
        </g>
    </g>
</svg>