<?xml version="1.0" encoding="UTF-8"?>
<svg width="897px" height="111px" viewBox="0 0 897 111" version="1.1" xmlns="http://www.w3.org/2000/svg" xmlns:xlink="http://www.w3.org/1999/xlink">
    <title>Group</title>
    <g id="Finals" stroke="none" stroke-width="1" fill="none" fill-rule="evenodd">
        <g id="Main-Hub" transform="translate(-57.000000, -144.000000)" fill="#FBF9F5" fill-rule="nonzero">
            <g id="Group" transform="translate(57.000000, 144.937500)">
                <path d="M438.868,7.10542736e-14 C439.380836,7.10542736e-14 439.803507,0.38604019 439.861272,0.883378875 L439.868,1 L439.868,108.5625 C439.868,109.114785 439.420285,109.5625 438.868,109.5625 C438.355164,109.5625 437.932493,109.17646 437.874728,108.679121 L437.868,108.5625 L437.868,1 C437.868,0.44771525 438.315715,7.10542736e-14 438.868,7.10542736e-14 Z" id="Line"></path>
                <path d="M58.806,93.7105 C60.642,88.0585 63.018,82.1185 65.934,75.8905 C65.934,75.4945 65.736,75.1615 65.34,74.8915 C64.944,74.6215 64.494,74.4865 63.99,74.4865 C63.522,74.4865 63.216,74.6485 63.072,74.9725 C61.092,79.1485 57.996,82.6315 53.784,85.4215 C49.572,88.2115 45.324,89.6065 41.04,89.6065 L41.04,89.6065 L29.268,89.6065 C25.092,89.6065 23.004,87.4825 23.004,83.2345 L23.004,83.2345 L23.004,56.6665 L36.612,56.6665 C40.032,56.6665 42.417,57.5485 43.767,59.3125 C45.117,61.0765 46.062,64.1545 46.602,68.5465 C46.602,69.1225 47.106,69.4105 48.114,69.4105 C49.122,69.4105 49.626,69.1225 49.626,68.5465 C49.626,66.7465 49.518,64.4425 49.302,61.6345 C49.086,59.0065 48.978,56.8465 48.978,55.1545 C48.978,53.4985 49.086,51.3565 49.302,48.7285 C49.518,45.9925 49.626,43.7245 49.626,41.9245 C49.626,41.3485 49.122,41.0605 48.114,41.0605 C47.106,41.0605 46.602,41.3485 46.602,41.9245 C46.098,46.1365 45.207,49.0705 43.929,50.7265 C42.651,52.3825 40.212,53.2105 36.612,53.2105 L36.612,53.2105 L23.004,53.2105 L23.004,29.1805 C23.004,24.8605 25.092,22.7005 29.268,22.7005 L29.268,22.7005 L40.176,22.7005 C48.888,22.7005 54.576,26.9485 57.24,35.4445 C57.384,35.9485 57.762,36.2005 58.374,36.2005 C59.634,36.2005 60.264,35.8405 60.264,35.1205 C58.68,29.6845 57.474,24.1765 56.646,18.5965 C47.61,19.0285 38.304,19.2445 28.728,19.2445 C19.224,19.2445 9.936,19.0285 0.864,18.5965 C0.288,18.5965 -8.52651283e-14,19.1005 -8.52651283e-14,20.1085 C-8.52651283e-14,21.1165 0.288,21.6205 0.864,21.6205 C3.924,21.9805 6.246,22.4665 7.83,23.0785 C9.414,23.6905 10.503,24.5095 11.097,25.5355 C11.691,26.5615 11.988,28.3165 11.988,30.8005 L11.988,30.8005 L11.988,81.6145 C11.988,84.1345 11.673,85.8985 11.043,86.9065 C10.413,87.9145 9.306,88.7155 7.722,89.3095 C6.138,89.9035 3.852,90.3805 0.864,90.7405 C0.288,90.8125 -8.52651283e-14,91.2985 -8.52651283e-14,92.1985 C-8.52651283e-14,93.2065 0.288,93.7105 0.864,93.7105 C14.472,93.2785 24.12,93.0625 29.808,93.0625 C35.568,93.0625 45.234,93.2785 58.806,93.7105 Z M124.902,93.7105 C125.478,93.7105 125.766,93.2065 125.766,92.1985 C125.766,91.2985 125.478,90.8125 124.902,90.7405 C121.842,90.3445 119.871,89.6065 118.989,88.5265 C118.107,87.4465 117.666,85.1425 117.666,81.6145 L117.666,81.6145 L117.666,60.9865 C117.666,56.2345 116.289,52.4545 113.535,49.6465 C110.781,46.8385 106.956,45.4345 102.06,45.4345 C97.596,45.4345 92.772,47.8465 87.588,52.6705 L87.588,52.6705 L88.02,45.8665 C88.02,45.2905 87.516,45.0025 86.508,45.0025 C86.076,45.0025 85.68,45.2185 85.32,45.6505 C84.708,46.3705 83.214,47.2975 80.838,48.4315 C78.462,49.5655 75.492,50.5825 71.928,51.4825 C71.352,51.4825 71.064,51.9145 71.064,52.7785 C71.064,53.7145 71.352,54.1825 71.928,54.1825 C74.484,54.4705 76.131,55.0645 76.869,55.9645 C77.607,56.8645 77.976,58.7545 77.976,61.6345 L77.976,61.6345 L77.976,81.6145 C77.976,85.1065 77.526,87.4015 76.626,88.4995 C75.726,89.5975 73.728,90.3445 70.632,90.7405 C70.056,90.8125 69.768,91.2985 69.768,92.1985 C69.768,93.2065 70.056,93.7105 70.632,93.7105 C72.108,93.7105 73.908,93.6025 76.032,93.3865 C78.336,93.1705 80.352,93.0625 82.08,93.0625 C83.844,93.0625 85.896,93.1705 88.236,93.3865 C90.36,93.6025 92.16,93.7105 93.636,93.7105 C94.212,93.7105 94.5,93.2065 94.5,92.1985 C94.5,91.2985 94.212,90.8125 93.636,90.7405 C91.152,90.4525 89.523,89.7505 88.749,88.6345 C87.975,87.5185 87.588,85.1785 87.588,81.6145 L87.588,81.6145 L87.588,57.3145 C89.424,55.2985 91.143,53.8945 92.745,53.1025 C94.347,52.3105 96.192,51.9145 98.28,51.9145 C101.592,51.9145 104.04,52.8505 105.624,54.7225 C107.208,56.5945 108,59.5465 108,63.5785 L108,63.5785 L108,81.6145 C108,85.1785 107.613,87.5185 106.839,88.6345 C106.065,89.7505 104.436,90.4525 101.952,90.7405 C101.376,90.8125 101.088,91.2985 101.088,92.1985 C101.088,93.2065 101.376,93.7105 101.952,93.7105 C103.392,93.7105 105.174,93.6025 107.298,93.3865 C109.638,93.1705 111.708,93.0625 113.508,93.0625 C115.272,93.0625 117.306,93.1705 119.61,93.3865 C121.698,93.6025 123.462,93.7105 124.902,93.7105 Z M146.448,95.3305 C151.344,95.3305 155.52,93.8365 158.976,90.8485 C162.432,87.8605 164.16,84.1705 164.16,79.7785 C164.16,77.3305 163.314,75.1345 161.622,73.1905 C159.93,71.2465 156.42,68.9425 151.092,66.2785 C146.628,64.0465 143.73,62.2285 142.398,60.8245 C141.066,59.4205 140.4,57.8905 140.4,56.2345 C140.4,51.3385 143.208,48.8905 148.824,48.8905 C151.02,48.8905 152.91,49.7095 154.494,51.3475 C156.078,52.9855 157.068,55.1185 157.464,57.7465 C157.572,58.3225 158.076,58.6105 158.976,58.6105 C160.02,58.6105 160.542,58.3405 160.542,57.8005 C160.182,54.8125 159.948,51.1945 159.84,46.9465 C159.264,46.9465 158.04,46.7665 156.168,46.4065 C152.784,45.7585 150.156,45.4345 148.284,45.4345 C143.82,45.4345 139.95,46.7935 136.674,49.5115 C133.398,52.2295 131.76,55.4785 131.76,59.2585 C131.76,62.3185 132.633,64.9465 134.379,67.1425 C136.125,69.3385 139.716,71.6785 145.152,74.1625 C149.292,76.0705 151.983,77.6725 153.225,78.9685 C154.467,80.2645 155.088,81.7585 155.088,83.4505 C155.088,86.1145 154.341,88.1845 152.847,89.6605 C151.353,91.1365 149.256,91.8745 146.556,91.8745 C143.964,91.8745 141.444,90.8845 138.996,88.9045 C136.548,86.9245 134.91,84.6025 134.082,81.9385 C133.902,81.3625 133.38,81.0745 132.516,81.0745 C131.472,81.0745 130.95,81.3445 130.95,81.8845 C131.994,87.0325 132.66,90.8665 132.948,93.3865 C133.92,93.3865 135.756,93.6565 138.456,94.1965 C142.056,94.9525 144.72,95.3305 146.448,95.3305 Z M194.292,93.6025 C194.868,93.6025 195.156,93.0985 195.156,92.0905 C195.156,91.1905 194.868,90.7045 194.292,90.6325 C191.196,90.2725 189.198,89.5435 188.298,88.4455 C187.398,87.3475 186.948,85.0345 186.948,81.5065 L186.948,81.5065 L186.948,34.3645 C186.948,29.9005 187.236,23.6365 187.812,15.5725 C187.812,14.9965 187.308,14.7085 186.3,14.7085 C185.868,14.7085 185.472,14.9065 185.112,15.3025 C184.5,16.0585 182.988,16.9855 180.576,18.0835 C178.164,19.1815 175.068,20.2165 171.288,21.1885 C170.712,21.1885 170.424,21.6205 170.424,22.4845 C170.424,23.3125 170.712,23.7625 171.288,23.8345 C173.88,24.1225 175.536,24.7165 176.256,25.6165 C176.976,26.5165 177.336,28.4245 177.336,31.3405 L177.336,31.3405 L177.336,81.5065 C177.336,85.0345 176.877,87.3475 175.959,88.4455 C175.041,89.5435 173.052,90.2725 169.992,90.6325 C169.416,90.7045 169.128,91.1905 169.128,92.0905 C169.128,93.0985 169.416,93.6025 169.992,93.6025 C171.468,93.6025 173.358,93.5125 175.662,93.3325 C178.218,93.1525 180.36,93.0625 182.088,93.0625 C183.852,93.0625 186.03,93.1525 188.622,93.3325 C190.926,93.5125 192.816,93.6025 194.292,93.6025 Z M210.708,95.3305 C216.936,95.3305 221.976,93.3505 225.828,89.3905 C226.368,91.0825 227.385,92.4235 228.879,93.4135 C230.373,94.4035 232.128,94.8985 234.144,94.8985 C236.7,94.8985 239.067,94.1425 241.245,92.6305 C243.423,91.1185 244.512,89.8405 244.512,88.7965 C244.512,88.3645 244.386,87.9595 244.134,87.5815 C243.882,87.2035 243.612,87.0145 243.324,87.0145 L243.324,87.0145 L242.946,87.1225 C241.362,88.5625 239.976,89.2825 238.788,89.2825 C236.34,89.2825 235.116,87.3925 235.116,83.6125 L235.116,83.6125 L235.116,83.2345 L235.872,58.8265 L235.872,58.1785 C235.872,54.2905 234.666,51.1945 232.254,48.8905 C229.842,46.5865 226.692,45.4345 222.804,45.4345 C218.484,45.4345 213.804,46.9555 208.764,49.9975 C203.724,53.0395 201.204,55.9465 201.204,58.7185 C201.204,59.8705 201.564,60.7885 202.284,61.4725 C203.004,62.1565 203.94,62.4985 205.092,62.4985 C207.036,62.4985 208.593,61.8505 209.763,60.5545 C210.933,59.2585 211.536,57.4585 211.572,55.1545 C211.608,53.6065 212.364,52.3195 213.84,51.2935 C215.316,50.2675 217.116,49.7545 219.24,49.7545 C221.364,49.7545 223.065,50.5195 224.343,52.0495 C225.621,53.5795 226.26,55.6405 226.26,58.2325 L226.26,58.2325 L226.26,58.5025 L225.936,66.9265 C208.44,71.4985 199.692,77.4745 199.692,84.8545 C199.692,87.8425 200.718,90.3355 202.77,92.3335 C204.822,94.3315 207.468,95.3305 210.708,95.3305 Z M216,90.0385 C212.04,90.0385 210.06,87.4825 210.06,82.3705 C210.06,76.8985 215.316,72.9745 225.828,70.5985 L225.828,70.5985 L225.396,85.0705 C224.748,86.4745 223.497,87.6535 221.643,88.6075 C219.789,89.5615 217.908,90.0385 216,90.0385 Z M269.028,95.4385 C269.64,95.4385 270.072,95.1505 270.324,94.5745 L270.324,94.5745 L285.822,59.2585 C287.37,55.7665 288.657,53.4625 289.683,52.3465 C290.709,51.2305 292.734,50.5105 295.758,50.1865 C296.334,50.1145 296.622,49.6105 296.622,48.6745 C296.622,47.6665 296.334,47.1625 295.758,47.1625 C294.39,47.1625 292.59,47.2885 290.358,47.5405 C288.738,47.7205 287.568,47.8105 286.848,47.8105 C285.444,47.8105 283.86,47.7025 282.096,47.4865 C280.224,47.2705 278.532,47.1625 277.02,47.1625 C276.444,47.1625 276.156,47.6665 276.156,48.6745 C276.156,49.5745 276.444,50.0605 277.02,50.1325 C279.072,50.4205 280.503,50.8075 281.313,51.2935 C282.123,51.7795 282.528,52.4905 282.528,53.4265 C282.528,54.6145 281.988,56.5585 280.908,59.2585 L280.908,59.2585 L271.944,82.1545 L263.088,59.2045 C262.008,56.4685 261.468,54.5425 261.468,53.4265 C261.468,52.4905 261.882,51.7795 262.71,51.2935 C263.538,50.8075 265.032,50.4205 267.192,50.1325 C267.768,50.0605 268.056,49.5745 268.056,48.6745 C268.056,47.6665 267.768,47.1625 267.192,47.1625 C265.716,47.1625 263.862,47.2705 261.63,47.4865 C259.11,47.7025 256.968,47.8105 255.204,47.8105 C253.476,47.8105 251.424,47.7025 249.048,47.4865 C246.852,47.2705 245.016,47.1625 243.54,47.1625 C242.964,47.1625 242.676,47.6665 242.676,48.6745 C242.676,49.5745 242.964,50.0605 243.54,50.1325 C245.88,50.4565 247.734,51.2305 249.102,52.4545 C250.47,53.6785 251.82,55.9465 253.152,59.2585 L253.152,59.2585 L267.678,94.5745 C267.93,95.1505 268.38,95.4385 269.028,95.4385 Z M321.3,95.3305 C324.252,95.3305 327.078,94.7005 329.778,93.4405 C332.478,92.1805 334.98,90.3535 337.284,87.9595 C339.588,85.5655 340.74,83.9905 340.74,83.2345 C340.74,82.6945 340.587,82.2265 340.281,81.8305 C339.975,81.4345 339.66,81.2365 339.336,81.2365 L339.336,81.2365 L339.066,81.3445 C337.482,83.4685 335.394,85.2145 332.802,86.5825 C330.21,87.9505 327.636,88.6345 325.08,88.6345 C320.004,88.6345 316.089,87.0775 313.335,83.9635 C310.581,80.8495 309.204,76.3945 309.204,70.5985 C309.204,68.5105 309.312,66.4945 309.528,64.5505 L309.528,64.5505 L339.12,64.5505 C340.416,64.5505 341.064,64.0465 341.064,63.0385 C341.064,58.6105 339.165,54.5695 335.367,50.9155 C331.569,47.2615 326.88,45.4345 321.3,45.4345 C314.64,45.4345 309.141,47.8825 304.803,52.7785 C300.465,57.6745 298.296,63.6505 298.296,70.7065 C298.296,77.6185 300.51,83.4505 304.938,88.2025 C309.366,92.9545 314.82,95.3305 321.3,95.3305 Z M309.96,61.5265 C310.68,57.7465 312.057,54.6955 314.091,52.3735 C316.125,50.0515 318.528,48.8905 321.3,48.8905 C324.216,48.8905 326.601,49.7815 328.455,51.5635 C330.309,53.3455 331.236,55.5865 331.236,58.2865 C331.236,59.3305 330.759,60.0505 329.805,60.4465 C328.851,60.8425 327.24,61.0585 324.972,61.0945 L324.972,61.0945 L309.96,61.5265 Z M386.856,95.7625 C387.216,95.7625 387.792,95.5645 388.584,95.1685 C390.096,94.4125 392.202,93.6565 394.902,92.9005 C397.602,92.1445 399.978,91.6405 402.03,91.3885 C402.606,91.3165 402.894,90.9025 402.894,90.1465 C402.894,89.2105 402.606,88.7425 402.03,88.7425 C399.438,88.3825 397.782,87.7795 397.062,86.9335 C396.342,86.0875 395.982,84.4225 395.982,81.9385 L395.982,81.9385 L395.982,34.3645 C395.982,29.6845 396.27,23.4205 396.846,15.5725 C396.846,14.9965 396.342,14.7085 395.334,14.7085 C394.938,14.7085 394.56,14.8885 394.2,15.2485 C393.336,16.1125 391.662,17.1025 389.178,18.2185 C386.694,19.3345 383.76,20.2885 380.376,21.0805 C379.8,21.0805 379.512,21.5485 379.512,22.4845 C379.512,23.3125 379.8,23.7625 380.376,23.8345 C382.968,24.1225 384.624,24.7165 385.344,25.6165 C386.064,26.5165 386.424,28.4245 386.424,31.3405 L386.424,31.3405 L386.424,49.3225 C382.896,46.7305 379.044,45.4345 374.868,45.4345 C367.56,45.4345 361.485,47.7835 356.643,52.4815 C351.801,57.1795 349.38,63.3265 349.38,70.9225 C349.38,77.6185 351.567,83.3605 355.941,88.1485 C360.315,92.9365 365.616,95.3305 371.844,95.3305 C377.748,95.3305 382.608,93.2425 386.424,89.0665 L386.424,89.0665 L385.992,94.8985 C385.992,95.4745 386.28,95.7625 386.856,95.7625 Z M374.004,91.3345 C369.9,91.3345 366.588,89.4085 364.068,85.5565 C361.548,81.7045 360.288,76.8625 360.288,71.0305 C360.288,56.2705 365.544,48.8905 376.056,48.8905 C378.612,48.8905 380.979,49.7185 383.157,51.3745 C385.335,53.0305 386.424,54.7945 386.424,56.6665 L386.424,56.6665 L386.424,84.3145 C384.3,86.8705 382.284,88.6795 380.376,89.7415 C378.468,90.8035 376.344,91.3345 374.004,91.3345 Z" id="Enslaved"></path>
                <path d="M489.393,50.3325 C489.633,50.3325 489.753,50.1225 489.753,49.7025 C489.753,49.3275 489.633,49.125 489.393,49.095 C488.133,48.945 487.17675,48.74625 486.52425,48.49875 C485.87175,48.25125 485.41425,47.9175 485.15175,47.4975 C484.88925,47.0775 484.758,46.3425 484.758,45.2925 L484.758,45.2925 L484.758,37.3275 C486.498,37.4775 488.268,37.5525 490.068,37.5525 C493.068,37.5525 495.58425,36.65625 497.61675,34.86375 C499.64925,33.07125 500.6655,30.855 500.6655,28.215 C500.6655,25.215 499.70925,22.935 497.79675,21.375 C495.88425,19.815 493.083,19.035 489.393,19.035 C488.388,19.035 487.1955,19.08 485.8155,19.17 C484.4955,19.26 483.378,19.305 482.463,19.305 C481.548,19.305 480.423,19.26 479.088,19.17 C477.693,19.08 476.493,19.035 475.488,19.035 C475.248,19.035 475.128,19.245 475.128,19.665 C475.128,20.085 475.248,20.295 475.488,20.295 C476.763,20.445 477.7305,20.64375 478.3905,20.89125 C479.0505,21.13875 479.51175,21.47625 479.77425,21.90375 C480.03675,22.33125 480.168,23.07 480.168,24.12 L480.168,24.12 L480.168,45.2925 C480.168,46.6875 479.84175,47.6175 479.18925,48.0825 C478.53675,48.5475 477.303,48.885 475.488,49.095 C475.248,49.125 475.128,49.3275 475.128,49.7025 C475.128,50.1225 475.248,50.3325 475.488,50.3325 C476.493,50.3325 477.693,50.2875 479.088,50.1975 C480.423,50.1075 481.548,50.0625 482.463,50.0625 C483.378,50.0625 484.4955,50.1075 485.8155,50.1975 C487.1955,50.2875 488.388,50.3325 489.393,50.3325 Z M487.998,36.0675 C486.648,36.0675 485.7705,35.95875 485.3655,35.74125 C484.9605,35.52375 484.758,35.0925 484.758,34.4475 L484.758,34.4475 L484.758,24.12 C484.758,22.92 484.88925,22.1175 485.15175,21.7125 C485.41425,21.3075 485.86425,21.015 486.50175,20.835 C487.13925,20.655 488.043,20.565 489.213,20.565 C491.163,20.565 492.72675,21.24 493.90425,22.59 C495.08175,23.94 495.6705,25.815 495.6705,28.215 C495.6705,30.66 495.003,32.58 493.668,33.975 C492.333,35.37 490.443,36.0675 487.998,36.0675 Z M513.198,51.0075 C514.428,51.0075 515.6055,50.745 516.7305,50.22 C517.8555,49.695 518.898,48.93375 519.858,47.93625 C520.818,46.93875 521.298,46.2825 521.298,45.9675 C521.298,45.7425 521.23425,45.5475 521.10675,45.3825 C520.97925,45.2175 520.848,45.135 520.713,45.135 L520.713,45.135 L520.6005,45.18 C519.9405,46.065 519.0705,46.7925 517.9905,47.3625 C516.9105,47.9325 515.838,48.2175 514.773,48.2175 C512.658,48.2175 511.02675,47.56875 509.87925,46.27125 C508.73175,44.97375 508.158,43.1175 508.158,40.7025 C508.158,39.8325 508.203,38.9925 508.293,38.1825 L508.293,38.1825 L520.623,38.1825 C521.163,38.1825 521.433,37.9725 521.433,37.5525 C521.433,35.7075 520.64175,34.02375 519.05925,32.50125 C517.47675,30.97875 515.523,30.2175 513.198,30.2175 C510.423,30.2175 508.13175,31.2375 506.32425,33.2775 C504.51675,35.3175 503.613,37.8075 503.613,40.7475 C503.613,43.6275 504.5355,46.0575 506.3805,48.0375 C508.2255,50.0175 510.498,51.0075 513.198,51.0075 Z M508.473,36.9225 C508.773,35.3475 509.34675,34.07625 510.19425,33.10875 C511.04175,32.14125 512.043,31.6575 513.198,31.6575 C514.413,31.6575 515.40675,32.02875 516.17925,32.77125 C516.95175,33.51375 517.338,34.4475 517.338,35.5725 C517.338,36.0075 517.13925,36.3075 516.74175,36.4725 C516.34425,36.6375 515.673,36.7275 514.728,36.7425 L514.728,36.7425 L508.473,36.9225 Z M535.158,51.0075 C538.248,51.0075 540.76425,50.04375 542.70675,48.11625 C544.64925,46.18875 545.6205,43.7325 545.6205,40.7475 C545.6205,37.7175 544.6455,35.205 542.6955,33.21 C540.7455,31.215 538.233,30.2175 535.158,30.2175 C532.098,30.2175 529.5855,31.21875 527.6205,33.22125 C525.6555,35.22375 524.673,37.7325 524.673,40.7475 C524.673,43.7175 525.648,46.17 527.598,48.105 C529.548,50.04 532.068,51.0075 535.158,51.0075 Z M535.158,49.5675 C533.298,49.5675 531.843,48.76875 530.793,47.17125 C529.743,45.57375 529.218,43.4175 529.218,40.7025 C529.218,37.9725 529.7505,35.7825 530.8155,34.1325 C531.8805,32.4825 533.328,31.6575 535.158,31.6575 C537.003,31.6575 538.45425,32.47875 539.51175,34.12125 C540.56925,35.76375 541.098,37.9575 541.098,40.7025 C541.098,43.4475 540.573,45.61125 539.523,47.19375 C538.473,48.77625 537.018,49.5675 535.158,49.5675 Z M557.883,61.9875 C558.123,61.9875 558.243,61.7775 558.243,61.3575 C558.243,60.9375 558.123,60.7275 557.883,60.7275 C556.593,60.5625 555.7605,60.2475 555.3855,59.7825 C555.0105,59.3175 554.823,58.3575 554.823,56.9025 L554.823,56.9025 L554.823,49.9725 C556.098,50.6625 557.628,51.0075 559.413,51.0075 C562.518,51.0075 565.068,50.03625 567.063,48.09375 C569.058,46.15125 570.0555,43.7025 570.0555,40.7475 C570.0555,37.5825 569.193,35.03625 567.468,33.10875 C565.743,31.18125 563.403,30.2175 560.448,30.2175 C559.683,30.2175 558.7605,30.50625 557.6805,31.08375 C556.6005,31.66125 555.648,32.3775 554.823,33.2325 L554.823,33.2325 L555.003,30.3975 C555.003,30.1575 554.793,30.0375 554.373,30.0375 C554.223,30.0375 554.0655,30.1275 553.9005,30.3075 C553.5855,30.6375 552.93675,31.035 551.95425,31.5 C550.97175,31.965 549.753,32.3775 548.298,32.7375 C548.058,32.7375 547.938,32.9175 547.938,33.2775 C547.938,33.6675 548.058,33.8625 548.298,33.8625 C549.363,33.9825 550.04925,34.23 550.35675,34.605 C550.66425,34.98 550.818,35.7675 550.818,36.9675 L550.818,36.9675 L550.818,56.9025 C550.818,58.3575 550.62675,59.3175 550.24425,59.7825 C549.86175,60.2475 549.033,60.5625 547.758,60.7275 C547.518,60.7275 547.398,60.9375 547.398,61.3575 C547.398,61.7775 547.518,61.9875 547.758,61.9875 C548.373,61.9875 549.1605,61.9425 550.1205,61.8525 C551.1855,61.7625 552.093,61.7175 552.843,61.7175 C553.563,61.7175 554.448,61.7625 555.498,61.8525 C556.473,61.9425 557.268,61.9875 557.883,61.9875 Z M559.233,49.5675 C558.003,49.5675 556.9605,49.245 556.1055,48.6 C555.2505,47.955 554.823,47.1525 554.823,46.1925 L554.823,46.1925 L554.823,35.1675 C555.663,34.2375 556.41675,33.6 557.08425,33.255 C557.75175,32.91 558.498,32.7375 559.323,32.7375 C561.288,32.7375 562.81425,33.43875 563.90175,34.84125 C564.98925,36.24375 565.533,38.1975 565.533,40.7025 C565.533,43.5375 564.993,45.72375 563.913,47.26125 C562.833,48.79875 561.273,49.5675 559.233,49.5675 Z M582.993,50.2875 C583.233,50.2875 583.353,50.0775 583.353,49.6575 C583.353,49.2825 583.233,49.08 582.993,49.05 C581.703,48.9 580.8705,48.59625 580.4955,48.13875 C580.1205,47.68125 579.933,46.7175 579.933,45.2475 L579.933,45.2475 L579.933,25.605 C579.933,23.745 580.053,21.135 580.293,17.775 C580.293,17.535 580.083,17.415 579.663,17.415 C579.483,17.415 579.318,17.4975 579.168,17.6625 C578.913,17.9775 578.283,18.36375 577.278,18.82125 C576.273,19.27875 574.983,19.71 573.408,20.115 C573.168,20.115 573.048,20.295 573.048,20.655 C573.048,21 573.168,21.1875 573.408,21.2175 C574.488,21.3375 575.178,21.585 575.478,21.96 C575.778,22.335 575.928,23.13 575.928,24.345 L575.928,24.345 L575.928,45.2475 C575.928,46.7175 575.73675,47.68125 575.35425,48.13875 C574.97175,48.59625 574.143,48.9 572.868,49.05 C572.628,49.08 572.508,49.2825 572.508,49.6575 C572.508,50.0775 572.628,50.2875 572.868,50.2875 C573.483,50.2875 574.2705,50.25 575.2305,50.175 C576.2955,50.1 577.188,50.0625 577.908,50.0625 C578.643,50.0625 579.5505,50.1 580.6305,50.175 C581.5905,50.25 582.378,50.2875 582.993,50.2875 Z M594.693,51.0075 C595.923,51.0075 597.1005,50.745 598.2255,50.22 C599.3505,49.695 600.393,48.93375 601.353,47.93625 C602.313,46.93875 602.793,46.2825 602.793,45.9675 C602.793,45.7425 602.72925,45.5475 602.60175,45.3825 C602.47425,45.2175 602.343,45.135 602.208,45.135 L602.208,45.135 L602.0955,45.18 C601.4355,46.065 600.5655,46.7925 599.4855,47.3625 C598.4055,47.9325 597.333,48.2175 596.268,48.2175 C594.153,48.2175 592.52175,47.56875 591.37425,46.27125 C590.22675,44.97375 589.653,43.1175 589.653,40.7025 C589.653,39.8325 589.698,38.9925 589.788,38.1825 L589.788,38.1825 L602.118,38.1825 C602.658,38.1825 602.928,37.9725 602.928,37.5525 C602.928,35.7075 602.13675,34.02375 600.55425,32.50125 C598.97175,30.97875 597.018,30.2175 594.693,30.2175 C591.918,30.2175 589.62675,31.2375 587.81925,33.2775 C586.01175,35.3175 585.108,37.8075 585.108,40.7475 C585.108,43.6275 586.0305,46.0575 587.8755,48.0375 C589.7205,50.0175 591.993,51.0075 594.693,51.0075 Z M589.968,36.9225 C590.268,35.3475 590.84175,34.07625 591.68925,33.10875 C592.53675,32.14125 593.538,31.6575 594.693,31.6575 C595.908,31.6575 596.90175,32.02875 597.67425,32.77125 C598.44675,33.51375 598.833,34.4475 598.833,35.5725 C598.833,36.0075 598.63425,36.3075 598.23675,36.4725 C597.83925,36.6375 597.168,36.7275 596.223,36.7425 L596.223,36.7425 L589.968,36.9225 Z M612.963,51.0075 C615.003,51.0075 616.743,50.385 618.183,49.14 C619.623,47.895 620.343,46.3575 620.343,44.5275 C620.343,43.5075 619.9905,42.5925 619.2855,41.7825 C618.5805,40.9725 617.118,40.0125 614.898,38.9025 C613.038,37.9725 611.8305,37.215 611.2755,36.63 C610.7205,36.045 610.443,35.4075 610.443,34.7175 C610.443,32.6775 611.613,31.6575 613.953,31.6575 C614.868,31.6575 615.6555,31.99875 616.3155,32.68125 C616.9755,33.36375 617.388,34.2525 617.553,35.3475 C617.598,35.5875 617.808,35.7075 618.183,35.7075 C618.618,35.7075 618.8355,35.595 618.8355,35.37 C618.6855,34.125 618.588,32.6175 618.543,30.8475 C618.303,30.8475 617.793,30.7725 617.013,30.6225 C615.603,30.3525 614.508,30.2175 613.728,30.2175 C611.868,30.2175 610.2555,30.78375 608.8905,31.91625 C607.5255,33.04875 606.843,34.4025 606.843,35.9775 C606.843,37.2525 607.20675,38.3475 607.93425,39.2625 C608.66175,40.1775 610.158,41.1525 612.423,42.1875 C614.148,42.9825 615.26925,43.65 615.78675,44.19 C616.30425,44.73 616.563,45.3525 616.563,46.0575 C616.563,47.1675 616.25175,48.03 615.62925,48.645 C615.00675,49.26 614.133,49.5675 613.008,49.5675 C611.928,49.5675 610.878,49.155 609.858,48.33 C608.838,47.505 608.1555,46.5375 607.8105,45.4275 C607.7355,45.1875 607.518,45.0675 607.158,45.0675 C606.723,45.0675 606.5055,45.18 606.5055,45.405 C606.9405,47.55 607.218,49.1475 607.338,50.1975 C607.743,50.1975 608.508,50.31 609.633,50.535 C611.133,50.85 612.243,51.0075 612.963,51.0075 Z M645.093,51.0075 C648.183,51.0075 650.69925,50.04375 652.64175,48.11625 C654.58425,46.18875 655.5555,43.7325 655.5555,40.7475 C655.5555,37.7175 654.5805,35.205 652.6305,33.21 C650.6805,31.215 648.168,30.2175 645.093,30.2175 C642.033,30.2175 639.5205,31.21875 637.5555,33.22125 C635.5905,35.22375 634.608,37.7325 634.608,40.7475 C634.608,43.7175 635.583,46.17 637.533,48.105 C639.483,50.04 642.003,51.0075 645.093,51.0075 Z M645.093,49.5675 C643.233,49.5675 641.778,48.76875 640.728,47.17125 C639.678,45.57375 639.153,43.4175 639.153,40.7025 C639.153,37.9725 639.6855,35.7825 640.7505,34.1325 C641.8155,32.4825 643.263,31.6575 645.093,31.6575 C646.938,31.6575 648.38925,32.47875 649.44675,34.12125 C650.50425,35.76375 651.033,37.9575 651.033,40.7025 C651.033,43.4475 650.508,45.61125 649.458,47.19375 C648.408,48.77625 646.953,49.5675 645.093,49.5675 Z M669.4155,50.3325 C669.6555,50.3325 669.7755,50.1225 669.7755,49.7025 C669.7755,49.3275 669.6555,49.125 669.4155,49.095 C668.1255,48.93 667.3005,48.6225 666.9405,48.1725 C666.5805,47.7225 666.4005,46.7625 666.4005,45.2925 L666.4005,45.2925 L666.4005,33.9975 L671.4855,34.1775 C671.8455,34.1775 672.0255,33.7725 672.0255,32.9625 C672.0255,32.1525 671.8455,31.7475 671.4855,31.7475 L671.4855,31.7475 L666.4455,31.7475 L666.4455,26.505 C666.4455,24.57 666.8055,23.03625 667.5255,21.90375 C668.2455,20.77125 669.1155,20.205 670.1355,20.205 C670.6155,20.205 671.163,20.4375 671.778,20.9025 C672.513,21.4575 673.2405,21.735 673.9605,21.735 C674.7705,21.735 675.408,21.55875 675.873,21.20625 C676.338,20.85375 676.5705,20.37 676.5705,19.755 C676.5705,19.095 676.28175,18.5775 675.70425,18.2025 C675.12675,17.8275 674.3355,17.64 673.3305,17.64 C670.4355,17.64 667.88175,19.02375 665.66925,21.79125 C663.45675,24.55875 662.3505,27.7575 662.3505,31.3875 C662.3505,31.7925 661.3905,32.2125 659.4705,32.6475 C659.2005,32.7075 659.0655,32.9325 659.0655,33.3225 C659.0655,33.7125 659.2155,33.9075 659.5155,33.9075 L659.5155,33.9075 L661.8105,33.9075 C662.1705,33.9075 662.3505,34.1175 662.3505,34.5375 L662.3505,34.5375 L662.3505,45.2925 C662.3505,46.7625 662.16675,47.7225 661.79925,48.1725 C661.43175,48.6225 660.6105,48.93 659.3355,49.095 C659.0955,49.125 658.9755,49.3275 658.9755,49.7025 C658.9755,50.1225 659.0955,50.3325 659.3355,50.3325 C659.9505,50.3325 660.7305,50.2875 661.6755,50.1975 C662.7255,50.1075 663.6255,50.0625 664.3755,50.0625 C665.1105,50.0625 666.0105,50.1075 667.0755,50.1975 C668.0205,50.2875 668.8005,50.3325 669.4155,50.3325 Z M693.153,50.8275 C694.548,50.8275 695.80425,50.50875 696.92175,49.87125 C698.03925,49.23375 698.598,48.7275 698.598,48.3525 C698.598,48.1725 698.54925,48.00375 698.45175,47.84625 C698.35425,47.68875 698.2455,47.61 698.1255,47.61 C697.1055,48.195 695.973,48.4875 694.728,48.4875 C692.718,48.4875 691.713,47.0775 691.713,44.2575 L691.713,44.2575 L691.713,33.4575 L698.418,33.6375 C698.808,33.6375 699.003,33.2325 699.003,32.4225 C699.003,31.6125 698.808,31.2075 698.418,31.2075 L698.418,31.2075 L691.803,31.2075 L691.983,26.91 C691.983,26.67 691.773,26.55 691.353,26.55 C691.098,26.55 690.888,26.67 690.723,26.91 C689.178,29.145 687.363,30.8775 685.278,32.1075 C685.008,32.2575 684.873,32.4825 684.873,32.7825 C684.873,33.1725 685.038,33.3675 685.368,33.3675 L685.368,33.3675 L687.078,33.3675 C687.438,33.3675 687.618,33.5775 687.618,33.9975 L687.618,33.9975 L687.528,44.9325 L687.528,45.135 C687.528,46.845 688.038,48.22125 689.058,49.26375 C690.078,50.30625 691.443,50.8275 693.153,50.8275 Z M724.4505,50.3325 C724.6905,50.3325 724.8105,50.1225 724.8105,49.7025 C724.8105,49.3275 724.6905,49.125 724.4505,49.095 C723.1755,48.945 722.34675,48.64125 721.96425,48.18375 C721.58175,47.72625 721.3905,46.7625 721.3905,45.2925 L721.3905,45.2925 L721.3905,36.6975 C721.3905,34.7175 720.77925,33.1425 719.55675,31.9725 C718.33425,30.8025 716.658,30.2175 714.528,30.2175 C712.443,30.2175 710.328,31.2375 708.183,33.2775 L708.183,33.2775 L708.183,25.65 C708.183,22.89 708.303,20.28 708.543,17.82 C708.543,17.58 708.333,17.46 707.913,17.46 C707.763,17.46 707.5755,17.55 707.3505,17.73 C706.1205,18.72 704.223,19.515 701.658,20.115 C701.418,20.115 701.298,20.31 701.298,20.7 C701.298,21.045 701.418,21.2325 701.658,21.2625 C702.723,21.3825 703.40175,21.63 703.69425,22.005 C703.98675,22.38 704.133,23.175 704.133,24.39 L704.133,24.39 L704.133,45.2925 C704.133,46.7775 703.9455,47.74875 703.5705,48.20625 C703.1955,48.66375 702.378,48.96 701.118,49.095 C700.878,49.125 700.758,49.3275 700.758,49.7025 C700.758,50.1225 700.878,50.3325 701.118,50.3325 C701.733,50.3325 702.468,50.2875 703.323,50.1975 C704.283,50.1075 705.138,50.0625 705.888,50.0625 C706.623,50.0625 707.5455,50.1075 708.6555,50.1975 C709.6455,50.2875 710.448,50.3325 711.063,50.3325 C711.303,50.3325 711.423,50.1225 711.423,49.7025 C711.423,49.3275 711.303,49.125 711.063,49.095 C709.923,48.96 709.158,48.63 708.768,48.105 C708.378,47.58 708.183,46.6425 708.183,45.2925 L708.183,45.2925 L708.183,35.1675 C709.533,33.6675 711.138,32.9175 712.998,32.9175 C715.938,32.9175 717.408,34.5375 717.408,37.7775 L717.408,37.7775 L717.408,45.2925 C717.408,46.7775 717.24675,47.7525 716.92425,48.2175 C716.60175,48.6825 715.923,48.975 714.888,49.095 C714.648,49.125 714.528,49.3275 714.528,49.7025 C714.528,50.1225 714.648,50.3325 714.888,50.3325 C715.488,50.3325 716.2305,50.2875 717.1155,50.1975 C718.0905,50.1075 718.953,50.0625 719.703,50.0625 C720.423,50.0625 721.263,50.1075 722.223,50.1975 C723.108,50.2875 723.8505,50.3325 724.4505,50.3325 Z M736.173,51.0075 C737.403,51.0075 738.5805,50.745 739.7055,50.22 C740.8305,49.695 741.873,48.93375 742.833,47.93625 C743.793,46.93875 744.273,46.2825 744.273,45.9675 C744.273,45.7425 744.20925,45.5475 744.08175,45.3825 C743.95425,45.2175 743.823,45.135 743.688,45.135 L743.688,45.135 L743.5755,45.18 C742.9155,46.065 742.0455,46.7925 740.9655,47.3625 C739.8855,47.9325 738.813,48.2175 737.748,48.2175 C735.633,48.2175 734.00175,47.56875 732.85425,46.27125 C731.70675,44.97375 731.133,43.1175 731.133,40.7025 C731.133,39.8325 731.178,38.9925 731.268,38.1825 L731.268,38.1825 L743.598,38.1825 C744.138,38.1825 744.408,37.9725 744.408,37.5525 C744.408,35.7075 743.61675,34.02375 742.03425,32.50125 C740.45175,30.97875 738.498,30.2175 736.173,30.2175 C733.398,30.2175 731.10675,31.2375 729.29925,33.2775 C727.49175,35.3175 726.588,37.8075 726.588,40.7475 C726.588,43.6275 727.5105,46.0575 729.3555,48.0375 C731.2005,50.0175 733.473,51.0075 736.173,51.0075 Z M731.448,36.9225 C731.748,35.3475 732.32175,34.07625 733.16925,33.10875 C734.01675,32.14125 735.018,31.6575 736.173,31.6575 C737.388,31.6575 738.38175,32.02875 739.15425,32.77125 C739.92675,33.51375 740.313,34.4475 740.313,35.5725 C740.313,36.0075 740.11425,36.3075 739.71675,36.4725 C739.31925,36.6375 738.648,36.7275 737.703,36.7425 L737.703,36.7425 L731.448,36.9225 Z M511.1955,94.3325 C511.4355,94.3325 511.5555,94.1225 511.5555,93.7025 C511.5555,93.3275 511.4355,93.125 511.1955,93.095 C509.3805,92.885 508.14675,92.5475 507.49425,92.0825 C506.84175,91.6175 506.5155,90.6875 506.5155,89.2925 L506.5155,89.2925 L506.5155,68.12 C506.5155,67.07 506.64675,66.33125 506.90925,65.90375 C507.17175,65.47625 507.633,65.13875 508.293,64.89125 C508.953,64.64375 509.9205,64.445 511.1955,64.295 C511.4355,64.295 511.5555,64.085 511.5555,63.665 C511.5555,63.245 511.4355,63.035 511.1955,63.035 C510.1755,63.035 508.968,63.08 507.573,63.17 C506.253,63.26 505.1355,63.305 504.2205,63.305 C503.3055,63.305 502.248,63.26 501.048,63.17 C499.788,63.08 498.6555,63.035 497.6505,63.035 C497.4105,63.035 497.2905,63.245 497.2905,63.665 C497.2905,64.085 497.4105,64.295 497.6505,64.295 C498.9405,64.445 499.88925,64.65125 500.49675,64.91375 C501.10425,65.17625 501.49425,65.525 501.66675,65.96 C501.83925,66.395 501.9255,67.115 501.9255,68.12 L501.9255,68.12 L501.9255,77.8175 L484.758,77.8175 L484.758,68.12 C484.758,66.92 484.878,66.12875 485.118,65.74625 C485.358,65.36375 485.778,65.06 486.378,64.835 C486.978,64.61 487.863,64.43 489.033,64.295 C489.273,64.295 489.393,64.085 489.393,63.665 C489.393,63.245 489.273,63.035 489.033,63.035 C488.028,63.035 486.8955,63.08 485.6355,63.17 C484.4355,63.26 483.378,63.305 482.463,63.305 C481.548,63.305 480.423,63.26 479.088,63.17 C477.693,63.08 476.493,63.035 475.488,63.035 C475.248,63.035 475.128,63.245 475.128,63.665 C475.128,64.085 475.248,64.295 475.488,64.295 C476.763,64.445 477.7305,64.64375 478.3905,64.89125 C479.0505,65.13875 479.51175,65.47625 479.77425,65.90375 C480.03675,66.33125 480.168,67.07 480.168,68.12 L480.168,68.12 L480.168,89.2925 C480.168,90.6875 479.84175,91.6175 479.18925,92.0825 C478.53675,92.5475 477.303,92.885 475.488,93.095 C475.248,93.125 475.128,93.3275 475.128,93.7025 C475.128,94.1225 475.248,94.3325 475.488,94.3325 C476.493,94.3325 477.693,94.2875 479.088,94.1975 C480.423,94.1075 481.548,94.0625 482.463,94.0625 C483.378,94.0625 484.4355,94.1075 485.6355,94.1975 C486.8955,94.2875 488.028,94.3325 489.033,94.3325 C489.273,94.3325 489.393,94.1225 489.393,93.7025 C489.393,93.3275 489.273,93.125 489.033,93.095 C487.758,92.945 486.813,92.73875 486.198,92.47625 C485.583,92.21375 485.18925,91.86875 485.01675,91.44125 C484.84425,91.01375 484.758,90.2975 484.758,89.2925 L484.758,89.2925 L484.758,79.2575 L501.9255,79.2575 L501.9255,89.2925 C501.9255,90.2975 501.83925,91.01375 501.66675,91.44125 C501.49425,91.86875 501.1005,92.21375 500.4855,92.47625 C499.8705,92.73875 498.933,92.945 497.673,93.095 C497.418,93.125 497.2905,93.3275 497.2905,93.7025 C497.2905,94.1225 497.4105,94.3325 497.6505,94.3325 C498.6555,94.3325 499.788,94.2875 501.048,94.1975 C502.248,94.1075 503.3055,94.0625 504.2205,94.0625 C505.1355,94.0625 506.253,94.1075 507.573,94.1975 C508.968,94.2875 510.1755,94.3325 511.1955,94.3325 Z M519.318,68.84 C519.963,68.84 520.51425,68.6075 520.97175,68.1425 C521.42925,67.6775 521.658,67.13 521.658,66.5 C521.658,65.84 521.42925,65.285 520.97175,64.835 C520.51425,64.385 519.963,64.16 519.318,64.16 C518.658,64.16 518.103,64.385 517.653,64.835 C517.203,65.285 516.978,65.84 516.978,66.5 C516.978,67.13 517.20675,67.6775 517.66425,68.1425 C518.12175,68.6075 518.673,68.84 519.318,68.84 Z M524.448,94.3325 C524.688,94.3325 524.808,94.1225 524.808,93.7025 C524.808,93.3275 524.688,93.125 524.448,93.095 C523.143,92.93 522.30675,92.6225 521.93925,92.1725 C521.57175,91.7225 521.388,90.7625 521.388,89.2925 L521.388,89.2925 L521.388,82.2275 C521.388,80.3675 521.508,77.7575 521.748,74.3975 C521.748,74.1575 521.538,74.0375 521.118,74.0375 C520.938,74.0375 520.773,74.1275 520.623,74.3075 C520.368,74.6075 519.738,74.98625 518.733,75.44375 C517.728,75.90125 516.438,76.3325 514.863,76.7375 C514.623,76.7375 514.503,76.9175 514.503,77.2775 C514.503,77.6675 514.623,77.8625 514.863,77.8625 C515.898,77.9825 516.56925,78.23 516.87675,78.605 C517.18425,78.98 517.338,79.7675 517.338,80.9675 L517.338,80.9675 L517.338,89.2925 C517.338,90.7625 517.15425,91.7225 516.78675,92.1725 C516.41925,92.6225 515.598,92.93 514.323,93.095 C514.083,93.125 513.963,93.3275 513.963,93.7025 C513.963,94.1225 514.083,94.3325 514.323,94.3325 C514.938,94.3325 515.718,94.2875 516.663,94.1975 C517.713,94.1075 518.613,94.0625 519.363,94.0625 C520.098,94.0625 521.0055,94.1075 522.0855,94.1975 C523.0455,94.2875 523.833,94.3325 524.448,94.3325 Z M533.808,95.0075 C535.848,95.0075 537.588,94.385 539.028,93.14 C540.468,91.895 541.188,90.3575 541.188,88.5275 C541.188,87.5075 540.8355,86.5925 540.1305,85.7825 C539.4255,84.9725 537.963,84.0125 535.743,82.9025 C533.883,81.9725 532.6755,81.215 532.1205,80.63 C531.5655,80.045 531.288,79.4075 531.288,78.7175 C531.288,76.6775 532.458,75.6575 534.798,75.6575 C535.713,75.6575 536.5005,75.99875 537.1605,76.68125 C537.8205,77.36375 538.233,78.2525 538.398,79.3475 C538.443,79.5875 538.653,79.7075 539.028,79.7075 C539.463,79.7075 539.6805,79.595 539.6805,79.37 C539.5305,78.125 539.433,76.6175 539.388,74.8475 C539.148,74.8475 538.638,74.7725 537.858,74.6225 C536.448,74.3525 535.353,74.2175 534.573,74.2175 C532.713,74.2175 531.1005,74.78375 529.7355,75.91625 C528.3705,77.04875 527.688,78.4025 527.688,79.9775 C527.688,81.2525 528.05175,82.3475 528.77925,83.2625 C529.50675,84.1775 531.003,85.1525 533.268,86.1875 C534.993,86.9825 536.11425,87.65 536.63175,88.19 C537.14925,88.73 537.408,89.3525 537.408,90.0575 C537.408,91.1675 537.09675,92.03 536.47425,92.645 C535.85175,93.26 534.978,93.5675 533.853,93.5675 C532.773,93.5675 531.723,93.155 530.703,92.33 C529.683,91.505 529.0005,90.5375 528.6555,89.4275 C528.5805,89.1875 528.363,89.0675 528.003,89.0675 C527.568,89.0675 527.3505,89.18 527.3505,89.405 C527.7855,91.55 528.063,93.1475 528.183,94.1975 C528.588,94.1975 529.353,94.31 530.478,94.535 C531.978,94.85 533.088,95.0075 533.808,95.0075 Z M552.303,94.8275 C553.698,94.8275 554.95425,94.50875 556.07175,93.87125 C557.18925,93.23375 557.748,92.7275 557.748,92.3525 C557.748,92.1725 557.69925,92.00375 557.60175,91.84625 C557.50425,91.68875 557.3955,91.61 557.2755,91.61 C556.2555,92.195 555.123,92.4875 553.878,92.4875 C551.868,92.4875 550.863,91.0775 550.863,88.2575 L550.863,88.2575 L550.863,77.4575 L557.568,77.6375 C557.958,77.6375 558.153,77.2325 558.153,76.4225 C558.153,75.6125 557.958,75.2075 557.568,75.2075 L557.568,75.2075 L550.953,75.2075 L551.133,70.91 C551.133,70.67 550.923,70.55 550.503,70.55 C550.248,70.55 550.038,70.67 549.873,70.91 C548.328,73.145 546.513,74.8775 544.428,76.1075 C544.158,76.2575 544.023,76.4825 544.023,76.7825 C544.023,77.1725 544.188,77.3675 544.518,77.3675 L544.518,77.3675 L546.228,77.3675 C546.588,77.3675 546.768,77.5775 546.768,77.9975 L546.768,77.9975 L546.678,88.9325 L546.678,89.135 C546.678,90.845 547.188,92.22125 548.208,93.26375 C549.228,94.30625 550.593,94.8275 552.303,94.8275 Z M571.293,95.0075 C574.383,95.0075 576.89925,94.04375 578.84175,92.11625 C580.78425,90.18875 581.7555,87.7325 581.7555,84.7475 C581.7555,81.7175 580.7805,79.205 578.8305,77.21 C576.8805,75.215 574.368,74.2175 571.293,74.2175 C568.233,74.2175 565.7205,75.21875 563.7555,77.22125 C561.7905,79.22375 560.808,81.7325 560.808,84.7475 C560.808,87.7175 561.783,90.17 563.733,92.105 C565.683,94.04 568.203,95.0075 571.293,95.0075 Z M571.293,93.5675 C569.433,93.5675 567.978,92.76875 566.928,91.17125 C565.878,89.57375 565.353,87.4175 565.353,84.7025 C565.353,81.9725 565.8855,79.7825 566.9505,78.1325 C568.0155,76.4825 569.463,75.6575 571.293,75.6575 C573.138,75.6575 574.58925,76.47875 575.64675,78.12125 C576.70425,79.76375 577.233,81.9575 577.233,84.7025 C577.233,87.4475 576.708,89.61125 575.658,91.19375 C574.608,92.77625 573.153,93.5675 571.293,93.5675 Z M595.458,94.3325 C595.698,94.3325 595.818,94.1225 595.818,93.7025 C595.818,93.3275 595.698,93.125 595.458,93.095 C593.988,92.9 593.028,92.54375 592.578,92.02625 C592.128,91.50875 591.903,90.5975 591.903,89.2925 L591.903,89.2925 L591.903,79.1675 C592.938,78.0275 593.943,77.4575 594.918,77.4575 C595.293,77.4575 595.7355,77.63 596.2455,77.975 C596.8905,78.41 597.543,78.6275 598.203,78.6275 C598.728,78.6275 599.17425,78.4175 599.54175,77.9975 C599.90925,77.5775 600.093,77.0675 600.093,76.4675 C600.093,75.8675 599.8455,75.3425 599.3505,74.8925 C598.8555,74.4425 598.263,74.2175 597.573,74.2175 C596.718,74.2175 595.85925,74.4425 594.99675,74.8925 C594.13425,75.3425 593.103,76.1225 591.903,77.2325 L591.903,77.2325 L592.083,74.3975 C592.083,74.1575 591.873,74.0375 591.453,74.0375 C591.273,74.0375 591.093,74.1275 590.913,74.3075 C590.613,74.6375 589.97925,75.03125 589.01175,75.48875 C588.04425,75.94625 586.818,76.3625 585.333,76.7375 C585.093,76.7375 584.973,76.9175 584.973,77.2775 C584.973,77.6675 585.093,77.8625 585.333,77.8625 C586.398,77.9825 587.08425,78.23 587.39175,78.605 C587.69925,78.98 587.853,79.7675 587.853,80.9675 L587.853,80.9675 L587.853,89.2925 C587.853,90.7625 587.66925,91.7225 587.30175,92.1725 C586.93425,92.6225 586.098,92.93 584.793,93.095 C584.553,93.125 584.433,93.3275 584.433,93.7025 C584.433,94.1225 584.553,94.3325 584.793,94.3325 C585.408,94.3325 586.1955,94.2875 587.1555,94.1975 C588.2205,94.1075 589.128,94.0625 589.878,94.0625 C590.613,94.0625 591.603,94.1075 592.848,94.1975 C593.973,94.2875 594.843,94.3325 595.458,94.3325 Z M606.573,68.84 C607.218,68.84 607.76925,68.6075 608.22675,68.1425 C608.68425,67.6775 608.913,67.13 608.913,66.5 C608.913,65.84 608.68425,65.285 608.22675,64.835 C607.76925,64.385 607.218,64.16 606.573,64.16 C605.913,64.16 605.358,64.385 604.908,64.835 C604.458,65.285 604.233,65.84 604.233,66.5 C604.233,67.13 604.46175,67.6775 604.91925,68.1425 C605.37675,68.6075 605.928,68.84 606.573,68.84 Z M611.703,94.3325 C611.943,94.3325 612.063,94.1225 612.063,93.7025 C612.063,93.3275 611.943,93.125 611.703,93.095 C610.398,92.93 609.56175,92.6225 609.19425,92.1725 C608.82675,91.7225 608.643,90.7625 608.643,89.2925 L608.643,89.2925 L608.643,82.2275 C608.643,80.3675 608.763,77.7575 609.003,74.3975 C609.003,74.1575 608.793,74.0375 608.373,74.0375 C608.193,74.0375 608.028,74.1275 607.878,74.3075 C607.623,74.6075 606.993,74.98625 605.988,75.44375 C604.983,75.90125 603.693,76.3325 602.118,76.7375 C601.878,76.7375 601.758,76.9175 601.758,77.2775 C601.758,77.6675 601.878,77.8625 602.118,77.8625 C603.153,77.9825 603.82425,78.23 604.13175,78.605 C604.43925,78.98 604.593,79.7675 604.593,80.9675 L604.593,80.9675 L604.593,89.2925 C604.593,90.7625 604.40925,91.7225 604.04175,92.1725 C603.67425,92.6225 602.853,92.93 601.578,93.095 C601.338,93.125 601.218,93.3275 601.218,93.7025 C601.218,94.1225 601.338,94.3325 601.578,94.3325 C602.193,94.3325 602.973,94.2875 603.918,94.1975 C604.968,94.1075 605.868,94.0625 606.618,94.0625 C607.353,94.0625 608.2605,94.1075 609.3405,94.1975 C610.3005,94.2875 611.088,94.3325 611.703,94.3325 Z M624.033,95.0075 C625.203,95.0075 626.30925,94.82 627.35175,94.445 C628.39425,94.07 629.35425,93.515 630.23175,92.78 C631.10925,92.045 631.548,91.5275 631.548,91.2275 C631.548,91.0175 631.48425,90.82625 631.35675,90.65375 C631.22925,90.48125 631.098,90.395 630.963,90.395 L630.963,90.395 L630.8505,90.44 C629.5155,91.865 627.708,92.5775 625.428,92.5775 C623.418,92.5775 621.813,91.83875 620.613,90.36125 C619.413,88.88375 618.813,86.9375 618.813,84.5225 C618.813,81.6275 619.28925,79.42625 620.24175,77.91875 C621.19425,76.41125 622.578,75.6575 624.393,75.6575 C625.128,75.6575 625.72425,75.79625 626.18175,76.07375 C626.63925,76.35125 627.0705,76.9325 627.4755,77.8175 C627.8205,78.5675 628.16175,79.055 628.49925,79.28 C628.83675,79.505 629.268,79.6175 629.793,79.6175 C631.023,79.6175 631.638,79.0025 631.638,77.7725 C631.638,76.7975 630.93675,75.96125 629.53425,75.26375 C628.13175,74.56625 626.418,74.2175 624.393,74.2175 C621.648,74.2175 619.27425,75.19625 617.27175,77.15375 C615.26925,79.11125 614.268,81.5825 614.268,84.5675 C614.268,87.5825 615.22425,90.07625 617.13675,92.04875 C619.04925,94.02125 621.348,95.0075 624.033,95.0075 Z M639.783,95.0075 C642.378,95.0075 644.478,94.1825 646.083,92.5325 C646.308,93.2375 646.73175,93.79625 647.35425,94.20875 C647.97675,94.62125 648.708,94.8275 649.548,94.8275 C650.613,94.8275 651.59925,94.5125 652.50675,93.8825 C653.41425,93.2525 653.868,92.72 653.868,92.285 C653.868,92.105 653.8155,91.93625 653.7105,91.77875 C653.6055,91.62125 653.493,91.5425 653.373,91.5425 L653.373,91.5425 L653.2155,91.5875 C652.5555,92.1875 651.978,92.4875 651.483,92.4875 C650.463,92.4875 649.953,91.7 649.953,90.125 L649.953,90.125 L649.953,89.9675 L650.268,79.7975 L650.268,79.5275 C650.268,77.9075 649.7655,76.6175 648.7605,75.6575 C647.7555,74.6975 646.443,74.2175 644.823,74.2175 C643.023,74.2175 641.073,74.85125 638.973,76.11875 C636.873,77.38625 635.823,78.5975 635.823,79.7525 C635.823,80.2325 635.973,80.615 636.273,80.9 C636.573,81.185 636.963,81.3275 637.443,81.3275 C638.253,81.3275 638.90175,81.0575 639.38925,80.5175 C639.87675,79.9775 640.128,79.2275 640.143,78.2675 C640.158,77.6225 640.473,77.08625 641.088,76.65875 C641.703,76.23125 642.453,76.0175 643.338,76.0175 C644.223,76.0175 644.93175,76.33625 645.46425,76.97375 C645.99675,77.61125 646.263,78.47 646.263,79.55 L646.263,79.55 L646.263,79.6625 L646.128,83.1725 C638.838,85.0775 635.193,87.5675 635.193,90.6425 C635.193,91.8875 635.6205,92.92625 636.4755,93.75875 C637.3305,94.59125 638.433,95.0075 639.783,95.0075 Z M641.988,92.8025 C640.338,92.8025 639.513,91.7375 639.513,89.6075 C639.513,87.3275 641.703,85.6925 646.083,84.7025 L646.083,84.7025 L645.903,90.7325 C645.633,91.3175 645.11175,91.80875 644.33925,92.20625 C643.56675,92.60375 642.783,92.8025 641.988,92.8025 Z M664.668,94.2875 C664.908,94.2875 665.028,94.0775 665.028,93.6575 C665.028,93.2825 664.908,93.08 664.668,93.05 C663.378,92.9 662.5455,92.59625 662.1705,92.13875 C661.7955,91.68125 661.608,90.7175 661.608,89.2475 L661.608,89.2475 L661.608,69.605 C661.608,67.745 661.728,65.135 661.968,61.775 C661.968,61.535 661.758,61.415 661.338,61.415 C661.158,61.415 660.993,61.4975 660.843,61.6625 C660.588,61.9775 659.958,62.36375 658.953,62.82125 C657.948,63.27875 656.658,63.71 655.083,64.115 C654.843,64.115 654.723,64.295 654.723,64.655 C654.723,65 654.843,65.1875 655.083,65.2175 C656.163,65.3375 656.853,65.585 657.153,65.96 C657.453,66.335 657.603,67.13 657.603,68.345 L657.603,68.345 L657.603,89.2475 C657.603,90.7175 657.41175,91.68125 657.02925,92.13875 C656.64675,92.59625 655.818,92.9 654.543,93.05 C654.303,93.08 654.183,93.2825 654.183,93.6575 C654.183,94.0775 654.303,94.2875 654.543,94.2875 C655.158,94.2875 655.9455,94.25 656.9055,94.175 C657.9705,94.1 658.863,94.0625 659.583,94.0625 C660.318,94.0625 661.2255,94.1 662.3055,94.175 C663.2655,94.25 664.053,94.2875 664.668,94.2875 Z M687.798,95.0525 C690.813,95.0525 693.2055,94.17125 694.9755,92.40875 C696.7455,90.64625 697.6305,88.2725 697.6305,85.2875 C697.6305,83.7425 697.1205,82.325 696.1005,81.035 C695.0805,79.745 692.928,78.14 689.643,76.22 C686.868,74.6 685.06425,73.30625 684.23175,72.33875 C683.39925,71.37125 682.983,70.355 682.983,69.29 C682.983,67.61 683.478,66.275 684.468,65.285 C685.458,64.295 686.793,63.8 688.473,63.8 C690.243,63.8 691.6305,64.295 692.6355,65.285 C693.6405,66.275 694.3905,67.895 694.8855,70.145 C694.9305,70.385 695.163,70.505 695.583,70.505 C695.973,70.505 696.168,70.385 696.168,70.145 C695.868,68.135 695.628,65.81 695.448,63.17 C694.518,63.17 693.4155,63.0425 692.1405,62.7875 C690.7755,62.5025 689.568,62.36 688.518,62.36 C685.743,62.36 683.45175,63.20375 681.64425,64.89125 C679.83675,66.57875 678.933,68.645 678.933,71.09 C678.933,72.68 679.4355,74.1275 680.4405,75.4325 C681.4455,76.7375 683.5755,78.3275 686.8305,80.2025 C689.6655,81.8525 691.518,83.19875 692.388,84.24125 C693.258,85.28375 693.693,86.4125 693.693,87.6275 C693.693,89.5175 693.19425,90.9875 692.19675,92.0375 C691.19925,93.0875 689.793,93.6125 687.978,93.6125 C685.698,93.6125 683.928,93.0425 682.668,91.9025 C681.408,90.7625 680.373,88.7975 679.563,86.0075 C679.488,85.7675 679.293,85.6475 678.978,85.6475 C678.528,85.6475 678.303,85.7675 678.303,86.0075 C678.573,88.5575 678.753,91.1075 678.843,93.6575 C679.923,93.6575 681.3105,93.8825 683.0055,94.3325 C684.8655,94.8125 686.463,95.0525 687.798,95.0525 Z M710.388,94.2875 C710.628,94.2875 710.748,94.0775 710.748,93.6575 C710.748,93.2825 710.628,93.08 710.388,93.05 C709.098,92.9 708.2655,92.59625 707.8905,92.13875 C707.5155,91.68125 707.328,90.7175 707.328,89.2475 L707.328,89.2475 L707.328,69.605 C707.328,67.745 707.448,65.135 707.688,61.775 C707.688,61.535 707.478,61.415 707.058,61.415 C706.878,61.415 706.713,61.4975 706.563,61.6625 C706.308,61.9775 705.678,62.36375 704.673,62.82125 C703.668,63.27875 702.378,63.71 700.803,64.115 C700.563,64.115 700.443,64.295 700.443,64.655 C700.443,65 700.563,65.1875 700.803,65.2175 C701.883,65.3375 702.573,65.585 702.873,65.96 C703.173,66.335 703.323,67.13 703.323,68.345 L703.323,68.345 L703.323,89.2475 C703.323,90.7175 703.13175,91.68125 702.74925,92.13875 C702.36675,92.59625 701.538,92.9 700.263,93.05 C700.023,93.08 699.903,93.2825 699.903,93.6575 C699.903,94.0775 700.023,94.2875 700.263,94.2875 C700.878,94.2875 701.6655,94.25 702.6255,94.175 C703.6905,94.1 704.583,94.0625 705.303,94.0625 C706.038,94.0625 706.9455,94.1 708.0255,94.175 C708.9855,94.25 709.773,94.2875 710.388,94.2875 Z M717.228,95.0075 C719.823,95.0075 721.923,94.1825 723.528,92.5325 C723.753,93.2375 724.17675,93.79625 724.79925,94.20875 C725.42175,94.62125 726.153,94.8275 726.993,94.8275 C728.058,94.8275 729.04425,94.5125 729.95175,93.8825 C730.85925,93.2525 731.313,92.72 731.313,92.285 C731.313,92.105 731.2605,91.93625 731.1555,91.77875 C731.0505,91.62125 730.938,91.5425 730.818,91.5425 L730.818,91.5425 L730.6605,91.5875 C730.0005,92.1875 729.423,92.4875 728.928,92.4875 C727.908,92.4875 727.398,91.7 727.398,90.125 L727.398,90.125 L727.398,89.9675 L727.713,79.7975 L727.713,79.5275 C727.713,77.9075 727.2105,76.6175 726.2055,75.6575 C725.2005,74.6975 723.888,74.2175 722.268,74.2175 C720.468,74.2175 718.518,74.85125 716.418,76.11875 C714.318,77.38625 713.268,78.5975 713.268,79.7525 C713.268,80.2325 713.418,80.615 713.718,80.9 C714.018,81.185 714.408,81.3275 714.888,81.3275 C715.698,81.3275 716.34675,81.0575 716.83425,80.5175 C717.32175,79.9775 717.573,79.2275 717.588,78.2675 C717.603,77.6225 717.918,77.08625 718.533,76.65875 C719.148,76.23125 719.898,76.0175 720.783,76.0175 C721.668,76.0175 722.37675,76.33625 722.90925,76.97375 C723.44175,77.61125 723.708,78.47 723.708,79.55 L723.708,79.55 L723.708,79.6625 L723.573,83.1725 C716.283,85.0775 712.638,87.5675 712.638,90.6425 C712.638,91.8875 713.0655,92.92625 713.9205,93.75875 C714.7755,94.59125 715.878,95.0075 717.228,95.0075 Z M719.433,92.8025 C717.783,92.8025 716.958,91.7375 716.958,89.6075 C716.958,87.3275 719.148,85.6925 723.528,84.7025 L723.528,84.7025 L723.348,90.7325 C723.078,91.3175 722.55675,91.80875 721.78425,92.20625 C721.01175,92.60375 720.228,92.8025 719.433,92.8025 Z M740.853,95.0525 C741.108,95.0525 741.288,94.9325 741.393,94.6925 L741.393,94.6925 L747.8505,79.9775 C748.4955,78.5225 749.03175,77.5625 749.45925,77.0975 C749.88675,76.6325 750.7305,76.3325 751.9905,76.1975 C752.2305,76.1675 752.3505,75.9575 752.3505,75.5675 C752.3505,75.1475 752.2305,74.9375 751.9905,74.9375 C751.4205,74.9375 750.6705,74.99 749.7405,75.095 C749.0655,75.17 748.578,75.2075 748.278,75.2075 C747.693,75.2075 747.033,75.1625 746.298,75.0725 C745.518,74.9825 744.813,74.9375 744.183,74.9375 C743.943,74.9375 743.823,75.1475 743.823,75.5675 C743.823,75.9425 743.943,76.145 744.183,76.175 C745.038,76.295 745.63425,76.45625 745.97175,76.65875 C746.30925,76.86125 746.478,77.1575 746.478,77.5475 C746.478,78.0425 746.253,78.8525 745.803,79.9775 L745.803,79.9775 L742.068,89.5175 L738.378,79.955 C737.928,78.815 737.703,78.0125 737.703,77.5475 C737.703,77.1575 737.8755,76.86125 738.2205,76.65875 C738.5655,76.45625 739.188,76.295 740.088,76.175 C740.328,76.145 740.448,75.9425 740.448,75.5675 C740.448,75.1475 740.328,74.9375 740.088,74.9375 C739.473,74.9375 738.7005,74.9825 737.7705,75.0725 C736.7205,75.1625 735.828,75.2075 735.093,75.2075 C734.373,75.2075 733.518,75.1625 732.528,75.0725 C731.613,74.9825 730.848,74.9375 730.233,74.9375 C729.993,74.9375 729.873,75.1475 729.873,75.5675 C729.873,75.9425 729.993,76.145 730.233,76.175 C731.208,76.31 731.9805,76.6325 732.5505,77.1425 C733.1205,77.6525 733.683,78.5975 734.238,79.9775 L734.238,79.9775 L740.2905,94.6925 C740.3955,94.9325 740.583,95.0525 740.853,95.0525 Z M762.633,95.0075 C763.863,95.0075 765.0405,94.745 766.1655,94.22 C767.2905,93.695 768.333,92.93375 769.293,91.93625 C770.253,90.93875 770.733,90.2825 770.733,89.9675 C770.733,89.7425 770.66925,89.5475 770.54175,89.3825 C770.41425,89.2175 770.283,89.135 770.148,89.135 L770.148,89.135 L770.0355,89.18 C769.3755,90.065 768.5055,90.7925 767.4255,91.3625 C766.3455,91.9325 765.273,92.2175 764.208,92.2175 C762.093,92.2175 760.46175,91.56875 759.31425,90.27125 C758.16675,88.97375 757.593,87.1175 757.593,84.7025 C757.593,83.8325 757.638,82.9925 757.728,82.1825 L757.728,82.1825 L770.058,82.1825 C770.598,82.1825 770.868,81.9725 770.868,81.5525 C770.868,79.7075 770.07675,78.02375 768.49425,76.50125 C766.91175,74.97875 764.958,74.2175 762.633,74.2175 C759.858,74.2175 757.56675,75.2375 755.75925,77.2775 C753.95175,79.3175 753.048,81.8075 753.048,84.7475 C753.048,87.6275 753.9705,90.0575 755.8155,92.0375 C757.6605,94.0175 759.933,95.0075 762.633,95.0075 Z M757.908,80.9225 C758.208,79.3475 758.78175,78.07625 759.62925,77.10875 C760.47675,76.14125 761.478,75.6575 762.633,75.6575 C763.848,75.6575 764.84175,76.02875 765.61425,76.77125 C766.38675,77.51375 766.773,78.4475 766.773,79.5725 C766.773,80.0075 766.57425,80.3075 766.17675,80.4725 C765.77925,80.6375 765.108,80.7275 764.163,80.7425 L764.163,80.7425 L757.908,80.9225 Z M807.0255,94.3325 C807.2655,94.3325 807.3855,94.1225 807.3855,93.7025 C807.3855,93.3275 807.2655,93.125 807.0255,93.095 C805.7805,92.945 804.82425,92.74625 804.15675,92.49875 C803.48925,92.25125 803.02425,91.91375 802.76175,91.48625 C802.49925,91.05875 802.368,90.3275 802.368,89.2925 L802.368,89.2925 L802.368,66.455 C802.368,65.795 802.503,65.345 802.773,65.105 C803.043,64.865 803.5455,64.745 804.2805,64.745 L804.2805,64.745 L806.3955,64.745 C808.7505,64.745 810.528,65.18375 811.728,66.06125 C812.928,66.93875 813.8505,68.435 814.4955,70.55 C814.5555,70.76 814.7055,70.865 814.9455,70.865 C815.4855,70.865 815.7555,70.7225 815.7555,70.4375 C815.0655,67.2125 814.6155,64.625 814.4055,62.675 C812.3655,63.095 807.603,63.305 800.118,63.305 L799.60175,63.3046429 C792.607345,63.294881 788.114429,63.085 786.123,62.675 C785.373,65.54 784.578,68.105 783.738,70.37 C783.738,70.7 783.993,70.865 784.503,70.865 C784.758,70.865 784.923,70.7525 784.998,70.5275 C785.523,68.8175 786.648,67.42625 788.373,66.35375 C790.098,65.28125 792.018,64.745 794.133,64.745 L794.133,64.745 L795.888,64.745 C796.638,64.745 797.148,64.865 797.418,65.105 C797.688,65.345 797.823,65.795 797.823,66.455 L797.823,66.455 L797.823,89.2925 C797.823,90.6875 797.49675,91.6175 796.84425,92.0825 C796.19175,92.5475 794.958,92.885 793.143,93.095 C792.903,93.125 792.783,93.3275 792.783,93.7025 C792.783,94.1225 792.903,94.3325 793.143,94.3325 C794.148,94.3325 795.348,94.2875 796.743,94.1975 C798.078,94.1075 799.203,94.0625 800.118,94.0625 C801.003,94.0625 802.1055,94.1075 803.4255,94.1975 C804.8205,94.2875 806.0205,94.3325 807.0255,94.3325 Z M827.883,94.3325 C828.123,94.3325 828.243,94.1225 828.243,93.7025 C828.243,93.3275 828.123,93.125 827.883,93.095 C826.413,92.9 825.453,92.54375 825.003,92.02625 C824.553,91.50875 824.328,90.5975 824.328,89.2925 L824.328,89.2925 L824.328,79.1675 C825.363,78.0275 826.368,77.4575 827.343,77.4575 C827.718,77.4575 828.1605,77.63 828.6705,77.975 C829.3155,78.41 829.968,78.6275 830.628,78.6275 C831.153,78.6275 831.59925,78.4175 831.96675,77.9975 C832.33425,77.5775 832.518,77.0675 832.518,76.4675 C832.518,75.8675 832.2705,75.3425 831.7755,74.8925 C831.2805,74.4425 830.688,74.2175 829.998,74.2175 C829.143,74.2175 828.28425,74.4425 827.42175,74.8925 C826.55925,75.3425 825.528,76.1225 824.328,77.2325 L824.328,77.2325 L824.508,74.3975 C824.508,74.1575 824.298,74.0375 823.878,74.0375 C823.698,74.0375 823.518,74.1275 823.338,74.3075 C823.038,74.6375 822.40425,75.03125 821.43675,75.48875 C820.46925,75.94625 819.243,76.3625 817.758,76.7375 C817.518,76.7375 817.398,76.9175 817.398,77.2775 C817.398,77.6675 817.518,77.8625 817.758,77.8625 C818.823,77.9825 819.50925,78.23 819.81675,78.605 C820.12425,78.98 820.278,79.7675 820.278,80.9675 L820.278,80.9675 L820.278,89.2925 C820.278,90.7625 820.09425,91.7225 819.72675,92.1725 C819.35925,92.6225 818.523,92.93 817.218,93.095 C816.978,93.125 816.858,93.3275 816.858,93.7025 C816.858,94.1225 816.978,94.3325 817.218,94.3325 C817.833,94.3325 818.6205,94.2875 819.5805,94.1975 C820.6455,94.1075 821.553,94.0625 822.303,94.0625 C823.038,94.0625 824.028,94.1075 825.273,94.1975 C826.398,94.2875 827.268,94.3325 827.883,94.3325 Z M838.818,95.0075 C841.413,95.0075 843.513,94.1825 845.118,92.5325 C845.343,93.2375 845.76675,93.79625 846.38925,94.20875 C847.01175,94.62125 847.743,94.8275 848.583,94.8275 C849.648,94.8275 850.63425,94.5125 851.54175,93.8825 C852.44925,93.2525 852.903,92.72 852.903,92.285 C852.903,92.105 852.8505,91.93625 852.7455,91.77875 C852.6405,91.62125 852.528,91.5425 852.408,91.5425 L852.408,91.5425 L852.2505,91.5875 C851.5905,92.1875 851.013,92.4875 850.518,92.4875 C849.498,92.4875 848.988,91.7 848.988,90.125 L848.988,90.125 L848.988,89.9675 L849.303,79.7975 L849.303,79.5275 C849.303,77.9075 848.8005,76.6175 847.7955,75.6575 C846.7905,74.6975 845.478,74.2175 843.858,74.2175 C842.058,74.2175 840.108,74.85125 838.008,76.11875 C835.908,77.38625 834.858,78.5975 834.858,79.7525 C834.858,80.2325 835.008,80.615 835.308,80.9 C835.608,81.185 835.998,81.3275 836.478,81.3275 C837.288,81.3275 837.93675,81.0575 838.42425,80.5175 C838.91175,79.9775 839.163,79.2275 839.178,78.2675 C839.193,77.6225 839.508,77.08625 840.123,76.65875 C840.738,76.23125 841.488,76.0175 842.373,76.0175 C843.258,76.0175 843.96675,76.33625 844.49925,76.97375 C845.03175,77.61125 845.298,78.47 845.298,79.55 L845.298,79.55 L845.298,79.6625 L845.163,83.1725 C837.873,85.0775 834.228,87.5675 834.228,90.6425 C834.228,91.8875 834.6555,92.92625 835.5105,93.75875 C836.3655,94.59125 837.468,95.0075 838.818,95.0075 Z M841.023,92.8025 C839.373,92.8025 838.548,91.7375 838.548,89.6075 C838.548,87.3275 840.738,85.6925 845.118,84.7025 L845.118,84.7025 L844.938,90.7325 C844.668,91.3175 844.14675,91.80875 843.37425,92.20625 C842.60175,92.60375 841.818,92.8025 841.023,92.8025 Z M870.003,95.1875 C870.153,95.1875 870.393,95.105 870.723,94.94 C871.353,94.625 872.2305,94.31 873.3555,93.995 C874.4805,93.68 875.4705,93.47 876.3255,93.365 C876.5655,93.335 876.6855,93.1625 876.6855,92.8475 C876.6855,92.4575 876.5655,92.2625 876.3255,92.2625 C875.2455,92.1125 874.5555,91.86125 874.2555,91.50875 C873.9555,91.15625 873.8055,90.4625 873.8055,89.4275 L873.8055,89.4275 L873.8055,69.605 C873.8055,67.655 873.9255,65.045 874.1655,61.775 C874.1655,61.535 873.9555,61.415 873.5355,61.415 C873.3705,61.415 873.213,61.49 873.063,61.64 C872.703,62 872.0055,62.4125 870.9705,62.8775 C869.9355,63.3425 868.713,63.74 867.303,64.07 C867.063,64.07 866.943,64.265 866.943,64.655 C866.943,65 867.063,65.1875 867.303,65.2175 C868.383,65.3375 869.073,65.585 869.373,65.96 C869.673,66.335 869.823,67.13 869.823,68.345 L869.823,68.345 L869.823,75.8375 C868.353,74.7575 866.748,74.2175 865.008,74.2175 C861.963,74.2175 859.43175,75.19625 857.41425,77.15375 C855.39675,79.11125 854.388,81.6725 854.388,84.8375 C854.388,87.6275 855.29925,90.02 857.12175,92.015 C858.94425,94.01 861.153,95.0075 863.748,95.0075 C866.208,95.0075 868.233,94.1375 869.823,92.3975 L869.823,92.3975 L869.643,94.8275 C869.643,95.0675 869.763,95.1875 870.003,95.1875 Z M864.648,93.3425 C862.938,93.3425 861.558,92.54 860.508,90.935 C859.458,89.33 858.933,87.3125 858.933,84.8825 C858.933,78.7325 861.123,75.6575 865.503,75.6575 C866.568,75.6575 867.55425,76.0025 868.46175,76.6925 C869.36925,77.3825 869.823,78.1175 869.823,78.8975 L869.823,78.8975 L869.823,90.4175 C868.938,91.4825 868.098,92.23625 867.303,92.67875 C866.508,93.12125 865.623,93.3425 864.648,93.3425 Z M888.138,95.0075 C889.368,95.0075 890.5455,94.745 891.6705,94.22 C892.7955,93.695 893.838,92.93375 894.798,91.93625 C895.758,90.93875 896.238,90.2825 896.238,89.9675 C896.238,89.7425 896.17425,89.5475 896.04675,89.3825 C895.91925,89.2175 895.788,89.135 895.653,89.135 L895.653,89.135 L895.5405,89.18 C894.8805,90.065 894.0105,90.7925 892.9305,91.3625 C891.8505,91.9325 890.778,92.2175 889.713,92.2175 C887.598,92.2175 885.96675,91.56875 884.81925,90.27125 C883.67175,88.97375 883.098,87.1175 883.098,84.7025 C883.098,83.8325 883.143,82.9925 883.233,82.1825 L883.233,82.1825 L895.563,82.1825 C896.103,82.1825 896.373,81.9725 896.373,81.5525 C896.373,79.7075 895.58175,78.02375 893.99925,76.50125 C892.41675,74.97875 890.463,74.2175 888.138,74.2175 C885.363,74.2175 883.07175,75.2375 881.26425,77.2775 C879.45675,79.3175 878.553,81.8075 878.553,84.7475 C878.553,87.6275 879.4755,90.0575 881.3205,92.0375 C883.1655,94.0175 885.438,95.0075 888.138,95.0075 Z M883.413,80.9225 C883.713,79.3475 884.28675,78.07625 885.13425,77.10875 C885.98175,76.14125 886.983,75.6575 888.138,75.6575 C889.353,75.6575 890.34675,76.02875 891.11925,76.77125 C891.89175,77.51375 892.278,78.4475 892.278,79.5725 C892.278,80.0075 892.07925,80.3075 891.68175,80.4725 C891.28425,80.6375 890.613,80.7275 889.668,80.7425 L889.668,80.7425 L883.413,80.9225 Z" id="PeoplesoftheHistoricalSlaveTrade"></path>
            </g>
        </g>
    </g>
</svg>