<?xml version="1.0" encoding="UTF-8"?>
<svg width="262px" height="41px" viewBox="0 0 262 41" version="1.1" xmlns="http://www.w3.org/2000/svg" xmlns:xlink="http://www.w3.org/1999/xlink">
    <title>news-washingtonpost</title>
    <g id="Main" stroke="none" stroke-width="1" fill="none" fill-rule="evenodd">
        <g id="Home" transform="translate(-142.000000, -2567.000000)" fill="#000000" fill-rule="nonzero">
            <g id="Featured-in-Section" transform="translate(0.000000, 2294.000000)">
                <g id="Featured-In-Content" transform="translate(107.000000, 71.000000)">
                    <g id="News-Logos-Group" transform="translate(0.000000, 83.000000)">
                        <g id="News-Logos" transform="translate(35.000000, 32.000000)">
                            <g id="Row-Two" transform="translate(0.000000, 84.872000)">
                                <g id="news-washingtonpost" transform="translate(0.000000, 2.472000)">
                                    <path d="M14.9737939,12.3387408 L14.9737939,26.0159213 C16.730496,24.9702653 17.608847,23.4645206 18.2362406,21.4986874 L18.6963293,21.7078186 C18.2780669,26.6433149 14.8483152,31.4533325 9.6200352,31.4533325 C4.34992896,31.4533325 0.33460992,27.5216659 0.33460992,21.2477299 C0.33460992,16.4377123 3.22062048,13.5098755 7.319592,10.9166486 C6.77585088,10.7493437 6.273936,10.7075174 5.68836864,10.7075174 C3.01148928,10.7075174 1.42209216,12.547872 1.42209216,14.4300528 L0.8365248,14.4300528 C0.79469856,14.1790954 0.79469856,13.8863117 0.79469856,13.6353542 C0.79469856,10.1637763 2.84418432,6.273936 7.1104608,6.273936 C9.8291664,6.273936 11.9204784,8.7835104 15.0992726,8.7835104 C16.6886698,8.7835104 17.608847,8.19794304 18.2362406,6.81767712 L18.6963293,6.81767712 C18.6963293,9.2017728 17.9852832,11.5440422 14.9737939,12.3387408 M7.86333312,11.0839536 C5.93932608,13.0497869 4.09897152,15.1829251 4.09897152,19.4073754 C4.09897152,21.7078186 4.8100176,24.050088 6.56671968,25.5558326 L7.7378544,24.928439 L7.7378544,15.4757088 L6.52489344,16.1031024 L6.14845728,15.517535 L11.7531734,12.380567 C10.3310813,12.0459571 9.15994656,11.4603898 7.86333312,11.0839536 M14.2627478,12.4642195 C14.0117904,12.5060458 13.7190067,12.5060458 13.3843968,12.5060458 C12.8406557,12.5060458 12.380567,12.4642195 11.8786522,12.3387408 L11.8786522,23.4226944 L7.1104608,26.0159213 C8.11429056,26.7687936 9.24359904,27.1452298 10.8329962,27.1452298 C12.0877834,27.1452298 13.2589181,26.8524461 14.2627478,26.3923574 L14.2627478,12.4642195 Z M30.7004602,15.9357974 L30.7004602,28.7764531 C30.7004602,32.3735098 27.5216659,34.7994317 23.9664355,35.5104778 L23.7573043,35.1340416 C25.5140064,34.2556906 26.6851411,32.7499459 26.6851411,30.8677651 L26.6851411,17.4833683 L24.8447866,15.8103187 L23.882783,16.7723222 L23.882783,26.8942723 L25.0120915,27.9399283 L25.0120915,28.1072333 L22.0006022,31.3278538 L18.5290243,28.1490595 L18.5290243,27.9817546 L19.867464,26.5596624 L19.867464,10.0382976 L23.8409568,5.81384736 L23.9246093,5.8556736 L23.9246093,15.8103187 L27.187056,12.380567 L30.4495027,15.3502301 L31.4533325,14.3882266 L31.9552474,14.8901414 L30.7004602,15.9357974 Z M36.9325699,23.5481731 L36.9325699,25.2212227 L40.3204954,27.8981021 L42.9555485,25.1793965 L43.4574634,25.6813114 L38.1455309,31.36968 L33.3355133,27.5634922 L32.2898573,28.6091482 L31.8297686,28.1072333 L33.0009034,26.8942723 L33.0009034,17.4833683 L40.0695379,12.3387408 L44.0012045,18.4453718 L36.9325699,23.5481731 Z M37.0162224,15.0992726 L36.9325699,15.1410989 L36.9325699,22.6698221 L40.1950166,20.2857264 L37.0162224,15.0992726 Z" id="Shape"></path>
                                    <path d="M67.6330301,31.2860275 L62.4465763,26.8106198 L58.4730835,31.2860275 L53.0774986,26.6433149 L53.0774986,19.3237229 L52.0318426,19.3237229 C51.1116653,19.3237229 50.6515766,19.867464 50.4842717,20.6203363 L50.1078355,20.6203363 C50.024183,20.3275526 49.9405306,19.7838115 49.9405306,19.1982442 C49.9405306,18.2362406 50.358793,15.68484 53.0774986,15.68484 L53.0774986,9.99647136 C53.0774986,7.77968064 51.6135802,7.69602816 51.6135802,5.77202112 C51.6135802,3.63888288 53.6212397,1.6730496 57.343775,0.33460992 L57.678385,0.6273936 C56.4235978,1.21296096 55.419768,1.96583328 55.419768,3.59705664 C55.419768,6.0648048 57.8038637,5.4374112 57.8038637,9.32725152 L57.8038637,10.8329962 L62.1956189,6.23210976 L66.7965053,10.7493437 L71.1464342,6.23210976 L75.3290582,10.3310813 L75.3290582,24.1755667 L67.6330301,31.2860275 Z M62.1956189,12.6315245 L59.5605658,10.0382976 L57.8456899,11.7949997 L57.8456899,24.6356554 L61.0244842,27.354361 L62.1956189,26.0577475 L62.1956189,12.6315245 Z M70.6445194,12.1296096 L68.5532074,10.0382976 L66.9638102,11.6276947 L66.9638102,24.5938291 L70.6445194,27.8144496 L70.6863456,27.7726234 L70.6863456,12.1296096 L70.6445194,12.1296096 Z" id="Shape"></path>
                                    <path d="M87.4168416,31.2860275 L83.9034374,28.065407 L83.819785,28.065407 L80.7246432,31.2860275 L76.9602816,27.9399283 L76.0819306,28.8182794 L75.5800157,28.3163645 L76.6674979,27.187056 L76.6674979,17.3578896 L83.7779587,12.2550883 L87.667799,15.3084038 L88.713455,14.2627478 L89.2571962,14.7646627 L87.9187565,16.0194499 L87.9187565,26.1414 L89.6336323,27.7307971 L90.7211146,26.6014886 L91.2648557,27.1452298 L87.4168416,31.2860275 Z M83.9034374,17.3160634 L80.8082957,14.8901414 L80.7246432,14.9737939 L80.7246432,25.8904426 L83.0250864,27.8981021 L83.9034374,27.019751 L83.9034374,17.3160634 Z M99.0863626,19.1145917 L102.599767,19.1145917 L102.599767,27.1034035 L96.6604406,31.2860275 C95.8657421,30.4076765 94.7364336,29.7384566 93.3561677,29.7384566 C92.2268592,29.7384566 91.3485082,30.2821978 90.4283309,31.2442013 L89.8845898,31.0768963 L95.0292173,23.6736518 L91.850423,23.6736518 L91.850423,16.730496 L98.0825328,12.3387408 C98.8354051,12.9243082 99.4209725,13.3007443 100.382976,13.3007443 C101.135848,13.3007443 102.223331,13.1334394 103.059855,12.4642195 L103.436292,12.715177 L99.0863626,19.1145917 Z M98.5426214,22.3770384 L96.7859194,22.3770384 L92.6451216,28.3163645 L92.6869478,28.400017 C93.5652989,27.8562758 94.276345,27.4798397 95.5311322,27.4798397 C96.6604406,27.4798397 97.8315754,28.0235808 98.5426214,28.9019318 L98.5844477,28.8601056 L98.5844477,22.3770384 L98.5426214,22.3770384 Z M100.968543,15.0574464 C100.173845,15.6011875 99.7137562,15.9357974 98.3753165,15.9357974 C97.6224442,15.9357974 96.7440931,15.6011875 96.033047,14.8483152 L95.9493946,14.8901414 L95.9493946,20.3693789 L97.3714867,20.3693789 L100.968543,15.0574464 L100.968543,15.0574464 Z M115.942337,15.9357974 L115.942337,28.7764531 C115.942337,32.3735098 112.763543,34.7994317 109.208313,35.5104778 L108.999181,35.1340416 C110.755884,34.2556906 111.927018,32.7499459 111.927018,30.8677651 L111.927018,17.4833683 L110.086664,15.8103187 L109.12466,16.7723222 L109.12466,26.8942723 L110.253969,27.9399283 L110.253969,28.1072333 L107.242479,31.3278538 L103.770901,28.1490595 L103.770901,27.9817546 L105.109341,26.5596624 L105.109341,10.0382976 L109.082834,5.81384736 L109.166486,5.8556736 L109.166486,15.8103187 L112.428933,12.380567 L115.69138,15.3502301 L116.69521,14.3882266 L117.197124,14.8901414 L115.942337,15.9357974 Z M123.261929,31.2860275 L120.166788,28.4418432 L119.121132,29.4874992 L118.619217,28.9855843 L119.874004,27.7307971 L119.874004,17.0651059 L118.535564,15.8103187 L117.531734,16.7723222 L117.02982,16.2704074 L120.794181,12.2550883 L123.638365,14.8483152 L124.642195,13.8026592 L125.185936,14.3464003 L123.931149,15.6011875 L123.931149,26.3505312 L125.520546,27.8144496 L126.649855,26.6433149 L127.15177,27.187056 L123.261929,31.2860275 Z M122.174447,12.0041309 L119.121132,9.2017728 L121.92349,6.19028352 L124.976805,8.9926416 L122.174447,12.0041309 Z" id="Shape"></path>
                                    <path d="M139.406858,31.2860275 L136.144411,28.3163645 L136.144411,17.3997158 L134.387709,15.7684925 L133.132922,17.0651059 L133.132922,26.8524461 L134.304057,27.9399283 L134.304057,28.1072333 L131.250741,31.3278538 L127.779163,28.1490595 L127.779163,28.0235808 L129.117603,26.6014886 L129.117603,17.1487584 L127.570032,15.7684925 L126.440724,16.897801 L125.896982,16.3958861 L129.70317,12.2969146 L133.091096,15.3084038 L133.091096,16.0612762 L136.646326,12.2969146 L139.908773,15.2247514 L140.996255,14.1372691 L141.49817,14.6810102 L140.201556,15.9776237 L140.201556,26.4760099 L141.665475,27.8562758 L142.920262,26.6014886 L143.380351,27.1034035 L139.406858,31.2860275 Z M155.50996,15.9357974 L155.50996,28.6091482 C155.50996,30.5749814 156.597443,30.491329 156.597443,31.9552474 C156.597443,33.628297 154.171521,35.2176941 150.407159,38.0200522 C149.152372,36.6816125 148.315847,36.0960451 147.144712,36.0960451 C145.889925,36.0960451 144.38418,36.59796 143.129393,37.4344848 L142.752957,37.1417011 L147.897585,31.1187226 L144.509659,28.4418432 L143.422177,29.5293254 L142.920262,29.0274106 L144.175049,27.7307971 L144.175049,17.3160634 L151.28551,12.2132621 L155.091698,15.2247514 L156.221006,14.1372691 L156.722921,14.639184 L155.50996,15.9357974 Z M152.62395,31.5788112 C151.703772,30.9932438 151.452815,30.324024 151.452815,28.7346269 L151.452815,28.1908858 L145.471663,35.1340416 L145.513489,35.1758678 C146.72645,34.4648218 147.604801,34.0047331 149.361503,34.0047331 C150.867248,34.0047331 151.95473,34.6321267 152.916733,35.5104778 C153.62778,34.9249104 154.171521,34.2975168 154.171521,33.3773395 C154.129694,32.6662934 153.585953,32.1643786 152.62395,31.5788112 M151.494641,17.3160634 L148.3995,14.8901414 L148.315847,14.9737939 L148.315847,26.4760099 L150.532638,28.1908858 L151.494641,27.0615773 L151.494641,17.3160634 L151.494641,17.3160634 Z M163.247815,31.2860275 L159.943542,28.6928006 L158.939712,29.6966304 L158.437797,29.1947155 L159.608932,27.9817546 L159.608932,15.0156202 L157.433967,15.0156202 L157.350315,14.9319677 L158.646928,12.9661344 L159.567106,12.9661344 L159.567106,10.45656 L163.540598,6.23210976 L163.624251,6.31576224 L163.624251,12.9661344 L166.63574,12.9661344 L166.719393,13.0497869 L165.422779,15.0156202 L163.666077,15.0156202 L163.666077,26.3505312 L165.464605,27.7307971 L166.719393,26.4760099 L167.221308,27.019751 L163.247815,31.2860275 Z M179.601875,16.2704074 L179.601875,26.6433149 L173.286112,31.3278538 L168.685226,27.8562758 L167.63957,28.9019318 L167.137655,28.400017 L168.350616,27.1452298 L168.350616,17.0232797 L174.959162,12.2550883 L179.225438,15.6011875 L180.312921,14.5137053 L180.814836,15.0574464 L179.601875,16.2704074 Z M175.586556,17.3997158 L172.449588,14.9319677 L172.407761,14.9737939 L172.407761,26.1414 L175.586556,28.5254957 L175.586556,17.3997158 Z M194.45019,31.2442013 L191.187743,28.2745382 L191.187743,17.3578896 L189.431041,15.7266662 L188.176254,17.0232797 L188.176254,26.8106198 L189.347388,27.8981021 L189.347388,28.065407 L186.294073,31.2860275 L182.822495,28.1072333 L182.822495,27.9817546 L184.160935,26.5596624 L184.160935,17.1487584 L182.613364,15.7684925 L181.484055,16.897801 L180.940314,16.3958861 L184.746502,12.2969146 L188.134428,15.3084038 L188.134428,16.0612762 L191.689658,12.2969146 L194.952105,15.2247514 L196.039587,14.1372691 L196.541502,14.6810102 L195.244888,15.9776237 L195.244888,26.4760099 L196.708807,27.8562758 L197.963594,26.6014886 L198.423683,27.1034035 L194.45019,31.2442013 Z" id="Shape"></path>
                                    <path d="M217.412796,31.2860275 C216.785402,30.491329 215.990703,29.8221091 215.070526,29.5711517 L215.070526,37.3508323 L214.986874,37.3926586 L212.937388,35.4686515 L208.587459,39.4839706 L208.503806,39.4421443 L208.503806,29.3620205 C207.207193,29.6548042 205.785101,30.491329 204.697619,31.8297686 L204.404835,31.6624637 C204.655792,28.7764531 206.077884,26.6433149 208.503806,25.8067901 L208.503806,18.5290243 L207.709108,18.5290243 C206.621626,18.5290243 205.868753,19.2818966 205.743275,20.1184214 L205.283186,20.1184214 C205.157707,19.8256378 205.032228,19.3237229 205.032228,18.4035456 C205.032228,16.563191 206.287016,15.1829251 208.294675,15.1829251 L208.503806,15.1829251 L208.503806,11.1257798 L207.165367,9.91281888 L206.119711,10.9584749 L205.57597,10.45656 L209.716767,6.19028352 L213.230172,9.410904 L213.230172,13.0916131 L214.317654,11.9204784 L214.317654,7.61237568 L215.0287,7.61237568 L215.0287,11.1676061 L219.713239,6.19028352 L223.937689,10.0382976 L223.937689,26.3505312 L217.412796,31.2860275 Z M214.35948,12.6733507 L213.271998,13.8026592 L213.271998,34.8830842 L214.35948,35.8869139 L214.35948,12.6733507 Z M219.25315,11.7949997 L217.036359,9.78734016 L215.070526,11.8786522 L215.070526,25.4721802 C216.827228,25.6813114 218.123842,26.308705 219.211324,27.4380134 L219.25315,27.3961872 L219.25315,11.7949997 Z M237.489391,16.2704074 L237.489391,26.6433149 L231.173628,31.3278538 L226.572742,27.8562758 L225.527086,28.9019318 L225.025171,28.400017 L226.238132,27.1452298 L226.238132,17.0232797 L232.846678,12.2550883 L237.112955,15.6011875 L238.200437,14.5137053 L238.702352,15.0574464 L237.489391,16.2704074 Z M233.432245,17.3997158 L230.295277,14.9319677 L230.253451,14.9737939 L230.253451,26.1414 L233.432245,28.5254957 L233.432245,17.3997158 Z M246.774816,19.1145917 L250.28822,19.1145917 L250.28822,27.1034035 L244.348894,31.2860275 C243.554196,30.4076765 242.424887,29.7384566 241.044621,29.7384566 C239.915313,29.7384566 239.036962,30.2821978 238.116784,31.2442013 L237.573043,31.0768963 L242.717671,23.6736518 L239.538876,23.6736518 L239.538876,16.730496 L245.770986,12.3387408 C246.523859,12.9243082 247.109426,13.3007443 248.071429,13.3007443 C248.824302,13.3007443 249.911784,13.1334394 250.748309,12.4642195 L251.124745,12.715177 L246.774816,19.1145917 Z M246.231075,22.3770384 L244.474373,22.3770384 L240.333575,28.3163645 L240.375401,28.400017 C241.253752,27.8562758 241.964798,27.4798397 243.219586,27.4798397 C244.348894,27.4798397 245.520029,28.0235808 246.231075,28.9019318 L246.272901,28.8601056 L246.272901,22.3770384 L246.231075,22.3770384 Z M248.615171,15.0574464 C247.820472,15.6011875 247.360383,15.9357974 246.021944,15.9357974 C245.269071,15.9357974 244.39072,15.6011875 243.679674,14.8483152 L243.596022,14.8901414 L243.596022,20.3693789 L245.018114,20.3693789 L248.615171,15.0574464 L248.615171,15.0574464 Z M257.18955,31.2860275 L253.885277,28.6928006 L252.881447,29.6966304 L252.379532,29.1947155 L253.550667,27.9817546 L253.550667,15.0156202 L251.375702,15.0156202 L251.29205,14.9319677 L252.588663,12.9661344 L253.508841,12.9661344 L253.508841,10.45656 L257.482333,6.23210976 L257.565986,6.31576224 L257.565986,12.9661344 L260.577475,12.9661344 L260.661128,13.0497869 L259.364514,15.0156202 L257.607812,15.0156202 L257.607812,26.3505312 L259.40634,27.7307971 L260.661128,26.4760099 L261.163043,27.019751 L257.18955,31.2860275 Z" id="Shape"></path>
                                </g>
                            </g>
                        </g>
                    </g>
                </g>
            </g>
        </g>
    </g>
</svg>