<?xml version="1.0" encoding="UTF-8"?>
<svg width="199px" height="25px" viewBox="0 0 199 25" version="1.1" xmlns="http://www.w3.org/2000/svg" xmlns:xlink="http://www.w3.org/1999/xlink">
    <title>news-msutoday</title>
    <g id="Main" stroke="none" stroke-width="1" fill="none" fill-rule="evenodd">
        <g id="Home" transform="translate(-146.000000, -2493.000000)" fill="#18453B" fill-rule="nonzero">
            <g id="Featured-in-Section" transform="translate(0.000000, 2294.000000)">
                <g id="Featured-In-Content" transform="translate(107.000000, 71.000000)">
                    <g id="News-Logos-Group" transform="translate(0.000000, 83.000000)">
                        <g id="News-Logos" transform="translate(35.000000, 32.000000)">
                            <g id="Row-One" transform="translate(4.120000, 0.000000)">
                                <path d="M4.038012,37.08 L4.038012,20.394 L11.34648,31.340016 L11.479968,31.340016 L18.85518,20.327256 L18.85518,37.08 L22.959936,37.08 L22.959936,13.7196 L18.588204,13.7196 L11.479968,24.765732 L4.371732,13.7196 L9.9475983e-14,13.7196 L9.9475983e-14,37.08 L4.038012,37.08 Z M37.143036,37.41372 C42.04872,37.41372 45.486036,34.810704 45.486036,30.438972 L45.486036,30.372228 C45.486036,26.501076 42.949764,24.73236 38.010708,23.530968 C33.505488,22.463064 32.437584,21.662136 32.437584,19.860048 L32.437584,19.793304 C32.437584,18.258192 33.839208,17.023428 36.241992,17.023428 C38.3778,17.023428 40.480236,17.857728 42.582672,19.426212 L44.785224,16.322616 C42.415812,14.420412 39.71268,13.38588 36.308736,13.38588 C31.670028,13.38588 28.332828,16.155756 28.332828,20.160396 L28.332828,20.22714 C28.332828,24.532128 31.136076,26.000496 36.108504,27.201888 C40.446864,28.203048 41.38128,29.104092 41.38128,30.772692 L41.38128,30.839436 C41.38128,32.57478 39.779424,33.776172 37.243152,33.776172 C34.37316,33.776172 32.103864,32.674896 29.86794,30.73932 L27.398412,33.676056 C30.20166,36.178956 33.572232,37.41372 37.143036,37.41372 Z M59.90274,37.447092 C66.009816,37.447092 69.947712,33.943032 69.947712,26.968284 L69.947712,13.7196 L65.842956,13.7196 L65.842956,27.168516 C65.842956,31.473504 63.607032,33.642684 59.969484,33.642684 C56.298564,33.642684 54.06264,31.340016 54.06264,27.001656 L54.06264,13.7196 L49.957884,13.7196 L49.957884,27.168516 C49.957884,33.943032 53.829036,37.447092 59.90274,37.447092 Z M86.833944,37.08 L86.833944,19.39284 L93.842064,19.39284 L93.842064,13.7196 L73.385028,13.7196 L73.385028,19.39284 L80.359776,19.39284 L80.359776,37.08 L86.833944,37.08 Z M108.459,37.547208 C115.667352,37.547208 121.073616,32.107572 121.073616,25.3998 L121.073616,25.333056 C121.073616,18.625284 115.734096,13.252392 108.525744,13.252392 C101.317392,13.252392 95.911128,18.692028 95.911128,25.3998 L95.911128,25.466544 C95.911128,32.174316 101.250648,37.547208 108.459,37.547208 Z M108.525744,31.707108 C104.95494,31.707108 102.518784,28.770372 102.518784,25.3998 L102.518784,25.333056 C102.518784,21.962484 104.888196,19.092492 108.459,19.092492 C112.029804,19.092492 114.432588,21.995856 114.432588,25.3998 L114.432588,25.466544 C114.432588,28.837116 112.063176,31.707108 108.525744,31.707108 Z M133.32114,37.08 C141.697512,37.08 146.603196,32.0742 146.603196,25.333056 L146.603196,25.266312 C146.603196,18.525168 141.764256,13.7196 133.454628,13.7196 L124.410816,13.7196 L124.410816,37.08 L133.32114,37.08 Z M133.521372,31.340016 L130.884984,31.340016 L130.884984,19.426212 L133.521372,19.426212 C137.425896,19.426212 139.99554,21.628764 139.99554,25.366428 L139.99554,25.433172 C139.99554,29.204208 137.425896,31.340016 133.521372,31.340016 Z M154.912824,37.08 L156.581424,32.875128 L165.625236,32.875128 L167.293836,37.08 L174.235212,37.08 L164.290356,13.55274 L158.049792,13.55274 L148.138308,37.08 L154.912824,37.08 Z M163.723032,27.835956 L158.483628,27.835956 L161.120016,21.2283 L163.723032,27.835956 Z M189.753192,37.08 L189.753192,28.23642 L198.630144,13.7196 L191.38842,13.7196 L186.54948,22.22946 L181.743912,13.7196 L174.3687,13.7196 L183.279024,28.336536 L183.279024,37.08 L189.753192,37.08 Z" id="news-msutoday"></path>
                            </g>
                        </g>
                    </g>
                </g>
            </g>
        </g>
    </g>
</svg>