<?xml version="1.0" encoding="UTF-8"?>
<svg width="135px" height="45px" viewBox="0 0 135 45" version="1.1" xmlns="http://www.w3.org/2000/svg" xmlns:xlink="http://www.w3.org/1999/xlink">
    <title>news-npr</title>
    <g id="Main" stroke="none" stroke-width="1" fill="none" fill-rule="evenodd">
        <g id="Home" transform="translate(-466.000000, -2564.000000)" fill-rule="nonzero">
            <g id="Featured-in-Section" transform="translate(0.000000, 2294.000000)">
                <g id="Featured-In-Content" transform="translate(107.000000, 71.000000)">
                    <g id="News-Logos-Group" transform="translate(0.000000, 83.000000)">
                        <g id="News-Logos" transform="translate(35.000000, 32.000000)">
                            <g id="Row-Two" transform="translate(0.000000, 84.872000)">
                                <g id="news-npr" transform="translate(324.038000, 0.000000)">
                                    <polygon id="Path" fill="#D62021" points="44.7168979 43.750402 44.7168979 0 0 0 0 43.750402"></polygon>
                                    <polygon id="Path" fill="#000005" points="89.6523767 43.750402 89.6523767 0 44.7168979 0 44.7168979 43.750402"></polygon>
                                    <polygon id="Path" fill="#237BBD" points="133.83994 43.750402 133.83994 0 89.6523767 0 89.6523767 43.750402"></polygon>
                                    <g id="Group" transform="translate(12.106218, 10.183760)" fill="#FFFFFF">
                                        <path d="M14.9398682,23.5487928 L14.9398682,10.2891001 C14.9398682,8.33328449 14.5632771,6.90504749 13.810095,6.00438912 C13.0569128,5.10373075 11.8279443,4.65340157 10.1231894,4.65340157 C9.23976915,4.67697297 8.37370262,4.90407887 7.59239203,5.31704458 C6.77172656,5.69686276 6.0505058,6.26211952 5.48558883,6.96825158 L5.48558883,23.5593268 L0.126408192,23.5593268 L0.126408192,0.5267008 L3.99502557,0.5267008 L4.98258957,2.67564006 C6.44330645,0.986686165 8.60102406,0.141331381 11.4557424,0.139575712 C14.1893196,0.139575712 16.3487928,0.958595456 17.9341622,2.59663494 C19.5195316,4.23467443 20.3095828,6.51704457 20.304342,9.44374534 L20.304342,23.5487928 L14.9319677,23.5487928 L14.9398682,23.5487928 Z" id="Path"></path>
                                        <path d="M54.6531085,24.004389 C58.1644472,24.004389 60.9348934,22.9869786 62.9644471,20.9521578 C64.9940009,18.9173371 66.0087778,16.0204827 66.0087778,12.2615946 C66.0087778,4.18551569 62.338551,0.147476224 54.9980975,0.147476224 C53.1552265,0.0991205866 51.3692726,0.788286451 50.036576,2.06203363 L50.036576,0.5267008 L44.6589608,0.5267008 L44.6589608,29.6637891 L50.036576,29.6637891 L50.036576,22.9904899 C51.4812046,23.6772743 53.0642168,24.0232485 54.6636425,24.0017555 L54.6531085,24.004389 Z M53.4601312,4.72187267 C55.9338693,4.72187267 57.7070953,5.27578635 58.7798093,6.3836137 C59.8525232,7.49144105 60.3853689,9.40160928 60.3784147,12.1141184 C60.3784147,14.6598389 59.8384779,16.5217263 58.7587412,17.6997804 C57.6790046,18.8778345 55.9040229,19.4668616 53.4337962,19.4668616 C52.1986946,19.4858275 50.9962174,19.0700873 50.036576,18.2923188 L50.036576,6.22033645 C50.9226745,5.27031846 52.1610395,4.72734304 53.4601312,4.71923917 L53.4601312,4.72187267 Z" id="Shape"></path>
                                        <path d="M105.9564,5.56196045 C105.019282,4.96357476 103.929111,4.6489618 102.817263,4.65603507 C101.574249,4.65603507 100.472567,5.22048276 99.5122156,6.34937814 C98.537827,7.5026566 98.0230433,8.97480655 98.066422,10.4839794 L98.066422,23.5514263 L92.6993408,23.5514263 L92.6993408,0.5267008 L98.071689,0.5267008 L98.071689,2.72831014 C99.5675192,1.00424286 101.556693,0.141331381 104.039209,0.139575712 C105.863349,0.139575712 107.259984,0.418727136 108.229114,0.977029984 L105.959033,5.57512797 L105.9564,5.56196045 Z" id="Path"></path>
                                    </g>
                                </g>
                            </g>
                        </g>
                    </g>
                </g>
            </g>
        </g>
    </g>
</svg>