<?xml version="1.0" encoding="UTF-8"?>
<svg width="203px" height="56px" viewBox="0 0 203 56" version="1.1" xmlns="http://www.w3.org/2000/svg" xmlns:xlink="http://www.w3.org/1999/xlink">
    <title>news-smithsonian</title>
    <g id="Main" stroke="none" stroke-width="1" fill="none" fill-rule="evenodd">
        <g id="Home" transform="translate(-667.000000, -2480.000000)" fill-rule="nonzero">
            <g id="Featured-in-Section" transform="translate(0.000000, 2294.000000)">
                <g id="Featured-In-Content" transform="translate(107.000000, 71.000000)">
                    <g id="News-Logos-Group" transform="translate(0.000000, 83.000000)">
                        <g id="News-Logos" transform="translate(35.000000, 32.000000)">
                            <g id="Row-One" transform="translate(4.120000, 0.000000)">
                                <g id="news-smithsonian" transform="translate(521.305344, 0.000000)">
                                    <g id="Group" fill="#010101">
                                        <path d="M10.323072,37.851264 C7.831296,37.851264 4.686912,37.020672 1.423872,35.5968 C1.008576,35.418816 0.830592,29.36736 0.59328,27.646848 C0.533952,27.29088 1.067904,27.29088 1.18656,27.528192 C3.26304,34.172928 6.466752,36.664704 11.509632,36.664704 C15.365952,36.664704 18.035712,34.291584 18.035712,29.664 C18.035712,20.349504 1.898496,20.883456 1.898496,11.509632 C1.898496,6.407424 5.754816,2.37312 12.577536,2.37312 C15.069312,2.37312 16.849152,2.847744 19.340928,4.15296 C19.756224,4.330944 19.756224,8.839872 19.934208,10.560384 C19.993536,10.916352 19.459584,10.916352 19.400256,10.67904 C17.857728,6.110784 15.247296,3.500352 11.212992,3.500352 C8.127936,3.500352 5.63616,5.398848 5.63616,9.611136 C5.63616,18.035712 21.773376,17.086464 21.773376,28.47744 C21.714048,33.52032 17.679744,37.851264 10.323072,37.851264 Z" id="Path"></path>
                                        <path d="M51.61536,36.961344 C49.420224,36.961344 48.64896,37.020672 47.225088,37.08 C46.987776,37.139328 46.86912,36.664704 47.284416,36.546048 C48.35232,36.308736 48.767616,36.368064 49.301568,36.012096 C49.894848,35.715456 50.13216,32.215104 49.894848,22.366656 C49.83552,20.052864 48.411648,18.925632 45.741888,18.925632 C43.60608,18.925632 42.300864,19.756224 41.054976,21.180096 C40.699008,21.595392 40.580352,21.892032 40.580352,22.425984 L40.580352,22.84128 C40.580352,33.994944 40.817664,35.89344 41.173632,36.071424 C41.766912,36.427392 42.360192,36.368064 43.428096,36.605376 C43.784064,36.724032 43.724736,37.198656 43.487424,37.139328 C42.300864,37.020672 41.23296,37.020672 38.85984,37.020672 C36.664704,37.020672 35.89344,37.08 34.469568,37.139328 C34.232256,37.198656 34.1136,36.724032 34.528896,36.605376 C35.5968,36.368064 36.012096,36.427392 36.546048,36.071424 C37.08,35.774784 37.37664,32.986368 37.139328,23.13792 C37.020672,19.934208 35.656128,18.806976 32.986368,18.806976 C30.85056,18.806976 29.545344,19.815552 28.299456,21.180096 C27.943488,21.595392 27.824832,21.832704 27.824832,22.425984 L27.943488,27.053568 C28.062144,35.30016 28.121472,35.89344 28.536768,36.130752 C29.130048,36.48672 29.486016,36.427392 30.55392,36.664704 C30.909888,36.78336 30.85056,37.257984 30.613248,37.198656 C29.248704,37.08 28.418112,37.08 26.222976,37.08 C23.849856,37.08 22.485312,37.139328 21.298752,37.198656 C21.06144,37.257984 20.942784,36.78336 21.35808,36.664704 C22.425984,36.427392 23.375232,36.48672 23.968512,36.130752 C24.32448,35.952768 24.561792,35.30016 24.561792,27.053568 C24.561792,21.35808 24.443136,20.7648 23.968512,20.290176 C23.553216,19.934208 22.959936,19.696896 21.832704,19.637568 C21.476736,19.57824 21.595392,19.2816 21.773376,19.222272 C24.02784,18.569664 25.689024,16.90848 27.231552,15.72192 C27.528192,15.484608 27.765504,15.781248 27.765504,15.959232 C27.646848,16.552512 27.468864,18.866304 27.409536,20.586816 C27.409536,20.705472 27.765504,20.824128 27.824832,20.705472 C30.079296,18.273024 32.452416,16.493184 35.122176,16.493184 C37.96992,16.493184 39.512448,18.09504 40.224384,20.349504 C40.283712,20.527488 40.580352,20.586816 40.63968,20.527488 C42.953472,18.213696 45.207936,16.671168 47.877696,16.671168 C51.971328,16.671168 53.335872,19.103616 53.335872,22.425984 C53.335872,33.579648 53.513856,35.89344 53.929152,36.071424 C54.522432,36.427392 55.47168,36.368064 56.539584,36.605376 C56.895552,36.724032 56.836224,37.198656 56.598912,37.139328 C55.293696,36.961344 53.98848,36.961344 51.61536,36.961344 Z" id="Path"></path>
                                        <path d="M59.209344,36.961344 C56.836224,36.961344 55.531008,37.020672 54.28512,37.08 C54.047808,37.139328 53.929152,36.664704 54.344448,36.546048 C55.412352,36.308736 56.3616,36.368064 56.95488,36.012096 C57.310848,35.834112 57.54816,35.181504 57.54816,26.934912 C57.54816,21.239424 57.429504,20.349504 56.95488,19.87488 C56.539584,19.459584 55.946304,19.162944 54.8784,18.98496 C54.522432,18.866304 54.58176,18.628992 54.759744,18.569664 C57.014208,18.154368 59.090688,16.671168 60.573888,15.603264 C60.870528,15.42528 61.167168,15.72192 61.10784,15.959232 C60.929856,16.552512 60.989184,18.273024 60.989184,19.993536 L60.870528,26.99424 C60.751872,35.240832 61.048512,35.834112 61.463808,36.071424 C61.99776,36.427392 63.006336,36.368064 64.014912,36.605376 C64.37088,36.724032 64.311552,37.198656 64.07424,37.139328 C62.769024,36.961344 61.40448,36.961344 59.209344,36.961344 Z M58.853376,8.30592 C57.607488,8.30592 56.598912,7.475328 56.598912,6.288768 C56.598912,4.864896 57.8448,3.796992 59.150016,3.796992 C60.395904,3.796992 61.226496,4.686912 61.226496,5.992128 C61.285824,7.238016 60.277248,8.30592 58.853376,8.30592 Z" id="Shape"></path>
                                        <path d="M71.430912,37.495296 C67.218624,37.495296 66.388032,34.766208 66.388032,31.681152 C66.388032,27.765504 66.506688,20.527488 66.506688,18.98496 C65.023488,18.925632 63.7776,18.866304 62.59104,18.98496 C62.353728,18.98496 62.353728,18.09504 62.709696,17.976384 C65.85408,17.20512 68.2272,15.009984 69.591744,12.340224 C69.769728,11.984256 70.422336,12.280896 70.422336,12.45888 C70.363008,13.05216 70.185024,14.950656 70.125696,16.671168 C70.125696,16.789824 70.244352,16.967808 70.540992,16.967808 C73.86336,16.967808 74.990592,16.849152 76.770432,16.789824 C77.245056,16.730496 77.304384,19.162944 76.651776,19.103616 C74.871936,18.98496 73.210752,18.925632 69.888384,18.925632 C69.888384,21.180096 69.769728,27.350208 69.769728,31.028544 C69.769728,33.994944 70.481664,35.834112 72.97344,35.834112 C74.45664,35.834112 75.702528,35.478144 76.770432,34.647552 C76.948416,34.528896 77.1264,34.944192 77.067072,35.00352 C75.93984,36.368064 73.329408,37.495296 71.430912,37.495296 Z" id="Path"></path>
                                        <path d="M93.975552,36.961344 C91.721088,36.961344 90.712512,37.020672 89.347968,37.08 C89.110656,37.139328 89.051328,36.664704 89.407296,36.546048 C90.4752,36.308736 91.127808,36.368064 91.66176,36.012096 C92.195712,35.715456 92.492352,32.92704 92.25504,23.078592 C92.136384,19.87488 90.119232,18.747648 87.390144,18.747648 C85.254336,18.747648 83.65248,19.756224 82.406592,21.120768 C82.050624,21.536064 81.931968,21.773376 81.931968,22.366656 L81.931968,26.99424 C81.931968,35.181504 82.109952,35.834112 82.525248,36.071424 C83.118528,36.427392 83.711808,36.368064 84.779712,36.605376 C85.13568,36.724032 85.076352,37.198656 84.83904,37.139328 C83.474496,37.020672 82.406592,37.020672 80.211456,37.020672 C77.838336,37.020672 76.473792,37.08 75.227904,37.139328 C75.04992,37.198656 74.931264,36.724032 75.287232,36.605376 C76.355136,36.368064 77.304384,36.427392 77.897664,36.071424 C78.253632,35.89344 78.490944,35.181504 78.490944,19.400256 C78.490944,6.22944 78.372288,3.737664 77.897664,3.441024 C77.482368,3.144384 76.651776,2.9664 75.583872,2.847744 C75.227904,2.788416 75.287232,2.491776 75.465216,2.432448 C77.71968,2.07648 80.330112,1.18656 81.931968,0.118656 C82.228608,-0.059328 82.46592,0.237312 82.406592,0.474624 C82.109952,1.4832 82.050624,3.322368 82.050624,3.85632 L81.931968,20.17152 C81.931968,20.349504 82.287936,20.408832 82.287936,20.349504 C84.5424,17.857728 86.856192,16.433856 89.525952,16.433856 C93.560256,16.433856 95.577408,19.162944 95.577408,23.078592 C95.577408,34.232256 95.81472,35.834112 96.170688,36.012096 C96.763968,36.368064 97.713216,36.308736 98.78112,36.546048 C99.137088,36.664704 99.07776,37.139328 98.840448,37.08 C97.653888,36.961344 96.289344,36.961344 93.975552,36.961344 Z" id="Path"></path>
                                        <path d="M102.874752,37.495296 C101.332224,37.495296 98.78112,36.78336 97.8912,36.249408 C97.475904,35.952768 97.00128,33.460992 96.882624,31.384512 C96.882624,31.028544 97.416576,31.028544 97.475904,31.265856 C98.009856,33.52032 100.916928,36.48672 103.349376,36.48672 C105.781824,36.48672 107.265024,35.00352 107.265024,32.571072 C107.265024,27.706176 97.59456,27.943488 97.59456,22.425984 C97.59456,18.98496 100.442304,16.374528 104.476608,16.374528 C105.722496,16.374528 107.917632,16.730496 108.629568,17.145792 C109.044864,17.383104 109.222848,19.815552 109.222848,21.536064 C109.222848,21.892032 108.688896,21.892032 108.629568,21.65472 C108.332928,19.87488 105.959808,17.383104 103.883328,17.383104 C101.806848,17.383104 100.679616,18.68832 100.679616,20.586816 C100.679616,25.570368 110.468736,24.858432 110.468736,31.1472 C110.468736,34.766208 107.38368,37.495296 102.874752,37.495296 Z" id="Path"></path>
                                        <path d="M121.385088,37.495296 C114.384384,37.495296 110.94336,32.274432 110.94336,26.816256 C110.94336,21.239424 115.09632,16.433856 121.207104,16.433856 C128.207808,16.433856 131.70816,21.65472 131.70816,27.172224 C131.648832,32.689728 127.5552,37.495296 121.385088,37.495296 Z M120.969792,17.264448 C117.291456,17.264448 114.681024,21.239424 114.681024,26.460288 C114.681024,31.977792 117.350784,36.78336 121.681728,36.78336 C125.419392,36.78336 127.970496,32.808384 127.970496,27.58752 C127.970496,22.010688 125.300736,17.264448 120.969792,17.264448 Z" id="Shape"></path>
                                        <path d="M148.675968,36.961344 C146.480832,36.961344 145.472256,37.020672 144.048384,37.08 C143.811072,37.139328 143.692416,36.664704 144.107712,36.546048 C145.175616,36.308736 145.828224,36.368064 146.362176,36.012096 C146.896128,35.715456 147.192768,32.92704 146.955456,23.078592 C146.8368,19.87488 145.175616,18.747648 142.446528,18.747648 C140.31072,18.747648 139.005504,19.756224 137.759616,21.120768 C137.403648,21.536064 137.284992,21.773376 137.284992,22.366656 L137.403648,26.99424 C137.522304,35.240832 137.581632,35.834112 137.996928,36.071424 C138.590208,36.427392 139.361472,36.368064 140.429376,36.605376 C140.785344,36.724032 140.726016,37.198656 140.548032,37.139328 C139.005504,37.020672 137.818944,37.020672 135.742464,37.020672 C133.369344,37.020672 132.0048,37.08 130.81824,37.139328 C130.580928,37.198656 130.462272,36.724032 130.877568,36.605376 C131.945472,36.368064 132.89472,36.427392 133.488,36.071424 C133.843968,35.89344 134.08128,35.240832 134.08128,26.99424 C134.08128,21.298752 133.962624,20.705472 133.488,20.230848 C133.072704,19.87488 132.479424,19.637568 131.352192,19.57824 C130.996224,19.518912 131.055552,19.222272 131.292864,19.162944 C133.547328,18.510336 135.208512,16.849152 136.75104,15.662592 C137.04768,15.42528 137.284992,15.72192 137.284992,15.899904 C137.166336,16.493184 136.988352,18.806976 136.929024,20.527488 C136.929024,20.646144 137.284992,20.7648 137.34432,20.646144 C139.598784,18.213696 141.971904,16.433856 144.641664,16.433856 C148.735296,16.433856 150.455808,19.162944 150.455808,23.078592 C150.455808,34.232256 150.633792,35.834112 151.049088,36.012096 C151.642368,36.368064 152.591616,36.308736 153.65952,36.546048 C154.015488,36.664704 153.95616,37.139328 153.718848,37.08 C152.354304,36.961344 151.049088,36.961344 148.675968,36.961344 Z" id="Path"></path>
                                        <path d="M156.92256,36.961344 C154.54944,36.961344 153.244224,37.020672 151.998336,37.08 C151.761024,37.139328 151.642368,36.664704 152.057664,36.546048 C153.125568,36.308736 154.074816,36.368064 154.668096,36.012096 C155.024064,35.834112 155.261376,35.181504 155.261376,26.934912 C155.261376,21.239424 155.14272,20.349504 154.668096,19.87488 C154.2528,19.459584 153.65952,19.162944 152.591616,18.98496 C152.235648,18.866304 152.294976,18.628992 152.47296,18.569664 C154.727424,18.154368 156.803904,16.671168 158.287104,15.603264 C158.583744,15.42528 158.880384,15.72192 158.821056,15.959232 C158.643072,16.552512 158.7024,18.273024 158.7024,19.993536 L158.583744,26.99424 C158.465088,35.240832 158.761728,35.834112 159.177024,36.071424 C159.710976,36.427392 160.719552,36.368064 161.728128,36.605376 C162.084096,36.724032 162.024768,37.198656 161.787456,37.139328 C160.48224,36.961344 159.058368,36.961344 156.92256,36.961344 Z M156.566592,8.30592 C155.320704,8.30592 154.312128,7.475328 154.312128,6.288768 C154.312128,4.864896 155.558016,3.796992 156.863232,3.796992 C158.10912,3.796992 158.939712,4.686912 158.939712,5.992128 C158.99904,7.238016 157.990464,8.30592 156.566592,8.30592 Z" id="Shape"></path>
                                        <path d="M175.551552,37.495296 C174.068352,37.495296 173.23776,36.19008 172.703808,34.884864 C172.585152,34.766208 172.407168,34.70688 172.288512,34.825536 C170.86464,36.071424 168.669504,37.554624 165.999744,37.554624 C163.626624,37.554624 161.550144,35.774784 161.550144,33.698304 C161.550144,29.545344 165.703104,28.240128 172.466496,25.926336 C172.881792,25.80768 172.94112,25.570368 173.000448,24.858432 C173.000448,24.32448 173.000448,22.900608 173.000448,22.366656 C173.000448,18.806976 171.813888,17.50176 169.38144,17.50176 C167.423616,17.50176 166.237056,18.925632 166.1184,21.06144 C165.999744,23.256576 165.22848,23.909184 163.863936,23.909184 C162.914688,23.909184 162.321408,23.315904 162.321408,22.366656 C162.440064,19.934208 166.71168,16.493184 170.449344,16.493184 C174.246336,16.493184 176.382144,18.451008 176.382144,22.425984 C176.382144,26.10432 175.966848,29.901312 175.966848,33.460992 C175.966848,34.766208 176.560128,35.5968 177.509376,35.5968 C178.339968,35.5968 178.636608,35.478144 179.229888,35.00352 C179.407872,34.884864 179.645184,35.122176 179.585856,35.240832 C179.051904,36.308736 177.212736,37.495296 175.551552,37.495296 Z M172.466496,26.756928 C167.542272,28.1808 164.991168,29.841984 164.991168,32.511744 C164.991168,34.766208 166.059072,35.5968 168.076224,35.5968 C170.330688,35.5968 172.466496,33.698304 172.525824,33.164352 C172.703808,31.681152 172.822464,28.1808 172.822464,27.053568 C172.822464,26.875584 172.703808,26.756928 172.466496,26.756928 Z" id="Shape"></path>
                                        <path d="M195.960384,36.961344 C193.765248,36.961344 192.756672,37.020672 191.3328,37.08 C191.095488,37.139328 190.976832,36.664704 191.392128,36.546048 C192.460032,36.308736 193.11264,36.368064 193.646592,36.012096 C194.180544,35.715456 194.477184,32.92704 194.239872,23.078592 C194.121216,19.87488 192.460032,18.747648 189.730944,18.747648 C187.595136,18.747648 186.28992,19.756224 185.044032,21.120768 C184.688064,21.536064 184.569408,21.773376 184.569408,22.366656 L184.688064,26.99424 C184.80672,35.240832 184.866048,35.834112 185.281344,36.071424 C185.874624,36.427392 186.645888,36.368064 187.713792,36.605376 C188.06976,36.724032 188.010432,37.198656 187.832448,37.139328 C186.28992,37.020672 185.10336,37.020672 183.02688,37.020672 C180.65376,37.020672 179.289216,37.08 178.102656,37.139328 C177.865344,37.198656 177.746688,36.724032 178.161984,36.605376 C179.229888,36.368064 180.179136,36.427392 180.772416,36.071424 C181.128384,35.89344 181.365696,35.240832 181.365696,26.99424 C181.365696,21.298752 181.24704,20.705472 180.772416,20.230848 C180.35712,19.87488 179.76384,19.637568 178.636608,19.57824 C178.28064,19.518912 178.339968,19.222272 178.57728,19.162944 C180.831744,18.510336 182.492928,16.849152 184.035456,15.662592 C184.332096,15.42528 184.569408,15.72192 184.569408,15.899904 C184.450752,16.493184 184.272768,18.806976 184.21344,20.527488 C184.21344,20.646144 184.569408,20.7648 184.628736,20.646144 C186.8832,18.213696 189.25632,16.433856 191.92608,16.433856 C196.019712,16.433856 197.740224,19.162944 197.740224,23.078592 C197.740224,34.232256 197.918208,35.834112 198.333504,36.012096 C198.926784,36.368064 199.876032,36.308736 200.943936,36.546048 C201.299904,36.664704 201.240576,37.139328 201.003264,37.08 C199.63872,36.961344 198.333504,36.961344 195.960384,36.961344 Z" id="Path"></path>
                                    </g>
                                    <g id="Group" transform="translate(55.768320, 42.716160)" fill="#000000">
                                        <path d="M12.992832,1.008576 C12.814848,1.067904 12.696192,1.18656 12.577536,1.364544 C12.518208,1.542528 12.45888,1.839168 12.45888,2.254464 L12.45888,10.323072 C12.45888,10.738368 12.518208,11.035008 12.577536,11.212992 C12.636864,11.390976 12.75552,11.509632 12.992832,11.56896 C13.170816,11.628288 13.467456,11.687616 13.882752,11.687616 L13.882752,11.984256 C13.3488,11.924928 12.577536,11.924928 11.687616,11.924928 C10.67904,11.924928 9.967104,11.924928 9.433152,11.984256 L9.433152,11.687616 C9.848448,11.687616 10.145088,11.628288 10.323072,11.56896 C10.501056,11.509632 10.619712,11.390976 10.738368,11.212992 C10.797696,11.035008 10.857024,10.738368 10.857024,10.323072 L10.857024,1.601856 L6.644736,12.102912 L6.348096,12.102912 L1.957824,1.601856 L1.957824,10.145088 C1.957824,10.560384 2.017152,10.857024 2.07648,11.094336 C2.135808,11.331648 2.313792,11.450304 2.551104,11.56896 C2.788416,11.687616 3.085056,11.687616 3.55968,11.746944 L3.55968,12.043584 C3.144384,11.984256 2.551104,11.984256 1.77984,11.984256 C1.067904,11.984256 0.533952,11.984256 0.177984,12.043584 L0.177984,11.746944 C0.59328,11.746944 0.88992,11.687616 1.067904,11.56896 C1.245888,11.450304 1.423872,11.331648 1.4832,11.094336 C1.542528,10.857024 1.601856,10.560384 1.601856,10.145088 L1.601856,2.254464 C1.601856,1.839168 1.542528,1.542528 1.4832,1.364544 C1.423872,1.18656 1.305216,1.067904 1.067904,1.008576 C0.88992,0.949248 0.59328,0.88992 0.177984,0.88992 L0.177984,0.59328 C0.59328,0.59328 1.127232,0.59328 1.839168,0.59328 C2.432448,0.59328 2.9664,0.59328 3.322368,0.533952 L7.178688,9.967104 L10.916352,0.59328 L11.746944,0.59328 C12.696192,0.59328 13.408128,0.59328 13.94208,0.533952 L13.94208,0.830592 C13.526784,0.88992 13.230144,0.949248 12.992832,1.008576 Z" id="Path"></path>
                                        <path d="M26.222976,11.687616 L26.222976,11.984256 C25.748352,11.924928 25.095744,11.924928 24.32448,11.924928 C23.315904,11.924928 22.603968,11.924928 22.070016,11.984256 L22.070016,11.687616 C22.485312,11.687616 22.84128,11.628288 23.019264,11.509632 C23.197248,11.450304 23.315904,11.27232 23.315904,11.035008 C23.315904,10.857024 23.256576,10.619712 23.13792,10.263744 L22.070016,7.593984 L17.857728,7.593984 L17.145792,9.314496 C16.90848,9.848448 16.789824,10.323072 16.789824,10.619712 C16.789824,10.97568 16.90848,11.212992 17.145792,11.331648 C17.383104,11.450304 17.7984,11.56896 18.273024,11.56896 L18.273024,11.8656 C17.620416,11.806272 16.967808,11.806272 16.255872,11.806272 C15.72192,11.806272 15.306624,11.806272 14.950656,11.8656 L14.950656,11.56896 C15.543936,11.450304 15.959232,10.97568 16.3152,10.145088 L20.408832,0.29664 L20.705472,0.29664 L24.977088,10.501056 C25.273728,11.331648 25.689024,11.687616 26.222976,11.687616 Z M19.993536,2.491776 L17.976384,7.356672 L21.95136,7.356672 L19.993536,2.491776 Z" id="Shape"></path>
                                        <path d="M36.664704,11.390976 C36.605376,11.212992 36.48672,11.094336 36.308736,11.094336 C36.249408,11.094336 36.19008,11.094336 36.071424,11.153664 C36.012096,11.212992 35.89344,11.27232 35.715456,11.390976 C35.30016,11.687616 34.884864,11.924928 34.469568,12.043584 C34.054272,12.16224 33.52032,12.280896 32.986368,12.280896 C31.799808,12.280896 30.791232,12.043584 29.901312,11.56896 C29.07072,11.094336 28.418112,10.441728 27.943488,9.551808 C27.468864,8.661888 27.29088,7.653312 27.29088,6.466752 C27.29088,5.220864 27.528192,4.15296 28.002816,3.203712 C28.47744,2.254464 29.130048,1.542528 30.019968,1.067904 C30.85056,0.59328 31.859136,0.29664 32.92704,0.29664 C33.401664,0.29664 33.81696,0.355968 34.172928,0.415296 C34.528896,0.533952 34.884864,0.652608 35.122176,0.771264 C35.418816,0.88992 35.715456,1.127232 36.071424,1.305216 C36.19008,1.423872 36.308736,1.4832 36.427392,1.4832 C36.664704,1.4832 36.78336,1.127232 36.842688,0.474624 L37.257984,0.474624 C37.198656,1.18656 37.198656,2.432448 37.198656,4.212288 L36.78336,4.212288 C36.664704,3.619008 36.546048,3.144384 36.427392,2.788416 C36.308736,2.432448 36.130752,2.07648 35.89344,1.839168 C35.537472,1.423872 35.122176,1.127232 34.588224,0.88992 C34.054272,0.652608 33.460992,0.533952 32.867712,0.533952 C32.096448,0.533952 31.44384,0.771264 30.85056,1.245888 C30.25728,1.720512 29.841984,2.37312 29.486016,3.203712 C29.189376,4.034304 29.011392,5.04288 29.011392,6.22944 C29.011392,7.534656 29.189376,8.60256 29.486016,9.433152 C29.782656,10.263744 30.25728,10.857024 30.85056,11.27232 C31.44384,11.687616 32.215104,11.8656 33.22368,11.8656 C33.935616,11.8656 34.528896,11.687616 35.062848,11.331648 C35.30016,11.212992 35.418816,11.094336 35.478144,10.97568 C35.537472,10.857024 35.5968,10.67904 35.5968,10.441728 L35.5968,8.8992 C35.5968,8.424576 35.537472,8.127936 35.478144,7.890624 C35.359488,7.653312 35.240832,7.534656 35.00352,7.475328 C34.766208,7.416 34.41024,7.356672 33.876288,7.356672 L33.876288,7.11936 C34.469568,7.178688 35.30016,7.178688 36.368064,7.178688 C37.198656,7.178688 37.791936,7.178688 38.207232,7.11936 L38.207232,7.416 C37.910592,7.416 37.732608,7.475328 37.613952,7.534656 C37.495296,7.593984 37.435968,7.71264 37.37664,7.890624 C37.317312,8.068608 37.317312,8.365248 37.317312,8.780544 L37.317312,11.984256 L36.78336,11.984256 C36.78336,11.806272 36.724032,11.56896 36.664704,11.390976 Z" id="Path"></path>
                                        <path d="M50.191488,11.687616 L50.191488,11.984256 C49.716864,11.924928 49.064256,11.924928 48.292992,11.924928 C47.284416,11.924928 46.57248,11.924928 46.038528,11.984256 L46.038528,11.687616 C46.453824,11.687616 46.809792,11.628288 46.987776,11.509632 C47.16576,11.450304 47.284416,11.27232 47.284416,11.035008 C47.284416,10.857024 47.225088,10.619712 47.106432,10.263744 L46.038528,7.593984 L41.82624,7.593984 L41.114304,9.314496 C40.876992,9.848448 40.758336,10.323072 40.758336,10.619712 C40.758336,10.97568 40.876992,11.212992 41.114304,11.331648 C41.351616,11.450304 41.766912,11.56896 42.241536,11.56896 L42.241536,11.8656 C41.588928,11.806272 40.93632,11.806272 40.224384,11.806272 C39.690432,11.806272 39.275136,11.806272 38.919168,11.8656 L38.919168,11.56896 C39.512448,11.450304 39.927744,10.97568 40.283712,10.145088 L44.377344,0.29664 L44.673984,0.29664 L48.9456,10.501056 C49.24224,11.331648 49.657536,11.687616 50.191488,11.687616 Z M43.962048,2.491776 L41.944896,7.356672 L45.919872,7.356672 L43.962048,2.491776 Z" id="Shape"></path>
                                        <path d="M52.861248,11.628288 L56.539584,11.628288 C57.25152,11.628288 57.8448,11.509632 58.200768,11.331648 C58.556736,11.153664 58.853376,10.857024 59.03136,10.441728 C59.209344,10.026432 59.328,9.433152 59.446656,8.60256 L59.861952,8.60256 C59.802624,9.017856 59.802624,9.433152 59.802624,9.907776 C59.802624,10.441728 59.861952,11.153664 59.92128,11.984256 C59.03136,11.924928 57.607488,11.924928 55.590336,11.924928 C53.573184,11.924928 52.149312,11.924928 51.259392,11.984256 L51.259392,11.687616 L58.556736,0.88992 L54.8784,0.88992 C54.166464,0.88992 53.573184,1.008576 53.217216,1.18656 C52.861248,1.364544 52.564608,1.661184 52.386624,2.07648 C52.20864,2.491776 52.089984,3.085056 51.971328,3.915648 L51.556032,3.915648 C51.61536,3.55968 51.61536,3.144384 51.61536,2.610432 C51.61536,2.017152 51.556032,1.305216 51.496704,0.533952 C52.327296,0.59328 53.810496,0.59328 55.827648,0.59328 C57.785472,0.59328 59.209344,0.59328 60.039936,0.533952 L60.039936,0.830592 L52.861248,11.628288 Z" id="Path"></path>
                                        <path d="M65.55744,1.008576 C65.379456,1.067904 65.2608,1.18656 65.142144,1.364544 C65.082816,1.542528 65.023488,1.839168 65.023488,2.254464 L65.023488,10.323072 C65.023488,10.738368 65.082816,11.035008 65.142144,11.212992 C65.201472,11.390976 65.320128,11.509632 65.55744,11.56896 C65.735424,11.628288 66.032064,11.687616 66.44736,11.687616 L66.44736,11.984256 C65.913408,11.924928 65.201472,11.924928 64.252224,11.924928 C63.243648,11.924928 62.531712,11.924928 61.99776,11.984256 L61.99776,11.687616 C62.413056,11.687616 62.709696,11.628288 62.88768,11.56896 C63.065664,11.509632 63.18432,11.390976 63.302976,11.212992 C63.362304,11.035008 63.421632,10.738368 63.421632,10.323072 L63.421632,2.254464 C63.421632,1.839168 63.362304,1.542528 63.302976,1.364544 C63.243648,1.18656 63.124992,1.067904 62.88768,1.008576 C62.709696,0.949248 62.413056,0.88992 61.99776,0.88992 L61.99776,0.59328 C62.472384,0.652608 63.243648,0.652608 64.252224,0.652608 C65.201472,0.652608 65.913408,0.652608 66.44736,0.59328 L66.44736,0.88992 C66.032064,0.88992 65.735424,0.949248 65.55744,1.008576 Z" id="Path"></path>
                                        <path d="M78.431616,1.008576 C78.253632,1.127232 78.075648,1.245888 78.01632,1.4832 C77.956992,1.720512 77.897664,2.017152 77.897664,2.432448 L77.897664,12.102912 L77.482368,12.102912 L70.125696,1.601856 L70.125696,10.145088 C70.125696,10.560384 70.185024,10.857024 70.244352,11.094336 C70.30368,11.331648 70.481664,11.450304 70.718976,11.56896 C70.956288,11.687616 71.252928,11.687616 71.727552,11.746944 L71.727552,12.043584 C71.312256,11.984256 70.718976,11.984256 69.947712,11.984256 C69.235776,11.984256 68.701824,11.984256 68.345856,12.043584 L68.345856,11.746944 C68.761152,11.746944 69.057792,11.687616 69.235776,11.56896 C69.41376,11.450304 69.591744,11.331648 69.651072,11.094336 C69.7104,10.857024 69.769728,10.560384 69.769728,10.145088 L69.769728,2.254464 C69.769728,1.839168 69.7104,1.542528 69.651072,1.364544 C69.591744,1.18656 69.473088,1.067904 69.235776,1.008576 C69.057792,0.949248 68.761152,0.88992 68.345856,0.88992 L68.345856,0.59328 C68.701824,0.652608 69.295104,0.652608 69.947712,0.652608 C70.481664,0.652608 70.89696,0.652608 71.312256,0.59328 L77.482368,9.433152 L77.482368,2.432448 C77.482368,2.017152 77.42304,1.720512 77.363712,1.4832 C77.304384,1.245888 77.1264,1.127232 76.889088,1.008576 C76.651776,0.88992 76.355136,0.88992 75.880512,0.830592 L75.880512,0.533952 C76.295808,0.59328 76.889088,0.59328 77.660352,0.59328 C78.372288,0.59328 78.90624,0.59328 79.262208,0.533952 L79.262208,0.830592 C78.90624,0.88992 78.6096,0.949248 78.431616,1.008576 Z" id="Path"></path>
                                        <path d="M90.059904,9.967104 C90.059904,10.560384 90.119232,11.27232 90.17856,12.043584 C89.407296,11.984256 88.042752,11.984256 86.203584,11.984256 C83.94912,11.984256 82.287936,11.984256 81.160704,12.043584 L81.160704,11.746944 C81.576,11.746944 81.87264,11.687616 82.050624,11.628288 C82.228608,11.56896 82.347264,11.450304 82.46592,11.27232 C82.525248,11.094336 82.584576,10.797696 82.584576,10.3824 L82.584576,2.254464 C82.584576,1.839168 82.525248,1.542528 82.46592,1.364544 C82.406592,1.18656 82.287936,1.067904 82.050624,1.008576 C81.87264,0.949248 81.576,0.88992 81.160704,0.88992 L81.160704,0.59328 C82.287936,0.652608 84.008448,0.652608 86.203584,0.652608 C87.924096,0.652608 89.110656,0.652608 89.822592,0.59328 C89.763264,1.305216 89.703936,1.957824 89.703936,2.491776 C89.703936,2.907072 89.703936,3.26304 89.763264,3.500352 L89.347968,3.500352 C89.28864,2.788416 89.169984,2.254464 89.051328,1.957824 C88.932672,1.601856 88.69536,1.364544 88.39872,1.18656 C88.10208,1.008576 87.627456,0.949248 87.034176,0.949248 L85.610304,0.949248 C85.195008,0.949248 84.898368,1.008576 84.720384,1.067904 C84.5424,1.127232 84.423744,1.245888 84.305088,1.423872 C84.24576,1.601856 84.186432,1.898496 84.186432,2.313792 L84.186432,6.170112 L85.372992,6.170112 C85.966272,6.170112 86.32224,5.992128 86.559552,5.695488 C86.737536,5.398848 86.856192,5.04288 86.91552,4.686912 C86.974848,4.330944 86.974848,4.15296 87.034176,4.034304 L87.449472,4.034304 C87.390144,4.568256 87.390144,5.102208 87.390144,5.576832 L87.390144,6.348096 C87.390144,6.882048 87.449472,7.653312 87.5088,8.661888 L87.093504,8.661888 C87.093504,8.60256 87.034176,8.30592 86.974848,7.890624 C86.91552,7.416 86.737536,7.11936 86.500224,6.882048 C86.262912,6.644736 85.847616,6.52608 85.372992,6.52608 L84.186432,6.52608 L84.186432,10.441728 C84.186432,10.857024 84.24576,11.153664 84.305088,11.331648 C84.364416,11.509632 84.483072,11.628288 84.720384,11.687616 C84.898368,11.746944 85.195008,11.806272 85.610304,11.806272 L86.91552,11.806272 C87.627456,11.806272 88.220736,11.687616 88.576704,11.509632 C88.932672,11.331648 89.229312,11.035008 89.407296,10.619712 C89.58528,10.204416 89.703936,9.670464 89.822592,8.8992 L90.237888,8.8992 C90.059904,9.077184 90.059904,9.433152 90.059904,9.967104 Z" id="Path"></path>
                                    </g>
                                </g>
                            </g>
                        </g>
                    </g>
                </g>
            </g>
        </g>
    </g>
</svg>