<?xml version="1.0" encoding="UTF-8"?>
<svg width="24px" height="23px" viewBox="0 0 24 23" version="1.1" xmlns="http://www.w3.org/2000/svg" xmlns:xlink="http://www.w3.org/1999/xlink">
    <!-- Generator: sketchtool 55.2 (78181) - https://sketchapp.com -->
    <title>6C186706-FC37-4195-A742-3F7D2A3AD5A6</title>
    <desc>Created with sketchtool.</desc>
    <g id="Main" stroke="none" stroke-width="1" fill="none" fill-rule="evenodd" opacity="0.8">
        <g id="Explore-People" transform="translate(-137.000000, -1148.000000)" fill="#0E3232" fill-rule="nonzero">
            <g id="Featured" transform="translate(112.000000, 849.000000)">
                <g id="Record-Card/Person---Condensed" transform="translate(0.000000, 72.000000)">
                    <g id="Connections">
                        <g transform="translate(25.128866, 197.000000)">
                            <g id="Connection-Icons" transform="translate(0.000000, 30.000000)">
                                <g id="People">
                                    <g id="Combined-Shape">
                                        <path d="M17.7089831,18.9015924 C19.848319,17.1403319 21.2112307,14.4786009 21.2112307,11.5 C21.2112307,6.19648261 16.8903621,1.8975448 11.5592784,1.8975448 C6.22871516,1.8975448 1.90732602,6.196773 1.90732602,11.5 C1.90732602,14.5608938 3.34691816,17.2873237 5.58924435,19.0456975 C6.75604612,16.8079059 9.08686744,15.356057 11.69177,15.356057 C14.238964,15.356057 16.5190348,16.7458295 17.7089831,18.9015924 Z M16.1174148,19.9665064 C15.2819543,18.321544 13.5901389,17.2536018 11.69177,17.2536018 C9.75040644,17.2536018 8.02094643,18.3684055 7.20586154,20.0725198 C8.51385696,20.7312791 9.99300387,21.1024552 11.5592784,21.1024552 C13.2079057,21.1024552 14.7599217,20.691329 16.1174148,19.9665064 Z M2.01241086e-13,11.5 C2.01241086e-13,5.14878794 5.17532808,1.77635684e-15 11.5592784,1.77635684e-15 C17.9437717,1.77635684e-15 23.1185567,5.14852003 23.1185567,11.5 C23.1185567,17.85148 17.9437717,23 11.5592784,23 C5.17532808,23 2.01241086e-13,17.8512121 2.01241086e-13,11.5 Z M7.31141641,10.640869 C7.31141641,8.3349274 9.18994555,6.46570822 11.5072861,6.46570822 C13.8252765,6.46570822 15.7039682,8.33476566 15.7039682,10.640869 C15.7039682,12.9464066 13.8250329,14.8160298 11.5072861,14.8160298 C9.19018909,14.8160298 7.31141641,12.9462448 7.31141641,10.640869 Z M9.21874243,10.640869 C9.21874243,11.8984067 10.2437241,12.918485 11.5072864,12.918485 C12.7715723,12.918485 13.7966427,11.898495 13.7966427,10.640869 C13.7966427,9.38275072 12.7718898,8.36325302 11.5072864,8.36325302 C10.2434066,8.36325302 9.21874243,9.38283895 9.21874243,10.640869 Z"></path>
                                    </g>
                                </g>
                            </g>
                        </g>
                    </g>
                </g>
            </g>
        </g>
    </g>
</svg>