<?xml version="1.0" encoding="UTF-8"?>
<svg width="26px" height="26px" viewBox="0 0 26 26" version="1.1" xmlns="http://www.w3.org/2000/svg" xmlns:xlink="http://www.w3.org/1999/xlink">
    <!-- Generator: sketchtool 50.2 (55047) - http://www.bohemiancoding.com/sketch -->
    <title>564D1209-3386-448C-94D6-B1483162BA64</title>
    <desc>Created with sketchtool.</desc>
    <defs></defs>
    <g id="Symbols" stroke="none" stroke-width="1" fill="none" fill-rule="evenodd" stroke-linecap="round" stroke-linejoin="round">
        <g id="personCard" transform="translate(-14.000000, -14.000000)" fill-rule="nonzero" stroke="#122E46">
            <g id="Person">
                <g transform="translate(15.000000, 15.000000)">
                    <path d="M0,12.087963 C0,5.41203704 5.41203704,0 12.087963,0 C18.7648148,0 24.1759259,5.41203704 24.1759259,12.087963 C24.1759259,18.7638889 18.7648148,24.1759259 12.087963,24.1759259 C5.41203704,24.1759259 0,18.7638889 0,12.087963 Z" id="Shape" fill="#ECEAE5"></path>
                    <path d="M8.33333333,11.1037037 C8.33333333,9.06203704 9.98796296,7.40740741 12.0287037,7.40740741 C14.0703704,7.40740741 15.725,9.06203704 15.725,11.1037037 C15.725,13.1444444 14.0703704,14.8 12.0287037,14.8 C9.98796296,14.8 8.33333333,13.1444444 8.33333333,11.1037037 Z" id="Shape"></path>
                    <path d="M18.4654882,21.7592593 C17.4503367,19.3130471 15.053367,17.5925926 12.2389731,17.5925926 L12.2389731,17.5925926 C9.43367003,17.5925926 7.03367003,19.3001684 6.01321549,21.7357744" id="Shape"></path>
                </g>
            </g>
        </g>
    </g>
</svg>