<?xml version="1.0" encoding="UTF-8"?>
<svg width="25px" height="25px" viewBox="0 0 25 25" version="1.1" xmlns="http://www.w3.org/2000/svg" xmlns:xlink="http://www.w3.org/1999/xlink">
    <!-- Generator: Sketch 56.2 (81672) - https://sketch.com -->
    <title>People</title>
    <desc>Created with Sketch.</desc>
    <g id="Main" stroke="none" stroke-width="1" fill="none" fill-rule="evenodd">
        <g id="Home" transform="translate(-562.000000, -697.000000)" fill="#0E3232" fill-rule="nonzero">
            <g id="Explore" transform="translate(0.000000, 622.000000)">
                <g id="Explore-Buttons" transform="translate(537.000000, 50.000000)">
                    <g id="People" transform="translate(25.000000, 25.000000)">
                        <g id="Combined-Shape">
                            <path d="M19.1501825,20.5452091 C21.4636227,18.6307955 22.9374513,15.7376097 22.9374513,12.5 C22.9374513,6.73530719 18.26494,2.0625487 12.5,2.0625487 C6.73562282,2.0625487 2.0625487,6.73562282 2.0625487,12.5 C2.0625487,15.8270585 3.61929832,18.7905693 6.04411043,20.7018451 C7.30586931,18.269463 9.82637844,16.6913663 12.6432742,16.6913663 C15.397765,16.6913663 17.8633933,18.2019886 19.1501825,20.5452091 Z M17.4290885,21.7027243 C16.5256362,19.9147218 14.6961369,18.753915 12.6432742,18.753915 C10.5439178,18.753915 8.67371023,19.9656581 7.79229179,21.8179563 C9.206735,22.533999 10.8062584,22.9374513 12.5,22.9374513 C14.2827966,22.9374513 15.9611194,22.490575 17.4290885,21.7027243 Z M2.00728323e-13,12.5 C2.00728323e-13,5.59650863 5.59650863,1.77635684e-15 12.5,1.77635684e-15 C19.4040787,1.77635684e-15 25,5.59621742 25,12.5 C25,19.4037826 19.4040787,25 12.5,25 C5.59650863,25 2.00728323e-13,19.4034914 2.00728323e-13,12.5 Z M7.90643668,11.566162 C7.90643668,9.05970369 9.93784508,7.02794372 12.4437765,7.02794372 C14.9504105,7.02794372 16.9819947,9.0595279 16.9819947,11.566162 C16.9819947,14.072181 14.9501471,16.1043802 12.4437765,16.1043802 C9.93810844,16.1043802 7.90643668,14.0720052 7.90643668,11.566162 Z M9.96898538,11.566162 C9.96898538,12.9330508 11.0773825,14.0418315 12.4437765,14.0418315 C13.810953,14.0418315 14.919446,12.9331467 14.919446,11.566162 C14.919446,10.1986421 13.8112963,9.09049241 12.4437765,9.09049241 C11.0770392,9.09049241 9.96898538,10.198738 9.96898538,11.566162 Z"></path>
                        </g>
                    </g>
                </g>
            </g>
        </g>
    </g>
</svg>