<?xml version="1.0" encoding="UTF-8"?>
<svg width="46px" height="26px" viewBox="0 0 46 26" version="1.1" xmlns="http://www.w3.org/2000/svg" xmlns:xlink="http://www.w3.org/1999/xlink">
    <!-- Generator: sketchtool 51.3 (57544) - http://www.bohemiancoding.com/sketch -->
    <title>FFC36BC4-38E9-4952-8A28-180C49ABF5A8</title>
    <desc>Created with sketchtool.</desc>
    <defs></defs>
    <g id="Explore---People---Full-Record" stroke="none" stroke-width="1" fill="none" fill-rule="evenodd">
        <g id="People---Full-Record" transform="translate(-313.000000, -2909.000000)">
            <g id="Group-5" transform="translate(115.000000, 2863.000000)">
                <g id="Pinterest-Button-Small" transform="translate(198.000000, 46.000000)">
                    <rect id="Rectangle-46" fill="#B73939" x="0" y="0" width="46" height="26" rx="3"></rect>
                    <path d="M23.893425,5 C19.3107832,5 17,8.13055477 17,10.7410721 C17,12.3217281 17.6281349,13.7280156 18.9752562,14.2521307 C19.1960878,14.3381499 19.3940536,14.255121 19.4580858,14.0220731 C19.5026352,13.8607919 19.6081192,13.4538804 19.6551549,13.2845605 C19.7197169,13.0540368 19.694691,12.9731826 19.5164525,12.77229 C19.1280205,12.3357086 18.8797582,11.7705451 18.8797582,10.9700423 C18.8797582,8.64748543 20.7035545,6.56838417 23.6287776,6.56838417 C26.2189629,6.56838417 27.6420995,8.07638015 27.6420995,10.0903165 C27.6420995,12.7401736 26.4112632,14.9766725 24.5841247,14.9766725 C23.5749759,14.9766725 22.8196734,14.1815289 23.0617403,13.2063859 C23.3517396,12.0420783 23.9133561,10.7856545 23.9133561,9.94522954 C23.9133561,9.19299854 23.4895454,8.5655439 22.6124145,8.5655439 C21.5808891,8.5655439 20.7522206,9.58231789 20.7522206,10.9443337 C20.7522206,11.8117877 21.0599093,12.3985434 21.0599093,12.3985434 C21.0599093,12.3985434 20.0043361,16.6601631 19.8192501,17.4064524 C19.4506677,18.8927785 19.7637773,20.7149096 19.7903928,20.8989091 C19.8058812,21.0079962 19.9529799,21.033899 20.0194984,20.9514915 C20.1146704,20.8331617 21.3433057,19.3880005 21.7609618,17.944082 C21.8791625,17.5352287 22.4395154,15.417914 22.4395154,15.417914 C22.7745941,16.0269609 23.7540296,16.5634255 24.7955817,16.5634255 C27.8963126,16.5634255 30,13.8700735 30,10.264918 C29.9999592,7.53878935 27.5766,5 23.893425,5 L23.893425,5 Z" id="pinterest-icon" fill="#FFFFFF"></path>
                </g>
            </g>
        </g>
    </g>
</svg>