<?xml version="1.0" encoding="UTF-8"?>
<svg width="18px" height="21px" viewBox="0 0 18 21" version="1.1" xmlns="http://www.w3.org/2000/svg" xmlns:xlink="http://www.w3.org/1999/xlink">
    <!-- Generator: sketchtool 57.1 (101010) - https://sketch.com -->
    <title>6AFEC3BE-004C-4B1F-BD2F-22A6C197F330</title>
    <desc>Created with sketchtool.</desc>
    <g id="Main" stroke="none" stroke-width="1" fill="none" fill-rule="evenodd">
        <g id="Home" transform="translate(-565.000000, -952.000000)" fill="#0E3232" fill-rule="nonzero">
            <g id="Explore" transform="translate(0.000000, 622.000000)">
                <g id="Explore-Buttons" transform="translate(537.000000, 50.000000)">
                    <g id="Sources" transform="translate(28.000000, 280.000000)">
                        <g id="Combined-Shape">
                            <path d="M16.9806683,3.55271368e-15 C17.5436297,3.55271368e-15 18,0.458144769 18,1.01287365 L18,19.9871264 C18,20.546521 17.5550537,21 16.9806683,21 L1.01933169,21 C0.456370344,21 1.66977543e-13,20.5418552 1.66977543e-13,19.9871264 L1.66977543e-13,1.01287365 C1.66977543e-13,0.453478979 0.444946289,3.55271368e-15 1.01933169,3.55271368e-15 L16.9806683,3.55271368e-15 Z M15.9708468,2.01380907 L2.02915318,2.01380907 L2.02915318,18.9861909 L15.9708468,18.9861909 L15.9708468,2.01380907 Z M8.70701057,12.5395511 C9.26734575,12.5395511 9.72158716,12.9903576 9.72158716,13.5464556 C9.72158716,14.1025536 9.26734575,14.5533602 8.70701057,14.5533602 L8.70701057,14.5533602 L5.24538373,14.5533602 C4.68504856,14.5533602 4.23080714,14.1025536 4.23080714,13.5464556 C4.23080714,12.9903576 4.68504856,12.5395511 5.24538373,12.5395511 L5.24538373,12.5395511 Z M5.24538373,9.05938623 L12.6796213,9.05938623 C13.2399565,9.05938623 13.6941979,9.51019274 13.6941979,10.0662908 C13.6941979,10.5853156 13.2985031,11.0126198 12.7901706,11.0672869 L12.6796213,11.0731953 L5.24538373,11.0731953 C4.68504856,11.0731953 4.23080714,10.6223888 4.23080714,10.0662908 C4.23080714,9.54726595 4.62650189,9.11996173 5.13483444,9.06529461 L5.24538373,9.05938623 L12.6796213,9.05938623 Z M12.6796213,5.57922137 C13.2399565,5.57922137 13.6941979,6.03002789 13.6941979,6.58612591 C13.6941979,7.10515072 13.2985031,7.53245494 12.7901706,7.58712206 L12.6796213,7.59303044 L5.24538373,7.59303044 C4.68504856,7.59303044 4.23080714,7.14222393 4.23080714,6.58612591 C4.23080714,6.06710109 4.62650189,5.63979687 5.13483444,5.58512975 L5.24538373,5.57922137 L12.6796213,5.57922137 Z"></path>
                        </g>
                    </g>
                </g>
            </g>
        </g>
    </g>
</svg>