<?xml version="1.0" encoding="UTF-8"?>
<svg width="26px" height="26px" viewBox="0 0 26 26" version="1.1" xmlns="http://www.w3.org/2000/svg" xmlns:xlink="http://www.w3.org/1999/xlink">
    <!-- Generator: sketchtool 52.4 (67378) - http://www.bohemiancoding.com/sketch -->
    <title>22C718CA-3C8F-4659-9B91-714ECA22B34E</title>
    <desc>Created with sketchtool.</desc>
    <g id="Explore---People" stroke="none" stroke-width="1" fill="none" fill-rule="evenodd" stroke-linecap="round" stroke-linejoin="round">
        <g id="Explore---People---Gender---Results" transform="translate(-568.000000, -719.000000)" fill-rule="nonzero" stroke="#122E46">
            <g id="Person-Card" transform="translate(351.000000, 574.000000)">
                <g id="Connections">
                    <g transform="translate(218.000000, 146.000000)">
                        <g id="People">
                            <g id="Shape">
                                <path d="M0,12.087963 C0,5.41203704 5.41203704,0 12.087963,0 C18.7648148,0 24.1759259,5.41203704 24.1759259,12.087963 C24.1759259,18.7638889 18.7648148,24.1759259 12.087963,24.1759259 C5.41203704,24.1759259 0,18.7638889 0,12.087963 Z"></path>
                                <path d="M8.33333333,11.1037037 C8.33333333,9.06203704 9.98796296,7.40740741 12.0287037,7.40740741 C14.0703704,7.40740741 15.725,9.06203704 15.725,11.1037037 C15.725,13.1444444 14.0703704,14.8 12.0287037,14.8 C9.98796296,14.8 8.33333333,13.1444444 8.33333333,11.1037037 Z"></path>
                                <path d="M18.4654882,21.7592593 C17.4503367,19.3130471 15.053367,17.5925926 12.2389731,17.5925926 L12.2389731,17.5925926 C9.43367003,17.5925926 7.03367003,19.3001684 6.01321549,21.7357744"></path>
                            </g>
                        </g>
                    </g>
                </g>
            </g>
        </g>
    </g>
</svg>