<?xml version="1.0" encoding="UTF-8"?>
<svg width="21px" height="24px" viewBox="0 0 21 24" version="1.1" xmlns="http://www.w3.org/2000/svg" xmlns:xlink="http://www.w3.org/1999/xlink">
    <!-- Generator: sketchtool 52.4 (67378) - http://www.bohemiancoding.com/sketch -->
    <title>B7CB16EB-D4D0-4CF9-A073-CF14A27E199F</title>
    <desc>Created with sketchtool.</desc>
    <g id="Explore---People" stroke="none" stroke-width="1" fill="none" fill-rule="evenodd" stroke-linecap="round" stroke-linejoin="round">
        <g id="Explore---People---Gender---Results" transform="translate(-655.000000, -720.000000)" fill-rule="nonzero" stroke="#122E46">
            <g id="Person-Card" transform="translate(351.000000, 574.000000)">
                <g id="Connections">
                    <g transform="translate(218.000000, 146.000000)">
                        <g id="Places" transform="translate(87.000000, 1.000000)">
                            <g id="Shape">
                                <path d="M9.50052172,0 C4.25306167,0 0,4.27331571 0,9.54576534 C0,12.4561491 1.30430007,15.0583007 3.34944258,16.809144 L3.34422538,16.814386 L9.50052172,23 L15.6568181,16.814386 L15.6516009,16.809144 C17.6967434,15.0583007 19,12.4561491 19,9.54576534 C19,4.27331571 14.7469383,0 9.50052172,0 Z"></path>
                                <path d="M6,9.5 C6,7.56744251 7.56646102,6 9.5,6 C11.4325575,6 13,7.56744251 13,9.5 C13,11.433539 11.4325575,13 9.5,13 C7.56646102,13 6,11.433539 6,9.5 Z"></path>
                            </g>
                        </g>
                    </g>
                </g>
            </g>
        </g>
    </g>
</svg>