<?xml version="1.0" encoding="UTF-8"?>
<svg width="23px" height="23px" viewBox="0 0 23 23" version="1.1" xmlns="http://www.w3.org/2000/svg" xmlns:xlink="http://www.w3.org/1999/xlink">
    <!-- Generator: sketchtool 52.4 (67378) - http://www.bohemiancoding.com/sketch -->
    <title>E97D535F-F12E-4C2F-829E-22B2F407FD74</title>
    <desc>Created with sketchtool.</desc>
    <g id="Explore---People" stroke="none" stroke-width="1" fill="none" fill-rule="evenodd">
        <g id="Explore---People---Gender---Results" transform="translate(-738.000000, -932.000000)" fill="#122E46" fill-rule="nonzero">
            <g id="Person-Card" transform="translate(351.000000, 785.000000)">
                <g id="Connections">
                    <g transform="translate(218.000000, 146.000000)">
                        <g id="Events" transform="translate(169.000000, 1.000000)">
                            <g id="Shape">
                                <path d="M17.25,1.91666667 L17.25,0 L16.2916667,0 L16.2916667,1.91666667 L6.70833333,1.91666667 L6.70833333,0 L5.75,0 L5.75,1.91666667 L0,1.91666667 L0,23 L23,23 L23,1.91666667 L17.25,1.91666667 Z M22.0416667,22.0416667 L0.958333333,22.0416667 L0.958333333,7.66666667 L22.0416667,7.66666667 L22.0416667,22.0416667 Z M22.0416667,6.70833333 L0.958333333,6.70833333 L0.958333333,2.875 L5.75,2.875 L5.75,4.79166667 L6.70833333,4.79166667 L6.70833333,2.875 L16.2916667,2.875 L16.2916667,4.79166667 L17.25,4.79166667 L17.25,2.875 L22.0416667,2.875 L22.0416667,6.70833333 Z"></path>
                                <polygon points="14.8872727 14.8872727 18.5672727 14.8872727 18.5672727 18.5672727 14.8872727 18.5672727"></polygon>
                            </g>
                        </g>
                    </g>
                </g>
            </g>
        </g>
    </g>
</svg>